<svg xmlns="http://www.w3.org/2000/svg" viewBox="0 0 1100 530" width="100%" height="100%">
    <defs>
        <!-- Drop Shadows -->
        <filter id="shadow" x="-5%" y="-5%" width="110%" height="110%">
            <feDropShadow dx="0" dy="4" stdDeviation="8" flood-color="#0f172a" flood-opacity="0.1"/>
        </filter>
        <filter id="card-shadow" x="-10%" y="-10%" width="120%" height="120%">
            <feDropShadow dx="0" dy="2" stdDeviation="4" flood-color="#0f172a" flood-opacity="0.05"/>
        </filter>

        <!-- Gradients -->
        <radialGradient id="sphereGrad" cx="30%" cy="30%" r="70%">
            <stop offset="0%" stop-color="#ffffff"/>
            <stop offset="40%" stop-color="#cbd5e1"/>
            <stop offset="100%" stop-color="#475569"/>
        </radialGradient>
        <radialGradient id="redBallGrad" cx="35%" cy="35%" r="65%">
            <stop offset="0%" stop-color="#ff8787"/>
            <stop offset="40%" stop-color="#e03131"/>
            <stop offset="100%" stop-color="#9c1c1c"/>
        </radialGradient>
        <linearGradient id="videoBg" x1="0%" y1="0%" x2="100%" y2="100%">
            <stop offset="0%" stop-color="#8f9a7c"/>
            <stop offset="50%" stop-color="#5c634c"/>
            <stop offset="100%" stop-color="#2d3024"/>
        </linearGradient>

        <!-- Arrowheads -->
        <marker id="arrow" viewBox="0 0 10 10" refX="6" refY="5" markerWidth="6" markerHeight="6" orient="auto-start-reverse">
            <path d="M 0 1.5 L 7 5 L 0 8.5 z" fill="#475569"/>
        </marker>
        <marker id="arrow-blue" viewBox="0 0 10 10" refX="6" refY="5" markerWidth="6" markerHeight="6" orient="auto-start-reverse">
            <path d="M 0 1.5 L 7 5 L 0 8.5 z" fill="#1d4ed8"/>
        </marker>
        <marker id="arrow-green" viewBox="0 0 10 10" refX="6" refY="5" markerWidth="6" markerHeight="6" orient="auto-start-reverse">
            <path d="M 0 1.5 L 7 5 L 0 8.5 z" fill="#16a34a"/>
        </marker>
        <marker id="arrow-purple" viewBox="0 0 10 10" refX="6" refY="5" markerWidth="6" markerHeight="6" orient="auto-start-reverse">
            <path d="M 0 1.5 L 7 5 L 0 8.5 z" fill="#7e22ce"/>
        </marker>
        <marker id="arrow-small" viewBox="0 0 10 10" refX="6" refY="5" markerWidth="5" markerHeight="5" orient="auto-start-reverse">
            <path d="M 0 2 L 6 5 L 0 8 z" fill="#475569"/>
        </marker>
    </defs>

    <!-- Background -->
    <rect width="100%" height="100%" fill="#f1f5f9"/>

    <!-- Background Decorative Network Lines -->
    <g stroke="#cbd5e1" stroke-width="1" opacity="0.4" fill="none">
        <path d="M 0,100 L 100,50 L 150,120 L 80,180 Z"/>
        <path d="M 100,50 L 220,20"/>
        <path d="M 150,120 L 250,150"/>
        <circle cx="100" cy="50" r="3" fill="#cbd5e1"/>
        <circle cx="150" cy="120" r="3" fill="#cbd5e1"/>
        <circle cx="80" cy="180" r="3" fill="#cbd5e1"/>
        <circle cx="220" cy="20" r="3" fill="#cbd5e1"/>
        <circle cx="250" cy="150" r="3" fill="#cbd5e1"/>

        <path d="M 1000,450 L 1050,380 L 1100,420"/>
        <path d="M 1050,380 L 1020,300 L 950,330"/>
        <circle cx="1000" cy="450" r="3" fill="#cbd5e1"/>
        <circle cx="1050" cy="380" r="3" fill="#cbd5e1"/>
        <circle cx="1100" cy="420" r="3" fill="#cbd5e1"/>
        <circle cx="1020" cy="300" r="3" fill="#cbd5e1"/>
        <circle cx="950" cy="330" r="3" fill="#cbd5e1"/>
    </g>

    <!-- Main Title -->
    <text x="550" y="38" font-family="system-ui, -apple-system, sans-serif" font-size="24" font-weight="800" fill="#0f172a" text-anchor="middle" letter-spacing="0.5">WORLD MODEL: FROM STATIC 3D TO DYNAMIC VIDEO FLOW</text>

    <!-- Main Container -->
    <rect x="35" y="55" width="1030" height="430" rx="20" fill="#f8fafc" stroke="#e2e8f0" stroke-width="1.5" filter="url(#shadow)"/>
    <text x="550" y="82" font-family="system-ui, -apple-system, sans-serif" font-size="20" font-weight="700" fill="#0f172a" text-anchor="middle">World Model Pipeline</text>

    <!-- ================= ROW 1: STEP 1 ================= -->
    <!-- Step 1 Left Box -->
    <g filter="url(#card-shadow)">
        <rect x="55" y="110" width="210" height="95" rx="12" fill="#eff6ff" stroke="#bfdbfe" stroke-width="1"/>
        <rect x="105" y="120" width="110" height="22" rx="11" fill="#2563eb"/>
        <text x="160" y="136" font-family="system-ui, -apple-system, sans-serif" font-size="11" font-weight="800" fill="#ffffff" text-anchor="middle">STEP 1</text>
        <text x="160" y="165" font-family="system-ui, -apple-system, sans-serif" font-size="13" font-weight="800" fill="#1e40af" text-anchor="middle">
            <tspan x="160" dy="0">COARSE 3D</tspan>
            <tspan x="160" dy="16">SANDBOX</tspan>
            <tspan x="160" dy="16">GENERATION</tspan>
        </text>
    </g>

    <!-- Input Prompt -->
    <text x="350" y="140" font-family="system-ui, -apple-system, sans-serif" font-size="13" font-weight="700" fill="#0f172a" text-anchor="middle">Input Prompt</text>
    <text x="350" y="158" font-family="system-ui, -apple-system, sans-serif" font-size="12" font-style="italic" fill="#475569" text-anchor="middle">
        <tspan x="350" dy="0">"A ball rolls down</tspan>
        <tspan x="350" dy="15">a rocky ramp"</tspan>
    </text>
    <path d="M 415,150 L 460,150" fill="none" stroke="#475569" stroke-width="2" marker-end="url(#arrow)"/>

    <!-- Coarse 3D Scene Gen Model Box -->
    <g filter="url(#card-shadow)">
        <rect x="470" y="115" width="210" height="90" rx="12" fill="#e0f2fe" stroke="#0284c7" stroke-width="1.5"/>
        <!-- Icons inside Model Box -->
        <!-- Neural Net Icon -->
        <g transform="translate(490, 125)" stroke="#0284c7" stroke-width="1.2" fill="none">
            <line x1="5" y1="10" x2="18" y2="5"/><line x1="5" y1="10" x2="18" y2="15"/>
            <line x1="5" y1="20" x2="18" y2="15"/><line x1="5" y1="20" x2="18" y2="25"/>
            <line x1="5" y1="30" x2="18" y2="25"/>
            <line x1="18" y1="5" x2="32" y2="15"/><line x1="18" y1="15" x2="32" y2="15"/><line x1="18" y1="25" x2="32" y2="15"/>
            <circle cx="5" cy="10" r="2.5" fill="#bae6fd"/>
            <circle cx="5" cy="20" r="2.5" fill="#bae6fd"/>
            <circle cx="5" cy="30" r="2.5" fill="#bae6fd"/>
            <circle cx="18" cy="5" r="2.5" fill="#bae6fd"/>
            <circle cx="18" cy="15" r="2.5" fill="#bae6fd"/>
            <circle cx="18" cy="25" r="2.5" fill="#bae6fd"/>
            <circle cx="32" cy="15" r="3.5" fill="#0284c7"/>
        </g>
        <!-- Database Icon -->
        <g transform="translate(560, 125)">
            <ellipse cx="12" cy="5" rx="11" ry="3.5" fill="#bae6fd" stroke="#0284c7" stroke-width="1.2"/>
            <path d="M 1,5 L 1,22 A 11,3.5 0 0,0 23,22 L 23,5" fill="#bae6fd" stroke="#0284c7" stroke-width="1.2"/>
            <path d="M 1,10 A 11,3.5 0 0,0 23,10" fill="none" stroke="#0284c7" stroke-width="1.2"/>
            <path d="M 1,16 A 11,3.5 0 0,0 23,16" fill="none" stroke="#0284c7" stroke-width="1.2"/>
        </g>
        <!-- 3D Blocks Icon -->
        <g transform="translate(605, 123)">
            <g transform="translate(0, 10)">
                <path d="M 0,5 L 8,0 L 16,5 L 8,10 Z" fill="#bae6fd" stroke="#0284c7" stroke-width="1"/>
                <path d="M 0,5 L 0,13 L 8,18 L 8,10 Z" fill="#7dd3fc" stroke="#0284c7" stroke-width="1"/>
                <path d="M 8,10 L 8,18 L 16,13 L 16,5 Z" fill="#38bdf8" stroke="#0284c7" stroke-width="1"/>
            </g>
            <g transform="translate(11, 15)">
                <path d="M 0,5 L 8,0 L 16,5 L 8,10 Z" fill="#bae6fd" stroke="#0284c7" stroke-width="1"/>
                <path d="M 0,5 L 0,13 L 8,18 L 8,10 Z" fill="#7dd3fc" stroke="#0284c7" stroke-width="1"/>
                <path d="M 8,10 L 8,18 L 16,13 L 16,5 Z" fill="#38bdf8" stroke="#0284c7" stroke-width="1"/>
            </g>
            <g transform="translate(6, 0)">
                <path d="M 0,5 L 8,0 L 16,5 L 8,10 Z" fill="#bae6fd" stroke="#0284c7" stroke-width="1"/>
                <path d="M 0,5 L 0,13 L 8,18 L 8,10 Z" fill="#7dd3fc" stroke="#0284c7" stroke-width="1"/>
                <path d="M 8,10 L 8,18 L 16,13 L 16,5 Z" fill="#38bdf8" stroke="#0284c7" stroke-width="1"/>
            </g>
        </g>
        <text x="575" y="178" font-family="system-ui, -apple-system, sans-serif" font-size="12" font-weight="700" fill="#0369a1" text-anchor="middle">
            <tspan x="575" dy="0">Coarse 3D Scene</tspan>
            <tspan x="575" dy="14">Generation Model</tspan>
        </text>
    </g>

    <path d="M 680,150 L 740,150" fill="none" stroke="#1d4ed8" stroke-width="2" marker-end="url(#arrow-blue)"/>

    <!-- Coarse 3D Representation Box -->
    <g filter="url(#card-shadow)">
        <rect x="750" y="115" width="260" height="90" rx="12" fill="#f0f9ff" stroke="#0284c7" stroke-width="1.5"/>
        <!-- Wireframe Cube + Sphere -->
        <g transform="translate(770, 122)" stroke="#94a3b8" stroke-width="1" fill="none">
            <polygon points="15,5 35,0 50,10 30,15" fill="#f8fafc" opacity="0.5"/>
            <polygon points="15,25 35,20 50,30 30,35"/>
            <line x1="15" y1="5" x2="15" y2="25"/>
            <line x1="35" y1="0" x2="35" y2="20"/>
            <line x1="50" y1="10" x2="50" y2="30"/>
            <line x1="30" y1="15" x2="30" y2="35"/>
            <circle cx="32" cy="18" r="8" fill="url(#sphereGrad)" stroke="none"/>
        </g>
        <!-- Shaded Sphere -->
        <circle cx="855" cy="142" r="14" fill="url(#sphereGrad)"/>
        <!-- 3D Ramp -->
        <g transform="translate(895, 125)">
            <path d="M 0,22 L 45,22 L 45,5 Z" fill="#cbd5e1" stroke="#94a3b8" stroke-width="1"/>
            <path d="M 45,22 L 55,15 L 55,0 L 45,5 Z" fill="#94a3b8" stroke="#64748b" stroke-width="1"/>
            <path d="M 0,22 L 10,15 L 55,0 L 45,5 Z" fill="#e2e8f0" stroke="#94a3b8" stroke-width="1"/>
        </g>
        <text x="880" y="185" font-family="system-ui, -apple-system, sans-serif" font-size="12" font-weight="700" fill="#0f172a" text-anchor="middle">Coarse 3D Representation</text>
    </g>

    <!-- ================= ROW 2: STEP 2 ================= -->
    <!-- Step 2 Left Box -->
    <g filter="url(#card-shadow)">
        <rect x="55" y="225" width="210" height="105" rx="12" fill="#f0fdf4" stroke="#bbf7d0" stroke-width="1"/>
        <rect x="105" y="235" width="110" height="22" rx="11" fill="#16a34a"/>
        <text x="160" y="251" font-family="system-ui, -apple-system, sans-serif" font-size="11" font-weight="800" fill="#ffffff" text-anchor="middle">STEP 2</text>
        <text x="160" y="280" font-family="system-ui, -apple-system, sans-serif" font-size="13" font-weight="800" fill="#14532d" text-anchor="middle">
            <tspan x="160" dy="0">VLM-BASED</tspan>
            <tspan x="160" dy="16">PHYSICAL MOTION</tspan>
            <tspan x="160" dy="16">PREDICTION</tspan>
        </text>
    </g>

    <!-- Physics Laws & Constraints -->
    <g transform="translate(300, 235)">
        <text x="50" y="12" font-family="Georgia, serif" font-size="13" fill="#334155" text-anchor="middle">f = ∫₋₁⁰ <tspan dy="-4" font-size="10">∂v</tspan><tspan dy="4" font-size="10"></tspan>/<tspan dy="4" font-size="10">∂t</tspan></text>
        <text x="50" y="32" font-family="Georgia, serif" font-size="12" fill="#334155" text-anchor="middle"><tspan dy="-4" font-size="10">∂u</tspan><tspan dy="4" font-size="10"></tspan>/<tspan dy="4" font-size="10">∂t</tspan> + ½ Cᵢ(C)</text>
        <text x="50" y="52" font-family="Georgia, serif" font-size="13" fill="#334155" text-anchor="middle">E = √(n² + h²)</text>
        <text x="50" y="75" font-family="system-ui, -apple-system, sans-serif" font-size="12" font-weight="700" fill="#0f172a" text-anchor="middle">
            <tspan x="50" dy="0">Physics Laws</tspan>
            <tspan x="50" dy="15">&amp; Constraints</tspan>
        </text>
    </g>
    <path d="M 410,270 L 440,270" fill="none" stroke="#475569" stroke-width="2" marker-end="url(#arrow)"/>

    <!-- VLM Box -->
    <g filter="url(#card-shadow)">
        <rect x="450" y="235" width="235" height="70" rx="12" fill="#e6f4ea" stroke="#16a34a" stroke-width="1.5"/>
        <!-- Brain Icon -->
        <g transform="translate(465, 245)" fill="none" stroke="#16a34a" stroke-width="1.8" stroke-linecap="round" stroke-linejoin="round">
            <path d="M20,14 C15,14 12,17 12,21 C12,25 15,27 18,27 C16,30 18,34 22,34 C23,34 24,33 25,32 C26,33 27,34 28,34 C32,34 34,30 32,27 C35,27 38,25 38,21 C38,17 35,14 30,14 C30,11 27,9 25,9 C23,9 20,11 20,14 Z"/>
            <path d="M25,9 L25,32"/>
            <path d="M20,18 C22,18 23,20 23,22"/>
            <path d="M30,18 C28,18 27,20 27,22"/>
        </g>
        <text x="535" y="277" font-family="system-ui, -apple-system, sans-serif" font-size="22" font-weight="900" fill="#14532d">VLM</text>
        <text x="620" y="262" font-family="system-ui, -apple-system, sans-serif" font-size="12" font-weight="700" fill="#14532d" text-anchor="middle">
            <tspan x="620" dy="0">Physical</tspan>
            <tspan x="620" dy="14">Language</tspan>
            <tspan x="620" dy="14">Model</tspan>
        </text>
    </g>

    <path d="M 685,270 L 710,270" fill="none" stroke="#16a34a" stroke-width="2" marker-end="url(#arrow-green)"/>

    <!-- Physical Motion Prediction Box -->
    <g filter="url(#card-shadow)">
        <rect x="720" y="225" width="320" height="110" rx="12" fill="#f0fdf4" stroke="#16a34a" stroke-width="1.5"/>
        <text x="880" y="245" font-family="system-ui, -apple-system, sans-serif" font-size="13" font-weight="700" fill="#0f172a" text-anchor="middle">Physical Motion Prediction</text>
        
        <!-- Sequence of Ramps and Balls -->
        <!-- t=0 -->
        <g transform="translate(730, 255)">
            <path d="M 0,22 L 40,22 L 40,5 Z" fill="#cbd5e1" stroke="#94a3b8" stroke-width="0.8"/>
            <path d="M 40,22 L 48,17 L 48,0 L 40,5 Z" fill="#94a3b8" stroke="#64748b" stroke-width="0.8"/>
            <path d="M 0,22 L 8,17 L 48,0 L 40,5 Z" fill="#e2e8f0" stroke="#94a3b8" stroke-width="0.8"/>
            <circle cx="12" cy="12" r="5" fill="url(#sphereGrad)"/>
            <text x="24" y="36" font-family="system-ui, -apple-system, sans-serif" font-size="10" fill="#475569" text-anchor="middle">t=0</text>
        </g>
        
        <path d="M 792,275 L 804,275" fill="none" stroke="#475569" stroke-width="1" marker-end="url(#arrow-small)"/>

        <!-- t=1 -->
        <g transform="translate(810, 255)">
            <path d="M 0,22 L 40,22 L 40,5 Z" fill="#cbd5e1" stroke="#94a3b8" stroke-width="0.8"/>
            <path d="M 40,22 L 48,17 L 48,0 L 40,5 Z" fill="#94a3b8" stroke="#64748b" stroke-width="0.8"/>
            <path d="M 0,22 L 8,17 L 48,0 L 40,5 Z" fill="#e2e8f0" stroke="#94a3b8" stroke-width="0.8"/>
            <circle cx="22" cy="15" r="5" fill="url(#sphereGrad)"/>
            <text x="24" y="36" font-family="system-ui, -apple-system, sans-serif" font-size="10" fill="#475569" text-anchor="middle">t=1</text>
        </g>

        <path d="M 872,275 L 884,275" fill="none" stroke="#475569" stroke-width="1" marker-end="url(#arrow-small)"/>

        <!-- t=2 -->
        <g transform="translate(890, 255)">
            <path d="M 0,22 L 40,22 L 40,5 Z" fill="#cbd5e1" stroke="#94a3b8" stroke-width="0.8"/>
            <path d="M 40,22 L 48,17 L 48,0 L 40,5 Z" fill="#94a3b8" stroke="#64748b" stroke-width="0.8"/>
            <path d="M 0,22 L 8,17 L 48,0 L 40,5 Z" fill="#e2e8f0" stroke="#94a3b8" stroke-width="0.8"/>
            <circle cx="32" cy="18" r="5" fill="url(#sphereGrad)"/>
            <text x="24" y="36" font-family="system-ui, -apple-system, sans-serif" font-size="10" fill="#475569" text-anchor="middle">t=2</text>
        </g>

        <path d="M 952,275 L 964,275" fill="none" stroke="#475569" stroke-width="1" marker-end="url(#arrow-small)"/>

        <!-- t=3 -->
        <g transform="translate(970, 255)">
            <path d="M 0,22 L 40,22 L 40,5 Z" fill="#cbd5e1" stroke="#94a3b8" stroke-width="0.8"/>
            <path d="M 40,22 L 48,17 L 48,0 L 40,5 Z" fill="#94a3b8" stroke="#64748b" stroke-width="0.8"/>
            <path d="M 0,22 L 8,17 L 48,0 L 40,5 Z" fill="#e2e8f0" stroke="#94a3b8" stroke-width="0.8"/>
            <circle cx="42" cy="21" r="5" fill="url(#sphereGrad)"/>
            <text x="24" y="36" font-family="system-ui, -apple-system, sans-serif" font-size="10" fill="#475569" text-anchor="middle">t=3</text>
        </g>

        <text x="1026" y="275" font-family="system-ui, -apple-system, sans-serif" font-size="12" font-weight="bold" fill="#475569">...</text>
        <text x="880" y="322" font-family="system-ui, -apple-system, sans-serif" font-size="11" font-weight="700" fill="#475569" text-anchor="middle">4D Sequence (Time-Varying 3D)</text>
    </g>

    <!-- Winding Arrow Row 1 -> Row 2 -->
    <path d="M 880,205 L 880,218 L 567,218 L 567,230" fill="none" stroke="#1d4ed8" stroke-width="2" marker-end="url(#arrow-blue)"/>

    <!-- ================= ROW 3: STEP 3 ================= -->
    <!-- Step 3 Left Box -->
    <g filter="url(#card-shadow)">
        <rect x="55" y="345" width="210" height="105" rx="12" fill="#FFEB3B" stroke="#e9d5ff" stroke-width="1"/>
        <rect x="105" y="355" width="110" height="22" rx="11" fill="#9333ea"/>
        <text x="160" y="371" font-family="system-ui, -apple-system, sans-serif" font-size="11" font-weight="800" fill="#ffffff" text-anchor="middle">STEP 3</text>
        <text x="160" y="402" font-family="system-ui, -apple-system, sans-serif" font-size="13" font-weight="800" fill="#6b21a8" text-anchor="middle">
            <tspan x="160" dy="0">VIDEO DIFFUSION</tspan>
            <tspan x="160" dy="16">&amp; SYNTHESIS</tspan>
        </text>
    </g>

    <path d="M 265,400 L 415,400" fill="none" stroke="#7e22ce" stroke-width="2" marker-end="url(#arrow-purple)"/>

    <!-- Video Diffusion Box -->
    <g filter="url(#card-shadow)">
        <rect x="425" y="345" width="225" height="85" rx="12" fill="#faf5ff" stroke="#a855f7" stroke-width="1.5"/>
        <!-- Cloud/Diffusion Icon -->
        <g transform="translate(445, 362)" fill="none" stroke="#9333ea" stroke-width="1.8" stroke-linecap="round" stroke-linejoin="round">
            <path d="M18,23 C15,23 13,21 13,18 C13,15 16,13 19,13 C20,10 23,8 26,8 C30,8 33,11 34,14 C37,14 39,16 39,19 C39,22 37,24 34,24 L18,24 Z" fill="#fdf4ff"/>
            <circle cx="16" cy="29" r="1.2" fill="#9333ea" stroke="none"/>
            <circle cx="22" cy="32" r="0.8" fill="#9333ea" stroke="none"/>
            <circle cx="28" cy="29" r="1.8" fill="#9333ea" stroke="none"/>
            <circle cx="34" cy="32" r="1.2" fill="#9333ea" stroke="none"/>
            <circle cx="40" cy="28" r="0.8" fill="#9333ea" stroke="none"/>
        </g>
        <text x="550" y="385" font-family="system-ui, -apple-system, sans-serif" font-size="16" font-weight="800" fill="#0f172a" text-anchor="middle">
            <tspan x="550" dy="0">Video</tspan>
            <tspan x="550" dy="18">Diffusion</tspan>
        </text>
    </g>
    <text x="537" y="448" font-family="system-ui, -apple-system, sans-serif" font-size="12" font-weight="700" fill="#475569" text-anchor="middle">Conditioned on 4D Data</text>

    <path d="M 650,400 L 700,400" fill="none" stroke="#7e22ce" stroke-width="2" marker-end="url(#arrow-purple)"/>

    <!-- Generated High-Quality Video Box -->
    <g filter="url(#card-shadow)">
        <rect x="710" y="342" width="320" height="120" rx="12" fill="#fff7ed" stroke="#ea580c" stroke-width="1.5"/>
        
        <!-- Simulated Video Frame -->
        <g transform="translate(718, 349)">
            <rect width="304" height="78" rx="6" fill="url(#videoBg)"/>
            
            <!-- Rocky Slope -->
            <path d="M 0,55 L 304,72 L 304,78 L 0,78 Z" fill="#4a3f35"/>
            <path d="M 0,55 L 304,72" stroke="#3a3028" stroke-width="1.5" fill="none"/>
            
            <!-- Rock Texture Details -->
            <path d="M 50,58 L 70,63 M 120,62 L 150,65 M 220,67 L 250,70" stroke="#27201b" stroke-width="1" opacity="0.6"/>
            <path d="M 20,56 C 40,50 80,65 100,60 C 140,55 180,70 220,65 C 260,60 290,73 304,72" stroke="#5c5043" stroke-width="2" fill="none" opacity="0.4"/>

            <!-- Three Red Balls (representing motion) -->
            <circle cx="60" cy="48" r="9" fill="url(#redBallGrad)"/>
            <circle cx="160" cy="52" r="9" fill="url(#redBallGrad)"/>
            <circle cx="260" cy="57" r="9" fill="url(#redBallGrad)"/>
        </g>

        <!-- Banner at bottom of video box -->
        <rect x="718" y="431" width="304" height="25" rx="4" fill="#ffedd5"/>
        <text x="870" y="448" font-family="system-ui, -apple-system, sans-serif" font-size="11" font-weight="800" fill="#7c2d12" text-anchor="middle" letter-spacing="0.5">GENERATED HIGH-QUALITY VIDEO</text>
    </g>

    <!-- Winding Arrow Row 2 -> Row 3 -->
    <path d="M 880,335 L 880,348 L 537,348 L 537,342" fill="none" stroke="#16a34a" stroke-width="2" marker-end="url(#arrow-green)"/>

    <!-- Footer -->
    <text x="550" y="512" font-family="system-ui, -apple-system, sans-serif" font-size="13" font-style="italic" font-weight="600" fill="#334155" text-anchor="middle">Leveraging physical prediction and diffusion for realistic video creation.</text>
</svg>