<svg xmlns="http://www.w3.org/2000/svg" viewBox="2.0 2.0 1716.0 1151.0" style="font-family: Arial, sans-serif;">
  <defs>
    <!-- Arrow Markers -->
    <marker id="arrow-green" markerWidth="6" markerHeight="6" refX="5" refY="3" orient="auto">
      <path d="M0,0 L6,3 L0,6 L1,3 Z" fill="#3E7E46" />
    </marker>
    <marker id="arrow-purple" markerWidth="6" markerHeight="6" refX="5" refY="3" orient="auto">
      <path d="M0,0 L6,3 L0,6 L1,3 Z" fill="#6A3D9A" />
    </marker>
    <marker id="arrow-black" markerWidth="6" markerHeight="6" refX="5" refY="3" orient="auto">
      <path d="M0,0 L6,3 L0,6 L1,3 Z" fill="black" />
    </marker>
    
    <!-- Shadow Filter -->
    <filter id="shadow" x="-10%" y="-10%" width="120%" height="120%">
      <feGaussianBlur in="SourceAlpha" stdDeviation="2"/>
      <feOffset dx="1" dy="1" result="offsetblur"/>
      <feComponentTransfer>
        <feFuncA type="linear" slope="0.3"/>
      </feComponentTransfer>
      <feMerge> 
        <feMergeNode/>
        <feMergeNode in="SourceGraphic"/> 
      </feMerge>
    </filter>
  </defs>

  <!-- ==================== TOP SECTION: LEARNING ==================== -->
  <rect x="10" y="10" width="1580" height="480" rx="40" fill="#EFF7F0" />
  <text x="40" y="300" transform="rotate(-90 40,300)" font-size="50" font-weight="bold" fill="black">Learning</text>

  <!-- (a) Keyframe Extraction -->
  <g transform="translate(200, 35)">
    <rect x="0" y="0" width="420" height="450" rx="40" fill="white" />
    <text x="210" y="50" text-anchor="middle" font-size="45" font-weight="bold">(a) Keyframe Extraction</text>
    
    <!-- Image Grid Backgrounds -->
    <rect x="20" y="60" width="380" height="150" fill="#DDEedd" rx="5" />
    <rect x="20" y="180" width="380" height="150" fill="#DDEedd" rx="5" />
    <rect x="20" y="320" width="380" height="150" fill="#DDEedd" rx="5" />
    
    <!-- Image Placeholders (Simulated Content) -->
    <!-- Row 1: Kitchen -->
    <g transform="translate(30, 70)">
       <rect width="160" height="130" fill="#ddd" />
       <text x="0" y="30" font-size="40" fill="white" filter="url(#shadow)">Frame 1</text>
       <image href="" width="160" height="130" /> <!-- Placeholder for actual image logic -->
       <!-- Simulating kitchen content -->
       <rect x="0" y="40" width="160" height="90" fill="#e0e0e0" />
       <circle cx="80" cy="100" r="30" fill="white" stroke="#ccc" /> <!-- Pot -->
    </g>
    <g transform="translate(195, 70)">
       <rect width="160" height="130" fill="#ddd" />
       <text x="0" y="30" font-size="40" fill="white" filter="url(#shadow)">Frame 2</text>
       <rect x="0" y="40" width="160" height="90" fill="#e0e0e0" />
       <rect x="60" y="80" width="40" height="40" fill="#fff" /> <!-- Robot base -->
    </g>
    <text x="275" y="125" font-size="30" font-weight="bold">...</text>
    <g transform="translate(300, 70)">
       <rect width="160" height="130" fill="#ddd" />
       <text x="0" y="30" font-size="40" fill="white" filter="url(#shadow)">Frame 7</text>
       <rect x="0" y="40" width="160" height="90" fill="#e0e0e0" />
       <rect x="80" y="60" width="40" height="40" fill="#333" /> <!-- Robot arm -->
    </g>

    <!-- Row 2: Bedroom -->
    <g transform="translate(30, 190)">
       <rect width="160" height="130" fill="#ddd" />
       <text x="0" y="30" font-size="40" fill="white" filter="url(#shadow)">Frame 1</text>
       <rect x="0" y="40" width="160" height="90" fill="#a1887f" /> <!-- Bed -->
       <pattern id="stripes" width="20" height="20" patternUnits="userSpaceOnUse"><path d="M0,10 l20,0" stroke="white" stroke-width="2"/></pattern>
       <rect x="0" y="40" width="160" height="90" fill="url(#stripes)" opacity="0.5"/>
    </g>
    <g transform="translate(195, 190)">
       <rect width="160" height="130" fill="#ddd" />
       <text x="0" y="30" font-size="40" fill="white" filter="url(#shadow)">Frame 2</text>
       <rect x="0" y="40" width="160" height="90" fill="#a1887f" opacity="0.5"/>
       <rect x="80" y="50" width="50" height="80" fill="#eee" /> <!-- Robot -->
    </g>
    <text x="275" y="245" font-size="30" font-weight="bold">...</text>
    <g transform="translate(300, 190)">
       <rect width="160" height="130" fill="#ddd" />
       <text x="0" y="30" font-size="40" fill="white" filter="url(#shadow)">Frame 9</text>
       <rect x="0" y="40" width="160" height="90" fill="#a1887f" opacity="0.5"/>
       <rect x="100" y="80" width="40" height="40" fill="#333" /> <!-- Robot arm -->
    </g>

    <!-- Ellipsis Gap -->
    <text x="210" y="320" font-size="40" font-weight="bold" transform="rotate(90 210,320)">...</text>

    <!-- Row 3: Toy Room -->
    <g transform="translate(30, 330)">
       <rect width="160" height="130" fill="#ddd" />
       <text x="0" y="30" font-size="40" fill="white" filter="url(#shadow)">Frame 1</text>
       <rect x="0" y="40" width="160" height="90" fill="#eee" /> <!-- Floor -->
       <circle cx="50" cy="80" r="10" fill="orange" />
    </g>
    <g transform="translate(195, 330)">
       <rect width="160" height="130" fill="#ddd" />
       <text x="0" y="30" font-size="40" fill="white" filter="url(#shadow)">Frame 2</text>
       <rect x="0" y="40" width="160" height="90" fill="#eee" />
       <rect x="100" y="50" width="40" height="80" fill="#333" /> <!-- Robot -->
    </g>
    <text x="275" y="385" font-size="30" font-weight="bold">...</text>
    <g transform="translate(300, 330)">
       <rect width="160" height="130" fill="#ddd" />
       <text x="0" y="30" font-size="40" fill="white" filter="url(#shadow)">Frame 8</text>
       <rect x="0" y="40" width="160" height="90" fill="#eee" />
       <rect x="80" y="60" width="40" height="40" fill="#333" /> <!-- Robot arm -->
    </g>
  </g>

  <!-- DROID Dataset Cylinder -->
  <g transform="translate(60, 160)">
    <path d="M0,30 L0,220 A100,30 0 0,0 200,220 L200,30" fill="white" stroke="#808080" stroke-width="6" />
    <ellipse cx="100" cy="30" rx="100" ry="30" fill="white" stroke="#808080" stroke-width="6" />
    <text x="100" y="150" text-anchor="middle" font-size="45" fill="black">DROID</text>
    <text x="100" y="190" text-anchor="middle" font-size="45" fill="black">Dataset</text>
  </g>

  <!-- Green Arrows from Cylinder -->
  <path d="M160,260 L180,260 L180,145 L215,145" fill="none" stroke="#3E7E46" stroke-width="6" marker-end="url(#arrow-green)" />
  <path d="M160,260 L215,260" fill="none" stroke="#3E7E46" stroke-width="6" marker-end="url(#arrow-green)" />
  <path d="M160,260 L180,260 L180,415 L215,415" fill="none" stroke="#3E7E46" stroke-width="6" marker-end="url(#arrow-green)" />

  <!-- (b) Atomic Domain Generation -->
  <g transform="translate(640, 35)">
    <rect x="0" y="0" width="550" height="450" rx="60" fill="white" />
    <text x="275" y="60" text-anchor="middle" font-size="45" font-weight="bold">(b) Atomic Domain Generation</text>

    <!-- Box 1 -->
    <rect x="20" y="90" width="510" height="120" rx="20" fill="#C8E6C9" />
    <rect x="30" y="105" width="100" height="80" fill="#999" stroke="black" />
    <text x="35" y="140" font-size="24" font-weight="bold" fill="white">&lt;AF&gt;07</text>
    <text x="140" y="130" font-size="45" fill="black">Domain Construction</text>
    <text x="140" y="160" font-size="45" fill="black">&amp; Revision</text>
    
    <!-- Doc Icon 1 -->
    <g transform="translate(340, 90)">
        <path d="M0,0 L200,0 L230,30 L230,120 L0,120 Z" fill="white" stroke="black" stroke-width="2"/>
        <path d="M200,0 L200,30 L230,30" fill="none" stroke="black" stroke-width="2"/>
        <text x="10" y="30" font-size="24" font-family="serif">:<tspan fill="#0056b3" font-style="italic">predicates</tspan> (...)</text>
        <text x="10" y="60" font-size="24" font-family="serif">:<tspan fill="#2ca02c" font-style="italic">actions</tspan> ...</text>
        <text x="10" y="90" font-size="24" font-family="serif">:<tspan fill="#d35400" font-style="italic">precondition</tspan> (...)</text>
        <text x="10" y="115" font-size="24" font-family="serif">:<tspan fill="#e91e63" font-style="italic">effect</tspan> (...)</text>
    </g>

    <!-- Down Arrow -->
    <line x1="275" y1="170" x2="275" y2="200" stroke="black" stroke-width="4" marker-end="url(#arrow-black)" />

    <!-- Box 2 -->
    <rect x="20" y="195" width="510" height="230" rx="40" fill="#C8E6C9" />
    
    <!-- Left Column -->
    <rect x="30" y="210" width="100" height="80" fill="#999" stroke="black" />
    <text x="35" y="245" font-size="24" font-weight="bold" fill="white">&lt;AF&gt;04</text>
    <text x="140" y="250" font-size="45" fill="black">Solvability</text>
    <text x="140" y="290" font-size="45" fill="black">Check</text>
    
    <rect x="30" y="260" width="100" height="80" fill="#999" stroke="black" />
    <text x="35" y="295" font-size="24" font-weight="bold" fill="white">&lt;AF&gt;02</text>
    
    <rect x="30" y="335" width="100" height="80" fill="#999" stroke="black" />
    <text x="35" y="370" font-size="24" font-weight="bold" fill="white">&lt;AF&gt;01</text>
    <text x="140" y="370" font-size="45" fill="black">Solution</text>
    <text x="140" y="400" font-size="45" fill="black">Verification</text>

    <!-- Right Column -->
    <rect x="350" y="215" width="100" height="80" fill="#999" stroke="black" />
    <text x="355" y="250" font-size="24" font-weight="bold" fill="white">&lt;AF&gt;06</text>
    <text x="350" y="300" font-size="45" fill="black">Closed-Loop</text>
    <text x="350" y="340" font-size="45" fill="black">Refinement</text>

    <!-- Feedback Arrows -->
    <line x1="340" y1="240" x2="200" y2="240" stroke="black" stroke-width="4" marker-end="url(#arrow-black)" />
    <line x1="200" y1="270" x2="340" y2="270" stroke="black" stroke-width="4" marker-end="url(#arrow-black)" />
    <text x="270" y="295" text-anchor="middle" font-size="30" fill="black">Feedback</text>
    
    <line x1="275" y1="310" x2="275" y2="335" stroke="black" stroke-width="4" marker-end="url(#arrow-black)" />
    
    <line x1="275" y1="380" x2="275" y2="400" stroke="black" stroke-width="4" marker-end="url(#arrow-black)" />
    <line x1="275" y1="380" x2="340" y2="380" stroke="black" stroke-width="4" marker-end="url(#arrow-black)" />
    <line x1="275" y1="380" x2="340" y2="390" stroke="black" stroke-width="4" marker-end="url(#arrow-black)" />
    <text x="270" y="375" text-anchor="middle" font-size="30" fill="black">Feedback</text>

    <!-- Doc Icon 2 -->
    <g transform="translate(340, 335)">
        <path d="M0,0 L200,0 L230,30 L230,120 L0,120 Z" fill="white" stroke="black" stroke-width="2"/>
        <path d="M200,0 L200,30 L230,30" fill="none" stroke="black" stroke-width="2"/>
        <text x="10" y="30" font-size="24" font-family="serif">:<tspan fill="#0056b3" font-style="italic">predicates</tspan> (...)</text>
        <text x="10" y="60" font-size="24" font-family="serif">:<tspan fill="#2ca02c" font-style="italic">actions</tspan> ...</text>
        <text x="10" y="90" font-size="24" font-family="serif">:<tspan fill="#d35400" font-style="italic">precondition</tspan> (...)</text>
        <text x="10" y="115" font-size="24" font-family="serif">:<tspan fill="#e91e63" font-style="italic">effect</tspan> (...)</text>
    </g>
  </g>

  <!-- (c) Domain Fusion -->
  <g transform="translate(1190, 35)">
    <rect x="0" y="0" width="400" height="450" rx="60" fill="white" />
    <text x="200" y="60" text-anchor="middle" font-size="45" font-weight="bold">(c) Domain Fusion</text>
    
    <!-- Top Box -->
    <rect x="20" y="75" width="360" height="130" fill="white" stroke="black" stroke-width="4" />
    <text x="200" y="105" text-anchor="middle" font-size="40" fill="black">Unified Domain</text>
    
    <!-- Inner Boxes -->
    <g transform="translate(30, 115)">
        <path d="M0,0 L150,0 L180,30 L180,110 L0,110 Z" fill="white" stroke="black" stroke-width="4"/>
        <path d="M150,0 L150,30 L180,30" fill="none" stroke="black" stroke-width="4"/>
        <text x="90" y="50" text-anchor="middle" font-size="35">Atomic</text>
        <text x="90" y="90" text-anchor="middle" font-size="35">Domain</text>
    </g>
    <g transform="translate(160, 115)">
        <path d="M0,0 L150,0 L180,30 L180,110 L0,110 Z" fill="white" stroke="black" stroke-width="4"/>
        <path d="M150,0 L150,30 L180,30" fill="none" stroke="black" stroke-width="4"/>
        <text x="90" y="50" text-anchor="middle" font-size="35">Atomic</text>
        <text x="90" y="90" text-anchor="middle" font-size="35">Domain</text>
    </g>
    <text x="270" y="155" font-size="40" font-weight="bold">...</text>
    <g transform="translate(290, 115)">
        <path d="M0,0 L150,0 L180,30 L180,110 L0,110 Z" fill="white" stroke="black" stroke-width="4"/>
        <path d="M150,0 L150,30 L180,30" fill="none" stroke="black" stroke-width="4"/>
        <text x="90" y="50" text-anchor="middle" font-size="35">Atomic</text>
        <text x="90" y="90" text-anchor="middle" font-size="35">Domain</text>
    </g>

    <!-- Bottom Boxes -->
    <g transform="translate(60, 230)">
        <rect x="0" y="0" width="250" height="150" fill="white" stroke="black" stroke-width="4" />
        <path d="M200,0 L230,30 L230,150 L0,150 L0,0 Z" fill="white" stroke="black" stroke-width="4" /> <!-- Fold -->
        <text x="125" y="70" text-anchor="middle" font-size="40">Meta</text>
        <text x="125" y="115" text-anchor="middle" font-size="40">Domain</text>
    </g>
    
    <text x="220" y="300" font-size="40" font-weight="bold">...</text>
    
    <g transform="translate(270, 230)">
        <rect x="0" y="0" width="250" height="150" fill="white" stroke="black" stroke-width="4" />
        <path d="M200,0 L230,30 L230,150 L0,150 L0,0 Z" fill="white" stroke="black" stroke-width="4" />
        <text x="125" y="70" text-anchor="middle" font-size="40">Meta</text>
        <text x="125" y="115" text-anchor="middle" font-size="40">Domain</text>
    </g>

    <g transform="translate(150, 350)">
        <rect x="0" y="0" width="280" height="150" fill="white" stroke="black" stroke-width="4" />
        <path d="M230,0 L260,30 L260,150 L0,150 L0,0 Z" fill="white" stroke="black" stroke-width="4" />
        <text x="140" y="70" text-anchor="middle" font-size="45">Meta</text>
        <text x="140" y="120" text-anchor="middle" font-size="45">Domain</text>
    </g>

    <!-- Connectors -->
    <line x1="100" y1="185" x2="140" y2="230" stroke="black" stroke-width="3" marker-end="url(#arrow-black)" />
    <line x1="200" y1="185" x2="200" y2="230" stroke="black" stroke-width="3" marker-end="url(#arrow-black)" />
    <line x1="320" y1="185" x2="350" y2="230" stroke="black" stroke-width="3" marker-end="url(#arrow-black)" />
    
    <line x1="140" y1="310" x2="250" y2="350" stroke="black" stroke-width="3" marker-end="url(#arrow-black)" />
    <line x1="350" y1="310" x2="280" y2="350" stroke="black" stroke-width="3" marker-end="url(#arrow-black)" />
  </g>

  <!-- ==================== BOTTOM SECTION: PLANNING ==================== -->
  <rect x="10" y="500" width="1580" height="480" rx="40" fill="#F5EEF8" />
  <text x="40" y="750" transform="rotate(-90 40,750)" font-size="50" font-weight="bold" fill="black">Planning</text>

  <!-- Instruction Bubble -->
  <g transform="translate(60, 520)">
    <rect x="0" y="0" width="320" height="180" rx="30" fill="white" />
    <text x="160" y="40" text-anchor="middle" font-size="40" font-family="serif" font-style="italic">Move the corn from the pot</text>
    <text x="160" y="80" text-anchor="middle" font-size="40" font-family="serif" font-style="italic">into the orange bowl, wipe the</text>
    <text x="160" y="120" text-anchor="middle" font-size="40" font-family="serif" font-style="italic">table with the towel in the</text>
    <text x="160" y="160" text-anchor="middle" font-size="40" font-family="serif" font-style="italic">drawer and put it back to the</text>
    <text x="160" y="200" text-anchor="middle" font-size="40" font-family="serif" font-style="italic">closed draw er.</text>
  </g>

  <!-- Source Photo -->
  <g transform="translate(75, 690)">
    <rect width="300" height="300" fill="#e0e0e0" />
    <!-- Simulated Photo Content -->
    <rect x="0" y="150" width="300" height="150" fill="#f0f0f0" /> <!-- Counter -->
    <rect x="0" y="280" width="300" height="100" fill="#d2b48c" /> <!-- Cabinets -->
    <!-- Robot -->
    <circle cx="100" cy="220" r="60" fill="white" stroke="#ccc" />
    <ellipse cx="100" cy="220" rx="60" ry="20" fill="#ddd" />
    <path d="M80,200 L120,200 L130,180 L70,180 Z" fill="white" stroke="#ccc" /> <!-- Lid -->
    <!-- Dishes -->
    <rect x="200" y="180" width="20" height="40" fill="orange" />
    <rect x="250" y="190" width="15" height="30" fill="teal" />
    <rect x="180" y="190" width="15" height="30" fill="yellow" />
    <!-- Dish Rack -->
    <path d="M50,100 L200,100 L220,150 L70,150 Z" fill="none" stroke="#333" stroke-width="3" />
    <line x1="60" y1="110" x2="210" y2="110" stroke="#333" stroke-width="2" />
    <line x1="70" y1="130" x2="220" y2="130" stroke="#333" stroke-width="2" />
    <!-- Drawers -->
    <rect x="180" y="100" width="100" height="80" fill="#fbbc04" />
    <rect x="180" y="140" width="100" height="40" fill="#f4a261" />
    <rect x="180" y="180" width="100" height="40" fill="#4db6ac" />
    <!-- Books -->
    <rect x="250" y="150" width="30" height="100" fill="white" stroke="black" transform="rotate(-10 250,150)" />
    <text x="255" y="200" font-size="10" transform="rotate(-10 255,200)">ALLEN</text>
    <rect x="270" y="160" width="30" height="100" fill="white" stroke="black" transform="rotate(-15 270,160)" />
    <text x="275" y="210" font-size="10" transform="rotate(-15 275,210)">ALLEN</text>
  </g>

  <!-- Purple Arrows from Source -->
  <path d="M375,800 L400,800 L400,760 L430,760" fill="none" stroke="#6A3D9A" stroke-width="6" marker-end="url(#arrow-purple)" />
  <path d="M375,800 L400,800 L400,630 L430,630" fill="none" stroke="#6A3D9A" stroke-width="6" marker-end="url(#arrow-purple)" />

  <!-- (d) Problem Generation -->
  <g transform="translate(410, 515)">
    <rect x="0" y="0" width="360" height="450" rx="40" fill="white" />
    <text x="180" y="60" text-anchor="middle" font-size="45" font-weight="bold">(d) Problem Generation</text>
    
    <!-- Box 1 -->
    <g transform="translate(20, 80)">
        <path d="M0,0 L220,0 L250,30 L250,150 L0,150 Z" fill="#F0F8FF" stroke="black" stroke-width="4"/>
        <path d="M220,0 L220,30 L250,30" fill="none" stroke="black" stroke-width="4"/>
        <text x="125" y="70" text-anchor="middle" font-size="45">Meta</text>
        <text x="125" y="120" text-anchor="middle" font-size="45">Domain</text>
    </g>
    
    <line x1="270" y1="155" x2="310" y2="155" stroke="black" stroke-width="6" marker-end="url(#arrow-black)" />
    
    <!-- Box 2 -->
    <rect x="160" y="100" width="280" height="130" rx="20" fill="#E0D5FF" />
    <text x="300" y="160" text-anchor="middle" font-size="45">Predicate</text>
    <text x="300" y="200" text-anchor="middle" font-size="45">Grouping</text>
    
    <line x1="200" y1="230" x2="200" y2="270" stroke="black" stroke-width="6" marker-end="url(#arrow-black)" />
    
    <!-- Box 3 -->
    <rect x="20" y="270" width="320" height="150" rx="20" fill="#E0D5FF" />
    <rect x="30" y="285" width="100" height="80" fill="#999" stroke="black" />
    <text x="35" y="325" font-size="24" font-weight="bold" fill="white">&lt;AF&gt;05</text>
    <text x="150" y="320" font-size="45">Predicate</text>
    <text x="150" y="370" font-size="45">&amp; Operator Filtering</text>
    
    <line x1="180" y1="420" x2="180" y2="450" stroke="black" stroke-width="6" marker-end="url(#arrow-black)" />
    
    <!-- Box 4 -->
    <rect x="20" y="450" width="320" height="150" rx="20" fill="#E0D5FF" />
    <rect x="30" y="465" width="100" height="80" fill="#999" stroke="black" />
    <text x="35" y="505" font-size="24" font-weight="bold" fill="white">&lt;AF&gt;11</text>
    <text x="150" y="500" font-size="45">Problem</text>
    <text x="150" y="550" font-size="45">Generation</text>
    
    <!-- Doc Icon -->
    <g transform="translate(230, 460)">
        <path d="M0,0 L180,0 L210,30 L210,100 L0,100 Z" fill="white" stroke="black" stroke-width="2"/>
        <path d="M180,0 L180,30 L210,30" fill="none" stroke="black" stroke-width="2"/>
        <text x="10" y="30" font-size="24" font-family="serif">:<tspan fill="#0056b3" font-style="italic">objects</tspan> (...)</text>
        <text x="10" y="60" font-size="24" font-family="serif">:<tspan fill="#2ca02c" font-style="italic">init</tspan> ...</text>
        <text x="10" y="90" font-size="24" font-family="serif">:<tspan fill="#d35400" font-style="italic">goal</tspan> (...)</text>
    </g>
  </g>

  <!-- Purple Arrow to (e) -->
  <path d="M730,860 L760,860 L760,640 L805,640" fill="none" stroke="#6A3D9A" stroke-width="6" marker-end="url(#arrow-purple)" />

  <!-- (e) Planning -->
  <g transform="translate(790, 515)">
    <rect x="0" y="0" width="280" height="450" rx="40" fill="white" />
    <text x="140" y="60" text-anchor="middle" font-size="45" font-weight="bold">(e) Planning</text>
    
    <!-- Box 1 -->
    <rect x="20" y="100" width="240" height="150" rx="20" fill="#E0D5FF" />
    <rect x="50" y="115" width="120" height="100" fill="#999" stroke="black" />
    <text x="55" y="170" font-size="28" font-weight="bold" fill="white">&lt;AF&gt;09</text>
    <text x="190" y="160" text-anchor="middle" font-size="45">PDDL</text>
    <text x="190" y="210" text-anchor="middle" font-size="45">Solver</text>
    
    <line x1="140" y1="250" x2="140" y2="290" stroke="black" stroke-width="6" marker-end="url(#arrow-black)" />
    
    <!-- Box 2 -->
    <rect x="10" y="290" width="300" height="250" fill="#FDFBF7" stroke="black" stroke-width="2" />
    <path d="M300,290 L320,310 L320,540 L10,540 Z" fill="#FDFBF7" stroke="black" stroke-width="2" />
    <text x="20" y="330" font-size="40" font-family="serif" font-style="italic" fill="#009900">remove_lid<tspan fill="black" font-style="normal"> (</tspan><tspan fill="#0056b3">lid</tspan><tspan fill="black" font-style="normal">)</tspan></text>
    <text x="20" y="370" font-size="40" font-family="serif" font-style="italic" fill="#009900">pick_from_rack<tspan fill="black" font-style="normal"> (</tspan><tspan fill="#0056b3">bowl</tspan><tspan fill="black" font-style="normal">)</tspan></text>
    <text x="20" y="410" font-size="40" font-family="serif" font-style="italic" fill="#009900">place_on_table<tspan fill="black" font-style="normal"> (</tspan><tspan fill="#0056b3">bowl</tspan><tspan fill="black" font-style="normal">)</tspan></text>
    <text x="20" y="450" font-size="40" font-weight="bold" fill="black">...</text>
    <text x="20" y="480" font-size="40" font-family="serif" font-style="italic" fill="#009900">wipe_table<tspan fill="black" font-style="normal"> (</tspan><tspan fill="#0056b3">towel</tspan><tspan fill="black" font-style="normal">)</tspan></text>
    <text x="20" y="520" font-size="40" font-family="serif" font-style="italic" fill="#009900">place_in_drawer<tspan fill="black" font-style="normal"> (</tspan><tspan fill="#0056b3">towel</tspan><tspan fill="black" font-style="normal">)</tspan></text>
    <text x="20" y="560" font-size="40" font-family="serif" font-style="italic" fill="#009900">close_drawer<tspan fill="black" font-style="normal"> (</tspan><tspan fill="#0056b3">drawer</tspan><tspan fill="black" font-style="normal">)</tspan></text>
  </g>

  <!-- Purple Arrow to (f) -->
  <path d="M1010,810 L1060,810 L1060,630 L1095,630" fill="none" stroke="#6A3D9A" stroke-width="6" marker-end="url(#arrow-purple)" />

  <!-- (f) Execution -->
  <g transform="translate(1080, 515)">
    <rect x="0" y="0" width="510" height="450" rx="40" fill="white" />
    <text x="255" y="60" text-anchor="middle" font-size="45" font-weight="bold">(f) Execution</text>
    
    <!-- 2x4 Grid of Photos -->
    <!-- Row 1 -->
    <g transform="translate(10, 80)">
        <rect width="180" height="130" fill="#ddd" />
        <rect x="0" y="100" width="180" height="30" fill="#eee" /> <!-- Counter -->
        <rect x="10" y="80" width="60" height="40" fill="white" stroke="#ccc" /> <!-- Pot -->
        <circle cx="120" cy="90" r="10" fill="orange" />
        <rect x="115" y="60" width="10" height="20" fill="teal" />
        <path d="M50,0 L150,0 L150,100 L50,100 Z" fill="none" stroke="#333" /> <!-- Rack -->
    </g>
    <g transform="translate(195, 80)">
        <rect width="180" height="130" fill="#ddd" />
        <rect x="0" y="100" width="180" height="30" fill="#eee" />
        <rect x="10" y="80" width="60" height="40" fill="white" stroke="#ccc" />
        <circle cx="120" cy="90" r="10" fill="orange" />
        <rect x="115" y="60" width="10" height="20" fill="teal" />
        <rect x="80" y="40" width="50" height="40" fill="#333" /> <!-- Robot -->
    </g>
    <g transform="translate(380, 80)">
        <rect width="180" height="130" fill="#ddd" />
        <rect x="0" y="100" width="180" height="30" fill="#eee" />
        <rect x="10" y="80" width="60" height="40" fill="white" stroke="#ccc" />
        <circle cx="120" cy="90" r="10" fill="orange" />
        <rect x="115" y="60" width="10" height="20" fill="teal" />
        <rect x="80" y="40" width="50" height="40" fill="#333" />
    </g>
    
    <!-- Row 2 -->
    <g transform="translate(10, 220)">
        <rect width="180" height="130" fill="#ddd" />
        <rect x="0" y="100" width="180" height="30" fill="#eee" />
        <rect x="10" y="80" width="60" height="40" fill="white" stroke="#ccc" />
        <circle cx="120" cy="90" r="10" fill="orange" />
        <rect x="115" y="60" width="10" height="20" fill="teal" />
        <rect x="80" y="40" width="50" height="40" fill="#333" transform="rotate(-20 80,40)" /> <!-- Arm moving -->
    </g>
    <g transform="translate(195, 220)">
        <rect width="180" height="130" fill="#ddd" />
        <rect x="0" y="100" width="180" height="30" fill="#eee" />
        <rect x="10" y="80" width="60" height="40" fill="white" stroke="#ccc" />
        <circle cx="120" cy="90" r="10" fill="orange" />
        <rect x="115" y="60" width="10" height="20" fill="teal" />
        <rect x="80" y="40" width="50" height="40" fill="#333" transform="rotate(-10 80,40)" />
    </g>
    <g transform="translate(380, 220)">
        <rect width="180" height="130" fill="#ddd" />
        <rect x="0" y="100" width="180" height="30" fill="#eee" />
        <rect x="10" y="80" width="60" height="40" fill="white" stroke="#ccc" />
        <circle cx="120" cy="90" r="10" fill="orange" />
        <rect x="115" y="60" width="10" height="20" fill="teal" />
        <rect x="80" y="40" width="50" height="40" fill="#333" />
    </g>
    
    <!-- Row 3 -->
    <g transform="translate(10, 360)">
        <rect width="180" height="130" fill="#ddd" />
        <rect x="0" y="100" width="180" height="30" fill="#eee" />
        <rect x="10" y="80" width="60" height="40" fill="white" stroke="#ccc" />
        <circle cx="120" cy="90" r="10" fill="orange" />
        <rect x="115" y="60" width="10" height="20" fill="teal" />
        <rect x="80" y="40" width="50" height="40" fill="#333" transform="rotate(10 80,40)" />
    </g>
    <g transform="translate(195, 360)">
        <rect width="180" height="130" fill="#ddd" />
        <rect x="0" y="100" width="180" height="30" fill="#eee" />
        <rect x="10" y="80" width="60" height="40" fill="white" stroke="#ccc" />
        <circle cx="120" cy="90" r="10" fill="orange" />
        <rect x="115" y="60" width="10" height="20" fill="teal" />
        <rect x="80" y="40" width="50" height="40" fill="#333" />
    </g>
    <g transform="translate(380, 360)">
        <rect width="180" height="130" fill="#ddd" />
        <rect x="0" y="100" width="180" height="30" fill="#eee" />
        <rect x="10" y="80" width="60" height="40" fill="white" stroke="#ccc" />
        <circle cx="120" cy="90" r="10" fill="orange" />
        <rect x="115" y="60" width="10" height="20" fill="teal" />
        <rect x="80" y="40" width="50" height="40" fill="#333" />
    </g>
    
    <!-- Row 4 -->
    <g transform="translate(10, 500)">
        <rect width="180" height="130" fill="#ddd" />
        <rect x="0" y="100" width="180" height="30" fill="#eee" />
        <rect x="10" y="80" width="60" height="40" fill="white" stroke="#ccc" />
        <circle cx="120" cy="90" r="10" fill="orange" />
        <rect x="115" y="60" width="10" height="20" fill="teal" />
        <rect x="80" y="40" width="50" height="40" fill="#333" />
    </g>
    <g transform="translate(195, 500)">
        <rect width="180" height="130" fill="#ddd" />
        <rect x="0" y="100" width="180" height="30" fill="#eee" />
        <rect x="10" y="80" width="60" height="40" fill="white" stroke="#ccc" />
        <circle cx="120" cy="90" r="10" fill="orange" />
        <rect x="115" y="60" width="10" height="20" fill="teal" />
        <rect x="80" y="40" width="50" height="40" fill="#333" />
    </g>
    <g transform="translate(380, 500)">
        <rect width="180" height="130" fill="#ddd" />
        <rect x="0" y="100" width="180" height="30" fill="#eee" />
        <rect x="10" y="80" width="60" height="40" fill="white" stroke="#ccc" />
        <circle cx="120" cy="90" r="10" fill="orange" />
        <rect x="115" y="60" width="10" height="20" fill="teal" />
        <rect x="80" y="40" width="50" height="40" fill="#333" />
    </g>
  </g>

  <!-- ==================== GLOBAL CONNECTORS ==================== -->
  <!-- Green Arrow: (a) to (b) -->
  <path d="M620,260 L635,260 L635,150 L670,150" fill="none" stroke="#3E7E46" stroke-width="6" marker-end="url(#arrow-green)" />
  <path d="M620,260 L635,260 L635,410 L670,410" fill="none" stroke="#3E7E46" stroke-width="6" marker-end="url(#arrow-green)" />
  
  <!-- Green Arrow: (b) to (c) -->
  <path d="M1150,410 L1170,410 L1170,170 L1190,170" fill="none" stroke="#3E7E46" stroke-width="6" marker-end="url(#arrow-green)" />

</svg>