<svg xmlns="http://www.w3.org/2000/svg" width="1634" height="890" viewBox="0 0 1634 890">
  <title>SVG candidate snippets for ElasticMM Efficient Multimodal LLMs Serving with Elastic Multimodal Parallelism_diagram</title>
  <g id="svg_text_only_request_icon" data-source-slot="slot_text_only_request_icon" transform="translate(246,52)">
  <rect x="4" y="3" width="34" height="47" fill="#ffffff" stroke="#444444" stroke-width="2"/>
  <polygon points="28,3 38,13 28,13" fill="#f2f2f2" stroke="#444444" stroke-width="2" stroke-linejoin="miter"/>
  <line x1="11" y1="16" x2="27" y2="16" stroke="#444444" stroke-width="2"/>
  <line x1="11" y1="21" x2="33" y2="21" stroke="#444444" stroke-width="2"/>
  <line x1="11" y1="26" x2="27" y2="26" stroke="#444444" stroke-width="2"/>
  <line x1="11" y1="31" x2="31" y2="31" stroke="#444444" stroke-width="2"/>
  <line x1="11" y1="36" x2="28" y2="36" stroke="#444444" stroke-width="2"/>
</g>
  <g id="svg_image_text_request_icon" data-source-slot="slot_image_text_request_icon" transform="translate(956,60)">
  <rect x="2" y="2" width="48" height="34" fill="#e8f4f3" stroke="#555555" stroke-width="2"/>
  <rect x="5" y="5" width="42" height="25" fill="#cfeeea" stroke="none"/>
  <circle cx="16" cy="10" r="4" fill="#e6dd88" stroke="#777777" stroke-width="1.3"/>
  <polygon points="5,29 18,19 27,24 37,15 48,26 48,34 5,34" fill="#78d49a" stroke="#2f9d66" stroke-width="1.5" stroke-linejoin="round"/>
  <line x1="5" y1="34" x2="49" y2="34" stroke="#555555" stroke-width="2"/>
</g>
</svg>
