<svg xmlns="http://www.w3.org/2000/svg" width="1634" height="890" viewBox="0 0 1634 890">
<defs>
  <marker id="arrow_dark" markerWidth="32" markerHeight="28" refX="28" refY="14" orient="auto" markerUnits="userSpaceOnUse">
    <path d="M0,0 L28,14 L0,28 Z" fill="#595959"/>
  </marker>
  <marker id="arrow_dark_start" markerWidth="32" markerHeight="28" refX="0" refY="14" orient="auto" markerUnits="userSpaceOnUse">
    <path d="M28,0 L0,14 L28,28 Z" fill="#595959"/>
  </marker>
  <style>
    .serif { font-family: "Times New Roman", Times, serif; }
    .label { font-family: "Times New Roman", Times, serif; fill:#000; }
    .bold { font-weight:700; }
    .blue { fill:#4f73bd; }
    .navy-stroke { stroke:#1d2e50; stroke-width:3; }
    .box-stroke { stroke:#1d2e50; stroke-width:3; }
    .stagebox { stroke:#1d2e50; stroke-width:3; }
    .arrow { stroke:#595959; stroke-width:8; stroke-linecap:butt; fill:none; marker-end:url(#arrow_dark); }
    .thin-arrow { stroke:#595959; stroke-width:5; stroke-linecap:butt; fill:none; marker-end:url(#arrow_dark); }
  </style>
</defs>
  <rect x="5" y="5" width="1624" height="880" fill="#fbfbf8" stroke="#b7b7b7" stroke-width="6"/>

  <!-- Top requests -->
  <rect x="220" y="40" width="450" height="77" rx="10" fill="#ffffff" class="box-stroke"/>
  <g id="slot_text_only_request_icon" data-bbox="[246,52,45,52]" data-role="asset">
  <rect x="246" y="52" width="45" height="52" fill="#f8f8f8" stroke="#666" stroke-width="2" stroke-dasharray="6 4"/>
  <line x1="246" y1="52" x2="291" y2="104" stroke="#aaa" stroke-width="1.5"/>
  <line x1="291" y1="52" x2="246" y2="104" stroke="#aaa" stroke-width="1.5"/>
  <text x="268.5" y="78.0" font-size="8" text-anchor="middle" dominant-baseline="middle" font-family="Arial, sans-serif" fill="#444">ASSET_SLOT</text>
</g>
  <text x="303" y="91" class="label serif" font-size="40">Text-Only Request</text>
  <line x1="444" y1="118" x2="444" y2="162" class="arrow"/>

  <rect x="946" y="41" width="450" height="77" rx="10" fill="#ffffff" class="box-stroke"/>
  <g id="slot_image_text_request_icon" data-bbox="[956,60,52,40]" data-role="asset">
  <rect x="956" y="60" width="52" height="40" fill="#f8f8f8" stroke="#666" stroke-width="2" stroke-dasharray="6 4"/>
  <line x1="956" y1="60" x2="1008" y2="100" stroke="#aaa" stroke-width="1.5"/>
  <line x1="1008" y1="60" x2="956" y2="100" stroke="#aaa" stroke-width="1.5"/>
  <text x="982.0" y="80.0" font-size="8" text-anchor="middle" dominant-baseline="middle" font-family="Arial, sans-serif" fill="#444">ASSET_SLOT</text>
</g>
  <text x="1019" y="92" class="label serif" font-size="39">Image-Text Request</text>
  <line x1="1172" y1="118" x2="1172" y2="162" class="arrow"/>

  <!-- Modality-level panel -->
  <rect x="96" y="164" width="1464" height="270" fill="#e9f3ff" class="navy-stroke"/>
  <rect x="828" y="164" width="732" height="270" fill="#fde9e6" stroke="none"/>
  <rect x="96" y="164" width="1464" height="270" fill="none" class="navy-stroke"/>
  <line x1="828" y1="164" x2="828" y2="434" stroke="#000" stroke-width="3" stroke-dasharray="7 7"/>

  <text x="492" y="214" text-anchor="middle" class="label serif bold" font-size="38">Modality-Level</text>
  <text x="484" y="259" text-anchor="middle" class="label serif blue bold" font-size="37">(Modality-Aware Load Balancing §3.1)</text>

  <rect x="150" y="312" width="283" height="91" rx="14" fill="#d4e9fb" class="stagebox"/>
  <text x="181" y="373" class="label serif bold" font-size="37">Prefill Stage</text>
  <line x1="433" y1="358" x2="505" y2="358" class="arrow"/>
  <rect x="503" y="315" width="282" height="88" rx="14" fill="#d4e9fb" class="stagebox"/>
  <text x="520" y="372" class="label serif bold" font-size="37">Decode Stage</text>

  <line x1="782" y1="209" x2="874" y2="209" stroke="#595959" stroke-width="8" marker-start="url(#arrow_dark_start)" marker-end="url(#arrow_dark)"/>

  <rect x="1045" y="190" width="283" height="92" rx="14" fill="#ffc0c0" class="stagebox"/>
  <text x="1063" y="250" class="label serif bold" font-size="37">Encode Stage</text>
  <line x1="1044" y1="254" x2="981" y2="308" class="arrow"/>
  <rect x="877" y="312" width="283" height="91" rx="14" fill="#ffc0c0" class="stagebox"/>
  <text x="907" y="372" class="label serif bold" font-size="37">Prefill Stage</text>
  <line x1="1160" y1="358" x2="1230" y2="358" class="arrow"/>
  <rect x="1231" y="312" width="284" height="89" rx="14" fill="#ffc0c0" class="stagebox"/>
  <text x="1250" y="370" class="label serif bold" font-size="37">Decode Stage</text>

  <!-- Stage-level panel -->
  <rect x="96" y="472" width="1464" height="219" fill="#fffef5" class="navy-stroke"/>
  <text x="420" y="520" class="label serif bold" font-size="40">Stage-Level</text>
  <text x="641" y="520" class="label serif blue bold" font-size="40">(Elastic Partition Scheduling §3.2)</text>

  <rect x="193" y="543" width="327" height="114" rx="14" fill="#fff2bd" class="stagebox"/>
  <text x="282" y="591" class="label serif bold" font-size="38">Request</text>
  <text x="254" y="638" class="label serif bold" font-size="38">Scheduling</text>
  <line x1="520" y1="602" x2="665" y2="602" class="arrow"/>

  <rect x="665" y="547" width="327" height="110" rx="14" fill="#fff2bd" class="stagebox"/>
  <text x="778" y="592" class="label serif bold" font-size="38">Stage</text>
  <text x="735" y="638" class="label serif bold" font-size="38">Allocation</text>
  <line x1="992" y1="602" x2="1131" y2="602" class="arrow"/>

  <rect x="1131" y="547" width="326" height="110" rx="14" fill="#fff2bd" class="stagebox"/>
  <text x="1235" y="592" class="label serif bold" font-size="38">Elastic</text>
  <text x="1179" y="638" class="label serif bold" font-size="38">Auto-Scaling</text>

  <!-- Prefix cache -->
  <rect x="96" y="733" width="934" height="134" rx="18" fill="#dff2dc" class="navy-stroke"/>
  <text x="204" y="815" class="label serif bold" font-size="39">Unified Multimodal Prefix Cache</text>
  <text x="814" y="815" class="label serif blue bold" font-size="39">(§3.3)</text>

  <!-- Legend -->
  <rect x="1108" y="727" width="450" height="140" fill="#ffffff" class="navy-stroke"/>
  <rect x="1141" y="743" width="63" height="29" fill="#d4e9fb" class="stagebox"/>
  <rect x="1141" y="785" width="63" height="29" fill="#ffc0c0" class="stagebox"/>
  <line x1="1141" y1="838" x2="1210" y2="838" stroke="#595959" stroke-width="8" marker-start="url(#arrow_dark_start)" marker-end="url(#arrow_dark)"/>
  <text x="1227" y="771" class="label serif" font-size="36">Text-Only Group</text>
  <text x="1227" y="811" class="label serif" font-size="36">Multimodal Group</text>
  <text x="1227" y="850" class="label serif" font-size="34">Auto-Scaling</text>
</svg>
