<svg xmlns="http://www.w3.org/2000/svg" xmlns:xlink="http://www.w3.org/1999/xlink" width="1815" height="929" viewBox="0 0 1815 929">
  <defs>
    <marker id="arrowBlack" markerWidth="12" markerHeight="12" refX="10" refY="6" orient="auto" markerUnits="strokeWidth"><path d="M0,0 L12,6 L0,12 Z" fill="#111"/></marker>
    <marker id="arrowBlueSmall" markerWidth="8" markerHeight="8" refX="7" refY="4" orient="auto"><path d="M0,0 L8,4 L0,8 Z" fill="#4c9ccc"/></marker>
    <marker id="arrowOrangeSmall" markerWidth="8" markerHeight="8" refX="7" refY="4" orient="auto"><path d="M0,0 L8,4 L0,8 Z" fill="#f28c28"/></marker>
    <marker id="arrowPurpleSmall" markerWidth="8" markerHeight="8" refX="7" refY="4" orient="auto"><path d="M0,0 L8,4 L0,8 Z" fill="#6d40a1"/></marker>
    <filter id="softShadow" x="-20%" y="-20%" width="140%" height="140%"><feDropShadow dx="2" dy="2" stdDeviation="2" flood-opacity="0.25"/></filter>
    <style>
      .serif { font-family: "Times New Roman", Times, serif; fill: #111; }
      .bold { font-weight: 700; }
      .panel-label { font-family: "Times New Roman", Times, serif; font-size: 25px; font-weight: 700; fill: #111; }
      .small-label { font-family: "Times New Roman", Times, serif; font-size: 18px; fill: #111; }
    </style>
  </defs>
<rect x="0" y="0" width="1815" height="929" fill="#ffffff"/>
<rect x="0" y="16" width="635" height="421" rx="13" fill="#dfead6" stroke="none"/>
<rect x="641" y="16" width="360" height="421" rx="10" fill="#fffdf6" stroke="none" filter="url(#softShadow)"/>
<rect x="1015" y="16" width="799" height="421" rx="10" fill="#e8e5ed" stroke="none" filter="url(#softShadow)"/>
<rect x="50" y="459" width="1727" height="465" rx="13" fill="#fffef8" stroke="#e5dcc6" stroke-width="3" filter="url(#softShadow)"/>
<text x="335" y="456" text-anchor="middle" class="panel-label">(a)</text>
<text x="812" y="456" text-anchor="middle" class="panel-label">(b)</text>
<text x="1410" y="456" text-anchor="middle" class="panel-label">(c)</text>
  <g id="slot_input_aerial_stack" data-bbox="[18,38,282,168]" data-role="asset">
    <rect x="18" y="38" width="282" height="168" fill="#f8f8f8" stroke="#666" stroke-width="2" stroke-dasharray="6 4"/>
    <line x1="18" y1="38" x2="300" y2="206" stroke="#aaa" stroke-width="1.4"/>
    <line x1="300" y1="38" x2="18" y2="206" stroke="#aaa" stroke-width="1.4"/>
    <text x="159.0" y="122.0" font-size="16" font-family="Arial, sans-serif" text-anchor="middle" dominant-baseline="middle" fill="#555">ASSET_SLOT</text>
  </g>
  <g id="slot_visual_encoder_wedge" data-bbox="[312,46,134,162]" data-role="asset">
    <rect x="312" y="46" width="134" height="162" fill="#f8f8f8" stroke="#666" stroke-width="2" stroke-dasharray="6 4"/>
    <line x1="312" y1="46" x2="446" y2="208" stroke="#aaa" stroke-width="1.4"/>
    <line x1="446" y1="46" x2="312" y2="208" stroke="#aaa" stroke-width="1.4"/>
    <text x="379.0" y="127.0" font-size="16" font-family="Arial, sans-serif" text-anchor="middle" dominant-baseline="middle" fill="#555">ASSET_SLOT</text>
  </g>
  <g id="slot_scale_feature_stack" data-bbox="[458,70,132,102]" data-role="asset">
    <rect x="458" y="70" width="132" height="102" fill="#f8f8f8" stroke="#666" stroke-width="2" stroke-dasharray="6 4"/>
    <line x1="458" y1="70" x2="590" y2="172" stroke="#aaa" stroke-width="1.4"/>
    <line x1="590" y1="70" x2="458" y2="172" stroke="#aaa" stroke-width="1.4"/>
    <text x="524.0" y="121.0" font-size="16" font-family="Arial, sans-serif" text-anchor="middle" dominant-baseline="middle" fill="#555">ASSET_SLOT</text>
  </g>
  <g id="slot_language_encoder_wedge" data-bbox="[312,252,134,148]" data-role="asset">
    <rect x="312" y="252" width="134" height="148" fill="#f8f8f8" stroke="#666" stroke-width="2" stroke-dasharray="6 4"/>
    <line x1="312" y1="252" x2="446" y2="400" stroke="#aaa" stroke-width="1.4"/>
    <line x1="446" y1="252" x2="312" y2="400" stroke="#aaa" stroke-width="1.4"/>
    <text x="379.0" y="326.0" font-size="16" font-family="Arial, sans-serif" text-anchor="middle" dominant-baseline="middle" fill="#555">ASSET_SLOT</text>
  </g>
  <g id="slot_lincat_tokens" data-bbox="[485,238,108,145]" data-role="asset">
    <rect x="485" y="238" width="108" height="145" fill="#f8f8f8" stroke="#666" stroke-width="2" stroke-dasharray="6 4"/>
    <line x1="485" y1="238" x2="593" y2="383" stroke="#aaa" stroke-width="1.4"/>
    <line x1="593" y1="238" x2="485" y2="383" stroke="#aaa" stroke-width="1.4"/>
    <text x="539.0" y="310.5" font-size="16" font-family="Arial, sans-serif" text-anchor="middle" dominant-baseline="middle" fill="#555">ASSET_SLOT</text>
  </g>
  <g id="slot_cross_scale_branch" data-bbox="[656,26,335,190]" data-role="asset">
    <rect x="656" y="26" width="335" height="190" fill="#f8f8f8" stroke="#666" stroke-width="2" stroke-dasharray="6 4"/>
    <line x1="656" y1="26" x2="991" y2="216" stroke="#aaa" stroke-width="1.4"/>
    <line x1="991" y1="26" x2="656" y2="216" stroke="#aaa" stroke-width="1.4"/>
    <text x="823.5" y="121.0" font-size="16" font-family="Arial, sans-serif" text-anchor="middle" dominant-baseline="middle" fill="#555">ASSET_SLOT</text>
  </g>
  <g id="slot_intra_scale_branch" data-bbox="[656,216,335,214]" data-role="asset">
    <rect x="656" y="216" width="335" height="214" fill="#f8f8f8" stroke="#666" stroke-width="2" stroke-dasharray="6 4"/>
    <line x1="656" y1="216" x2="991" y2="430" stroke="#aaa" stroke-width="1.4"/>
    <line x1="991" y1="216" x2="656" y2="430" stroke="#aaa" stroke-width="1.4"/>
    <text x="823.5" y="323.0" font-size="16" font-family="Arial, sans-serif" text-anchor="middle" dominant-baseline="middle" fill="#555">ASSET_SLOT</text>
  </g>
  <g id="slot_multi_level_language_modulation" data-bbox="[1036,56,170,138]" data-role="asset">
    <rect x="1036" y="56" width="170" height="138" fill="#f8f8f8" stroke="#666" stroke-width="2" stroke-dasharray="6 4"/>
    <line x1="1036" y1="56" x2="1206" y2="194" stroke="#aaa" stroke-width="1.4"/>
    <line x1="1206" y1="56" x2="1036" y2="194" stroke="#aaa" stroke-width="1.4"/>
    <text x="1121.0" y="125.0" font-size="16" font-family="Arial, sans-serif" text-anchor="middle" dominant-baseline="middle" fill="#555">ASSET_SLOT</text>
  </g>
  <g id="slot_query_position_generator" data-bbox="[1036,232,170,128]" data-role="asset">
    <rect x="1036" y="232" width="170" height="128" fill="#f8f8f8" stroke="#666" stroke-width="2" stroke-dasharray="6 4"/>
    <line x1="1036" y1="232" x2="1206" y2="360" stroke="#aaa" stroke-width="1.4"/>
    <line x1="1206" y1="232" x2="1036" y2="360" stroke="#aaa" stroke-width="1.4"/>
    <text x="1121.0" y="296.0" font-size="16" font-family="Arial, sans-serif" text-anchor="middle" dominant-baseline="middle" fill="#555">ASSET_SLOT</text>
  </g>
  <g id="slot_spatial_decoder" data-bbox="[1228,31,411,360]" data-role="asset">
    <rect x="1228" y="31" width="411" height="360" fill="#f8f8f8" stroke="#666" stroke-width="2" stroke-dasharray="6 4"/>
    <line x1="1228" y1="31" x2="1639" y2="391" stroke="#aaa" stroke-width="1.4"/>
    <line x1="1639" y1="31" x2="1228" y2="391" stroke="#aaa" stroke-width="1.4"/>
    <text x="1433.5" y="211.0" font-size="16" font-family="Arial, sans-serif" text-anchor="middle" dominant-baseline="middle" fill="#555">ASSET_SLOT</text>
  </g>
  <g id="slot_predicted_tube" data-bbox="[1640,42,160,360]" data-role="asset">
    <rect x="1640" y="42" width="160" height="360" fill="#f8f8f8" stroke="#666" stroke-width="2" stroke-dasharray="6 4"/>
    <line x1="1640" y1="42" x2="1800" y2="402" stroke="#aaa" stroke-width="1.4"/>
    <line x1="1800" y1="42" x2="1640" y2="402" stroke="#aaa" stroke-width="1.4"/>
    <text x="1720.0" y="222.0" font-size="16" font-family="Arial, sans-serif" text-anchor="middle" dominant-baseline="middle" fill="#555">ASSET_SLOT</text>
  </g>
<text x="20" y="252" class="serif bold" font-size="25">The green bus that is</text>
<text x="20" y="285" class="serif bold" font-size="25">heading to the upper</text>
<text x="20" y="318" class="serif bold" font-size="25">right, from the lower left</text>
<text x="20" y="351" class="serif bold" font-size="25">corner of the Bell Tower</text>
<text x="20" y="384" class="serif bold" font-size="25">roundabout</text>
<line x1="300" y1="125" x2="312" y2="125" stroke="#111" stroke-width="2" marker-end="url(#arrowBlack)"/>
<line x1="446" y1="124" x2="458" y2="124" stroke="#111" stroke-width="2" marker-end="url(#arrowBlack)"/>
<line x1="590" y1="126" x2="656" y2="126" stroke="#111" stroke-width="2" marker-end="url(#arrowBlack)"/>
<line x1="300" y1="299" x2="312" y2="299" stroke="#111" stroke-width="2" marker-end="url(#arrowBlack)"/>
<line x1="446" y1="299" x2="485" y2="299" stroke="#111" stroke-width="2" marker-end="url(#arrowBlack)"/>
<line x1="592" y1="299" x2="656" y2="299" stroke="#111" stroke-width="2" marker-end="url(#arrowBlack)"/>
<line x1="991" y1="126" x2="1036" y2="126" stroke="#111" stroke-width="2" marker-end="url(#arrowBlack)"/>
<line x1="991" y1="299" x2="1036" y2="299" stroke="#111" stroke-width="2" marker-end="url(#arrowBlack)"/>
<polyline points="1206,126 1248,126 1248,71 1228,71" fill="none" stroke="#111" stroke-width="2" marker-end="url(#arrowBlack)"/>
<polyline points="1206,299 1248,299 1248,218 1228,218" fill="none" stroke="#111" stroke-width="2" marker-end="url(#arrowBlack)"/>
<line x1="1639" y1="211" x2="1640" y2="211" stroke="#111" stroke-width="2" marker-end="url(#arrowBlack)"/>
<text x="1719" y="39" text-anchor="middle" class="serif bold" font-size="24">Predicted Tube</text>
  <g id="slot_bottom_interaction_branch" data-bbox="[85,480,700,405]" data-role="asset">
    <rect x="85" y="480" width="700" height="405" fill="#f8f8f8" stroke="#666" stroke-width="2" stroke-dasharray="6 4"/>
    <line x1="85" y1="480" x2="785" y2="885" stroke="#aaa" stroke-width="1.4"/>
    <line x1="785" y1="480" x2="85" y2="885" stroke="#aaa" stroke-width="1.4"/>
    <text x="435.0" y="682.5" font-size="16" font-family="Arial, sans-serif" text-anchor="middle" dominant-baseline="middle" fill="#555">ASSET_SLOT</text>
  </g>
  <g id="slot_bottom_fusion_branch" data-bbox="[792,476,583,420]" data-role="asset">
    <rect x="792" y="476" width="583" height="420" fill="#f8f8f8" stroke="#666" stroke-width="2" stroke-dasharray="6 4"/>
    <line x1="792" y1="476" x2="1375" y2="896" stroke="#aaa" stroke-width="1.4"/>
    <line x1="1375" y1="476" x2="792" y2="896" stroke="#aaa" stroke-width="1.4"/>
    <text x="1083.5" y="686.0" font-size="16" font-family="Arial, sans-serif" text-anchor="middle" dominant-baseline="middle" fill="#555">ASSET_SLOT</text>
  </g>
  <g id="slot_bottom_fusion_modules" data-bbox="[1404,480,246,420]" data-role="asset">
    <rect x="1404" y="480" width="246" height="420" fill="#f8f8f8" stroke="#666" stroke-width="2" stroke-dasharray="6 4"/>
    <line x1="1404" y1="480" x2="1650" y2="900" stroke="#aaa" stroke-width="1.4"/>
    <line x1="1650" y1="480" x2="1404" y2="900" stroke="#aaa" stroke-width="1.4"/>
    <text x="1527.0" y="690.0" font-size="16" font-family="Arial, sans-serif" text-anchor="middle" dominant-baseline="middle" fill="#555">ASSET_SLOT</text>
  </g>
<text x="758" y="907" text-anchor="middle" class="panel-label">(b.1)</text>
<text x="900" y="907" text-anchor="middle" class="panel-label">(b.2)</text>
<polyline points="987,126 987,480 785,480" fill="none" stroke="#111" stroke-width="2" marker-end="url(#arrowBlack)"/>
<polyline points="990,299 990,485 792,485" fill="none" stroke="#111" stroke-width="2" marker-end="url(#arrowBlack)"/>
</svg>