<svg xmlns="http://www.w3.org/2000/svg" xmlns:xlink="http://www.w3.org/1999/xlink" width="1905" height="1060" viewBox="0 0 1905 1060">
<title>SVG candidate snippets for 0027</title>
<g id="svg_fire_llm_left" data-source-slot="slot_fire_llm_left" transform="translate(132,85) scale(1.58333,1.40000)">
  <path d="M12.6 39 C6.1 35.7 3 30.4 3.7 23.5 C4.2 17.8 8.9 14.7 8.4 8.8 C11.8 11.8 12.6 15.0 12.1 18.0 C16.9 13.1 16.8 6.5 14.4 1.5 C22.5 8.9 22.7 16.1 20.1 21.5 C23.4 24.0 23.2 31.2 19.6 35.2 C17.8 37.2 15.3 38.4 12.6 39 Z" fill="#d10b10"/>
  <path d="M12.2 37.2 C8.8 34.4 7.4 31.1 8.1 27.5 C8.5 25.0 10.2 23.2 10.1 20.5 C12.5 22.5 13.3 25.0 13.0 27.0 C15.3 24.5 15.6 21.2 14.7 18.5 C18.6 22.3 18.8 28.7 16.7 32.8 C15.6 35.0 14.1 36.3 12.2 37.2 Z" fill="#f25a22" opacity="0.86"/>
</g>
<g id="svg_fire_time_head_left" data-source-slot="slot_fire_time_head_left" transform="translate(811,22) scale(0.83333,0.67500)">
  <path d="M12.6 39 C6.1 35.7 3 30.4 3.7 23.5 C4.2 17.8 8.9 14.7 8.4 8.8 C11.8 11.8 12.6 15.0 12.1 18.0 C16.9 13.1 16.8 6.5 14.4 1.5 C22.5 8.9 22.7 16.1 20.1 21.5 C23.4 24.0 23.2 31.2 19.6 35.2 C17.8 37.2 15.3 38.4 12.6 39 Z" fill="#d10b10"/>
  <path d="M12.2 37.2 C8.8 34.4 7.4 31.1 8.1 27.5 C8.5 25.0 10.2 23.2 10.1 20.5 C12.5 22.5 13.3 25.0 13.0 27.0 C15.3 24.5 15.6 21.2 14.7 18.5 C18.6 22.3 18.8 28.7 16.7 32.8 C15.6 35.0 14.1 36.3 12.2 37.2 Z" fill="#f25a22" opacity="0.86"/>
</g>
<g id="svg_fire_time_head_right" data-source-slot="slot_fire_time_head_right" transform="translate(1001,22) scale(0.79167,0.67500)">
  <path d="M12.6 39 C6.1 35.7 3 30.4 3.7 23.5 C4.2 17.8 8.9 14.7 8.4 8.8 C11.8 11.8 12.6 15.0 12.1 18.0 C16.9 13.1 16.8 6.5 14.4 1.5 C22.5 8.9 22.7 16.1 20.1 21.5 C23.4 24.0 23.2 31.2 19.6 35.2 C17.8 37.2 15.3 38.4 12.6 39 Z" fill="#d10b10"/>
  <path d="M12.2 37.2 C8.8 34.4 7.4 31.1 8.1 27.5 C8.5 25.0 10.2 23.2 10.1 20.5 C12.5 22.5 13.3 25.0 13.0 27.0 C15.3 24.5 15.6 21.2 14.7 18.5 C18.6 22.3 18.8 28.7 16.7 32.8 C15.6 35.0 14.1 36.3 12.2 37.2 Z" fill="#f25a22" opacity="0.86"/>
</g>
<g id="svg_fire_lm_head_left" data-source-slot="slot_fire_lm_head_left" transform="translate(1123,22) scale(0.83333,0.67500)">
  <path d="M12.6 39 C6.1 35.7 3 30.4 3.7 23.5 C4.2 17.8 8.9 14.7 8.4 8.8 C11.8 11.8 12.6 15.0 12.1 18.0 C16.9 13.1 16.8 6.5 14.4 1.5 C22.5 8.9 22.7 16.1 20.1 21.5 C23.4 24.0 23.2 31.2 19.6 35.2 C17.8 37.2 15.3 38.4 12.6 39 Z" fill="#d10b10"/>
  <path d="M12.2 37.2 C8.8 34.4 7.4 31.1 8.1 27.5 C8.5 25.0 10.2 23.2 10.1 20.5 C12.5 22.5 13.3 25.0 13.0 27.0 C15.3 24.5 15.6 21.2 14.7 18.5 C18.6 22.3 18.8 28.7 16.7 32.8 C15.6 35.0 14.1 36.3 12.2 37.2 Z" fill="#f25a22" opacity="0.86"/>
</g>
<g id="svg_fire_lm_head_right" data-source-slot="slot_fire_lm_head_right" transform="translate(1297,22) scale(0.83333,0.67500)">
  <path d="M12.6 39 C6.1 35.7 3 30.4 3.7 23.5 C4.2 17.8 8.9 14.7 8.4 8.8 C11.8 11.8 12.6 15.0 12.1 18.0 C16.9 13.1 16.8 6.5 14.4 1.5 C22.5 8.9 22.7 16.1 20.1 21.5 C23.4 24.0 23.2 31.2 19.6 35.2 C17.8 37.2 15.3 38.4 12.6 39 Z" fill="#d10b10"/>
  <path d="M12.2 37.2 C8.8 34.4 7.4 31.1 8.1 27.5 C8.5 25.0 10.2 23.2 10.1 20.5 C12.5 22.5 13.3 25.0 13.0 27.0 C15.3 24.5 15.6 21.2 14.7 18.5 C18.6 22.3 18.8 28.7 16.7 32.8 C15.6 35.0 14.1 36.3 12.2 37.2 Z" fill="#f25a22" opacity="0.86"/>
</g>
<g id="svg_fire_query_connector" data-source-slot="slot_fire_query_connector" transform="translate(1119,169) scale(0.91667,1.00000)">
  <path d="M12.6 39 C6.1 35.7 3 30.4 3.7 23.5 C4.2 17.8 8.9 14.7 8.4 8.8 C11.8 11.8 12.6 15.0 12.1 18.0 C16.9 13.1 16.8 6.5 14.4 1.5 C22.5 8.9 22.7 16.1 20.1 21.5 C23.4 24.0 23.2 31.2 19.6 35.2 C17.8 37.2 15.3 38.4 12.6 39 Z" fill="#d10b10"/>
  <path d="M12.2 37.2 C8.8 34.4 7.4 31.1 8.1 27.5 C8.5 25.0 10.2 23.2 10.1 20.5 C12.5 22.5 13.3 25.0 13.0 27.0 C15.3 24.5 15.6 21.2 14.7 18.5 C18.6 22.3 18.8 28.7 16.7 32.8 C15.6 35.0 14.1 36.3 12.2 37.2 Z" fill="#f25a22" opacity="0.86"/>
</g>
<g id="svg_fire_vision_projector" data-source-slot="slot_fire_vision_projector" transform="translate(378,588) scale(0.91667,1.00000)">
  <path d="M12.6 39 C6.1 35.7 3 30.4 3.7 23.5 C4.2 17.8 8.9 14.7 8.4 8.8 C11.8 11.8 12.6 15.0 12.1 18.0 C16.9 13.1 16.8 6.5 14.4 1.5 C22.5 8.9 22.7 16.1 20.1 21.5 C23.4 24.0 23.2 31.2 19.6 35.2 C17.8 37.2 15.3 38.4 12.6 39 Z" fill="#d10b10"/>
  <path d="M12.2 37.2 C8.8 34.4 7.4 31.1 8.1 27.5 C8.5 25.0 10.2 23.2 10.1 20.5 C12.5 22.5 13.3 25.0 13.0 27.0 C15.3 24.5 15.6 21.2 14.7 18.5 C18.6 22.3 18.8 28.7 16.7 32.8 C15.6 35.0 14.1 36.3 12.2 37.2 Z" fill="#f25a22" opacity="0.86"/>
</g>
<g id="svg_fire_audio_projector" data-source-slot="slot_fire_audio_projector" transform="translate(826,588) scale(0.91667,1.00000)">
  <path d="M12.6 39 C6.1 35.7 3 30.4 3.7 23.5 C4.2 17.8 8.9 14.7 8.4 8.8 C11.8 11.8 12.6 15.0 12.1 18.0 C16.9 13.1 16.8 6.5 14.4 1.5 C22.5 8.9 22.7 16.1 20.1 21.5 C23.4 24.0 23.2 31.2 19.6 35.2 C17.8 37.2 15.3 38.4 12.6 39 Z" fill="#d10b10"/>
  <path d="M12.2 37.2 C8.8 34.4 7.4 31.1 8.1 27.5 C8.5 25.0 10.2 23.2 10.1 20.5 C12.5 22.5 13.3 25.0 13.0 27.0 C15.3 24.5 15.6 21.2 14.7 18.5 C18.6 22.3 18.8 28.7 16.7 32.8 C15.6 35.0 14.1 36.3 12.2 37.2 Z" fill="#f25a22" opacity="0.86"/>
</g>
<g id="svg_fire_speech_projector" data-source-slot="slot_fire_speech_projector" transform="translate(1276,588) scale(0.91667,1.00000)">
  <path d="M12.6 39 C6.1 35.7 3 30.4 3.7 23.5 C4.2 17.8 8.9 14.7 8.4 8.8 C11.8 11.8 12.6 15.0 12.1 18.0 C16.9 13.1 16.8 6.5 14.4 1.5 C22.5 8.9 22.7 16.1 20.1 21.5 C23.4 24.0 23.2 31.2 19.6 35.2 C17.8 37.2 15.3 38.4 12.6 39 Z" fill="#d10b10"/>
  <path d="M12.2 37.2 C8.8 34.4 7.4 31.1 8.1 27.5 C8.5 25.0 10.2 23.2 10.1 20.5 C12.5 22.5 13.3 25.0 13.0 27.0 C15.3 24.5 15.6 21.2 14.7 18.5 C18.6 22.3 18.8 28.7 16.7 32.8 C15.6 35.0 14.1 36.3 12.2 37.2 Z" fill="#f25a22" opacity="0.86"/>
</g>
<g id="svg_fire_time_encoder" data-source-slot="slot_fire_time_encoder" transform="translate(1482,605)">
  <g transform="translate(5,0) scale(0.55)"><path d="M12.6 39 C6.1 35.7 3 30.4 3.7 23.5 C4.2 17.8 8.9 14.7 8.4 8.8 C11.8 11.8 12.6 15.0 12.1 18.0 C16.9 13.1 16.8 6.5 14.4 1.5 C22.5 8.9 22.7 16.1 20.1 21.5 C23.4 24.0 23.2 31.2 19.6 35.2 C17.8 37.2 15.3 38.4 12.6 39 Z" fill="#d10b10"/>
  <path d="M12.2 37.2 C8.8 34.4 7.4 31.1 8.1 27.5 C8.5 25.0 10.2 23.2 10.1 20.5 C12.5 22.5 13.3 25.0 13.0 27.0 C15.3 24.5 15.6 21.2 14.7 18.5 C18.6 22.3 18.8 28.7 16.7 32.8 C15.6 35.0 14.1 36.3 12.2 37.2 Z" fill="#f25a22" opacity="0.86"/></g>
  <g transform="translate(5,28) scale(0.55)"><path d="M12.6 39 C6.1 35.7 3 30.4 3.7 23.5 C4.2 17.8 8.9 14.7 8.4 8.8 C11.8 11.8 12.6 15.0 12.1 18.0 C16.9 13.1 16.8 6.5 14.4 1.5 C22.5 8.9 22.7 16.1 20.1 21.5 C23.4 24.0 23.2 31.2 19.6 35.2 C17.8 37.2 15.3 38.4 12.6 39 Z" fill="#d10b10"/>
  <path d="M12.2 37.2 C8.8 34.4 7.4 31.1 8.1 27.5 C8.5 25.0 10.2 23.2 10.1 20.5 C12.5 22.5 13.3 25.0 13.0 27.0 C15.3 24.5 15.6 21.2 14.7 18.5 C18.6 22.3 18.8 28.7 16.7 32.8 C15.6 35.0 14.1 36.3 12.2 37.2 Z" fill="#f25a22" opacity="0.86"/></g>
</g>
<g id="svg_fire_legend_stage2" data-source-slot="slot_fire_legend_stage2" transform="translate(1533,183) scale(1.37500,1.17500)">
  <path d="M12.6 39 C6.1 35.7 3 30.4 3.7 23.5 C4.2 17.8 8.9 14.7 8.4 8.8 C11.8 11.8 12.6 15.0 12.1 18.0 C16.9 13.1 16.8 6.5 14.4 1.5 C22.5 8.9 22.7 16.1 20.1 21.5 C23.4 24.0 23.2 31.2 19.6 35.2 C17.8 37.2 15.3 38.4 12.6 39 Z" fill="#d10b10"/>
  <path d="M12.2 37.2 C8.8 34.4 7.4 31.1 8.1 27.5 C8.5 25.0 10.2 23.2 10.1 20.5 C12.5 22.5 13.3 25.0 13.0 27.0 C15.3 24.5 15.6 21.2 14.7 18.5 C18.6 22.3 18.8 28.7 16.7 32.8 C15.6 35.0 14.1 36.3 12.2 37.2 Z" fill="#f25a22" opacity="0.86"/>
</g>
<g id="svg_fire_legend_stage3" data-source-slot="slot_fire_legend_stage3" transform="translate(1531,244) scale(1.58333,1.20000)">
  <path d="M12.6 39 C6.1 35.7 3 30.4 3.7 23.5 C4.2 17.8 8.9 14.7 8.4 8.8 C11.8 11.8 12.6 15.0 12.1 18.0 C16.9 13.1 16.8 6.5 14.4 1.5 C22.5 8.9 22.7 16.1 20.1 21.5 C23.4 24.0 23.2 31.2 19.6 35.2 C17.8 37.2 15.3 38.4 12.6 39 Z" fill="#d10b10"/>
  <path d="M12.2 37.2 C8.8 34.4 7.4 31.1 8.1 27.5 C8.5 25.0 10.2 23.2 10.1 20.5 C12.5 22.5 13.3 25.0 13.0 27.0 C15.3 24.5 15.6 21.2 14.7 18.5 C18.6 22.3 18.8 28.7 16.7 32.8 C15.6 35.0 14.1 36.3 12.2 37.2 Z" fill="#f25a22" opacity="0.86"/>
</g>
<g id="svg_snow_vision_encoder" data-source-slot="slot_snow_vision_encoder" transform="translate(369,670)">
  <g stroke="#2e8fc5" stroke-width="1.55" stroke-linecap="round" opacity="0.95">
    <line x1="2.56" y1="21.00" x2="29.44" y2="21.00"/><line x1="2.56" y1="21.00" x2="5.31" y2="22.93"/><line x1="2.56" y1="21.00" x2="5.31" y2="19.07"/><line x1="29.44" y1="21.00" x2="26.69" y2="19.07"/><line x1="29.44" y1="21.00" x2="26.69" y2="22.93"/><line x1="9.28" y1="9.36" x2="22.72" y2="32.64"/><line x1="9.28" y1="9.36" x2="8.99" y2="12.71"/><line x1="9.28" y1="9.36" x2="12.33" y2="10.78"/><line x1="22.72" y1="32.64" x2="23.01" y2="29.29"/><line x1="22.72" y1="32.64" x2="19.67" y2="31.22"/><line x1="22.72" y1="9.36" x2="9.28" y2="32.64"/><line x1="22.72" y1="9.36" x2="19.67" y2="10.78"/><line x1="22.72" y1="9.36" x2="23.01" y2="12.71"/><line x1="9.28" y1="32.64" x2="12.33" y2="31.22"/><line x1="9.28" y1="32.64" x2="8.99" y2="29.29"/>
  </g>
  <circle cx="16.00" cy="21.00" r="1.44" fill="#2e8fc5" opacity="0.9"/>
</g>
<g id="svg_snow_audio_encoder" data-source-slot="slot_snow_audio_encoder" transform="translate(823,671)">
  <g stroke="#2e8fc5" stroke-width="1.55" stroke-linecap="round" opacity="0.95">
    <line x1="2.56" y1="21.00" x2="29.44" y2="21.00"/><line x1="2.56" y1="21.00" x2="5.31" y2="22.93"/><line x1="2.56" y1="21.00" x2="5.31" y2="19.07"/><line x1="29.44" y1="21.00" x2="26.69" y2="19.07"/><line x1="29.44" y1="21.00" x2="26.69" y2="22.93"/><line x1="9.28" y1="9.36" x2="22.72" y2="32.64"/><line x1="9.28" y1="9.36" x2="8.99" y2="12.71"/><line x1="9.28" y1="9.36" x2="12.33" y2="10.78"/><line x1="22.72" y1="32.64" x2="23.01" y2="29.29"/><line x1="22.72" y1="32.64" x2="19.67" y2="31.22"/><line x1="22.72" y1="9.36" x2="9.28" y2="32.64"/><line x1="22.72" y1="9.36" x2="19.67" y2="10.78"/><line x1="22.72" y1="9.36" x2="23.01" y2="12.71"/><line x1="9.28" y1="32.64" x2="12.33" y2="31.22"/><line x1="9.28" y1="32.64" x2="8.99" y2="29.29"/>
  </g>
  <circle cx="16.00" cy="21.00" r="1.44" fill="#2e8fc5" opacity="0.9"/>
</g>
<g id="svg_snow_speech_encoder" data-source-slot="slot_snow_speech_encoder" transform="translate(1267,671)">
  <g stroke="#2e8fc5" stroke-width="1.55" stroke-linecap="round" opacity="0.95">
    <line x1="2.56" y1="21.00" x2="29.44" y2="21.00"/><line x1="2.56" y1="21.00" x2="5.31" y2="22.93"/><line x1="2.56" y1="21.00" x2="5.31" y2="19.07"/><line x1="29.44" y1="21.00" x2="26.69" y2="19.07"/><line x1="29.44" y1="21.00" x2="26.69" y2="22.93"/><line x1="9.28" y1="9.36" x2="22.72" y2="32.64"/><line x1="9.28" y1="9.36" x2="8.99" y2="12.71"/><line x1="9.28" y1="9.36" x2="12.33" y2="10.78"/><line x1="22.72" y1="32.64" x2="23.01" y2="29.29"/><line x1="22.72" y1="32.64" x2="19.67" y2="31.22"/><line x1="22.72" y1="9.36" x2="9.28" y2="32.64"/><line x1="22.72" y1="9.36" x2="19.67" y2="10.78"/><line x1="22.72" y1="9.36" x2="23.01" y2="12.71"/><line x1="9.28" y1="32.64" x2="12.33" y2="31.22"/><line x1="9.28" y1="32.64" x2="8.99" y2="29.29"/>
  </g>
  <circle cx="16.00" cy="21.00" r="1.44" fill="#2e8fc5" opacity="0.9"/>
</g>
<g id="svg_snow_legend" data-source-slot="slot_snow_legend" transform="translate(1533,286)">
  <g stroke="#2e8fc5" stroke-width="1.55" stroke-linecap="round" opacity="0.95">
    <line x1="2.72" y1="21.00" x2="31.28" y2="21.00"/><line x1="2.72" y1="21.00" x2="5.64" y2="23.05"/><line x1="2.72" y1="21.00" x2="5.64" y2="18.95"/><line x1="31.28" y1="21.00" x2="28.36" y2="18.95"/><line x1="31.28" y1="21.00" x2="28.36" y2="23.05"/><line x1="9.86" y1="8.63" x2="24.14" y2="33.37"/><line x1="9.86" y1="8.63" x2="9.55" y2="12.19"/><line x1="9.86" y1="8.63" x2="13.10" y2="10.14"/><line x1="24.14" y1="33.37" x2="24.45" y2="29.81"/><line x1="24.14" y1="33.37" x2="20.90" y2="31.86"/><line x1="24.14" y1="8.63" x2="9.86" y2="33.37"/><line x1="24.14" y1="8.63" x2="20.90" y2="10.14"/><line x1="24.14" y1="8.63" x2="24.45" y2="12.19"/><line x1="9.86" y1="33.37" x2="13.10" y2="31.86"/><line x1="9.86" y1="33.37" x2="9.55" y2="29.81"/>
  </g>
  <circle cx="17.00" cy="21.00" r="1.53" fill="#2e8fc5" opacity="0.9"/>
</g>
<g id="svg_wave_audio_input" data-source-slot="slot_wave_audio_input" transform="translate(579,777)">
  <rect x="0" y="0" width="295" height="59" fill="#dff2d9" opacity="0.82"/>
  <g opacity="0.96">
    <rect x="0" y="4" width="5" height="38" rx="2.0" fill="#245113"/><rect x="8" y="8" width="4" height="30" rx="2.0" fill="#245113"/><rect x="16" y="0" width="5" height="46" rx="2.0" fill="#245113"/><rect x="24" y="0" width="4" height="54" rx="2.0" fill="#245113"/><rect x="32" y="4" width="5" height="38" rx="2.0" fill="#245113"/><rect x="38" y="12" width="6" height="22" rx="2.0" fill="#245113"/><rect x="46" y="4" width="5" height="38" rx="2.0" fill="#245113"/><rect x="54" y="8" width="4" height="30" rx="2.0" fill="#245113"/><rect x="62" y="0" width="4" height="46" rx="2.0" fill="#245113"/><rect x="69" y="0" width="5" height="54" rx="2.0" fill="#245113"/><rect x="77" y="4" width="5" height="38" rx="2.0" fill="#245113"/><rect x="84" y="13" width="6" height="22" rx="2.0" fill="#245113"/><rect x="92" y="5" width="5" height="38" rx="2.0" fill="#245113"/><rect x="101" y="9" width="5" height="30" rx="2.0" fill="#245113"/><rect x="109" y="1" width="6" height="46" rx="2.0" fill="#245113"/><rect x="118" y="0" width="5" height="55" rx="2.0" fill="#245113"/><rect x="126" y="5" width="5" height="38" rx="2.0" fill="#245113"/><rect x="133" y="14" width="7" height="21" rx="2.0" fill="#245113"/><rect x="141" y="5" width="5" height="38" rx="2.0" fill="#245113"/><rect x="150" y="9" width="5" height="30" rx="2.0" fill="#245113"/><rect x="158" y="2" width="5" height="46" rx="2.0" fill="#245113"/><rect x="167" y="0" width="5" height="56" rx="2.0" fill="#245113"/><rect x="175" y="5" width="5" height="38" rx="2.0" fill="#245113"/><rect x="183" y="15" width="5" height="21" rx="2.0" fill="#245113"/><rect x="192" y="6" width="5" height="38" rx="2.0" fill="#245113"/><rect x="200" y="10" width="5" height="30" rx="2.0" fill="#245113"/><rect x="208" y="2" width="6" height="46" rx="2.0" fill="#245113"/><rect x="217" y="0" width="5" height="56" rx="2.0" fill="#245113"/><rect x="225" y="6" width="5" height="38" rx="2.0" fill="#245113"/><rect x="232" y="16" width="7" height="21" rx="2.0" fill="#245113"/><rect x="241" y="8" width="5" height="37" rx="2.0" fill="#245113"/><rect x="249" y="12" width="5" height="29" rx="2.0" fill="#245113"/><rect x="257" y="4" width="6" height="45" rx="2.0" fill="#245113"/><rect x="266" y="0" width="5" height="57" rx="2.0" fill="#245113"/><rect x="274" y="8" width="5" height="37" rx="2.0" fill="#245113"/><rect x="283" y="20" width="5" height="13" rx="2.0" fill="#245113"/>
  </g>
</g>
<g id="svg_wave_speech_input" data-source-slot="slot_wave_speech_input" transform="translate(1024,777)">
  <rect x="0" y="0" width="295" height="59" fill="#f4c3a6" opacity="0.82"/>
  <g opacity="0.96">
    <rect x="0" y="7" width="4" height="30" rx="2.0" fill="#853604"/><rect x="7" y="0" width="5" height="46" rx="2.0" fill="#853604"/><rect x="15" y="0" width="5" height="54" rx="2.0" fill="#853604"/><rect x="23" y="3" width="5" height="39" rx="2.0" fill="#853604"/><rect x="30" y="12" width="6" height="21" rx="2.0" fill="#853604"/><rect x="38" y="3" width="4" height="38" rx="2.0" fill="#853604"/><rect x="45" y="7" width="5" height="30" rx="2.0" fill="#853604"/><rect x="53" y="0" width="5" height="46" rx="2.0" fill="#853604"/><rect x="61" y="0" width="5" height="54" rx="2.0" fill="#853604"/><rect x="69" y="3" width="5" height="39" rx="2.0" fill="#853604"/><rect x="76" y="13" width="5" height="21" rx="2.0" fill="#853604"/><rect x="84" y="4" width="6" height="38" rx="2.0" fill="#853604"/><rect x="93" y="8" width="5" height="30" rx="2.0" fill="#853604"/><rect x="101" y="0" width="5" height="47" rx="2.0" fill="#853604"/><rect x="109" y="0" width="5" height="54" rx="2.0" fill="#853604"/><rect x="118" y="4" width="5" height="38" rx="2.0" fill="#853604"/><rect x="125" y="12" width="6" height="22" rx="2.0" fill="#853604"/><rect x="133" y="4" width="6" height="38" rx="2.0" fill="#853604"/><rect x="142" y="8" width="5" height="30" rx="2.0" fill="#853604"/><rect x="150" y="0" width="6" height="46" rx="2.0" fill="#853604"/><rect x="159" y="0" width="5" height="54" rx="2.0" fill="#853604"/><rect x="167" y="4" width="6" height="38" rx="2.0" fill="#853604"/><rect x="175" y="14" width="6" height="22" rx="2.0" fill="#853604"/><rect x="183" y="5" width="6" height="39" rx="2.0" fill="#853604"/><rect x="192" y="9" width="5" height="30" rx="2.0" fill="#853604"/><rect x="200" y="2" width="5" height="46" rx="2.0" fill="#853604"/><rect x="208" y="0" width="5" height="56" rx="2.0" fill="#853604"/><rect x="217" y="5" width="5" height="39" rx="2.0" fill="#853604"/><rect x="224" y="15" width="6" height="22" rx="2.0" fill="#853604"/><rect x="233" y="7" width="5" height="38" rx="2.0" fill="#853604"/><rect x="241" y="11" width="5" height="29" rx="2.0" fill="#853604"/><rect x="250" y="3" width="5" height="46" rx="2.0" fill="#853604"/><rect x="258" y="0" width="5" height="56" rx="2.0" fill="#853604"/><rect x="266" y="7" width="6" height="38" rx="2.0" fill="#853604"/><rect x="275" y="19" width="5" height="14" rx="2.0" fill="#853604"/><rect x="287" y="8" width="3" height="51" rx="1.5" fill="#853604"/>
  </g>
</g>
</svg>