<svg xmlns="http://www.w3.org/2000/svg" xmlns:xlink="http://www.w3.org/1999/xlink" width="1905" height="1060" viewBox="0 0 1905 1060">
<defs>
  <marker id="arrowBlack" markerWidth="10" markerHeight="10" refX="9" refY="5" orient="auto" markerUnits="userSpaceOnUse"><path d="M0,0 L10,5 L0,10 z" fill="#111"/></marker>
  <marker id="arrowBlue" markerWidth="10" markerHeight="10" refX="9" refY="5" orient="auto" markerUnits="userSpaceOnUse"><path d="M0,0 L10,5 L0,10 z" fill="#14486e"/></marker>
  <marker id="arrowGreen" markerWidth="10" markerHeight="10" refX="9" refY="5" orient="auto" markerUnits="userSpaceOnUse"><path d="M0,0 L10,5 L0,10 z" fill="#6fb642"/></marker>
  <marker id="arrowOrange" markerWidth="10" markerHeight="10" refX="9" refY="5" orient="auto" markerUnits="userSpaceOnUse"><path d="M0,0 L10,5 L0,10 z" fill="#e97934"/></marker>
  <marker id="arrowPurple" markerWidth="10" markerHeight="10" refX="9" refY="5" orient="auto" markerUnits="userSpaceOnUse"><path d="M0,0 L10,5 L0,10 z" fill="#8a6aa7"/></marker>
  <marker id="arrowGold" markerWidth="10" markerHeight="10" refX="9" refY="5" orient="auto" markerUnits="userSpaceOnUse"><path d="M0,0 L10,5 L0,10 z" fill="#dca75b"/></marker>
</defs>
<rect x="0" y="0" width="1905" height="1060" rx="0" fill="#ffffff" stroke="none" stroke-width="0"/>
<rect x="807" y="19" width="204" height="40" rx="0" fill="#f6d7ef" stroke="#8a0f6c" stroke-width="3"/>
<text x="903" y="47" font-family="Nunito, Avenir, Helvetica, Arial, sans-serif" font-size="25" font-weight="400" fill="#4b2644" text-anchor="middle" >Time Head</text>
<rect x="1120" y="19" width="190" height="40" rx="0" fill="#f6d7ef" stroke="#8a0f6c" stroke-width="3"/>
<text x="1216" y="47" font-family="Nunito, Avenir, Helvetica, Arial, sans-serif" font-size="25" font-weight="400" fill="#4b2644" text-anchor="middle" >LM Head</text>
<line x1="1012" y1="40" x2="1119" y2="40" stroke="#74305e" stroke-width="2" stroke-dasharray="6 4" marker-end="url(#arrowPurple)"/>
<text x="1065" y="29" font-family="Nunito, Avenir, Helvetica, Arial, sans-serif" font-size="17" font-weight="400" fill="#4b2644" text-anchor="middle" >&lt;sync&gt;</text>
<line x1="910" y1="79" x2="910" y2="61" stroke="#111" stroke-width="2" marker-end="url(#arrowBlack)"/>
<line x1="1215" y1="79" x2="1215" y2="61" stroke="#111" stroke-width="2" marker-end="url(#arrowBlack)"/>
<g id="slot_fire_time_head_left" data-bbox="[811,22,20,27]" data-role="asset">
  <rect x="811" y="22" width="20" height="27" fill="#f8f8f8" stroke="#666" stroke-width="2" stroke-dasharray="6 4"/>
  <line x1="811" y1="22" x2="831" y2="49" stroke="#aaa" stroke-width="1"/>
  <line x1="831" y1="22" x2="811" y2="49" stroke="#aaa" stroke-width="1"/>
  <text x="821.0" y="35.5" font-family="Arial, sans-serif" font-size="5.0" fill="#555" text-anchor="middle" dominant-baseline="middle">ASSET_SLOT</text>
</g>
<g id="slot_fire_time_head_right" data-bbox="[1001,22,19,27]" data-role="asset">
  <rect x="1001" y="22" width="19" height="27" fill="#f8f8f8" stroke="#666" stroke-width="2" stroke-dasharray="6 4"/>
  <line x1="1001" y1="22" x2="1020" y2="49" stroke="#aaa" stroke-width="1"/>
  <line x1="1020" y1="22" x2="1001" y2="49" stroke="#aaa" stroke-width="1"/>
  <text x="1010.5" y="35.5" font-family="Arial, sans-serif" font-size="5.0" fill="#555" text-anchor="middle" dominant-baseline="middle">ASSET_SLOT</text>
</g>
<g id="slot_fire_lm_head_left" data-bbox="[1123,22,20,27]" data-role="asset">
  <rect x="1123" y="22" width="20" height="27" fill="#f8f8f8" stroke="#666" stroke-width="2" stroke-dasharray="6 4"/>
  <line x1="1123" y1="22" x2="1143" y2="49" stroke="#aaa" stroke-width="1"/>
  <line x1="1143" y1="22" x2="1123" y2="49" stroke="#aaa" stroke-width="1"/>
  <text x="1133.0" y="35.5" font-family="Arial, sans-serif" font-size="5.0" fill="#555" text-anchor="middle" dominant-baseline="middle">ASSET_SLOT</text>
</g>
<g id="slot_fire_lm_head_right" data-bbox="[1297,22,20,27]" data-role="asset">
  <rect x="1297" y="22" width="20" height="27" fill="#f8f8f8" stroke="#666" stroke-width="2" stroke-dasharray="6 4"/>
  <line x1="1297" y1="22" x2="1317" y2="49" stroke="#aaa" stroke-width="1"/>
  <line x1="1317" y1="22" x2="1297" y2="49" stroke="#aaa" stroke-width="1"/>
  <text x="1307.0" y="35.5" font-family="Arial, sans-serif" font-size="5.0" fill="#555" text-anchor="middle" dominant-baseline="middle">ASSET_SLOT</text>
</g>
<rect x="121" y="79" width="1185" height="67" rx="3" fill="#fde9df" stroke="#7c381d" stroke-width="2"/>
<text x="715" y="125" font-family="Nunito, Avenir, Helvetica, Arial, sans-serif" font-size="27" font-weight="400" fill="#6b3a25" text-anchor="middle" >Large Language Model</text>
<g id="slot_fire_llm_left" data-bbox="[132,85,38,56]" data-role="asset">
  <rect x="132" y="85" width="38" height="56" fill="#f8f8f8" stroke="#666" stroke-width="2" stroke-dasharray="6 4"/>
  <line x1="132" y1="85" x2="170" y2="141" stroke="#aaa" stroke-width="1"/>
  <line x1="170" y1="85" x2="132" y2="141" stroke="#aaa" stroke-width="1"/>
  <text x="151.0" y="113.0" font-family="Arial, sans-serif" font-size="5.4" fill="#555" text-anchor="middle" dominant-baseline="middle">ASSET_SLOT</text>
</g>
<rect x="16" y="161" width="1481" height="414" rx="0" fill="none" stroke="#1a5f92" stroke-width="3" stroke-dasharray="10 8"/>
<rect x="1514" y="160" width="374" height="204" rx="0" fill="none" stroke="#222" stroke-width="3" stroke-dasharray="10 8"/>
<g transform="translate(1540,169)">
<circle cx="16" cy="16" r="20" fill="none" stroke="#111" stroke-width="2"/><line x1="-6" y1="16" x2="38" y2="16" stroke="#111" stroke-width="2"/><line x1="16" y1="-6" x2="16" y2="38" stroke="#111" stroke-width="2"/></g>
<text x="1575" y="199" font-family="Nunito, Avenir, Helvetica, Arial, sans-serif" font-size="22" font-weight="400" fill="#222" text-anchor="start" >Point-wise Addition</text>
<g id="slot_fire_legend_stage2" data-bbox="[1533,183,33,47]" data-role="asset">
  <rect x="1533" y="183" width="33" height="47" fill="#f8f8f8" stroke="#666" stroke-width="2" stroke-dasharray="6 4"/>
  <line x1="1533" y1="183" x2="1566" y2="230" stroke="#aaa" stroke-width="1"/>
  <line x1="1566" y1="183" x2="1533" y2="230" stroke="#aaa" stroke-width="1"/>
  <text x="1549.5" y="206.5" font-family="Arial, sans-serif" font-size="5.0" fill="#555" text-anchor="middle" dominant-baseline="middle">ASSET_SLOT</text>
</g>
<text x="1575" y="248" font-family="Nunito, Avenir, Helvetica, Arial, sans-serif" font-size="22" font-weight="400" fill="#222" text-anchor="start" >Stage2 trainable modules</text>
<g id="slot_fire_legend_stage3" data-bbox="[1531,244,38,48]" data-role="asset">
  <rect x="1531" y="244" width="38" height="48" fill="#f8f8f8" stroke="#666" stroke-width="2" stroke-dasharray="6 4"/>
  <line x1="1531" y1="244" x2="1569" y2="292" stroke="#aaa" stroke-width="1"/>
  <line x1="1569" y1="244" x2="1531" y2="292" stroke="#aaa" stroke-width="1"/>
  <text x="1550.0" y="268.0" font-family="Arial, sans-serif" font-size="5.4" fill="#555" text-anchor="middle" dominant-baseline="middle">ASSET_SLOT</text>
</g>
<text x="1575" y="300" font-family="Nunito, Avenir, Helvetica, Arial, sans-serif" font-size="22" font-weight="400" fill="#222" text-anchor="start" >Stage3 Tringble Modules</text>
<g id="slot_snow_legend" data-bbox="[1533,286,34,42]" data-role="asset">
  <rect x="1533" y="286" width="34" height="42" fill="#f8f8f8" stroke="#666" stroke-width="2" stroke-dasharray="6 4"/>
  <line x1="1533" y1="286" x2="1567" y2="328" stroke="#aaa" stroke-width="1"/>
  <line x1="1567" y1="286" x2="1533" y2="328" stroke="#aaa" stroke-width="1"/>
  <text x="1550.0" y="307.0" font-family="Arial, sans-serif" font-size="5.0" fill="#555" text-anchor="middle" dominant-baseline="middle">ASSET_SLOT</text>
</g>
<text x="1575" y="349" font-family="Nunito, Avenir, Helvetica, Arial, sans-serif" font-size="22" font-weight="400" fill="#222" text-anchor="start" >Frozen Components</text>
<rect x="514" y="176" width="420" height="50" rx="2" fill="#fff1e8" stroke="#8a3e20" stroke-width="2"/>
<text x="724" y="211" font-family="Nunito, Avenir, Helvetica, Arial, sans-serif" font-size="25" font-weight="400" fill="#6d3b26" text-anchor="middle" >Compress &amp; Two-layer MLP</text>
<line x1="714" y1="176" x2="714" y2="147" stroke="#111" stroke-width="3" marker-end="url(#arrowBlack)"/>
<line x1="714" y1="255" x2="714" y2="226" stroke="#111" stroke-width="3" marker-end="url(#arrowBlack)"/>
<text x="242" y="278" font-family="Nunito, Avenir, Helvetica, Arial, sans-serif" font-size="20" font-weight="400" fill="#145376" text-anchor="middle" >Multimodal</text>
<text x="370" y="278" font-family="Nunito, Avenir, Helvetica, Arial, sans-serif" font-size="20" font-weight="400" fill="#b84f20" text-anchor="middle" >tokens</text>
<rect x="459" y="215" width="560" height="42" rx="6" fill="#eef2f4" stroke="none" stroke-width="0" opacity="0.85"/>
<text x="535" y="242" font-family="Nunito, Avenir, Helvetica, Arial, sans-serif" font-size="20" font-weight="400" fill="#31446b" text-anchor="middle" >Concat( Wv*</text>
<rect x="635" y="220" width="33" height="30" rx="5" fill="#9ec4e5" stroke="none" stroke-width="0"/>
<rect x="672" y="220" width="33" height="30" rx="5" fill="#9ec4e5" stroke="none" stroke-width="0"/>
<rect x="773" y="220" width="33" height="30" rx="5" fill="#93c940" stroke="none" stroke-width="0"/>
<rect x="808" y="220" width="33" height="30" rx="5" fill="#93c940" stroke="none" stroke-width="0"/>
<rect x="900" y="220" width="33" height="30" rx="5" fill="#f1b391" stroke="none" stroke-width="0"/>
<rect x="936" y="220" width="33" height="30" rx="5" fill="#f1b391" stroke="none" stroke-width="0"/>
<rect x="982" y="220" width="33" height="30" rx="5" fill="#e8bd79" stroke="none" stroke-width="0"/>
<text x="725" y="242" font-family="Nunito, Avenir, Helvetica, Arial, sans-serif" font-size="20" font-weight="400" fill="#285c24" text-anchor="middle" >Wa*</text>
<text x="857" y="242" font-family="Nunito, Avenir, Helvetica, Arial, sans-serif" font-size="20" font-weight="400" fill="#7f2e19" text-anchor="middle" >Ws*</text>
<line x1="714" y1="420" x2="714" y2="259" stroke="#79bd42" stroke-width="3" marker-end="url(#arrowGreen)"/>
<line x1="1156" y1="419" x2="1156" y2="328" stroke="#e97934" stroke-width="3" marker-end="url(#arrowOrange)"/>
<polyline points="1014,269 1410,269 1410,604" fill="none" stroke="#dca75b" stroke-width="2" marker-end="url(#arrowGold)"/>
<g id="slot_fire_query_connector" data-bbox="[1119,169,22,40]" data-role="asset">
  <rect x="1119" y="169" width="22" height="40" fill="#f8f8f8" stroke="#666" stroke-width="2" stroke-dasharray="6 4"/>
  <line x1="1119" y1="169" x2="1141" y2="209" stroke="#aaa" stroke-width="1"/>
  <line x1="1141" y1="169" x2="1119" y2="209" stroke="#aaa" stroke-width="1"/>
  <text x="1130.0" y="189.0" font-family="Arial, sans-serif" font-size="5.0" fill="#555" text-anchor="middle" dominant-baseline="middle">ASSET_SLOT</text>
</g>
<text x="1155" y="190" font-family="Nunito, Avenir, Helvetica, Arial, sans-serif" font-size="25" font-weight="700" fill="#235a87" text-anchor="start" >Query-Based Connector</text>
<rect x="121" y="426" width="278" height="63" rx="3" fill="#e4f0fb" stroke="#17496c" stroke-width="3"/>
<text x="260" y="464" font-family="Nunito, Avenir, Helvetica, Arial, sans-serif" font-size="25" font-weight="400" fill="#24445e" text-anchor="middle" >Cross Attention</text>
<text x="31" y="528" font-family="Nunito, Avenir, Helvetica, Arial, sans-serif" font-size="20" font-weight="400" fill="#17496c" text-anchor="start" >Vision Tokens</text>
<rect x="185" y="509" width="148" height="45" rx="7" fill="#eef2f4" stroke="none" stroke-width="0" opacity="0.86"/>
<rect x="199" y="519" width="33" height="31" rx="5" fill="#a6c7e7" stroke="none" stroke-width="0"/>
<rect x="246" y="519" width="33" height="31" rx="5" fill="#a6c7e7" stroke="none" stroke-width="0"/>
<rect x="292" y="519" width="33" height="31" rx="5" fill="#a6c7e7" stroke="none" stroke-width="0"/>
<line x1="260" y1="584" x2="260" y2="489" stroke="#17496c" stroke-width="3" marker-end="url(#arrowBlue)"/>
<polyline points="260,426 260,330 340,330" fill="none" stroke="#17496c" stroke-width="3" marker-end="url(#arrowBlue)"/>
<rect x="340" y="313" width="110" height="36" rx="18" fill="#e4f0fb" stroke="#17496c" stroke-width="3"/>
<text x="395" y="338" font-family="Nunito, Avenir, Helvetica, Arial, sans-serif" font-size="22" font-weight="400" fill="#24445e" text-anchor="middle" >Wv</text>
<line x1="450" y1="330" x2="698" y2="330" stroke="#17496c" stroke-width="3" marker-end="url(#arrowBlue)"/>
<text x="468" y="362" font-family="Times New Roman, serif" font-size="20" font-weight="400" fill="#17496c" text-anchor="start" >$f_i^v, q$</text>
<polyline points="377,561 377,493 377,493" fill="none" stroke="#8c6fa8" stroke-width="3" marker-end="url(#arrowPurple)"/>
<line x1="377" y1="561" x2="377" y2="493" stroke="#8c6fa8" stroke-width="3" marker-end="url(#arrowPurple)"/>
<rect x="121" y="586" width="278" height="65" rx="2" fill="#e4f0fb" stroke="#17496c" stroke-width="3"/>
<text x="260" y="626" font-family="Nunito, Avenir, Helvetica, Arial, sans-serif" font-size="26" font-weight="400" fill="#24445e" text-anchor="middle" >Vision Projector</text>
<g id="slot_fire_vision_projector" data-bbox="[378,588,22,40]" data-role="asset">
  <rect x="378" y="588" width="22" height="40" fill="#f8f8f8" stroke="#666" stroke-width="2" stroke-dasharray="6 4"/>
  <line x1="378" y1="588" x2="400" y2="628" stroke="#aaa" stroke-width="1"/>
  <line x1="400" y1="588" x2="378" y2="628" stroke="#aaa" stroke-width="1"/>
  <text x="389.0" y="608.0" font-family="Arial, sans-serif" font-size="5.0" fill="#555" text-anchor="middle" dominant-baseline="middle">ASSET_SLOT</text>
</g>
<text x="405" y="624" font-family="Times New Roman, serif" font-size="20" font-weight="400" fill="#17496c" text-anchor="start" >$f_i'{}^v$</text>
<rect x="121" y="669" width="278" height="65" rx="2" fill="#e4f0fb" stroke="#17496c" stroke-width="3"/>
<text x="260" y="710" font-family="Nunito, Avenir, Helvetica, Arial, sans-serif" font-size="26" font-weight="400" fill="#24445e" text-anchor="middle" >Vision Encoder</text>
<g id="slot_snow_vision_encoder" data-bbox="[369,670,32,42]" data-role="asset">
  <rect x="369" y="670" width="32" height="42" fill="#f8f8f8" stroke="#666" stroke-width="2" stroke-dasharray="6 4"/>
  <line x1="369" y1="670" x2="401" y2="712" stroke="#aaa" stroke-width="1"/>
  <line x1="401" y1="670" x2="369" y2="712" stroke="#aaa" stroke-width="1"/>
  <text x="385.0" y="691.0" font-family="Arial, sans-serif" font-size="5.0" fill="#555" text-anchor="middle" dominant-baseline="middle">ASSET_SLOT</text>
</g>
<text x="405" y="710" font-family="Times New Roman, serif" font-size="20" font-weight="400" fill="#17496c" text-anchor="start" >$f_i^v$</text>
<line x1="260" y1="669" x2="260" y2="652" stroke="#17496c" stroke-width="3" marker-end="url(#arrowBlue)"/>
<line x1="260" y1="759" x2="260" y2="735" stroke="#17496c" stroke-width="3" marker-end="url(#arrowBlue)"/>
<g id="slot_vision_input_frames" data-bbox="[31,759,448,84]" data-role="asset">
  <rect x="31" y="759" width="448" height="84" fill="#f8f8f8" stroke="#666" stroke-width="2" stroke-dasharray="6 4"/>
  <line x1="31" y1="759" x2="479" y2="843" stroke="#aaa" stroke-width="1"/>
  <line x1="479" y1="759" x2="31" y2="843" stroke="#aaa" stroke-width="1"/>
  <text x="255.0" y="801.0" font-family="Arial, sans-serif" font-size="12.0" fill="#555" text-anchor="middle" dominant-baseline="middle">ASSET_SLOT</text>
</g>
<rect x="577" y="423" width="278" height="63" rx="3" fill="#e7f4df" stroke="#2d671e" stroke-width="3"/>
<text x="716" y="462" font-family="Nunito, Avenir, Helvetica, Arial, sans-serif" font-size="25" font-weight="400" fill="#244f32" text-anchor="middle" >Cross Attention</text>
<text x="476" y="528" font-family="Nunito, Avenir, Helvetica, Arial, sans-serif" font-size="20" font-weight="400" fill="#2d671e" text-anchor="start" >Audio Tokens</text>
<rect x="640" y="509" width="148" height="45" rx="7" fill="#eef2f4" stroke="none" stroke-width="0" opacity="0.86"/>
<rect x="642" y="519" width="33" height="31" rx="5" fill="#99c983" stroke="none" stroke-width="0"/>
<rect x="688" y="519" width="33" height="31" rx="5" fill="#99c983" stroke="none" stroke-width="0"/>
<rect x="734" y="519" width="33" height="31" rx="5" fill="#99c983" stroke="none" stroke-width="0"/>
<rect x="661" y="372" width="108" height="36" rx="18" fill="#e7f4df" stroke="#2d671e" stroke-width="3"/>
<text x="715" y="397" font-family="Nunito, Avenir, Helvetica, Arial, sans-serif" font-size="22" font-weight="400" fill="#244f32" text-anchor="middle" >Wa</text>
<g><circle cx="714" cy="330" r="23" fill="#fff" stroke="#111" stroke-width="3"/><line x1="691" y1="330" x2="737" y2="330" stroke="#111" stroke-width="3"/><line x1="714" y1="307" x2="714" y2="353" stroke="#111" stroke-width="3"/></g>
<line x1="714" y1="372" x2="714" y2="354" stroke="#2d671e" stroke-width="3" marker-end="url(#arrowGreen)"/>
<line x1="714" y1="423" x2="714" y2="408" stroke="#2d671e" stroke-width="3" marker-end="url(#arrowGreen)"/>
<line x1="714" y1="586" x2="714" y2="486" stroke="#2d671e" stroke-width="3" marker-end="url(#arrowGreen)"/>
<line x1="714" y1="661" x2="714" y2="652" stroke="#2d671e" stroke-width="3" marker-end="url(#arrowGreen)"/>
<line x1="714" y1="759" x2="714" y2="735" stroke="#2d671e" stroke-width="3" marker-end="url(#arrowGreen)"/>
<text x="735" y="362" font-family="Times New Roman, serif" font-size="20" font-weight="400" fill="#2d671e" text-anchor="start" >$f^a, q$</text>
<text x="735" y="298" font-family="Times New Roman, serif" font-size="20" font-weight="400" fill="#2d671e" text-anchor="start" >$f^a, q$</text>
<polyline points="789,560 789,487" fill="none" stroke="#8c6fa8" stroke-width="3" marker-end="url(#arrowPurple)"/>
<rect x="577" y="586" width="278" height="65" rx="2" fill="#e7f4df" stroke="#2d671e" stroke-width="3"/>
<text x="716" y="626" font-family="Nunito, Avenir, Helvetica, Arial, sans-serif" font-size="26" font-weight="400" fill="#244f32" text-anchor="middle" >Audio Projector</text>
<g id="slot_fire_audio_projector" data-bbox="[826,588,22,40]" data-role="asset">
  <rect x="826" y="588" width="22" height="40" fill="#f8f8f8" stroke="#666" stroke-width="2" stroke-dasharray="6 4"/>
  <line x1="826" y1="588" x2="848" y2="628" stroke="#aaa" stroke-width="1"/>
  <line x1="848" y1="588" x2="826" y2="628" stroke="#aaa" stroke-width="1"/>
  <text x="837.0" y="608.0" font-family="Arial, sans-serif" font-size="5.0" fill="#555" text-anchor="middle" dominant-baseline="middle">ASSET_SLOT</text>
</g>
<text x="862" y="625" font-family="Times New Roman, serif" font-size="20" font-weight="400" fill="#2d671e" text-anchor="start" >$f_i'{}^a$</text>
<rect x="577" y="669" width="278" height="65" rx="2" fill="#e7f4df" stroke="#2d671e" stroke-width="3"/>
<text x="716" y="710" font-family="Nunito, Avenir, Helvetica, Arial, sans-serif" font-size="26" font-weight="400" fill="#244f32" text-anchor="middle" >Audio Encoder</text>
<g id="slot_snow_audio_encoder" data-bbox="[823,671,32,42]" data-role="asset">
  <rect x="823" y="671" width="32" height="42" fill="#f8f8f8" stroke="#666" stroke-width="2" stroke-dasharray="6 4"/>
  <line x1="823" y1="671" x2="855" y2="713" stroke="#aaa" stroke-width="1"/>
  <line x1="855" y1="671" x2="823" y2="713" stroke="#aaa" stroke-width="1"/>
  <text x="839.0" y="692.0" font-family="Arial, sans-serif" font-size="5.0" fill="#555" text-anchor="middle" dominant-baseline="middle">ASSET_SLOT</text>
</g>
<text x="862" y="710" font-family="Times New Roman, serif" font-size="20" font-weight="400" fill="#2d671e" text-anchor="start" >$f_i^a$</text>
<rect x="558" y="758" width="320" height="84" rx="0" fill="none" stroke="#2d671e" stroke-width="3" stroke-dasharray="10 8"/>
<g id="slot_wave_audio_input" data-bbox="[579,777,295,59]" data-role="asset">
  <rect x="579" y="777" width="295" height="59" fill="#f8f8f8" stroke="#666" stroke-width="2" stroke-dasharray="6 4"/>
  <line x1="579" y1="777" x2="874" y2="836" stroke="#aaa" stroke-width="1"/>
  <line x1="874" y1="777" x2="579" y2="836" stroke="#aaa" stroke-width="1"/>
  <text x="726.5" y="806.5" font-family="Arial, sans-serif" font-size="12.0" fill="#555" text-anchor="middle" dominant-baseline="middle">ASSET_SLOT</text>
</g>
<rect x="1017" y="419" width="278" height="63" rx="3" fill="#f4d5c4" stroke="#9a461e" stroke-width="3"/>
<text x="1156" y="458" font-family="Nunito, Avenir, Helvetica, Arial, sans-serif" font-size="25" font-weight="400" fill="#6e3a23" text-anchor="middle" >Cross Attention</text>
<text x="894" y="528" font-family="Nunito, Avenir, Helvetica, Arial, sans-serif" font-size="20" font-weight="400" fill="#9a461e" text-anchor="start" >Speech Tokens</text>
<rect x="1082" y="509" width="148" height="45" rx="7" fill="#eef2f4" stroke="none" stroke-width="0" opacity="0.86"/>
<rect x="1084" y="519" width="33" height="31" rx="5" fill="#e97a38" stroke="none" stroke-width="0"/>
<rect x="1130" y="519" width="33" height="31" rx="5" fill="#e97a38" stroke="none" stroke-width="0"/>
<rect x="1176" y="519" width="33" height="31" rx="5" fill="#e97a38" stroke="none" stroke-width="0"/>
<rect x="1007" y="313" width="95" height="36" rx="18" fill="#f4d5c4" stroke="#9a461e" stroke-width="3"/>
<text x="1054" y="338" font-family="Nunito, Avenir, Helvetica, Arial, sans-serif" font-size="22" font-weight="400" fill="#6e3a23" text-anchor="middle" >Ws</text>
<polyline points="1156,419 1156,330 1102,330" fill="none" stroke="#9a461e" stroke-width="3" marker-end="url(#arrowOrange)"/>
<line x1="1156" y1="586" x2="1156" y2="482" stroke="#9a461e" stroke-width="3" marker-end="url(#arrowOrange)"/>
<line x1="1156" y1="669" x2="1156" y2="652" stroke="#9a461e" stroke-width="3" marker-end="url(#arrowOrange)"/>
<line x1="1156" y1="759" x2="1156" y2="735" stroke="#9a461e" stroke-width="3" marker-end="url(#arrowOrange)"/>
<polyline points="1235,559 1235,484" fill="none" stroke="#8c6fa8" stroke-width="3" marker-end="url(#arrowPurple)"/>
<text x="957" y="362" font-family="Times New Roman, serif" font-size="20" font-weight="400" fill="#9a461e" text-anchor="start" >$f^s, q$</text>
<rect x="1017" y="586" width="278" height="65" rx="2" fill="#f4d5c4" stroke="#9a461e" stroke-width="3"/>
<text x="1156" y="626" font-family="Nunito, Avenir, Helvetica, Arial, sans-serif" font-size="26" font-weight="400" fill="#6e3a23" text-anchor="middle" >Speech Projector</text>
<g id="slot_fire_speech_projector" data-bbox="[1276,588,22,40]" data-role="asset">
  <rect x="1276" y="588" width="22" height="40" fill="#f8f8f8" stroke="#666" stroke-width="2" stroke-dasharray="6 4"/>
  <line x1="1276" y1="588" x2="1298" y2="628" stroke="#aaa" stroke-width="1"/>
  <line x1="1298" y1="588" x2="1276" y2="628" stroke="#aaa" stroke-width="1"/>
  <text x="1287.0" y="608.0" font-family="Arial, sans-serif" font-size="5.0" fill="#555" text-anchor="middle" dominant-baseline="middle">ASSET_SLOT</text>
</g>
<text x="1303" y="625" font-family="Times New Roman, serif" font-size="20" font-weight="400" fill="#9a461e" text-anchor="start" >$f_i'{}^s$</text>
<rect x="1017" y="669" width="278" height="65" rx="2" fill="#f4d5c4" stroke="#9a461e" stroke-width="3"/>
<text x="1156" y="710" font-family="Nunito, Avenir, Helvetica, Arial, sans-serif" font-size="26" font-weight="400" fill="#6e3a23" text-anchor="middle" >Speech Encoder</text>
<g id="slot_snow_speech_encoder" data-bbox="[1267,671,32,42]" data-role="asset">
  <rect x="1267" y="671" width="32" height="42" fill="#f8f8f8" stroke="#666" stroke-width="2" stroke-dasharray="6 4"/>
  <line x1="1267" y1="671" x2="1299" y2="713" stroke="#aaa" stroke-width="1"/>
  <line x1="1299" y1="671" x2="1267" y2="713" stroke="#aaa" stroke-width="1"/>
  <text x="1283.0" y="692.0" font-family="Arial, sans-serif" font-size="5.0" fill="#555" text-anchor="middle" dominant-baseline="middle">ASSET_SLOT</text>
</g>
<text x="1303" y="710" font-family="Times New Roman, serif" font-size="20" font-weight="400" fill="#9a461e" text-anchor="start" >$f_i^s$</text>
<rect x="996" y="758" width="320" height="84" rx="0" fill="none" stroke="#9a461e" stroke-width="3" stroke-dasharray="10 8"/>
<g id="slot_wave_speech_input" data-bbox="[1024,777,295,59]" data-role="asset">
  <rect x="1024" y="777" width="295" height="59" fill="#f8f8f8" stroke="#666" stroke-width="2" stroke-dasharray="6 4"/>
  <line x1="1024" y1="777" x2="1319" y2="836" stroke="#aaa" stroke-width="1"/>
  <line x1="1319" y1="777" x2="1024" y2="836" stroke="#aaa" stroke-width="1"/>
  <text x="1171.5" y="806.5" font-family="Arial, sans-serif" font-size="12.0" fill="#555" text-anchor="middle" dominant-baseline="middle">ASSET_SLOT</text>
</g>
<rect x="1340" y="601" width="162" height="68" rx="2" fill="#f0c6a8" stroke="#8a3e20" stroke-width="3"/>
<text x="1421" y="624" font-family="Nunito, Avenir, Helvetica, Arial, sans-serif" font-size="24" font-weight="400" fill="#6d3b26" text-anchor="middle" >Time</text>
<text x="1421" y="660" font-family="Nunito, Avenir, Helvetica, Arial, sans-serif" font-size="24" font-weight="400" fill="#6d3b26" text-anchor="middle" >Encoder</text>
<g id="slot_fire_time_encoder" data-bbox="[1482,605,24,62]" data-role="asset">
  <rect x="1482" y="605" width="24" height="62" fill="#f8f8f8" stroke="#666" stroke-width="2" stroke-dasharray="6 4"/>
  <line x1="1482" y1="605" x2="1506" y2="667" stroke="#aaa" stroke-width="1"/>
  <line x1="1506" y1="605" x2="1482" y2="667" stroke="#aaa" stroke-width="1"/>
  <text x="1494.0" y="636.0" font-family="Arial, sans-serif" font-size="5.0" fill="#555" text-anchor="middle" dominant-baseline="middle">ASSET_SLOT</text>
</g>
<polyline points="1410,669 1410,895" fill="none" stroke="#dca75b" stroke-width="2"/>
<polyline points="714,560 714,568 1744,568 1744,704" fill="none" stroke="#8c6fa8" stroke-width="2"/>
<text x="1702" y="548" font-family="Times New Roman, serif" font-size="22" font-weight="400" fill="#8c6fa8" text-anchor="start" >$f^q$</text>
<text x="1538" y="719" font-family="Nunito, Avenir, Helvetica, Arial, sans-serif" font-size="22" font-weight="400" fill="#8a247b" text-anchor="start" >Text Tokens</text>
<rect x="1675" y="704" width="140" height="43" rx="7" fill="#f1f1f1" stroke="none" stroke-width="0" opacity="0.86"/>
<rect x="1686" y="712" width="32" height="32" rx="5" fill="#8567a0" stroke="none" stroke-width="0"/>
<rect x="1732" y="712" width="32" height="32" rx="5" fill="#8567a0" stroke="none" stroke-width="0"/>
<rect x="1778" y="712" width="32" height="32" rx="5" fill="#8567a0" stroke="none" stroke-width="0"/>
<rect x="1630" y="786" width="228" height="63" rx="2" fill="#f4e6f4" stroke="#81216f" stroke-width="3"/>
<text x="1744" y="825" font-family="Nunito, Avenir, Helvetica, Arial, sans-serif" font-size="26" font-weight="400" fill="#81216f" text-anchor="middle" >Text Tokenizer</text>
<line x1="1744" y1="786" x2="1744" y2="747" stroke="#111" stroke-width="3" marker-end="url(#arrowBlack)"/>
<line x1="1744" y1="900" x2="1744" y2="849" stroke="#111" stroke-width="3" marker-end="url(#arrowBlack)"/>
<g id="slot_timeline_clip_0s_6s" data-bbox="[20,852,136,96]" data-role="asset">
  <rect x="20" y="852" width="136" height="96" fill="#f8f8f8" stroke="#666" stroke-width="2" stroke-dasharray="6 4"/>
  <line x1="20" y1="852" x2="156" y2="948" stroke="#aaa" stroke-width="1"/>
  <line x1="156" y1="852" x2="20" y2="948" stroke="#aaa" stroke-width="1"/>
  <text x="88.0" y="900.0" font-family="Arial, sans-serif" font-size="12.0" fill="#555" text-anchor="middle" dominant-baseline="middle">ASSET_SLOT</text>
</g>
<g id="slot_timeline_clip_50s_60s" data-bbox="[204,852,264,96]" data-role="asset">
  <rect x="204" y="852" width="264" height="96" fill="#f8f8f8" stroke="#666" stroke-width="2" stroke-dasharray="6 4"/>
  <line x1="204" y1="852" x2="468" y2="948" stroke="#aaa" stroke-width="1"/>
  <line x1="468" y1="852" x2="204" y2="948" stroke="#aaa" stroke-width="1"/>
  <text x="336.0" y="900.0" font-family="Arial, sans-serif" font-size="12.0" fill="#555" text-anchor="middle" dominant-baseline="middle">ASSET_SLOT</text>
</g>
<g id="slot_timeline_clip_97s_106s" data-bbox="[512,852,263,96]" data-role="asset">
  <rect x="512" y="852" width="263" height="96" fill="#f8f8f8" stroke="#666" stroke-width="2" stroke-dasharray="6 4"/>
  <line x1="512" y1="852" x2="775" y2="948" stroke="#aaa" stroke-width="1"/>
  <line x1="775" y1="852" x2="512" y2="948" stroke="#aaa" stroke-width="1"/>
  <text x="643.5" y="900.0" font-family="Arial, sans-serif" font-size="12.0" fill="#555" text-anchor="middle" dominant-baseline="middle">ASSET_SLOT</text>
</g>
<g id="slot_timeline_clip_256s_267s" data-bbox="[813,852,265,96]" data-role="asset">
  <rect x="813" y="852" width="265" height="96" fill="#f8f8f8" stroke="#666" stroke-width="2" stroke-dasharray="6 4"/>
  <line x1="813" y1="852" x2="1078" y2="948" stroke="#aaa" stroke-width="1"/>
  <line x1="1078" y1="852" x2="813" y2="948" stroke="#aaa" stroke-width="1"/>
  <text x="945.5" y="900.0" font-family="Arial, sans-serif" font-size="12.0" fill="#555" text-anchor="middle" dominant-baseline="middle">ASSET_SLOT</text>
</g>
<g id="slot_timeline_clip_147s_1759s" data-bbox="[1130,852,263,96]" data-role="asset">
  <rect x="1130" y="852" width="263" height="96" fill="#f8f8f8" stroke="#666" stroke-width="2" stroke-dasharray="6 4"/>
  <line x1="1130" y1="852" x2="1393" y2="948" stroke="#aaa" stroke-width="1"/>
  <line x1="1393" y1="852" x2="1130" y2="948" stroke="#aaa" stroke-width="1"/>
  <text x="1261.5" y="900.0" font-family="Arial, sans-serif" font-size="12.0" fill="#555" text-anchor="middle" dominant-baseline="middle">ASSET_SLOT</text>
</g>
<text x="184" y="925" font-family="Nunito, Avenir, Helvetica, Arial, sans-serif" font-size="27" font-weight="400" fill="#111" text-anchor="middle" >...</text>
<text x="494" y="925" font-family="Nunito, Avenir, Helvetica, Arial, sans-serif" font-size="27" font-weight="400" fill="#111" text-anchor="middle" >...</text>
<text x="786" y="925" font-family="Nunito, Avenir, Helvetica, Arial, sans-serif" font-size="27" font-weight="400" fill="#111" text-anchor="middle" >...</text>
<text x="1101" y="925" font-family="Nunito, Avenir, Helvetica, Arial, sans-serif" font-size="27" font-weight="400" fill="#111" text-anchor="middle" >...</text>
<line x1="5" y1="1010" x2="1390" y2="1010" stroke="#111" stroke-width="7"/>
<circle cx="6" cy="1010" r="8" fill="#000"/>
<circle cx="154" cy="1010" r="8" fill="#000"/>
<circle cx="193" cy="1010" r="8" fill="#000"/>
<circle cx="466" cy="1010" r="8" fill="#000"/>
<circle cx="512" cy="1010" r="8" fill="#000"/>
<circle cx="775" cy="1010" r="8" fill="#000"/>
<circle cx="815" cy="1010" r="8" fill="#000"/>
<circle cx="1078" cy="1010" r="8" fill="#000"/>
<circle cx="1124" cy="1010" r="8" fill="#000"/>
<circle cx="1390" cy="1010" r="8" fill="#000"/>
<text x="16" y="1045" font-family="Nunito, Avenir, Helvetica, Arial, sans-serif" font-size="21" font-weight="400" fill="#333" text-anchor="middle" >0s</text>
<line x1="13" y1="1025" x2="13" y2="1058" stroke="#dca75b" stroke-width="2" stroke-dasharray="8 6" opacity="0.7"/>
<text x="160" y="1045" font-family="Nunito, Avenir, Helvetica, Arial, sans-serif" font-size="21" font-weight="400" fill="#333" text-anchor="middle" >6s</text>
<line x1="157" y1="1025" x2="157" y2="1058" stroke="#dca75b" stroke-width="2" stroke-dasharray="8 6" opacity="0.7"/>
<text x="231" y="1045" font-family="Nunito, Avenir, Helvetica, Arial, sans-serif" font-size="21" font-weight="400" fill="#333" text-anchor="middle" >50s</text>
<line x1="228" y1="1025" x2="228" y2="1058" stroke="#dca75b" stroke-width="2" stroke-dasharray="8 6" opacity="0.7"/>
<text x="468" y="1045" font-family="Nunito, Avenir, Helvetica, Arial, sans-serif" font-size="21" font-weight="400" fill="#333" text-anchor="middle" >60s</text>
<line x1="465" y1="1025" x2="465" y2="1058" stroke="#dca75b" stroke-width="2" stroke-dasharray="8 6" opacity="0.7"/>
<text x="515" y="1045" font-family="Nunito, Avenir, Helvetica, Arial, sans-serif" font-size="21" font-weight="400" fill="#333" text-anchor="middle" >97s</text>
<line x1="512" y1="1025" x2="512" y2="1058" stroke="#dca75b" stroke-width="2" stroke-dasharray="8 6" opacity="0.7"/>
<text x="769" y="1045" font-family="Nunito, Avenir, Helvetica, Arial, sans-serif" font-size="21" font-weight="400" fill="#333" text-anchor="middle" >106s</text>
<line x1="766" y1="1025" x2="766" y2="1058" stroke="#dca75b" stroke-width="2" stroke-dasharray="8 6" opacity="0.7"/>
<text x="843" y="1045" font-family="Nunito, Avenir, Helvetica, Arial, sans-serif" font-size="21" font-weight="400" fill="#333" text-anchor="middle" >256s</text>
<line x1="840" y1="1025" x2="840" y2="1058" stroke="#dca75b" stroke-width="2" stroke-dasharray="8 6" opacity="0.7"/>
<text x="1068" y="1045" font-family="Nunito, Avenir, Helvetica, Arial, sans-serif" font-size="21" font-weight="400" fill="#333" text-anchor="middle" >267s</text>
<line x1="1065" y1="1025" x2="1065" y2="1058" stroke="#dca75b" stroke-width="2" stroke-dasharray="8 6" opacity="0.7"/>
<text x="1138" y="1045" font-family="Nunito, Avenir, Helvetica, Arial, sans-serif" font-size="21" font-weight="400" fill="#333" text-anchor="middle" >147s</text>
<line x1="1135" y1="1025" x2="1135" y2="1058" stroke="#dca75b" stroke-width="2" stroke-dasharray="8 6" opacity="0.7"/>
<text x="1375" y="1045" font-family="Nunito, Avenir, Helvetica, Arial, sans-serif" font-size="21" font-weight="400" fill="#333" text-anchor="middle" >1759s</text>
<line x1="1372" y1="1025" x2="1372" y2="1058" stroke="#dca75b" stroke-width="2" stroke-dasharray="8 6" opacity="0.7"/>
<line x1="0" y1="1030" x2="1438" y2="1030" stroke="#dca75b" stroke-width="2" stroke-dasharray="10 8" opacity="0.7"/>
<rect x="1430" y="895" width="550" height="163" rx="0" fill="#ffc21a" stroke="#8a6b00" stroke-width="2"/>
<text x="1445" y="926" font-family="Nunito, Avenir, Helvetica, Arial, sans-serif" font-size="23" fill="#141414">
  <tspan font-weight="700">Query:</tspan><tspan> Locate the moment where “A</tspan>
  <tspan x="1445" dy="31">man wearing a white mask is talking</tspan>
  <tspan x="1445" dy="31">about the </tspan><tspan fill="#c6511a">sponsor</tspan><tspan> under noisy</tspan>
  <tspan x="1445" dy="31">sound, which they have been trying to</tspan>
  <tspan x="1445" dy="31">over a year”, </tspan><tspan font-weight="700">return precise timestamps</tspan>
</text>
</svg>