<svg xmlns="http://www.w3.org/2000/svg" width="1613" height="756" viewBox="0 0 1613 756" font-family="'Times New Roman', Times, serif">
  <defs>
    <marker id="arrow" markerWidth="12" markerHeight="12" refX="10" refY="6" orient="auto" markerUnits="strokeWidth">
      <path d="M 0 0 L 12 6 L 0 12 z" fill="#4e78c8"/>
    </marker>
    <radialGradient id="selectorGrad" cx="48%" cy="42%" r="58%">
      <stop offset="0%" stop-color="#f5f5f5"/>
      <stop offset="45%" stop-color="#c7c7c7"/>
      <stop offset="100%" stop-color="#8d8d8d"/>
    </radialGradient>
  </defs>
  <rect x="0" y="0" width="1613" height="756" fill="#ffffff"/>
  <rect x="7" y="16" width="990" height="76" rx="10" fill="#e4f0dc"/>
  <text x="37" y="66" font-size="43">Language Model <tspan font-style="italic">f</tspan><tspan baseline-shift="sub" font-size="28">ϕ</tspan></text>
  <text x="14" y="181" font-size="39" font-style="italic">H<tspan baseline-shift="sub" font-size="27">q</tspan></text>
  <rect x="81" y="140" width="63" height="62" rx="7" ry="7" fill="#d9d9d9" stroke="#4e78c8" stroke-width="3"/>
  <rect x="224" y="140" width="63" height="62" rx="7" ry="7" fill="#d9d9d9" stroke="#4e78c8" stroke-width="3"/>
  <rect x="367" y="140" width="63" height="62" rx="7" ry="7" fill="#d9d9d9" stroke="#4e78c8" stroke-width="3"/>
  <rect x="39" y="248" width="434" height="76" rx="11" fill="#eeeeee"/>
  <text x="168" y="303" font-size="44">Tokenizer</text>
  <text x="36" y="415" font-size="42">Language Instruction <tspan font-weight="bold" font-style="italic">X</tspan><tspan baseline-shift="sub" font-size="28">q</tspan></text>
  <line x1="255" y1="383" x2="255" y2="330" stroke="#4e78c8" stroke-width="3" marker-end="url(#arrow)"/>
  <line x1="255" y1="248" x2="255" y2="204" stroke="#4e78c8" stroke-width="3" marker-end="url(#arrow)"/>
  <line x1="255" y1="139" x2="255" y2="94" stroke="#4e78c8" stroke-width="3" marker-end="url(#arrow)"/>
  <polyline points="430,171 497,171 497,287 563,287" fill="none" stroke="#4e78c8" stroke-width="3" marker-end="url(#arrow)"/>
  <text x="542" y="181" font-size="39" font-style="italic">H<tspan baseline-shift="super" font-size="25">*</tspan><tspan baseline-shift="sub" font-size="27">v</tspan></text>
  <rect x="608" y="140" width="63" height="61" rx="7" ry="7" fill="#f2c6a7" stroke="#4e78c8" stroke-width="3"/>
  <rect x="750" y="140" width="63" height="61" rx="7" ry="7" fill="#f2c6a7" stroke="#4e78c8" stroke-width="3"/>
  <rect x="891" y="140" width="63" height="61" rx="7" ry="7" fill="#f2c6a7" stroke="#4e78c8" stroke-width="3"/>
  <rect x="566" y="248" width="432" height="77" rx="11" fill="#fad1d1" stroke="#000" stroke-width="2"/>
  <text x="687" y="303" font-size="44" font-weight="bold">CDPruner</text>
  <line x1="781" y1="248" x2="781" y2="203" stroke="#4e78c8" stroke-width="3" marker-end="url(#arrow)"/>
  <line x1="781" y1="139" x2="781" y2="94" stroke="#4e78c8" stroke-width="3" marker-end="url(#arrow)"/>
  <text x="501" y="415" font-size="39" font-style="italic">H<tspan baseline-shift="sub" font-size="27">v</tspan></text>
  <rect x="565" y="371" width="63" height="62" rx="7" ry="7" fill="#f2c6a7" stroke="#4e78c8" stroke-width="3"/>
  <rect x="638" y="371" width="63" height="62" rx="7" ry="7" fill="#f2c6a7" stroke="#4e78c8" stroke-width="3"/>
  <rect x="712" y="371" width="63" height="62" rx="7" ry="7" fill="#f2c6a7" stroke="#4e78c8" stroke-width="3"/>
  <rect x="786" y="371" width="63" height="62" rx="7" ry="7" fill="#f2c6a7" stroke="#4e78c8" stroke-width="3"/>
  <rect x="860" y="371" width="63" height="62" rx="7" ry="7" fill="#f2c6a7" stroke="#4e78c8" stroke-width="3"/>
  <rect x="934" y="371" width="63" height="62" rx="7" ry="7" fill="#f2c6a7" stroke="#4e78c8" stroke-width="3"/>
  <rect x="565" y="481" width="432" height="77" rx="11" fill="#f5e7dc"/>
  <text x="681" y="534" font-size="43">Projector <tspan font-style="italic">g</tspan></text>
  <rect x="565" y="570" width="432" height="77" rx="11" fill="#e1e6f2"/>
  <text x="624" y="625" font-size="43">Vision Encoder <tspan font-style="italic">f</tspan><tspan baseline-shift="sub" font-size="28">v</tspan></text>
  <text x="643" y="741" font-size="43">Input Image <tspan font-weight="bold" font-style="italic">X</tspan><tspan baseline-shift="sub" font-size="28">v</tspan></text>
  <line x1="781" y1="712" x2="781" y2="648" stroke="#4e78c8" stroke-width="3" marker-end="url(#arrow)"/>
  <line x1="781" y1="569" x2="781" y2="559" stroke="#4e78c8" stroke-width="3" marker-end="url(#arrow)"/>
  <line x1="781" y1="480" x2="781" y2="435" stroke="#4e78c8" stroke-width="3" marker-end="url(#arrow)"/>
  <line x1="781" y1="369" x2="781" y2="326" stroke="#4e78c8" stroke-width="3" marker-end="url(#arrow)"/>
  <rect x="0" y="449" width="501" height="307" fill="none" stroke="#203a61" stroke-width="3"/>
  <rect x="27" y="495" width="43" height="44" rx="5" ry="5" fill="#f2c6a7" stroke="#4e78c8" stroke-width="3"/>
  <rect x="75" y="495" width="43" height="44" rx="5" ry="5" fill="#f2c6a7" stroke="#4e78c8" stroke-width="3"/>
  <rect x="123" y="495" width="43" height="44" rx="5" ry="5" fill="#f2c6a7" stroke="#4e78c8" stroke-width="3"/>
  <text x="202" y="529" font-size="33">Visual Tokens</text>
  <rect x="27" y="560" width="43" height="44" rx="5" ry="5" fill="#d9d9d9" stroke="#4e78c8" stroke-width="3"/>
  <rect x="75" y="560" width="43" height="44" rx="5" ry="5" fill="#d9d9d9" stroke="#4e78c8" stroke-width="3"/>
  <rect x="123" y="560" width="43" height="44" rx="5" ry="5" fill="#d9d9d9" stroke="#4e78c8" stroke-width="3"/>
  <text x="202" y="594" font-size="33">Text Tokens</text>
  <rect x="27" y="626" width="46" height="47" fill="#c95b00" stroke="#000" stroke-width="2"/>
  <rect x="73" y="626" width="46" height="47" fill="#f1ad83" stroke="#000" stroke-width="2"/>
  <rect x="119" y="626" width="46" height="47" fill="#f6d0b4" stroke="#000" stroke-width="2"/>
  <text x="202" y="660" font-size="33">Feature Similarity</text>
  <rect x="27" y="692" width="46" height="47" fill="#8b8f90" stroke="#000" stroke-width="2"/>
  <rect x="73" y="692" width="46" height="47" fill="#c9c9c9" stroke="#000" stroke-width="2"/>
  <rect x="119" y="692" width="46" height="47" fill="#dddddd" stroke="#000" stroke-width="2"/>
  <text x="202" y="726" font-size="33">Query Relevance</text>
  <path d="M1057,21 C1030,96 1006,167 991,248 C1001,391 1025,586 1057,739" fill="none" stroke="#000" stroke-width="2" stroke-dasharray="10 7"/>
  <rect x="1058" y="16" width="555" height="724" rx="21" fill="#fdeced" stroke="#000" stroke-width="2.2"/>
  <text x="1081" y="103" font-size="41" font-style="italic">S<tspan baseline-shift="super" font-size="25">*</tspan></text>
  <text x="1081" y="305" font-size="41" font-weight="bold" font-style="italic">r</text>
  <text x="1081" y="550" font-size="41" font-weight="bold" font-style="italic">L</text>
  <text x="1541" y="202" font-size="43" transform="rotate(90 1541 202)">CDPruner</text>
  <rect x="1122" y="152" width="371" height="76" rx="10" fill="#fb8288" stroke="#000" stroke-width="2"/>
  <text x="1269" y="207" font-size="43">DPP</text>
  <line x1="1307" y1="152" x2="1307" y2="122" stroke="#4e78c8" stroke-width="3" marker-end="url(#arrow)"/>
  <line x1="1307" y1="260" x2="1307" y2="229" stroke="#4e78c8" stroke-width="3" marker-end="url(#arrow)"/>
  <line x1="1307" y1="351" x2="1307" y2="324" stroke="#4e78c8" stroke-width="3" marker-end="url(#arrow)"/>

  <g id="svg_s_star_sequence" data-source-slot="slot_s_star_sequence" transform="translate(1120,58)">
  <rect x="0" y="1" width="62" height="62" fill="#f4d1bd" stroke="#000" stroke-width="2"/>
  <text x="31.0" y="35" font-size="33" text-anchor="middle" font-weight="bold" dominant-baseline="middle">1</text>
  <rect x="62" y="1" width="62" height="62" fill="#d9d9d9" stroke="#000" stroke-width="2"/>
  <text x="93.0" y="35" font-size="33" text-anchor="middle" font-weight="bold" dominant-baseline="middle">×</text>
  <rect x="124" y="1" width="62" height="62" fill="#f4d1bd" stroke="#000" stroke-width="2"/>
  <text x="155.0" y="35" font-size="33" text-anchor="middle" font-weight="bold" dominant-baseline="middle">3</text>
  <rect x="186" y="1" width="62" height="62" fill="#f4d1bd" stroke="#000" stroke-width="2"/>
  <text x="217.0" y="35" font-size="33" text-anchor="middle" font-weight="bold" dominant-baseline="middle">4</text>
  <rect x="248" y="1" width="62" height="62" fill="#d9d9d9" stroke="#000" stroke-width="2"/>
  <text x="279.0" y="35" font-size="33" text-anchor="middle" font-weight="bold" dominant-baseline="middle">×</text>
  <rect x="310" y="1" width="62" height="62" fill="#d9d9d9" stroke="#000" stroke-width="2"/>
  <text x="341.0" y="35" font-size="33" text-anchor="middle" font-weight="bold" dominant-baseline="middle">×</text>
  </g>
  <g id="svg_cdpruner_selector_icon" data-source-slot="slot_cdpruner_selector_icon" transform="translate(1533,65)">
    <circle cx="23.5" cy="23.5" r="22" fill="url(#selectorGrad)" stroke="#000" stroke-width="2"/>
    <circle cx="23.5" cy="23.5" r="14" fill="none" stroke="#a5a5a5" stroke-width="3"/>
    <circle cx="23.5" cy="23.5" r="5.2" fill="#555" stroke="#222" stroke-width="1"/>
    <circle cx="20.5" cy="17.5" r="2.2" fill="#eeeeee" opacity="0.85"/>
  </g>
  <g id="svg_query_relevance_bar" data-source-slot="slot_query_relevance_bar" transform="translate(1120,260)">
  <rect x="0" y="0" width="62" height="62" fill="#dedede" stroke="#000" stroke-width="2"/>
  <rect x="62" y="0" width="62" height="62" fill="#c8c8c8" stroke="#000" stroke-width="2"/>
  <rect x="124" y="0" width="62" height="62" fill="#4f4f4f" stroke="#000" stroke-width="2"/>
  <rect x="186" y="0" width="62" height="62" fill="#808080" stroke="#000" stroke-width="2"/>
  <rect x="248" y="0" width="62" height="62" fill="#d2d2d2" stroke="#000" stroke-width="2"/>
  <rect x="310" y="0" width="62" height="62" fill="#f3f3f3" stroke="#000" stroke-width="2"/>
  </g>
  <g id="svg_selection_marker_top" data-source-slot="slot_selection_marker_top" transform="translate(1295,329)">
    <line x1="4" y1="4" x2="21" y2="20" stroke="#1c2b3f" stroke-width="9" stroke-linecap="round"/>
    <line x1="21" y1="4" x2="4" y2="20" stroke="#1c2b3f" stroke-width="9" stroke-linecap="round"/>
    <line x1="4" y1="4" x2="21" y2="20" stroke="#4e78c8" stroke-width="5" stroke-linecap="round"/>
    <line x1="21" y1="4" x2="4" y2="20" stroke="#4e78c8" stroke-width="5" stroke-linecap="round"/>
  </g>
  <g id="svg_feature_similarity_matrix" data-source-slot="slot_feature_similarity_matrix" transform="translate(1120,351)">
  <rect x="0" y="0" width="62" height="62" fill="#8a3b00" stroke="#000" stroke-width="2"/>
  <rect x="62" y="0" width="62" height="62" fill="#f0ad82" stroke="#000" stroke-width="2"/>
  <rect x="124" y="0" width="62" height="62" fill="#f4c4a7" stroke="#000" stroke-width="2"/>
  <rect x="186" y="0" width="62" height="62" fill="#f3e4da" stroke="#000" stroke-width="2"/>
  <rect x="248" y="0" width="62" height="62" fill="#f2b48d" stroke="#000" stroke-width="2"/>
  <rect x="310" y="0" width="62" height="62" fill="#c95b00" stroke="#000" stroke-width="2"/>
  <rect x="0" y="62" width="62" height="62" fill="#f2b083" stroke="#000" stroke-width="2"/>
  <rect x="62" y="62" width="62" height="62" fill="#8a3b00" stroke="#000" stroke-width="2"/>
  <rect x="124" y="62" width="62" height="62" fill="#c95b00" stroke="#000" stroke-width="2"/>
  <rect x="186" y="62" width="62" height="62" fill="#f3c19f" stroke="#000" stroke-width="2"/>
  <rect x="248" y="62" width="62" height="62" fill="#f1ad86" stroke="#000" stroke-width="2"/>
  <rect x="310" y="62" width="62" height="62" fill="#f7d6bf" stroke="#000" stroke-width="2"/>
  <rect x="0" y="124" width="62" height="62" fill="#f2b083" stroke="#000" stroke-width="2"/>
  <rect x="62" y="124" width="62" height="62" fill="#d16400" stroke="#000" stroke-width="2"/>
  <rect x="124" y="124" width="62" height="62" fill="#8a3b00" stroke="#000" stroke-width="2"/>
  <rect x="186" y="124" width="62" height="62" fill="#f5e5d9" stroke="#000" stroke-width="2"/>
  <rect x="248" y="124" width="62" height="62" fill="#f2be9d" stroke="#000" stroke-width="2"/>
  <rect x="310" y="124" width="62" height="62" fill="#f6e7dd" stroke="#000" stroke-width="2"/>
  <rect x="0" y="186" width="62" height="62" fill="#f2e2d7" stroke="#000" stroke-width="2"/>
  <rect x="62" y="186" width="62" height="62" fill="#f3c9ad" stroke="#000" stroke-width="2"/>
  <rect x="124" y="186" width="62" height="62" fill="#f6e8df" stroke="#000" stroke-width="2"/>
  <rect x="186" y="186" width="62" height="62" fill="#8a3b00" stroke="#000" stroke-width="2"/>
  <rect x="248" y="186" width="62" height="62" fill="#d06000" stroke="#000" stroke-width="2"/>
  <rect x="310" y="186" width="62" height="62" fill="#f4c39f" stroke="#000" stroke-width="2"/>
  <rect x="0" y="248" width="62" height="62" fill="#f2b083" stroke="#000" stroke-width="2"/>
  <rect x="62" y="248" width="62" height="62" fill="#f1ad82" stroke="#000" stroke-width="2"/>
  <rect x="124" y="248" width="62" height="62" fill="#f3c3a3" stroke="#000" stroke-width="2"/>
  <rect x="186" y="248" width="62" height="62" fill="#d16000" stroke="#000" stroke-width="2"/>
  <rect x="248" y="248" width="62" height="62" fill="#8a3b00" stroke="#000" stroke-width="2"/>
  <rect x="310" y="248" width="62" height="62" fill="#f3c9ad" stroke="#000" stroke-width="2"/>
  <rect x="0" y="310" width="62" height="62" fill="#d16000" stroke="#000" stroke-width="2"/>
  <rect x="62" y="310" width="62" height="62" fill="#f2c5a5" stroke="#000" stroke-width="2"/>
  <rect x="124" y="310" width="62" height="62" fill="#f6e7dd" stroke="#000" stroke-width="2"/>
  <rect x="186" y="310" width="62" height="62" fill="#f2c19e" stroke="#000" stroke-width="2"/>
  <rect x="248" y="310" width="62" height="62" fill="#f2b58d" stroke="#000" stroke-width="2"/>
  <rect x="310" y="310" width="62" height="62" fill="#8a3b00" stroke="#000" stroke-width="2"/>
  </g>
  <g id="svg_selection_marker_right" data-source-slot="slot_selection_marker_right" transform="translate(1496,527)">
    <line x1="4" y1="4" x2="21" y2="20" stroke="#1c2b3f" stroke-width="9" stroke-linecap="round"/>
    <line x1="21" y1="4" x2="4" y2="20" stroke="#1c2b3f" stroke-width="9" stroke-linecap="round"/>
    <line x1="4" y1="4" x2="21" y2="20" stroke="#4e78c8" stroke-width="5" stroke-linecap="round"/>
    <line x1="21" y1="4" x2="4" y2="20" stroke="#4e78c8" stroke-width="5" stroke-linecap="round"/>
  </g>
  <g id="svg_query_relevance_column" data-source-slot="slot_query_relevance_column" transform="translate(1522,351)">
  <rect x="0" y="0" width="62" height="62" fill="#dedede" stroke="#000" stroke-width="2"/>
  <rect x="0" y="62" width="62" height="62" fill="#c8c8c8" stroke="#000" stroke-width="2"/>
  <rect x="0" y="124" width="62" height="62" fill="#4f4f4f" stroke="#000" stroke-width="2"/>
  <rect x="0" y="186" width="62" height="62" fill="#818181" stroke="#000" stroke-width="2"/>
  <rect x="0" y="248" width="62" height="62" fill="#d2d2d2" stroke="#000" stroke-width="2"/>
  <rect x="0" y="310" width="62" height="62" fill="#f3f3f3" stroke="#000" stroke-width="2"/>
  </g>
</svg>
