<svg xmlns="http://www.w3.org/2000/svg" width="1613" height="756" viewBox="0 0 1613 756" font-family="'Times New Roman', Times, serif">
  <defs>
    <radialGradient id="selectorGrad" cx="48%" cy="42%" r="58%">
      <stop offset="0%" stop-color="#f5f5f5"/>
      <stop offset="45%" stop-color="#c7c7c7"/>
      <stop offset="100%" stop-color="#8d8d8d"/>
    </radialGradient>
  </defs>
  <g id="svg_s_star_sequence" data-source-slot="slot_s_star_sequence" transform="translate(1120,58)">
  <rect x="0" y="1" width="62" height="62" fill="#f4d1bd" stroke="#000" stroke-width="2"/>
  <text x="31.0" y="35" font-size="33" text-anchor="middle" font-weight="bold" dominant-baseline="middle">1</text>
  <rect x="62" y="1" width="62" height="62" fill="#d9d9d9" stroke="#000" stroke-width="2"/>
  <text x="93.0" y="35" font-size="33" text-anchor="middle" font-weight="bold" dominant-baseline="middle">×</text>
  <rect x="124" y="1" width="62" height="62" fill="#f4d1bd" stroke="#000" stroke-width="2"/>
  <text x="155.0" y="35" font-size="33" text-anchor="middle" font-weight="bold" dominant-baseline="middle">3</text>
  <rect x="186" y="1" width="62" height="62" fill="#f4d1bd" stroke="#000" stroke-width="2"/>
  <text x="217.0" y="35" font-size="33" text-anchor="middle" font-weight="bold" dominant-baseline="middle">4</text>
  <rect x="248" y="1" width="62" height="62" fill="#d9d9d9" stroke="#000" stroke-width="2"/>
  <text x="279.0" y="35" font-size="33" text-anchor="middle" font-weight="bold" dominant-baseline="middle">×</text>
  <rect x="310" y="1" width="62" height="62" fill="#d9d9d9" stroke="#000" stroke-width="2"/>
  <text x="341.0" y="35" font-size="33" text-anchor="middle" font-weight="bold" dominant-baseline="middle">×</text>
  </g>
  <g id="svg_cdpruner_selector_icon" data-source-slot="slot_cdpruner_selector_icon" transform="translate(1533,65)">
    <circle cx="23.5" cy="23.5" r="22" fill="url(#selectorGrad)" stroke="#000" stroke-width="2"/>
    <circle cx="23.5" cy="23.5" r="14" fill="none" stroke="#a5a5a5" stroke-width="3"/>
    <circle cx="23.5" cy="23.5" r="5.2" fill="#555" stroke="#222" stroke-width="1"/>
    <circle cx="20.5" cy="17.5" r="2.2" fill="#eeeeee" opacity="0.85"/>
  </g>
  <g id="svg_query_relevance_bar" data-source-slot="slot_query_relevance_bar" transform="translate(1120,260)">
  <rect x="0" y="0" width="62" height="62" fill="#dedede" stroke="#000" stroke-width="2"/>
  <rect x="62" y="0" width="62" height="62" fill="#c8c8c8" stroke="#000" stroke-width="2"/>
  <rect x="124" y="0" width="62" height="62" fill="#4f4f4f" stroke="#000" stroke-width="2"/>
  <rect x="186" y="0" width="62" height="62" fill="#808080" stroke="#000" stroke-width="2"/>
  <rect x="248" y="0" width="62" height="62" fill="#d2d2d2" stroke="#000" stroke-width="2"/>
  <rect x="310" y="0" width="62" height="62" fill="#f3f3f3" stroke="#000" stroke-width="2"/>
  </g>
  <g id="svg_selection_marker_top" data-source-slot="slot_selection_marker_top" transform="translate(1295,329)">
    <line x1="4" y1="4" x2="21" y2="20" stroke="#1c2b3f" stroke-width="9" stroke-linecap="round"/>
    <line x1="21" y1="4" x2="4" y2="20" stroke="#1c2b3f" stroke-width="9" stroke-linecap="round"/>
    <line x1="4" y1="4" x2="21" y2="20" stroke="#4e78c8" stroke-width="5" stroke-linecap="round"/>
    <line x1="21" y1="4" x2="4" y2="20" stroke="#4e78c8" stroke-width="5" stroke-linecap="round"/>
  </g>
  <g id="svg_feature_similarity_matrix" data-source-slot="slot_feature_similarity_matrix" transform="translate(1120,351)">
  <rect x="0" y="0" width="62" height="62" fill="#8a3b00" stroke="#000" stroke-width="2"/>
  <rect x="62" y="0" width="62" height="62" fill="#f0ad82" stroke="#000" stroke-width="2"/>
  <rect x="124" y="0" width="62" height="62" fill="#f4c4a7" stroke="#000" stroke-width="2"/>
  <rect x="186" y="0" width="62" height="62" fill="#f3e4da" stroke="#000" stroke-width="2"/>
  <rect x="248" y="0" width="62" height="62" fill="#f2b48d" stroke="#000" stroke-width="2"/>
  <rect x="310" y="0" width="62" height="62" fill="#c95b00" stroke="#000" stroke-width="2"/>
  <rect x="0" y="62" width="62" height="62" fill="#f2b083" stroke="#000" stroke-width="2"/>
  <rect x="62" y="62" width="62" height="62" fill="#8a3b00" stroke="#000" stroke-width="2"/>
  <rect x="124" y="62" width="62" height="62" fill="#c95b00" stroke="#000" stroke-width="2"/>
  <rect x="186" y="62" width="62" height="62" fill="#f3c19f" stroke="#000" stroke-width="2"/>
  <rect x="248" y="62" width="62" height="62" fill="#f1ad86" stroke="#000" stroke-width="2"/>
  <rect x="310" y="62" width="62" height="62" fill="#f7d6bf" stroke="#000" stroke-width="2"/>
  <rect x="0" y="124" width="62" height="62" fill="#f2b083" stroke="#000" stroke-width="2"/>
  <rect x="62" y="124" width="62" height="62" fill="#d16400" stroke="#000" stroke-width="2"/>
  <rect x="124" y="124" width="62" height="62" fill="#8a3b00" stroke="#000" stroke-width="2"/>
  <rect x="186" y="124" width="62" height="62" fill="#f5e5d9" stroke="#000" stroke-width="2"/>
  <rect x="248" y="124" width="62" height="62" fill="#f2be9d" stroke="#000" stroke-width="2"/>
  <rect x="310" y="124" width="62" height="62" fill="#f6e7dd" stroke="#000" stroke-width="2"/>
  <rect x="0" y="186" width="62" height="62" fill="#f2e2d7" stroke="#000" stroke-width="2"/>
  <rect x="62" y="186" width="62" height="62" fill="#f3c9ad" stroke="#000" stroke-width="2"/>
  <rect x="124" y="186" width="62" height="62" fill="#f6e8df" stroke="#000" stroke-width="2"/>
  <rect x="186" y="186" width="62" height="62" fill="#8a3b00" stroke="#000" stroke-width="2"/>
  <rect x="248" y="186" width="62" height="62" fill="#d06000" stroke="#000" stroke-width="2"/>
  <rect x="310" y="186" width="62" height="62" fill="#f4c39f" stroke="#000" stroke-width="2"/>
  <rect x="0" y="248" width="62" height="62" fill="#f2b083" stroke="#000" stroke-width="2"/>
  <rect x="62" y="248" width="62" height="62" fill="#f1ad82" stroke="#000" stroke-width="2"/>
  <rect x="124" y="248" width="62" height="62" fill="#f3c3a3" stroke="#000" stroke-width="2"/>
  <rect x="186" y="248" width="62" height="62" fill="#d16000" stroke="#000" stroke-width="2"/>
  <rect x="248" y="248" width="62" height="62" fill="#8a3b00" stroke="#000" stroke-width="2"/>
  <rect x="310" y="248" width="62" height="62" fill="#f3c9ad" stroke="#000" stroke-width="2"/>
  <rect x="0" y="310" width="62" height="62" fill="#d16000" stroke="#000" stroke-width="2"/>
  <rect x="62" y="310" width="62" height="62" fill="#f2c5a5" stroke="#000" stroke-width="2"/>
  <rect x="124" y="310" width="62" height="62" fill="#f6e7dd" stroke="#000" stroke-width="2"/>
  <rect x="186" y="310" width="62" height="62" fill="#f2c19e" stroke="#000" stroke-width="2"/>
  <rect x="248" y="310" width="62" height="62" fill="#f2b58d" stroke="#000" stroke-width="2"/>
  <rect x="310" y="310" width="62" height="62" fill="#8a3b00" stroke="#000" stroke-width="2"/>
  </g>
  <g id="svg_selection_marker_right" data-source-slot="slot_selection_marker_right" transform="translate(1496,527)">
    <line x1="4" y1="4" x2="21" y2="20" stroke="#1c2b3f" stroke-width="9" stroke-linecap="round"/>
    <line x1="21" y1="4" x2="4" y2="20" stroke="#1c2b3f" stroke-width="9" stroke-linecap="round"/>
    <line x1="4" y1="4" x2="21" y2="20" stroke="#4e78c8" stroke-width="5" stroke-linecap="round"/>
    <line x1="21" y1="4" x2="4" y2="20" stroke="#4e78c8" stroke-width="5" stroke-linecap="round"/>
  </g>
  <g id="svg_query_relevance_column" data-source-slot="slot_query_relevance_column" transform="translate(1522,351)">
  <rect x="0" y="0" width="62" height="62" fill="#dedede" stroke="#000" stroke-width="2"/>
  <rect x="0" y="62" width="62" height="62" fill="#c8c8c8" stroke="#000" stroke-width="2"/>
  <rect x="0" y="124" width="62" height="62" fill="#4f4f4f" stroke="#000" stroke-width="2"/>
  <rect x="0" y="186" width="62" height="62" fill="#818181" stroke="#000" stroke-width="2"/>
  <rect x="0" y="248" width="62" height="62" fill="#d2d2d2" stroke="#000" stroke-width="2"/>
  <rect x="0" y="310" width="62" height="62" fill="#f3f3f3" stroke="#000" stroke-width="2"/>
  </g>
</svg>
