<svg xmlns="http://www.w3.org/2000/svg" width="1613" height="756" viewBox="0 0 1613 756" font-family="'Times New Roman', Times, serif">
  <defs>
    <marker id="arrow" markerWidth="12" markerHeight="12" refX="10" refY="6" orient="auto" markerUnits="strokeWidth">
      <path d="M 0 0 L 12 6 L 0 12 z" fill="#4e78c8"/>
    </marker>
    <radialGradient id="selectorGrad" cx="48%" cy="42%" r="58%">
      <stop offset="0%" stop-color="#f5f5f5"/>
      <stop offset="45%" stop-color="#c7c7c7"/>
      <stop offset="100%" stop-color="#8d8d8d"/>
    </radialGradient>
  </defs>
  <rect x="0" y="0" width="1613" height="756" fill="#ffffff"/>
  <rect x="7" y="16" width="990" height="76" rx="10" fill="#e4f0dc"/>
  <text x="37" y="66" font-size="43">Language Model <tspan font-style="italic">f</tspan><tspan baseline-shift="sub" font-size="28">ϕ</tspan></text>
  <text x="14" y="181" font-size="39" font-style="italic">H<tspan baseline-shift="sub" font-size="27">q</tspan></text>
  <rect x="81" y="140" width="63" height="62" rx="7" ry="7" fill="#d9d9d9" stroke="#4e78c8" stroke-width="3"/>
  <rect x="224" y="140" width="63" height="62" rx="7" ry="7" fill="#d9d9d9" stroke="#4e78c8" stroke-width="3"/>
  <rect x="367" y="140" width="63" height="62" rx="7" ry="7" fill="#d9d9d9" stroke="#4e78c8" stroke-width="3"/>
  <rect x="39" y="248" width="434" height="76" rx="11" fill="#eeeeee"/>
  <text x="168" y="303" font-size="44">Tokenizer</text>
  <text x="36" y="415" font-size="42">Language Instruction <tspan font-weight="bold" font-style="italic">X</tspan><tspan baseline-shift="sub" font-size="28">q</tspan></text>
  <line x1="255" y1="383" x2="255" y2="330" stroke="#4e78c8" stroke-width="3" marker-end="url(#arrow)"/>
  <line x1="255" y1="248" x2="255" y2="204" stroke="#4e78c8" stroke-width="3" marker-end="url(#arrow)"/>
  <line x1="255" y1="139" x2="255" y2="94" stroke="#4e78c8" stroke-width="3" marker-end="url(#arrow)"/>
  <polyline points="430,171 497,171 497,287 563,287" fill="none" stroke="#4e78c8" stroke-width="3" marker-end="url(#arrow)"/>
  <text x="542" y="181" font-size="39" font-style="italic">H<tspan baseline-shift="super" font-size="25">*</tspan><tspan baseline-shift="sub" font-size="27">v</tspan></text>
  <rect x="608" y="140" width="63" height="61" rx="7" ry="7" fill="#f2c6a7" stroke="#4e78c8" stroke-width="3"/>
  <rect x="750" y="140" width="63" height="61" rx="7" ry="7" fill="#f2c6a7" stroke="#4e78c8" stroke-width="3"/>
  <rect x="891" y="140" width="63" height="61" rx="7" ry="7" fill="#f2c6a7" stroke="#4e78c8" stroke-width="3"/>
  <rect x="566" y="248" width="432" height="77" rx="11" fill="#fad1d1" stroke="#000" stroke-width="2"/>
  <text x="687" y="303" font-size="44" font-weight="bold">CDPruner</text>
  <line x1="781" y1="248" x2="781" y2="203" stroke="#4e78c8" stroke-width="3" marker-end="url(#arrow)"/>
  <line x1="781" y1="139" x2="781" y2="94" stroke="#4e78c8" stroke-width="3" marker-end="url(#arrow)"/>
  <text x="501" y="415" font-size="39" font-style="italic">H<tspan baseline-shift="sub" font-size="27">v</tspan></text>
  <rect x="565" y="371" width="63" height="62" rx="7" ry="7" fill="#f2c6a7" stroke="#4e78c8" stroke-width="3"/>
  <rect x="638" y="371" width="63" height="62" rx="7" ry="7" fill="#f2c6a7" stroke="#4e78c8" stroke-width="3"/>
  <rect x="712" y="371" width="63" height="62" rx="7" ry="7" fill="#f2c6a7" stroke="#4e78c8" stroke-width="3"/>
  <rect x="786" y="371" width="63" height="62" rx="7" ry="7" fill="#f2c6a7" stroke="#4e78c8" stroke-width="3"/>
  <rect x="860" y="371" width="63" height="62" rx="7" ry="7" fill="#f2c6a7" stroke="#4e78c8" stroke-width="3"/>
  <rect x="934" y="371" width="63" height="62" rx="7" ry="7" fill="#f2c6a7" stroke="#4e78c8" stroke-width="3"/>
  <rect x="565" y="481" width="432" height="77" rx="11" fill="#f5e7dc"/>
  <text x="681" y="534" font-size="43">Projector <tspan font-style="italic">g</tspan></text>
  <rect x="565" y="570" width="432" height="77" rx="11" fill="#e1e6f2"/>
  <text x="624" y="625" font-size="43">Vision Encoder <tspan font-style="italic">f</tspan><tspan baseline-shift="sub" font-size="28">v</tspan></text>
  <text x="643" y="741" font-size="43">Input Image <tspan font-weight="bold" font-style="italic">X</tspan><tspan baseline-shift="sub" font-size="28">v</tspan></text>
  <line x1="781" y1="712" x2="781" y2="648" stroke="#4e78c8" stroke-width="3" marker-end="url(#arrow)"/>
  <line x1="781" y1="569" x2="781" y2="559" stroke="#4e78c8" stroke-width="3" marker-end="url(#arrow)"/>
  <line x1="781" y1="480" x2="781" y2="435" stroke="#4e78c8" stroke-width="3" marker-end="url(#arrow)"/>
  <line x1="781" y1="369" x2="781" y2="326" stroke="#4e78c8" stroke-width="3" marker-end="url(#arrow)"/>
  <rect x="0" y="449" width="501" height="307" fill="none" stroke="#203a61" stroke-width="3"/>
  <rect x="27" y="495" width="43" height="44" rx="5" ry="5" fill="#f2c6a7" stroke="#4e78c8" stroke-width="3"/>
  <rect x="75" y="495" width="43" height="44" rx="5" ry="5" fill="#f2c6a7" stroke="#4e78c8" stroke-width="3"/>
  <rect x="123" y="495" width="43" height="44" rx="5" ry="5" fill="#f2c6a7" stroke="#4e78c8" stroke-width="3"/>
  <text x="202" y="529" font-size="33">Visual Tokens</text>
  <rect x="27" y="560" width="43" height="44" rx="5" ry="5" fill="#d9d9d9" stroke="#4e78c8" stroke-width="3"/>
  <rect x="75" y="560" width="43" height="44" rx="5" ry="5" fill="#d9d9d9" stroke="#4e78c8" stroke-width="3"/>
  <rect x="123" y="560" width="43" height="44" rx="5" ry="5" fill="#d9d9d9" stroke="#4e78c8" stroke-width="3"/>
  <text x="202" y="594" font-size="33">Text Tokens</text>
  <rect x="27" y="626" width="46" height="47" fill="#c95b00" stroke="#000" stroke-width="2"/>
  <rect x="73" y="626" width="46" height="47" fill="#f1ad83" stroke="#000" stroke-width="2"/>
  <rect x="119" y="626" width="46" height="47" fill="#f6d0b4" stroke="#000" stroke-width="2"/>
  <text x="202" y="660" font-size="33">Feature Similarity</text>
  <rect x="27" y="692" width="46" height="47" fill="#8b8f90" stroke="#000" stroke-width="2"/>
  <rect x="73" y="692" width="46" height="47" fill="#c9c9c9" stroke="#000" stroke-width="2"/>
  <rect x="119" y="692" width="46" height="47" fill="#dddddd" stroke="#000" stroke-width="2"/>
  <text x="202" y="726" font-size="33">Query Relevance</text>
  <path d="M1057,21 C1030,96 1006,167 991,248 C1001,391 1025,586 1057,739" fill="none" stroke="#000" stroke-width="2" stroke-dasharray="10 7"/>
  <rect x="1058" y="16" width="555" height="724" rx="21" fill="#fdeced" stroke="#000" stroke-width="2.2"/>
  <text x="1081" y="103" font-size="41" font-style="italic">S<tspan baseline-shift="super" font-size="25">*</tspan></text>
  <text x="1081" y="305" font-size="41" font-weight="bold" font-style="italic">r</text>
  <text x="1081" y="550" font-size="41" font-weight="bold" font-style="italic">L</text>
  <text x="1541" y="202" font-size="43" transform="rotate(90 1541 202)">CDPruner</text>
  <rect x="1122" y="152" width="371" height="76" rx="10" fill="#fb8288" stroke="#000" stroke-width="2"/>
  <text x="1269" y="207" font-size="43">DPP</text>
  <line x1="1307" y1="152" x2="1307" y2="122" stroke="#4e78c8" stroke-width="3" marker-end="url(#arrow)"/>
  <line x1="1307" y1="260" x2="1307" y2="229" stroke="#4e78c8" stroke-width="3" marker-end="url(#arrow)"/>
  <line x1="1307" y1="351" x2="1307" y2="324" stroke="#4e78c8" stroke-width="3" marker-end="url(#arrow)"/>

  <g id="slot_s_star_sequence" data-bbox="[1120,58,374,64]" data-role="asset">
    <rect x="1120" y="58" width="374" height="64" fill="#f8f8f8" stroke="#666" stroke-width="2" stroke-dasharray="6 4"/>
    <line x1="1120" y1="58" x2="1494" y2="122" stroke="#aaa" stroke-width="1.5"/>
    <line x1="1494" y1="58" x2="1120" y2="122" stroke="#aaa" stroke-width="1.5"/>
    <text x="1307.0" y="90.0" font-size="15" text-anchor="middle" dominant-baseline="middle" fill="#555">ASSET_SLOT</text>
  </g>

  <g id="slot_cdpruner_selector_icon" data-bbox="[1533,65,47,47]" data-role="asset">
    <rect x="1533" y="65" width="47" height="47" fill="#f8f8f8" stroke="#666" stroke-width="2" stroke-dasharray="6 4"/>
    <line x1="1533" y1="65" x2="1580" y2="112" stroke="#aaa" stroke-width="1.5"/>
    <line x1="1580" y1="65" x2="1533" y2="112" stroke="#aaa" stroke-width="1.5"/>
    <text x="1556.5" y="88.5" font-size="15" text-anchor="middle" dominant-baseline="middle" fill="#555">ASSET_SLOT</text>
  </g>

  <g id="slot_query_relevance_bar" data-bbox="[1120,260,374,63]" data-role="asset">
    <rect x="1120" y="260" width="374" height="63" fill="#f8f8f8" stroke="#666" stroke-width="2" stroke-dasharray="6 4"/>
    <line x1="1120" y1="260" x2="1494" y2="323" stroke="#aaa" stroke-width="1.5"/>
    <line x1="1494" y1="260" x2="1120" y2="323" stroke="#aaa" stroke-width="1.5"/>
    <text x="1307.0" y="291.5" font-size="15" text-anchor="middle" dominant-baseline="middle" fill="#555">ASSET_SLOT</text>
  </g>

  <g id="slot_selection_marker_top" data-bbox="[1295,329,25,24]" data-role="asset">
    <rect x="1295" y="329" width="25" height="24" fill="#f8f8f8" stroke="#666" stroke-width="2" stroke-dasharray="6 4"/>
    <line x1="1295" y1="329" x2="1320" y2="353" stroke="#aaa" stroke-width="1.5"/>
    <line x1="1320" y1="329" x2="1295" y2="353" stroke="#aaa" stroke-width="1.5"/>
    <text x="1307.5" y="341.0" font-size="15" text-anchor="middle" dominant-baseline="middle" fill="#555">ASSET_SLOT</text>
  </g>

  <g id="slot_feature_similarity_matrix" data-bbox="[1120,351,374,374]" data-role="asset">
    <rect x="1120" y="351" width="374" height="374" fill="#f8f8f8" stroke="#666" stroke-width="2" stroke-dasharray="6 4"/>
    <line x1="1120" y1="351" x2="1494" y2="725" stroke="#aaa" stroke-width="1.5"/>
    <line x1="1494" y1="351" x2="1120" y2="725" stroke="#aaa" stroke-width="1.5"/>
    <text x="1307.0" y="538.0" font-size="15" text-anchor="middle" dominant-baseline="middle" fill="#555">ASSET_SLOT</text>
  </g>

  <g id="slot_selection_marker_right" data-bbox="[1496,527,25,24]" data-role="asset">
    <rect x="1496" y="527" width="25" height="24" fill="#f8f8f8" stroke="#666" stroke-width="2" stroke-dasharray="6 4"/>
    <line x1="1496" y1="527" x2="1521" y2="551" stroke="#aaa" stroke-width="1.5"/>
    <line x1="1521" y1="527" x2="1496" y2="551" stroke="#aaa" stroke-width="1.5"/>
    <text x="1508.5" y="539.0" font-size="15" text-anchor="middle" dominant-baseline="middle" fill="#555">ASSET_SLOT</text>
  </g>

  <g id="slot_query_relevance_column" data-bbox="[1522,351,64,374]" data-role="asset">
    <rect x="1522" y="351" width="64" height="374" fill="#f8f8f8" stroke="#666" stroke-width="2" stroke-dasharray="6 4"/>
    <line x1="1522" y1="351" x2="1586" y2="725" stroke="#aaa" stroke-width="1.5"/>
    <line x1="1586" y1="351" x2="1522" y2="725" stroke="#aaa" stroke-width="1.5"/>
    <text x="1554.0" y="538.0" font-size="15" text-anchor="middle" dominant-baseline="middle" fill="#555">ASSET_SLOT</text>
  </g>
</svg>
