<svg xmlns="http://www.w3.org/2000/svg" viewBox="0 0 1600 950" style="background-color: white;">
  <defs>
    <!-- Arrowhead Marker -->
    <marker id="arrowhead" markerWidth="10" markerHeight="7" refX="9" refY="3.5" orient="auto">
      <polygon points="0 0, 10 3.5, 0 7" fill="#555555" />
    </marker>
    <!-- Font Styles -->
    <style>
      text { font-family: 'Times New Roman', serif; }
      .title { font-size: 48px; font-weight: bold; fill: black; }
      .label { font-size: 36px; fill: black; }
      .sub-label { font-size: 32px; fill: black; }
      .box-text { font-size: 36px; fill: black; }
      .small-text { font-size: 32px; fill: black; }
      .math { font-family: 'Times New Roman', serif; font-style: italic; }
    </style>
  </defs>

  <!-- ================= SECTION (a) ================= -->
  
  <!-- 1. Input Container -->
  <rect x="20" y="20" width="400" height="400" rx="30" fill="#F5F5F5" stroke="#999999" stroke-width="3" />
  
  <!-- Trajectory Graphics -->
  <g transform="translate(50, 50)">
    <!-- Scaling -->
    <path d="M0,150 Q50,100 100,50 T200,0" fill="none" stroke="#88CCEE" stroke-width="4" />
    <path d="M0,150 Q50,100 100,50 T200,0" fill="none" stroke="#E08080" stroke-width="4" />
    <path d="M0,150 Q50,100 100,50 T200,0" fill="none" stroke="#C0A0C0" stroke-width="4" />
    <circle cx="0" cy="150" r="12" fill="#88CCEE" />
    <circle cx="100" cy="50" r="12" fill="#88CCEE" />
    <circle cx="200" cy="0" r="12" fill="#88CCEE" />
    <circle cx="0" cy="150" r="12" fill="#E08080" />
    <circle cx="100" cy="50" r="12" fill="#E08080" />
    <circle cx="200" cy="0" r="12" fill="#E08080" />
    <circle cx="0" cy="150" r="12" fill="#C0A0C0" />
    <circle cx="100" cy="50" r="12" fill="#C0A0C0" />
    <circle cx="200" cy="0" r="12" fill="#C0A0C0" />
    
    <!-- Rotation -->
    <path d="M50,100 Q100,150 150,100" fill="none" stroke="#88CCEE" stroke-width="4" />
    <path d="M50,100 Q100,150 150,100" fill="none" stroke="#E08080" stroke-width="4" />
    <path d="M50,100 Q100,150 150,100" fill="none" stroke="#C0A0C0" stroke-width="4" />
    <circle cx="50" cy="100" r="12" fill="#88CCEE" />
    <circle cx="100" cy="150" r="12" fill="#88CCEE" />
    <circle cx="150" cy="100" r="12" fill="#88CCEE" />
    <circle cx="50" cy="100" r="12" fill="#E08080" />
    <circle cx="100" cy="150" r="12" fill="#E08080" />
    <circle cx="150" cy="100" r="12" fill="#E08080" />
    <circle cx="50" cy="100" r="12" fill="#C0A0C0" />
    <circle cx="100" cy="150" r="12" fill="#C0A0C0" />
    <circle cx="150" cy="100" r="12" fill="#C0A0C0" />
    
    <!-- Translation -->
    <path d="M100,150 Q150,100 200,50" fill="none" stroke="#88CCEE" stroke-width="4" />
    <path d="M100,150 Q150,100 200,50" fill="none" stroke="#E08080" stroke-width="4" />
    <path d="M100,150 Q150,100 200,50" fill="none" stroke="#C0A0C0" stroke-width="4" />
    <circle cx="100" cy="150" r="12" fill="#88CCEE" />
    <circle cx="150" cy="100" r="12" fill="#88CCEE" />
    <circle cx="200" cy="50" r="12" fill="#88CCEE" />
    <circle cx="100" cy="150" r="12" fill="#E08080" />
    <circle cx="150" cy="100" r="12" fill="#E08080" />
    <circle cx="200" cy="50" r="12" fill="#E08080" />
    <circle cx="100" cy="150" r="12" fill="#C0A0C0" />
    <circle cx="150" cy="100" r="12" fill="#C0A0C0" />
    <circle cx="200" cy="50" r="12" fill="#C0A0C0" />
    
    <!-- Arrows -->
    <line x1="0" y1="150" x2="150" y2="0" stroke="black" stroke-width="3" marker-end="url(#arrowhead)" />
    <line x1="100" y1="50" x2="200" y2="0" stroke="#E08080" stroke-width="3" marker-end="url(#arrowhead)" />
    <path d="M100,150 A 50 50 0 0 1 150,100" fill="none" stroke="black" stroke-width="3" marker-end="url(#arrowhead)" />
    <path d="M100,150 A 50 50 0 0 1 150,100" fill="none" stroke="#88CCEE" stroke-width="3" marker-end="url(#arrowhead)" />
    <path d="M100,150 A 50 50 0 0 1 150,100" fill="none" stroke="#C0A0C0" stroke-width="3" marker-end="url(#arrowhead)" />
    
    <!-- Text -->
    <text x="100" y="120" text-anchor="middle" font-size="40">Trajectory</text>
    <text x="100" y="160" text-anchor="middle" font-size="40">Scaling</text>
    <text x="100" y="280" text-anchor="middle" font-size="40">Rotation</text>
    <text x="250" y="280" text-anchor="middle" font-size="40">Translation</text>
  </g>
  
  <text x="220" y="420" text-anchor="middle" font-size="48" fill="black">Augmented Trajectories</text>

  <!-- Arrow to Feature Extraction -->
  <line x1="420" y1="240" x2="450" y2="240" stroke="#555555" stroke-width="8" marker-end="url(#arrowhead)" />

  <!-- 2. Feature Extraction Module -->
  <rect x="450" y="20" width="260" height="400" rx="30" fill="#D5E8D4" stroke="#82B366" stroke-width="3" />
  <text x="580" y="65" text-anchor="middle" class="title">Feature Extraction</text>
  <text x="580" y="100" text-anchor="middle" class="title">module</text>
  
  <rect x="460" y="115" width="240" height="280" rx="30" fill="#E2F0D9" stroke="#82B366" stroke-width="3" />
  <text x="580" y="160" text-anchor="middle" class="box-text">Trajectory Feature</text>
  <text x="580" y="190" text-anchor="middle" class="box-text">Extraction</text>
  
  <rect x="480" y="205" width="200" height="80" rx="20" fill="#F0F8F0" stroke="#666666" stroke-width="3" />
  <text x="580" y="245" text-anchor="middle" class="box-text">Motion Velocity</text>
  
  <rect x="480" y="265" width="200" height="80" rx="20" fill="#F0F8F0" stroke="#666666" stroke-width="3" />
  <text x="580" y="305" text-anchor="middle" class="box-text">Spatial Density</text>
  
  <rect x="480" y="325" width="200" height="80" rx="20" fill="#F0F8F0" stroke="#666666" stroke-width="3" />
  <text x="580" y="365" text-anchor="middle" class="box-text">Interaction</text>
  <text x="580" y="395" text-anchor="middle" class="box-text">Patterns</text>

  <!-- Arrow to Context Encoder -->
  <line x1="710" y1="240" x2="740" y2="240" stroke="#555555" stroke-width="8" marker-end="url(#arrowhead)" />

  <!-- 3. Context Encoder -->
  <rect x="750" y="115" width="180" height="250" rx="30" fill="#E1D5E7" stroke="#9673A6" stroke-width="3" />
  <text x="840" y="160" text-anchor="middle" class="title">Context</text>
  <text x="840" y="190" text-anchor="middle" class="title">Encoder</text>
  
  <rect x="780" y="210" width="120" height="120" fill="white" stroke="black" stroke-width="2" />
  <g transform="translate(780, 210)">
    <!-- Grid Simulation -->
    <rect x="0" y="0" width="10" height="10" fill="#88CCEE" />
    <rect x="10" y="0" width="10" height="10" fill="#E08080" />
    <rect x="20" y="0" width="10" height="10" fill="#C0A0C0" />
    <rect x="30" y="0" width="10" height="10" fill="#88CCEE" />
    <rect x="40" y="0" width="10" height="10" fill="#E08080" />
    <rect x="50" y="0" width="10" height="10" fill="#C0A0C0" />
    <rect x="60" y="0" width="10" height="10" fill="#88CCEE" />
    <rect x="70" y="0" width="10" height="10" fill="#E08080" />
    <rect x="80" y="0" width="10" height="10" fill="#C0A0C0" />
    <rect x="90" y="0" width="10" height="10" fill="#88CCEE" />
    
    <rect x="0" y="10" width="10" height="10" fill="#E08080" />
    <rect x="10" y="10" width="10" height="10" fill="#C0A0C0" />
    <rect x="20" y="10" width="10" height="10" fill="#88CCEE" />
    <rect x="30" y="10" width="10" height="10" fill="#E08080" />
    <rect x="40" y="10" width="10" height="10" fill="#C0A0C0" />
    <rect x="50" y="10" width="10" height="10" fill="#88CCEE" />
    <rect x="60" y="10" width="10" height="10" fill="#E08080" />
    <rect x="70" y="10" width="10" height="10" fill="#C0A0C0" />
    <rect x="80" y="10" width="10" height="10" fill="#88CCEE" />
    <rect x="90" y="10" width="10" height="10" fill="#E08080" />
    
    <rect x="0" y="20" width="10" height="10" fill="#C0A0C0" />
    <rect x="10" y="20" width="10" height="10" fill="#88CCEE" />
    <rect x="20" y="20" width="10" height="10" fill="#E08080" />
    <rect x="30" y="20" width="10" height="10" fill="#C0A0C0" />
    <rect x="40" y="20" width="10" height="10" fill="#88CCEE" />
    <rect x="50" y="20" width="10" height="10" fill="#E08080" />
    <rect x="60" y="20" width="10" height="10" fill="#C0A0C0" />
    <rect x="70" y="20" width="10" height="10" fill="#88CCEE" />
    <rect x="80" y="20" width="10" height="10" fill="#E08080" />
    <rect x="90" y="20" width="10" height="10" fill="#C0A0C0" />
    
    <rect x="0" y="30" width="10" height="10" fill="#88CCEE" />
    <rect x="10" y="30" width="10" height="10" fill="#E08080" />
    <rect x="20" y="30" width="10" height="10" fill="#C0A0C0" />
    <rect x="30" y="30" width="10" height="10" fill="#88CCEE" />
    <rect x="40" y="30" width="10" height="10" fill="#E08080" />
    <rect x="50" y="30" width="10" height="10" fill="#C0A0C0" />
    <rect x="60" y="30" width="10" height="10" fill="#88CCEE" />
    <rect x="70" y="30" width="10" height="10" fill="#E08080" />
    <rect x="80" y="30" width="10" height="10" fill="#C0A0C0" />
    <rect x="90" y="30" width="10" height="10" fill="#88CCEE" />
    
    <rect x="0" y="40" width="10" height="10" fill="#E08080" />
    <rect x="10" y="40" width="10" height="10" fill="#C0A0C0" />
    <rect x="20" y="40" width="10" height="10" fill="#88CCEE" />
    <rect x="30" y="40" width="10" height="10" fill="#E08080" />
    <rect x="40" y="40" width="10" height="10" fill="#C0A0C0" />
    <rect x="50" y="40" width="10" height="10" fill="#88CCEE" />
    <rect x="60" y="40" width="10" height="10" fill="#E08080" />
    <rect x="70" y="40" width="10" height="10" fill="#C0A0C0" />
    <rect x="80" y="40" width="10" height="10" fill="#88CCEE" />
    <rect x="90" y="40" width="10" height="10" fill="#E08080" />
    
    <rect x="0" y="50" width="10" height="10" fill="#C0A0C0" />
    <rect x="10" y="50" width="10" height="10" fill="#88CCEE" />
    <rect x="20" y="50" width="10" height="10" fill="#E08080" />
    <rect x="30" y="50" width="10" height="10" fill="#C0A0C0" />
    <rect x="40" y="50" width="10" height="10" fill="#88CCEE" />
    <rect x="50" y="50" width="10" height="10" fill="#E08080" />
    <rect x="60" y="50" width="10" height="10" fill="#C0A0C0" />
    <rect x="70" y="50" width="10" height="10" fill="#88CCEE" />
    <rect x="80" y="50" width="10" height="10" fill="#E08080" />
    <rect x="90" y="50" width="10" height="10" fill="#C0A0C0" />
    
    <rect x="0" y="60" width="10" height="10" fill="#88CCEE" />
    <rect x="10" y="60" width="10" height="10" fill="#E08080" />
    <rect x="20" y="60" width="10" height="10" fill="#C0A0C0" />
    <rect x="30" y="60" width="10" height="10" fill="#88CCEE" />
    <rect x="40" y="60" width="10" height="10" fill="#E08080" />
    <rect x="50" y="60" width="10" height="10" fill="#C0A0C0" />
    <rect x="60" y="60" width="10" height="10" fill="#88CCEE" />
    <rect x="70" y="60" width="10" height="10" fill="#E08080" />
    <rect x="80" y="60" width="10" height="10" fill="#C0A0C0" />
    <rect x="90" y="60" width="10" height="10" fill="#88CCEE" />
  </g>

  <!-- Arrow to SceneSelect -->
  <line x1="930" y1="240" x2="960" y2="240" stroke="#555555" stroke-width="8" marker-end="url(#arrowhead)" />

  <!-- 4. SceneSelect Classifier -->
  <rect x="970" y="115" width="200" height="250" rx="30" fill="#CFE2F3" stroke="#6FA8DC" stroke-width="3" />
  <text x="1070" y="160" text-anchor="middle" class="title">SceneSelect</text>
  <text x="1070" y="190" text-anchor="middle" class="title">Classifier</text>
  
  <rect x="1010" y="215" width="130" height="130" fill="#7F7F7F" stroke="black" stroke-width="2" />
  <text x="1075" y="270" text-anchor="middle" fill="white" font-size="40">&lt;AF&gt;04</text>

  <!-- Scheduling Policy -->
  <rect x="970" y="365" width="240" height="130" rx="30" fill="#FFF2CC" stroke="#D6B656" stroke-width="3" />
  <text x="1090" y="415" text-anchor="middle" class="title">Scheduling</text>
  <text x="1090" y="445" text-anchor="middle" class="title">Policy</text>
  <g transform="translate(1120, 380)">
    <rect x="0" y="0" width="80" height="80" fill="none" stroke="black" stroke-width="3" />
    <line x1="20" y1="0" x2="20" y2="80" stroke="black" stroke-width="2" />
    <line x1="40" y1="0" x2="40" y2="80" stroke="black" stroke-width="2" />
    <line x1="60" y1="0" x2="60" y2="80" stroke="black" stroke-width="2" />
    <line x1="0" y1="20" x2="80" y2="20" stroke="black" stroke-width="2" />
    <line x1="0" y1="40" x2="80" y2="40" stroke="black" stroke-width="2" />
    <line x1="0" y1="60" x2="80" y2="60" stroke="black" stroke-width="2" />
  </g>

  <!-- Arrow to Pool -->
  <line x1="1170" y1="240" x2="1200" y2="240" stroke="#555555" stroke-width="8" marker-end="url(#arrowhead)" />

  <!-- 5. Scene-Model Pool -->
  <rect x="1200" y="20" width="280" height="400" rx="30" fill="#FFE4C4" stroke="#D2691E" stroke-width="3" />
  <text x="1440" y="65" text-anchor="middle" class="title">Scene-Model Pool</text>
  
  <g transform="translate(1300, 100)">
    <rect x="0" y="0" width="100" height="100" fill="#7F7F7F" stroke="black" stroke-width="2" />
    <text x="50" y="55" text-anchor="middle" fill="white" font-size="32">&lt;AF&gt;02</text>
    <text x="50" y="130" text-anchor="middle" class="title">Expert 1</text>
  </g>
  
  <g transform="translate(1300, 210)">
    <rect x="0" y="0" width="100" height="100" fill="#7F7F7F" stroke="black" stroke-width="2" />
    <text x="50" y="55" text-anchor="middle" fill="white" font-size="32">&lt;AF&gt;03</text>
    <text x="50" y="130" text-anchor="middle" class="title">Expert 2</text>
  </g>
  
  <g transform="translate(1300, 320)">
    <rect x="0" y="0" width="100" height="100" fill="#7F7F7F" stroke="black" stroke-width="2" />
    <text x="50" y="55" text-anchor="middle" fill="white" font-size="32">&lt;AF&gt;01</text>
    <text x="50" y="130" text-anchor="middle" class="title">Expert 3</text>
  </g>

  <!-- Output Arrow -->
  <line x1="1480" y1="240" x2="1520" y2="240" stroke="#555555" stroke-width="8" marker-end="url(#arrowhead)" />
  <path d="M1580,240 Q1600,200 1620,220" fill="none" stroke="black" stroke-width="3" stroke-dasharray="10,5" marker-end="url(#arrowhead)" />
  <text x="1500" y="300" text-anchor="middle" class="title">Predicted</text>
  <text x="1500" y="330" text-anchor="middle" class="title">Trajectory</text>

  <!-- ================= DIVIDER ================= -->
  <line x1="10" y1="480" x2="1600" y2="480" stroke="black" stroke-width="5" stroke-dasharray="20,20" />

  <!-- ================= SECTION (b) ================= -->
  
  <!-- Label (a) -->
  <text x="20" y="550" class="title">(a)</text>
  <!-- Label (b) -->
  <text x="900" y="550" class="title">(b)</text>

  <!-- 1. Scene Context Encoder -->
  <rect x="15" y="560" width="850" height="350" rx="30" fill="#EAD1EE" stroke="#9673A6" stroke-width="3" />
  <text x="440" y="610" text-anchor="middle" class="title">Scene Context Encoder</text>

  <!-- Raw Features -->
  <g transform="translate(40, 650)">
    <text x="80" y="40" text-anchor="middle" class="title">Raw</text>
    <text x="80" y="80" text-anchor="middle" class="title">Features</text>
    <rect x="0" y="100" width="130" height="40" fill="#88CCEE" stroke="black" stroke-width="2" />
    <rect x="0" y="150" width="130" height="40" fill="#E08080" stroke="black" stroke-width="2" />
    <rect x="0" y="200" width="130" height="40" fill="#D4AF37" stroke="black" stroke-width="2" />
    <text x="80" y="300" text-anchor="middle" class="title">Extracted &amp;</text>
    <text x="80" y="330" text-anchor="middle" class="title">kinematic</text>
    <text x="80" y="360" text-anchor="middle" class="title">feature vectors</text>
  </g>

  <!-- Arrow 1 -->
  <line x1="150" y1="790" x2="180" y2="790" stroke="#555555" stroke-width="8" marker-end="url(#arrowhead)" />

  <!-- Random Projection -->
  <rect x="180" y="630" width="180" height="260" rx="30" fill="#EAD1EE" stroke="#9673A6" stroke-width="3" />
  <text x="270" y="680" text-anchor="middle" class="title">Random</text>
  <text x="270" y="720" text-anchor="middle" class="title">Projection</text>
  
  <g transform="translate(190, 750)">
    <rect x="0" y="0" width="80" height="80" fill="none" stroke="black" stroke-width="2" />
    <line x1="20" y1="0" x2="20" y2="80" stroke="black" stroke-width="1" />
    <line x1="40" y1="0" x2="40" y2="80" stroke="black" stroke-width="1" />
    <line x1="60" y1="0" x2="60" y2="80" stroke="black" stroke-width="1" />
    <line x1="0" y1="20" x2="80" y2="20" stroke="black" stroke-width="1" />
    <line x1="0" y1="40" x2="80" y2="40" stroke="black" stroke-width="1" />
    <line x1="0" y1="60" x2="80" y2="60" stroke="black" stroke-width="1" />
    <rect x="0" y="0" width="20" height="20" fill="#88CCEE" />
    <rect x="20" y="0" width="20" height="20" fill="#E08080" />
    <rect x="40" y="0" width="20" height="20" fill="#C0A0C0" />
    <rect x="60" y="0" width="20" height="20" fill="#88CCEE" />
    <rect x="0" y="20" width="20" height="20" fill="#E08080" />
    <rect x="20" y="20" width="20" height="20" fill="#C0A0C0" />
    <rect x="40" y="20" width="20" height="20" fill="#88CCEE" />
    <rect x="60" y="20" width="20" height="20" fill="#E08080" />
    <rect x="0" y="40" width="20" height="20" fill="#C0A0C0" />
    <rect x="20" y="40" width="20" height="20" fill="#88CCEE" />
    <rect x="40" y="40" width="20" height="20" fill="#E08080" />
    <rect x="60" y="40" width="20" height="20" fill="#C0A0C0" />
    <rect x="0" y="60" width="20" height="20" fill="#88CCEE" />
    <rect x="20" y="60" width="20" height="20" fill="#E08080" />
    <rect x="40" y="60" width="20" height="20" fill="#C0A0C0" />
    <rect x="60" y="60" width="20" height="20" fill="#88CCEE" />
  </g>
  
  <text x="270" y="810" text-anchor="middle" class="title">Random</text>
  <text x="270" y="840" text-anchor="middle" class="title">matrix</text>
  
  <text x="270" y="880" text-anchor="middle" class="title">x</text>
  
  <g transform="translate(270, 750)">
    <rect x="0" y="0" width="80" height="80" fill="none" stroke="black" stroke-width="2" />
    <line x1="20" y1="0" x2="20" y2="80" stroke="black" stroke-width="1" />
    <line x1="40" y1="0" x2="40" y2="80" stroke="black" stroke-width="1" />
    <line x1="60" y1="0" x2="60" y2="80" stroke="black" stroke-width="1" />
    <line x1="0" y1="20" x2="80" y2="20" stroke="black" stroke-width="1" />
    <line x1="0" y1="40" x2="80" y2="40" stroke="black" stroke-width="1" />
    <line x1="0" y1="60" x2="80" y2="60" stroke="black" stroke-width="1" />
    <rect x="0" y="0" width="20" height="20" fill="#D4AF37" />
    <rect x="20" y="0" width="20" height="20" fill="#E08080" />
    <rect x="40" y="0" width="20" height="20" fill="#C0A0C0" />
    <rect x="60" y="0" width="20" height="20" fill="#88CCEE" />
    <rect x="0" y="20" width="20" height="20" fill="#E08080" />
    <rect x="20" y="20" width="20" height="20" fill="#C0A0C0" />
    <rect x="40" y="20" width="20" height="20" fill="#88CCEE" />
    <rect x="60" y="20" width="20" height="20" fill="#E08080" />
    <rect x="0" y="40" width="20" height="20" fill="#C0A0C0" />
    <rect x="20" y="40" width="20" height="20" fill="#88CCEE" />
    <rect x="40" y="40" width="20" height="20" fill="#E08080" />
    <rect x="60" y="40" width="20" height="20" fill="#C0A0C0" />
    <rect x="0" y="60" width="20" height="20" fill="#88CCEE" />
    <rect x="20" y="60" width="20" height="20" fill="#E08080" />
    <rect x="40" y="60" width="20" height="20" fill="#C0A0C0" />
    <rect x="60" y="60" width="20" height="20" fill="#88CCEE" />
  </g>

  <!-- Arrow 2 -->
  <line x1="340" y1="790" x2="370" y2="790" stroke="#555555" stroke-width="8" marker-end="url(#arrowhead)" />

  <!-- Sparsification -->
  <g transform="translate(380, 650)">
    <text x="100" y="60" text-anchor="middle" class="title">Sparsification</text>
    <rect x="0" y="100" width="120" height="160" fill="none" stroke="black" stroke-width="3" />
    <line x1="20" y1="100" x2="20" y2="260" stroke="black" stroke-width="2" />
    <line x1="40" y1="100" x2="40" y2="260" stroke="black" stroke-width="2" />
    <line x1="60" y1="100" x2="60" y2="260" stroke="black" stroke-width="2" />
    <line x1="80" y1="100" x2="80" y2="260" stroke="black" stroke-width="2" />
    <line x1="100" y1="100" x2="100" y2="260" stroke="black" stroke-width="2" />
    <line x1="0" y1="120" x2="120" y2="120" stroke="black" stroke-width="2" />
    <line x1="0" y1="140" x2="120" y2="140" stroke="black" stroke-width="2" />
    <line x1="0" y1="160" x2="120" y2="160" stroke="black" stroke-width="2" />
    <rect x="0" y="100" width="20" height="20" fill="#88CCEE" />
    <rect x="20" y="100" width="20" height="20" fill="white" />
    <rect x="40" y="100" width="20" height="20" fill="white" />
    <rect x="60" y="100" width="20" height="20" fill="white" />
    <rect x="80" y="100" width="20" height="20" fill="white" />
    <rect x="100" y="100" width="20" height="20" fill="white" />
    <rect x="0" y="120" width="20" height="20" fill="white" />
    <rect x="20" y="120" width="20" height="20" fill="white" />
    <rect x="40" y="120" width="20" height="20" fill="white" />
    <rect x="60" y="120" width="20" height="20" fill="white" />
    <rect x="80" y="120" width="20" height="20" fill="white" />
    <rect x="100" y="120" width="20" height="20" fill="white" />
    <rect x="0" y="140" width="20" height="20" fill="white" />
    <rect x="20" y="140" width="20" height="20" fill="white" />
    <rect x="40" y="140" width="20" height="20" fill="white" />
    <rect x="60" y="140" width="20" height="20" fill="white" />
    <rect x="80" y="140" width="20" height="20" fill="white" />
    <rect x="100" y="140" width="20" height="20" fill="white" />
    <rect x="0" y="160" width="20" height="20" fill="white" />
    <rect x="20" y="160" width="20" height="20" fill="white" />
    <rect x="40" y="160" width="20" height="20" fill="white" />
    <rect x="60" y="160" width="20" height="20" fill="white" />
    <rect x="80" y="160" width="20" height="20" fill="white" />
    <rect x="100" y="160" width="20" height="20" fill="white" />
    <rect x="0" y="200" width="20" height="20" fill="white" />
    <rect x="20" y="200" width="20" height="20" fill="white" />
    <rect x="40" y="200" width="20" height="20" fill="white" />
    <rect x="60" y="200" width="20" height="20" fill="#88CCEE" />
    <rect x="80" y="200" width="20" height="20" fill="white" />
    <rect x="100" y="200" width="20" height="20" fill="#C0A0C0" />
    <rect x="0" y="220" width="20" height="20" fill="white" />
    <rect x="20" y="220" width="20" height="20" fill="white" />
    <rect x="40" y="220" width="20" height="20" fill="white" />
    <rect x="60" y="220" width="20" height="20" fill="white" />
    <rect x="80" y="220" width="20" height="20" fill="white" />
    <rect x="100" y="220" width="20" height="20" fill="white" />
  </g>
  <text x="440" y="880" text-anchor="middle" class="title">Sparse high-</text>
  <text x="440" y="910" text-anchor="middle" class="title">dimensional</text>
  <text x="440" y="940" text-anchor="middle" class="title">representation</text>

  <!-- Arrow 3 -->
  <line x1="520" y1="790" x2="550" y2="790" stroke="#555555" stroke-width="8" marker-end="url(#arrowhead)" />

  <!-- Clustering -->
  <rect x="550" y="630" width="160" height="260" rx="30" fill="#EAD1EE" stroke="#9673A6" stroke-width="3" />
  <text x="630" y="680" text-anchor="middle" class="title">Clustering</text>
  
  <g transform="translate(560, 700)">
    <rect x="0" y="0" width="120" height="160" fill="none" stroke="black" stroke-width="2" />
    <line x1="0" y1="0" x2="0" y2="160" stroke="black" stroke-width="2" marker-end="url(#arrowhead)" />
    <line x1="0" y1="160" x2="120" y2="160" stroke="black" stroke-width="2" marker-end="url(#arrowhead)" />
    
    <!-- Cluster 1 (Red) -->
    <ellipse cx="60" cy="60" rx="50" ry="30" fill="#F8CECC" stroke="red" stroke-width="1" />
    <circle cx="50" cy="50" r="5" fill="#E08080" />
    <circle cx="70" cy="40" r="5" fill="#E08080" />
    <circle cx="80" cy="60" r="5" fill="#E08080" />
    <circle cx="60" cy="70" r="5" fill="#E08080" />
    <circle cx="50" cy="80" r="5" fill="#E08080" />
    <circle cx="70" cy="80" r="5" fill="#E08080" />
    <circle cx="80" cy="70" r="5" fill="#E08080" />
    <circle cx="60" cy="50" r="5" fill="#E08080" />
    <circle cx="50" cy="60" r="5" fill="#E08080" />
    <circle cx="70" cy="50" r="5" fill="#E08080" />
    
    <!-- Cluster 2 (Teal) -->
    <ellipse cx="100" cy="80" rx="40" ry="30" fill="#D5E8D4" stroke="teal" stroke-width="1" />
    <circle cx="90" cy="70" r="5" fill="#88CCEE" />
    <circle cx="110" cy="70" r="5" fill="#88CCEE" />
    <circle cx="100" cy="60" r="5" fill="#88CCEE" />
    <circle cx="90" cy="80" r="5" fill="#88CCEE" />
    <circle cx="110" cy="80" r="5" fill="#88CCEE" />
    <circle cx="90" cy="90" r="5" fill="#88CCEE" />
    <circle cx="110" cy="90" r="5" fill="#88CCEE" />
    <circle cx="100" cy="70" r="5" fill="#88CCEE" />
    <circle cx="90" cy="85" r="5" fill="#88CCEE" />
    <circle cx="110" cy="85" r="5" fill="#88CCEE" />
    
    <!-- Cluster 3 (Yellow) -->
    <ellipse cx="60" cy="140" rx="30" ry="40" fill="#FFE6CC" stroke="gold" stroke-width="1" />
    <circle cx="50" cy="130" r="5" fill="#D4AF37" />
    <circle cx="70" cy="130" r="5" fill="#D4AF37" />
    <circle cx="80" cy="140" r="5" fill="#D4AF37" />
    <circle cx="60" cy="150" r="5" fill="#D4AF37" />
    <circle cx="50" cy="140" r="5" fill="#D4AF37" />
    <circle cx="70" cy="150" r="5" fill="#D4AF37" />
    <circle cx="80" cy="130" r="5" fill="#D4AF37" />
    <circle cx="60" cy="120" r="5" fill="#D4AF37" />
    <circle cx="50" cy="135" r="5" fill="#D4AF37" />
    <circle cx="70" cy="135" r="5" fill="#D4AF37" />
    
    <!-- Cluster 4 (Purple) -->
    <ellipse cx="30" cy="140" rx="30" ry="30" fill="#E1D5E7" stroke="purple" stroke-width="1" />
    <circle cx="20" cy="130" r="5" fill="#C0A0C0" />
    <circle cx="40" cy="130" r="5" fill="#C0A0C0" />
    <circle cx="30" cy="120" r="5" fill="#C0A0C0" />
    <circle cx="20" cy="140" r="5" fill="#C0A0C0" />
    <circle cx="40" cy="140" r="5" fill="#C0A0C0" />
    <circle cx="30" cy="150" r="5" fill="#C0A0C0" />
    <circle cx="20" cy="135" r="5" fill="#C0A0C0" />
    <circle cx="40" cy="135" r="5" fill="#C0A0C0" />
    <circle cx="30" cy="125" r="5" fill="#C0A0C0" />
    <circle cx="25" cy="145" r="5" fill="#C0A0C0" />
  </g>
  <text x="630" y="880" text-anchor="middle" class="title">Unsupervised</text>
  <text x="630" y="910" text-anchor="middle" class="title">Clustering</text>

  <!-- Arrow 4 -->
  <line x1="710" y1="790" x2="740" y2="790" stroke="#555555" stroke-width="8" marker-end="url(#arrowhead)" />

  <!-- Pseudo-labels -->
  <g transform="translate(750, 630)">
    <text x="80" y="40" text-anchor="middle" class="title">Pseudo-</text>
    <text x="80" y="80" text-anchor="middle" class="title">labels</text>
    
    <rect x="0" y="100" width="120" height="40" rx="15" fill="#F8CECC" stroke="red" stroke-width="2" />
    <text x="60" y="125" text-anchor="middle" class="box-text">Scene A</text>
    
    <rect x="0" y="150" width="120" height="40" rx="15" fill="#D5E8D4" stroke="teal" stroke-width="2" />
    <text x="60" y="175" text-anchor="middle" class="box-text">Scene B</text>
    
    <rect x="0" y="200" width="120" height="40" rx="15" fill="#FFE6CC" stroke="gold" stroke-width="2" />
    <text x="60" y="225" text-anchor="middle" class="box-text">Scene C</text>
  </g>
  <text x="790" y="900" text-anchor="middle" class="title">Pseudo-labels</text>
  <text x="790" y="925" text-anchor="middle" class="title">(Scene Categories)</text>

  <!-- Arrow 5 -->
  <line x1="870" y1="790" x2="900" y2="790" stroke="#555555" stroke-width="8" marker-end="url(#arrowhead)" />

  <!-- 2. SceneSelect Classifier (Bottom) -->
  <rect x="900" y="560" width="700" height="350" rx="30" fill="#CFE2F3" stroke="#6FA8DC" stroke-width="3" />
  <text x="1250" y="610" text-anchor="middle" class="title">SceneSelect Classifier</text>

  <!-- Input -->
  <text x="920" y="680" class="title">Input</text>
  <text x="920" y="780" class="title">Pseudo-</text>
  <text x="920" y="810" class="title">labels + Features</text>

  <!-- Additive Tree -->
  <g transform="translate(1000, 700)">
    <text x="150" y="40" text-anchor="middle" class="title">Additive Tree-based</text>
    <text x="150" y="80" text-anchor="middle" class="title">Classifier</text>
    
    <!-- Tree Structure -->
    <line x1="150" y1="0" x2="70" y2="120" stroke="black" stroke-width="3" />
    <line x1="150" y1="0" x2="230" y2="120" stroke="black" stroke-width="3" />
    <line x1="70" y1="120" x2="20" y2="240" stroke="black" stroke-width="3" />
    <line x1="70" y1="120" x2="100" y2="240" stroke="black" stroke-width="3" />
    <line x1="230" y1="120" x2="160" y2="240" stroke="black" stroke-width="3" />
    <line x1="230" y1="120" x2="260" y2="240" stroke="black" stroke-width="3" />
    
    <!-- Nodes -->
    <circle cx="150" cy="0" r="35" fill="#B0C4DE" stroke="black" stroke-width="3" />
    <circle cx="70" cy="120" r="35" fill="#B0C4DE" stroke="black" stroke-width="3" />
    <circle cx="230" cy="120" r="35" fill="#B0C4DE" stroke="black" stroke-width="3" />
    <circle cx="20" cy="240" r="35" fill="#F08080" stroke="black" stroke-width="3" />
    <circle cx="100" cy="240" r="35" fill="#88CCEE" stroke="black" stroke-width="3" />
    <circle cx="160" cy="240" r="35" fill="#D4AF37" stroke="black" stroke-width="3" />
    <circle cx="260" cy="240" r="35" fill="#D4AF37" stroke="black" stroke-width="3" />
  </g>

  <!-- Arrow 6 -->
  <line x1="980" y1="800" x2="1010" y2="800" stroke="#555555" stroke-width="8" marker-end="url(#arrowhead)" />

  <!-- Scene Category Output -->
  <g transform="translate(1250, 630)">
    <text x="100" y="40" text-anchor="middle" class="title">Scene</text>
    <text x="100" y="80" text-anchor="middle" class="title">Category</text>
    <text x="100" y="120" text-anchor="middle" class="title">Output</text>
    
    <rect x="0" y="140" width="120" height="40" rx="15" fill="#F8CECC" stroke="red" stroke-width="2" />
    <text x="60" y="165" text-anchor="middle" class="box-text">Scene A</text>
    
    <rect x="0" y="190" width="120" height="40" rx="15" fill="#D5E8D4" stroke="teal" stroke-width="2" />
    <text x="60" y="215" text-anchor="middle" class="box-text">Scene B</text>
    
    <rect x="0" y="240" width="120" height="40" rx="15" fill="#FFE6CC" stroke="gold" stroke-width="2" />
    <text x="60" y="265" text-anchor="middle" class="box-text">Scene C</text>
  </g>

  <!-- Arrow 7 -->
  <line x1="1250" y1="800" x2="1330" y2="800" stroke="#555555" stroke-width="8" marker-end="url(#arrowhead)" />

  <!-- Scheduling Policy Table -->
  <g transform="translate(1380, 730)">
    <text x="150" y="40" text-anchor="middle" class="title">Scheduling</text>
    <text x="150" y="80" text-anchor="middle" class="title">Policy Table</text>
    
    <rect x="0" y="100" width="250" height="180" rx="30" fill="#FFF2CC" stroke="#D6B656" stroke-width="3" />
    
    <g transform="translate(10, 120)">
        <rect x="0" y="0" width="120" height="40" fill="white" stroke="black" stroke-width="2" />
        <text x="60" y="25" text-anchor="middle" class="box-text">Scene A</text>
        <rect x="120" y="0" width="120" height="40" fill="white" stroke="black" stroke-width="2" />
        <text x="180" y="25" text-anchor="middle" class="box-text">Expert 1</text>
        
        <rect x="0" y="40" width="120" height="40" fill="white" stroke="black" stroke-width="2" />
        <text x="60" y="65" text-anchor="middle" class="box-text">Scene B</text>
        <rect x="120" y="40" width="120" height="40" fill="white" stroke="black" stroke-width="2" />
        <text x="180" y="65" text-anchor="middle" class="box-text">Expert 2</text>
        
        <rect x="0" y="80" width="120" height="40" fill="white" stroke="black" stroke-width="2" />
        <text x="60" y="105" text-anchor="middle" class="box-text">...</text>
        <rect x="120" y="80" width="120" height="40" fill="white" stroke="black" stroke-width="2" />
        <text x="180" y="105" text-anchor="middle" class="box-text">Expert 3</text>
    </g>
  </g>

</svg>