<svg xmlns="http://www.w3.org/2000/svg" width="1926" height="1037" viewBox="0 0 1926 1037">
<defs>
  <marker id="arrowGrey" markerWidth="55" markerHeight="40" refX="50" refY="20" orient="auto" markerUnits="userSpaceOnUse">
    <path d="M0,0 L55,20 L0,40 Z" fill="#aeb3af"/>
  </marker>
  <style>
    .stage-title{font-family:Arial,Helvetica,sans-serif;font-size:38px;fill:#111}
    .label{font-family:Arial,Helvetica,sans-serif;fill:#111}
    .serif{font-family:'Times New Roman',Times,serif}
  </style>
</defs>
<rect x="0" y="0" width="1926" height="525" fill="#e6f2e2"/>
<rect x="0" y="525" width="1926" height="512" fill="#ffefd9"/>
<text x="27" y="72" class="stage-title">Trining Stage</text>
<text x="14" y="570" class="stage-title">Inference Stage</text>
<rect x="14" y="98" width="391" height="367" fill="#a9abad"/>
<text x="31" y="183" font-family="'Times New Roman', Times, serif" font-size="37" font-weight="normal" font-style="italic" fill="#111" text-anchor="start" >Input prompt x :</text>
<text x="31" y="235" font-family="'Times New Roman', Times, serif" font-size="37" font-weight="normal" font-style="italic" fill="#111" text-anchor="start" >How long should</text>
<text x="31" y="287" font-family="'Times New Roman', Times, serif" font-size="37" font-weight="normal" font-style="italic" fill="#111" text-anchor="start" >you wait before</text>
<text x="31" y="339" font-family="'Times New Roman', Times, serif" font-size="37" font-weight="normal" font-style="italic" fill="#111" text-anchor="start" >filing a missing</text>
<text x="31" y="391" font-family="'Times New Roman', Times, serif" font-size="37" font-weight="normal" font-style="italic" fill="#111" text-anchor="start" >person report?</text>
<rect x="14" y="592" width="391" height="431" fill="#a9abad"/>
<text x="17" y="691" font-family="'Times New Roman', Times, serif" font-size="34" font-weight="normal" font-style="italic" fill="#111" text-anchor="start" >Input prompt x :</text>
<text x="17" y="743" font-family="'Times New Roman', Times, serif" font-size="34" font-weight="normal" font-style="italic" fill="#111" text-anchor="start" >Where was</text>
<text x="17" y="795" font-family="'Times New Roman', Times, serif" font-size="34" font-weight="normal" font-style="italic" fill="#111" text-anchor="start" >NeurIPS 2024 held?</text>
<text x="17" y="847" font-family="'Times New Roman', Times, serif" font-size="34" font-weight="normal" font-style="italic" fill="#111" text-anchor="start" >Response:</text>
<text x="17" y="899" font-family="'Times New Roman', Times, serif" font-size="34" font-weight="normal" font-style="italic" fill="#111" text-anchor="start" >NeurIPS 2024 was</text>
<text x="17" y="951" font-family="'Times New Roman', Times, serif" font-size="34" font-weight="normal" font-style="italic" fill="#111" text-anchor="start" >held at ...</text>
<line x1="432" y1="183" x2="512" y2="183" stroke="#aeb3af" stroke-width="13" stroke-linecap="butt" marker-end="url(#arrowGrey)"/>
<line x1="674" y1="183" x2="763" y2="183" stroke="#aeb3af" stroke-width="13" stroke-linecap="butt" marker-end="url(#arrowGrey)"/>
<line x1="1638" y1="183" x2="1728" y2="183" stroke="#aeb3af" stroke-width="13" stroke-linecap="butt" marker-end="url(#arrowGrey)"/>
<line x1="432" y1="393" x2="512" y2="393" stroke="#aeb3af" stroke-width="13" stroke-linecap="butt" marker-end="url(#arrowGrey)"/>
<line x1="674" y1="393" x2="763" y2="393" stroke="#aeb3af" stroke-width="13" stroke-linecap="butt" marker-end="url(#arrowGrey)"/>
<line x1="1638" y1="393" x2="1728" y2="393" stroke="#aeb3af" stroke-width="13" stroke-linecap="butt" marker-end="url(#arrowGrey)"/>
<text x="588" y="112" font-family="Arial, Helvetica, sans-serif" font-size="18" font-weight="normal" font-style="normal" fill="#111" text-anchor="middle" >LLM</text>
<text x="588" y="311" font-family="Arial, Helvetica, sans-serif" font-size="18" font-weight="normal" font-style="normal" fill="#111" text-anchor="middle" >LLM</text>
<text x="1827" y="101" font-family="Arial, Helvetica, sans-serif" font-size="20" font-weight="normal" font-style="normal" fill="#111" text-anchor="middle" >Truthful LLM</text>
<text x="1830" y="337" font-family="Arial, Helvetica, sans-serif" font-size="20" font-weight="normal" font-style="normal" fill="#111" text-anchor="middle" >Evil LLM</text>
<text x="936" y="52" font-family="Arial, Helvetica, sans-serif" font-size="28" font-weight="normal" font-style="normal" fill="#218c22" text-anchor="middle" >Factuality</text>
<text x="1374" y="52" font-family="Arial, Helvetica, sans-serif" font-size="28" font-weight="normal" font-style="normal" fill="#c00000" text-anchor="middle" >Hallucinations</text>
<g class="stack-outline">
  <rect x="806" y="80" width="776" height="165" fill="none" stroke="#111" stroke-width="2"/>
  <rect x="786" y="120" width="776" height="165" fill="none" stroke="#111" stroke-width="2" stroke-dasharray="7 7"/>
</g>
<g class="doc-card">
<path d="M815,133 L1120,133 L1120,257 C1064,238 1015,241 968,258 C910,280 870,263 815,257 Z" fill="none" stroke="#111" stroke-width="2"/>
<rect x="825" y="145" width="76" height="12" fill="#657985"/>
<rect x="909" y="145" width="136" height="12" fill="#657985"/>
<rect x="1055" y="145" width="54" height="12" fill="#55a530"/>
<rect x="825" y="167" width="140" height="12" fill="#657985"/>
<rect x="973" y="167" width="135" height="12" fill="#657985"/>
<rect x="825" y="189" width="130" height="12" fill="#657985"/>
<rect x="965" y="189" width="130" height="12" fill="#55a530"/>
<rect x="825" y="211" width="102" height="12" fill="#55a530"/>
<rect x="938" y="211" width="138" height="12" fill="#657985"/>
<rect x="1085" y="211" width="23" height="12" fill="#657985"/>
<rect x="825" y="233" width="120" height="12" fill="#657985"/>
<rect x="954" y="233" width="90" height="12" fill="#55a530"/>
<rect x="1053" y="233" width="54" height="12" fill="#657985"/>
<rect x="825" y="255" width="132" height="12" fill="#657985"/>
</g>
<text x="1182" y="218" font-family="Arial,Helvetica,sans-serif" font-size="92" font-weight="bold" text-anchor="middle">&gt;</text>
<g class="doc-card">
<path d="M1235,133 L1540,133 L1540,257 C1484,238 1435,241 1388,258 C1330,280 1290,263 1235,257 Z" fill="none" stroke="#111" stroke-width="2"/>
<rect x="1245" y="145" width="76" height="12" fill="#657985"/>
<rect x="1329" y="145" width="136" height="12" fill="#657985"/>
<rect x="1475" y="145" width="54" height="12" fill="#e31a1c"/>
<rect x="1245" y="167" width="140" height="12" fill="#657985"/>
<rect x="1393" y="167" width="135" height="12" fill="#657985"/>
<rect x="1245" y="189" width="72" height="12" fill="#657985"/>
<rect x="1325" y="189" width="150" height="12" fill="#657985"/>
<rect x="1485" y="189" width="44" height="12" fill="#e31a1c"/>
<rect x="1245" y="211" width="102" height="12" fill="#e31a1c"/>
<rect x="1358" y="211" width="138" height="12" fill="#657985"/>
<rect x="1505" y="211" width="23" height="12" fill="#657985"/>
<rect x="1245" y="233" width="65" height="12" fill="#e31a1c"/>
<rect x="1318" y="233" width="92" height="12" fill="#657985"/>
<rect x="1418" y="233" width="107" height="12" fill="#e31a1c"/>
<rect x="1245" y="255" width="142" height="12" fill="#657985"/>
</g>
<g class="stack-outline">
  <rect x="806" y="307" width="776" height="165" fill="none" stroke="#111" stroke-width="2"/>
  <rect x="786" y="347" width="776" height="165" fill="none" stroke="#111" stroke-width="2" stroke-dasharray="7 7"/>
</g>
<g class="doc-card">
<path d="M815,360 L1120,360 L1120,484 C1064,465 1015,468 968,485 C910,507 870,490 815,484 Z" fill="none" stroke="#111" stroke-width="2"/>
<rect x="825" y="372" width="76" height="12" fill="#657985"/>
<rect x="909" y="372" width="136" height="12" fill="#657985"/>
<rect x="1055" y="372" width="54" height="12" fill="#55a530"/>
<rect x="825" y="394" width="140" height="12" fill="#657985"/>
<rect x="973" y="394" width="135" height="12" fill="#657985"/>
<rect x="825" y="416" width="130" height="12" fill="#657985"/>
<rect x="965" y="416" width="130" height="12" fill="#55a530"/>
<rect x="825" y="438" width="102" height="12" fill="#55a530"/>
<rect x="938" y="438" width="138" height="12" fill="#657985"/>
<rect x="1085" y="438" width="23" height="12" fill="#657985"/>
<rect x="825" y="460" width="120" height="12" fill="#657985"/>
<rect x="954" y="460" width="90" height="12" fill="#55a530"/>
<rect x="1053" y="460" width="54" height="12" fill="#657985"/>
<rect x="825" y="482" width="132" height="12" fill="#657985"/>
</g>
<text x="1182" y="445" font-family="Arial,Helvetica,sans-serif" font-size="92" font-weight="bold" text-anchor="middle">&lt;</text>
<g class="doc-card">
<path d="M1235,360 L1540,360 L1540,484 C1484,465 1435,468 1388,485 C1330,507 1290,490 1235,484 Z" fill="none" stroke="#111" stroke-width="2"/>
<rect x="1245" y="372" width="76" height="12" fill="#657985"/>
<rect x="1329" y="372" width="136" height="12" fill="#657985"/>
<rect x="1475" y="372" width="54" height="12" fill="#e31a1c"/>
<rect x="1245" y="394" width="140" height="12" fill="#657985"/>
<rect x="1393" y="394" width="135" height="12" fill="#657985"/>
<rect x="1245" y="416" width="72" height="12" fill="#657985"/>
<rect x="1325" y="416" width="150" height="12" fill="#657985"/>
<rect x="1485" y="416" width="44" height="12" fill="#e31a1c"/>
<rect x="1245" y="438" width="102" height="12" fill="#e31a1c"/>
<rect x="1358" y="438" width="138" height="12" fill="#657985"/>
<rect x="1505" y="438" width="23" height="12" fill="#657985"/>
<rect x="1245" y="460" width="65" height="12" fill="#e31a1c"/>
<rect x="1318" y="460" width="92" height="12" fill="#657985"/>
<rect x="1418" y="460" width="107" height="12" fill="#e31a1c"/>
<rect x="1245" y="482" width="142" height="12" fill="#657985"/>
</g>
<line x1="425" y1="645" x2="512" y2="645" stroke="#aeb3af" stroke-width="13" stroke-linecap="butt" marker-end="url(#arrowGrey)"/>
<line x1="679" y1="645" x2="765" y2="645" stroke="#aeb3af" stroke-width="13" stroke-linecap="butt" marker-end="url(#arrowGrey)"/>
<line x1="425" y1="807" x2="512" y2="807" stroke="#aeb3af" stroke-width="13" stroke-linecap="butt" marker-end="url(#arrowGrey)"/>
<line x1="679" y1="807" x2="765" y2="807" stroke="#aeb3af" stroke-width="13" stroke-linecap="butt" marker-end="url(#arrowGrey)"/>
<line x1="425" y1="975" x2="512" y2="975" stroke="#aeb3af" stroke-width="13" stroke-linecap="butt" marker-end="url(#arrowGrey)"/>
<line x1="679" y1="975" x2="765" y2="975" stroke="#aeb3af" stroke-width="13" stroke-linecap="butt" marker-end="url(#arrowGrey)"/>
<text x="590" y="604" font-family="Arial, Helvetica, sans-serif" font-size="18" font-weight="normal" font-style="normal" fill="#111" text-anchor="middle" >LLM</text>
<text x="590" y="747" font-family="Arial, Helvetica, sans-serif" font-size="18" font-weight="normal" font-style="normal" fill="#111" text-anchor="middle" >Evil LLM</text>
<text x="590" y="921" font-family="Arial, Helvetica, sans-serif" font-size="18" font-weight="normal" font-style="normal" fill="#111" text-anchor="middle" >Truthful LLM</text>
<g class="small-prob-chart">
<text x="760" y="578" font-family="'Times New Roman', Times, serif" font-size="30" font-weight="normal" font-style="normal" fill="#111" text-anchor="start" >log pθ(yₜ | x, y&lt;ₜ)</text>
<line x1="810" y1="677" x2="935" y2="677" stroke="#111" stroke-width="2"/>
<rect x="823" y="646" width="15" height="31" fill="#ff5b67"/>
<text x="830.5" y="709" transform="rotate(-45 830.5 709)" font-family="Arial, Helvetica, sans-serif" font-size="14" fill="#ff5b67" text-anchor="middle">China</text>
<rect x="852" y="604" width="15" height="73" fill="#ff5b67"/>
<text x="859.5" y="709" transform="rotate(-45 859.5 709)" font-family="Arial, Helvetica, sans-serif" font-size="14" fill="#ff5b67" text-anchor="middle">India</text>
<rect x="881" y="625" width="15" height="52" fill="#16a7df"/>
<text x="888.5" y="709" transform="rotate(-45 888.5 709)" font-family="Arial, Helvetica, sans-serif" font-size="14" fill="#16a7df" text-anchor="middle">Canada</text>
<rect x="910" y="634" width="15" height="43" fill="#ff5b67"/>
<text x="917.5" y="709" transform="rotate(-45 917.5 709)" font-family="Arial, Helvetica, sans-serif" font-size="14" fill="#ff5b67" text-anchor="middle">Japan</text>
</g>
<g class="small-prob-chart">
<text x="760" y="741" font-family="'Times New Roman', Times, serif" font-size="30" font-weight="normal" font-style="normal" fill="#111" text-anchor="start" >log pθ−(yₜ | x, y&lt;ₜ)</text>
<line x1="810" y1="840" x2="935" y2="840" stroke="#111" stroke-width="2"/>
<rect x="823" y="788" width="15" height="52" fill="#ff5b67"/>
<text x="830.5" y="872" transform="rotate(-45 830.5 872)" font-family="Arial, Helvetica, sans-serif" font-size="14" fill="#ff5b67" text-anchor="middle">China</text>
<rect x="852" y="772" width="15" height="68" fill="#ff5b67"/>
<text x="859.5" y="872" transform="rotate(-45 859.5 872)" font-family="Arial, Helvetica, sans-serif" font-size="14" fill="#ff5b67" text-anchor="middle">India</text>
<rect x="881" y="818" width="15" height="22" fill="#16a7df"/>
<text x="888.5" y="872" transform="rotate(-45 888.5 872)" font-family="Arial, Helvetica, sans-serif" font-size="14" fill="#16a7df" text-anchor="middle">Canada</text>
<rect x="910" y="798" width="15" height="42" fill="#ff5b67"/>
<text x="917.5" y="872" transform="rotate(-45 917.5 872)" font-family="Arial, Helvetica, sans-serif" font-size="14" fill="#ff5b67" text-anchor="middle">Japan</text>
</g>
<g class="small-prob-chart">
<text x="760" y="909" font-family="'Times New Roman', Times, serif" font-size="30" font-weight="normal" font-style="normal" fill="#111" text-anchor="start" >log pθ+(yₜ | x, y&lt;ₜ)</text>
<line x1="810" y1="1008" x2="935" y2="1008" stroke="#111" stroke-width="2"/>
<rect x="823" y="979" width="15" height="29" fill="#ff5b67"/>
<text x="830.5" y="1040" transform="rotate(-45 830.5 1040)" font-family="Arial, Helvetica, sans-serif" font-size="14" fill="#ff5b67" text-anchor="middle">China</text>
<rect x="852" y="971" width="15" height="37" fill="#ff5b67"/>
<text x="859.5" y="1040" transform="rotate(-45 859.5 1040)" font-family="Arial, Helvetica, sans-serif" font-size="14" fill="#ff5b67" text-anchor="middle">India</text>
<rect x="881" y="930" width="15" height="78" fill="#16a7df"/>
<text x="888.5" y="1040" transform="rotate(-45 888.5 1040)" font-family="Arial, Helvetica, sans-serif" font-size="14" fill="#16a7df" text-anchor="middle">Canada</text>
<rect x="910" y="953" width="15" height="55" fill="#ff5b67"/>
<text x="917.5" y="1040" transform="rotate(-45 917.5 1040)" font-family="Arial, Helvetica, sans-serif" font-size="14" fill="#ff5b67" text-anchor="middle">Japan</text>
</g>
<path d="M939 626 L979 626 L979 981 L939 981" fill="none" stroke="#111" stroke-width="2"/>
<text x="1022" y="819" font-family="Arial, Helvetica, sans-serif" font-size="23" font-weight="normal" font-style="normal" fill="#111" text-anchor="start" >MCD</text>
<line x1="1014" y1="808" x2="1081" y2="808" stroke="#aeb3af" stroke-width="13" stroke-linecap="butt" marker-end="url(#arrowGrey)"/>
<text x="994" y="690" font-family="'Times New Roman', Times, serif" font-size="31" font-weight="normal" font-style="normal" fill="#111" text-anchor="start" >log pθ(yₜ | x, y&lt;ₜ) − α log pθ−(yₜ | x, y&lt;ₜ) + γ log pθ+(yₜ | x, y&lt;ₜ)</text>
<g class="final-chart">
<line x1="1125" y1="868" x2="1370" y2="868" stroke="#111" stroke-width="2"/>
<rect x="1167" y="844" width="25" height="24" fill="#ff5b67"/>
<text x="1179.5" y="908" transform="rotate(-45 1179.5 908)" font-family="Arial, Helvetica, sans-serif" font-size="28" fill="#ff5b67" text-anchor="middle">China</text>
<rect x="1221" y="830" width="25" height="38" fill="#ff5b67"/>
<text x="1233.5" y="908" transform="rotate(-45 1233.5 908)" font-family="Arial, Helvetica, sans-serif" font-size="28" fill="#ff5b67" text-anchor="middle">India</text>
<rect x="1275" y="736" width="25" height="132" fill="#16a7df"/>
<text x="1287.5" y="908" transform="rotate(-45 1287.5 908)" font-family="Arial, Helvetica, sans-serif" font-size="28" fill="#16a7df" text-anchor="middle">Canada</text>
<rect x="1329" y="832" width="25" height="36" fill="#ff5b67"/>
<text x="1341.5" y="908" transform="rotate(-45 1341.5 908)" font-family="Arial, Helvetica, sans-serif" font-size="28" fill="#ff5b67" text-anchor="middle">Japan</text>
</g>
<line x1="1367" y1="807" x2="1448" y2="807" stroke="#aeb3af" stroke-width="13" stroke-linecap="butt" marker-end="url(#arrowGrey)"/>
<g class="detection"><polygon points="1575,745.0 1680.0,807 1575,869.0 1470.0,807" fill="#93e7e8" stroke="#111" stroke-width="2"/>
<text x="1575" y="815" font-family="Arial, Helvetica, sans-serif" font-size="28" font-weight="normal" font-style="normal" fill="#111" text-anchor="middle" >Detection</text></g>
<line x1="1695" y1="807" x2="1740" y2="807" stroke="#aeb3af" stroke-width="13" stroke-linecap="butt" marker-end="url(#arrowGrey)"/>
<text x="1789" y="807" font-family="Arial, Helvetica, sans-serif" font-size="28" font-weight="normal" font-style="normal" fill="#168bc6" text-anchor="start" >Canada</text>
<text x="1583" y="937" font-family="Arial, Helvetica, sans-serif" font-size="28" font-weight="normal" font-style="normal" fill="#111" text-anchor="start" >hallucinatory object</text>
<text x="1596" y="970" font-family="Arial, Helvetica, sans-serif" font-size="28" font-weight="normal" font-style="normal" fill="#ff5b67" text-anchor="start" >“India”</text>
<text x="1680" y="970" font-family="Arial, Helvetica, sans-serif" font-size="28" font-weight="normal" font-style="normal" fill="#111" text-anchor="start" >eliminated</text>
<g id="svg_train_llm_top" data-source-slot="slot_train_llm_top" transform="translate(542,124) scale(0.933333,0.914286)">
  <g stroke="#4b5446" stroke-width="4" stroke-linecap="round" stroke-linejoin="round">
    <line x1="60" y1="18" x2="60" y2="8" fill="none"/>
    <circle cx="60" cy="6" r="5" fill="#e4bd56"/>
    <rect x="24" y="28" width="72" height="46" rx="7" fill="#dce8d3"/>
    <rect x="18" y="42" width="6" height="18" rx="2" fill="#8a9483"/>
    <rect x="96" y="42" width="6" height="18" rx="2" fill="#8a9483"/>
    <circle cx="45" cy="52" r="3.6" fill="#333" stroke="none"/>
    <circle cx="75" cy="52" r="3.6" fill="#333" stroke="none"/>
    <line x1="52" y1="64" x2="68" y2="64" stroke="#333" stroke-width="2.4"/>
    <rect x="38" y="77" width="44" height="42" rx="5" fill="#4d5b54"/>
    <rect x="43" y="83" width="34" height="26" rx="2" fill="#f0ce55"/>
    <path d="M38 87 C24 88 21 101 18 111" fill="none"/>
    <path d="M82 87 C96 88 99 101 102 111" fill="none"/>
    <circle cx="18" cy="113" r="5" fill="#dce8d3"/>
    <circle cx="102" cy="113" r="5" fill="#dce8d3"/>
    <line x1="48" y1="119" x2="48" y2="132"/>
    <line x1="72" y1="119" x2="72" y2="132"/>
    <rect x="38" y="132" width="20" height="6" rx="2" fill="#d8d7bd"/>
    <rect x="62" y="132" width="20" height="6" rx="2" fill="#d8d7bd"/>
  </g>
</g>
<g id="svg_train_llm_bottom" data-source-slot="slot_train_llm_bottom" transform="translate(542,322) scale(0.933333,0.914286)">
  <g stroke="#4b5446" stroke-width="4" stroke-linecap="round" stroke-linejoin="round">
    <line x1="60" y1="18" x2="60" y2="8" fill="none"/>
    <circle cx="60" cy="6" r="5" fill="#e4bd56"/>
    <rect x="24" y="28" width="72" height="46" rx="7" fill="#dce8d3"/>
    <rect x="18" y="42" width="6" height="18" rx="2" fill="#8a9483"/>
    <rect x="96" y="42" width="6" height="18" rx="2" fill="#8a9483"/>
    <circle cx="45" cy="52" r="3.6" fill="#333" stroke="none"/>
    <circle cx="75" cy="52" r="3.6" fill="#333" stroke="none"/>
    <line x1="52" y1="64" x2="68" y2="64" stroke="#333" stroke-width="2.4"/>
    <rect x="38" y="77" width="44" height="42" rx="5" fill="#4d5b54"/>
    <rect x="43" y="83" width="34" height="26" rx="2" fill="#f0ce55"/>
    <path d="M38 87 C24 88 21 101 18 111" fill="none"/>
    <path d="M82 87 C96 88 99 101 102 111" fill="none"/>
    <circle cx="18" cy="113" r="5" fill="#dce8d3"/>
    <circle cx="102" cy="113" r="5" fill="#dce8d3"/>
    <line x1="48" y1="119" x2="48" y2="132"/>
    <line x1="72" y1="119" x2="72" y2="132"/>
    <rect x="38" y="132" width="20" height="6" rx="2" fill="#d8d7bd"/>
    <rect x="62" y="132" width="20" height="6" rx="2" fill="#d8d7bd"/>
  </g>
</g>
<g id="svg_train_truthful_llm" data-source-slot="slot_train_truthful_llm" transform="translate(1752,120) scale(0.831579,0.910345)">
  <g stroke="#45483e" stroke-width="4" stroke-linecap="round" stroke-linejoin="round">
    <ellipse cx="95" cy="12" rx="28" ry="6" fill="#f6de45"/>
    <ellipse cx="95" cy="12" rx="22" ry="3" fill="#e6f2e2" stroke="#45483e" stroke-width="2"/>
    <path d="M44 58 C20 38 12 36 13 55 C16 70 31 75 49 77 C26 77 15 86 21 99 C27 111 44 105 57 93" fill="#fffefa"/>
    <path d="M146 58 C170 38 178 36 177 55 C174 70 159 75 141 77 C164 77 175 86 169 99 C163 111 146 105 133 93" fill="#fffefa"/>
    <line x1="95" y1="36" x2="95" y2="28" fill="none"/>
    <rect x="59" y="42" width="72" height="47" rx="7" fill="#dce8d3"/>
    <rect x="52" y="55" width="7" height="18" rx="2" fill="#8a9483"/>
    <rect x="131" y="55" width="7" height="18" rx="2" fill="#8a9483"/>
    <circle cx="79" cy="66" r="3.5" fill="#333" stroke="none"/>
    <circle cx="111" cy="66" r="3.5" fill="#333" stroke="none"/>
    <circle cx="70" cy="73" r="2.8" fill="#e69b99" stroke="none"/>
    <circle cx="120" cy="73" r="2.8" fill="#e69b99" stroke="none"/>
    <path d="M88 76 Q95 81 102 76" fill="none" stroke="#333" stroke-width="2"/>
    <rect x="73" y="92" width="44" height="40" rx="5" fill="#4d5b54"/>
    <rect x="78" y="98" width="34" height="24" rx="2" fill="#f0ce55"/>
    <path d="M73 101 C59 102 58 114 55 123" fill="none"/>
    <path d="M117 101 C131 102 132 114 135 123" fill="none"/>
    <circle cx="55" cy="125" r="5" fill="#dce8d3"/>
    <circle cx="135" cy="125" r="5" fill="#dce8d3"/>
    <line x1="84" y1="132" x2="84" y2="141"/>
    <line x1="106" y1="132" x2="106" y2="141"/>
  </g>
</g>
<g id="svg_train_evil_llm" data-source-slot="slot_train_evil_llm" transform="translate(1765,319) scale(0.906250,0.975000)">
  <g stroke="#4b5446" stroke-width="4" stroke-linecap="round" stroke-linejoin="round">
    <path d="M47 33 L38 15 C51 21 57 28 60 39" fill="#d9483b"/>
    <path d="M113 33 L122 15 C109 21 103 28 100 39" fill="#d9483b"/>
    <path d="M28 100 C12 90 13 67 23 57" fill="none" stroke="#b5302c"/>
    <path d="M132 100 C148 90 147 67 137 57" fill="none" stroke="#b5302c"/>
    <path d="M21 57 L18 68 L28 64" fill="#b5302c"/>
    <path d="M139 57 L142 68 L132 64" fill="#b5302c"/>
    <rect x="42" y="36" width="76" height="52" rx="7" fill="#aab4a3"/>
    <path d="M59 58 L72 63 M101 58 L88 63" stroke="#333" stroke-width="3"/>
    <circle cx="64" cy="70" r="3" fill="#333" stroke="none"/>
    <circle cx="96" cy="70" r="3" fill="#333" stroke="none"/>
    <path d="M61 78 Q80 90 99 78" fill="none" stroke="#333" stroke-width="3"/>
    <path d="M72 81 L75 88 L78 82 M91 82 L88 88 L85 81" fill="#fff" stroke="#333" stroke-width="1.5"/>
    <rect x="55" y="92" width="50" height="46" rx="5" fill="#4d5b54"/>
    <rect x="62" y="100" width="36" height="27" rx="2" fill="#ca463b"/>
    <path d="M55 103 C39 104 34 116 31 127" fill="none"/>
    <path d="M105 103 C121 104 126 116 129 127" fill="none"/>
    <circle cx="31" cy="130" r="5" fill="#aab4a3"/>
    <circle cx="129" cy="130" r="5" fill="#aab4a3"/>
    <line x1="66" y1="138" x2="66" y2="150"/>
    <line x1="94" y1="138" x2="94" y2="150"/>
    <rect x="55" y="150" width="22" height="6" rx="2" fill="#aab4a3"/>
    <rect x="83" y="150" width="22" height="6" rx="2" fill="#aab4a3"/>
  </g>
</g>
<g id="svg_infer_llm" data-source-slot="slot_infer_llm" transform="translate(543,611) scale(0.933333,0.750000)">
  <g stroke="#4b5446" stroke-width="4" stroke-linecap="round" stroke-linejoin="round">
    <line x1="60" y1="18" x2="60" y2="8" fill="none"/>
    <circle cx="60" cy="6" r="5" fill="#e4bd56"/>
    <rect x="24" y="28" width="72" height="46" rx="7" fill="#dce8d3"/>
    <rect x="18" y="42" width="6" height="18" rx="2" fill="#8a9483"/>
    <rect x="96" y="42" width="6" height="18" rx="2" fill="#8a9483"/>
    <circle cx="45" cy="52" r="3.6" fill="#333" stroke="none"/>
    <circle cx="75" cy="52" r="3.6" fill="#333" stroke="none"/>
    <line x1="52" y1="64" x2="68" y2="64" stroke="#333" stroke-width="2.4"/>
    <rect x="38" y="77" width="44" height="42" rx="5" fill="#4d5b54"/>
    <rect x="43" y="83" width="34" height="26" rx="2" fill="#f0ce55"/>
    <path d="M38 87 C24 88 21 101 18 111" fill="none"/>
    <path d="M82 87 C96 88 99 101 102 111" fill="none"/>
    <circle cx="18" cy="113" r="5" fill="#dce8d3"/>
    <circle cx="102" cy="113" r="5" fill="#dce8d3"/>
    <line x1="48" y1="119" x2="48" y2="132"/>
    <line x1="72" y1="119" x2="72" y2="132"/>
    <rect x="38" y="132" width="20" height="6" rx="2" fill="#d8d7bd"/>
    <rect x="62" y="132" width="20" height="6" rx="2" fill="#d8d7bd"/>
  </g>
</g>
<g id="svg_infer_evil_llm" data-source-slot="slot_infer_evil_llm" transform="translate(535,741) scale(0.887500,0.787500)">
  <g stroke="#4b5446" stroke-width="4" stroke-linecap="round" stroke-linejoin="round">
    <path d="M47 33 L38 15 C51 21 57 28 60 39" fill="#d9483b"/>
    <path d="M113 33 L122 15 C109 21 103 28 100 39" fill="#d9483b"/>
    <path d="M28 100 C12 90 13 67 23 57" fill="none" stroke="#b5302c"/>
    <path d="M132 100 C148 90 147 67 137 57" fill="none" stroke="#b5302c"/>
    <path d="M21 57 L18 68 L28 64" fill="#b5302c"/>
    <path d="M139 57 L142 68 L132 64" fill="#b5302c"/>
    <rect x="42" y="36" width="76" height="52" rx="7" fill="#aab4a3"/>
    <path d="M59 58 L72 63 M101 58 L88 63" stroke="#333" stroke-width="3"/>
    <circle cx="64" cy="70" r="3" fill="#333" stroke="none"/>
    <circle cx="96" cy="70" r="3" fill="#333" stroke="none"/>
    <path d="M61 78 Q80 90 99 78" fill="none" stroke="#333" stroke-width="3"/>
    <path d="M72 81 L75 88 L78 82 M91 82 L88 88 L85 81" fill="#fff" stroke="#333" stroke-width="1.5"/>
    <rect x="55" y="92" width="50" height="46" rx="5" fill="#4d5b54"/>
    <rect x="62" y="100" width="36" height="27" rx="2" fill="#ca463b"/>
    <path d="M55 103 C39 104 34 116 31 127" fill="none"/>
    <path d="M105 103 C121 104 126 116 129 127" fill="none"/>
    <circle cx="31" cy="130" r="5" fill="#aab4a3"/>
    <circle cx="129" cy="130" r="5" fill="#aab4a3"/>
    <line x1="66" y1="138" x2="66" y2="150"/>
    <line x1="94" y1="138" x2="94" y2="150"/>
    <rect x="55" y="150" width="22" height="6" rx="2" fill="#aab4a3"/>
    <rect x="83" y="150" width="22" height="6" rx="2" fill="#aab4a3"/>
  </g>
</g>
<g id="svg_infer_truthful_llm" data-source-slot="slot_infer_truthful_llm" transform="translate(536,897) scale(0.752632,0.855172)">
  <g stroke="#45483e" stroke-width="4" stroke-linecap="round" stroke-linejoin="round">
    <ellipse cx="95" cy="12" rx="28" ry="6" fill="#f6de45"/>
    <ellipse cx="95" cy="12" rx="22" ry="3" fill="#e6f2e2" stroke="#45483e" stroke-width="2"/>
    <path d="M44 58 C20 38 12 36 13 55 C16 70 31 75 49 77 C26 77 15 86 21 99 C27 111 44 105 57 93" fill="#fffefa"/>
    <path d="M146 58 C170 38 178 36 177 55 C174 70 159 75 141 77 C164 77 175 86 169 99 C163 111 146 105 133 93" fill="#fffefa"/>
    <line x1="95" y1="36" x2="95" y2="28" fill="none"/>
    <rect x="59" y="42" width="72" height="47" rx="7" fill="#dce8d3"/>
    <rect x="52" y="55" width="7" height="18" rx="2" fill="#8a9483"/>
    <rect x="131" y="55" width="7" height="18" rx="2" fill="#8a9483"/>
    <circle cx="79" cy="66" r="3.5" fill="#333" stroke="none"/>
    <circle cx="111" cy="66" r="3.5" fill="#333" stroke="none"/>
    <circle cx="70" cy="73" r="2.8" fill="#e69b99" stroke="none"/>
    <circle cx="120" cy="73" r="2.8" fill="#e69b99" stroke="none"/>
    <path d="M88 76 Q95 81 102 76" fill="none" stroke="#333" stroke-width="2"/>
    <rect x="73" y="92" width="44" height="40" rx="5" fill="#4d5b54"/>
    <rect x="78" y="98" width="34" height="24" rx="2" fill="#f0ce55"/>
    <path d="M73 101 C59 102 58 114 55 123" fill="none"/>
    <path d="M117 101 C131 102 132 114 135 123" fill="none"/>
    <circle cx="55" cy="125" r="5" fill="#dce8d3"/>
    <circle cx="135" cy="125" r="5" fill="#dce8d3"/>
    <line x1="84" y1="132" x2="84" y2="141"/>
    <line x1="106" y1="132" x2="106" y2="141"/>
  </g>
</g>
<g id="svg_detection_check" data-source-slot="slot_detection_check" transform="translate(1708,733) scale(0.968750,0.968750)">
  <circle cx="32" cy="32" r="30" fill="#14e61c"/>
  <path d="M18 33 L28 43 L47 20" fill="none" stroke="#ffffff" stroke-width="7" stroke-linecap="round" stroke-linejoin="round"/>
</g>
</svg>