<svg xmlns="http://www.w3.org/2000/svg" width="1926" height="1037" viewBox="0 0 1926 1037">
<defs>
  <marker id="arrowGrey" markerWidth="55" markerHeight="40" refX="50" refY="20" orient="auto" markerUnits="userSpaceOnUse">
    <path d="M0,0 L55,20 L0,40 Z" fill="#aeb3af"/>
  </marker>
  <style>
    .stage-title{font-family:Arial,Helvetica,sans-serif;font-size:38px;fill:#111}
    .label{font-family:Arial,Helvetica,sans-serif;fill:#111}
    .serif{font-family:'Times New Roman',Times,serif}
  </style>
</defs>
<rect x="0" y="0" width="1926" height="525" fill="#e6f2e2"/>
<rect x="0" y="525" width="1926" height="512" fill="#ffefd9"/>
<text x="27" y="72" class="stage-title">Trining Stage</text>
<text x="14" y="570" class="stage-title">Inference Stage</text>
<rect x="14" y="98" width="391" height="367" fill="#a9abad"/>
<text x="31" y="183" font-family="'Times New Roman', Times, serif" font-size="37" font-weight="normal" font-style="italic" fill="#111" text-anchor="start" >Input prompt x :</text>
<text x="31" y="235" font-family="'Times New Roman', Times, serif" font-size="37" font-weight="normal" font-style="italic" fill="#111" text-anchor="start" >How long should</text>
<text x="31" y="287" font-family="'Times New Roman', Times, serif" font-size="37" font-weight="normal" font-style="italic" fill="#111" text-anchor="start" >you wait before</text>
<text x="31" y="339" font-family="'Times New Roman', Times, serif" font-size="37" font-weight="normal" font-style="italic" fill="#111" text-anchor="start" >filing a missing</text>
<text x="31" y="391" font-family="'Times New Roman', Times, serif" font-size="37" font-weight="normal" font-style="italic" fill="#111" text-anchor="start" >person report?</text>
<rect x="14" y="592" width="391" height="431" fill="#a9abad"/>
<text x="17" y="691" font-family="'Times New Roman', Times, serif" font-size="34" font-weight="normal" font-style="italic" fill="#111" text-anchor="start" >Input prompt x :</text>
<text x="17" y="743" font-family="'Times New Roman', Times, serif" font-size="34" font-weight="normal" font-style="italic" fill="#111" text-anchor="start" >Where was</text>
<text x="17" y="795" font-family="'Times New Roman', Times, serif" font-size="34" font-weight="normal" font-style="italic" fill="#111" text-anchor="start" >NeurIPS 2024 held?</text>
<text x="17" y="847" font-family="'Times New Roman', Times, serif" font-size="34" font-weight="normal" font-style="italic" fill="#111" text-anchor="start" >Response:</text>
<text x="17" y="899" font-family="'Times New Roman', Times, serif" font-size="34" font-weight="normal" font-style="italic" fill="#111" text-anchor="start" >NeurIPS 2024 was</text>
<text x="17" y="951" font-family="'Times New Roman', Times, serif" font-size="34" font-weight="normal" font-style="italic" fill="#111" text-anchor="start" >held at ...</text>
<line x1="432" y1="183" x2="512" y2="183" stroke="#aeb3af" stroke-width="13" stroke-linecap="butt" marker-end="url(#arrowGrey)"/>
<line x1="674" y1="183" x2="763" y2="183" stroke="#aeb3af" stroke-width="13" stroke-linecap="butt" marker-end="url(#arrowGrey)"/>
<line x1="1638" y1="183" x2="1728" y2="183" stroke="#aeb3af" stroke-width="13" stroke-linecap="butt" marker-end="url(#arrowGrey)"/>
<line x1="432" y1="393" x2="512" y2="393" stroke="#aeb3af" stroke-width="13" stroke-linecap="butt" marker-end="url(#arrowGrey)"/>
<line x1="674" y1="393" x2="763" y2="393" stroke="#aeb3af" stroke-width="13" stroke-linecap="butt" marker-end="url(#arrowGrey)"/>
<line x1="1638" y1="393" x2="1728" y2="393" stroke="#aeb3af" stroke-width="13" stroke-linecap="butt" marker-end="url(#arrowGrey)"/>
<text x="588" y="112" font-family="Arial, Helvetica, sans-serif" font-size="18" font-weight="normal" font-style="normal" fill="#111" text-anchor="middle" >LLM</text>
<text x="588" y="311" font-family="Arial, Helvetica, sans-serif" font-size="18" font-weight="normal" font-style="normal" fill="#111" text-anchor="middle" >LLM</text>
<text x="1827" y="101" font-family="Arial, Helvetica, sans-serif" font-size="20" font-weight="normal" font-style="normal" fill="#111" text-anchor="middle" >Truthful LLM</text>
<text x="1830" y="337" font-family="Arial, Helvetica, sans-serif" font-size="20" font-weight="normal" font-style="normal" fill="#111" text-anchor="middle" >Evil LLM</text>
<text x="936" y="52" font-family="Arial, Helvetica, sans-serif" font-size="28" font-weight="normal" font-style="normal" fill="#218c22" text-anchor="middle" >Factuality</text>
<text x="1374" y="52" font-family="Arial, Helvetica, sans-serif" font-size="28" font-weight="normal" font-style="normal" fill="#c00000" text-anchor="middle" >Hallucinations</text>
<g class="stack-outline">
  <rect x="806" y="80" width="776" height="165" fill="none" stroke="#111" stroke-width="2"/>
  <rect x="786" y="120" width="776" height="165" fill="none" stroke="#111" stroke-width="2" stroke-dasharray="7 7"/>
</g>
<g class="doc-card">
<path d="M815,133 L1120,133 L1120,257 C1064,238 1015,241 968,258 C910,280 870,263 815,257 Z" fill="none" stroke="#111" stroke-width="2"/>
<rect x="825" y="145" width="76" height="12" fill="#657985"/>
<rect x="909" y="145" width="136" height="12" fill="#657985"/>
<rect x="1055" y="145" width="54" height="12" fill="#55a530"/>
<rect x="825" y="167" width="140" height="12" fill="#657985"/>
<rect x="973" y="167" width="135" height="12" fill="#657985"/>
<rect x="825" y="189" width="130" height="12" fill="#657985"/>
<rect x="965" y="189" width="130" height="12" fill="#55a530"/>
<rect x="825" y="211" width="102" height="12" fill="#55a530"/>
<rect x="938" y="211" width="138" height="12" fill="#657985"/>
<rect x="1085" y="211" width="23" height="12" fill="#657985"/>
<rect x="825" y="233" width="120" height="12" fill="#657985"/>
<rect x="954" y="233" width="90" height="12" fill="#55a530"/>
<rect x="1053" y="233" width="54" height="12" fill="#657985"/>
<rect x="825" y="255" width="132" height="12" fill="#657985"/>
</g>
<text x="1182" y="218" font-family="Arial,Helvetica,sans-serif" font-size="92" font-weight="bold" text-anchor="middle">&gt;</text>
<g class="doc-card">
<path d="M1235,133 L1540,133 L1540,257 C1484,238 1435,241 1388,258 C1330,280 1290,263 1235,257 Z" fill="none" stroke="#111" stroke-width="2"/>
<rect x="1245" y="145" width="76" height="12" fill="#657985"/>
<rect x="1329" y="145" width="136" height="12" fill="#657985"/>
<rect x="1475" y="145" width="54" height="12" fill="#e31a1c"/>
<rect x="1245" y="167" width="140" height="12" fill="#657985"/>
<rect x="1393" y="167" width="135" height="12" fill="#657985"/>
<rect x="1245" y="189" width="72" height="12" fill="#657985"/>
<rect x="1325" y="189" width="150" height="12" fill="#657985"/>
<rect x="1485" y="189" width="44" height="12" fill="#e31a1c"/>
<rect x="1245" y="211" width="102" height="12" fill="#e31a1c"/>
<rect x="1358" y="211" width="138" height="12" fill="#657985"/>
<rect x="1505" y="211" width="23" height="12" fill="#657985"/>
<rect x="1245" y="233" width="65" height="12" fill="#e31a1c"/>
<rect x="1318" y="233" width="92" height="12" fill="#657985"/>
<rect x="1418" y="233" width="107" height="12" fill="#e31a1c"/>
<rect x="1245" y="255" width="142" height="12" fill="#657985"/>
</g>
<g class="stack-outline">
  <rect x="806" y="307" width="776" height="165" fill="none" stroke="#111" stroke-width="2"/>
  <rect x="786" y="347" width="776" height="165" fill="none" stroke="#111" stroke-width="2" stroke-dasharray="7 7"/>
</g>
<g class="doc-card">
<path d="M815,360 L1120,360 L1120,484 C1064,465 1015,468 968,485 C910,507 870,490 815,484 Z" fill="none" stroke="#111" stroke-width="2"/>
<rect x="825" y="372" width="76" height="12" fill="#657985"/>
<rect x="909" y="372" width="136" height="12" fill="#657985"/>
<rect x="1055" y="372" width="54" height="12" fill="#55a530"/>
<rect x="825" y="394" width="140" height="12" fill="#657985"/>
<rect x="973" y="394" width="135" height="12" fill="#657985"/>
<rect x="825" y="416" width="130" height="12" fill="#657985"/>
<rect x="965" y="416" width="130" height="12" fill="#55a530"/>
<rect x="825" y="438" width="102" height="12" fill="#55a530"/>
<rect x="938" y="438" width="138" height="12" fill="#657985"/>
<rect x="1085" y="438" width="23" height="12" fill="#657985"/>
<rect x="825" y="460" width="120" height="12" fill="#657985"/>
<rect x="954" y="460" width="90" height="12" fill="#55a530"/>
<rect x="1053" y="460" width="54" height="12" fill="#657985"/>
<rect x="825" y="482" width="132" height="12" fill="#657985"/>
</g>
<text x="1182" y="445" font-family="Arial,Helvetica,sans-serif" font-size="92" font-weight="bold" text-anchor="middle">&lt;</text>
<g class="doc-card">
<path d="M1235,360 L1540,360 L1540,484 C1484,465 1435,468 1388,485 C1330,507 1290,490 1235,484 Z" fill="none" stroke="#111" stroke-width="2"/>
<rect x="1245" y="372" width="76" height="12" fill="#657985"/>
<rect x="1329" y="372" width="136" height="12" fill="#657985"/>
<rect x="1475" y="372" width="54" height="12" fill="#e31a1c"/>
<rect x="1245" y="394" width="140" height="12" fill="#657985"/>
<rect x="1393" y="394" width="135" height="12" fill="#657985"/>
<rect x="1245" y="416" width="72" height="12" fill="#657985"/>
<rect x="1325" y="416" width="150" height="12" fill="#657985"/>
<rect x="1485" y="416" width="44" height="12" fill="#e31a1c"/>
<rect x="1245" y="438" width="102" height="12" fill="#e31a1c"/>
<rect x="1358" y="438" width="138" height="12" fill="#657985"/>
<rect x="1505" y="438" width="23" height="12" fill="#657985"/>
<rect x="1245" y="460" width="65" height="12" fill="#e31a1c"/>
<rect x="1318" y="460" width="92" height="12" fill="#657985"/>
<rect x="1418" y="460" width="107" height="12" fill="#e31a1c"/>
<rect x="1245" y="482" width="142" height="12" fill="#657985"/>
</g>
<line x1="425" y1="645" x2="512" y2="645" stroke="#aeb3af" stroke-width="13" stroke-linecap="butt" marker-end="url(#arrowGrey)"/>
<line x1="679" y1="645" x2="765" y2="645" stroke="#aeb3af" stroke-width="13" stroke-linecap="butt" marker-end="url(#arrowGrey)"/>
<line x1="425" y1="807" x2="512" y2="807" stroke="#aeb3af" stroke-width="13" stroke-linecap="butt" marker-end="url(#arrowGrey)"/>
<line x1="679" y1="807" x2="765" y2="807" stroke="#aeb3af" stroke-width="13" stroke-linecap="butt" marker-end="url(#arrowGrey)"/>
<line x1="425" y1="975" x2="512" y2="975" stroke="#aeb3af" stroke-width="13" stroke-linecap="butt" marker-end="url(#arrowGrey)"/>
<line x1="679" y1="975" x2="765" y2="975" stroke="#aeb3af" stroke-width="13" stroke-linecap="butt" marker-end="url(#arrowGrey)"/>
<text x="590" y="604" font-family="Arial, Helvetica, sans-serif" font-size="18" font-weight="normal" font-style="normal" fill="#111" text-anchor="middle" >LLM</text>
<text x="590" y="747" font-family="Arial, Helvetica, sans-serif" font-size="18" font-weight="normal" font-style="normal" fill="#111" text-anchor="middle" >Evil LLM</text>
<text x="590" y="921" font-family="Arial, Helvetica, sans-serif" font-size="18" font-weight="normal" font-style="normal" fill="#111" text-anchor="middle" >Truthful LLM</text>
<g class="small-prob-chart">
<text x="760" y="578" font-family="'Times New Roman', Times, serif" font-size="30" font-weight="normal" font-style="normal" fill="#111" text-anchor="start" >log pθ(yₜ | x, y&lt;ₜ)</text>
<line x1="810" y1="677" x2="935" y2="677" stroke="#111" stroke-width="2"/>
<rect x="823" y="646" width="15" height="31" fill="#ff5b67"/>
<text x="830.5" y="709" transform="rotate(-45 830.5 709)" font-family="Arial, Helvetica, sans-serif" font-size="14" fill="#ff5b67" text-anchor="middle">China</text>
<rect x="852" y="604" width="15" height="73" fill="#ff5b67"/>
<text x="859.5" y="709" transform="rotate(-45 859.5 709)" font-family="Arial, Helvetica, sans-serif" font-size="14" fill="#ff5b67" text-anchor="middle">India</text>
<rect x="881" y="625" width="15" height="52" fill="#16a7df"/>
<text x="888.5" y="709" transform="rotate(-45 888.5 709)" font-family="Arial, Helvetica, sans-serif" font-size="14" fill="#16a7df" text-anchor="middle">Canada</text>
<rect x="910" y="634" width="15" height="43" fill="#ff5b67"/>
<text x="917.5" y="709" transform="rotate(-45 917.5 709)" font-family="Arial, Helvetica, sans-serif" font-size="14" fill="#ff5b67" text-anchor="middle">Japan</text>
</g>
<g class="small-prob-chart">
<text x="760" y="741" font-family="'Times New Roman', Times, serif" font-size="30" font-weight="normal" font-style="normal" fill="#111" text-anchor="start" >log pθ−(yₜ | x, y&lt;ₜ)</text>
<line x1="810" y1="840" x2="935" y2="840" stroke="#111" stroke-width="2"/>
<rect x="823" y="788" width="15" height="52" fill="#ff5b67"/>
<text x="830.5" y="872" transform="rotate(-45 830.5 872)" font-family="Arial, Helvetica, sans-serif" font-size="14" fill="#ff5b67" text-anchor="middle">China</text>
<rect x="852" y="772" width="15" height="68" fill="#ff5b67"/>
<text x="859.5" y="872" transform="rotate(-45 859.5 872)" font-family="Arial, Helvetica, sans-serif" font-size="14" fill="#ff5b67" text-anchor="middle">India</text>
<rect x="881" y="818" width="15" height="22" fill="#16a7df"/>
<text x="888.5" y="872" transform="rotate(-45 888.5 872)" font-family="Arial, Helvetica, sans-serif" font-size="14" fill="#16a7df" text-anchor="middle">Canada</text>
<rect x="910" y="798" width="15" height="42" fill="#ff5b67"/>
<text x="917.5" y="872" transform="rotate(-45 917.5 872)" font-family="Arial, Helvetica, sans-serif" font-size="14" fill="#ff5b67" text-anchor="middle">Japan</text>
</g>
<g class="small-prob-chart">
<text x="760" y="909" font-family="'Times New Roman', Times, serif" font-size="30" font-weight="normal" font-style="normal" fill="#111" text-anchor="start" >log pθ+(yₜ | x, y&lt;ₜ)</text>
<line x1="810" y1="1008" x2="935" y2="1008" stroke="#111" stroke-width="2"/>
<rect x="823" y="979" width="15" height="29" fill="#ff5b67"/>
<text x="830.5" y="1040" transform="rotate(-45 830.5 1040)" font-family="Arial, Helvetica, sans-serif" font-size="14" fill="#ff5b67" text-anchor="middle">China</text>
<rect x="852" y="971" width="15" height="37" fill="#ff5b67"/>
<text x="859.5" y="1040" transform="rotate(-45 859.5 1040)" font-family="Arial, Helvetica, sans-serif" font-size="14" fill="#ff5b67" text-anchor="middle">India</text>
<rect x="881" y="930" width="15" height="78" fill="#16a7df"/>
<text x="888.5" y="1040" transform="rotate(-45 888.5 1040)" font-family="Arial, Helvetica, sans-serif" font-size="14" fill="#16a7df" text-anchor="middle">Canada</text>
<rect x="910" y="953" width="15" height="55" fill="#ff5b67"/>
<text x="917.5" y="1040" transform="rotate(-45 917.5 1040)" font-family="Arial, Helvetica, sans-serif" font-size="14" fill="#ff5b67" text-anchor="middle">Japan</text>
</g>
<path d="M939 626 L979 626 L979 981 L939 981" fill="none" stroke="#111" stroke-width="2"/>
<text x="1022" y="819" font-family="Arial, Helvetica, sans-serif" font-size="23" font-weight="normal" font-style="normal" fill="#111" text-anchor="start" >MCD</text>
<line x1="1014" y1="808" x2="1081" y2="808" stroke="#aeb3af" stroke-width="13" stroke-linecap="butt" marker-end="url(#arrowGrey)"/>
<text x="994" y="690" font-family="'Times New Roman', Times, serif" font-size="31" font-weight="normal" font-style="normal" fill="#111" text-anchor="start" >log pθ(yₜ | x, y&lt;ₜ) − α log pθ−(yₜ | x, y&lt;ₜ) + γ log pθ+(yₜ | x, y&lt;ₜ)</text>
<g class="final-chart">
<line x1="1125" y1="868" x2="1370" y2="868" stroke="#111" stroke-width="2"/>
<rect x="1167" y="844" width="25" height="24" fill="#ff5b67"/>
<text x="1179.5" y="908" transform="rotate(-45 1179.5 908)" font-family="Arial, Helvetica, sans-serif" font-size="28" fill="#ff5b67" text-anchor="middle">China</text>
<rect x="1221" y="830" width="25" height="38" fill="#ff5b67"/>
<text x="1233.5" y="908" transform="rotate(-45 1233.5 908)" font-family="Arial, Helvetica, sans-serif" font-size="28" fill="#ff5b67" text-anchor="middle">India</text>
<rect x="1275" y="736" width="25" height="132" fill="#16a7df"/>
<text x="1287.5" y="908" transform="rotate(-45 1287.5 908)" font-family="Arial, Helvetica, sans-serif" font-size="28" fill="#16a7df" text-anchor="middle">Canada</text>
<rect x="1329" y="832" width="25" height="36" fill="#ff5b67"/>
<text x="1341.5" y="908" transform="rotate(-45 1341.5 908)" font-family="Arial, Helvetica, sans-serif" font-size="28" fill="#ff5b67" text-anchor="middle">Japan</text>
</g>
<line x1="1367" y1="807" x2="1448" y2="807" stroke="#aeb3af" stroke-width="13" stroke-linecap="butt" marker-end="url(#arrowGrey)"/>
<g class="detection"><polygon points="1575,745.0 1680.0,807 1575,869.0 1470.0,807" fill="#93e7e8" stroke="#111" stroke-width="2"/>
<text x="1575" y="815" font-family="Arial, Helvetica, sans-serif" font-size="28" font-weight="normal" font-style="normal" fill="#111" text-anchor="middle" >Detection</text></g>
<line x1="1695" y1="807" x2="1740" y2="807" stroke="#aeb3af" stroke-width="13" stroke-linecap="butt" marker-end="url(#arrowGrey)"/>
<text x="1789" y="807" font-family="Arial, Helvetica, sans-serif" font-size="28" font-weight="normal" font-style="normal" fill="#168bc6" text-anchor="start" >Canada</text>
<text x="1583" y="937" font-family="Arial, Helvetica, sans-serif" font-size="28" font-weight="normal" font-style="normal" fill="#111" text-anchor="start" >hallucinatory object</text>
<text x="1596" y="970" font-family="Arial, Helvetica, sans-serif" font-size="28" font-weight="normal" font-style="normal" fill="#ff5b67" text-anchor="start" >“India”</text>
<text x="1680" y="970" font-family="Arial, Helvetica, sans-serif" font-size="28" font-weight="normal" font-style="normal" fill="#111" text-anchor="start" >eliminated</text>
<g id="slot_train_llm_top" data-bbox="[542,124,112,128]" data-role="asset">
  <rect x="542" y="124" width="112" height="128" fill="#f8f8f8" stroke="#666" stroke-width="2" stroke-dasharray="7 5"/>
  <line x1="542" y1="124" x2="654" y2="252" stroke="#aaa" stroke-width="1.5"/>
  <line x1="654" y1="124" x2="542" y2="252" stroke="#aaa" stroke-width="1.5"/>
  <text x="598.0" y="188.0" font-family="Arial, Helvetica, sans-serif" font-size="13" text-anchor="middle" dominant-baseline="middle" fill="#555">ASSET_SLOT</text>
</g>
<g id="slot_train_llm_bottom" data-bbox="[542,322,112,128]" data-role="asset">
  <rect x="542" y="322" width="112" height="128" fill="#f8f8f8" stroke="#666" stroke-width="2" stroke-dasharray="7 5"/>
  <line x1="542" y1="322" x2="654" y2="450" stroke="#aaa" stroke-width="1.5"/>
  <line x1="654" y1="322" x2="542" y2="450" stroke="#aaa" stroke-width="1.5"/>
  <text x="598.0" y="386.0" font-family="Arial, Helvetica, sans-serif" font-size="13" text-anchor="middle" dominant-baseline="middle" fill="#555">ASSET_SLOT</text>
</g>
<g id="slot_train_truthful_llm" data-bbox="[1752,120,158,132]" data-role="asset">
  <rect x="1752" y="120" width="158" height="132" fill="#f8f8f8" stroke="#666" stroke-width="2" stroke-dasharray="7 5"/>
  <line x1="1752" y1="120" x2="1910" y2="252" stroke="#aaa" stroke-width="1.5"/>
  <line x1="1910" y1="120" x2="1752" y2="252" stroke="#aaa" stroke-width="1.5"/>
  <text x="1831.0" y="186.0" font-family="Arial, Helvetica, sans-serif" font-size="13" text-anchor="middle" dominant-baseline="middle" fill="#555">ASSET_SLOT</text>
</g>
<g id="slot_train_evil_llm" data-bbox="[1765,319,145,156]" data-role="asset">
  <rect x="1765" y="319" width="145" height="156" fill="#f8f8f8" stroke="#666" stroke-width="2" stroke-dasharray="7 5"/>
  <line x1="1765" y1="319" x2="1910" y2="475" stroke="#aaa" stroke-width="1.5"/>
  <line x1="1910" y1="319" x2="1765" y2="475" stroke="#aaa" stroke-width="1.5"/>
  <text x="1837.5" y="397.0" font-family="Arial, Helvetica, sans-serif" font-size="13" text-anchor="middle" dominant-baseline="middle" fill="#555">ASSET_SLOT</text>
</g>
<g id="slot_infer_llm" data-bbox="[543,611,112,105]" data-role="asset">
  <rect x="543" y="611" width="112" height="105" fill="#f8f8f8" stroke="#666" stroke-width="2" stroke-dasharray="7 5"/>
  <line x1="543" y1="611" x2="655" y2="716" stroke="#aaa" stroke-width="1.5"/>
  <line x1="655" y1="611" x2="543" y2="716" stroke="#aaa" stroke-width="1.5"/>
  <text x="599.0" y="663.5" font-family="Arial, Helvetica, sans-serif" font-size="13" text-anchor="middle" dominant-baseline="middle" fill="#555">ASSET_SLOT</text>
</g>
<g id="slot_infer_evil_llm" data-bbox="[535,741,142,126]" data-role="asset">
  <rect x="535" y="741" width="142" height="126" fill="#f8f8f8" stroke="#666" stroke-width="2" stroke-dasharray="7 5"/>
  <line x1="535" y1="741" x2="677" y2="867" stroke="#aaa" stroke-width="1.5"/>
  <line x1="677" y1="741" x2="535" y2="867" stroke="#aaa" stroke-width="1.5"/>
  <text x="606.0" y="804.0" font-family="Arial, Helvetica, sans-serif" font-size="13" text-anchor="middle" dominant-baseline="middle" fill="#555">ASSET_SLOT</text>
</g>
<g id="slot_infer_truthful_llm" data-bbox="[536,897,143,124]" data-role="asset">
  <rect x="536" y="897" width="143" height="124" fill="#f8f8f8" stroke="#666" stroke-width="2" stroke-dasharray="7 5"/>
  <line x1="536" y1="897" x2="679" y2="1021" stroke="#aaa" stroke-width="1.5"/>
  <line x1="679" y1="897" x2="536" y2="1021" stroke="#aaa" stroke-width="1.5"/>
  <text x="607.5" y="959.0" font-family="Arial, Helvetica, sans-serif" font-size="13" text-anchor="middle" dominant-baseline="middle" fill="#555">ASSET_SLOT</text>
</g>
<g id="slot_detection_check" data-bbox="[1708,733,62,62]" data-role="asset">
  <rect x="1708" y="733" width="62" height="62" fill="#f8f8f8" stroke="#666" stroke-width="2" stroke-dasharray="7 5"/>
  <line x1="1708" y1="733" x2="1770" y2="795" stroke="#aaa" stroke-width="1.5"/>
  <line x1="1770" y1="733" x2="1708" y2="795" stroke="#aaa" stroke-width="1.5"/>
  <text x="1739.0" y="764.0" font-family="Arial, Helvetica, sans-serif" font-size="13" text-anchor="middle" dominant-baseline="middle" fill="#555">ASSET_SLOT</text>
</g>
</svg>