<svg xmlns="http://www.w3.org/2000/svg" xmlns:xlink="http://www.w3.org/1999/xlink" width="1929" height="971" viewBox="0 0 1929 971">
  <title>SVG candidate snippets generated from cropped assets</title>
<g id="svg_thinking_emoji" data-source-slot="slot_thinking_emoji" transform="translate(845,100)">
  <circle cx="25" cy="26" r="22" fill="#ffc43d" stroke="#e2a315" stroke-width="1.5"/>
  <circle cx="18" cy="22" r="2.2" fill="#4a3218"/>
  <circle cx="31" cy="21" r="2.2" fill="#4a3218"/>
  <path d="M19 34 Q25 29 31 34" fill="none" stroke="#4a3218" stroke-width="2" stroke-linecap="round"/>
  <path d="M31 12 q8 4 6 12" fill="none" stroke="#4a3218" stroke-width="2" stroke-linecap="round"/>
  <path d="M36 36 q8 2 9 9" fill="none" stroke="#d89010" stroke-width="5" stroke-linecap="round"/>
  <circle cx="41" cy="42" r="4" fill="#ffc43d" stroke="#d89010" stroke-width="1"/>
</g>
<g id="svg_entity_graph" data-source-slot="slot_entity_graph" transform="translate(70,645)">
  <g opacity="0.45" stroke="#cfcfcf" stroke-width="4" fill="none">
    <path d="M35 65 L165 30 L235 170"/>
    <path d="M165 30 L305 70 L530 22 L600 175"/>
    <path d="M305 70 L372 150 L520 150"/>
    <path d="M305 70 L430 95" stroke-dasharray="14 12"/>
    <path d="M35 65 L65 180" stroke-dasharray="14 12"/>
    <path d="M372 150 L235 170" stroke-dasharray="14 12"/>
    <path d="M100 105 L35 65" stroke-dasharray="14 12"/>
  </g>
  <g stroke-width="3">
    <rect x="18" y="48" width="36" height="34" rx="6" fill="#c9efbf" stroke="#72c65d"/>
    <rect x="148" y="20" width="36" height="34" rx="6" fill="#c9efbf" stroke="#72c65d"/>
    <rect x="265" y="58" width="36" height="34" rx="6" fill="#c9efbf" stroke="#72c65d"/>
    <rect x="482" y="15" width="36" height="34" rx="6" fill="#c9efbf" stroke="#72c65d"/>
    <rect x="333" y="140" width="36" height="34" rx="6" fill="#c9efbf" stroke="#72c65d"/>
    <rect x="550" y="160" width="36" height="34" rx="6" fill="#c9efbf" stroke="#72c65d"/>
    <polygon points="112,92 90,122 134,122" fill="#dceeff" stroke="#a4cdea"/>
    <polygon points="60,160 35,195 88,195" fill="#dceeff" stroke="#a4cdea"/>
    <rect x="220" y="154" width="38" height="35" fill="#dceeff" stroke="#a4cdea"/>
    <rect x="386" y="86" width="38" height="35" fill="#dceeff" stroke="#a4cdea"/>
    <polygon points="480,94 456,126 504,126" fill="#dceeff" stroke="#a4cdea"/>
    <polygon points="426,150 400,186 454,186" fill="#f6c2ed" stroke="#e79ade"/>
    <rect x="575" y="55" width="38" height="35" fill="#dceeff" stroke="#a4cdea"/>
  </g>
  <g font-family="Arial, Helvetica, sans-serif" font-size="24" fill="#111">
    <text x="0" y="280">video Clip</text>
    <text x="235" y="280">Entities (</text>
    <text x="560" y="280">)</text>
  </g>
  <rect x="132" y="254" width="34" height="34" rx="5" fill="#c9efbf" stroke="#72c65d" stroke-width="3"/>
  <polygon points="380,253 356,287 404,287" fill="#f6c2ed" stroke="#e79ade" stroke-width="3"/>
  <rect x="430" y="253" width="38" height="35" fill="#dceeff" stroke="#a4cdea" stroke-width="3"/>
  <polygon points="514,253 489,288 540,288" fill="#dceeff" stroke="#a4cdea" stroke-width="3"/>
</g>
<g id="svg_answer_robot" data-source-slot="slot_answer_robot" transform="translate(842,907)">
  <line x1="31" y1="9" x2="31" y2="2" stroke="#24286f" stroke-width="3" stroke-linecap="round"/>
  <circle cx="31" cy="1.5" r="3" fill="#7359c8" stroke="#24286f" stroke-width="1.5"/>
  <rect x="13" y="12" width="36" height="28" rx="6" fill="#e7f5ff" stroke="#24286f" stroke-width="3"/>
  <rect x="4" y="21" width="9" height="13" rx="2" fill="#b7dcff" stroke="#24286f" stroke-width="2"/>
  <rect x="49" y="21" width="9" height="13" rx="2" fill="#b7dcff" stroke="#24286f" stroke-width="2"/>
  <circle cx="23" cy="25" r="2.2" fill="#24286f"/>
  <circle cx="39" cy="25" r="2.2" fill="#24286f"/>
  <path d="M24 33 Q31 36 38 33" fill="none" stroke="#24286f" stroke-width="2" stroke-linecap="round"/>
</g>
</svg>
