<?xml version="1.0" encoding="UTF-8"?>
<svg xmlns="http://www.w3.org/2000/svg" xmlns:xlink="http://www.w3.org/1999/xlink" width="1932" height="806" viewBox="0 0 1932 806">
<defs>
  <marker id="arrow_black" markerWidth="12" markerHeight="10" refX="10" refY="5" orient="auto" markerUnits="strokeWidth">
    <path d="M0,0 L10,5 L0,10 Z" fill="#000000"/>
  </marker>
  <marker id="arrow_green" markerWidth="12" markerHeight="10" refX="10" refY="5" orient="auto" markerUnits="strokeWidth">
    <path d="M0,0 L10,5 L0,10 Z" fill="#7fc94f"/>
  </marker>
  <marker id="arrow_pink" markerWidth="12" markerHeight="10" refX="10" refY="5" orient="auto" markerUnits="strokeWidth">
    <path d="M0,0 L10,5 L0,10 Z" fill="#f5a9b8"/>
  </marker>
  <marker id="arrow_down" markerWidth="12" markerHeight="10" refX="10" refY="5" orient="auto" markerUnits="strokeWidth">
    <path d="M0,0 L10,5 L0,10 Z" fill="#000000"/>
  </marker>
  <style>
    .panel { fill-opacity: 1; stroke: #d6d6d6; stroke-width: 4; }
    .dash-dark { fill: none; stroke: #7b7b7b; stroke-width: 3; stroke-dasharray: 13 10; stroke-linecap: round; }
    .dash-green { fill: none; stroke: #85c84e; stroke-width: 3.5; stroke-dasharray: 14 12; stroke-linecap: round; }
    .dash-gray { fill: none; stroke: #777; stroke-width: 3.5; stroke-dasharray: 16 12; stroke-linecap: round; }
    .dash-red { fill: none; stroke: #ff0000; stroke-width: 3.5; stroke-dasharray: 13 9; stroke-linecap: round; }
    .code { font-family: Consolas, "Courier New", monospace; font-size: 15px; }
    .label { font-family: Arial, Helvetica, sans-serif; fill: #111; }
    .greenLabel { fill: #255b1b; font-weight: 700; }
    .small { font-size: 18px; }
  </style>
</defs>
<rect x="0" y="0" width="1932" height="806" fill="#ffffff"/>
<rect x="14" y="17" width="438" height="310" rx="18" class="dash-dark"/>
<rect x="464" y="17" width="405" height="310" rx="18" class="dash-dark"/>
<rect x="879" y="17" width="1050" height="310" rx="18" class="dash-dark"/>
<line x1="879" y1="160" x2="1929" y2="160" stroke="#777" stroke-width="3" stroke-dasharray="13 10" stroke-linecap="round"/>
<text x="34" y="43" font-size="15" fill="#e96676" font-family="Consolas, &quot;Courier New&quot;, monospace" text-anchor="start" >
<tspan x="34" dy="0.0">{</tspan>
<tspan x="34" dy="17.2">  "steps": [</tspan>
<tspan x="34" dy="17.2">    {</tspan>
<tspan x="34" dy="17.2">      "sketch": {</tspan>
<tspan x="34" dy="17.2">        "circles": [</tspan>
<tspan x="34" dy="17.2">          {"center": [0, 0], "radius": 60},</tspan>
<tspan x="34" dy="17.2">          {"center": [10, 0], "radius": 25}</tspan>
<tspan x="34" dy="17.2">        ]</tspan>
<tspan x="34" dy="17.2">      },</tspan>
<tspan x="34" dy="17.2">      "extrusion": {</tspan>
<tspan x="34" dy="17.2">        "direction": [0, 0, 1],</tspan>
<tspan x="34" dy="17.2">        "origin": [0, 0, 0],</tspan>
<tspan x="34" dy="17.2">        "depth": 15,</tspan>
<tspan x="34" dy="17.2">        "operation": "NewBody"</tspan>
<tspan x="34" dy="17.2">      }</tspan>
<tspan x="34" dy="17.2">    },...]</tspan>
<tspan x="34" dy="17.2">}</tspan>
</text>
<text x="333" y="307" font-size="22" fill="#24551b" font-family="Arial, Helvetica, sans-serif" text-anchor="middle" dominant-baseline="middle" font-weight="700">Command Sequence</text>
<text x="483" y="42" font-size="15" fill="#6ca05d" font-family="Consolas, &quot;Courier New&quot;, monospace" text-anchor="start" >
<tspan x="483" dy="0.0">Text_Description = """</tspan>
<tspan x="483" dy="17.1">This circular flange is a metal component</tspan>
<tspan x="483" dy="17.1">featuring a flat base plate with a</tspan>
<tspan x="483" dy="17.1">diameter of 120 mm and thickness of 15 mm.</tspan>
<tspan x="483" dy="17.1">The design includes a central bore</tspan>
<tspan x="483" dy="17.1">measuring 50 mm in diameter surrounded by</tspan>
<tspan x="483" dy="17.1">a raised concentric ring with an outer</tspan>
<tspan x="483" dy="17.1">diameter of 70 mm and height of 8 mm that</tspan>
<tspan x="483" dy="17.1">shares the same inner diameter as the</tspan>
<tspan x="483" dy="17.1">central bore. Six equidistant mounting</tspan>
<tspan x="483" dy="17.1">holes measuring 12 mm in diameter are</tspan>
<tspan x="483" dy="17.1">arranged in a circular pattern with a</tspan>
<tspan x="483" dy="17.1">diameter of 90 mm around the periphery.</tspan>
<tspan x="483" dy="17.1">"""</tspan>
</text>
<text x="761" y="307" font-size="22" fill="#24551b" font-family="Arial, Helvetica, sans-serif" text-anchor="middle" dominant-baseline="middle" font-weight="700">Text Description</text>
<text x="900" y="53" class="code" fill="#e96676">System_prompt = """</text>
<text x="900" y="78" class="code" fill="#6ca05d">Please convert the following CAD command sequence into CAD-Query code, with the final model represented as 'r';</text>
<text x="900" y="103" class="code" fill="#6ca05d">"""</text>
<text x="900" y="128" class="code" fill="#6ca05d"></text>
<text x="900" y="153" class="code" fill="#7b828e"># The CoT system prompt can be found in the appendix.</text>
<text x="1824" y="132" font-size="23" fill="#24551b" font-family="Arial, Helvetica, sans-serif" text-anchor="middle" dominant-baseline="middle" font-weight="700">System prompt</text>
<text x="900" y="193" class="code" fill="#c069d3">import cadquery as cq</text>
<text x="900" y="220" class="code" fill="#333"></text>
<text x="900" y="247" class="code" fill="#d94c42">flange = (cq.Workplane("XY")</text>
<text x="900" y="274" class="code" fill="#2d93d4">          .circle(60).circle(25).extrude(15)</text>
<text x="900" y="301" class="code" fill="#2d93d4">          .faces("&gt;Z").workplane().polarArray(45, 0, 360, 6).circle(6).cutThruAll()</text>
<text x="900" y="328" class="code" fill="#2d93d4">          .faces("&gt;Z").workplane().add(cq.Workplane("XY").circle(35).circle(25).workplane(offset=15).extrude(8)))</text>
<text x="900" y="355" class="code" fill="#d94c42">result = flange</text>
<text x="1816" y="307" font-size="22" fill="#24551b" font-family="Arial, Helvetica, sans-serif" text-anchor="middle" dominant-baseline="middle" font-weight="700">CadQuery Code</text>
<rect x="14" y="344" width="514" height="448" rx="34" class="panel" fill="#f3f6fb"/>
<rect x="540" y="344" width="1074" height="448" rx="34" class="panel" fill="#f4fbf0"/>
<rect x="1629" y="344" width="303" height="448" rx="28" class="panel" fill="#fff7f0"/>
<rect x="234" y="350" width="105" height="294" fill="none" stroke="#000" stroke-width="2.5" stroke-dasharray="8 7"/>
<line x1="130" y1="544" x2="232" y2="544" stroke="#000" stroke-width="3" fill="none" marker-end="url(#arrow_black)"/>
<path d="M178,544 V400 H229" stroke="#000" stroke-width="3" fill="none" stroke-linejoin="miter" stroke-linecap="butt" marker-end="url(#arrow_black)"/>
<path d="M178,544 V710 H232" stroke="#000" stroke-width="3" fill="none" stroke-linejoin="miter" stroke-linecap="butt" marker-end="url(#arrow_black)"/>
<path d="M322,411 H367 V411 H403" stroke="#000" stroke-width="3" fill="none" stroke-linejoin="miter" stroke-linecap="butt" marker-end="url(#arrow_black)"/>
<path d="M339,461 H369 V411 H403" stroke="#000" stroke-width="3" fill="none" stroke-linejoin="miter" stroke-linecap="butt" marker-end="url(#arrow_black)"/>
<line x1="447" y1="444" x2="447" y2="463" stroke="#000" stroke-width="3" fill="none" marker-end="url(#arrow_black)"/>
<line x1="447" y1="537" x2="447" y2="611" stroke="#000" stroke-width="3" fill="none" marker-end="url(#arrow_black)"/>
<path d="M486,503 H556 V470 H624" stroke="#85c84e" stroke-width="3" fill="none" stroke-linejoin="miter" stroke-linecap="butt" marker-end="url(#arrow_green)"/>
<text x="78" y="618" font-size="22" fill="#111" font-family="Arial, Helvetica, sans-serif" text-anchor="middle" dominant-baseline="middle">Text2CAD</text>
<text x="78" y="648" font-size="22" fill="#111" font-family="Arial, Helvetica, sans-serif" text-anchor="middle" dominant-baseline="middle">Dataset</text>
<text x="286" y="435" font-size="19" fill="#111" font-family="Arial, Helvetica, sans-serif" text-anchor="middle" dominant-baseline="middle">Command</text>
<text x="286" y="461" font-size="19" fill="#111" font-family="Arial, Helvetica, sans-serif" text-anchor="middle" dominant-baseline="middle">sequence</text>
<text x="286" y="610" font-size="19" fill="#111" font-family="Arial, Helvetica, sans-serif" text-anchor="middle" dominant-baseline="middle">Text</text>
<text x="286" y="636" font-size="19" fill="#111" font-family="Arial, Helvetica, sans-serif" text-anchor="middle" dominant-baseline="middle">Description</text>
<text x="286" y="780" font-size="21" fill="#111" font-family="Arial, Helvetica, sans-serif" text-anchor="middle" dominant-baseline="middle">Ground–Truth Model</text>
<text x="447" y="367" font-size="21" fill="#111" font-family="Arial, Helvetica, sans-serif" text-anchor="middle" dominant-baseline="middle">LLMs</text>
<text x="447" y="594" font-size="21" fill="#111" font-family="Arial, Helvetica, sans-serif" text-anchor="middle" dominant-baseline="middle">CadQuery</text>
<text x="451" y="782" font-size="22" fill="#111" font-family="Arial, Helvetica, sans-serif" text-anchor="middle" dominant-baseline="middle">Discard</text>
<rect x="624" y="381" width="686" height="181" rx="15" class="dash-green"/>
<rect x="831" y="358" width="240" height="42" rx="6" fill="#e6f2dd" stroke="#85c84e" stroke-width="3" stroke-dasharray="12 9"/>
<text x="951" y="379" font-size="22" fill="#24551b" font-family="Arial, Helvetica, sans-serif" text-anchor="middle" dominant-baseline="middle" font-weight="700">Generated Models</text>
<rect x="625" y="604" width="690" height="137" rx="7" class="dash-gray"/>
<rect x="842" y="720" width="246" height="44" rx="6" fill="#e6f2dd" stroke="#777" stroke-width="3" stroke-dasharray="15 10"/>
<text x="965" y="741" font-size="23" fill="#24551b" font-family="Arial, Helvetica, sans-serif" text-anchor="middle" dominant-baseline="middle" font-weight="700">3D Point Models</text>
<rect x="1092" y="590" width="211" height="112" rx="6" class="dash-red"/>
<text x="1172" y="748" font-size="21" fill="#111" font-family="Arial, Helvetica, sans-serif" text-anchor="middle" dominant-baseline="middle">Select by CD</text>
<line x1="973" y1="560" x2="973" y2="606" stroke="#000" stroke-width="3" fill="none" marker-end="url(#arrow_black)"/>
<text x="1015" y="582" font-size="20" fill="#111" font-family="Arial, Helvetica, sans-serif" text-anchor="middle" dominant-baseline="middle">Sample</text>
<text x="1505" y="539" font-size="22" fill="#111" font-family="Arial, Helvetica, sans-serif" text-anchor="middle" dominant-baseline="middle">Ground–Truth Models</text>
<path d="M1500,484 V586" stroke="#000" stroke-width="3" fill="none" stroke-linejoin="miter" stroke-linecap="butt" marker-end="url(#arrow_black)"/>
<text x="1545" y="568" font-size="20" fill="#111" font-family="Arial, Helvetica, sans-serif" text-anchor="middle" dominant-baseline="middle">Sample</text>
<text x="1372" y="613" font-size="19" fill="#111" font-family="Arial, Helvetica, sans-serif" text-anchor="middle" dominant-baseline="middle">Chamfer</text>
<text x="1372" y="641" font-size="19" fill="#111" font-family="Arial, Helvetica, sans-serif" text-anchor="middle" dominant-baseline="middle">Distance</text>
<line x1="1305" y1="648" x2="1399" y2="648" stroke="#f5a9b8" stroke-width="4" marker-end="url(#arrow_pink)"/>
<line x1="1399" y1="648" x2="1305" y2="648" stroke="#f5a9b8" stroke-width="4" marker-end="url(#arrow_pink)"/>
<path d="M1362,667 V730 H1662" stroke="#f5a9b8" stroke-width="4" fill="none" stroke-linejoin="miter" stroke-linecap="butt" marker-end="url(#arrow_pink)"/>
<text x="1502" y="722" font-size="22" fill="#111" font-family="Arial, Helvetica, sans-serif" text-anchor="middle" dominant-baseline="middle">Python code</text>
<text x="1502" y="752" font-size="22" fill="#111" font-family="Arial, Helvetica, sans-serif" text-anchor="middle" dominant-baseline="middle">selection</text>
<rect x="1648" y="358" width="106" height="291" fill="none" stroke="#000" stroke-width="2.5" stroke-dasharray="8 7"/>
<path d="M1744,502 H1780 V564 H1807" stroke="#000" stroke-width="3" fill="none" stroke-linejoin="miter" stroke-linecap="butt" marker-end="url(#arrow_black)"/>
<path d="M1741,716 H1780 V564 H1807" stroke="#000" stroke-width="3" fill="none" stroke-linejoin="miter" stroke-linecap="butt" marker-end="url(#arrow_black)"/>
<text x="1701" y="477" font-size="21" fill="#111" font-family="Arial, Helvetica, sans-serif" text-anchor="middle" dominant-baseline="middle">Model</text>
<text x="1701" y="638" font-size="20" fill="#111" font-family="Arial, Helvetica, sans-serif" text-anchor="middle" dominant-baseline="middle">Text</text>
<text x="1701" y="665" font-size="20" fill="#111" font-family="Arial, Helvetica, sans-serif" text-anchor="middle" dominant-baseline="middle">Description</text>
<text x="1700" y="767" font-size="21" fill="#111" font-family="Arial, Helvetica, sans-serif" text-anchor="middle" dominant-baseline="middle">C adQuery</text>
<text x="1848" y="636" font-size="22" fill="#111" font-family="Arial, Helvetica, sans-serif" text-anchor="middle" dominant-baseline="middle">Our Dataset</text>
<g id="svg_left_dataset_folder" data-source-slot="slot_left_dataset_folder">
  <g transform="rotate(11 86.8 514.2)">
    <path d="M64.0,491.1 H105.0 L115.9,549.9 H59.5 Z" fill="#eef7e8" stroke="#293267" stroke-width="3" stroke-linejoin="round"/>
    <line x1="73.1" y1="506.9" x2="102.2" y2="506.9" stroke="#293267" stroke-width="3" stroke-linecap="round"/>
    <line x1="73.1" y1="517.4" x2="105.0" y2="517.4" stroke="#293267" stroke-width="3" stroke-linecap="round"/>
    <line x1="73.1" y1="527.9" x2="100.4" y2="527.9" stroke="#293267" stroke-width="3" stroke-linecap="round"/>
  </g>
  <path d="M37.6,528.9 H68.6 L76.8,538.4 H116.8 Q121.4,538.4 121.4,545.7 V577.2 Q121.4,586.6 113.2,586.6 H42.2 Q36.7,586.6 36.7,579.3 V536.2 Q36.7,528.9 37.6,528.9 Z" fill="#ffe177" stroke="#293267" stroke-width="3" stroke-linejoin="round"/>
  <rect x="39.5" y="543.6" width="75.5" height="39.9" rx="3.6" fill="#ffdf64" stroke="#293267" stroke-width="3"/>
  <circle cx="106.8" cy="575.1" r="13.7" fill="#64c86f" stroke="#293267" stroke-width="3"/>
  <text x="106.8" y="575.1" font-size="20.0" fill="#293267" font-family="Arial, Helvetica, sans-serif" font-weight="700" text-anchor="middle" dominant-baseline="middle">✓</text>
</g>
<g id="svg_command_sequence_doc" data-source-slot="slot_command_sequence_doc">
  <path d="M253.6,355.9 H300.7 L315.9,372.8 V442.4 H253.6 Z" fill="#f5f2e8" stroke="#2e2e2e" stroke-width="3" stroke-linejoin="round"/>
  <path d="M300.7,355.9 V372.8 H315.9" fill="#d0b38a" stroke="#2e2e2e" stroke-width="3" stroke-linejoin="round"/>
  <line x1="263.5" y1="374.7" x2="294.6" y2="374.7" stroke="#2e2e2e" stroke-width="3" stroke-linecap="round"/>
  <line x1="263.5" y1="384.1" x2="301.5" y2="384.1" stroke="#2e2e2e" stroke-width="3" stroke-linecap="round"/>
  <line x1="263.5" y1="393.5" x2="301.5" y2="393.5" stroke="#2e2e2e" stroke-width="3" stroke-linecap="round"/>
  <line x1="263.5" y1="402.9" x2="290.1" y2="402.9" stroke="#2e2e2e" stroke-width="3" stroke-linecap="round"/>
  <rect x="257.4" y="416.0" width="47.1" height="20.7" rx="2" fill="#e88a4a" stroke="#666" stroke-width="2"/>
  <text x="281.0" y="428.0" font-size="15.0" font-family="Arial, Helvetica, sans-serif" font-weight="700" fill="#333" text-anchor="middle" dominant-baseline="middle">JSON</text>
</g>
<g id="svg_text_description_doc" data-source-slot="slot_text_description_doc">
  <path d="M253.6,483.1 H300.7 L315.9,502.0 V579.7 H253.6 Z" fill="#f5f2e8" stroke="#2e2e2e" stroke-width="3" stroke-linejoin="round"/>
  <path d="M300.7,483.1 V502.0 H315.9" fill="#d0b38a" stroke="#2e2e2e" stroke-width="3" stroke-linejoin="round"/>
  <line x1="263.5" y1="504.1" x2="294.6" y2="504.1" stroke="#2e2e2e" stroke-width="3" stroke-linecap="round"/>
  <line x1="263.5" y1="514.6" x2="301.5" y2="514.6" stroke="#2e2e2e" stroke-width="3" stroke-linecap="round"/>
  <line x1="263.5" y1="525.1" x2="301.5" y2="525.1" stroke="#2e2e2e" stroke-width="3" stroke-linecap="round"/>
  <line x1="263.5" y1="535.6" x2="290.1" y2="535.6" stroke="#2e2e2e" stroke-width="3" stroke-linecap="round"/>
  <rect x="257.4" y="550.3" width="47.1" height="23.1" rx="2" fill="#d9d9d9" stroke="#666" stroke-width="2"/>
  <text x="281.0" y="563.7" font-size="16.8" font-family="Arial, Helvetica, sans-serif" font-weight="700" fill="#333" text-anchor="middle" dominant-baseline="middle">TEXT</text>
</g>
<g id="svg_ground_truth_step_doc" data-source-slot="slot_ground_truth_step_doc">
  <path d="M253.8,664.8 H302.2 L317.8,681.2 V748.5 H253.8 Z" fill="#f5f2e8" stroke="#2e2e2e" stroke-width="3" stroke-linejoin="round"/>
  <path d="M302.2,664.8 V681.2 H317.8" fill="#d0b38a" stroke="#2e2e2e" stroke-width="3" stroke-linejoin="round"/>
  <line x1="263.9" y1="683.0" x2="295.9" y2="683.0" stroke="#2e2e2e" stroke-width="3" stroke-linecap="round"/>
  <line x1="263.9" y1="692.1" x2="302.9" y2="692.1" stroke="#2e2e2e" stroke-width="3" stroke-linecap="round"/>
  <line x1="263.9" y1="701.2" x2="302.9" y2="701.2" stroke="#2e2e2e" stroke-width="3" stroke-linecap="round"/>
  <line x1="263.9" y1="710.3" x2="291.2" y2="710.3" stroke="#2e2e2e" stroke-width="3" stroke-linecap="round"/>
  <rect x="257.7" y="723.1" width="48.4" height="20.0" rx="2" fill="#8edbd4" stroke="#666" stroke-width="2"/>
  <text x="281.9" y="734.7" font-size="14.6" font-family="Arial, Helvetica, sans-serif" font-weight="700" fill="#333" text-anchor="middle" dominant-baseline="middle">STEP</text>
</g>
<g id="svg_llm_whale_icon" data-source-slot="slot_llm_whale_icon">
  <path d="M413.3,419.1
           C406.7,402.1 425.5,386.3 449.0,394.5
           C469.7,401.4 475.3,417.8 489.4,410.2
           C483.8,422.8 475.3,429.1 460.3,431.7
           C443.4,434.8 425.5,430.4 413.3,419.1 Z"
        fill="#4d66f3"/>
  <path d="M469.7,398.9 C472.5,383.1 479.1,381.3 486.6,386.9
           C479.1,392.6 474.4,397.6 472.5,407.7 Z" fill="#4d66f3"/>
  <path d="M460.3,397.0 C453.7,383.8 446.2,381.3 437.7,381.9
           C447.1,391.3 453.7,395.8 460.3,397.0 Z" fill="#4d66f3"/>
  <circle cx="434.0" cy="410.2" r="2.2" fill="#25306d"/>
  <path d="M448.1,420.9 C444.3,430.4 436.8,432.9 428.3,426.6" fill="none" stroke="#ffffff" stroke-width="5" stroke-linecap="round"/>
</g>
<g id="svg_cadquery_logo_left" data-source-slot="slot_cadquery_logo_left">
  <rect x="409.0" y="463.0" width="77.0" height="75.0" fill="#1688c7"/>
  <text x="447.5" y="504.2" font-size="42.7" font-family="Arial, Helvetica, sans-serif" font-weight="700" fill="#ffffff" text-anchor="middle" dominant-baseline="middle">cq</text>
</g>
<g id="svg_discard_trash_icon" data-source-slot="slot_discard_trash_icon">
  <path d="M414.0,680.3 L433.4,656.4 L458.0,662.7 L479.2,651.3 L488.0,676.5 Z" fill="#b6d877" stroke="#6b5b83" stroke-width="2"/>
  <rect x="431.6" y="650.1" width="39.6" height="21.4" fill="#f27f94" stroke="#6b5b83" stroke-width="2" transform="rotate(8 451.0 660.1)"/>
  <path d="M424.6,676.5 H484.4 L475.6,730.7 H436.9 Z" fill="#f5bd45" stroke="#6b5b83" stroke-width="4" stroke-linejoin="round"/>
  <rect x="421.1" y="667.7" width="66.9" height="12.6" rx="4" fill="#b85c9a" stroke="#6b5b83" stroke-width="3"/>
  <line x1="444.0" y1="692.9" x2="444.0" y2="724.4" stroke="#8d4a7e" stroke-width="4" stroke-linecap="round"/>
  <line x1="458.0" y1="692.9" x2="458.0" y2="724.4" stroke="#8d4a7e" stroke-width="4" stroke-linecap="round"/>
  <line x1="472.1" y1="690.4" x2="469.5" y2="723.1" stroke="#8d4a7e" stroke-width="4" stroke-linecap="round"/>
  <line x1="411.4" y1="619.8" x2="434.3" y2="650.1" stroke="#ff0000" stroke-width="6" stroke-linecap="round"/>
  <line x1="434.3" y1="619.8" x2="411.4" y2="650.1" stroke="#ff0000" stroke-width="6" stroke-linecap="round"/>
</g>
<g id="svg_generated_check_icon" data-source-slot="slot_generated_check_icon">
  <path d="M564.1,440.2 L578.6,453.3 L613.4,411.7" fill="none" stroke="#a9d87a" stroke-width="10.3" stroke-linecap="square" stroke-linejoin="miter"/>
</g>
<g id="svg_model_step_doc" data-source-slot="slot_model_step_doc">
  <path d="M1676.6,372.8 H1723.7 L1738.9,388.6 V453.7 H1676.6 Z" fill="#f5f2e8" stroke="#2e2e2e" stroke-width="3" stroke-linejoin="round"/>
  <path d="M1723.7,372.8 V388.6 H1738.9" fill="#d0b38a" stroke="#2e2e2e" stroke-width="3" stroke-linejoin="round"/>
  <line x1="1686.5" y1="390.4" x2="1717.6" y2="390.4" stroke="#2e2e2e" stroke-width="3" stroke-linecap="round"/>
  <line x1="1686.5" y1="399.2" x2="1724.5" y2="399.2" stroke="#2e2e2e" stroke-width="3" stroke-linecap="round"/>
  <line x1="1686.5" y1="408.0" x2="1724.5" y2="408.0" stroke="#2e2e2e" stroke-width="3" stroke-linecap="round"/>
  <line x1="1686.5" y1="416.8" x2="1713.1" y2="416.8" stroke="#2e2e2e" stroke-width="3" stroke-linecap="round"/>
  <rect x="1680.4" y="429.1" width="47.1" height="19.4" rx="2" fill="#8edbd4" stroke="#666" stroke-width="2"/>
  <text x="1704.0" y="440.3" font-size="14.1" font-family="Arial, Helvetica, sans-serif" font-weight="700" fill="#333" text-anchor="middle" dominant-baseline="middle">STEP</text>
</g>
<g id="svg_model_text_doc" data-source-slot="slot_model_text_doc">
  <path d="M1672.9,509.1 H1721.9 L1737.7,528.0 V605.7 H1672.9 Z" fill="#f5f2e8" stroke="#2e2e2e" stroke-width="3" stroke-linejoin="round"/>
  <path d="M1721.9,509.1 V528.0 H1737.7" fill="#d0b38a" stroke="#2e2e2e" stroke-width="3" stroke-linejoin="round"/>
  <line x1="1683.2" y1="530.1" x2="1715.6" y2="530.1" stroke="#2e2e2e" stroke-width="3" stroke-linecap="round"/>
  <line x1="1683.2" y1="540.6" x2="1722.7" y2="540.6" stroke="#2e2e2e" stroke-width="3" stroke-linecap="round"/>
  <line x1="1683.2" y1="551.1" x2="1722.7" y2="551.1" stroke="#2e2e2e" stroke-width="3" stroke-linecap="round"/>
  <line x1="1683.2" y1="561.6" x2="1710.8" y2="561.6" stroke="#2e2e2e" stroke-width="3" stroke-linecap="round"/>
  <rect x="1676.8" y="576.3" width="49.0" height="23.1" rx="2" fill="#d9d9d9" stroke="#666" stroke-width="2"/>
  <text x="1701.3" y="589.7" font-size="16.8" font-family="Arial, Helvetica, sans-serif" font-weight="700" fill="#333" text-anchor="middle" dominant-baseline="middle">TEXT</text>
</g>
<g id="svg_cadquery_logo_right" data-source-slot="slot_cadquery_logo_right">
  <rect x="1663.0" y="686.0" width="77.0" height="62.0" fill="#1688c7"/>
  <text x="1701.5" y="720.1" font-size="35.3" font-family="Arial, Helvetica, sans-serif" font-weight="700" fill="#ffffff" text-anchor="middle" dominant-baseline="middle">cq</text>
</g>
<g id="svg_dataset_folder_plus" data-source-slot="slot_dataset_folder_plus">
  <g transform="rotate(11 1861.0 517.8)">
    <path d="M1839.0,490.5 H1878.6 L1889.2,559.9 H1834.6 Z" fill="#eef7e8" stroke="#293267" stroke-width="3" stroke-linejoin="round"/>
    <line x1="1847.8" y1="509.1" x2="1876.0" y2="509.1" stroke="#293267" stroke-width="3" stroke-linecap="round"/>
    <line x1="1847.8" y1="521.5" x2="1878.6" y2="521.5" stroke="#293267" stroke-width="3" stroke-linecap="round"/>
    <line x1="1847.8" y1="533.9" x2="1874.2" y2="533.9" stroke="#293267" stroke-width="3" stroke-linecap="round"/>
  </g>
  <path d="M1813.5,535.1 H1843.4 L1851.4,546.3 H1890.1 Q1894.5,546.3 1894.5,555.0 V592.2 Q1894.5,603.3 1886.6,603.3 H1817.9 Q1812.6,603.3 1812.6,594.6 V543.8 Q1812.6,535.1 1813.5,535.1 Z" fill="#ffe177" stroke="#293267" stroke-width="3" stroke-linejoin="round"/>
  <rect x="1815.3" y="552.5" width="73.0" height="47.1" rx="3.5" fill="#ffdf64" stroke="#293267" stroke-width="3"/>
  <circle cx="1880.4" cy="589.7" r="13.2" fill="#f06464" stroke="#293267" stroke-width="3"/>
  <text x="1880.4" y="589.7" font-size="19.4" fill="#293267" font-family="Arial, Helvetica, sans-serif" font-weight="700" text-anchor="middle" dominant-baseline="middle">+</text>
</g>
<image id="raster_generated_model_plain" data-source-slot="slot_generated_model_plain" href="assets/raster_required/generated_model_plain.png" xlink:href="assets/raster_required/generated_model_plain.png" x="665" y="420" width="185" height="82" preserveAspectRatio="none"/>
<image id="raster_generated_model_holes" data-source-slot="slot_generated_model_holes" href="assets/raster_required/generated_model_holes.png" xlink:href="assets/raster_required/generated_model_holes.png" x="885" y="414" width="198" height="90" preserveAspectRatio="none"/>
<image id="raster_generated_model_flange" data-source-slot="slot_generated_model_flange" href="assets/raster_required/generated_model_flange.png" xlink:href="assets/raster_required/generated_model_flange.png" x="1097" y="405" width="187" height="96" preserveAspectRatio="none"/>
<image id="raster_point_model_plain" data-source-slot="slot_point_model_plain" href="assets/raster_required/point_model_plain.png" xlink:href="assets/raster_required/point_model_plain.png" x="669" y="592" width="188" height="88" preserveAspectRatio="none"/>
<image id="raster_point_model_holes" data-source-slot="slot_point_model_holes" href="assets/raster_required/point_model_holes.png" xlink:href="assets/raster_required/point_model_holes.png" x="886" y="581" width="198" height="95" preserveAspectRatio="none"/>
<image id="raster_point_model_selected" data-source-slot="slot_point_model_selected" href="assets/raster_required/point_model_selected.png" xlink:href="assets/raster_required/point_model_selected.png" x="1098" y="576" width="187" height="94" preserveAspectRatio="none"/>
<image id="raster_ground_truth_model_dark" data-source-slot="slot_ground_truth_model_dark" href="assets/raster_required/ground_truth_model_dark.png" xlink:href="assets/raster_required/ground_truth_model_dark.png" x="1409" y="396" width="188" height="82" preserveAspectRatio="none"/>
<image id="raster_python_selected_model" data-source-slot="slot_python_selected_model" href="assets/raster_required/python_selected_model.png" xlink:href="assets/raster_required/python_selected_model.png" x="1408" y="591" width="190" height="86" preserveAspectRatio="none"/>
</svg>
