<svg xmlns="http://www.w3.org/2000/svg" viewBox="0 0 1200 600" width="1200" height="600">
  <defs>
    <marker id="arrow" viewBox="0 0 10 10" refX="8" refY="5" markerWidth="6" markerHeight="6" orient="auto-start-reverse">
      <path d="M 0 0 L 10 5 L 0 10 z" fill="#000" />
    </marker>
    <style>
      .text { font-family: 'Times New Roman', Times, serif; font-size: 20px; fill: #000; }
      .math { font-family: 'Times New Roman', Times, serif; font-style: italic; font-size: 22px; fill: #000; }
      .math-sub { font-family: 'Times New Roman', Times, serif; font-size: 14px; fill: #000; }
      .box { stroke: #5c3a21; stroke-width: 2; }
      .line { stroke: #000; stroke-width: 2; fill: none; }
      .node { fill: #82b0ff; stroke: #5a8ee0; stroke-width: 1; }
      .node-text { font-family: 'Times New Roman', Times, serif; font-size: 12px; fill: #000; text-anchor: middle; dominant-baseline: middle; }
    </style>
  </defs>

  <!-- Background for part (a) -->
  <rect x="70" y="10" width="1120" height="290" fill="#d0f0f0" />

  <!-- Labels (a) and (b) -->
  <text x="15" y="40" class="text" font-size="24">(a)</text>
  <text x="15" y="340" class="text" font-size="24">(b)</text>

  <!-- Part (a) GIBMS -->
  <text x="115" y="40" class="text" font-size="24">GIBMS</text>

  <!-- Graph G (a) -->
  <g transform="translate(160, 160)">
    <line x1="0" y1="0" x2="-40" y2="30" class="line" stroke="#5a8ee0" />
    <line x1="0" y1="0" x2="40" y2="30" class="line" stroke="#5a8ee0" />
    <line x1="0" y1="0" x2="0" y2="-40" class="line" stroke="#5a8ee0" />
    <line x1="40" y1="30" x2="45" y2="-10" class="line" stroke="#5a8ee0" />
    <circle cx="0" cy="0" r="12" class="node" />
    <circle cx="-40" cy="30" r="12" class="node" />
    <circle cx="40" cy="30" r="12" class="node" />
    <circle cx="0" cy="-40" r="12" class="node" />
    <circle cx="45" cy="-10" r="12" class="node" />
    <text x="10" y="70" class="math" font-size="24">G</text>
  </g>

  <!-- Arrow to Encoder -->
  <line x1="230" y1="160" x2="280" y2="160" class="line" marker-end="url(#arrow)" />

  <!-- Encoder Box -->
  <rect x="290" y="95" width="55" height="130" fill="#e8e0e0" class="box" />
  <text x="325" y="160" class="text" transform="rotate(-90 325 160)" text-anchor="middle">Encoder</text>

  <!-- Arrow to H -->
  <line x1="345" y1="160" x2="390" y2="160" class="line" marker-end="url(#arrow)" />

  <!-- H Label -->
  <text x="365" y="120" class="math" font-weight="bold">H</text>

  <!-- H Vector -->
  <g transform="translate(395, 105)">
    <rect x="0" y="0" width="40" height="22" fill="#a0e0ff" stroke="#000" stroke-width="1.5" />
    <rect x="0" y="22" width="40" height="22" fill="#a0e0ff" stroke="#000" stroke-width="1.5" />
    <rect x="0" y="44" width="40" height="22" fill="#a0e0ff" stroke="#000" stroke-width="1.5" />
    <rect x="0" y="66" width="40" height="22" fill="#a0e0ff" stroke="#000" stroke-width="1.5" />
    <rect x="0" y="88" width="40" height="22" fill="#a0e0ff" stroke="#000" stroke-width="1.5" />
  </g>

  <!-- Arrow to MLP -->
  <line x1="435" y1="160" x2="480" y2="160" class="line" marker-end="url(#arrow)" />

  <!-- MLP Box -->
  <rect x="485" y="95" width="55" height="130" fill="#e8e0e0" class="box" />
  <text x="520" y="160" class="text" transform="rotate(-90 520 160)" text-anchor="middle">MLP</text>

  <!-- Arrow to Graph with probs -->
  <line x1="540" y1="160" x2="585" y2="160" class="line" marker-end="url(#arrow)" />

  <!-- Graph with probs -->
  <g transform="translate(650, 160)">
    <line x1="0" y1="0" x2="-40" y2="30" class="line" stroke="#5a8ee0" />
    <line x1="0" y1="0" x2="40" y2="30" class="line" stroke="#5a8ee0" />
    <line x1="0" y1="0" x2="0" y2="-40" class="line" stroke="#5a8ee0" />
    <line x1="40" y1="30" x2="45" y2="-10" class="line" stroke="#5a8ee0" />
    <circle cx="0" cy="0" r="12" class="node" />
    <text x="0" y="0" class="node-text">0.9</text>
    <circle cx="-40" cy="30" r="12" class="node" />
    <text x="-40" y="30" class="node-text">0.7</text>
    <circle cx="40" cy="30" r="12" class="node" />
    <text x="40" y="30" class="node-text">0.6</text>
    <circle cx="0" cy="-40" r="12" class="node" />
    <text x="0" y="-40" class="node-text">0.1</text>
    <circle cx="45" cy="-10" r="12" class="node" />
    <text x="45" y="-10" class="node-text">0.3</text>
  </g>

  <!-- Sample Arrow -->
  <line x1="730" y1="160" x2="760" y2="160" class="line" />
  <line x1="760" y1="160" x2="760" y2="80" class="line" />
  <line x1="760" y1="160" x2="760" y2="240" class="line" />
  <line x1="760" y1="80" x2="800" y2="80" class="line" marker-end="url(#arrow)" />
  <line x1="760" y1="240" x2="800" y2="240" class="line" marker-end="url(#arrow)" />
  <text x="770" y="165" class="text">Sample</text>

  <!-- Top G_IB Vector -->
  <g transform="translate(810, 25)">
    <rect x="0" y="0" width="40" height="22" fill="#cce080" stroke="#000" stroke-width="1.5" />
    <rect x="0" y="22" width="40" height="22" fill="#cce080" stroke="#000" stroke-width="1.5" />
    <rect x="0" y="44" width="40" height="22" fill="#cce080" stroke="#000" stroke-width="1.5" />
    <rect x="0" y="66" width="40" height="22" fill="#cce080" stroke="#000" stroke-width="1.5" />
    <rect x="0" y="88" width="40" height="22" fill="#cce080" stroke="#000" stroke-width="1.5" />
  </g>
  <text x="770" y="45" class="math">G<tspan class="math-sub" dy="5">IB</tspan></text>

  <!-- Bottom G_IB Vector -->
  <g transform="translate(810, 185)">
    <rect x="0" y="0" width="40" height="22" fill="#cce080" stroke="#000" stroke-width="1.5" />
    <rect x="0" y="22" width="40" height="22" fill="#cce080" stroke="#000" stroke-width="1.5" />
    <rect x="0" y="44" width="40" height="22" fill="#cce080" stroke="#000" stroke-width="1.5" />
    <rect x="0" y="66" width="40" height="22" fill="#cce080" stroke="#000" stroke-width="1.5" />
    <rect x="0" y="88" width="40" height="22" fill="#cce080" stroke="#000" stroke-width="1.5" />
  </g>
  <text x="770" y="290" class="math">G<tspan class="math-sub" dy="5">IB</tspan></text>

  <!-- I(G; G_IB) Top -->
  <line x1="415" y1="105" x2="415" y2="60" class="line" />
  <line x1="415" y1="60" x2="580" y2="60" class="line" marker-end="url(#arrow)" />
  <line x1="810" y1="60" x2="700" y2="60" class="line" marker-end="url(#arrow)" />
  <text x="590" y="68" class="math">I (G; G<tspan class="math-sub" dy="5">IB</tspan><tspan dy="-5">)</tspan></text>

  <!-- I(G; G_IB) Bottom -->
  <line x1="415" y1="215" x2="415" y2="260" class="line" />
  <line x1="415" y1="260" x2="580" y2="260" class="line" marker-end="url(#arrow)" />
  <line x1="810" y1="260" x2="700" y2="260" class="line" marker-end="url(#arrow)" />
  <text x="590" y="268" class="math">I (G; G<tspan class="math-sub" dy="5">IB</tspan><tspan dy="-5">)</tspan></text>

  <!-- Pool Top -->
  <line x1="850" y1="80" x2="915" y2="80" class="line" marker-end="url(#arrow)" />
  <text x="860" y="75" class="text">Pool</text>
  <rect x="925" y="65" width="45" height="30" fill="#cce080" stroke="#5c3a21" stroke-width="2" />

  <!-- Pool Bottom -->
  <line x1="850" y1="240" x2="915" y2="240" class="line" marker-end="url(#arrow)" />
  <text x="860" y="235" class="text">Pool</text>
  <rect x="925" y="225" width="45" height="30" fill="#cce080" stroke="#5c3a21" stroke-width="2" />

  <!-- I(Y; G_IB) -->
  <line x1="970" y1="80" x2="1010" y2="160" class="line" marker-end="url(#arrow)" />
  <line x1="970" y1="240" x2="1010" y2="160" class="line" marker-end="url(#arrow)" />
  <text x="1015" y="168" class="math">I (<tspan font-weight="bold">Y</tspan>; G<tspan class="math-sub" dy="5">IB</tspan><tspan dy="-5">)</tspan></text>


  <!-- Part (b) SLG -->
  <text x="105" y="340" class="text" font-size="24">SLG</text>

  <!-- Graph G (b) -->
  <g transform="translate(160, 440)">
    <line x1="0" y1="0" x2="-40" y2="30" class="line" stroke="#5a8ee0" />
    <line x1="0" y1="0" x2="40" y2="30" class="line" stroke="#5a8ee0" />
    <line x1="0" y1="0" x2="0" y2="-40" class="line" stroke="#5a8ee0" />
    <line x1="40" y1="30" x2="45" y2="-10" class="line" stroke="#5a8ee0" />
    <circle cx="0" cy="0" r="12" class="node" />
    <circle cx="-40" cy="30" r="12" class="node" />
    <circle cx="40" cy="30" r="12" class="node" />
    <circle cx="0" cy="-40" r="12" class="node" />
    <circle cx="45" cy="-10" r="12" class="node" />
    <text x="10" y="70" class="math" font-size="24">G</text>
  </g>

  <!-- Split Arrow -->
  <line x1="240" y1="440" x2="295" y2="390" class="line" marker-end="url(#arrow)" />
  <line x1="240" y1="440" x2="295" y2="525" class="line" marker-end="url(#arrow)" />

  <!-- Top Branch (b) -->
  <rect x="305" y="325" width="55" height="125" fill="#d0f0f0" />
  <text x="340" y="387" class="text" transform="rotate(-90 340 387)" text-anchor="middle">GIBMS</text>

  <line x1="360" y1="387" x2="415" y2="387" class="line" marker-end="url(#arrow)" />

  <rect x="425" y="325" width="55" height="125" fill="#e8e0e0" class="box" />
  <text x="460" y="387" class="text" transform="rotate(-90 460 387)" text-anchor="middle">Encoder</text>

  <line x1="480" y1="387" x2="535" y2="387" class="line" marker-end="url(#arrow)" />

  <text x="500" y="345" class="math" font-weight="bold">H<tspan class="math-sub" dy="-10">p</tspan></text>
  <g transform="translate(545, 325)">
    <rect x="0" y="0" width="40" height="23" fill="#f5eedc" stroke="#000" stroke-width="1.5" />
    <rect x="0" y="23" width="40" height="23" fill="#f5eedc" stroke="#000" stroke-width="1.5" />
    <rect x="0" y="46" width="40" height="23" fill="#f5eedc" stroke="#000" stroke-width="1.5" />
    <rect x="0" y="69" width="40" height="23" fill="#f5eedc" stroke="#000" stroke-width="1.5" />
    <rect x="0" y="92" width="40" height="23" fill="#f5eedc" stroke="#000" stroke-width="1.5" />
  </g>

  <line x1="585" y1="387" x2="645" y2="387" class="line" />
  <text x="645" y="392" class="text">softmax</text>
  <text x="730" y="405" class="text" font-size="40">(</text>
  <text x="745" y="375" class="math" font-weight="bold">H<tspan class="math-sub" dy="-10">p</tspan><tspan dy="10"> · </tspan>Q</text>
  <line x1="745" y1="385" x2="810" y2="385" class="line" />
  <text x="770" y="405" class="math">τ<tspan class="math-sub" dy="5">p</tspan></text>
  <text x="815" y="405" class="text" font-size="40">)</text>
  <line x1="835" y1="387" x2="895" y2="387" class="line" marker-end="url(#arrow)" />

  <text x="875" y="345" class="math">s<tspan class="math-sub" dy="-10">p</tspan></text>
  <g transform="translate(910, 325)">
    <rect x="0" y="0" width="25" height="23" fill="#82b0ff" stroke="#000" stroke-width="1.5" />
    <rect x="25" y="0" width="25" height="23" fill="#80d0a0" stroke="#000" stroke-width="1.5" />
    <rect x="50" y="0" width="25" height="23" fill="#ffc060" stroke="#000" stroke-width="1.5" />
    <rect x="75" y="0" width="25" height="23" fill="#ff90a0" stroke="#000" stroke-width="1.5" />
    <rect x="0" y="23" width="25" height="23" fill="#82b0ff" stroke="#000" stroke-width="1.5" />
    <rect x="25" y="23" width="25" height="23" fill="#80d0a0" stroke="#000" stroke-width="1.5" />
    <rect x="50" y="23" width="25" height="23" fill="#ffc060" stroke="#000" stroke-width="1.5" />
    <rect x="75" y="23" width="25" height="23" fill="#ff90a0" stroke="#000" stroke-width="1.5" />
    <rect x="0" y="46" width="25" height="23" fill="#82b0ff" stroke="#000" stroke-width="1.5" />
    <rect x="25" y="46" width="25" height="23" fill="#80d0a0" stroke="#000" stroke-width="1.5" />
    <rect x="50" y="46" width="25" height="23" fill="#ffc060" stroke="#000" stroke-width="1.5" />
    <rect x="75" y="46" width="25" height="23" fill="#ff90a0" stroke="#000" stroke-width="1.5" />
    <rect x="0" y="69" width="25" height="23" fill="#82b0ff" stroke="#000" stroke-width="1.5" />
    <rect x="25" y="69" width="25" height="23" fill="#80d0a0" stroke="#000" stroke-width="1.5" />
    <rect x="50" y="69" width="25" height="23" fill="#ffc060" stroke="#000" stroke-width="1.5" />
    <rect x="75" y="69" width="25" height="23" fill="#ff90a0" stroke="#000" stroke-width="1.5" />
    <rect x="0" y="92" width="25" height="23" fill="#82b0ff" stroke="#000" stroke-width="1.5" />
    <rect x="25" y="92" width="25" height="23" fill="#80d0a0" stroke="#000" stroke-width="1.5" />
    <rect x="50" y="92" width="25" height="23" fill="#ffc060" stroke="#000" stroke-width="1.5" />
    <rect x="75" y="92" width="25" height="23" fill="#ff90a0" stroke="#000" stroke-width="1.5" />
  </g>

  <!-- Bottom Branch (b) -->
  <rect x="305" y="465" width="55" height="125" fill="#f5eedc" class="box" />
  <text x="340" y="527" class="text" transform="rotate(-90 340 527)" text-anchor="middle">Tokenizer</text>

  <line x1="360" y1="527" x2="415" y2="527" class="line" marker-end="url(#arrow)" />

  <rect x="425" y="465" width="55" height="125" fill="#f5eedc" class="box" />
  <text x="460" y="527" class="text" transform="rotate(-90 460 527)" text-anchor="middle">Embedding</text>

  <line x1="480" y1="527" x2="535" y2="527" class="line" marker-end="url(#arrow)" />

  <text x="500" y="485" class="math" font-weight="bold">H<tspan class="math-sub" dy="-10">y</tspan></text>
  <g transform="translate(545, 465)">
    <rect x="0" y="0" width="40" height="23" fill="#f5eedc" stroke="#000" stroke-width="1.5" />
    <rect x="0" y="23" width="40" height="23" fill="#f5eedc" stroke="#000" stroke-width="1.5" />
    <rect x="0" y="46" width="40" height="23" fill="#f5eedc" stroke="#000" stroke-width="1.5" />
    <rect x="0" y="69" width="40" height="23" fill="#f5eedc" stroke="#000" stroke-width="1.5" />
    <rect x="0" y="92" width="40" height="23" fill="#f5eedc" stroke="#000" stroke-width="1.5" />
  </g>

  <line x1="585" y1="527" x2="645" y2="527" class="line" />
  <text x="645" y="532" class="text">softmax</text>
  <text x="730" y="545" class="text" font-size="40">(</text>
  <text x="745" y="515" class="math" font-weight="bold">H<tspan class="math-sub" dy="-10">y</tspan><tspan dy="10"> · </tspan>Q</text>
  <line x1="745" y1="525" x2="810" y2="525" class="line" />
  <text x="770" y="545" class="math">τ<tspan class="math-sub" dy="5">y</tspan></text>
  <text x="815" y="545" class="text" font-size="40">)</text>
  <line x1="835" y1="527" x2="895" y2="527" class="line" marker-end="url(#arrow)" />

  <text x="875" y="485" class="math">s<tspan class="math-sub" dy="-10">y</tspan></text>
  <g transform="translate(910, 465)">
    <rect x="0" y="0" width="25" height="23" fill="#82b0ff" stroke="#000" stroke-width="1.5" />
    <rect x="25" y="0" width="25" height="23" fill="#80d0a0" stroke="#000" stroke-width="1.5" />
    <rect x="50" y="0" width="25" height="23" fill="#ffc060" stroke="#000" stroke-width="1.5" />
    <rect x="75" y="0" width="25" height="23" fill="#ff90a0" stroke="#000" stroke-width="1.5" />
    <rect x="0" y="23" width="25" height="23" fill="#82b0ff" stroke="#000" stroke-width="1.5" />
    <rect x="25" y="23" width="25" height="23" fill="#80d0a0" stroke="#000" stroke-width="1.5" />
    <rect x="50" y="23" width="25" height="23" fill="#ffc060" stroke="#000" stroke-width="1.5" />
    <rect x="75" y="23" width="25" height="23" fill="#ff90a0" stroke="#000" stroke-width="1.5" />
    <rect x="0" y="46" width="25" height="23" fill="#82b0ff" stroke="#000" stroke-width="1.5" />
    <rect x="25" y="46" width="25" height="23" fill="#80d0a0" stroke="#000" stroke-width="1.5" />
    <rect x="50" y="46" width="25" height="23" fill="#ffc060" stroke="#000" stroke-width="1.5" />
    <rect x="75" y="46" width="25" height="23" fill="#ff90a0" stroke="#000" stroke-width="1.5" />
    <rect x="0" y="69" width="25" height="23" fill="#82b0ff" stroke="#000" stroke-width="1.5" />
    <rect x="25" y="69" width="25" height="23" fill="#80d0a0" stroke="#000" stroke-width="1.5" />
    <rect x="50" y="69" width="25" height="23" fill="#ffc060" stroke="#000" stroke-width="1.5" />
    <rect x="75" y="69" width="25" height="23" fill="#ff90a0" stroke="#000" stroke-width="1.5" />
    <rect x="0" y="92" width="25" height="23" fill="#82b0ff" stroke="#000" stroke-width="1.5" />
    <rect x="25" y="92" width="25" height="23" fill="#80d0a0" stroke="#000" stroke-width="1.5" />
    <rect x="50" y="92" width="25" height="23" fill="#ffc060" stroke="#000" stroke-width="1.5" />
    <rect x="75" y="92" width="25" height="23" fill="#ff90a0" stroke="#000" stroke-width="1.5" />
  </g>

  <!-- Q Vector -->
  <text x="655" y="465" class="math" font-weight="bold">Q</text>
  <g transform="translate(690, 430)">
    <rect x="0" y="0" width="27" height="40" fill="#82b0ff" stroke="#000" stroke-width="1.5" />
    <rect x="27" y="0" width="27" height="40" fill="#80d0a0" stroke="#000" stroke-width="1.5" />
    <rect x="54" y="0" width="27" height="40" fill="#ffc060" stroke="#000" stroke-width="1.5" />
    <rect x="81" y="0" width="27" height="40" fill="#ff90a0" stroke="#000" stroke-width="1.5" />
  </g>

  <!-- L_soft -->
  <line x1="1015" y1="387" x2="1055" y2="457" class="line" marker-end="url(#arrow)" />
  <line x1="1015" y1="527" x2="1055" y2="457" class="line" marker-end="url(#arrow)" />
  <text x="1070" y="465" class="math">L<tspan class="math-sub" dy="5">soft</tspan><tspan dy="-5">(s</tspan><tspan class="math-sub" dy="-10">y</tspan><tspan dy="10">, s</tspan><tspan class="math-sub" dy="-10">p</tspan><tspan dy="10">)</tspan></text>

</svg>