<svg xmlns="http://www.w3.org/2000/svg" viewBox="-3.0 12.0 1621.0 686.0" style="font-family: 'Times New Roman', Times, serif; background-color: white;">
  <defs>
    <!-- Arrowhead Marker -->
    <marker id="arrow" markerWidth="10" markerHeight="10" refX="9" refY="3" orient="auto" markerUnits="strokeWidth">
      <path d="M0,0 L0,6 L9,3 z" fill="#555" />
    </marker>
    <marker id="arrow-red" markerWidth="10" markerHeight="10" refX="9" refY="3" orient="auto" markerUnits="strokeWidth">
      <path d="M0,0 L0,6 L9,3 z" fill="#FF4444" />
    </marker>
    <marker id="arrow-green" markerWidth="10" markerHeight="10" refX="9" refY="3" orient="auto" markerUnits="strokeWidth">
      <path d="M0,0 L0,6 L9,3 z" fill="#00AA44" />
    </marker>

    <!-- Noise Filter for Augmentation -->
    <filter id="noise">
      <feTurbulence type="fractalNoise" baseFrequency="0.8" numOctaves="3" stitchTiles="stitch" />
      <feColorMatrix type="matrix" values="0 0 0 0 0  0 0 0 0 0  0 0 0 0 0  0 0 0 0.5 0"/>
    </filter>

    <!-- Gradients -->
    <linearGradient id="grad-arrow-red" x1="0%" y1="0%" x2="0%" y2="100%">
      <stop offset="0%" style="stop-color:#FFcccc;stop-opacity:1" />
      <stop offset="100%" style="stop-color:#FF0000;stop-opacity:1" />
    </linearGradient>
    <linearGradient id="grad-arrow-green" x1="0%" y1="0%" x2="0%" y2="100%">
      <stop offset="0%" style="stop-color:#ccffcc;stop-opacity:1" />
      <stop offset="100%" style="stop-color:#33CC33;stop-opacity:1" />
    </linearGradient>
    <linearGradient id="grad-arrow-mix" x1="0%" y1="0%" x2="0%" y2="100%">
      <stop offset="0%" style="stop-color:#FFcccc;stop-opacity:1" />
      <stop offset="100%" style="stop-color:#33CC33;stop-opacity:1" />
    </linearGradient>
    <linearGradient id="grad-arrow-down" x1="0%" y1="0%" x2="0%" y2="100%">
      <stop offset="0%" style="stop-color:#FFcccc;stop-opacity:1" />
      <stop offset="100%" style="stop-color:#FF0000;stop-opacity:1" />
    </linearGradient>

    <!-- Reusable Video Frame Group -->
    <g id="video-frames">
      <g transform="skewY(-15)">
        <rect x="0" y="0" width="70" height="90" fill="#e0c0a0" stroke="black" stroke-width="1"/>
        <!-- Abstract content: Person -->
        <circle cx="35" cy="30" r="15" fill="#dcb090"/>
        <rect x="10" y="45" width="50" height="40" fill="#dcb090"/>
        <!-- Abstract content: Celery -->
        <path d="M20,60 L60,50 L50,70 Z" fill="#cceebb"/>
        <!-- Hands holding -->
        <path d="M-10,40 L20,50 L25,30" stroke="#a07050" stroke-width="4" fill="none"/>
      </g>
      <g transform="translate(30, 0) skewY(-15)">
        <rect x="0" y="0" width="70" height="90" fill="#e0c0a0" stroke="black" stroke-width="1"/>
        <circle cx="35" cy="30" r="15" fill="#dcb090"/>
        <rect x="10" y="45" width="50" height="40" fill="#dcb090"/>
        <path d="M20,60 L60,50 L50,70 Z" fill="#cceebb"/>
        <path d="M-10,40 L20,50 L25,30" stroke="#a07050" stroke-width="4" fill="none"/>
      </g>
    </g>
  </defs>

  <!-- ================= TOP PANEL ================= -->
  <rect x="5" y="20" width="1590" height="270" rx="20" fill="none" stroke="black" stroke-width="3"/>
  <text x="25" y="50" font-size="36" font-weight="bold">Measure Difficulty based on Relative Reward Statistics</text>

  <!-- 1. Input Block -->
  <g transform="translate(20, 100)">
    <rect x="0" y="0" width="260" height="180" rx="10" fill="none" stroke="#ddd" stroke-width="2"/>
    <use href="#video-frames" x="10" y="20"/>
    <text x="110" y="60" font-size="40" font-weight="bold">. . .</text>
    <use href="#video-frames" x="140" y="20"/>
    
    <text x="10" y="110" font-size="28" fill="#A07040" font-weight="bold">Question: <tspan fill="#A07040">What action</tspan></text>
    <text x="10" y="140" font-size="28" fill="#A07040" font-weight="bold">should I take next in</text>
    <text x="10" y="170" font-size="28" fill="#A07040" font-weight="bold">order to eat the celery?</text>
  </g>

  <!-- Arrow to LLM -->
  <line x1="280" y1="170" x2="310" y2="170" stroke="#555" stroke-width="2" marker-end="url(#arrow)"/>

  <!-- 2. Video LLM -->
  <g transform="translate(315, 130)">
    <rect x="0" y="0" width="160" height="110" rx="10" fill="#FFF5E0" stroke="#F0E0B0" stroke-width="3"/>
    <text x="80" y="50" font-size="34" font-weight="bold" text-anchor="middle">Video</text>
    <text x="80" y="85" font-size="34" font-weight="bold" text-anchor="middle">LLM</text>
  </g>

  <!-- Arrows from LLM -->
  <path d="M430,170 C460,170 460,115 480,115" fill="none" stroke="#555" stroke-width="2" marker-end="url(#arrow)"/>
  <path d="M430,170 C460,170 460,160 480,160" fill="none" stroke="#555" stroke-width="2" marker-end="url(#arrow)"/>
  <path d="M430,170 C460,170 460,230 480,230" fill="none" stroke="#555" stroke-width="2" marker-end="url(#arrow)"/>

  <!-- 3. Response Column -->
  <g transform="translate(480, 95)">
    <!-- Box 1 -->
    <rect x="0" y="0" width="230" height="55" fill="white" stroke="#306090" stroke-width="3"/>
    <text x="15" y="38" font-size="34" font-weight="bold">Response <tspan font-family="Times New Roman" font-style="italic">y</tspan><tspan dy="-15" font-size="24">1</tspan></text>
    
    <!-- Box 2 -->
    <rect x="0" y="65" width="230" height="55" fill="white" stroke="#306090" stroke-width="3"/>
    <text x="15" y="103" font-size="34" font-weight="bold">Response <tspan font-family="Times New Roman" font-style="italic">y</tspan><tspan dy="-15" font-size="24">2</tspan></text>
    
    <text x="115" y="140" font-size="34" font-weight="bold" text-anchor="middle">. . .</text>

    <!-- Box G -->
    <rect x="0" y="150" width="230" height="55" fill="white" stroke="#306090" stroke-width="3"/>
    <text x="15" y="188" font-size="34" font-weight="bold">Response <tspan font-family="Times New Roman" font-style="italic">y</tspan><tspan dy="-15" font-size="24" font-style="italic">G</tspan></text>
  </g>

  <!-- Arrows to R-group -->
  <line x1="660" y1="120" x2="730" y2="120" stroke="#555" stroke-width="2" marker-end="url(#arrow)"/>
  <line x1="660" y1="160" x2="730" y2="160" stroke="#555" stroke-width="2" marker-end="url(#arrow)"/>
  <line x1="660" y1="225" x2="730" y2="225" stroke="#555" stroke-width="2" marker-end="url(#arrow)"/>

  <!-- 4. R-group -->
  <g transform="translate(730, 90)">
    <rect x="0" y="0" width="190" height="180" rx="15" fill="#E0F0E0" stroke="#88DD88" stroke-width="4" stroke-dasharray="15,10"/>
    <text x="95" y="-10" font-size="44" text-anchor="middle"><tspan font-family="cursive">R</tspan><tspan dy="5" font-size="28">group</tspan></text>
    
    <text x="20" y="50" font-size="44"><tspan font-family="cursive">R</tspan>(<tspan font-style="italic">x, y</tspan><tspan dy="-15" font-size="28">1</tspan><tspan dy="15">)</tspan></text>
    <text x="20" y="100" font-size="44"><tspan font-family="cursive">R</tspan>(<tspan font-style="italic">x, y</tspan><tspan dy="-15" font-size="28">2</tspan><tspan dy="15">)</tspan></text>
    <text x="95" y="130" font-size="34" font-weight="bold" text-anchor="middle">. . .</text>
    <text x="20" y="170" font-size="44"><tspan font-family="cursive">R</tspan>(<tspan font-style="italic">x, y</tspan><tspan dy="-15" font-size="28" font-style="italic">G</tspan><tspan dy="15">)</tspan></text>
  </g>

  <!-- 5. Formula Bubble -->
  <g transform="translate(900, 30)">
    <rect x="0" y="0" width="350" height="90" rx="45" fill="white" fill-opacity="0.8"/>
    <text x="20" y="55" font-size="44">
      <tspan font-style="italic">Â</tspan><tspan dy="-15" font-size="28" font-style="italic">(i)</tspan><tspan dy="15"> = </tspan>
    </text>
    <!-- Fraction -->
    <line x1="100" y1="45" x2="330" y2="45" stroke="black" stroke-width="2"/>
    <text x="110" y="38" font-size="44"><tspan font-family="cursive">R</tspan>(<tspan font-style="italic">x, y</tspan><tspan dy="-15" font-size="28" font-style="italic">(i)</tspan><tspan dy="15">) − </tspan><tspan font-style="italic">μ</tspan><tspan dy="5" font-size="28" font-style="italic">r</tspan></text>
    <text x="215" y="75" font-size="34"><tspan font-style="italic">σ</tspan><tspan dy="5" font-size="24" font-style="italic">r</tspan></text>
  </g>

  <!-- 6. Data Vectors -->
  <g transform="translate(890, 120)">
    <!-- Vector 1 -->
    <rect x="0" y="0" width="350" height="55" rx="10" fill="white" stroke="#FF8888" stroke-width="5"/>
    <text x="10" y="40" font-size="36"><tspan font-family="cursive">R</tspan><tspan dy="5" font-size="24">group</tspan><tspan dy="-5"> = {0.0, 0.0, ..., 0.0, 0.0}</tspan></text>
    
    <!-- Vector 2 -->
    <rect x="0" y="75" width="350" height="55" rx="10" fill="white" stroke="#666666" stroke-width="5"/>
    <text x="10" y="115" font-size="36"><tspan font-family="cursive">R</tspan><tspan dy="5" font-size="24">group</tspan><tspan dy="-5"> = {1.1, 0.3, ..., 1.9, 0.8}</tspan></text>
    
    <!-- Vector 3 -->
    <rect x="0" y="150" width="350" height="55" rx="10" fill="white" stroke="#00AA44" stroke-width="5"/>
    <text x="10" y="190" font-size="36"><tspan font-family="cursive">R</tspan><tspan dy="5" font-size="24">group</tspan><tspan dy="-5"> = {2.0, 2.0, ..., 2.0, 2.0}</tspan></text>
  </g>

  <!-- 7. Dynamic Global Reward (Right Section) -->
  <g transform="translate(1220, 20)">
    <rect x="0" y="0" width="370" height="440" rx="20" fill="none" stroke="#aaa" stroke-width="5" stroke-dasharray="20,10"/>
    <text x="15" y="35" font-size="36" font-weight="bold">Dynamic Global Reward</text>
    
    <!-- Graph Area -->
    <g transform="translate(40, 100)">
      <rect x="0" y="0" width="280" height="200" fill="white" fill-opacity="0.5"/>
      <!-- Grid -->
      <line x1="0" y1="50" x2="280" y2="50" stroke="#eee" stroke-width="2"/>
      <line x1="0" y1="100" x2="280" y2="100" stroke="#eee" stroke-width="2"/>
      <line x1="0" y1="150" x2="280" y2="150" stroke="#eee" stroke-width="2"/>
      
      <!-- Highlight Band -->
      <rect x="150" y="20" width="120" height="160" fill="#FFFFAA" fill-opacity="0.8"/>
      <text x="160" y="130" font-size="44" font-family="serif">B<tspan dy="-15" font-size="28" font-style="italic">W</tspan></text>
      
      <!-- Plot -->
      <polyline points="10,160 50,150 100,100 150,80 200,60 250,50" fill="none" stroke="#005580" stroke-width="3"/>
      
      <!-- Axes -->
      <line x1="10" y1="160" x2="10" y2="10" stroke="black" stroke-width="3" marker-end="url(#arrow)"/>
      <line x1="10" y1="160" x2="300" y2="160" stroke="black" stroke-width="3" marker-end="url(#arrow)"/>
      
      <text x="0" y="-10" font-size="24">Reward</text>
      <text x="260" y="185" font-size="24">Iteration</text>
      
      <!-- Double Arrow under band -->
      <path d="M155,150 L155,160 L145,160 L160,170 L175,160 L165,160 L165,150" fill="#FF4444" stroke="white" stroke-width="2"/>
      <path d="M265,150 L265,160 L275,160 L260,170 L245,160 L255,160 L255,150" fill="#FF4444" stroke="white" stroke-width="2"/>
    </g>

    <!-- Database Icon -->
    <g transform="translate(340, 120)">
      <ellipse cx="25" cy="10" rx="20" ry="6" fill="black"/>
      <path d="M5,10 v15 a20,6 0 0,0 40,0 v-15" fill="black"/>
      <path d="M5,30 v15 a20,6 0 0,0 40,0 v-15" fill="black"/>
      <path d="M5,22 q20,8 40,0" fill="none" stroke="white" stroke-width="2"/>
      <path d="M5,42 q20,8 40,0" fill="none" stroke="white" stroke-width="2"/>
      <circle cx="38" cy="18" r="1.5" fill="white"/>
      <circle cx="38" cy="38" r="1.5" fill="white"/>
      
      <text x="25" y="80" font-size="28" text-anchor="middle">Replay</text>
      <text x="25" y="110" font-size="28" text-anchor="middle">Buffer</text>
    </g>
  </g>

  <!-- ================= MIDDLE ARROWS ================= -->
  <!-- Red Arrow (Left) -->
  <path d="M1000,240 V280 C1000,320 900,320 800,320 H550 C450,320 450,320 450,350 V360" fill="none" stroke="none"/> <!-- Placeholder for logic, drawing actual shape below -->
  <path d="M1020,245 V280 C1020,330 580,330 500,330 H480 C430,330 430,330 430,360 L415,345 M430,360 L445,345" fill="#FF8888" stroke="none"/>
  <!-- Simplified thick arrow shape -->
  <path d="M1020,245 V280 C1020,330 580,330 480,330 L480,315 L440,345 L480,375 L480,360 C580,360 1020,360 1020,245 Z" fill="#FF8888" opacity="0.8"/>

  <!-- Green Arrow (Right) -->
  <path d="M1100,245 V280 C1100,330 1200,330 1250,330 L1250,315 L1280,345 L1250,375 L1250,360 C1150,360 1100,360 1100,245 Z" fill="#33CC33" opacity="0.8"/>


  <!-- ================= BOTTOM PANEL ================= -->
  <rect x="5" y="325" width="1590" height="235" rx="20" fill="none" stroke="black" stroke-width="3"/>
  <line x1="910" y1="325" x2="910" y2="560" stroke="black" stroke-width="2" stroke-dasharray="5,5"/>

  <!-- LEFT SIDE: Decrease Difficulty -->
  <text x="20" y="355" font-size="36" font-weight="bold">Difficulty Decreasement Augmentation</text>
  
  <g transform="translate(20, 360)">
    <!-- Input Block (Copy) -->
    <rect x="0" y="0" width="260" height="180" rx="10" fill="none" stroke="#ddd" stroke-width="2"/>
    <use href="#video-frames" x="10" y="20"/>
    <text x="110" y="60" font-size="40" font-weight="bold">. . .</text>
    <use href="#video-frames" x="140" y="20"/>
    <text x="10" y="110" font-size="28" fill="#A07040" font-weight="bold">Question: <tspan fill="#A07040">What action</tspan></text>
    <text x="10" y="140" font-size="28" fill="#A07040" font-weight="bold">should I take next in</text>
    <text x="10" y="170" font-size="28" fill="#A07040" font-weight="bold">order to eat the celery?</text>
    <text x="10" y="200" font-size="28" fill="black" font-weight="bold">GT: <tspan fill="#00AA44">B. pick up celery</tspan></text>

    <!-- Arrow to LLM -->
    <line x1="260" y1="100" x2="290" y2="100" stroke="#555" stroke-width="2" marker-end="url(#arrow)"/>

    <!-- LLM -->
    <g transform="translate(295, 60)">
      <rect x="0" y="0" width="160" height="110" rx="10" fill="#FFF5E0" stroke="#F0E0B0" stroke-width="3"/>
      <text x="80" y="50" font-size="34" font-weight="bold" text-anchor="middle">Video</text>
      <text x="80" y="85" font-size="34" font-weight="bold" text-anchor="middle">LLM</text>
    </g>

    <!-- Arrows from LLM -->
    <path d="M410,100 C440,100 440,45 460,45" fill="none" stroke="#555" stroke-width="2" marker-end="url(#arrow)"/>
    <path d="M410,100 C440,100 440,100 460,100" fill="none" stroke="#555" stroke-width="2" marker-end="url(#arrow)"/>
    <path d="M410,100 C440,100 440,180 460,180" fill="none" stroke="#555" stroke-width="2" marker-end="url(#arrow)"/>

    <!-- Response Column (GT) -->
    <g transform="translate(460, 10)">
      <rect x="0" y="0" width="230" height="55" fill="white" stroke="#306090" stroke-width="3"/>
      <text x="15" y="38" font-size="34" font-weight="bold">Response <tspan font-family="Times New Roman" font-style="italic">y</tspan><tspan dy="5" font-size="24">gt</tspan><tspan dy="-15" font-size="24">1</tspan></text>
      
      <rect x="0" y="65" width="230" height="55" fill="white" stroke="#306090" stroke-width="3"/>
      <text x="15" y="103" font-size="34" font-weight="bold">Response <tspan font-family="Times New Roman" font-style="italic">y</tspan><tspan dy="5" font-size="24">gt</tspan><tspan dy="-15" font-size="24">2</tspan></text>
      
      <text x="115" y="140" font-size="34" font-weight="bold" text-anchor="middle">. . .</text>

      <rect x="0" y="150" width="230" height="55" fill="white" stroke="#306090" stroke-width="3"/>
      <text x="15" y="188" font-size="34" font-weight="bold">Response <tspan font-family="Times New Roman" font-style="italic">y</tspan><tspan dy="5" font-size="24">gt</tspan><tspan dy="-15" font-size="24" font-style="italic">G</tspan></text>
    </g>

    <!-- Arrows to R-group -->
    <line x1="650" y1="35" x2="710" y2="35" stroke="#555" stroke-width="2" marker-end="url(#arrow)"/>
    <line x1="650" y1="100" x2="710" y2="100" stroke="#555" stroke-width="2" marker-end="url(#arrow)"/>
    <line x1="650" y1="180" x2="710" y2="180" stroke="#555" stroke-width="2" marker-end="url(#arrow)"/>

    <!-- R-group (Green Dashed) -->
    <g transform="translate(710, 0)">
      <rect x="0" y="0" width="200" height="220" rx="15" fill="#E0F0E0" stroke="#88DD88" stroke-width="4" stroke-dasharray="15,10"/>
      <text x="100" y="-10" font-size="44" text-anchor="middle"><tspan font-family="cursive">R</tspan><tspan dy="5" font-size="28">group</tspan></text>
      
      <text x="10" y="45" font-size="44"><tspan font-family="cursive">R</tspan>(<tspan font-style="italic">x, y</tspan><tspan dy="5" font-size="24">gt</tspan><tspan dy="-15" font-size="28">1</tspan><tspan dy="10">)</tspan></text>
      <text x="10" y="110" font-size="44"><tspan font-family="cursive">R</tspan>(<tspan font-style="italic">x, y</tspan><tspan dy="5" font-size="24">gt</tspan><tspan dy="-15" font-size="28">2</tspan><tspan dy="10">)</tspan></text>
      <text x="100" y="140" font-size="34" font-weight="bold" text-anchor="middle">. . .</text>
      <text x="10" y="190" font-size="44"><tspan font-family="cursive">R</tspan>(<tspan font-style="italic">x, y</tspan><tspan dy="5" font-size="24">gt</tspan><tspan dy="-15" font-size="28" font-style="italic">G</tspan><tspan dy="10">)</tspan></text>
      
      <!-- Trophy -->
      <g transform="translate(180, 90) scale(0.6)">
        <path d="M10,0 Q30,0 30,20 L30,30 L50,30 L50,40 L0,40 L0,30 L20,30 L20,20 Q20,0 10,0" fill="#DAA520" stroke="#8B4513" stroke-width="2"/>
        <path d="M10,10 Q10,30 15,35 Q20,30 20,10" fill="#DAA520" stroke="#8B4513" stroke-width="2"/>
        <path d="M20,10 Q20,30 25,35 Q30,30 30,10" fill="#DAA520" stroke="#8B4513" stroke-width="2"/>
        <rect x="10" y="40" width="30" height="10" fill="#8B4513"/>
        <rect x="5" y="50" width="40" height="5" fill="#8B4513"/>
      </g>
    </g>

    <!-- Bottom Text & Guidance -->
    <g transform="translate(0, 230)">
      <text x="10" y="20" font-size="44"><tspan font-style="italic">y</tspan><tspan dy="5" font-size="28">gt</tspan><tspan dy="-15" font-size="28">2</tspan></text>
      <text x="60" y="20" font-size="30" font-family="monospace">
        <tspan fill="black">&lt;think&gt;</tspan>
        <tspan fill="black">The video shows a person preparing</tspan>
        <tspan fill="black">...</tspan>
        <tspan fill="black">.</tspan>
        <tspan fill="#00AA44">To make a slice of celery you</tspan>
      </text>
      <text x="60" y="55" font-size="30" font-family="monospace">
        <tspan fill="#00AA44">should bring it from the bag.</tspan>
        <tspan fill="black">&lt;/think&gt;&lt;answer&gt;B. pick up celery&lt;/answer&gt;</tspan>
      </text>
      
      <!-- Guidance Arrow -->
      <g transform="translate(110, 70)">
        <path d="M280,0 L280,15 L10,15 L10,25 L0,10 L10, -5 L10,5 L280,5 Z" fill="url(#grad-arrow-green)" stroke="#88DD88"/>
        <text x="240" y="30" font-size="30" font-weight="bold">Guidance Level</text>
      </g>
    </g>
  </g>

  <!-- RIGHT SIDE: Increase Difficulty -->
  <g transform="translate(920, 325)">
    <text x="10" y="35" font-size="36" font-weight="bold">Difficulty Increasement Augmentation</text>
    
    <!-- Input -->
    <g transform="translate(20, 60)">
      <use href="#video-frames" x="0" y="0"/>
      <text x="130" y="50" font-size="40" font-weight="bold">. . .</text>
      <use href="#video-frames" x="180" y="0"/>
    </g>

    <!-- Branching Arrows -->
    <path d="M250,100 C300,100 300,60 400,60 L420,60" fill="none" stroke="#555" stroke-width="3" marker-end="url(#arrow)"/>
    <path d="M250,100 C300,100 300,150 350,150 C400,150 400,150 420,150" fill="none" stroke="#555" stroke-width="3" marker-end="url(#arrow)"/>
    <path d="M250,100 C300,100 300,240 350,240 C400,240 400,240 420,240" fill="none" stroke="#555" stroke-width="3" marker-end="url(#arrow)"/>

    <!-- Noise Clusters -->
    <g transform="translate(430, 40)">
      <!-- Top Row -->
      <g transform="skewY(-15)">
        <rect x="0" y="0" width="70" height="90" fill="#a08070" stroke="black" stroke-width="1" filter="url(#noise)"/>
        <rect x="30" y="0" width="70" height="90" fill="#a08070" stroke="black" stroke-width="1" filter="url(#noise)"/>
      </g>
      <text x="120" y="50" font-size="40" font-weight="bold">. . .</text>
      <g transform="translate(160, 0) skewY(-15)">
        <rect x="0" y="0" width="70" height="90" fill="#a08070" stroke="black" stroke-width="1" filter="url(#noise)"/>
        <rect x="30" y="0" width="70" height="90" fill="#a08070" stroke="black" stroke-width="1" filter="url(#noise)"/>
      </g>

      <!-- Middle Row -->
      <g transform="translate(0, 100) skewY(-15)">
        <rect x="0" y="0" width="70" height="90" fill="#a08070" stroke="black" stroke-width="1" filter="url(#noise)"/>
        <rect x="30" y="0" width="70" height="90" fill="#a08070" stroke="black" stroke-width="1" filter="url(#noise)"/>
      </g>
      <text x="120" y="150" font-size="40" font-weight="bold">. . .</text>
      <g transform="translate(160, 100) skewY(-15)">
        <rect x="0" y="0" width="70" height="90" fill="#a08070" stroke="black" stroke-width="1" filter="url(#noise)"/>
        <rect x="30" y="0" width="70" height="90" fill="#a08070" stroke="black" stroke-width="1" filter="url(#noise)"/>
      </g>

      <!-- Bottom Row -->
      <g transform="translate(0, 200) skewY(-15)">
        <rect x="0" y="0" width="70" height="90" fill="#a08070" stroke="black" stroke-width="1" filter="url(#noise)"/>
        <rect x="30" y="0" width="70" height="90" fill="#a08070" stroke="black" stroke-width="1" filter="url(#noise)"/>
      </g>
      <text x="120" y="250" font-size="40" font-weight="bold">. . .</text>
      <g transform="translate(160, 200) skewY(-15)">
        <rect x="0" y="0" width="70" height="90" fill="#a08070" stroke="black" stroke-width="1" filter="url(#noise)"/>
        <rect x="30" y="0" width="70" height="90" fill="#a08070" stroke="black" stroke-width="1" filter="url(#noise)"/>
      </g>
    </g>

    <!-- Math Equations -->
    <g transform="translate(100, 180)">
      <text x="0" y="0" font-size="48" font-family="serif">Δ<tspan font-family="cursive">R</tspan> &lt; 0</text>
      <text x="0" y="55" font-size="48" font-family="serif">Δ<tspan font-family="cursive">R</tspan> ≈ 0</text>
      <text x="0" y="110" font-size="48" font-family="serif">Δ<tspan font-family="cursive">R</tspan> &gt; 0</text>
    </g>

    <!-- Perturbation Arrows -->
    <g transform="translate(250, 160)">
      <!-- Down Arrow -->
      <path d="M0,0 L15,0 L15,160 L25,160 L7.5,180 L-10,160 L0,160 Z" fill="url(#grad-arrow-down)"/>
      <!-- Up Arrow -->
      <path d="M40,180 L55,180 L55,0 L65,0 L47.5,-20 L30,0 L40,0 Z" fill="#66CC66"/>
    </g>

    <!-- Perturbation Level Bar -->
    <g transform="translate(620, 40)">
      <rect x="0" y="0" width="20" height="260" fill="url(#grad-arrow-mix)"/>
      <text x="35" y="130" font-size="30" font-weight="bold" transform="rotate(90, 35, 130)">Perturbation Level</text>
    </g>
  </g>
</svg>