<svg xmlns="http://www.w3.org/2000/svg" viewBox="0 0 1200 650" width="1200" height="650">
  <defs>
    <style>
      .box { fill: #f0f0f0; stroke: #a0a0a0; stroke-width: 2; rx: 10; ry: 10; }
      .box-green { fill: #d4ebd3; stroke: #8ab888; stroke-width: 2; rx: 10; ry: 10; }
      .box-purple { fill: #e6d0f0; stroke: #b890c8; stroke-width: 2; rx: 10; ry: 10; }
      .box-blue { fill: #d6e8f8; stroke: #8ab0d8; stroke-width: 2; rx: 10; ry: 10; }
      .box-orange { fill: #fce4c8; stroke: #e8b080; stroke-width: 2; rx: 10; ry: 10; }
      .box-yellow { fill: #fcf4d0; stroke: #d8c080; stroke-width: 2; rx: 10; ry: 10; }
      .box-inner { fill: #e8f4e8; stroke: #a0c0a0; stroke-width: 1.5; rx: 5; ry: 5; }
      .box-inner-purple { fill: #d8b8e8; stroke: #a080b8; stroke-width: 1.5; rx: 5; ry: 5; }
      .text-title { font-family: Arial, sans-serif; font-weight: bold; font-size: 18px; text-anchor: middle; }
      .text-normal { font-family: Arial, sans-serif; font-size: 14px; text-anchor: middle; }
      .text-small { font-family: Arial, sans-serif; font-size: 12px; text-anchor: middle; }
      .arrow { stroke: #606060; stroke-width: 4; fill: none; }
      .arrow-head { fill: #606060; }
      .line-dashed { stroke: #000; stroke-width: 2; stroke-dasharray: 8, 8; }
      .traj-line { fill: none; stroke-width: 2; }
      .traj-dot { stroke: none; }
      .grid-cell { stroke: #808080; stroke-width: 1; }
      .tree-node { stroke: #000; stroke-width: 1.5; }
      .tree-edge { stroke: #000; stroke-width: 1.5; fill: none; }
      .expert-icon { stroke: #000; stroke-width: 1.5; fill: none; }
      .label-pill { rx: 10; ry: 10; stroke: none; }
    </style>
    <marker id="arrowhead" markerWidth="10" markerHeight="7" refX="9" refY="3.5" orient="auto">
      <polygon points="0 0, 10 3.5, 0 7" class="arrow-head" />
    </marker>
    <marker id="arrowhead-black" markerWidth="10" markerHeight="7" refX="9" refY="3.5" orient="auto">
      <polygon points="0 0, 10 3.5, 0 7" fill="#000" />
    </marker>
  </defs>

  <!-- Top Section -->
  <!-- Augmented Trajectories -->
  <rect x="20" y="20" width="270" height="270" class="box" />
  <text x="155" y="275" class="text-title" font-size="16">Augmented Trajectories</text>
  
  <!-- Trajectory Scaling -->
  <path d="M 40 140 Q 100 80 180 40" class="traj-line" stroke="#e09090" />
  <circle cx="40" cy="140" r="4" fill="#80c0c0" />
  <circle cx="95" cy="95" r="4" fill="#e09090" />
  <circle cx="145" cy="65" r="4" fill="#80c0c0" />
  <circle cx="180" cy="40" r="4" fill="#e09090" />
  <path d="M 50 120 Q 110 60 190 20" class="traj-line" stroke="#80c0c0" />
  <circle cx="50" cy="120" r="4" fill="#e09090" />
  <circle cx="105" cy="75" r="4" fill="#80c0c0" />
  <circle cx="155" cy="45" r="4" fill="#e09090" />
  <circle cx="190" cy="20" r="4" fill="#80c0c0" />
  <line x1="30" y1="125" x2="145" y2="25" stroke="#000" stroke-width="2" marker-end="url(#arrowhead-black)" marker-start="url(#arrowhead-black)" />
  <text x="155" y="100" class="text-normal">Trajectory</text>
  <text x="155" y="120" class="text-normal">Scaling</text>

  <!-- Rotation -->
  <path d="M 50 210 Q 90 190 130 220" class="traj-line" stroke="#80c0c0" />
  <circle cx="50" cy="210" r="4" fill="#80c0c0" />
  <circle cx="90" cy="195" r="4" fill="#e09090" />
  <circle cx="130" cy="220" r="4" fill="#80c0c0" />
  <path d="M 50 240 Q 90 220 130 250" class="traj-line" stroke="#e09090" />
  <circle cx="50" cy="240" r="4" fill="#80c0c0" />
  <circle cx="90" cy="225" r="4" fill="#e09090" />
  <circle cx="130" cy="250" r="4" fill="#80c0c0" />
  <path d="M 130 220 Q 150 240 170 220" class="traj-line" stroke="#e09090" />
  <circle cx="150" cy="235" r="4" fill="#e09090" />
  <circle cx="170" cy="220" r="4" fill="#c090c0" />
  <path d="M 100 150 Q 120 170 140 150" class="traj-line" stroke="#80c0c0" />
  <circle cx="100" cy="150" r="4" fill="#80c0c0" />
  <circle cx="120" cy="165" r="4" fill="#e09090" />
  <circle cx="140" cy="150" r="4" fill="#80c0c0" />
  <path d="M 150 160 A 15 15 0 1 1 170 140" stroke="#000" stroke-width="2" fill="none" marker-end="url(#arrowhead-black)" />
  <text x="155" y="195" class="text-normal">Rotation</text>
  <path d="M 50 200 Q 70 190 90 200" stroke="#000" stroke-width="2" fill="none" marker-end="url(#arrowhead-black)" />

  <!-- Translation -->
  <path d="M 210 170 Q 230 130 270 110" class="traj-line" stroke="#c090c0" />
  <circle cx="210" cy="170" r="4" fill="#c090c0" />
  <circle cx="225" cy="135" r="4" fill="#c090c0" />
  <circle cx="245" cy="130" r="4" fill="#c090c0" />
  <circle cx="270" cy="110" r="4" fill="#c090c0" />
  <text x="240" y="195" class="text-normal">Translation</text>

  <!-- Arrow -->
  <line x1="295" y1="155" x2="320" y2="155" class="arrow" marker-end="url(#arrowhead)" />

  <!-- Feature Extraction module -->
  <rect x="325" y="20" width="188" height="270" class="box-green" />
  <text x="419" y="45" class="text-title">Feature Extraction</text>
  <text x="419" y="65" class="text-title">module</text>
  
  <rect x="340" y="80" width="158" height="195" class="box-inner" />
  <text x="419" y="105" class="text-normal">Trajectory Feature</text>
  <text x="419" y="125" class="text-normal">Extraction</text>
  
  <rect x="350" y="140" width="138" height="30" class="box-inner" fill="#f0f8f0" />
  <text x="419" y="160" class="text-normal">Motion Velocity</text>
  
  <rect x="350" y="180" width="138" height="30" class="box-inner" fill="#f0f8f0" />
  <text x="419" y="200" class="text-normal">Spatial Density</text>
  
  <rect x="350" y="220" width="138" height="40" class="box-inner" fill="#f0f8f0" />
  <text x="419" y="235" class="text-normal">Interaction</text>
  <text x="419" y="250" class="text-normal">Patterns</text>

  <!-- Arrow -->
  <line x1="518" y1="155" x2="543" y2="155" class="arrow" marker-end="url(#arrowhead)" />

  <!-- Context Encoder -->
  <rect x="548" y="80" width="124" height="145" class="box-purple" />
  <text x="610" y="105" class="text-title" font-size="16">Context</text>
  <text x="610" y="125" class="text-title" font-size="16">Encoder</text>
  
  <rect x="575" y="140" width="70" height="70" fill="#fff" stroke="#808080" stroke-width="1" />
  <!-- Grid cells -->
  <rect x="575" y="140" width="14" height="14" fill="#fff" class="grid-cell" />
  <rect x="589" y="140" width="14" height="14" fill="#a0c0a0" class="grid-cell" />
  <rect x="603" y="140" width="14" height="14" fill="#fff" class="grid-cell" />
  <rect x="617" y="140" width="14" height="14" fill="#c0a0c0" class="grid-cell" />
  <rect x="631" y="140" width="14" height="14" fill="#fff" class="grid-cell" />
  
  <rect x="575" y="154" width="14" height="14" fill="#fff" class="grid-cell" />
  <rect x="589" y="154" width="14" height="14" fill="#fff" class="grid-cell" />
  <rect x="603" y="154" width="14" height="14" fill="#a0c0a0" class="grid-cell" />
  <rect x="617" y="154" width="14" height="14" fill="#fff" class="grid-cell" />
  <rect x="631" y="154" width="14" height="14" fill="#80a0c0" class="grid-cell" />
  
  <rect x="575" y="168" width="14" height="14" fill="#80a0c0" class="grid-cell" />
  <rect x="589" y="168" width="14" height="14" fill="#fff" class="grid-cell" />
  <rect x="603" y="168" width="14" height="14" fill="#fff" class="grid-cell" />
  <rect x="617" y="168" width="14" height="14" fill="#a0c0a0" class="grid-cell" />
  <rect x="631" y="168" width="14" height="14" fill="#fff" class="grid-cell" />
  
  <rect x="575" y="182" width="14" height="14" fill="#fff" class="grid-cell" />
  <rect x="589" y="182" width="14" height="14" fill="#c0a0c0" class="grid-cell" />
  <rect x="603" y="182" width="14" height="14" fill="#80a0c0" class="grid-cell" />
  <rect x="617" y="182" width="14" height="14" fill="#fff" class="grid-cell" />
  <rect x="631" y="182" width="14" height="14" fill="#fff" class="grid-cell" />
  
  <rect x="575" y="196" width="14" height="14" fill="#a0c0a0" class="grid-cell" />
  <rect x="589" y="196" width="14" height="14" fill="#fff" class="grid-cell" />
  <rect x="603" y="196" width="14" height="14" fill="#fff" class="grid-cell" />
  <rect x="617" y="196" width="14" height="14" fill="#80a0c0" class="grid-cell" />
  <rect x="631" y="196" width="14" height="14" fill="#a0c0a0" class="grid-cell" />

  <!-- Arrow -->
  <line x1="677" y1="155" x2="702" y2="155" class="arrow" marker-end="url(#arrowhead)" />

  <!-- SceneSelect Classifier -->
  <rect x="707" y="80" width="131" height="145" class="box-blue" />
  <text x="772" y="105" class="text-title" font-size="16">SceneSelect</text>
  <text x="772" y="125" class="text-title" font-size="16">Classifier</text>
  
  <!-- Tree -->
  <path d="M 772 160 L 752 180" class="tree-edge" />
  <path d="M 772 160 L 792 180" class="tree-edge" />
  <path d="M 752 180 L 740 200" class="tree-edge" />
  <path d="M 752 180 L 764 200" class="tree-edge" />
  <path d="M 792 180 L 780 200" class="tree-edge" />
  <path d="M 792 180 L 804 200" class="tree-edge" />
  
  <circle cx="772" cy="160" r="6" fill="#80b0e0" class="tree-node" />
  <circle cx="752" cy="180" r="6" fill="#80b0e0" class="tree-node" />
  <circle cx="792" cy="180" r="6" fill="#80b0e0" class="tree-node" />
  <circle cx="740" cy="200" r="6" fill="#e09090" class="tree-node" />
  <circle cx="764" cy="200" r="6" fill="#80c0c0" class="tree-node" />
  <circle cx="780" cy="200" r="6" fill="#e0c080" class="tree-node" />
  <circle cx="804" cy="200" r="6" fill="#80b0e0" class="tree-node" />

  <!-- Scheduling Policy -->
  <rect x="707" y="240" width="162" height="60" class="box-yellow" />
  <text x="760" y="265" class="text-title" font-size="16">Scheduling</text>
  <text x="760" y="285" class="text-title" font-size="16">Policy</text>
  
  <rect x="822" y="250" width="36" height="40" fill="#fff" stroke="#000" stroke-width="1" />
  <line x1="822" y1="263" x2="858" y2="263" stroke="#000" stroke-width="1" />
  <line x1="822" y1="276" x2="858" y2="276" stroke="#000" stroke-width="1" />
  <line x1="834" y1="250" x2="834" y2="290" stroke="#000" stroke-width="1" />
  <line x1="846" y1="250" x2="846" y2="290" stroke="#000" stroke-width="1" />

  <!-- Arrow -->
  <line x1="843" y1="155" x2="873" y2="155" class="arrow" marker-end="url(#arrowhead)" />

  <!-- Scene-Model Pool -->
  <rect x="883" y="20" width="184" height="270" class="box-orange" />
  <text x="975" y="45" class="text-title">Scene-Model Pool</text>
  
  <!-- Expert 1 -->
  <path d="M 955 85 A 15 15 0 1 1 995 85" class="expert-icon" marker-end="url(#arrowhead-black)" />
  <path d="M 995 85 A 15 15 0 0 1 955 85" class="expert-icon" marker-end="url(#arrowhead-black)" />
  <line x1="935" y1="85" x2="955" y2="85" class="expert-icon" marker-end="url(#arrowhead-black)" />
  <line x1="995" y1="85" x2="1015" y2="85" class="expert-icon" marker-end="url(#arrowhead-black)" />
  <text x="975" y="120" class="text-normal">Expert 1</text>
  
  <!-- Expert 2 -->
  <line x1="955" y1="145" x2="975" y2="145" class="expert-icon" />
  <line x1="955" y1="155" x2="975" y2="155" class="expert-icon" />
  <line x1="955" y1="165" x2="975" y2="165" class="expert-icon" />
  <line x1="955" y1="175" x2="975" y2="175" class="expert-icon" />
  <line x1="955" y1="185" x2="975" y2="185" class="expert-icon" />
  <polygon points="975,140 985,145 975,150" fill="none" stroke="#000" stroke-width="1.5" />
  <polygon points="975,150 985,155 975,160" fill="none" stroke="#000" stroke-width="1.5" />
  <polygon points="975,160 985,165 975,170" fill="none" stroke="#000" stroke-width="1.5" />
  <polygon points="975,170 985,175 975,180" fill="none" stroke="#000" stroke-width="1.5" />
  <polygon points="975,180 985,185 975,190" fill="none" stroke="#000" stroke-width="1.5" />
  <line x1="985" y1="165" x2="1015" y2="165" class="expert-icon" marker-end="url(#arrowhead-black)" />
  <text x="975" y="205" class="text-normal">Expert 2</text>
  
  <!-- Expert 3 -->
  <line x1="945" y1="245" x2="965" y2="245" class="expert-icon" />
  <rect x="965" y="230" width="10" height="30" fill="none" stroke="#000" stroke-width="1.5" />
  <rect x="980" y="235" width="10" height="20" fill="none" stroke="#000" stroke-width="1.5" />
  <polygon points="995,240 1005,245 995,250" fill="none" stroke="#000" stroke-width="1.5" />
  <line x1="975" y1="245" x2="980" y2="245" class="expert-icon" />
  <line x1="990" y1="245" x2="995" y2="245" class="expert-icon" />
  <line x1="1005" y1="245" x2="1020" y2="245" class="expert-icon" marker-end="url(#arrowhead-black)" />
  <text x="975" y="275" class="text-normal">Expert 3</text>

  <!-- Arrow -->
  <line x1="1072" y1="155" x2="1097" y2="155" class="arrow" marker-end="url(#arrowhead)" />

  <!-- Predicted Trajectory -->
  <path d="M 1107 165 Q 1137 135 1167 145" class="traj-line line-dashed" stroke="#000" marker-end="url(#arrowhead-black)" />
  <text x="1137" y="190" class="text-normal">Predicted</text>
  <text x="1137" y="210" class="text-normal">Trajectory</text>

  <!-- Dashed Separator -->
  <line x1="10" y1="320" x2="1190" y2="320" class="line-dashed" />

  <!-- Bottom Section -->
  <!-- (a) Scene Context Encoder -->
  <text x="30" y="350" class="text-title" font-size="22" text-anchor="start">(a)</text>
  <rect x="15" y="365" class="box-purple" width="615" height="260" />
  <text x="322" y="395" class="text-title" font-size="20">Scene Context Encoder</text>
  
  <!-- Raw Features -->
  <text x="65" y="435" class="text-title" font-size="16">Raw</text>
  <text x="65" y="455" class="text-title" font-size="16">Features</text>
  <rect x="30" y="480" width="75" height="15" fill="#80c0c0" stroke="#000" stroke-width="1" />
  <rect x="30" y="505" width="75" height="15" fill="#e09090" stroke="#000" stroke-width="1" />
  <rect x="30" y="530" width="75" height="15" fill="#e0c080" stroke="#000" stroke-width="1" />
  <text x="65" y="570" class="text-normal">Extracted &amp;</text>
  <text x="65" y="590" class="text-normal">kinematic</text>
  <text x="65" y="610" class="text-normal">feature vectors</text>

  <!-- Arrow -->
  <line x1="110" y1="515" x2="130" y2="515" class="arrow" marker-end="url(#arrowhead)" />

  <!-- Random Projection -->
  <rect x="135" y="415" width="112" height="150" class="box-inner-purple" />
  <text x="191" y="440" class="text-title" font-size="16">Random</text>
  <text x="191" y="460" class="text-title" font-size="16">Projection</text>
  
  <rect x="145" y="500" width="36" height="36" fill="#fff" stroke="#000" stroke-width="1" />
  <rect x="145" y="500" width="12" height="12" fill="#80b0e0" class="grid-cell" />
  <rect x="157" y="500" width="12" height="12" fill="#fff" class="grid-cell" />
  <rect x="169" y="500" width="12" height="12" fill="#fff" class="grid-cell" />
  <rect x="145" y="512" width="12" height="12" fill="#fff" class="grid-cell" />
  <rect x="157" y="512" width="12" height="12" fill="#80b0e0" class="grid-cell" />
  <rect x="169" y="512" width="12" height="12" fill="#fff" class="grid-cell" />
  <rect x="145" y="524" width="12" height="12" fill="#fff" class="grid-cell" />
  <rect x="157" y="524" width="12" height="12" fill="#fff" class="grid-cell" />
  <rect x="169" y="524" width="12" height="12" fill="#80b0e0" class="grid-cell" />
  
  <text x="191" y="523" class="text-normal">×</text>
  
  <rect x="201" y="500" width="36" height="36" fill="#fff" stroke="#000" stroke-width="1" />
  <rect x="201" y="500" width="12" height="12" fill="#e0c080" class="grid-cell" />
  <rect x="213" y="500" width="12" height="12" fill="#fff" class="grid-cell" />
  <rect x="225" y="500" width="12" height="12" fill="#fff" class="grid-cell" />
  <rect x="201" y="512" width="12" height="12" fill="#fff" class="grid-cell" />
  <rect x="213" y="512" width="12" height="12" fill="#e0c080" class="grid-cell" />
  <rect x="225" y="512" width="12" height="12" fill="#fff" class="grid-cell" />
  <rect x="201" y="524" width="12" height="12" fill="#fff" class="grid-cell" />
  <rect x="213" y="524" width="12" height="12" fill="#fff" class="grid-cell" />
  <rect x="225" y="524" width="12" height="12" fill="#e0c080" class="grid-cell" />
  
  <text x="191" y="590" class="text-normal">Random</text>
  <text x="191" y="610" class="text-normal">matrix</text>

  <!-- Arrow -->
  <line x1="252" y1="515" x2="272" y2="515" class="arrow" marker-end="url(#arrowhead)" />

  <!-- Sparsification -->
  <text x="328" y="440" class="text-title" font-size="16">Sparsification</text>
  <rect x="288" y="480" width="78" height="78" fill="#fff" stroke="#000" stroke-width="1" />
  <!-- Grid -->
  <line x1="301" y1="480" x2="301" y2="558" stroke="#808080" stroke-width="1" />
  <line x1="314" y1="480" x2="314" y2="558" stroke="#808080" stroke-width="1" />
  <line x1="327" y1="480" x2="327" y2="558" stroke="#808080" stroke-width="1" />
  <line x1="340" y1="480" x2="340" y2="558" stroke="#808080" stroke-width="1" />
  <line x1="353" y1="480" x2="353" y2="558" stroke="#808080" stroke-width="1" />
  <line x1="288" y1="493" x2="366" y2="493" stroke="#808080" stroke-width="1" />
  <line x1="288" y1="506" x2="366" y2="506" stroke="#808080" stroke-width="1" />
  <line x1="288" y1="519" x2="366" y2="519" stroke="#808080" stroke-width="1" />
  <line x1="288" y1="532" x2="366" y2="532" stroke="#808080" stroke-width="1" />
  <line x1="288" y1="545" x2="366" y2="545" stroke="#808080" stroke-width="1" />
  <!-- Colored cells -->
  <rect x="301" y="480" width="13" height="13" fill="#80b0e0" />
  <rect x="353" y="480" width="13" height="13" fill="#a0c0a0" />
  <rect x="288" y="506" width="13" height="13" fill="#80b0e0" />
  <rect x="327" y="506" width="13" height="13" fill="#80b0e0" />
  <rect x="314" y="519" width="13" height="13" fill="#80b0e0" />
  <rect x="340" y="532" width="13" height="13" fill="#80b0e0" />
  <rect x="301" y="545" width="13" height="13" fill="#80b0e0" />
  <rect x="353" y="545" width="13" height="13" fill="#a0c0a0" />
  
  <text x="328" y="580" class="text-normal">Sparse high-</text>
  <text x="328" y="600" class="text-normal">dimensional</text>
  <text x="328" y="620" class="text-normal">representation</text>

  <!-- Arrow -->
  <line x1="383" y1="515" x2="403" y2="515" class="arrow" marker-end="url(#arrowhead)" />

  <!-- Clustering -->
  <rect x="408" y="415" width="108" height="150" class="box-inner-purple" />
  <text x="462" y="440" class="text-title" font-size="16">Clustering</text>
  
  <rect x="418" y="475" width="88" height="80" fill="#fff" stroke="#000" stroke-width="1" />
  <line x1="425" y1="545" x2="495" y2="545" stroke="#000" stroke-width="1.5" marker-end="url(#arrowhead-black)" />
  <line x1="425" y1="545" x2="425" y2="485" stroke="#000" stroke-width="1.5" marker-end="url(#arrowhead-black)" />
  
  <!-- Clusters -->
  <ellipse cx="450" cy="500" rx="15" ry="10" fill="#f0d0d0" stroke="#e09090" stroke-width="1" transform="rotate(-20 450 500)" />
  <circle cx="445" cy="495" r="2" fill="#e09090" />
  <circle cx="455" cy="498" r="2" fill="#e09090" />
  <circle cx="448" cy="505" r="2" fill="#e09090" />
  <circle cx="440" cy="502" r="2" fill="#e09090" />
  
  <ellipse cx="480" cy="505" rx="12" ry="12" fill="#d0e0e0" stroke="#80c0c0" stroke-width="1" />
  <circle cx="475" cy="500" r="2" fill="#80c0c0" />
  <circle cx="485" cy="502" r="2" fill="#80c0c0" />
  <circle cx="478" cy="510" r="2" fill="#80c0c0" />
  <circle cx="482" cy="498" r="2" fill="#80c0c0" />
  
  <ellipse cx="440" cy="535" rx="12" ry="10" fill="#e0d0e0" stroke="#b090c0" stroke-width="1" />
  <circle cx="435" cy="532" r="2" fill="#b090c0" />
  <circle cx="445" cy="535" r="2" fill="#b090c0" />
  <circle cx="438" cy="540" r="2" fill="#b090c0" />
  
  <ellipse cx="475" cy="530" rx="12" ry="10" fill="#f0e0c0" stroke="#d0b080" stroke-width="1" />
  <circle cx="470" cy="528" r="2" fill="#d0b080" />
  <circle cx="480" cy="532" r="2" fill="#d0b080" />
  <circle cx="475" cy="535" r="2" fill="#d0b080" />
  
  <text x="462" y="590" class="text-normal">Unsupervised</text>
  <text x="462" y="610" class="text-normal">Clustering</text>

  <!-- Arrow -->
  <line x1="521" y1="515" x2="541" y2="515" class="arrow" marker-end="url(#arrowhead)" />

  <!-- Pseudo-labels -->
  <text x="580" y="435" class="text-title" font-size="16">Pseudo-</text>
  <text x="580" y="455" class="text-title" font-size="16">labels</text>
  
  <rect x="548" y="475" width="65" height="20" fill="#e09090" class="label-pill" />
  <text x="580" y="490" class="text-small">Scene A</text>
  
  <rect x="548" y="505" width="65" height="20" fill="#80c0c0" class="label-pill" />
  <text x="580" y="520" class="text-small">Scene B</text>
  
  <rect x="548" y="535" width="65" height="20" fill="#e0c080" class="label-pill" />
  <text x="580" y="550" class="text-small">Scene C</text>
  
  <text x="580" y="590" class="text-normal">Pseudo-labels</text>
  <text x="580" y="610" class="text-small">(Scene Categories)</text>

  <!-- Arrow to (b) -->
  <line x1="635" y1="515" x2="665" y2="515" class="arrow" marker-end="url(#arrowhead)" />

  <!-- (b) SceneSelect Classifier -->
  <text x="665" y="350" class="text-title" font-size="22" text-anchor="start">(b)</text>
  <rect x="650" y="365" class="box-blue" width="520" height="260" />
  <text x="910" y="395" class="text-title" font-size="20">SceneSelect Classifier</text>
  
  <!-- Input -->
  <text x="685" y="440" class="text-title" font-size="16">Input</text>
  <text x="685" y="505" class="text-normal">Pseudo-</text>
  <text x="685" y="525" class="text-normal">labels</text>
  <text x="685" y="545" class="text-normal">+ Features</text>

  <!-- Arrow -->
  <line x1="720" y1="515" x2="740" y2="515" class="arrow" marker-end="url(#arrowhead)" />

  <!-- Additive Tree-based Classifier -->
  <text x="815" y="435" class="text-title" font-size="16">Additive Tree-based</text>
  <text x="815" y="455" class="text-title" font-size="16">Classifier</text>
  
  <path d="M 815 485 L 775 535" class="tree-edge" />
  <path d="M 815 485 L 855 535" class="tree-edge" />
  <path d="M 775 535 L 755 585" class="tree-edge" />
  <path d="M 775 535 L 795 585" class="tree-edge" />
  <path d="M 855 535 L 835 585" class="tree-edge" />
  <path d="M 855 535 L 875 585" class="tree-edge" />
  
  <circle cx="815" cy="485" r="12" fill="#80b0e0" class="tree-node" />
  <circle cx="775" cy="535" r="12" fill="#80b0e0" class="tree-node" />
  <circle cx="855" cy="535" r="12" fill="#80b0e0" class="tree-node" />
  <circle cx="755" cy="585" r="12" fill="#e09090" class="tree-node" />
  <circle cx="795" cy="585" r="12" fill="#80c0c0" class="tree-node" />
  <circle cx="835" cy="585" r="12" fill="#e0c080" class="tree-node" />
  <circle cx="875" cy="585" r="12" fill="#e0c080" class="tree-node" />

  <!-- Arrow -->
  <line x1="905" y1="525" x2="925" y2="525" class="arrow" marker-end="url(#arrowhead)" />

  <!-- Scene Category Output -->
  <text x="965" y="435" class="text-title" font-size="16">Scene</text>
  <text x="965" y="455" class="text-title" font-size="16">Category</text>
  <text x="965" y="475" class="text-title" font-size="16">Output</text>
  
  <rect x="933" y="490" width="65" height="20" fill="#e09090" class="label-pill" />
  <text x="965" y="505" class="text-small">Scene A</text>
  
  <rect x="933" y="520" width="65" height="20" fill="#80c0c0" class="label-pill" />
  <text x="965" y="535" class="text-small">Scene B</text>
  
  <rect x="933" y="550" width="65" height="20" fill="#e0c080" class="label-pill" />
  <text x="965" y="565" class="text-small">Scene C</text>

  <!-- Arrow -->
  <line x1="1005" y1="525" x2="1025" y2="525" class="arrow" marker-end="url(#arrowhead)" />

  <!-- Scheduling Policy Table -->
  <text x="1090" y="440" class="text-title" font-size="16">Scheduling</text>
  <text x="1090" y="460" class="text-title" font-size="16">Policy Table</text>
  
  <rect x="1030" y="480" width="120" height="90" class="box-yellow" />
  
  <rect x="1040" y="495" width="50" height="20" fill="#fff" stroke="#000" stroke-width="1" />
  <text x="1065" y="510" class="text-small">Scene A</text>
  <rect x="1090" y="495" width="50" height="20" fill="#fff" stroke="#000" stroke-width="1" />
  <text x="1115" y="510" class="text-small">Expert 1</text>
  
  <rect x="1040" y="515" width="50" height="20" fill="#fff" stroke="#000" stroke-width="1" />
  <text x="1065" y="530" class="text-small">Scene B</text>
  <rect x="1090" y="515" width="50" height="20" fill="#fff" stroke="#000" stroke-width="1" />
  <text x="1115" y="530" class="text-small">Expert 2</text>
  
  <rect x="1040" y="535" width="50" height="20" fill="#fff" stroke="#000" stroke-width="1" />
  <text x="1065" y="550" class="text-small">...</text>
  <rect x="1090" y="535" width="50" height="20" fill="#fff" stroke="#000" stroke-width="1" />
  <text x="1115" y="550" class="text-small">Expert 3</text>

</svg>