<svg xmlns="http://www.w3.org/2000/svg" width="1890" height="872" viewBox="0 0 1890 872">

<defs>
  <marker id="arrowBlack" markerWidth="10" markerHeight="8" refX="9" refY="4" orient="auto" markerUnits="strokeWidth"><path d="M0,0 L10,4 L0,8 Z" fill="#222"/></marker>
  <marker id="arrowGray" markerWidth="10" markerHeight="8" refX="9" refY="4" orient="auto" markerUnits="strokeWidth"><path d="M0,0 L10,4 L0,8 Z" fill="#666"/></marker>
  <marker id="arrowGreen" markerWidth="10" markerHeight="8" refX="9" refY="4" orient="auto" markerUnits="strokeWidth"><path d="M0,0 L10,4 L0,8 Z" fill="#95c87b"/></marker>
  <marker id="arrowOrange" markerWidth="10" markerHeight="8" refX="9" refY="4" orient="auto" markerUnits="strokeWidth"><path d="M0,0 L10,4 L0,8 Z" fill="#f2a26d"/></marker>
  <marker id="arrowBlue" markerWidth="10" markerHeight="8" refX="9" refY="4" orient="auto" markerUnits="strokeWidth"><path d="M0,0 L10,4 L0,8 Z" fill="#83acd0"/></marker>
  <marker id="arrowPink" markerWidth="10" markerHeight="8" refX="9" refY="4" orient="auto" markerUnits="strokeWidth"><path d="M0,0 L10,4 L0,8 Z" fill="#f5a6a6"/></marker>
  <style>
    .panel { fill:#ffffff; stroke:#555; stroke-width:4; stroke-dasharray:3 6; }
    .inner-dashed { fill:#edf3f7; stroke:#555; stroke-width:2; stroke-dasharray:8 7; }
    .boxtext { font-family:'Times New Roman', Times, serif; fill:#111; }
    .small { font-size:18px; }
    .label { font-size:24px; }
    .bold { font-weight:bold; }
    .italic { font-style:italic; }
  </style>
</defs>
<rect x="0" y="0" width="1890" height="872" fill="#ffffff" stroke="none" stroke-width="2"/>
<rect x="8" y="22" width="630" height="748" fill="#fff" stroke="#555" stroke-width="4" stroke-dasharray="3 6"/>
<rect x="670" y="22" width="580" height="748" fill="#fff" stroke="#555" stroke-width="4" stroke-dasharray="3 6"/>
<rect x="1282" y="22" width="600" height="748" fill="#fff" stroke="#555" stroke-width="4" stroke-dasharray="3 6"/>
<text x="110" y="56" font-size="26" font-family="'Times New Roman', Times, serif" font-weight="bold" font-style="italic" text-anchor="middle" fill="#111">Item_i</text><line x1="110" y1="64" x2="110" y2="90" stroke="#555" stroke-width="3" fill="none" marker-end="url(#arrowGray)"/>
<rect x="28" y="92" width="166" height="78" fill="#eeeeee" stroke="#555" stroke-width="3" rx="8" ry="8"/>
<text x="111" y="123" font-size="26" font-family="'Times New Roman', Times, serif" font-weight="normal" font-style="normal" text-anchor="middle" fill="#111"><tspan x="111" dy="0">Raw</tspan><tspan x="111" dy="1.15em">Information</tspan></text><line x1="194" y1="131" x2="225" y2="131" stroke="#555" stroke-width="3" fill="none" marker-end="url(#arrowGray)"/>
<g id="svg_mllm_icon_left_top" data-source-slot="slot_mllm_icon_left_top" transform="translate(225,62) scale(1.00000,1.00000)">
  <g fill="#050505" stroke="#050505" stroke-linecap="round" stroke-linejoin="round">
    <line x1="42" y1="0" x2="42" y2="14" stroke-width="5"/>
    <circle cx="42" cy="0" r="4"/>
    <rect x="28" y="15" width="28" height="18" rx="4"/>
    <rect x="18" y="31" width="50" height="50" rx="8"/>
    <rect x="8" y="45" width="12" height="28" rx="4"/>
    <rect x="64" y="45" width="12" height="28" rx="4"/>
    <line x1="8" y1="51" x2="0" y2="40" stroke-width="5"/>
    <line x1="76" y1="51" x2="84" y2="40" stroke-width="5"/>
    <rect x="18" y="84" width="50" height="12" rx="4"/>
    <circle cx="24" cy="105" r="6"/>
    <circle cx="42" cy="105" r="6"/>
    <circle cx="60" cy="105" r="6"/>
  </g>
  <circle cx="33" cy="44" r="4" fill="#ffffff"/>
  <circle cx="51" cy="44" r="4" fill="#ffffff"/>
  <path d="M25 66 L32 66 L36 57 L42 75 L48 60 L52 66 L61 66" stroke="#ffffff" stroke-width="3" fill="none" stroke-linejoin="round"/>
</g><text x="265" y="191" font-size="28" font-family="'Times New Roman', Times, serif" font-weight="bold" font-style="normal" text-anchor="middle" fill="#111">MLLM</text><line x1="309" y1="131" x2="348" y2="131" stroke="#555" stroke-width="3" fill="none" marker-end="url(#arrowGray)"/>
<rect x="350" y="50" width="128" height="184" fill="none" stroke="#555" stroke-width="2.5" stroke-dasharray="3 4"/>
<rect x="368" y="61" width="92" height="45" fill="#d7e2ef" stroke="#60728c" stroke-width="2.5" rx="8" ry="8" stroke-dasharray="14 8"/>
<text x="414" y="91" font-size="20" font-family="'Times New Roman', Times, serif" font-weight="bold" font-style="normal" text-anchor="middle" fill="#111">ASR</text><rect x="368" y="116" width="92" height="45" fill="#d7e2ef" stroke="#60728c" stroke-width="2.5" rx="8" ry="8" stroke-dasharray="14 8"/>
<text x="414" y="146" font-size="20" font-family="'Times New Roman', Times, serif" font-weight="bold" font-style="normal" text-anchor="middle" fill="#111">OCR</text><rect x="368" y="171" width="92" height="45" fill="#fbf2d9" stroke="#99945d" stroke-width="2.5" rx="8" ry="8" stroke-dasharray="14 8"/>
<text x="414" y="201" font-size="19" font-family="'Times New Roman', Times, serif" font-weight="bold" font-style="normal" text-anchor="middle" fill="#111">Text</text><polyline points="478,138 500,138 500,324" stroke="#555" stroke-width="2" fill="none" marker-end="url(#arrowGray)" stroke-dasharray="3 4"/>
<rect x="514" y="61" width="120" height="166" fill="#f7eaf3" stroke="#555" stroke-width="3" rx="18" ry="18" stroke-dasharray="14 8"/>
<text x="574" y="135" font-size="23" font-family="'Times New Roman', Times, serif" font-weight="bold" font-style="normal" text-anchor="middle" fill="#111"><tspan x="574" dy="0">MLLM</tspan><tspan x="574" dy="1.15em">Emb Eᵢ</tspan></text><line x1="563" y1="40" x2="563" y2="61" stroke="#555" stroke-width="3" fill="none" marker-end="url(#arrowGray)"/>
<rect x="25" y="330" width="274" height="85" fill="#dfeecf" stroke="#95c87b" stroke-width="3" rx="8" ry="8"/>
<text x="162" y="366" font-size="24" font-family="'Times New Roman', Times, serif" font-weight="bold" font-style="normal" text-anchor="middle" fill="#111"><tspan x="162" dy="0">ItemTag Extraction</tspan><tspan x="162" dy="1.15em">Prompt Xᵢᶜ</tspan></text><rect x="356" y="330" width="270" height="85" fill="#fff5d6" stroke="#b99600" stroke-width="3" rx="8" ry="8"/>
<text x="491" y="366" font-size="24" font-family="'Times New Roman', Times, serif" font-weight="bold" font-style="normal" text-anchor="middle" fill="#111"><tspan x="491" dy="0">UserTag Extraction</tspan><tspan x="491" dy="1.15em">Prompt Xᵢᵀ</tspan></text><polyline points="160,235 160,330" stroke="#555" stroke-width="2.2" fill="none" marker-end="url(#arrowGray)" stroke-dasharray="3 4"/>
<polyline points="574,227 574,296 320,296 320,434" stroke="#f5a6a6" stroke-width="3" fill="none" marker-end="url(#arrowPink)" opacity="0.8"/>
<polyline points="486,416 486,540" stroke="#f2a26d" stroke-width="3" fill="none" marker-end="url(#arrowOrange)" opacity="0.8"/>
<g id="svg_mllm_icon_extraction_center" data-source-slot="slot_mllm_icon_extraction_center" transform="translate(282,443) scale(1.02381,0.97391)">
  <g fill="#050505" stroke="#050505" stroke-linecap="round" stroke-linejoin="round">
    <line x1="42" y1="0" x2="42" y2="14" stroke-width="5"/>
    <circle cx="42" cy="0" r="4"/>
    <rect x="28" y="15" width="28" height="18" rx="4"/>
    <rect x="18" y="31" width="50" height="50" rx="8"/>
    <rect x="8" y="45" width="12" height="28" rx="4"/>
    <rect x="64" y="45" width="12" height="28" rx="4"/>
    <line x1="8" y1="51" x2="0" y2="40" stroke-width="5"/>
    <line x1="76" y1="51" x2="84" y2="40" stroke-width="5"/>
    <rect x="18" y="84" width="50" height="12" rx="4"/>
    <circle cx="24" cy="105" r="6"/>
    <circle cx="42" cy="105" r="6"/>
    <circle cx="60" cy="105" r="6"/>
  </g>
  <circle cx="33" cy="44" r="4" fill="#ffffff"/>
  <circle cx="51" cy="44" r="4" fill="#ffffff"/>
  <path d="M25 66 L32 66 L36 57 L42 75 L48 60 L52 66 L61 66" stroke="#ffffff" stroke-width="3" fill="none" stroke-linejoin="round"/>
</g><text x="326" y="573" font-size="30" font-family="'Times New Roman', Times, serif" font-weight="bold" font-style="normal" text-anchor="middle" fill="#111">MLLM</text><polyline points="145,416 145,471 276,471" stroke="#95c87b" stroke-width="3" fill="none" marker-end="url(#arrowGreen)"/>
<polyline points="300,472 240,472 240,469" stroke="#95c87b" stroke-width="3" fill="none" marker-end="url(#arrowGreen)" opacity="0.8"/>
<polyline points="490,416 490,468 368,468" stroke="#f2a26d" stroke-width="3" fill="none" marker-end="url(#arrowOrange)" opacity="0.8"/>
<rect x="68" y="540" width="176" height="54" fill="#dfeecf" stroke="#95c87b" stroke-width="2" rx="8" ry="8" opacity="0.75"/>
<text x="156" y="574" font-size="25" font-family="'Times New Roman', Times, serif" font-weight="normal" font-style="normal" text-anchor="middle" fill="#111">Live Music</text><rect x="42" y="604" width="166" height="54" fill="#c8e2b4" stroke="#95c87b" stroke-width="2" rx="8" ry="8" opacity="0.8"/>
<text x="125" y="635" font-size="22" font-family="'Times New Roman', Times, serif" font-weight="normal" font-style="normal" text-anchor="middle" fill="#111"><tspan x="125" dy="0">Instrument</tspan><tspan x="125" dy="1.15em">Shows</tspan></text><text x="45" y="692" font-size="26" font-family="'Times New Roman', Times, serif" text-anchor="start" font-weight="normal" font-style="normal" fill="#111"><tspan font-weight="bold">ItemTag Set </tspan><tspan font-style="italic">C*</tspan></text><rect x="413" y="550" width="174" height="54" fill="#fff5d6" stroke="#b99600" stroke-width="2" rx="8" ry="8"/>
<text x="500" y="584" font-size="24" font-family="'Times New Roman', Times, serif" font-weight="normal" font-style="normal" text-anchor="middle" fill="#111">Folk Music</text><rect x="384" y="606" width="166" height="54" fill="#f7dfcf" stroke="#b99600" stroke-width="2" rx="8" ry="8" opacity="0.75"/>
<text x="467" y="637" font-size="22" font-family="'Times New Roman', Times, serif" font-weight="normal" font-style="normal" text-anchor="middle" fill="#111"><tspan x="467" dy="0">Music</tspan><tspan x="467" dy="1.15em">Enthusiast</tspan></text><text x="392" y="692" font-size="26" font-family="'Times New Roman', Times, serif" text-anchor="start" font-weight="normal" font-style="normal" fill="#111"><tspan font-weight="bold">UserTag Set </tspan><tspan font-style="italic">T*</tspan></text><polyline points="155,416 155,526" stroke="#95c87b" stroke-width="3" fill="none" marker-end="url(#arrowGreen)"/>
<polyline points="486,416 486,545" stroke="#f2a26d" stroke-width="3" fill="none" marker-end="url(#arrowOrange)"/>
<polyline points="115,660 115,746 858,746 858,724" stroke="#95c87b" stroke-width="3" fill="none" marker-end="url(#arrowGreen)"/>
<polyline points="486,660 486,746 1083,746 1083,724" stroke="#f2a26d" stroke-width="3" fill="none" marker-end="url(#arrowOrange)"/>
<rect x="735" y="38" width="488" height="365" fill="#edf3f7" stroke="#555" stroke-width="1.5" rx="24" ry="24" stroke-dasharray="8 8"/>
<text x="760" y="70" font-size="28" font-family="'Times New Roman', Times, serif" font-weight="bold" font-style="italic" text-anchor="start" fill="#111">Logic Graph</text><rect x="905" y="75" width="180" height="55" fill="#f8ebd5" stroke="#b99600" stroke-width="2" rx="8" ry="8"/>
<text x="995" y="108" font-size="24" font-family="'Times New Roman', Times, serif" font-weight="normal" font-style="normal" text-anchor="middle" fill="#111">Folk Music</text><rect x="870" y="102" width="190" height="78" fill="#f1d4c4" stroke="#b99600" stroke-width="2" rx="8" ry="8" opacity="0.88"/>
<text x="965" y="141" font-size="23" font-family="'Times New Roman', Times, serif" font-weight="normal" font-style="normal" text-anchor="middle" fill="#111"><tspan x="965" dy="0">Music</tspan><tspan x="965" dy="1.15em">Enthusiast</tspan></text><text x="965" y="210" font-size="27" font-family="'Times New Roman', Times, serif" font-weight="bold" font-style="normal" text-anchor="middle" fill="#111">UserTag Set C*</text><rect x="895" y="254" width="175" height="55" fill="#e0f2d5" stroke="#95c87b" stroke-width="2" rx="8" ry="8" opacity="0.85"/>
<text x="983" y="289" font-size="22" font-family="'Times New Roman', Times, serif" font-weight="normal" font-style="normal" text-anchor="middle" fill="#111">Live Music</text><rect x="870" y="318" width="165" height="72" fill="#b9d9a2" stroke="#95c87b" stroke-width="2" rx="8" ry="8" opacity="0.85"/>
<text x="952" y="350" font-size="21" font-family="'Times New Roman', Times, serif" font-weight="normal" font-style="normal" text-anchor="middle" fill="#111"><tspan x="952" dy="0">Instrument</tspan><tspan x="952" dy="1.15em">Shows</tspan></text><text x="965" y="402" font-size="27" font-family="'Times New Roman', Times, serif" font-weight="bold" font-style="normal" text-anchor="middle" fill="#111">ItemTag Set T*</text><polyline points="835,104 835,277 895,277" stroke="#f2a26d" stroke-width="3" fill="none" marker-end="url(#arrowOrange)" opacity="0.85"/>
<polyline points="835,130 835,330 895,330" stroke="#f2a26d" stroke-width="3" fill="none" marker-end="url(#arrowOrange)" opacity="0.85"/>
<polyline points="835,160 835,350 895,350" stroke="#f2a26d" stroke-width="3" fill="none" marker-end="url(#arrowOrange)" opacity="0.85"/>
<polyline points="1070,285 1112,285 1112,100 1090,100" stroke="#95c87b" stroke-width="3" fill="none" marker-end="url(#arrowGreen)"/>
<polyline points="1035,350 1090,350 1090,160 1060,160" stroke="#95c87b" stroke-width="3" fill="none" marker-end="url(#arrowGreen)"/>
<polyline points="1035,330 1120,330 1120,108 1085,108" stroke="#95c87b" stroke-width="3" fill="none" marker-end="url(#arrowGreen)"/>
<text x="802" y="214" font-size="20" font-family="'Times New Roman', Times, serif" font-weight="normal" font-style="italic" text-anchor="middle" fill="#d8682a">G U2I*</text><text x="1135" y="229" font-size="20" font-family="'Times New Roman', Times, serif" font-weight="normal" font-style="italic" text-anchor="middle" fill="#3e771e">G I2U*</text><g id="svg_llm_icon_reasoning_center" data-source-slot="slot_llm_icon_reasoning_center" transform="translate(928,441) scale(0.97619,1.00870)">
  <g fill="#050505" stroke="#050505" stroke-linecap="round" stroke-linejoin="round">
    <line x1="42" y1="0" x2="42" y2="14" stroke-width="5"/>
    <circle cx="42" cy="0" r="4"/>
    <rect x="28" y="15" width="28" height="18" rx="4"/>
    <rect x="18" y="31" width="50" height="50" rx="8"/>
    <rect x="8" y="45" width="12" height="28" rx="4"/>
    <rect x="64" y="45" width="12" height="28" rx="4"/>
    <line x1="8" y1="51" x2="0" y2="40" stroke-width="5"/>
    <line x1="76" y1="51" x2="84" y2="40" stroke-width="5"/>
    <rect x="18" y="84" width="50" height="12" rx="4"/>
    <circle cx="24" cy="105" r="6"/>
    <circle cx="42" cy="105" r="6"/>
    <circle cx="60" cy="105" r="6"/>
  </g>
  <circle cx="33" cy="44" r="4" fill="#ffffff"/>
  <circle cx="51" cy="44" r="4" fill="#ffffff"/>
  <path d="M25 66 L32 66 L36 57 L42 75 L48 60 L52 66 L61 66" stroke="#ffffff" stroke-width="3" fill="none" stroke-linejoin="round"/>
</g><text x="969" y="573" font-size="30" font-family="'Times New Roman', Times, serif" font-weight="bold" font-style="normal" text-anchor="middle" fill="#111">LLM</text><rect x="748" y="653" width="225" height="74" fill="#dfeecf" stroke="#95c87b" stroke-width="3" rx="8" ry="8"/>
<text x="861" y="683" font-size="24" font-family="'Times New Roman', Times, serif" font-weight="bold" font-style="normal" text-anchor="middle" fill="#111"><tspan x="861" dy="0">I2U Logic</tspan><tspan x="861" dy="1.15em">Prompt Xc</tspan></text><rect x="982" y="653" width="220" height="74" fill="#fff5d6" stroke="#b99600" stroke-width="3" rx="8" ry="8"/>
<text x="1092" y="683" font-size="24" font-family="'Times New Roman', Times, serif" font-weight="bold" font-style="normal" text-anchor="middle" fill="#111"><tspan x="1092" dy="0">U2I Logic</tspan><tspan x="1092" dy="1.15em">Prompt Xt</tspan></text><polyline points="861,653 861,475 928,475" stroke="#95c87b" stroke-width="3" fill="none" marker-end="url(#arrowGreen)"/>
<polyline points="1092,653 1092,475 1010,475" stroke="#f2a26d" stroke-width="3" fill="none" marker-end="url(#arrowOrange)"/>
<polyline points="969,441 969,403" stroke="#555" stroke-width="3" fill="none" marker-end="url(#arrowGray)"/>
<polyline points="1212,505 1250,505 1282,505" stroke="#83acd0" stroke-width="3" fill="none" marker-end="url(#arrowBlue)"/>
<g id="svg_user_icon" data-source-slot="slot_user_icon" transform="translate(1321,159) scale(1.00000,1.00000)">
  <path d="M35 7 C25 7 18 15 18 25 C18 35 25 42 35 42 C45 42 52 35 52 25 C52 15 45 7 35 7 Z" fill="#050505"/>
  <path d="M10 60 C14 47 23 42 35 42 C47 42 56 47 60 60 Z" fill="#050505"/>
  <path d="M21 18 C29 20 39 17 46 12 C42 8 38 6 33 7 C26 8 22 12 21 18 Z" fill="#ffffff" opacity=".95"/>
</g><text x="1348" y="238" font-size="25" font-family="'Times New Roman', Times, serif" font-weight="normal" font-style="normal" text-anchor="middle" fill="#111">user</text><path d="M1405 93 L1395 93 L1395 320 L1405 320" stroke="#333" stroke-width="3" fill="none"/>
<g id="svg_item_icon_camera_i1" data-source-slot="slot_item_icon_camera_i1" transform="translate(1430,70) scale(1.00000,1.00000)">
  <rect x="7" y="14" width="54" height="38" rx="5" fill="#050505"/>
  <rect x="18" y="8" width="21" height="8" rx="2" fill="#050505"/>
  <rect x="43" y="18" width="10" height="5" rx="1.5" fill="#ffffff"/>
  <circle cx="34" cy="34" r="13" fill="#ffffff"/>
  <circle cx="34" cy="34" r="8" fill="#050505"/>
</g><text x="1466" y="167" font-size="23" font-family="'Times New Roman', Times, serif" font-weight="normal" font-style="italic" text-anchor="middle" fill="#111">i₁</text><g id="svg_item_icon_video_i2" data-source-slot="slot_item_icon_video_i2" transform="translate(1429,145) scale(1.00000,1.00000)">
  <rect x="18" y="20" width="39" height="31" rx="4" fill="#050505"/>
  <polygon points="57,29 72,20 72,52 57,43" fill="#050505"/>
  <circle cx="20" cy="13" r="10" fill="#050505"/>
  <circle cx="44" cy="13" r="10" fill="#050505"/>
  <circle cx="20" cy="13" r="3" fill="#ffffff"/>
  <circle cx="44" cy="13" r="3" fill="#ffffff"/>
  <circle cx="30" cy="35" r="3" fill="#ffffff"/>
  <circle cx="45" cy="35" r="3" fill="#ffffff"/>
</g><text x="1466" y="216" font-size="23" font-family="'Times New Roman', Times, serif" font-weight="normal" font-style="italic" text-anchor="middle" fill="#111">i₂</text><text x="1466" y="251" font-size="30" font-family="'Times New Roman', Times, serif" font-weight="normal" font-style="normal" text-anchor="middle" fill="#111">⋯</text><g id="svg_item_icon_gamepad_in" data-source-slot="slot_item_icon_gamepad_in" transform="translate(1430,253) scale(1.00000,1.00000)">
  <path d="M15 20 C8 20 4 27 3 36 C2 47 8 55 17 49 L26 43 L49 43 L58 49 C67 55 73 47 72 36 C71 27 67 20 60 20 Z" fill="#050505"/>
  <rect x="20" y="29" width="18" height="4" rx="1" fill="#ffffff"/>
  <rect x="27" y="22" width="4" height="18" rx="1" fill="#ffffff"/>
  <circle cx="53" cy="29" r="3" fill="#ffffff"/>
  <circle cx="61" cy="36" r="3" fill="#ffffff"/>
</g><text x="1467" y="334" font-size="23" font-family="'Times New Roman', Times, serif" font-weight="normal" font-style="italic" text-anchor="middle" fill="#111">iₙ</text><rect x="1530" y="57" width="290" height="38" fill="#f7dfcf" stroke="#b99600" stroke-width="2" rx="5" ry="5"/>
<text x="1675" y="83" font-size="22" font-family="'Times New Roman', Times, serif" font-weight="normal" font-style="italic" text-anchor="middle" fill="#c25b20">T_1 = {t_1,1, ··· , t_1,k}</text><rect x="1518" y="92" width="318" height="38" fill="#dfeecf" stroke="#95c87b" stroke-width="2" rx="5" ry="5"/>
<text x="1677" y="118" font-size="21" font-family="'Times New Roman', Times, serif" font-weight="normal" font-style="italic" text-anchor="middle" fill="#2a5f22">C_1 = {c_1,1, ··· , c_1,l}</text><rect x="1530" y="157" width="290" height="38" fill="#f7dfcf" stroke="#b99600" stroke-width="2" rx="5" ry="5"/>
<text x="1675" y="183" font-size="22" font-family="'Times New Roman', Times, serif" font-weight="normal" font-style="italic" text-anchor="middle" fill="#c25b20">T_2 = {t_2,1, ··· , t_2,k}</text><rect x="1518" y="192" width="318" height="38" fill="#dfeecf" stroke="#95c87b" stroke-width="2" rx="5" ry="5"/>
<text x="1677" y="218" font-size="21" font-family="'Times New Roman', Times, serif" font-weight="normal" font-style="italic" text-anchor="middle" fill="#2a5f22">C_2 = {c_2,1, ··· , c_2,l}</text><text x="1668" y="252" font-size="28" font-family="'Times New Roman', Times, serif" font-weight="normal" font-style="normal" text-anchor="middle" fill="#111">⋯</text><rect x="1530" y="287" width="290" height="38" fill="#f7dfcf" stroke="#b99600" stroke-width="2" rx="5" ry="5"/>
<text x="1675" y="313" font-size="22" font-family="'Times New Roman', Times, serif" font-weight="normal" font-style="italic" text-anchor="middle" fill="#c25b20">Tₙ = {tₙ,1, ··· , tₙ,k}</text><rect x="1518" y="322" width="318" height="38" fill="#dfeecf" stroke="#95c87b" stroke-width="2" rx="5" ry="5"/>
<text x="1677" y="348" font-size="21" font-family="'Times New Roman', Times, serif" font-weight="normal" font-style="italic" text-anchor="middle" fill="#2a5f22">Cₙ = {cₙ,1, ··· , cₙ,l}</text><text x="1635" y="393" font-size="21" font-family="'Times New Roman', Times, serif" font-weight="normal" font-style="normal" text-anchor="middle" fill="#111">Input</text><line x1="1665" y1="366" x2="1665" y2="427" stroke="#111" stroke-width="2.5" fill="none" marker-end="url(#arrowBlack)"/>
<rect x="1514" y="430" width="300" height="180" fill="#f7f7f7" stroke="#555" stroke-width="3"/>
<text x="1525" y="490" font-size="24" font-family="'Times New Roman', Times, serif" font-weight="bold" font-style="normal" text-anchor="start" fill="#111">RecSys</text><rect x="1595" y="468" width="210" height="55" fill="#d8f2ef" stroke="#aedbd6" stroke-width="2" rx="10" ry="10"/>
<text x="1700" y="493" font-size="20" font-family="'Times New Roman', Times, serif" font-weight="normal" font-style="normal" text-anchor="middle" fill="#111"><tspan x="1700" dy="0">Tag-based</tspan><tspan x="1700" dy="1.15em">Item/User Encoder</tspan></text><rect x="1595" y="535" width="210" height="56" fill="#fbf4d4" stroke="#e3d895" stroke-width="2" rx="10" ry="10"/>
<text x="1700" y="570" font-size="20" font-family="'Times New Roman', Times, serif" font-weight="normal" font-style="normal" text-anchor="middle" fill="#111">Tag-logic</text><text x="1700" y="594" font-size="20" font-family="'Times New Roman', Times, serif" font-weight="normal" font-style="normal" text-anchor="middle" fill="#111">Inference Extension</text><g id="svg_recsys_network_icon" data-source-slot="slot_recsys_network_icon" transform="translate(1528,506) scale(1.00000,1.00000)">
  <g fill="none" stroke="#050505" stroke-width="4" stroke-linecap="round" stroke-linejoin="round">
    <path d="M8 12 L27 20 L50 12"/>
    <path d="M8 36 L27 20 L50 36"/>
    <path d="M8 60 L27 52 L50 60"/>
    <path d="M8 12 L27 52 L50 36"/>
    <path d="M8 36 L27 52 L50 12"/>
  </g>
  <g fill="#ffffff" stroke="#050505" stroke-width="4">
    <circle cx="8" cy="12" r="5"/>
    <circle cx="8" cy="36" r="5"/>
    <circle cx="8" cy="60" r="5"/>
    <circle cx="27" cy="20" r="5"/>
    <circle cx="27" cy="52" r="5"/>
    <circle cx="50" cy="12" r="5"/>
    <circle cx="50" cy="36" r="5"/>
    <circle cx="50" cy="60" r="5"/>
  </g>
</g><text x="1798" y="410" font-size="18" font-family="'Times New Roman', Times, serif" font-weight="normal" font-style="normal" text-anchor="middle" fill="#111"><tspan x="1798" dy="0">Candidate</tspan><tspan x="1798" dy="1.15em">item</tspan></text><g id="svg_candidate_clock_icon" data-source-slot="slot_candidate_clock_icon" transform="translate(1822,442) scale(1.00000,1.00000)">
  <circle cx="20" cy="23" r="15" fill="#ffffff" stroke="#050505" stroke-width="4"/>
  <path d="M20 12 L20 24 L29 30" stroke="#050505" stroke-width="3" fill="none" stroke-linecap="round"/>
  <path d="M8 7 C15 1 27 1 34 9" stroke="#050505" stroke-width="4" fill="none" stroke-linecap="round"/>
  <polygon points="34,9 34,1 40,7" fill="#050505"/>
</g><text x="1870" y="470" font-size="22" font-family="'Times New Roman', Times, serif" font-weight="bold" font-style="italic" text-anchor="middle" fill="#111">vᵢ</text><polyline points="1814,475 1870,475 1870,534 1814,534" stroke="#111" stroke-width="2.5" fill="none" marker-end="url(#arrowBlack)"/>
<rect x="1305" y="430" width="140" height="170" fill="#edf3f7" stroke="#555" stroke-width="2" rx="18" ry="18"/>
<text x="1313" y="423" font-size="20" font-family="'Times New Roman', Times, serif" font-weight="normal" font-style="italic" text-anchor="start" fill="#111">Logic Graph</text><circle cx="1335" cy="465" r="14" fill="#f3d2c3" stroke="#2c526d" stroke-width="2"/>
<circle cx="1335" cy="515" r="14" fill="#f3d2c3" stroke="#2c526d" stroke-width="2"/>
<circle cx="1412" cy="465" r="14" fill="#b9d9a2" stroke="#2c526d" stroke-width="2"/>
<circle cx="1412" cy="515" r="14" fill="#b9d9a2" stroke="#2c526d" stroke-width="2"/>
<line x1="1349" y1="465" x2="1397" y2="465" stroke="#f2a26d" stroke-width="2.5" fill="none" marker-end="url(#arrowOrange)" opacity="0.85"/>
<line x1="1349" y1="515" x2="1397" y2="465" stroke="#f2a26d" stroke-width="2.5" fill="none" marker-end="url(#arrowOrange)" opacity="0.85"/>
<line x1="1349" y1="465" x2="1397" y2="515" stroke="#95c87b" stroke-width="2.5" fill="none" marker-end="url(#arrowGreen)" opacity="0.85"/>
<line x1="1349" y1="515" x2="1397" y2="515" stroke="#95c87b" stroke-width="2.5" fill="none" marker-end="url(#arrowGreen)" opacity="0.85"/>
<text x="1353" y="582" font-size="18" font-family="'Times New Roman', Times, serif" font-weight="bold" font-style="normal" text-anchor="middle" fill="#111">C*</text><text x="1412" y="582" font-size="18" font-family="'Times New Roman', Times, serif" font-weight="bold" font-style="normal" text-anchor="middle" fill="#111">T**</text><line x1="1445" y1="500" x2="1514" y2="500" stroke="#95c87b" stroke-width="3" fill="none" marker-end="url(#arrowGreen)"/>
<line x1="1445" y1="550" x2="1514" y2="550" stroke="#f2a26d" stroke-width="3" fill="none" marker-end="url(#arrowOrange)"/>
<text x="1463" y="490" font-size="18" font-family="'Times New Roman', Times, serif" font-weight="normal" font-style="italic" text-anchor="middle" fill="#3e771e">G I2U*</text><text x="1463" y="545" font-size="18" font-family="'Times New Roman', Times, serif" font-weight="normal" font-style="italic" text-anchor="middle" fill="#d8682a">G U2I*</text><rect x="1307" y="645" width="330" height="82" fill="#cde8f4" stroke="#b9d7e4" stroke-width="2" rx="8" ry="8"/>
<text x="1472" y="687" font-size="22" font-family="'Times New Roman', Times, serif" font-weight="normal" font-style="normal" text-anchor="middle" fill="#111">ℒ = λ(ℒᵤₜ + ℒₜ) + (1 − λ)ℒᵤᵢ</text><text x="1472" y="716" font-size="20" font-family="'Times New Roman', Times, serif" font-weight="normal" font-style="normal" text-anchor="middle" fill="#111">Tag-based Learning Augmentation</text><polyline points="1545,645 1545,611" stroke="#111" stroke-width="2" fill="none" marker-end="url(#arrowBlack)"/>
<text x="1547" y="652" font-size="16" font-family="'Times New Roman', Times, serif" font-weight="normal" font-style="normal" text-anchor="middle" fill="#111">Backpropagation</text><line x1="1670" y1="610" x2="1670" y2="657" stroke="#111" stroke-width="2" fill="none" marker-end="url(#arrowBlack)"/>
<line x1="1770" y1="610" x2="1770" y2="657" stroke="#111" stroke-width="2" fill="none" marker-end="url(#arrowBlack)"/>
<text x="1667" y="677" font-size="21" font-family="'Times New Roman', Times, serif" font-weight="normal" font-style="italic" text-anchor="middle" fill="#111">ŷraw</text><text x="1768" y="677" font-size="21" font-family="'Times New Roman', Times, serif" font-weight="normal" font-style="italic" text-anchor="middle" fill="#111">ŷtag</text><line x1="1667" y1="684" x2="1728" y2="718" stroke="#111" stroke-width="2" fill="none" marker-end="url(#arrowBlack)"/>
<line x1="1768" y1="684" x2="1728" y2="718" stroke="#111" stroke-width="2" fill="none" marker-end="url(#arrowBlack)"/>
<text x="1727" y="738" font-size="22" font-family="'Times New Roman', Times, serif" font-weight="normal" font-style="italic" text-anchor="middle" fill="#111">ŷ</text><text x="320" y="840" font-size="29" font-family="'Times New Roman', Times, serif" font-weight="bold" font-style="normal" text-anchor="middle" fill="#111">(1) MLLM-based Tag Extraction</text><text x="950" y="840" font-size="29" font-family="'Times New Roman', Times, serif" font-weight="bold" font-style="normal" text-anchor="middle" fill="#111">(2) LLM-based Collaborative Logic Reasoning</text><text x="1512" y="840" font-size="29" font-family="'Times New Roman', Times, serif" font-weight="bold" font-style="normal" text-anchor="middle" fill="#111">(3) Tag Logic Integration</text></svg>
