<svg xmlns="http://www.w3.org/2000/svg" width="1890" height="872" viewBox="0 0 1890 872">

<defs>
  <marker id="arrowBlack" markerWidth="10" markerHeight="8" refX="9" refY="4" orient="auto" markerUnits="strokeWidth"><path d="M0,0 L10,4 L0,8 Z" fill="#222"/></marker>
  <marker id="arrowGray" markerWidth="10" markerHeight="8" refX="9" refY="4" orient="auto" markerUnits="strokeWidth"><path d="M0,0 L10,4 L0,8 Z" fill="#666"/></marker>
  <marker id="arrowGreen" markerWidth="10" markerHeight="8" refX="9" refY="4" orient="auto" markerUnits="strokeWidth"><path d="M0,0 L10,4 L0,8 Z" fill="#95c87b"/></marker>
  <marker id="arrowOrange" markerWidth="10" markerHeight="8" refX="9" refY="4" orient="auto" markerUnits="strokeWidth"><path d="M0,0 L10,4 L0,8 Z" fill="#f2a26d"/></marker>
  <marker id="arrowBlue" markerWidth="10" markerHeight="8" refX="9" refY="4" orient="auto" markerUnits="strokeWidth"><path d="M0,0 L10,4 L0,8 Z" fill="#83acd0"/></marker>
  <marker id="arrowPink" markerWidth="10" markerHeight="8" refX="9" refY="4" orient="auto" markerUnits="strokeWidth"><path d="M0,0 L10,4 L0,8 Z" fill="#f5a6a6"/></marker>
  <style>
    .panel { fill:#ffffff; stroke:#555; stroke-width:4; stroke-dasharray:3 6; }
    .inner-dashed { fill:#edf3f7; stroke:#555; stroke-width:2; stroke-dasharray:8 7; }
    .boxtext { font-family:'Times New Roman', Times, serif; fill:#111; }
    .small { font-size:18px; }
    .label { font-size:24px; }
    .bold { font-weight:bold; }
    .italic { font-style:italic; }
  </style>
</defs>
<g id="svg_mllm_icon_left_top" data-source-slot="slot_mllm_icon_left_top" transform="translate(225,62) scale(1.00000,1.00000)">
  <g fill="#050505" stroke="#050505" stroke-linecap="round" stroke-linejoin="round">
    <line x1="42" y1="0" x2="42" y2="14" stroke-width="5"/>
    <circle cx="42" cy="0" r="4"/>
    <rect x="28" y="15" width="28" height="18" rx="4"/>
    <rect x="18" y="31" width="50" height="50" rx="8"/>
    <rect x="8" y="45" width="12" height="28" rx="4"/>
    <rect x="64" y="45" width="12" height="28" rx="4"/>
    <line x1="8" y1="51" x2="0" y2="40" stroke-width="5"/>
    <line x1="76" y1="51" x2="84" y2="40" stroke-width="5"/>
    <rect x="18" y="84" width="50" height="12" rx="4"/>
    <circle cx="24" cy="105" r="6"/>
    <circle cx="42" cy="105" r="6"/>
    <circle cx="60" cy="105" r="6"/>
  </g>
  <circle cx="33" cy="44" r="4" fill="#ffffff"/>
  <circle cx="51" cy="44" r="4" fill="#ffffff"/>
  <path d="M25 66 L32 66 L36 57 L42 75 L48 60 L52 66 L61 66" stroke="#ffffff" stroke-width="3" fill="none" stroke-linejoin="round"/>
</g>
<g id="svg_mllm_icon_extraction_center" data-source-slot="slot_mllm_icon_extraction_center" transform="translate(282,443) scale(1.02381,0.97391)">
  <g fill="#050505" stroke="#050505" stroke-linecap="round" stroke-linejoin="round">
    <line x1="42" y1="0" x2="42" y2="14" stroke-width="5"/>
    <circle cx="42" cy="0" r="4"/>
    <rect x="28" y="15" width="28" height="18" rx="4"/>
    <rect x="18" y="31" width="50" height="50" rx="8"/>
    <rect x="8" y="45" width="12" height="28" rx="4"/>
    <rect x="64" y="45" width="12" height="28" rx="4"/>
    <line x1="8" y1="51" x2="0" y2="40" stroke-width="5"/>
    <line x1="76" y1="51" x2="84" y2="40" stroke-width="5"/>
    <rect x="18" y="84" width="50" height="12" rx="4"/>
    <circle cx="24" cy="105" r="6"/>
    <circle cx="42" cy="105" r="6"/>
    <circle cx="60" cy="105" r="6"/>
  </g>
  <circle cx="33" cy="44" r="4" fill="#ffffff"/>
  <circle cx="51" cy="44" r="4" fill="#ffffff"/>
  <path d="M25 66 L32 66 L36 57 L42 75 L48 60 L52 66 L61 66" stroke="#ffffff" stroke-width="3" fill="none" stroke-linejoin="round"/>
</g>
<g id="svg_llm_icon_reasoning_center" data-source-slot="slot_llm_icon_reasoning_center" transform="translate(928,441) scale(0.97619,1.00870)">
  <g fill="#050505" stroke="#050505" stroke-linecap="round" stroke-linejoin="round">
    <line x1="42" y1="0" x2="42" y2="14" stroke-width="5"/>
    <circle cx="42" cy="0" r="4"/>
    <rect x="28" y="15" width="28" height="18" rx="4"/>
    <rect x="18" y="31" width="50" height="50" rx="8"/>
    <rect x="8" y="45" width="12" height="28" rx="4"/>
    <rect x="64" y="45" width="12" height="28" rx="4"/>
    <line x1="8" y1="51" x2="0" y2="40" stroke-width="5"/>
    <line x1="76" y1="51" x2="84" y2="40" stroke-width="5"/>
    <rect x="18" y="84" width="50" height="12" rx="4"/>
    <circle cx="24" cy="105" r="6"/>
    <circle cx="42" cy="105" r="6"/>
    <circle cx="60" cy="105" r="6"/>
  </g>
  <circle cx="33" cy="44" r="4" fill="#ffffff"/>
  <circle cx="51" cy="44" r="4" fill="#ffffff"/>
  <path d="M25 66 L32 66 L36 57 L42 75 L48 60 L52 66 L61 66" stroke="#ffffff" stroke-width="3" fill="none" stroke-linejoin="round"/>
</g>
<g id="svg_user_icon" data-source-slot="slot_user_icon" transform="translate(1321,159) scale(1.00000,1.00000)">
  <path d="M35 7 C25 7 18 15 18 25 C18 35 25 42 35 42 C45 42 52 35 52 25 C52 15 45 7 35 7 Z" fill="#050505"/>
  <path d="M10 60 C14 47 23 42 35 42 C47 42 56 47 60 60 Z" fill="#050505"/>
  <path d="M21 18 C29 20 39 17 46 12 C42 8 38 6 33 7 C26 8 22 12 21 18 Z" fill="#ffffff" opacity=".95"/>
</g>
<g id="svg_item_icon_camera_i1" data-source-slot="slot_item_icon_camera_i1" transform="translate(1430,70) scale(1.00000,1.00000)">
  <rect x="7" y="14" width="54" height="38" rx="5" fill="#050505"/>
  <rect x="18" y="8" width="21" height="8" rx="2" fill="#050505"/>
  <rect x="43" y="18" width="10" height="5" rx="1.5" fill="#ffffff"/>
  <circle cx="34" cy="34" r="13" fill="#ffffff"/>
  <circle cx="34" cy="34" r="8" fill="#050505"/>
</g>
<g id="svg_item_icon_video_i2" data-source-slot="slot_item_icon_video_i2" transform="translate(1429,145) scale(1.00000,1.00000)">
  <rect x="18" y="20" width="39" height="31" rx="4" fill="#050505"/>
  <polygon points="57,29 72,20 72,52 57,43" fill="#050505"/>
  <circle cx="20" cy="13" r="10" fill="#050505"/>
  <circle cx="44" cy="13" r="10" fill="#050505"/>
  <circle cx="20" cy="13" r="3" fill="#ffffff"/>
  <circle cx="44" cy="13" r="3" fill="#ffffff"/>
  <circle cx="30" cy="35" r="3" fill="#ffffff"/>
  <circle cx="45" cy="35" r="3" fill="#ffffff"/>
</g>
<g id="svg_item_icon_gamepad_in" data-source-slot="slot_item_icon_gamepad_in" transform="translate(1430,253) scale(1.00000,1.00000)">
  <path d="M15 20 C8 20 4 27 3 36 C2 47 8 55 17 49 L26 43 L49 43 L58 49 C67 55 73 47 72 36 C71 27 67 20 60 20 Z" fill="#050505"/>
  <rect x="20" y="29" width="18" height="4" rx="1" fill="#ffffff"/>
  <rect x="27" y="22" width="4" height="18" rx="1" fill="#ffffff"/>
  <circle cx="53" cy="29" r="3" fill="#ffffff"/>
  <circle cx="61" cy="36" r="3" fill="#ffffff"/>
</g>
<g id="svg_recsys_network_icon" data-source-slot="slot_recsys_network_icon" transform="translate(1528,506) scale(1.00000,1.00000)">
  <g fill="none" stroke="#050505" stroke-width="4" stroke-linecap="round" stroke-linejoin="round">
    <path d="M8 12 L27 20 L50 12"/>
    <path d="M8 36 L27 20 L50 36"/>
    <path d="M8 60 L27 52 L50 60"/>
    <path d="M8 12 L27 52 L50 36"/>
    <path d="M8 36 L27 52 L50 12"/>
  </g>
  <g fill="#ffffff" stroke="#050505" stroke-width="4">
    <circle cx="8" cy="12" r="5"/>
    <circle cx="8" cy="36" r="5"/>
    <circle cx="8" cy="60" r="5"/>
    <circle cx="27" cy="20" r="5"/>
    <circle cx="27" cy="52" r="5"/>
    <circle cx="50" cy="12" r="5"/>
    <circle cx="50" cy="36" r="5"/>
    <circle cx="50" cy="60" r="5"/>
  </g>
</g>
<g id="svg_candidate_clock_icon" data-source-slot="slot_candidate_clock_icon" transform="translate(1822,442) scale(1.00000,1.00000)">
  <circle cx="20" cy="23" r="15" fill="#ffffff" stroke="#050505" stroke-width="4"/>
  <path d="M20 12 L20 24 L29 30" stroke="#050505" stroke-width="3" fill="none" stroke-linecap="round"/>
  <path d="M8 7 C15 1 27 1 34 9" stroke="#050505" stroke-width="4" fill="none" stroke-linecap="round"/>
  <polygon points="34,9 34,1 40,7" fill="#050505"/>
</g>
</svg>
