<svg xmlns="http://www.w3.org/2000/svg" width="1890" height="872" viewBox="0 0 1890 872">

<defs>
  <marker id="arrowBlack" markerWidth="10" markerHeight="8" refX="9" refY="4" orient="auto" markerUnits="strokeWidth"><path d="M0,0 L10,4 L0,8 Z" fill="#222"/></marker>
  <marker id="arrowGray" markerWidth="10" markerHeight="8" refX="9" refY="4" orient="auto" markerUnits="strokeWidth"><path d="M0,0 L10,4 L0,8 Z" fill="#666"/></marker>
  <marker id="arrowGreen" markerWidth="10" markerHeight="8" refX="9" refY="4" orient="auto" markerUnits="strokeWidth"><path d="M0,0 L10,4 L0,8 Z" fill="#95c87b"/></marker>
  <marker id="arrowOrange" markerWidth="10" markerHeight="8" refX="9" refY="4" orient="auto" markerUnits="strokeWidth"><path d="M0,0 L10,4 L0,8 Z" fill="#f2a26d"/></marker>
  <marker id="arrowBlue" markerWidth="10" markerHeight="8" refX="9" refY="4" orient="auto" markerUnits="strokeWidth"><path d="M0,0 L10,4 L0,8 Z" fill="#83acd0"/></marker>
  <marker id="arrowPink" markerWidth="10" markerHeight="8" refX="9" refY="4" orient="auto" markerUnits="strokeWidth"><path d="M0,0 L10,4 L0,8 Z" fill="#f5a6a6"/></marker>
  <style>
    .panel { fill:#ffffff; stroke:#555; stroke-width:4; stroke-dasharray:3 6; }
    .inner-dashed { fill:#edf3f7; stroke:#555; stroke-width:2; stroke-dasharray:8 7; }
    .boxtext { font-family:'Times New Roman', Times, serif; fill:#111; }
    .small { font-size:18px; }
    .label { font-size:24px; }
    .bold { font-weight:bold; }
    .italic { font-style:italic; }
  </style>
</defs>
<rect x="0" y="0" width="1890" height="872" fill="#ffffff" stroke="none" stroke-width="2"/>
<rect x="8" y="22" width="630" height="748" fill="#fff" stroke="#555" stroke-width="4" stroke-dasharray="3 6"/>
<rect x="670" y="22" width="580" height="748" fill="#fff" stroke="#555" stroke-width="4" stroke-dasharray="3 6"/>
<rect x="1282" y="22" width="600" height="748" fill="#fff" stroke="#555" stroke-width="4" stroke-dasharray="3 6"/>
<text x="110" y="56" font-size="26" font-family="'Times New Roman', Times, serif" font-weight="bold" font-style="italic" text-anchor="middle" fill="#111">Item_i</text><line x1="110" y1="64" x2="110" y2="90" stroke="#555" stroke-width="3" fill="none" marker-end="url(#arrowGray)"/>
<rect x="28" y="92" width="166" height="78" fill="#eeeeee" stroke="#555" stroke-width="3" rx="8" ry="8"/>
<text x="111" y="123" font-size="26" font-family="'Times New Roman', Times, serif" font-weight="normal" font-style="normal" text-anchor="middle" fill="#111"><tspan x="111" dy="0">Raw</tspan><tspan x="111" dy="1.15em">Information</tspan></text><line x1="194" y1="131" x2="225" y2="131" stroke="#555" stroke-width="3" fill="none" marker-end="url(#arrowGray)"/>
<g id="slot_mllm_icon_left_top" data-bbox="[225,62,84,115]" data-role="asset">
  <rect x="225" y="62" width="84" height="115" fill="#f8f8f8" stroke="#666" stroke-width="2" stroke-dasharray="6 4"/>
  <line x1="225" y1="62" x2="309" y2="177" stroke="#aaa" stroke-width="1.5"/>
  <line x1="309" y1="62" x2="225" y2="177" stroke="#aaa" stroke-width="1.5"/>
  <text x="267.0" y="119.5" font-size="12" text-anchor="middle" dominant-baseline="middle" font-family="Arial, sans-serif" fill="#555">ASSET_SLOT</text>
</g>
<text x="265" y="191" font-size="28" font-family="'Times New Roman', Times, serif" font-weight="bold" font-style="normal" text-anchor="middle" fill="#111">MLLM</text><line x1="309" y1="131" x2="348" y2="131" stroke="#555" stroke-width="3" fill="none" marker-end="url(#arrowGray)"/>
<rect x="350" y="50" width="128" height="184" fill="none" stroke="#555" stroke-width="2.5" stroke-dasharray="3 4"/>
<rect x="368" y="61" width="92" height="45" fill="#d7e2ef" stroke="#60728c" stroke-width="2.5" rx="8" ry="8" stroke-dasharray="14 8"/>
<text x="414" y="91" font-size="20" font-family="'Times New Roman', Times, serif" font-weight="bold" font-style="normal" text-anchor="middle" fill="#111">ASR</text><rect x="368" y="116" width="92" height="45" fill="#d7e2ef" stroke="#60728c" stroke-width="2.5" rx="8" ry="8" stroke-dasharray="14 8"/>
<text x="414" y="146" font-size="20" font-family="'Times New Roman', Times, serif" font-weight="bold" font-style="normal" text-anchor="middle" fill="#111">OCR</text><rect x="368" y="171" width="92" height="45" fill="#fbf2d9" stroke="#99945d" stroke-width="2.5" rx="8" ry="8" stroke-dasharray="14 8"/>
<text x="414" y="201" font-size="19" font-family="'Times New Roman', Times, serif" font-weight="bold" font-style="normal" text-anchor="middle" fill="#111">Text</text><polyline points="478,138 500,138 500,324" stroke="#555" stroke-width="2" fill="none" marker-end="url(#arrowGray)" stroke-dasharray="3 4"/>
<rect x="514" y="61" width="120" height="166" fill="#f7eaf3" stroke="#555" stroke-width="3" rx="18" ry="18" stroke-dasharray="14 8"/>
<text x="574" y="135" font-size="23" font-family="'Times New Roman', Times, serif" font-weight="bold" font-style="normal" text-anchor="middle" fill="#111"><tspan x="574" dy="0">MLLM</tspan><tspan x="574" dy="1.15em">Emb Eᵢ</tspan></text><line x1="563" y1="40" x2="563" y2="61" stroke="#555" stroke-width="3" fill="none" marker-end="url(#arrowGray)"/>
<rect x="25" y="330" width="274" height="85" fill="#dfeecf" stroke="#95c87b" stroke-width="3" rx="8" ry="8"/>
<text x="162" y="366" font-size="24" font-family="'Times New Roman', Times, serif" font-weight="bold" font-style="normal" text-anchor="middle" fill="#111"><tspan x="162" dy="0">ItemTag Extraction</tspan><tspan x="162" dy="1.15em">Prompt Xᵢᶜ</tspan></text><rect x="356" y="330" width="270" height="85" fill="#fff5d6" stroke="#b99600" stroke-width="3" rx="8" ry="8"/>
<text x="491" y="366" font-size="24" font-family="'Times New Roman', Times, serif" font-weight="bold" font-style="normal" text-anchor="middle" fill="#111"><tspan x="491" dy="0">UserTag Extraction</tspan><tspan x="491" dy="1.15em">Prompt Xᵢᵀ</tspan></text><polyline points="160,235 160,330" stroke="#555" stroke-width="2.2" fill="none" marker-end="url(#arrowGray)" stroke-dasharray="3 4"/>
<polyline points="574,227 574,296 320,296 320,434" stroke="#f5a6a6" stroke-width="3" fill="none" marker-end="url(#arrowPink)" opacity="0.8"/>
<polyline points="486,416 486,540" stroke="#f2a26d" stroke-width="3" fill="none" marker-end="url(#arrowOrange)" opacity="0.8"/>
<g id="slot_mllm_icon_extraction_center" data-bbox="[282,443,86,112]" data-role="asset">
  <rect x="282" y="443" width="86" height="112" fill="#f8f8f8" stroke="#666" stroke-width="2" stroke-dasharray="6 4"/>
  <line x1="282" y1="443" x2="368" y2="555" stroke="#aaa" stroke-width="1.5"/>
  <line x1="368" y1="443" x2="282" y2="555" stroke="#aaa" stroke-width="1.5"/>
  <text x="325.0" y="499.0" font-size="12" text-anchor="middle" dominant-baseline="middle" font-family="Arial, sans-serif" fill="#555">ASSET_SLOT</text>
</g>
<text x="326" y="573" font-size="30" font-family="'Times New Roman', Times, serif" font-weight="bold" font-style="normal" text-anchor="middle" fill="#111">MLLM</text><polyline points="145,416 145,471 276,471" stroke="#95c87b" stroke-width="3" fill="none" marker-end="url(#arrowGreen)"/>
<polyline points="300,472 240,472 240,469" stroke="#95c87b" stroke-width="3" fill="none" marker-end="url(#arrowGreen)" opacity="0.8"/>
<polyline points="490,416 490,468 368,468" stroke="#f2a26d" stroke-width="3" fill="none" marker-end="url(#arrowOrange)" opacity="0.8"/>
<rect x="68" y="540" width="176" height="54" fill="#dfeecf" stroke="#95c87b" stroke-width="2" rx="8" ry="8" opacity="0.75"/>
<text x="156" y="574" font-size="25" font-family="'Times New Roman', Times, serif" font-weight="normal" font-style="normal" text-anchor="middle" fill="#111">Live Music</text><rect x="42" y="604" width="166" height="54" fill="#c8e2b4" stroke="#95c87b" stroke-width="2" rx="8" ry="8" opacity="0.8"/>
<text x="125" y="635" font-size="22" font-family="'Times New Roman', Times, serif" font-weight="normal" font-style="normal" text-anchor="middle" fill="#111"><tspan x="125" dy="0">Instrument</tspan><tspan x="125" dy="1.15em">Shows</tspan></text><text x="45" y="692" font-size="26" font-family="'Times New Roman', Times, serif" text-anchor="start" font-weight="normal" font-style="normal" fill="#111"><tspan font-weight="bold">ItemTag Set </tspan><tspan font-style="italic">C*</tspan></text><rect x="413" y="550" width="174" height="54" fill="#fff5d6" stroke="#b99600" stroke-width="2" rx="8" ry="8"/>
<text x="500" y="584" font-size="24" font-family="'Times New Roman', Times, serif" font-weight="normal" font-style="normal" text-anchor="middle" fill="#111">Folk Music</text><rect x="384" y="606" width="166" height="54" fill="#f7dfcf" stroke="#b99600" stroke-width="2" rx="8" ry="8" opacity="0.75"/>
<text x="467" y="637" font-size="22" font-family="'Times New Roman', Times, serif" font-weight="normal" font-style="normal" text-anchor="middle" fill="#111"><tspan x="467" dy="0">Music</tspan><tspan x="467" dy="1.15em">Enthusiast</tspan></text><text x="392" y="692" font-size="26" font-family="'Times New Roman', Times, serif" text-anchor="start" font-weight="normal" font-style="normal" fill="#111"><tspan font-weight="bold">UserTag Set </tspan><tspan font-style="italic">T*</tspan></text><polyline points="155,416 155,526" stroke="#95c87b" stroke-width="3" fill="none" marker-end="url(#arrowGreen)"/>
<polyline points="486,416 486,545" stroke="#f2a26d" stroke-width="3" fill="none" marker-end="url(#arrowOrange)"/>
<polyline points="115,660 115,746 858,746 858,724" stroke="#95c87b" stroke-width="3" fill="none" marker-end="url(#arrowGreen)"/>
<polyline points="486,660 486,746 1083,746 1083,724" stroke="#f2a26d" stroke-width="3" fill="none" marker-end="url(#arrowOrange)"/>
<rect x="735" y="38" width="488" height="365" fill="#edf3f7" stroke="#555" stroke-width="1.5" rx="24" ry="24" stroke-dasharray="8 8"/>
<text x="760" y="70" font-size="28" font-family="'Times New Roman', Times, serif" font-weight="bold" font-style="italic" text-anchor="start" fill="#111">Logic Graph</text><rect x="905" y="75" width="180" height="55" fill="#f8ebd5" stroke="#b99600" stroke-width="2" rx="8" ry="8"/>
<text x="995" y="108" font-size="24" font-family="'Times New Roman', Times, serif" font-weight="normal" font-style="normal" text-anchor="middle" fill="#111">Folk Music</text><rect x="870" y="102" width="190" height="78" fill="#f1d4c4" stroke="#b99600" stroke-width="2" rx="8" ry="8" opacity="0.88"/>
<text x="965" y="141" font-size="23" font-family="'Times New Roman', Times, serif" font-weight="normal" font-style="normal" text-anchor="middle" fill="#111"><tspan x="965" dy="0">Music</tspan><tspan x="965" dy="1.15em">Enthusiast</tspan></text><text x="965" y="210" font-size="27" font-family="'Times New Roman', Times, serif" font-weight="bold" font-style="normal" text-anchor="middle" fill="#111">UserTag Set C*</text><rect x="895" y="254" width="175" height="55" fill="#e0f2d5" stroke="#95c87b" stroke-width="2" rx="8" ry="8" opacity="0.85"/>
<text x="983" y="289" font-size="22" font-family="'Times New Roman', Times, serif" font-weight="normal" font-style="normal" text-anchor="middle" fill="#111">Live Music</text><rect x="870" y="318" width="165" height="72" fill="#b9d9a2" stroke="#95c87b" stroke-width="2" rx="8" ry="8" opacity="0.85"/>
<text x="952" y="350" font-size="21" font-family="'Times New Roman', Times, serif" font-weight="normal" font-style="normal" text-anchor="middle" fill="#111"><tspan x="952" dy="0">Instrument</tspan><tspan x="952" dy="1.15em">Shows</tspan></text><text x="965" y="402" font-size="27" font-family="'Times New Roman', Times, serif" font-weight="bold" font-style="normal" text-anchor="middle" fill="#111">ItemTag Set T*</text><polyline points="835,104 835,277 895,277" stroke="#f2a26d" stroke-width="3" fill="none" marker-end="url(#arrowOrange)" opacity="0.85"/>
<polyline points="835,130 835,330 895,330" stroke="#f2a26d" stroke-width="3" fill="none" marker-end="url(#arrowOrange)" opacity="0.85"/>
<polyline points="835,160 835,350 895,350" stroke="#f2a26d" stroke-width="3" fill="none" marker-end="url(#arrowOrange)" opacity="0.85"/>
<polyline points="1070,285 1112,285 1112,100 1090,100" stroke="#95c87b" stroke-width="3" fill="none" marker-end="url(#arrowGreen)"/>
<polyline points="1035,350 1090,350 1090,160 1060,160" stroke="#95c87b" stroke-width="3" fill="none" marker-end="url(#arrowGreen)"/>
<polyline points="1035,330 1120,330 1120,108 1085,108" stroke="#95c87b" stroke-width="3" fill="none" marker-end="url(#arrowGreen)"/>
<text x="802" y="214" font-size="20" font-family="'Times New Roman', Times, serif" font-weight="normal" font-style="italic" text-anchor="middle" fill="#d8682a">G U2I*</text><text x="1135" y="229" font-size="20" font-family="'Times New Roman', Times, serif" font-weight="normal" font-style="italic" text-anchor="middle" fill="#3e771e">G I2U*</text><g id="slot_llm_icon_reasoning_center" data-bbox="[928,441,82,116]" data-role="asset">
  <rect x="928" y="441" width="82" height="116" fill="#f8f8f8" stroke="#666" stroke-width="2" stroke-dasharray="6 4"/>
  <line x1="928" y1="441" x2="1010" y2="557" stroke="#aaa" stroke-width="1.5"/>
  <line x1="1010" y1="441" x2="928" y2="557" stroke="#aaa" stroke-width="1.5"/>
  <text x="969.0" y="499.0" font-size="12" text-anchor="middle" dominant-baseline="middle" font-family="Arial, sans-serif" fill="#555">ASSET_SLOT</text>
</g>
<text x="969" y="573" font-size="30" font-family="'Times New Roman', Times, serif" font-weight="bold" font-style="normal" text-anchor="middle" fill="#111">LLM</text><rect x="748" y="653" width="225" height="74" fill="#dfeecf" stroke="#95c87b" stroke-width="3" rx="8" ry="8"/>
<text x="861" y="683" font-size="24" font-family="'Times New Roman', Times, serif" font-weight="bold" font-style="normal" text-anchor="middle" fill="#111"><tspan x="861" dy="0">I2U Logic</tspan><tspan x="861" dy="1.15em">Prompt Xc</tspan></text><rect x="982" y="653" width="220" height="74" fill="#fff5d6" stroke="#b99600" stroke-width="3" rx="8" ry="8"/>
<text x="1092" y="683" font-size="24" font-family="'Times New Roman', Times, serif" font-weight="bold" font-style="normal" text-anchor="middle" fill="#111"><tspan x="1092" dy="0">U2I Logic</tspan><tspan x="1092" dy="1.15em">Prompt Xt</tspan></text><polyline points="861,653 861,475 928,475" stroke="#95c87b" stroke-width="3" fill="none" marker-end="url(#arrowGreen)"/>
<polyline points="1092,653 1092,475 1010,475" stroke="#f2a26d" stroke-width="3" fill="none" marker-end="url(#arrowOrange)"/>
<polyline points="969,441 969,403" stroke="#555" stroke-width="3" fill="none" marker-end="url(#arrowGray)"/>
<polyline points="1212,505 1250,505 1282,505" stroke="#83acd0" stroke-width="3" fill="none" marker-end="url(#arrowBlue)"/>
<g id="slot_user_icon" data-bbox="[1321,159,70,62]" data-role="asset">
  <rect x="1321" y="159" width="70" height="62" fill="#f8f8f8" stroke="#666" stroke-width="2" stroke-dasharray="6 4"/>
  <line x1="1321" y1="159" x2="1391" y2="221" stroke="#aaa" stroke-width="1.5"/>
  <line x1="1391" y1="159" x2="1321" y2="221" stroke="#aaa" stroke-width="1.5"/>
  <text x="1356.0" y="190.0" font-size="12" text-anchor="middle" dominant-baseline="middle" font-family="Arial, sans-serif" fill="#555">ASSET_SLOT</text>
</g>
<text x="1348" y="238" font-size="25" font-family="'Times New Roman', Times, serif" font-weight="normal" font-style="normal" text-anchor="middle" fill="#111">user</text><path d="M1405 93 L1395 93 L1395 320 L1405 320" stroke="#333" stroke-width="3" fill="none"/>
<g id="slot_item_icon_camera_i1" data-bbox="[1430,70,68,58]" data-role="asset">
  <rect x="1430" y="70" width="68" height="58" fill="#f8f8f8" stroke="#666" stroke-width="2" stroke-dasharray="6 4"/>
  <line x1="1430" y1="70" x2="1498" y2="128" stroke="#aaa" stroke-width="1.5"/>
  <line x1="1498" y1="70" x2="1430" y2="128" stroke="#aaa" stroke-width="1.5"/>
  <text x="1464.0" y="99.0" font-size="12" text-anchor="middle" dominant-baseline="middle" font-family="Arial, sans-serif" fill="#555">ASSET_SLOT</text>
</g>
<text x="1466" y="167" font-size="23" font-family="'Times New Roman', Times, serif" font-weight="normal" font-style="italic" text-anchor="middle" fill="#111">i₁</text><g id="slot_item_icon_video_i2" data-bbox="[1429,145,73,62]" data-role="asset">
  <rect x="1429" y="145" width="73" height="62" fill="#f8f8f8" stroke="#666" stroke-width="2" stroke-dasharray="6 4"/>
  <line x1="1429" y1="145" x2="1502" y2="207" stroke="#aaa" stroke-width="1.5"/>
  <line x1="1502" y1="145" x2="1429" y2="207" stroke="#aaa" stroke-width="1.5"/>
  <text x="1465.5" y="176.0" font-size="12" text-anchor="middle" dominant-baseline="middle" font-family="Arial, sans-serif" fill="#555">ASSET_SLOT</text>
</g>
<text x="1466" y="216" font-size="23" font-family="'Times New Roman', Times, serif" font-weight="normal" font-style="italic" text-anchor="middle" fill="#111">i₂</text><text x="1466" y="251" font-size="30" font-family="'Times New Roman', Times, serif" font-weight="normal" font-style="normal" text-anchor="middle" fill="#111">⋯</text><g id="slot_item_icon_gamepad_in" data-bbox="[1430,253,75,60]" data-role="asset">
  <rect x="1430" y="253" width="75" height="60" fill="#f8f8f8" stroke="#666" stroke-width="2" stroke-dasharray="6 4"/>
  <line x1="1430" y1="253" x2="1505" y2="313" stroke="#aaa" stroke-width="1.5"/>
  <line x1="1505" y1="253" x2="1430" y2="313" stroke="#aaa" stroke-width="1.5"/>
  <text x="1467.5" y="283.0" font-size="12" text-anchor="middle" dominant-baseline="middle" font-family="Arial, sans-serif" fill="#555">ASSET_SLOT</text>
</g>
<text x="1467" y="334" font-size="23" font-family="'Times New Roman', Times, serif" font-weight="normal" font-style="italic" text-anchor="middle" fill="#111">iₙ</text><rect x="1530" y="57" width="290" height="38" fill="#f7dfcf" stroke="#b99600" stroke-width="2" rx="5" ry="5"/>
<text x="1675" y="83" font-size="22" font-family="'Times New Roman', Times, serif" font-weight="normal" font-style="italic" text-anchor="middle" fill="#c25b20">T_1 = {t_1,1, ··· , t_1,k}</text><rect x="1518" y="92" width="318" height="38" fill="#dfeecf" stroke="#95c87b" stroke-width="2" rx="5" ry="5"/>
<text x="1677" y="118" font-size="21" font-family="'Times New Roman', Times, serif" font-weight="normal" font-style="italic" text-anchor="middle" fill="#2a5f22">C_1 = {c_1,1, ··· , c_1,l}</text><rect x="1530" y="157" width="290" height="38" fill="#f7dfcf" stroke="#b99600" stroke-width="2" rx="5" ry="5"/>
<text x="1675" y="183" font-size="22" font-family="'Times New Roman', Times, serif" font-weight="normal" font-style="italic" text-anchor="middle" fill="#c25b20">T_2 = {t_2,1, ··· , t_2,k}</text><rect x="1518" y="192" width="318" height="38" fill="#dfeecf" stroke="#95c87b" stroke-width="2" rx="5" ry="5"/>
<text x="1677" y="218" font-size="21" font-family="'Times New Roman', Times, serif" font-weight="normal" font-style="italic" text-anchor="middle" fill="#2a5f22">C_2 = {c_2,1, ··· , c_2,l}</text><text x="1668" y="252" font-size="28" font-family="'Times New Roman', Times, serif" font-weight="normal" font-style="normal" text-anchor="middle" fill="#111">⋯</text><rect x="1530" y="287" width="290" height="38" fill="#f7dfcf" stroke="#b99600" stroke-width="2" rx="5" ry="5"/>
<text x="1675" y="313" font-size="22" font-family="'Times New Roman', Times, serif" font-weight="normal" font-style="italic" text-anchor="middle" fill="#c25b20">Tₙ = {tₙ,1, ··· , tₙ,k}</text><rect x="1518" y="322" width="318" height="38" fill="#dfeecf" stroke="#95c87b" stroke-width="2" rx="5" ry="5"/>
<text x="1677" y="348" font-size="21" font-family="'Times New Roman', Times, serif" font-weight="normal" font-style="italic" text-anchor="middle" fill="#2a5f22">Cₙ = {cₙ,1, ··· , cₙ,l}</text><text x="1635" y="393" font-size="21" font-family="'Times New Roman', Times, serif" font-weight="normal" font-style="normal" text-anchor="middle" fill="#111">Input</text><line x1="1665" y1="366" x2="1665" y2="427" stroke="#111" stroke-width="2.5" fill="none" marker-end="url(#arrowBlack)"/>
<rect x="1514" y="430" width="300" height="180" fill="#f7f7f7" stroke="#555" stroke-width="3"/>
<text x="1525" y="490" font-size="24" font-family="'Times New Roman', Times, serif" font-weight="bold" font-style="normal" text-anchor="start" fill="#111">RecSys</text><rect x="1595" y="468" width="210" height="55" fill="#d8f2ef" stroke="#aedbd6" stroke-width="2" rx="10" ry="10"/>
<text x="1700" y="493" font-size="20" font-family="'Times New Roman', Times, serif" font-weight="normal" font-style="normal" text-anchor="middle" fill="#111"><tspan x="1700" dy="0">Tag-based</tspan><tspan x="1700" dy="1.15em">Item/User Encoder</tspan></text><rect x="1595" y="535" width="210" height="56" fill="#fbf4d4" stroke="#e3d895" stroke-width="2" rx="10" ry="10"/>
<text x="1700" y="570" font-size="20" font-family="'Times New Roman', Times, serif" font-weight="normal" font-style="normal" text-anchor="middle" fill="#111">Tag-logic</text><text x="1700" y="594" font-size="20" font-family="'Times New Roman', Times, serif" font-weight="normal" font-style="normal" text-anchor="middle" fill="#111">Inference Extension</text><g id="slot_recsys_network_icon" data-bbox="[1528,506,58,72]" data-role="asset">
  <rect x="1528" y="506" width="58" height="72" fill="#f8f8f8" stroke="#666" stroke-width="2" stroke-dasharray="6 4"/>
  <line x1="1528" y1="506" x2="1586" y2="578" stroke="#aaa" stroke-width="1.5"/>
  <line x1="1586" y1="506" x2="1528" y2="578" stroke="#aaa" stroke-width="1.5"/>
  <text x="1557.0" y="542.0" font-size="12" text-anchor="middle" dominant-baseline="middle" font-family="Arial, sans-serif" fill="#555">ASSET_SLOT</text>
</g>
<text x="1798" y="410" font-size="18" font-family="'Times New Roman', Times, serif" font-weight="normal" font-style="normal" text-anchor="middle" fill="#111"><tspan x="1798" dy="0">Candidate</tspan><tspan x="1798" dy="1.15em">item</tspan></text><g id="slot_candidate_clock_icon" data-bbox="[1822,442,38,45]" data-role="asset">
  <rect x="1822" y="442" width="38" height="45" fill="#f8f8f8" stroke="#666" stroke-width="2" stroke-dasharray="6 4"/>
  <line x1="1822" y1="442" x2="1860" y2="487" stroke="#aaa" stroke-width="1.5"/>
  <line x1="1860" y1="442" x2="1822" y2="487" stroke="#aaa" stroke-width="1.5"/>
  <text x="1841.0" y="464.5" font-size="12" text-anchor="middle" dominant-baseline="middle" font-family="Arial, sans-serif" fill="#555">ASSET_SLOT</text>
</g>
<text x="1870" y="470" font-size="22" font-family="'Times New Roman', Times, serif" font-weight="bold" font-style="italic" text-anchor="middle" fill="#111">vᵢ</text><polyline points="1814,475 1870,475 1870,534 1814,534" stroke="#111" stroke-width="2.5" fill="none" marker-end="url(#arrowBlack)"/>
<rect x="1305" y="430" width="140" height="170" fill="#edf3f7" stroke="#555" stroke-width="2" rx="18" ry="18"/>
<text x="1313" y="423" font-size="20" font-family="'Times New Roman', Times, serif" font-weight="normal" font-style="italic" text-anchor="start" fill="#111">Logic Graph</text><circle cx="1335" cy="465" r="14" fill="#f3d2c3" stroke="#2c526d" stroke-width="2"/>
<circle cx="1335" cy="515" r="14" fill="#f3d2c3" stroke="#2c526d" stroke-width="2"/>
<circle cx="1412" cy="465" r="14" fill="#b9d9a2" stroke="#2c526d" stroke-width="2"/>
<circle cx="1412" cy="515" r="14" fill="#b9d9a2" stroke="#2c526d" stroke-width="2"/>
<line x1="1349" y1="465" x2="1397" y2="465" stroke="#f2a26d" stroke-width="2.5" fill="none" marker-end="url(#arrowOrange)" opacity="0.85"/>
<line x1="1349" y1="515" x2="1397" y2="465" stroke="#f2a26d" stroke-width="2.5" fill="none" marker-end="url(#arrowOrange)" opacity="0.85"/>
<line x1="1349" y1="465" x2="1397" y2="515" stroke="#95c87b" stroke-width="2.5" fill="none" marker-end="url(#arrowGreen)" opacity="0.85"/>
<line x1="1349" y1="515" x2="1397" y2="515" stroke="#95c87b" stroke-width="2.5" fill="none" marker-end="url(#arrowGreen)" opacity="0.85"/>
<text x="1353" y="582" font-size="18" font-family="'Times New Roman', Times, serif" font-weight="bold" font-style="normal" text-anchor="middle" fill="#111">C*</text><text x="1412" y="582" font-size="18" font-family="'Times New Roman', Times, serif" font-weight="bold" font-style="normal" text-anchor="middle" fill="#111">T**</text><line x1="1445" y1="500" x2="1514" y2="500" stroke="#95c87b" stroke-width="3" fill="none" marker-end="url(#arrowGreen)"/>
<line x1="1445" y1="550" x2="1514" y2="550" stroke="#f2a26d" stroke-width="3" fill="none" marker-end="url(#arrowOrange)"/>
<text x="1463" y="490" font-size="18" font-family="'Times New Roman', Times, serif" font-weight="normal" font-style="italic" text-anchor="middle" fill="#3e771e">G I2U*</text><text x="1463" y="545" font-size="18" font-family="'Times New Roman', Times, serif" font-weight="normal" font-style="italic" text-anchor="middle" fill="#d8682a">G U2I*</text><rect x="1307" y="645" width="330" height="82" fill="#cde8f4" stroke="#b9d7e4" stroke-width="2" rx="8" ry="8"/>
<text x="1472" y="687" font-size="22" font-family="'Times New Roman', Times, serif" font-weight="normal" font-style="normal" text-anchor="middle" fill="#111">ℒ = λ(ℒᵤₜ + ℒₜ) + (1 − λ)ℒᵤᵢ</text><text x="1472" y="716" font-size="20" font-family="'Times New Roman', Times, serif" font-weight="normal" font-style="normal" text-anchor="middle" fill="#111">Tag-based Learning Augmentation</text><polyline points="1545,645 1545,611" stroke="#111" stroke-width="2" fill="none" marker-end="url(#arrowBlack)"/>
<text x="1547" y="652" font-size="16" font-family="'Times New Roman', Times, serif" font-weight="normal" font-style="normal" text-anchor="middle" fill="#111">Backpropagation</text><line x1="1670" y1="610" x2="1670" y2="657" stroke="#111" stroke-width="2" fill="none" marker-end="url(#arrowBlack)"/>
<line x1="1770" y1="610" x2="1770" y2="657" stroke="#111" stroke-width="2" fill="none" marker-end="url(#arrowBlack)"/>
<text x="1667" y="677" font-size="21" font-family="'Times New Roman', Times, serif" font-weight="normal" font-style="italic" text-anchor="middle" fill="#111">ŷraw</text><text x="1768" y="677" font-size="21" font-family="'Times New Roman', Times, serif" font-weight="normal" font-style="italic" text-anchor="middle" fill="#111">ŷtag</text><line x1="1667" y1="684" x2="1728" y2="718" stroke="#111" stroke-width="2" fill="none" marker-end="url(#arrowBlack)"/>
<line x1="1768" y1="684" x2="1728" y2="718" stroke="#111" stroke-width="2" fill="none" marker-end="url(#arrowBlack)"/>
<text x="1727" y="738" font-size="22" font-family="'Times New Roman', Times, serif" font-weight="normal" font-style="italic" text-anchor="middle" fill="#111">ŷ</text><text x="320" y="840" font-size="29" font-family="'Times New Roman', Times, serif" font-weight="bold" font-style="normal" text-anchor="middle" fill="#111">(1) MLLM-based Tag Extraction</text><text x="950" y="840" font-size="29" font-family="'Times New Roman', Times, serif" font-weight="bold" font-style="normal" text-anchor="middle" fill="#111">(2) LLM-based Collaborative Logic Reasoning</text><text x="1512" y="840" font-size="29" font-family="'Times New Roman', Times, serif" font-weight="bold" font-style="normal" text-anchor="middle" fill="#111">(3) Tag Logic Integration</text></svg>
