<svg xmlns="http://www.w3.org/2000/svg" width="1408" height="768" viewBox="0 0 1408 768">

<defs>
  <marker id="arrow" markerWidth="10" markerHeight="10" refX="8" refY="5" orient="auto" markerUnits="strokeWidth">
    <path d="M0,0 L10,5 L0,10 Z" fill="#444"/>
  </marker>
  <marker id="arrowSmall" markerWidth="8" markerHeight="8" refX="6.5" refY="4" orient="auto" markerUnits="strokeWidth">
    <path d="M0,0 L8,4 L0,8 Z" fill="#000"/>
  </marker>
  <marker id="arrowPink" markerWidth="10" markerHeight="10" refX="8" refY="5" orient="auto" markerUnits="strokeWidth">
    <path d="M0,0 L10,5 L0,10 Z" fill="#d7a7a1"/>
  </marker>
  <style>
    .title { font-family: Arial, Helvetica, sans-serif; font-size: 27px; font-weight: 700; }
    .label { font-family: Arial, Helvetica, sans-serif; font-size: 18px; }
    .small { font-family: Arial, Helvetica, sans-serif; font-size: 14px; }
    .flowArrow { stroke: #676767; stroke-width: 3.3; fill: none; marker-end: url(#arrow); }
    .thinArrow { stroke: #555; stroke-width: 2.2; fill: none; marker-end: url(#arrow); }
    .dashSep { stroke: #000; stroke-width: 1.8; stroke-dasharray: 10 8; }
    .placeholder rect.slot { fill: #f8f8f8; stroke: #666; stroke-width: 1.6; stroke-dasharray: 5 4; }
    .placeholder line.diag { stroke: #aaa; stroke-width: 1; }
    .placeholder text { font-family: Arial, Helvetica, sans-serif; font-size: 10px; fill: #777; text-anchor: middle; dominant-baseline: middle; }
  </style>
</defs>

<g id="svg_augtraj_scaling_graph" data-source-slot="slot_augtraj_scaling_graph" transform="translate(24,28) scale(1.0000,1.0000)">
    <path d="M20 120 Q60 75 105 62 Q135 53 165 38" fill="none" stroke="#84c4c1" stroke-width="3"/>
    <circle cx="22" cy="120" r="5" fill="#84c4c1"/><circle cx="68" cy="83" r="5" fill="#84c4c1"/><circle cx="145" cy="53" r="5" fill="#84c4c1"/>
    <path d="M38 102 Q78 76 112 70 Q145 65 182 42" fill="none" stroke="#d9958f" stroke-width="3"/>
    <circle cx="58" cy="88" r="5" fill="#d9958f"/><circle cx="118" cy="68" r="5" fill="#d9958f"/><circle cx="152" cy="68" r="5" fill="#d9958f"/>
    <line x1="10" y1="100" x2="100" y2="12" stroke="#000" stroke-width="2.6" marker-end="url(#arrow)"/>
    <line x1="18" y1="95" x2="188" y2="10" stroke="#000" stroke-width="2.6" marker-end="url(#arrow)"/>
    <line x1="170" y1="58" x2="200" y2="30" stroke="#d7a7a1" stroke-width="2.6" marker-end="url(#arrowPink)"/>
    </g>
<text x="24" y="24" font-family="Arial" font-size="12" fill="#555">slot_augtraj_scaling_graph</text>
<g id="svg_augtraj_rotation_translation" data-source-slot="slot_augtraj_rotation_translation" transform="translate(34,146) scale(1.0000,1.0000)">
      <path d="M15 100 Q36 82 61 78" fill="none" stroke="#84c4c1" stroke-width="3"/>
      <circle cx="22" cy="100" r="5" fill="#84c4c1"/><circle cx="57" cy="79" r="5" fill="#84c4c1"/>
      <line x1="18" y1="85" x2="75" y2="83" stroke="#000" stroke-width="2.4" marker-end="url(#arrow)"/>
      <path d="M75 84 Q106 92 138 89 Q164 88 178 82" fill="none" stroke="#c58c8d" stroke-width="3"/>
      <circle cx="92" cy="88" r="5" fill="#d9958f"/><circle cx="136" cy="92" r="5" fill="#d9958f"/><circle cx="199" cy="89" r="5" fill="#b490c6"/>
      <path d="M80 24 Q105 15 126 24" fill="none" stroke="#84c4c1" stroke-width="3"/>
      <circle cx="64" cy="24" r="5" fill="#84c4c1"/><circle cx="119" cy="19" r="5" fill="#d9958f"/><circle cx="143" cy="23" r="5" fill="#d9958f"/>
      <path d="M170 16 Q194 14 216 8 Q235 4 256 -24" fill="none" stroke="#b490c6" stroke-width="3"/>
      <circle cx="188" cy="16" r="5" fill="#b490c6"/><circle cx="224" cy="8" r="5" fill="#b490c6"/><circle cx="258" cy="-20" r="5" fill="#b490c6"/>
      <path d="M122 54 A26 26 0 1 1 153 24" fill="none" stroke="#000" stroke-width="2.4" marker-end="url(#arrow)"/>
    </g>
<text x="34" y="142" font-family="Arial" font-size="12" fill="#555">slot_augtraj_rotation_translation</text>
<g id="svg_context_encoder_heatmap" data-source-slot="slot_context_encoder_heatmap"><rect x="686.00" y="163.00" width="11.91" height="11.91" fill="#e7ebef" stroke="#d0c9d7" stroke-width="0.6"/>
<rect x="697.71" y="163.00" width="11.91" height="11.91" fill="#d8cae8" stroke="#d0c9d7" stroke-width="0.6"/>
<rect x="709.43" y="163.00" width="11.91" height="11.91" fill="#ecefea" stroke="#d0c9d7" stroke-width="0.6"/>
<rect x="721.14" y="163.00" width="11.91" height="11.91" fill="#e4eef4" stroke="#d0c9d7" stroke-width="0.6"/>
<rect x="732.86" y="163.00" width="11.91" height="11.91" fill="#f5f5f0" stroke="#d0c9d7" stroke-width="0.6"/>
<rect x="744.57" y="163.00" width="11.91" height="11.91" fill="#dfe4ef" stroke="#d0c9d7" stroke-width="0.6"/>
<rect x="756.29" y="163.00" width="11.91" height="11.91" fill="#e8e8ea" stroke="#d0c9d7" stroke-width="0.6"/>
<rect x="686.00" y="174.71" width="11.91" height="11.91" fill="#e7efe3" stroke="#d0c9d7" stroke-width="0.6"/>
<rect x="697.71" y="174.71" width="11.91" height="11.91" fill="#d6d1ec" stroke="#d0c9d7" stroke-width="0.6"/>
<rect x="709.43" y="174.71" width="11.91" height="11.91" fill="#c7d7ef" stroke="#d0c9d7" stroke-width="0.6"/>
<rect x="721.14" y="174.71" width="11.91" height="11.91" fill="#ebf0e3" stroke="#d0c9d7" stroke-width="0.6"/>
<rect x="732.86" y="174.71" width="11.91" height="11.91" fill="#efeae0" stroke="#d0c9d7" stroke-width="0.6"/>
<rect x="744.57" y="174.71" width="11.91" height="11.91" fill="#e2e5f0" stroke="#d0c9d7" stroke-width="0.6"/>
<rect x="756.29" y="174.71" width="11.91" height="11.91" fill="#e4e4e0" stroke="#d0c9d7" stroke-width="0.6"/>
<rect x="686.00" y="186.43" width="11.91" height="11.91" fill="#d9e6cf" stroke="#d0c9d7" stroke-width="0.6"/>
<rect x="697.71" y="186.43" width="11.91" height="11.91" fill="#e2d7ee" stroke="#d0c9d7" stroke-width="0.6"/>
<rect x="709.43" y="186.43" width="11.91" height="11.91" fill="#ececec" stroke="#d0c9d7" stroke-width="0.6"/>
<rect x="721.14" y="186.43" width="11.91" height="11.91" fill="#d8e9e6" stroke="#d0c9d7" stroke-width="0.6"/>
<rect x="732.86" y="186.43" width="11.91" height="11.91" fill="#c2d7ea" stroke="#d0c9d7" stroke-width="0.6"/>
<rect x="744.57" y="186.43" width="11.91" height="11.91" fill="#e6e6dc" stroke="#d0c9d7" stroke-width="0.6"/>
<rect x="756.29" y="186.43" width="11.91" height="11.91" fill="#e9deeb" stroke="#d0c9d7" stroke-width="0.6"/>
<rect x="686.00" y="198.14" width="11.91" height="11.91" fill="#ebe9ef" stroke="#d0c9d7" stroke-width="0.6"/>
<rect x="697.71" y="198.14" width="11.91" height="11.91" fill="#eef1e8" stroke="#d0c9d7" stroke-width="0.6"/>
<rect x="709.43" y="198.14" width="11.91" height="11.91" fill="#c9d9e9" stroke="#d0c9d7" stroke-width="0.6"/>
<rect x="721.14" y="198.14" width="11.91" height="11.91" fill="#e7efe8" stroke="#d0c9d7" stroke-width="0.6"/>
<rect x="732.86" y="198.14" width="11.91" height="11.91" fill="#e5d9ee" stroke="#d0c9d7" stroke-width="0.6"/>
<rect x="744.57" y="198.14" width="11.91" height="11.91" fill="#d9e1ea" stroke="#d0c9d7" stroke-width="0.6"/>
<rect x="756.29" y="198.14" width="11.91" height="11.91" fill="#dde9d7" stroke="#d0c9d7" stroke-width="0.6"/>
<rect x="686.00" y="209.86" width="11.91" height="11.91" fill="#dee4ef" stroke="#d0c9d7" stroke-width="0.6"/>
<rect x="697.71" y="209.86" width="11.91" height="11.91" fill="#dcead8" stroke="#d0c9d7" stroke-width="0.6"/>
<rect x="709.43" y="209.86" width="11.91" height="11.91" fill="#efece3" stroke="#d0c9d7" stroke-width="0.6"/>
<rect x="721.14" y="209.86" width="11.91" height="11.91" fill="#ddd0eb" stroke="#d0c9d7" stroke-width="0.6"/>
<rect x="732.86" y="209.86" width="11.91" height="11.91" fill="#e4e4e4" stroke="#d0c9d7" stroke-width="0.6"/>
<rect x="744.57" y="209.86" width="11.91" height="11.91" fill="#d0ddec" stroke="#d0c9d7" stroke-width="0.6"/>
<rect x="756.29" y="209.86" width="11.91" height="11.91" fill="#d5e6d6" stroke="#d0c9d7" stroke-width="0.6"/>
<rect x="686.00" y="221.57" width="11.91" height="11.91" fill="#e6e7df" stroke="#d0c9d7" stroke-width="0.6"/>
<rect x="697.71" y="221.57" width="11.91" height="11.91" fill="#c5d8ea" stroke="#d0c9d7" stroke-width="0.6"/>
<rect x="709.43" y="221.57" width="11.91" height="11.91" fill="#ede9e2" stroke="#d0c9d7" stroke-width="0.6"/>
<rect x="721.14" y="221.57" width="11.91" height="11.91" fill="#e0ebdd" stroke="#d0c9d7" stroke-width="0.6"/>
<rect x="732.86" y="221.57" width="11.91" height="11.91" fill="#e8dced" stroke="#d0c9d7" stroke-width="0.6"/>
<rect x="744.57" y="221.57" width="11.91" height="11.91" fill="#ccddee" stroke="#d0c9d7" stroke-width="0.6"/>
<rect x="756.29" y="221.57" width="11.91" height="11.91" fill="#e8ebe3" stroke="#d0c9d7" stroke-width="0.6"/>
<rect x="686.00" y="233.29" width="11.91" height="11.91" fill="#d2daf0" stroke="#d0c9d7" stroke-width="0.6"/>
<rect x="697.71" y="233.29" width="11.91" height="11.91" fill="#ece8ef" stroke="#d0c9d7" stroke-width="0.6"/>
<rect x="709.43" y="233.29" width="11.91" height="11.91" fill="#dfe8d7" stroke="#d0c9d7" stroke-width="0.6"/>
<rect x="721.14" y="233.29" width="11.91" height="11.91" fill="#e9e9ea" stroke="#d0c9d7" stroke-width="0.6"/>
<rect x="732.86" y="233.29" width="11.91" height="11.91" fill="#d8dcea" stroke="#d0c9d7" stroke-width="0.6"/>
<rect x="744.57" y="233.29" width="11.91" height="11.91" fill="#d4e3d1" stroke="#d0c9d7" stroke-width="0.6"/>
<rect x="756.29" y="233.29" width="11.91" height="11.91" fill="#c8d4e8" stroke="#d0c9d7" stroke-width="0.6"/>
<rect x="686" y="163" width="82" height="82" fill="none" stroke="#8f8f8f" stroke-width="1.2"/></g>
<text x="686" y="159" font-family="Arial" font-size="12" fill="#555">slot_context_encoder_heatmap</text>
<g id="svg_scene_select_tree_icon" data-source-slot="slot_scene_select_tree_icon" transform="translate(897,170) scale(1.0000,1.0000)"><line x1="37" y1="10" x2="22" y2="35" stroke="#333" stroke-width="1.8"/>
<line x1="37" y1="10" x2="52" y2="35" stroke="#333" stroke-width="1.8"/>
<circle cx="22" cy="35" r="7" fill="#bcd1ee" stroke="#333" stroke-width="1.8"/>
<circle cx="52" cy="35" r="7" fill="#bcd1ee" stroke="#333" stroke-width="1.8"/>
<circle cx="37" cy="10" r="7" fill="#bcd1ee" stroke="#333" stroke-width="1.8"/>
<line x1="22" y1="35" x2="9" y2="63" stroke="#333" stroke-width="1.8"/>
<circle cx="9" cy="63" r="6.5" fill="#e6988f" stroke="#333" stroke-width="1.8"/>
<line x1="22" y1="35" x2="27" y2="63" stroke="#333" stroke-width="1.8"/>
<circle cx="27" cy="63" r="6.5" fill="#e6988f" stroke="#333" stroke-width="1.8"/>
<line x1="52" y1="35" x2="45" y2="63" stroke="#333" stroke-width="1.8"/>
<circle cx="45" cy="63" r="6.5" fill="#e3c35f" stroke="#333" stroke-width="1.8"/>
<line x1="52" y1="35" x2="63" y2="63" stroke="#333" stroke-width="1.8"/>
<circle cx="63" cy="63" r="6.5" fill="#e3c35f" stroke="#333" stroke-width="1.8"/></g>
<text x="897" y="166" font-family="Arial" font-size="12" fill="#555">slot_scene_select_tree_icon</text>
<g id="svg_scene_model_pool_icons" data-source-slot="slot_scene_model_pool_icons" transform="translate(1128,62) scale(1.0000,1.0000)"><path d="M53 18 A20 20 0 1 1 47 55" fill="none" stroke="#000" stroke-width="2.2" marker-end="url(#arrow)"/>
<path d="M45 58 A20 20 0 1 1 53 21" fill="none" stroke="#000" stroke-width="2.2" marker-end="url(#arrow)"/>
<line x1="26" y1="104" x2="52" y2="104" stroke="#000" stroke-width="2"/>
<rect x="52" y="99" width="11" height="10" fill="none" stroke="#000" stroke-width="1.6"/>
<line x1="63" y1="104" x2="88" y2="104" stroke="#000" stroke-width="1.8" marker-end="url(#arrowSmall)"/>
<line x1="26" y1="114" x2="52" y2="114" stroke="#000" stroke-width="2"/>
<rect x="52" y="109" width="11" height="10" fill="none" stroke="#000" stroke-width="1.6"/>
<line x1="63" y1="114" x2="88" y2="114" stroke="#000" stroke-width="1.8" marker-end="url(#arrowSmall)"/>
<line x1="26" y1="124" x2="52" y2="124" stroke="#000" stroke-width="2"/>
<rect x="52" y="119" width="11" height="10" fill="none" stroke="#000" stroke-width="1.6"/>
<line x1="63" y1="124" x2="88" y2="124" stroke="#000" stroke-width="1.8" marker-end="url(#arrowSmall)"/>
<line x1="26" y1="134" x2="52" y2="134" stroke="#000" stroke-width="2"/>
<rect x="52" y="129" width="11" height="10" fill="none" stroke="#000" stroke-width="1.6"/>
<line x1="63" y1="134" x2="88" y2="134" stroke="#000" stroke-width="1.8" marker-end="url(#arrowSmall)"/>
<path d="M18 119 C26 119,26 89,52 104" fill="none" stroke="#000" stroke-width="2"/>
<path d="M18 119 C26 119,26 99,52 114" fill="none" stroke="#000" stroke-width="2"/>
<path d="M18 119 C26 119,26 109,52 124" fill="none" stroke="#000" stroke-width="2"/>
<path d="M18 119 C26 119,26 119,52 134" fill="none" stroke="#000" stroke-width="2"/>
<path d="M25 205 l10 8 l0 20 l-10 8 z" fill="none" stroke="#000" stroke-width="2"/>
<path d="M44 205 l10 8 l0 20 l-10 8 z" fill="none" stroke="#000" stroke-width="2"/>
<path d="M63 205 l10 8 l0 20 l-10 8 z" fill="none" stroke="#000" stroke-width="2"/>
<line x1="73" y1="221" x2="90" y2="221" stroke="#000" stroke-width="2" marker-end="url(#arrowSmall)"/></g>
<text x="1128" y="58" font-family="Arial" font-size="12" fill="#555">slot_scene_model_pool_icons</text>
<g id="svg_clustering_blobs" data-source-slot="slot_clustering_blobs" transform="translate(507,576) scale(1.0000,1.0000)"><ellipse cx="23" cy="30" rx="22" ry="16" fill="#f4d3d0" stroke="#e79c8e" stroke-width="2"/>
<circle cx="17" cy="27" r="1.8" fill="#e79c8e"/>
<circle cx="22" cy="25" r="1.8" fill="#e79c8e"/>
<circle cx="27" cy="29" r="1.8" fill="#e79c8e"/>
<circle cx="20" cy="33" r="1.8" fill="#e79c8e"/>
<circle cx="29" cy="34" r="1.8" fill="#e79c8e"/>
<circle cx="24" cy="36" r="1.8" fill="#e79c8e"/>
<ellipse cx="67" cy="28" rx="22" ry="16" fill="#d7efe9" stroke="#8fc8c0" stroke-width="2"/>
<circle cx="61" cy="25" r="1.8" fill="#8fc8c0"/>
<circle cx="66" cy="23" r="1.8" fill="#8fc8c0"/>
<circle cx="71" cy="27" r="1.8" fill="#8fc8c0"/>
<circle cx="64" cy="31" r="1.8" fill="#8fc8c0"/>
<circle cx="73" cy="32" r="1.8" fill="#8fc8c0"/>
<circle cx="68" cy="34" r="1.8" fill="#8fc8c0"/>
<ellipse cx="24" cy="70" rx="22" ry="16" fill="#eadcf2" stroke="#b791c8" stroke-width="2"/>
<circle cx="18" cy="67" r="1.8" fill="#b791c8"/>
<circle cx="23" cy="65" r="1.8" fill="#b791c8"/>
<circle cx="28" cy="69" r="1.8" fill="#b791c8"/>
<circle cx="21" cy="73" r="1.8" fill="#b791c8"/>
<circle cx="30" cy="74" r="1.8" fill="#b791c8"/>
<circle cx="25" cy="76" r="1.8" fill="#b791c8"/>
<ellipse cx="65" cy="62" rx="22" ry="16" fill="#eddc93" stroke="#cfb04a" stroke-width="2"/>
<circle cx="59" cy="59" r="1.8" fill="#cfb04a"/>
<circle cx="64" cy="57" r="1.8" fill="#cfb04a"/>
<circle cx="69" cy="61" r="1.8" fill="#cfb04a"/>
<circle cx="62" cy="65" r="1.8" fill="#cfb04a"/>
<circle cx="71" cy="66" r="1.8" fill="#cfb04a"/>
<circle cx="66" cy="68" r="1.8" fill="#cfb04a"/></g>
<text x="507" y="572" font-family="Arial" font-size="12" fill="#555">slot_clustering_blobs</text>
<g id="svg_big_tree_classifier" data-source-slot="slot_big_tree_classifier" transform="translate(883,565) scale(0.9778,1.0200)"><line x1="90" y1="18" x2="45" y2="64" stroke="#333" stroke-width="2.2"/>
<line x1="90" y1="18" x2="135" y2="64" stroke="#333" stroke-width="2.2"/>
<circle cx="45" cy="64" r="15" fill="#bcd1ee" stroke="#333" stroke-width="2.2"/>
<circle cx="135" cy="64" r="15" fill="#bcd1ee" stroke="#333" stroke-width="2.2"/>
<circle cx="90" cy="18" r="15" fill="#bcd1ee" stroke="#333" stroke-width="2.2"/>
<line x1="45" y1="64" x2="22" y2="120" stroke="#333" stroke-width="2.2"/>
<circle cx="22" cy="120" r="14" fill="#e6988f" stroke="#333" stroke-width="2.2"/>
<line x1="45" y1="64" x2="67" y2="120" stroke="#333" stroke-width="2.2"/>
<circle cx="67" cy="120" r="14" fill="#94c2b7" stroke="#333" stroke-width="2.2"/>
<line x1="135" y1="64" x2="113" y2="120" stroke="#333" stroke-width="2.2"/>
<circle cx="113" cy="120" r="14" fill="#e3c35f" stroke="#333" stroke-width="2.2"/>
<line x1="135" y1="64" x2="158" y2="120" stroke="#333" stroke-width="2.2"/>
<circle cx="158" cy="120" r="14" fill="#e3c35f" stroke="#333" stroke-width="2.2"/></g>
<text x="883" y="561" font-family="Arial" font-size="12" fill="#555">slot_big_tree_classifier</text>
</svg>