<svg xmlns="http://www.w3.org/2000/svg" width="1830" height="1152" viewBox="0 0 1830 1152">
<desc>SVG snippets generated independently for each svg_candidate crop. No image elements are used.</desc>

<svg id="svg_legend_llm" data-source-slot="slot_legend_llm" x="175" y="18" width="80" height="76" viewBox="0 0 100 100" overflow="visible">
  <g fill="#fff" stroke="#111" stroke-width="4" stroke-linecap="round" stroke-linejoin="round">
    <line x1="50" y1="7" x2="50" y2="22"/>
    <circle cx="50" cy="5" r="4"/>
    <rect x="18" y="26" width="64" height="52" rx="7"/>
    <rect x="7" y="39" width="11" height="26" rx="2"/>
    <rect x="82" y="39" width="11" height="26" rx="2"/>
    <circle cx="36" cy="50" r="4" fill="#111" stroke="none"/>
    <circle cx="64" cy="50" r="4" fill="#111" stroke="none"/>
    <path d="M39 66 Q50 72 61 66" fill="none"/>
  </g>
</svg>
<svg id="svg_legend_retriever" data-source-slot="slot_legend_retriever" x="392" y="31" width="62" height="62" viewBox="0 0 100 100" overflow="visible">
  <g fill="none" stroke="#000" stroke-width="7" stroke-linecap="round" stroke-linejoin="round">
    <circle cx="42" cy="38" r="29"/>
    <line x1="64" y1="61" x2="91" y2="88"/>
  </g>
</svg>
<svg id="svg_legend_answer" data-source-slot="slot_legend_answer" x="612" y="25" width="64" height="67" viewBox="0 0 100 100" overflow="visible">
  <g>
    <path d="M14 47 C14 22 32 8 55 8 C79 8 94 25 94 47 C94 66 82 81 63 86 L79 98 L55 88 C31 88 14 72 14 47 Z" fill="#62e75d" stroke="#0c6b1f" stroke-width="4" stroke-linejoin="round"/>
    <text x="54" y="69" font-family="Times New Roman, serif" font-size="66" text-anchor="middle" fill="#111">A</text>
  </g>
</svg>
<svg id="svg_left_llm_root" data-source-slot="slot_left_llm_root" x="38" y="202" width="78" height="72" viewBox="0 0 100 100" overflow="visible">
  <g fill="#fff" stroke="#111" stroke-width="4" stroke-linecap="round" stroke-linejoin="round">
    <line x1="50" y1="7" x2="50" y2="22"/>
    <circle cx="50" cy="5" r="4"/>
    <rect x="18" y="26" width="64" height="52" rx="7"/>
    <rect x="7" y="39" width="11" height="26" rx="2"/>
    <rect x="82" y="39" width="11" height="26" rx="2"/>
    <circle cx="36" cy="50" r="4" fill="#111" stroke="none"/>
    <circle cx="64" cy="50" r="4" fill="#111" stroke="none"/>
    <path d="M39 66 Q50 72 61 66" fill="none"/>
  </g>
</svg>
<svg id="svg_left_llm_col1_mid" data-source-slot="slot_left_llm_col1_mid" x="147" y="369" width="80" height="78" viewBox="0 0 100 100" overflow="visible">
  <g fill="#fff" stroke="#111" stroke-width="4" stroke-linecap="round" stroke-linejoin="round">
    <line x1="50" y1="7" x2="50" y2="22"/>
    <circle cx="50" cy="5" r="4"/>
    <rect x="18" y="26" width="64" height="52" rx="7"/>
    <rect x="7" y="39" width="11" height="26" rx="2"/>
    <rect x="82" y="39" width="11" height="26" rx="2"/>
    <circle cx="36" cy="50" r="4" fill="#111" stroke="none"/>
    <circle cx="64" cy="50" r="4" fill="#111" stroke="none"/>
    <path d="M39 66 Q50 72 61 66" fill="none"/>
  </g>
</svg>
<svg id="svg_left_llm_col1_lower" data-source-slot="slot_left_llm_col1_lower" x="32" y="607" width="88" height="83" viewBox="0 0 100 100" overflow="visible">
  <g fill="#fff" stroke="#111" stroke-width="4" stroke-linecap="round" stroke-linejoin="round">
    <line x1="50" y1="7" x2="50" y2="22"/>
    <circle cx="50" cy="5" r="4"/>
    <rect x="18" y="26" width="64" height="52" rx="7"/>
    <rect x="7" y="39" width="11" height="26" rx="2"/>
    <rect x="82" y="39" width="11" height="26" rx="2"/>
    <circle cx="36" cy="50" r="4" fill="#111" stroke="none"/>
    <circle cx="64" cy="50" r="4" fill="#111" stroke="none"/>
    <path d="M39 66 Q50 72 61 66" fill="none"/>
  </g>
</svg>
<svg id="svg_left_llm_col1_bottom" data-source-slot="slot_left_llm_col1_bottom" x="147" y="785" width="80" height="83" viewBox="0 0 100 100" overflow="visible">
  <g fill="#fff" stroke="#111" stroke-width="4" stroke-linecap="round" stroke-linejoin="round">
    <line x1="50" y1="7" x2="50" y2="22"/>
    <circle cx="50" cy="5" r="4"/>
    <rect x="18" y="26" width="64" height="52" rx="7"/>
    <rect x="7" y="39" width="11" height="26" rx="2"/>
    <rect x="82" y="39" width="11" height="26" rx="2"/>
    <circle cx="36" cy="50" r="4" fill="#111" stroke="none"/>
    <circle cx="64" cy="50" r="4" fill="#111" stroke="none"/>
    <path d="M39 66 Q50 72 61 66" fill="none"/>
  </g>
</svg>
<svg id="svg_left_llm_col2_mid" data-source-slot="slot_left_llm_col2_mid" x="443" y="368" width="82" height="78" viewBox="0 0 100 100" overflow="visible">
  <g fill="#fff" stroke="#111" stroke-width="4" stroke-linecap="round" stroke-linejoin="round">
    <line x1="50" y1="7" x2="50" y2="22"/>
    <circle cx="50" cy="5" r="4"/>
    <rect x="18" y="26" width="64" height="52" rx="7"/>
    <rect x="7" y="39" width="11" height="26" rx="2"/>
    <rect x="82" y="39" width="11" height="26" rx="2"/>
    <circle cx="36" cy="50" r="4" fill="#111" stroke="none"/>
    <circle cx="64" cy="50" r="4" fill="#111" stroke="none"/>
    <path d="M39 66 Q50 72 61 66" fill="none"/>
  </g>
</svg>
<svg id="svg_left_llm_col2_lower" data-source-slot="slot_left_llm_col2_lower" x="330" y="607" width="88" height="83" viewBox="0 0 100 100" overflow="visible">
  <g fill="#fff" stroke="#111" stroke-width="4" stroke-linecap="round" stroke-linejoin="round">
    <line x1="50" y1="7" x2="50" y2="22"/>
    <circle cx="50" cy="5" r="4"/>
    <rect x="18" y="26" width="64" height="52" rx="7"/>
    <rect x="7" y="39" width="11" height="26" rx="2"/>
    <rect x="82" y="39" width="11" height="26" rx="2"/>
    <circle cx="36" cy="50" r="4" fill="#111" stroke="none"/>
    <circle cx="64" cy="50" r="4" fill="#111" stroke="none"/>
    <path d="M39 66 Q50 72 61 66" fill="none"/>
  </g>
</svg>
<svg id="svg_left_llm_col2_bottom" data-source-slot="slot_left_llm_col2_bottom" x="444" y="785" width="82" height="83" viewBox="0 0 100 100" overflow="visible">
  <g fill="#fff" stroke="#111" stroke-width="4" stroke-linecap="round" stroke-linejoin="round">
    <line x1="50" y1="7" x2="50" y2="22"/>
    <circle cx="50" cy="5" r="4"/>
    <rect x="18" y="26" width="64" height="52" rx="7"/>
    <rect x="7" y="39" width="11" height="26" rx="2"/>
    <rect x="82" y="39" width="11" height="26" rx="2"/>
    <circle cx="36" cy="50" r="4" fill="#111" stroke="none"/>
    <circle cx="64" cy="50" r="4" fill="#111" stroke="none"/>
    <path d="M39 66 Q50 72 61 66" fill="none"/>
  </g>
</svg>
<svg id="svg_left_llm_chain3" data-source-slot="slot_left_llm_chain3" x="688" y="893" width="95" height="90" viewBox="0 0 100 100" overflow="visible">
  <g fill="#fff" stroke="#111" stroke-width="4" stroke-linecap="round" stroke-linejoin="round">
    <line x1="50" y1="7" x2="50" y2="22"/>
    <circle cx="50" cy="5" r="4"/>
    <rect x="18" y="26" width="64" height="52" rx="7"/>
    <rect x="7" y="39" width="11" height="26" rx="2"/>
    <rect x="82" y="39" width="11" height="26" rx="2"/>
    <circle cx="36" cy="50" r="4" fill="#111" stroke="none"/>
    <circle cx="64" cy="50" r="4" fill="#111" stroke="none"/>
    <path d="M39 66 Q50 72 61 66" fill="none"/>
  </g>
</svg>
<svg id="svg_left_retriever_col1_upper" data-source-slot="slot_left_retriever_col1_upper" x="57" y="380" width="66" height="63" viewBox="0 0 100 100" overflow="visible">
  <g fill="none" stroke="#000" stroke-width="7" stroke-linecap="round" stroke-linejoin="round">
    <circle cx="42" cy="38" r="29"/>
    <line x1="64" y1="61" x2="91" y2="88"/>
  </g>
</svg>
<svg id="svg_left_retriever_col1_lower" data-source-slot="slot_left_retriever_col1_lower" x="57" y="790" width="67" height="64" viewBox="0 0 100 100" overflow="visible">
  <g fill="none" stroke="#000" stroke-width="7" stroke-linecap="round" stroke-linejoin="round">
    <circle cx="42" cy="38" r="29"/>
    <line x1="64" y1="61" x2="91" y2="88"/>
  </g>
</svg>
<svg id="svg_left_retriever_col2_upper" data-source-slot="slot_left_retriever_col2_upper" x="352" y="375" width="68" height="66" viewBox="0 0 100 100" overflow="visible">
  <g fill="none" stroke="#000" stroke-width="7" stroke-linecap="round" stroke-linejoin="round">
    <circle cx="42" cy="38" r="29"/>
    <line x1="64" y1="61" x2="91" y2="88"/>
  </g>
</svg>
<svg id="svg_left_retriever_col2_lower" data-source-slot="slot_left_retriever_col2_lower" x="352" y="786" width="68" height="66" viewBox="0 0 100 100" overflow="visible">
  <g fill="none" stroke="#000" stroke-width="7" stroke-linecap="round" stroke-linejoin="round">
    <circle cx="42" cy="38" r="29"/>
    <line x1="64" y1="61" x2="91" y2="88"/>
  </g>
</svg>
<svg id="svg_left_answer_chain1" data-source-slot="slot_left_answer_chain1" x="48" y="935" width="64" height="62" viewBox="0 0 100 100" overflow="visible">
  <g>
    <path d="M14 47 C14 22 32 8 55 8 C79 8 94 25 94 47 C94 66 82 81 63 86 L79 98 L55 88 C31 88 14 72 14 47 Z" fill="#62e75d" stroke="#0c6b1f" stroke-width="4" stroke-linejoin="round"/>
    <text x="54" y="69" font-family="Times New Roman, serif" font-size="66" text-anchor="middle" fill="#111">A</text>
  </g>
</svg>
<svg id="svg_left_answer_chain2" data-source-slot="slot_left_answer_chain2" x="344" y="935" width="64" height="62" viewBox="0 0 100 100" overflow="visible">
  <g>
    <path d="M14 47 C14 22 32 8 55 8 C79 8 94 25 94 47 C94 66 82 81 63 86 L79 98 L55 88 C31 88 14 72 14 47 Z" fill="#62e75d" stroke="#0c6b1f" stroke-width="4" stroke-linejoin="round"/>
    <text x="54" y="69" font-family="Times New Roman, serif" font-size="66" text-anchor="middle" fill="#111">A</text>
  </g>
</svg>
<svg id="svg_left_answer_chain3" data-source-slot="slot_left_answer_chain3" x="602" y="934" width="66" height="64" viewBox="0 0 100 100" overflow="visible">
  <g>
    <path d="M14 47 C14 22 32 8 55 8 C79 8 94 25 94 47 C94 66 82 81 63 86 L79 98 L55 88 C31 88 14 72 14 47 Z" fill="#62e75d" stroke="#0c6b1f" stroke-width="4" stroke-linejoin="round"/>
    <text x="54" y="69" font-family="Times New Roman, serif" font-size="66" text-anchor="middle" fill="#111">A</text>
  </g>
</svg>
<svg id="svg_training_flame" data-source-slot="slot_training_flame" x="1236" y="215" width="38" height="47" viewBox="0 0 100 100" overflow="visible">
  <g>
    <path d="M50 93 C25 80 21 58 31 42 C34 36 39 31 38 18 C51 25 58 39 57 51 C66 44 68 35 66 24 C85 40 94 60 82 79 C74 91 62 97 50 93 Z" fill="#f26c13"/>
    <path d="M50 90 C38 83 36 68 43 57 C48 49 49 41 46 34 C59 43 65 55 62 67 C68 63 70 57 70 52 C79 66 72 84 50 90 Z" fill="#ffc21a"/>
  </g>
</svg>
<svg id="svg_best_of_n_reward" data-source-slot="slot_best_of_n_reward" x="1117" y="824" width="64" height="68" viewBox="0 0 100 100" overflow="visible">
  <g>
    <path d="M27 60 L12 98 L39 82 Z" fill="#3f8cd3"/>
    <path d="M73 60 L88 98 L61 82 Z" fill="#3f8cd3"/>
    <path d="M50 8 L59 15 L70 13 L76 24 L88 29 L86 41 L94 50 L86 59 L88 71 L76 76 L70 87 L59 85 L50 92 L41 85 L30 87 L24 76 L12 71 L14 59 L6 50 L14 41 L12 29 L24 24 L30 13 L41 15 Z" fill="#ffc528"/>
    <path d="M50 27 L56 42 L72 42 L59 52 L64 68 L50 59 L36 68 L41 52 L28 42 L44 42 Z" fill="#f0b118"/>
  </g>
</svg>
<svg id="svg_selected_check" data-source-slot="slot_selected_check" x="388" y="1073" width="55" height="53" viewBox="0 0 100 100" overflow="visible">
  <path d="M15 58 L38 79 L86 18" fill="none" stroke="#18b983" stroke-width="10" stroke-linecap="round" stroke-linejoin="round"/>
</svg>
</svg>
