<svg xmlns="http://www.w3.org/2000/svg" viewBox="2.0 2.0 1616.0 766.0" style="font-family: 'Times New Roman', serif; background-color: white;">
  <defs>
    <!-- Arrow Markers -->
    <marker id="arrow-red" markerWidth="10" markerHeight="10" refX="9" refY="3" orient="auto" markerUnits="strokeWidth">
      <path d="M0,0 L0,6 L9,3 z" fill="#C00000" />
    </marker>
    <marker id="arrow-blue" markerWidth="10" markerHeight="10" refX="9" refY="3" orient="auto" markerUnits="strokeWidth">
      <path d="M0,0 L0,6 L9,3 z" fill="#0000FF" />
    </marker>
    <marker id="arrow-green" markerWidth="10" markerHeight="10" refX="9" refY="3" orient="auto" markerUnits="strokeWidth">
      <path d="M0,0 L0,6 L9,3 z" fill="#006644" />
    </marker>
    <marker id="arrow-green-rev" markerWidth="10" markerHeight="10" refX="1" refY="3" orient="auto" markerUnits="strokeWidth">
      <path d="M9,0 L9,6 L0,3 z" fill="#006644" />
    </marker>
    <marker id="arrow-red-rev" markerWidth="10" markerHeight="10" refX="1" refY="3" orient="auto" markerUnits="strokeWidth">
      <path d="M9,0 L9,6 L0,3 z" fill="#C00000" />
    </marker>
    <marker id="arrow-blue-rev" markerWidth="10" markerHeight="10" refX="1" refY="3" orient="auto" markerUnits="strokeWidth">
      <path d="M9,0 L9,6 L0,3 z" fill="#0000FF" />
    </marker>

    <!-- Gradients -->
    <linearGradient id="grad-blue-scale" x1="0%" y1="0%" x2="0%" y2="100%">
      <stop offset="0%" style="stop-color:#0077BE;stop-opacity:1" />
      <stop offset="100%" style="stop-color:#E6E6FA;stop-opacity:1" />
    </linearGradient>
    <linearGradient id="grad-spectrum" x1="0%" y1="0%" x2="0%" y2="100%">
      <stop offset="0%" style="stop-color:#C00000;stop-opacity:1" />
      <stop offset="50%" style="stop-color:#FF6666;stop-opacity:1" />
      <stop offset="100%" style="stop-color:#FFCCCC;stop-opacity:1" />
    </linearGradient>
    <linearGradient id="grad-hdr" x1="0%" y1="0%" x2="100%" y2="100%">
      <stop offset="0%" style="stop-color:#0000FF;stop-opacity:1" />
      <stop offset="50%" style="stop-color:#00FFFF;stop-opacity:1" />
      <stop offset="100%" style="stop-color:#FF0000;stop-opacity:1" />
    </linearGradient>

    <!-- Reusable Icons -->
    <g id="icon-fist">
      <path d="M10,20 Q10,10 20,5 Q30,0 40,10 L40,25 Q30,30 20,25 Q10,30 10,20" fill="#C00000" />
      <path d="M15,22 L15,35 L25,35 L25,22" fill="none" stroke="#8B0000" stroke-width="2"/>
    </g>
    <g id="icon-fist-grey">
      <path d="M10,20 Q10,10 20,5 Q30,0 40,10 L40,25 Q30,30 20,25 Q10,30 10,20" fill="#999" />
      <path d="M15,22 L15,35 L25,35 L25,22" fill="none" stroke="#666" stroke-width="2"/>
    </g>
    <g id="icon-virus">
      <circle cx="15" cy="15" r="10" fill="#4CAF50" />
      <circle cx="15" cy="2" r="3" fill="#F44336" />
      <circle cx="28" cy="15" r="3" fill="#F44336" />
      <circle cx="15" cy="28" r="3" fill="#F44336" />
      <circle cx="2" cy="15" r="3" fill="#F44336" />
      <path d="M15,5 L15,10 M22,15 L18,15 M15,25 L15,20 M8,15 L12,15" stroke="#4CAF50" stroke-width="2"/>
    </g>
    <g id="icon-hello">
      <circle cx="20" cy="20" r="18" fill="white" stroke="#FFC0CB" stroke-width="2"/>
      <path d="M10,10 Q20,0 30,10" fill="none" stroke="#FFC0CB" stroke-width="2"/> <!-- Hair -->
      <circle cx="15" cy="20" r="2" fill="#FFC0CB"/>
      <circle cx="25" cy="20" r="2" fill="#FFC0CB"/>
      <ellipse cx="10" cy="25" rx="5" ry="3" fill="#FFC0CB" transform="rotate(-20 10 25)"/>
      <ellipse cx="30" cy="25" rx="5" ry="3" fill="#FFC0CB" transform="rotate(20 30 25)"/>
    </g>
  </defs>

  <!-- ================= TOP PANEL ================= -->
  <rect x="10" y="10" width="1580" height="380" rx="15" fill="none" stroke="black" stroke-width="2" stroke-dasharray="15,5,2,5" />
  
  <!-- Header -->
  <text x="30" y="70" font-size="48" font-weight="bold" fill="black">Sample Selection</text>
  <text x="530" y="55" font-size="44" font-weight="bold" fill="black">Explore the effect of <tspan fill="#FF0000">triggers</tspan> on <tspan fill="#FF0000">sample selection</tspan></text>
  <text x="480" y="95" font-size="44" font-weight="bold" fill="black">via the enhancement of <tspan fill="#0000FF">attack success rate</tspan> and <tspan fill="#006644">stealthiness.</tspan></text>

  <!-- Component A (Left) -->
  <rect x="15" y="105" width="860" height="300" rx="15" fill="#F0F0FF" />
  <text x="30" y="135" font-size="40" font-weight="bold" fill="#0000FF">Component A</text>
  <text x="600" y="135" font-size="34" font-weight="bold" fill="#0000FF" text-anchor="middle">attack success rate</text>
  <text x="710" y="155" font-size="34" font-weight="bold" fill="#0000FF" text-anchor="middle">enhancement</text>

  <!-- Component A Content -->
  <text x="40" y="170" font-size="36" font-weight="bold" fill="#C00000">highlight</text>
  <text x="20" y="195" font-size="34" font-weight="bold" fill="#000080">large trigger scale</text>
  
  <!-- Images Grid (Simplified Vector) -->
  <g transform="translate(20, 210)">
    <rect x="0" y="0" width="80" height="80" fill="#F5DEB3" /> <!-- Bottle -->
    <path d="M20,80 L20,40 L60,40 L60,80" fill="none" stroke="#8B4513" stroke-width="2"/> <!-- Hand -->
    <rect x="80" y="0" width="80" height="80" fill="#F5DEB3" /> <!-- Bottle 2 -->
    <rect x="0" y="85" width="80" height="80" fill="#F5DEB3" /> <!-- Bottle 3 -->
    <rect x="90" y="85" width="60" height="60" fill="#F5DEB3" /> <!-- Hand -->
  </g>
  
  <!-- Scale Bar -->
  <rect x="180" y="200" width="25" height="180" rx="10" fill="url(#grad-blue-scale)" />
  
  <!-- Curly Brace -->
  <path d="M240,200 Q260,200 260,250 Q260,280 240,280 L240,290 Q260,290 260,340 Q260,300 240,300" fill="none" stroke="black" stroke-width="4" transform="translate(0, -10)" />

  <!-- Yellow Box -->
  <rect x="270" y="230" width="580" height="80" fill="white" stroke="#FFFF00" stroke-width="3" />
  <text x="300" y="260" font-size="36" font-weight="bold" fill="black">Find the appropriate combination</text>
  <use href="#icon-fist" x="780" y="235" transform="scale(0.8)"/>
  <use href="#icon-fist-grey" x="810" y="235" transform="scale(0.8)"/>
  <text x="290" y="280" font-size="36" font-weight="bold" fill="black">based on <tspan fill="#C00000">the scale of trigger features</tspan>.</text>
  <use href="#icon-virus" x="800" y="255" transform="scale(1.2)"/>

  <!-- Red Buttons -->
  <rect x="260" y="170" width="580" height="80" rx="30" fill="#C02020" />
  <text x="550" y="200" font-size="36" font-weight="bold" fill="white" text-anchor="middle">Category Diversity (ours)</text>

  <rect x="260" y="295" width="580" height="80" rx="30" fill="#C02020" />
  <text x="550" y="330" font-size="36" font-weight="bold" fill="white" text-anchor="middle">Forgetting Events (traditional)</text>

  <!-- Arrows Component A -->
  <path d="M180,140 L280,140 L280,165" fill="none" stroke="#C00000" stroke-width="3" marker-end="url(#arrow-red)" />
  <path d="M180,360 L280,360 L280,335" fill="none" stroke="#C00000" stroke-width="3" marker-end="url(#arrow-red)" />
  <text x="40" y="360" font-size="34" font-weight="bold" fill="#000080">small trigger scale</text>
  <text x="40" y="360" font-size="36" font-weight="bold" fill="#C00000">highlight</text>

  <!-- Component B (Right) -->
  <rect x="880" y="105" width="715" height="300" rx="15" fill="#E6F4E6" />
  <text x="920" y="135" font-size="40" font-weight="bold" fill="#006644">Component B</text>
  <text x="1450" y="140" font-size="36" font-weight="bold" fill="#006644" text-anchor="middle">stealthiness</text>
  <text x="1490" y="160" font-size="36" font-weight="bold" fill="#006644" text-anchor="middle">enhancement</text>

  <!-- Component B Content -->
  <!-- Top Left: Bottle Stack -->
  <g transform="translate(920, 140)">
    <rect x="0" y="0" width="180" height="150" fill="white" />
    <image href="" width="180" height="150" /> <!-- Placeholder for stack -->
    <path d="M40,150 L40,50 L140,50 L140,150" fill="none" stroke="#999" stroke-width="2"/>
    <ellipse cx="90" cy="50" rx="30" ry="10" fill="#DDD" stroke="#999"/>
    <path d="M60,50 L50,100 M120,50 L130,100" stroke="#999" stroke-width="2"/>
    <use href="#icon-fist" x="150" y="120" transform="scale(0.5)"/>
  </g>

  <!-- Top Right: Black Bottle -->
  <g transform="translate(1060, 135)">
    <rect x="0" y="0" width="190" height="160" fill="black" />
    <path d="M60,140 L60,40 L130,40 L130,140" fill="none" stroke="white" stroke-width="10" stroke-opacity="0.3"/>
    <text x="70" y="90" font-size="10" fill="white" opacity="0.5">H2O</text>
    <use href="#icon-fist" x="150" y="130" transform="scale(0.5)"/>
    <text x="0" y="180" font-size="34" font-weight="bold" fill="#C02020">our method</text>
  </g>

  <!-- Bottom Left: Hello Kitty -->
  <g transform="translate(910, 280)">
    <rect x="0" y="0" width="190" height="160" fill="white" />
    <use href="#icon-hello" x="70" y="20" transform="scale(2)"/>
    <path d="M20,100 Q95,120 170,100 L180,150 Q95,180 10,150 Z" fill="#DDD" opacity="0.5"/> <!-- Body -->
    <path d="M95,50 L120,150" stroke="#DDD" stroke-width="5" opacity="0.5"/> <!-- Sword handle -->
    <path d="M120,150 L120,200" stroke="#DDD" stroke-width="5" opacity="0.5"/> <!-- Sword blade -->
  </g>

  <!-- Bottom Right: Noise -->
  <g transform="translate(1060, 280)">
    <rect x="0" y="0" width="190" height="160" fill="white" />
    <!-- Pixel Noise Simulation -->
    <pattern id="noisePat" x="0" y="0" width="20" height="20" patternUnits="userSpaceOnUse">
      <rect x="0" y="0" width="10" height="10" fill="#4B0082"/>
      <rect x="10" y="0" width="10" height="10" fill="#87CEEB"/>
      <rect x="0" y="10" width="10" height="10" fill="#4B0082"/>
      <rect x="10" y="10" width="10" height="10" fill="#87CEEB"/>
    </pattern>
    <rect x="0" y="0" width="190" height="160" fill="url(#noisePat)" />
  </g>

  <!-- Text Blocks B -->
  <text x="1200" y="190" font-size="36" font-weight="bold" fill="#333399">Trigger <tspan fill="black" font-weight="900">■</tspan> can be</text>
  <text x="1200" y="210" font-size="36" font-weight="bold" fill="#333399">concealed in the</text>
  <text x="1200" y="230" font-size="36" font-weight="bold" fill="#C00000">black</text>
  <text x="1200" y="250" font-size="36" font-weight="bold" fill="#333399">background.</text>

  <text x="1220" y="310" font-size="36" font-weight="bold" fill="#333399">Trigger <tspan fill="black" font-weight="900">♡</tspan> can be</text>
  <text x="1200" y="330" font-size="36" font-weight="bold" fill="#333399">concealed in the</text>
  <text x="1200" y="350" font-size="36" font-weight="bold" fill="#C00000">complexly texture</text>
  <text x="1200" y="370" font-size="36" font-weight="bold" fill="#333399">background.</text>

  <!-- Yellow Box B -->
  <rect x="1390" y="205" width="190" height="190" fill="white" stroke="#FFFF00" stroke-width="3" />
  <text x="1400" y="235" font-size="36" font-weight="bold" fill="black">Cancel <tspan fill="#FF0000">trigger</tspan></text>
  <text x="1400" y="260" font-size="36" font-weight="bold" fill="#FF0000">features <tspan fill="black" font-weight="900">♡</tspan> on</text>
  <text x="1400" y="285" font-size="36" font-weight="bold" fill="black">images by</text>
  <text x="1400" y="305" font-size="36" font-weight="bold" fill="#FF0000">similarity</text>
  <text x="1400" y="325" font-size="36" font-weight="bold" fill="#FF0000">calculation.</text>

  <!-- ================= MIDDLE DIVIDER ================= -->
  <line x1="10" y1="400" x2="1590" y2="400" stroke="black" stroke-width="2" stroke-dasharray="15,5,2,5" />
  
  <!-- Left Side Arrows -->
  <line x1="320" y1="370" x2="320" y2="490" stroke="#0000FF" stroke-width="4" marker-end="url(#arrow-blue)" marker-start="url(#arrow-blue-rev)" />
  <text x="40" y="420" font-size="36" font-weight="bold" fill="#0000FF">attack success rate</text>
  <text x="70" y="445" font-size="36" font-weight="bold" fill="#0000FF">enhancement</text>
  
  <line x1="410" y1="370" x2="410" y2="490" stroke="#C00000" stroke-width="4" marker-end="url(#arrow-red)" marker-start="url(#arrow-red-rev)" />
  <text x="450" y="430" font-size="36" font-weight="bold" fill="#C00000">the scale of triggers</text>

  <!-- Right Side Arrows -->
  <line x1="1320" y1="370" x2="1320" y2="490" stroke="#C00000" stroke-width="4" marker-end="url(#arrow-red)" marker-start="url(#arrow-red-rev)" />
  <text x="1120" y="430" font-size="36" font-weight="bold" fill="#C00000">trigger features</text>

  <line x1="1410" y1="370" x2="1410" y2="490" stroke="#006644" stroke-width="4" marker-end="url(#arrow-green)" marker-start="url(#arrow-green-rev)" />
  <text x="1440" y="420" font-size="36" font-weight="bold" fill="#006644">stealthiness</text>
  <text x="1440" y="445" font-size="36" font-weight="bold" fill="#006644">ensurement</text>

  <!-- ================= BOTTOM PANEL ================= -->
  <rect x="10" y="440" width="1580" height="260" rx="15" fill="none" stroke="black" stroke-width="2" stroke-dasharray="15,5,2,5" />
  
  <text x="30" y="480" font-size="48" font-weight="bold" fill="black">Triggers</text>
  <text x="30" y="520" font-size="40" font-weight="bold" fill="#FF0000">Component C</text>
  <text x="490" y="480" font-size="44" font-weight="bold" fill="black">Explore the effect of <tspan fill="#FF0000">sample selection</tspan> on <tspan fill="#FF0000">triggers.</tspan></text>
  <text x="420" y="510" font-size="36" font-weight="bold" fill="#C00000">Stealthiness ensurement via avoid selecting single-color dominated samples.</text>

  <!-- Left: Spectrum -->
  <rect x="30" y="520" width="40" height="150" rx="10" fill="url(#grad-spectrum)" />
  <text x="70" y="530" font-size="40" font-weight="bold" fill="#006644">G</text>
  <text x="70" y="590" font-size="40" font-weight="bold" fill="#C00000">R</text>
  <text x="70" y="650" font-size="40" font-weight="bold" fill="#0000FF">B</text>

  <!-- Center: Blue Header -->
  <text x="580" y="540" font-size="36" font-weight="bold" fill="#000080">Distinct sensitivity of human visual system on RGB</text>
  
  <!-- Dotted Lines -->
  <line x1="180" y1="610" x2="130" y2="650" stroke="black" stroke-width="3" stroke-dasharray="5,5" />
  <line x1="250" y1="610" x2="300" y2="650" stroke="black" stroke-width="3" stroke-dasharray="5,5" />

  <!-- Low Sensitivity Box -->
  <rect x="35" y="650" width="260" height="90" fill="none" stroke="black" stroke-width="2" stroke-dasharray="10,5" />
  <text x="75" y="675" font-size="40" font-weight="bold" fill="#333399">low sensitivity</text>
  <g transform="translate(120, 680)">
     <!-- Eye Icon -->
     <path d="M0,20 Q25,0 50,20 Q25,40 0,20 Z" fill="none" stroke="black" stroke-width="2"/>
     <circle cx="25" cy="20" r="8" fill="black"/>
     <path d="M50,20 Q75,0 100,20 Q75,40 50,20 Z" fill="none" stroke="black" stroke-width="2" transform="translate(10,0)"/>
     <circle cx="75" cy="20" r="8" fill="black"/>
  </g>

  <!-- Distinct Color Poisoning -->
  <text x="420" y="660" font-size="36" font-weight="bold" fill="#C00000" text-anchor="middle">distinct-color</text>
  <line x1="330" y1="680" x2="510" y2="680" stroke="#C02020" stroke-width="6" marker-end="url(#arrow-red)" marker-start="url(#arrow-red-rev)" />
  <text x="420" y="710" font-size="40" font-weight="bold" fill="#C00000" text-anchor="middle">poisoning</text>

  <!-- Yellow Trigger Box -->
  <rect x="115" y="550" width="410" height="110" fill="white" stroke="#FFFF00" stroke-width="3" />
  <text x="125" y="585" font-size="38" font-weight="bold" fill="black">Enhance the <tspan fill="#FF0000">trigger feature</tspan></text>
  <text x="125" y="610" font-size="38" font-weight="bold" fill="black">on the <tspan fill="#0000FF">Blue</tspan> color channel.</text>

  <!-- Red Flow Arrow -->
  <path d="M1450,510 L320,510 L320,550" fill="none" stroke="#C00000" stroke-width="4" marker-end="url(#arrow-red)" />

  <!-- Photos Section -->
  <g transform="translate(530, 540)">
    <!-- Photo 1 -->
    <rect x="0" y="0" width="280" height="150" fill="white" />
    <text x="10" y="30" font-size="36" font-weight="bold" fill="#000080">mild distortion</text>
    <!-- Vector Man Drinking -->
    <g transform="translate(10, 40)">
       <rect x="0" y="0" width="260" height="150" fill="#EEE" />
       <path d="M0,150 L0,50 Q130,30 260,50 L260,150" fill="#222" /> <!-- Shirt -->
       <path d="M0,50 Q130,0 260,50" fill="none" stroke="#DDD" stroke-width="20"/> <!-- Arms -->
       <circle cx="130" cy="40" r="40" fill="#D6B656"/> <!-- Head -->
       <path d="M90,40 L90,100 L170,100 L170,40" fill="none" stroke="#D6B656" stroke-width="20"/> <!-- Bottle -->
       <path d="M90,40 L90,100 L170,100 L170,40" fill="url(#grad-hdr)" stroke="none" opacity="0.3"/> <!-- Blue tint -->
       <path d="M130,40 L130,80" stroke="#D6B656" stroke-width="15"/> <!-- Bottle Neck -->
       <path d="M120,40 Q130,60 140,40" fill="#D6B656"/> <!-- Lips -->
       <g stroke="black" stroke-width="1" fill="none"> <!-- Glasses -->
         <rect x="100" y="30" width="30" height="10"/>
         <rect x="140" y="30" width="30" height="10"/>
         <line x1="130" y1="35" x2="130" y2="35"/>
       </g>
    </g>
    <text x="240" y="180" font-size="40" font-weight="bold" fill="#C00000">R</text>

    <!-- Photo 2 -->
    <rect x="290" y="0" width="280" height="150" fill="white" />
    <text x="295" y="30" font-size="36" font-weight="bold" fill="#000080">severe distortion</text>
    <!-- Vector Man Drinking (High Contrast) -->
    <g transform="translate(300, 40)">
       <rect x="0" y="0" width="260" height="150" fill="#CCC" />
       <path d="M0,150 L0,50 Q130,30 260,50 L260,150" fill="#111" /> 
       <path d="M0,50 Q130,0 260,50" fill="none" stroke="#999" stroke-width="20"/>
       <circle cx="130" cy="40" r="40" fill="#666"/>
       <path d="M90,40 L90,100 L170,100 L170,40" fill="none" stroke="#999" stroke-width="20"/>
       <path d="M90,40 L90,100 L170,100 L170,40" fill="url(#grad-hdr)" stroke="none" opacity="0.6"/>
       <path d="M120,40 Q130,60 140,40" fill="#666"/>
       <g stroke="#333" stroke-width="1" fill="none">
         <rect x="100" y="30" width="30" height="10"/>
         <rect x="140" y="30" width="30" height="10"/>
         <line x1="130" y1="35" x2="130" y2="35"/>
       </g>
    </g>
    <text x="560" y="180" font-size="40" font-weight="bold" fill="#006644">G</text>

    <!-- Photo 3 -->
    <rect x="580" y="0" width="280" height="150" fill="white" />
    <text x="585" y="30" font-size="36" font-weight="bold" fill="#000080">subtle distortion</text>
    <!-- Vector Man Drinking (Subtle) -->
    <g transform="translate(590, 40)">
       <rect x="0" y="0" width="260" height="150" fill="#EEE" />
       <path d="M0,150 L0,50 Q130,30 260,50 L260,150" fill="#222" />
       <path d="M0,50 Q130,0 260,50" fill="none" stroke="#DDD" stroke-width="20"/>
       <circle cx="130" cy="40" r="40" fill="#D6B656"/>
       <path d="M90,40 L90,100 L170,100 L170,40" fill="none" stroke="#D6B656" stroke-width="20"/>
       <path d="M120,40 Q130,60 140,40" fill="#D6B656"/>
       <g stroke="black" stroke-width="1" fill="none">
         <rect x="100" y="30" width="30" height="10"/>
         <rect x="140" y="30" width="30" height="10"/>
         <line x1="130" y1="35" x2="130" y2="35"/>
       </g>
       <!-- Subtle Blue Overlay -->
       <path d="M90,40 L90,100 L170,100 L170,40" fill="url(#grad-hdr)" stroke="none" opacity="0.1"/>
    </g>
    <text x="750" y="180" font-size="40" font-weight="bold" fill="#0000FF">B</text>
  </g>

  <!-- Right: Special Samples -->
  <g transform="translate(1300, 540)">
    <rect x="0" y="0" width="290" height="220" fill="white" stroke="#006644" stroke-width="3" />
    <text x="145" y="40" font-size="40" font-weight="bold" fill="black" text-anchor="middle">Special samples</text>
    <text x="70" y="80" font-size="40" font-weight="bold" fill="black" text-anchor="middle">Green</text>
    <text x="70" y="105" font-size="40" font-weight="bold" fill="black" text-anchor="middle">dominated</text>
    <text x="220" y="80" font-size="40" font-weight="bold" fill="black" text-anchor="middle">Blue</text>
    <text x="220" y="105" font-size="40" font-weight="bold" fill="black" text-anchor="middle">dominated</text>

    <!-- Vector Green Bottle -->
    <g transform="translate(10, 120)">
       <rect x="0" y="0" width="130" height="100" fill="black" />
       <path d="M40,100 L40,20 L90,20 L90,100" fill="#9ACD32" />
       <text x="45" y="30" font-size="10" fill="#666">GLACE</text>
       <text x="45" y="40" font-size="10" fill="#666">AU</text>
       <text x="45" y="50" font-size="10" fill="#666">Lait</text>
       <text x="45" y="60" font-size="10" fill="#666">Fraise</text>
       <path d="M0,100 L0,80 L130,100" fill="#6B8E23"/>
    </g>

    <!-- Vector Blue Bottle -->
    <g transform="translate(180, 120)">
       <rect x="0" y="0" width="130" height="100" fill="black" />
       <path d="M40,100 L40,20 L90,20 L90,100" fill="#ADD8E6" />
       <path d="M40,100 L40,20 L90,20 L90,100" fill="url(#grad-hdr)" opacity="0.5"/>
       <text x="45" y="30" font-size="10" fill="#FFF" opacity="0.5">GLACE</text>
       <text x="45" y="40" font-size="10" fill="#FFF" opacity="0.5">Fraise</text>
       <path d="M0,100 L0,80 L130,100" fill="#4682B4"/>
    </g>
  </g>

</svg>