<svg xmlns="http://www.w3.org/2000/svg" width="1200" height="300" viewBox="0 0 1200 300">

  <defs>
    <marker id="arrow" markerWidth="10" markerHeight="10" refX="8" refY="5" orient="auto" markerUnits="strokeWidth">
      <path d="M0,0 L10,5 L0,10 Z" fill="#000"/>
    </marker>
    <marker id="smallArrow" markerWidth="8" markerHeight="8" refX="6.5" refY="4" orient="auto" markerUnits="strokeWidth">
      <path d="M0,0 L8,4 L0,8 Z" fill="#000"/>
    </marker>
    <style>
      .title { font-family: 'Times New Roman', serif; font-size: 34px; font-style: italic; }
      .paneltag { font-family: 'Times New Roman', serif; font-size: 32px; }
      .label { font-family: Arial, Helvetica, sans-serif; font-size: 26px; }
      .labelSmall { font-family: Arial, Helvetica, sans-serif; font-size: 22px; }
      .labelBold { font-family: Arial, Helvetica, sans-serif; font-size: 22px; font-weight: 700; }
      .serif { font-family: 'Times New Roman', serif; }
      .italic { font-style: italic; }
      .bigi { font-family: 'Times New Roman', serif; font-size: 26px; font-style: italic; }
      .box { fill: none; stroke: #000; stroke-width: 2; }
      .lightbox { fill: none; stroke: #000; stroke-width: 1.8; }
      .token { fill: #ddd; stroke: #000; stroke-width: 1.8; }
      .tokenBlue { fill: #dce9f7; stroke: #2a66a5; stroke-width: 2; }
      .tokenPurple { fill: #f1dbf5; stroke: #91388d; stroke-width: 2; }
      .alignedBlue { fill: #d7e6f6; stroke: #2d6ebb; stroke-width: 2; }
      .alignedOrange { fill: none; stroke: #e0702d; stroke-width: 2; }
      .fm { fill: #e6d8e8; stroke: #91388d; stroke-width: 2; }
      .embedbox { fill: none; stroke: #000; stroke-width: 2; }
      .bluebox { fill: #cfe0f2; stroke: #2d6ebb; stroke-width: 2; }
      .orangebox { fill: none; stroke: #e0702d; stroke-width: 2; }
      .dash { fill: none; stroke: #000; stroke-width: 2; stroke-dasharray: 10 7; }
      .orangedash { fill: none; stroke: #d56428; stroke-width: 2.3; stroke-dasharray: 12 8; }
      .slottext { font-family: Arial, Helvetica, sans-serif; font-size: 11px; fill: #666; }
      .placeholder rect.slot { fill: #f8f8f8; stroke: #666; stroke-width: 1.6; stroke-dasharray: 5 4; }
      .placeholder line.diag { stroke: #aaa; stroke-width: 1; }
      .placeholder text { font-family: Arial, Helvetica, sans-serif; font-size: 10px; fill: #777; text-anchor: middle; dominant-baseline: middle; }
    </style>
  </defs>
<g id="svg_mllm_train_optional_flame" data-source-slot="slot_mllm_train_optional_flame" transform="translate(505,58) scale(1.0000)">
  <path d="M12 1 C10 6,5 8,5 15 C5 21,9 25,12 31 C14 26,19 22,19 15 C19 9,15 7,12 1 Z" fill="#f7be3d" stroke="none"/>
  <path d="M13 5 C12 8,9 10,9 15 C9 19,12 22,13 26 C14 22,17 19,17 14 C17 10,15 8,13 5 Z" fill="#f29b1a" stroke="none"/>
  <path d="M10 10 C8.5 12,7.5 14,7.5 16.5 C7.5 19.5,10 22,12 24 C11 20,14 18,14 14.5 C14 12.5,12.5 11.3,10 10 Z" fill="#f5d66f" opacity="0.9" stroke="none"/>
</g>
<text x="505" y="54" font-family="Arial" font-size="12" fill="#444">slot_mllm_train_optional_flame</text>
<g id="svg_mllm_projector_flame" data-source-slot="slot_mllm_projector_flame" transform="translate(761,317) scale(0.9118)">
  <path d="M12 1 C10 6,5 8,5 15 C5 21,9 25,12 31 C14 26,19 22,19 15 C19 9,15 7,12 1 Z" fill="#ff6f1c" stroke="none"/>
  <path d="M13 5 C12 8,9 10,9 15 C9 19,12 22,13 26 C14 22,17 19,17 14 C17 10,15 8,13 5 Z" fill="#ff4500" stroke="none"/>
  <path d="M10 10 C8.5 12,7.5 14,7.5 16.5 C7.5 19.5,10 22,12 24 C11 20,14 18,14 14.5 C14 12.5,12.5 11.3,10 10 Z" fill="#ff904f" opacity="0.9" stroke="none"/>
</g>
<text x="761" y="313" font-family="Arial" font-size="12" fill="#444">slot_mllm_projector_flame</text>
<g id="svg_icrl_projector_snowflake" data-source-slot="slot_icrl_projector_snowflake" transform="translate(1426,309) scale(1.0000,1.0000)" stroke="#55aee8" stroke-width="2" fill="none" stroke-linecap="round">
  <line x1="13" y1="2" x2="13" y2="25"/>
  <line x1="2" y1="13" x2="24" y2="13"/>
  <line x1="5" y1="5" x2="21" y2="21"/>
  <line x1="21" y1="5" x2="5" y2="21"/>
  <polyline points="13,2 11,5 13,4 15,5"/>
  <polyline points="13,25 11,22 13,23 15,22"/>
  <polyline points="2,13 5,11 4,13 5,15"/>
  <polyline points="24,13 21,11 22,13 21,15"/>
  <polyline points="5,5 8,6 6,8"/>
  <polyline points="21,21 18,20 20,18"/>
  <polyline points="21,5 18,6 20,8"/>
  <polyline points="5,21 8,20 6,18"/>
</g>
<text x="1426" y="305" font-family="Arial" font-size="12" fill="#444">slot_icrl_projector_snowflake</text>
<g id="svg_modality_icon_image" data-source-slot="slot_modality_icon_image" transform="translate(733,626) scale(1.0000,1.0000)" fill="#000" stroke="#000" stroke-width="1.5">
  <rect x="2" y="4" width="38" height="31" rx="3" ry="3" fill="none"/>
  <circle cx="29" cy="13" r="3.2" fill="#000" stroke="none"/>
  <path d="M5 31 L16 19 L22 24 L28 17 L38 31 Z" fill="#000" stroke="none"/>
  <path d="M2 7 L12 1 L20 1 L8 7 Z" fill="#000" stroke="none"/>
</g>
<text x="733" y="622" font-family="Arial" font-size="12" fill="#444">slot_modality_icon_image</text>
<g id="svg_modality_icon_video" data-source-slot="slot_modality_icon_video" transform="translate(804,621) scale(1.0000,1.0000)" fill="#000" stroke="#000" stroke-width="1.5" stroke-linejoin="round">
  <rect x="9" y="13" width="27" height="24" rx="2" ry="2" fill="none"/>
  <polygon points="19,20 29,25 19,30" fill="#000" stroke="none"/>
  <path d="M7 12 L4 6 L33 1 L40 8 L7 12 Z" fill="none"/>
  <line x1="9" y1="10" x2="14" y2="4"/>
  <line x1="18" y1="9" x2="23" y2="3"/>
  <line x1="27" y1="8" x2="32" y2="2"/>
</g>
<text x="804" y="617" font-family="Arial" font-size="12" fill="#444">slot_modality_icon_video</text>
<g id="svg_modality_icon_graph" data-source-slot="slot_modality_icon_graph" transform="translate(878,619) scale(1.0000,1.0000)" stroke="#000" stroke-width="2" fill="none">
  <line x1="10" y1="34" x2="17" y2="23"/><line x1="17" y1="23" x2="16" y2="10"/><line x1="17" y1="23" x2="29" y2="18"/><line x1="29" y1="18" x2="30" y2="33"/><line x1="29" y1="18" x2="41" y2="12"/><line x1="29" y1="18" x2="41" y2="28"/><line x1="8" y1="18" x2="17" y2="23"/><line x1="30" y1="33" x2="41" y2="28"/><circle cx="10" cy="34" r="3.1" fill="#fff"/><circle cx="17" cy="23" r="3.1" fill="#fff"/><circle cx="16" cy="10" r="3.1" fill="#fff"/><circle cx="29" cy="18" r="3.1" fill="#fff"/><circle cx="30" cy="33" r="3.1" fill="#fff"/><circle cx="41" cy="12" r="3.1" fill="#fff"/><circle cx="41" cy="28" r="3.1" fill="#fff"/><circle cx="8" cy="18" r="3.1" fill="#fff"/>
</g>
<text x="878" y="615" font-family="Arial" font-size="12" fill="#444">slot_modality_icon_graph</text>
<g id="svg_legend_train_optional" data-source-slot="slot_legend_train_optional" transform="translate(14,786) scale(1.0000)">
  <path d="M12 1 C10 6,5 8,5 15 C5 21,9 25,12 31 C14 26,19 22,19 15 C19 9,15 7,12 1 Z" fill="#f7be3d" stroke="none"/>
  <path d="M13 5 C12 8,9 10,9 15 C9 19,12 22,13 26 C14 22,17 19,17 14 C17 10,15 8,13 5 Z" fill="#f29b1a" stroke="none"/>
  <path d="M10 10 C8.5 12,7.5 14,7.5 16.5 C7.5 19.5,10 22,12 24 C11 20,14 18,14 14.5 C14 12.5,12.5 11.3,10 10 Z" fill="#f5d66f" opacity="0.9" stroke="none"/>
</g>
<text x="14" y="782" font-family="Arial" font-size="12" fill="#444">slot_legend_train_optional</text>
<g id="svg_legend_train_required" data-source-slot="slot_legend_train_required" transform="translate(224,783) scale(1.0294)">
  <path d="M12 1 C10 6,5 8,5 15 C5 21,9 25,12 31 C14 26,19 22,19 15 C19 9,15 7,12 1 Z" fill="#ff6f1c" stroke="none"/>
  <path d="M13 5 C12 8,9 10,9 15 C9 19,12 22,13 26 C14 22,17 19,17 14 C17 10,15 8,13 5 Z" fill="#ff4500" stroke="none"/>
  <path d="M10 10 C8.5 12,7.5 14,7.5 16.5 C7.5 19.5,10 22,12 24 C11 20,14 18,14 14.5 C14 12.5,12.5 11.3,10 10 Z" fill="#ff904f" opacity="0.9" stroke="none"/>
</g>
<text x="224" y="779" font-family="Arial" font-size="12" fill="#444">slot_legend_train_required</text>
<text x="436" y="783" font-family="Arial" font-size="12" fill="#444">slot_legend_train_free</text>
</svg>