<svg xmlns="http://www.w3.org/2000/svg" viewBox="2.0 2.0 1706.0 1046.0" style="font-family: Arial, sans-serif; background-color: white;">
  <defs>
    <!-- Arrowhead Marker -->
    <marker id="arrow-green" markerWidth="6" markerHeight="6" refX="5" refY="3" orient="auto" fill="#1B5E20">
      <path d="M0,0 L6,3 L0,6 L1,3 Z" />
    </marker>
    <marker id="arrow-purple" markerWidth="6" markerHeight="6" refX="5" refY="3" orient="auto" fill="#5E35B1">
      <path d="M0,0 L6,3 L0,6 L1,3 Z" />
    </marker>
    <marker id="arrow-black" markerWidth="6" markerHeight="6" refX="5" refY="3" orient="auto" fill="black">
      <path d="M0,0 L6,3 L0,6 L1,3 Z" />
    </marker>

    <!-- Gradients -->
    <linearGradient id="photo-grad" x1="0%" y1="0%" x2="0%" y2="100%">
      <stop offset="0%" style="stop-color:#eee;stop-opacity:1" />
      <stop offset="100%" style="stop-color:#ccc;stop-opacity:1" />
    </linearGradient>
    <linearGradient id="pot-grad" x1="0%" y1="0%" x2="100%" y2="0%">
      <stop offset="0%" style="stop-color:#ddd;stop-opacity:1" />
      <stop offset="50%" style="stop-color:#fff;stop-opacity:1" />
      <stop offset="100%" style="stop-color:#ddd;stop-opacity:1" />
    </linearGradient>

    <!-- Icons -->
    <g id="icon-knot">
      <path d="M22,15 A10,10 0 0,1 32,25 A10,10 0 0,1 22,35 A10,10 0 0,1 12,25 A10,10 0 0,1 22,15" fill="none" stroke="black" stroke-width="4" stroke-linecap="round"/>
      <path d="M22,15 L22,5 M32,25 L42,25 M22,35 L22,45 M12,25 L2,25" fill="none" stroke="black" stroke-width="4" stroke-linecap="round"/>
      <path d="M22,15 C30,15 35,20 35,22 C35,24 30,29 22,29 C14,29 9,24 9,22 C9,20 14,15 22,15" fill="none" stroke="black" stroke-width="3" stroke-linecap="round"/>
      <path d="M22,15 C14,15 9,20 9,22 C9,24 14,29 22,29 C30,29 35,24 35,22 C35,20 30,15 22,15" fill="none" stroke="black" stroke-width="3" stroke-linecap="round" transform="rotate(180 22 22)"/>
    </g>

    <!-- Reusable Photo Content (Abstracted Kitchen Scene) -->
    <g id="photo-scene">
      <rect width="140" height="100" fill="url(#photo-grad)"/>
      <!-- Background kitchen -->
      <rect x="0" y="0" width="140" height="60" fill="#d0d0d0"/>
      <rect x="10" y="10" width="20" height="30" fill="#bbb"/> <!-- Cabinets -->
      <rect x="80" y="5" width="50" height="20" fill="#eee"/> <!-- Window -->
      <!-- Table -->
      <rect x="0" y="60" width="140" height="40" fill="#a88"/>
      <!-- Pot -->
      <ellipse cx="40" cy="80" rx="30" ry="15" fill="#eee"/>
      <path d="M25,80 L25,65 Q40,55 55,65 L55,80" fill="white"/> <!-- Lid -->
      <path d="M35,65 L40,60 L45,65" fill="black"/> <!-- Handle -->
      <!-- Bowl -->
      <ellipse cx="100" cy="85" rx="25" ry="12" fill="#ddd"/>
      <ellipse cx="100" cy="80" rx="20" ry="8" fill="#fff"/>
    </g>

    <!-- Reusable Robot Scene -->
    <g id="robot-scene">
      <use href="#photo-scene"/>
      <!-- Robot Arm -->
      <path d="M100,20 L110,40 L90,50 L70,40" fill="none" stroke="#333" stroke-width="6" stroke-linecap="round"/>
      <circle cx="100" cy="20" r="5" fill="#333"/>
      <rect x="60" y="40" width="20" height="20" fill="#222"/> <!-- Base -->
    </g>
  </defs>

  <!-- ==================== TOP SECTION: LEARNING ==================== -->
  <rect x="10" y="10" width="1580" height="420" rx="40" fill="#E8F5E9" />
  <text x="50" y="320" transform="rotate(-90 50 320)" font-size="40" font-weight="bold" fill="black">Learning</text>

  <!-- DROID Dataset Cylinder -->
  <g transform="translate(60, 150)">
    <path d="M0,20 L0,180 A70,20 0 0,0 140,180 L140,20" fill="white" stroke="#666" stroke-width="4"/>
    <ellipse cx="70" cy="20" rx="70" ry="20" fill="white" stroke="#666" stroke-width="4"/>
    <text x="70" y="110" text-anchor="middle" font-size="32" font-weight="bold" fill="#333">DROID</text>
    <text x="70" y="145" text-anchor="middle" font-size="32" font-weight="bold" fill="#333">Dataset</text>
  </g>

  <!-- Green Arrows from Dataset -->
  <path d="M170,240 L200,240 M200,130 L200,360 M200,130 L230,130 M200,240 L230,240 M200,360 L230,360" 
        fill="none" stroke="#1B5E20" stroke-width="4" marker-end="url(#arrow-green)"/>

  <!-- Panel (a): Keyframe Extraction -->
  <rect x="220" y="30" width="450" height="390" rx="30" fill="white"/>
  <text x="445" y="60" text-anchor="middle" font-size="34" font-weight="bold">(a) Keyframe Extraction</text>
  
  <!-- Image Grid (a) -->
  <g transform="translate(235, 80)">
    <!-- Row 1 -->
    <g transform="translate(0,0)"> <use href="#photo-scene"/> <text x="5" y="30" font-size="28" fill="white" stroke="black" stroke-width="0.5" font-weight="bold">Frame 1</text> </g>
    <g transform="translate(145,0)"> <use href="#photo-scene"/> <text x="5" y="30" font-size="28" fill="white" stroke="black" stroke-width="0.5" font-weight="bold">Frame 2</text> </g>
    <text x="285" y="60" font-size="24" font-weight="bold">...</text>
    <g transform="translate(295,0)"> <use href="#photo-scene"/> <text x="5" y="30" font-size="28" fill="white" stroke="black" stroke-width="0.5" font-weight="bold">Frame 7</text> </g>
    
    <!-- Row 2 (Robot) -->
    <g transform="translate(0,130)">
        <use href="#robot-scene"/> <text x="5" y="30" font-size="28" fill="white" stroke="black" stroke-width="0.5" font-weight="bold">Frame 1</text>
    </g>
    <g transform="translate(145,130)">
        <use href="#robot-scene"/> <text x="5" y="30" font-size="28" fill="white" stroke="black" stroke-width="0.5" font-weight="bold">Frame 2</text>
    </g>
    <text x="285" y="190" font-size="24" font-weight="bold">...</text>
    <g transform="translate(295,130)">
        <use href="#robot-scene"/> <text x="5" y="30" font-size="28" fill="white" stroke="black" stroke-width="0.5" font-weight="bold">Frame 9</text>
    </g>

    <!-- Vertical Ellipsis -->
    <text x="215" y="240" font-size="30" font-weight="bold" transform="rotate(90 215 240)">...</text>

    <!-- Row 3 (Messy) -->
    <g transform="translate(0,250)">
        <!-- Messy Scene -->
        <rect width="140" height="100" fill="url(#photo-grad)"/>
        <rect x="0" y="60" width="140" height="40" fill="#642"/>
        <circle cx="40" cy="70" r="10" fill="#333"/> <!-- Robot mess -->
        <rect x="30" y="50" width="20" height="20" fill="#444"/>
        <rect x="80" y="60" width="30" height="20" fill="#864" transform="rotate(-10)"/>
        <text x="5" y="30" font-size="28" fill="white" stroke="black" stroke-width="0.5" font-weight="bold">Frame 1</text>
    </g>
    <g transform="translate(145,250)">
        <rect width="140" height="100" fill="url(#photo-grad)"/>
        <rect x="0" y="60" width="140" height="40" fill="#642"/>
        <circle cx="40" cy="70" r="10" fill="#333"/>
        <rect x="30" y="50" width="20" height="20" fill="#444"/>
        <text x="5" y="30" font-size="28" fill="white" stroke="black" stroke-width="0.5" font-weight="bold">Frame 2</text>
    </g>
    <text x="285" y="310" font-size="24" font-weight="bold">...</text>
    <g transform="translate(295,250)">
        <rect width="140" height="100" fill="url(#photo-grad)"/>
        <rect x="0" y="60" width="140" height="40" fill="#642"/>
        <circle cx="40" cy="70" r="10" fill="#333"/>
        <rect x="30" y="50" width="20" height="20" fill="#444"/>
        <text x="5" y="30" font-size="28" fill="white" stroke="black" stroke-width="0.5" font-weight="bold">Frame 8</text>
    </g>
  </g>

  <!-- Green Arrows from (a) to (b) -->
  <path d="M640,135 L720,135 M640,245 L680,245 M640,365 L680,365 M680,135 L680,365 M680,245 L720,245" 
        fill="none" stroke="#1B5E20" stroke-width="4" marker-end="url(#arrow-green)"/>

  <!-- Panel (b): Atomic Domain Generation -->
  <rect x="680" y="30" width="550" height="400" rx="50" fill="white"/>
  <text x="955" y="65" text-anchor="middle" font-size="34" font-weight="bold">(b) Atomic Domain Generation</text>

  <!-- Box 1: Domain Construction -->
  <g transform="translate(730, 100)">
    <rect width="480" height="90" rx="15" fill="#C8F0D8"/>
    <g transform="translate(10, 15) scale(1.5)"><use href="#icon-knot"/></g>
    <text x="70" y="35" font-size="32" fill="black">Domain Construction</text>
    <text x="70" y="65" font-size="32" fill="black">&amp; Revision</text>
    <!-- Paper -->
    <g transform="translate(330, 0)">
      <path d="M0,0 L180,0 L200,20 L200,80 L0,80 Z" fill="white" stroke="black" stroke-width="1.5"/>
      <path d="M180,0 L180,20 L200,20" fill="none" stroke="black" stroke-width="1.5"/>
      <text x="10" y="25" font-size="18" font-family="Arial"><tspan fill="#1976D2" font-style="italic" font-weight="bold">:predicates</tspan> (...)</text>
      <text x="10" y="45" font-size="18" font-family="Arial"><tspan fill="#00C853" font-style="italic" font-weight="bold">:actions</tspan> ...</text>
      <text x="10" y="65" font-size="18" font-family="Arial"><tspan fill="#E64A19" font-style="italic" font-weight="bold">:precondition</tspan> (...)</text>
      <text x="10" y="85" font-size="18" font-family="Arial"><tspan fill="#D32F2F" font-style="italic" font-weight="bold">:effect</tspan> (...)</text>
    </g>
  </g>

  <!-- Arrow Down -->
  <line x1="955" y1="170" x2="955" y2="195" stroke="black" stroke-width="3" marker-end="url(#arrow-black)"/>

  <!-- Box 2: Solvability & Refinement -->
  <g transform="translate(710, 195)">
    <rect width="500" height="150" rx="30" fill="#E0F2E0"/>
    <!-- Left: Solvability -->
    <g transform="translate(20, 20)">
        <g transform="scale(1.2)"><use href="#icon-knot"/></g>
        <rect x="20" y="55" width="20" height="20" rx="5" fill="none" stroke="black" stroke-width="3"/>
        <line x1="30" y1="75" x2="30" y2="85" stroke="black" stroke-width="3"/>
        <rect x="10" y="85" width="15" height="15" rx="3" fill="none" stroke="black" stroke-width="3"/>
        <rect x="35" y="85" width="15" height="15" rx="3" fill="none" stroke="black" stroke-width="3"/>
        <text x="70" y="40" font-size="34" fill="black">Solvability</text>
        <text x="70" y="80" font-size="34" fill="black">Check</text>
    </g>
    <!-- Right: Refinement -->
    <g transform="translate(340, 0)">
        <rect width="250" height="200" rx="30" fill="#C8F0D8"/>
        <g transform="translate(85, 20) scale(1.5)"><use href="#icon-knot"/></g>
        <text x="10" y="100" font-size="34" fill="black">Closed-Loop</text>
        <text x="10" y="140" font-size="34" fill="black">Refinement</text>
        <!-- Paper -->
        <g transform="translate(10, 150)">
            <path d="M0,0 L200,0 L220,20 L220,90 L0,90 Z" fill="white" stroke="black" stroke-width="1.5"/>
            <path d="M200,0 L200,20 L220,20" fill="none" stroke="black" stroke-width="1.5"/>
            <text x="10" y="25" font-size="18" font-family="Arial"><tspan fill="#1976D2" font-style="italic" font-weight="bold">:predicates</tspan> (...)</text>
            <text x="10" y="45" font-size="18" font-family="Arial"><tspan fill="#00C853" font-style="italic" font-weight="bold">:actions</tspan> ...</text>
            <text x="10" y="65" font-size="18" font-family="Arial"><tspan fill="#E64A19" font-style="italic" font-weight="bold">:precondition</tspan> (...)</text>
            <text x="10" y="85" font-size="18" font-family="Arial"><tspan fill="#D32F2F" font-style="italic" font-weight="bold">:effect</tspan> (...)</text>
        </g>
    </g>
    <!-- Arrows between -->
    <line x1="330" y1="50" x2="250" y2="50" stroke="black" stroke-width="3" marker-end="url(#arrow-black)"/>
    <line x1="250" y1="70" x2="330" y2="70" stroke="black" stroke-width="3" marker-end="url(#arrow-black)"/>
    <text x="250" y="100" font-size="24" font-weight="bold" fill="#333">Feedback</text>
  </g>

  <!-- Arrow Down -->
  <line x1="830" y1="290" x2="830" y2="310" stroke="black" stroke-width="3" marker-end="url(#arrow-black)"/>

  <!-- Box 3: Solution Verification -->
  <g transform="translate(720, 310)">
    <rect width="280" height="100" rx="20" fill="#C8F0D8"/>
    <g transform="translate(10, 20) scale(1.2)"><use href="#icon-knot"/></g>
    <text x="60" y="40" font-size="34" fill="black">Solution</text>
    <text x="60" y="80" font-size="34" fill="black">Verification</text>
  </g>

  <!-- Arrow Right -->
  <line x1="930" y1="350" x2="1020" y2="350" stroke="black" stroke-width="3" marker-end="url(#arrow-black)"/>
  <text x="930" y="350" dy="-5" font-size="24" font-weight="bold" fill="#333">Feedback</text>

  <!-- Green Arrow Path to (c) -->
  <path d="M1150,360 L1220,360 L1220,150 L1250,150" fill="none" stroke="#1B5E20" stroke-width="4" marker-end="url(#arrow-green)"/>

  <!-- Panel (c): Domain Fusion -->
  <rect x="1230" y="30" width="350" height="400" rx="50" fill="white"/>
  <text x="1405" y="65" text-anchor="middle" font-size="34" font-weight="bold">(c) Domain Fusion</text>

  <!-- Box 1: Unified Domain -->
  <g transform="translate(1240, 90)">
    <rect width="330" height="110" fill="#F0FFFF" stroke="black" stroke-width="3"/>
    <text x="200" y="30" font-size="32" fill="black">Unified Domain</text>
    <g transform="translate(10, 40)">
        <path d="M0,0 L100,0 L120,20 L120,70 L0,70 Z" fill="white" stroke="black" stroke-width="3"/>
        <path d="M100,0 L100,20 L120,20" fill="none" stroke="black" stroke-width="3"/>
        <text x="10" y="35" font-size="28">Atomic</text>
        <text x="10" y="65" font-size="28">Domain</text>
    </g>
    <g transform="translate(140, 40)">
        <path d="M0,0 L100,0 L120,20 L120,70 L0,70 Z" fill="white" stroke="black" stroke-width="3"/>
        <path d="M100,0 L100,20 L120,20" fill="none" stroke="black" stroke-width="3"/>
        <text x="10" y="35" font-size="28">Atomic</text>
        <text x="10" y="65" font-size="28">Domain</text>
    </g>
    <text x="270" y="80" font-size="30" font-weight="bold">...</text>
    <g transform="translate(290, 40)">
        <path d="M0,0 L100,0 L120,20 L120,70 L0,70 Z" fill="white" stroke="black" stroke-width="3"/>
        <path d="M100,0 L100,20 L120,20" fill="none" stroke="black" stroke-width="3"/>
        <text x="10" y="35" font-size="28">Atomic</text>
        <text x="10" y="65" font-size="28">Domain</text>
    </g>
  </g>

  <!-- Arrows Down -->
  <g transform="translate(1240, 180)">
    <line x1="60" y1="0" x2="90" y2="60" stroke="black" stroke-width="2" marker-end="url(#arrow-black)"/>
    <line x1="160" y1="0" x2="130" y2="60" stroke="black" stroke-width="2" marker-end="url(#arrow-black)"/>
    <line x1="350" y1="0" x2="320" y2="60" stroke="black" stroke-width="2" marker-end="url(#arrow-black)"/>
    <line x1="250" y1="0" x2="280" y2="60" stroke="black" stroke-width="2" marker-end="url(#arrow-black)"/>
  </g>

  <!-- Box 2: Meta Domains -->
  <g transform="translate(1260, 230)">
    <rect width="200" height="100" fill="#F0FFFF" stroke="black" stroke-width="3"/>
    <g transform="translate(80, -30) scale(1.1)"><use href="#icon-knot"/></g>
    <text x="100" y="45" text-anchor="middle" font-size="32">Meta</text>
    <text x="100" y="80" text-anchor="middle" font-size="32">Domain</text>
  </g>
  <text x="1420" y="270" font-size="30" font-weight="bold">...</text>
  <g transform="translate(1450, 230)">
    <rect width="220" height="100" fill="#F0FFFF" stroke="black" stroke-width="3"/>
    <g transform="translate(90, -30) scale(1.1)"><use href="#icon-knot"/></g>
    <text x="110" y="45" text-anchor="middle" font-size="32">Meta</text>
    <text x="110" y="80" text-anchor="middle" font-size="32">Domain</text>
  </g>

  <!-- Arrows to Final -->
  <g transform="translate(1260, 300)">
    <line x1="100" y1="0" x2="200" y2="40" stroke="black" stroke-width="2" marker-end="url(#arrow-black)"/>
    <line x1="250" y1="0" x2="150" y2="40" stroke="black" stroke-width="2" marker-end="url(#arrow-black)"/>
  </g>

  <!-- Final Box -->
  <g transform="translate(1340, 330)">
    <g transform="translate(80, -40) scale(1.1)"><use href="#icon-knot"/></g>
    <rect width="220" height="100" fill="#F0FFFF" stroke="black" stroke-width="3"/>
    <text x="110" y="45" text-anchor="middle" font-size="36">Meta</text>
    <text x="110" y="85" text-anchor="middle" font-size="36">Domain</text>
  </g>

  <!-- ==================== BOTTOM SECTION: PLANNING ==================== -->
  <rect x="10" y="440" width="1580" height="600" rx="40" fill="#F3EBF9" />
  <text x="50" y="650" transform="rotate(-90 50 650)" font-size="40" font-weight="bold" fill="black">Planning</text>

  <!-- Step 1: Input -->
  <g transform="translate(60, 450)">
    <rect width="350" height="150" rx="30" fill="white"/>
    <text x="175" y="40" text-anchor="middle" font-family="Times New Roman, serif" font-style="italic" font-size="32">Move the corn from the pot</text>
    <text x="175" y="75" text-anchor="middle" font-family="Times New Roman, serif" font-style="italic" font-size="32">into the orange bowl, wipe the</text>
    <text x="175" y="110" text-anchor="middle" font-family="Times New Roman, serif" font-style="italic" font-size="32">table with the towel in the</text>
    <text x="175" y="145" text-anchor="middle" font-family="Times New Roman, serif" font-style="italic" font-size="32">drawer and put it back to the</text>
    <text x="175" y="180" text-anchor="middle" font-family="Times New Roman, serif" font-style="italic" font-size="32">closed drawer.</text>
    
    <!-- Photo Placeholder -->
    <g transform="translate(30, 160)">
        <rect width="320" height="300" fill="url(#photo-grad)"/>
        <!-- Counter -->
        <rect x="0" y="150" width="320" height="150" fill="#eee"/>
        <!-- Cabinet -->
        <rect x="0" y="250" width="320" height="50" fill="#dcb"/>
        <line x1="0" y1="250" x2="320" y2="250" stroke="#864" stroke-width="1"/>
        <!-- Items -->
        <rect x="20" y="160" width="100" height="80" rx="10" fill="white" stroke="#ccc"/> <!-- Rice cooker -->
        <ellipse cx="70" cy="160" rx="40" ry="20" fill="#ddd"/> <!-- Pot -->
        <path d="M50,160 L50,140 Q70,130 90,140 L90,160" fill="white"/> <!-- Lid -->
        <!-- Dish rack -->
        <path d="M100,100 L200,100 L220,200 L80,200 Z" fill="none" stroke="#333" stroke-width="3"/>
        <path d="M100,100 L100,150 M120,100 L120,150 M140,100 L140,150 M160,100 L160,150" stroke="#333" stroke-width="2"/>
        <!-- Towel -->
        <rect x="180" y="180" width="20" height="40" fill="#444"/>
        <!-- Drawers -->
        <rect x="200" y="130" width="60" height="50" fill="#F9A825" rx="5"/>
        <rect x="200" y="180" width="60" height="40" fill="#00838F" rx="5"/>
        <rect x="200" y="220" width="60" height="30" fill="#81C784" rx="5"/>
        <!-- Books -->
        <rect x="280" y="140" width="30" height="80" fill="#fff" stroke="#333"/>
        <text x="295" y="180" transform="rotate(-90 295 180)" font-size="10" font-weight="bold">KITCHEN</text>
        <rect x="315" y="140" width="30" height="80" fill="#fff" stroke="#333"/>
        <text x="330" y="180" transform="rotate(-90 330 180)" font-size="10" font-weight="bold">KITCHEN</text>
        <!-- Corn -->
        <ellipse cx="250" cy="160" rx="10" ry="10" fill="#FB8C00"/>
    </g>
  </g>

  <!-- Purple Arrows Input -> (d) -->
  <path d="M410,525 L430,525 L430,650 L470,650 M430,525 L430,650 L430,650 L470,650" fill="none" stroke="#5E35B1" stroke-width="4" marker-end="url(#arrow-purple)"/>

  <!-- Step 2: (d) Problem Generation -->
  <g transform="translate(450, 450)">
    <rect width="380" height="450" rx="40" fill="white"/>
    <text x="190" y="40" text-anchor="middle" font-size="36" font-weight="bold">(d) Problem Generation</text>
    
    <!-- Box 1 -->
    <g transform="translate(20, 70)">
        <path d="M0,0 L160,0 L180,20 L180,100 L0,100 Z" fill="#F0FFFF" stroke="black" stroke-width="3"/>
        <path d="M160,0 L160,20 L180,20" fill="none" stroke="black" stroke-width="3"/>
        <text x="90" y="45" text-anchor="middle" font-size="36">Meta</text>
        <text x="90" y="85" text-anchor="middle" font-size="36">Domain</text>
    </g>
    <line x1="200" y1="120" x2="240" y2="120" stroke="black" stroke-width="3" marker-end="url(#arrow-black)"/>

    <!-- Box 2 -->
    <g transform="translate(200, 70)">
        <rect width="220" height="100" rx="20" fill="#E0D9FF"/>
        <text x="110" y="45" text-anchor="middle" font-size="34">Predicate</text>
        <text x="110" y="85" text-anchor="middle" font-size="34">Grouping</text>
    </g>
    <line x1="310" y1="170" x2="310" y2="200" stroke="black" stroke-width="3" marker-end="url(#arrow-black)"/>

    <!-- Box 3 -->
    <g transform="translate(20, 200)">
        <rect width="360" height="110" rx="20" fill="#E0D9FF"/>
        <g transform="translate(20, 25) scale(1.2)"><use href="#icon-knot"/></g>
        <text x="80" y="45" font-size="34">Predicate</text>
        <text x="80" y="85" font-size="34">&amp; Operator Filtering</text>
    </g>
    <line x1="200" y1="310" x2="200" y2="340" stroke="black" stroke-width="3" marker-end="url(#arrow-black)"/>

    <!-- Box 4 -->
    <g transform="translate(20, 340)">
        <rect width="360" height="110" rx="20" fill="#E0D9FF"/>
        <g transform="translate(20, 25) scale(1.2)"><use href="#icon-knot"/></g>
        <text x="80" y="45" font-size="34">Problem</text>
        <text x="80" y="85" font-size="34">Generation</text>
        <!-- Paper -->
        <g transform="translate(200, 20)">
            <path d="M0,0 L120,0 L140,20 L140,80 L0,80 Z" fill="white" stroke="black" stroke-width="1.5"/>
            <path d="M120,0 L120,20 L140,20" fill="none" stroke="black" stroke-width="1.5"/>
            <text x="10" y="25" font-size="18" font-family="Arial"><tspan fill="#1976D2" font-style="italic" font-weight="bold">:objects</tspan> (...)</text>
            <text x="10" y="45" font-size="18" font-family="Arial"><tspan fill="#00C853" font-style="italic" font-weight="bold">:init</tspan> ...</text>
            <text x="10" y="65" font-size="18" font-family="Arial"><tspan fill="#D32F2F" font-style="italic" font-weight="bold">:goal</tspan> (...)</text>
        </g>
    </g>
  </g>

  <!-- Purple Arrows (d) -> (e) -->
  <path d="M810,750 L820,750 L820,550 L860,550 M820,750 L820,550 L820,550 L860,550" fill="none" stroke="#5E35B1" stroke-width="4" marker-end="url(#arrow-purple)"/>

  <!-- Step 3: (e) Planning -->
  <g transform="translate(840, 450)">
    <rect width="320" height="450" rx="40" fill="white"/>
    <text x="160" y="40" text-anchor="middle" font-size="36" font-weight="bold">(e) Planning</text>
    
    <!-- Box 1 -->
    <g transform="translate(20, 70)">
        <rect width="300" height="100" rx="20" fill="#E0D9FF"/>
        <!-- Tree Icon -->
        <g transform="translate(40, 20)">
            <rect x="20" y="0" width="30" height="30" rx="5" fill="none" stroke="black" stroke-width="6"/>
            <rect x="0" y="50" width="30" height="30" rx="5" fill="none" stroke="black" stroke-width="6"/>
            <rect x="50" y="50" width="30" height="30" rx="5" fill="none" stroke="black" stroke-width="6"/>
            <path d="M35,30 L35,40 L15,50 M35,40 L65,50" fill="none" stroke="black" stroke-width="6"/>
        </g>
        <text x="140" y="45" font-size="34">PDDL</text>
        <text x="140" y="85" font-size="34">Solver</text>
    </g>
    <line x1="170" y1="170" x2="170" y2="200" stroke="black" stroke-width="3" marker-end="url(#arrow-black)"/>

    <!-- Box 2 -->
    <g transform="translate(10, 200)">
        <path d="M0,0 L320,0 L340,20 L340,200 L0,200 Z" fill="#FFFEF0" stroke="black" stroke-width="1.5"/>
        <path d="M320,0 L320,20 L340,20" fill="none" stroke="black" stroke-width="1.5"/>
        <text x="15" y="35" font-family="Times New Roman, serif" font-style="italic" font-size="28" fill="#1976D2">remove_lid (lid)</text>
        <text x="15" y="70" font-family="Times New Roman, serif" font-style="italic" font-size="28" fill="#00C853">pick_from_rack (bowl)</text>
        <text x="15" y="105" font-family="Times New Roman, serif" font-style="italic" font-size="28" fill="#00C853">place_on_table (bowl)</text>
        <text x="15" y="140" font-family="Times New Roman, serif" font-style="italic" font-size="28" fill="black">...</text>
        <text x="15" y="175" font-family="Times New Roman, serif" font-style="italic" font-size="28" fill="#1976D2">wipe_table (towel)</text>
        <text x="15" y="210" font-family="Times New Roman, serif" font-style="italic" font-size="28" fill="#1976D2">place_in_drawer (towel)</text>
        <text x="15" y="245" font-family="Times New Roman, serif" font-style="italic" font-size="28" fill="#1976D2">close_drawer (drawer)</text>
    </g>
  </g>

  <!-- Purple Arrows (e) -> (f) -->
  <path d="M1100,700 L1110,700 L1110,540 L1150,540 M1110,700 L1110,540 L1110,540 L1150,540" fill="none" stroke="#5E35B1" stroke-width="4" marker-end="url(#arrow-purple)"/>

  <!-- Step 4: (f) Execution -->
  <g transform="translate(1130, 450)">
    <rect width="460" height="450" rx="40" fill="white"/>
    <text x="230" y="40" text-anchor="middle" font-size="36" font-weight="bold">(f) Execution</text>
    
    <!-- 2x4 Grid of Robot Photos -->
    <g transform="translate(10, 60)">
        <!-- Row 1 -->
        <g transform="translate(0,0)"> <use href="#robot-scene"/> <rect width="130" height="90" fill="none" stroke="white" stroke-width="2"/> </g>
        <g transform="translate(140,0)"> <use href="#robot-scene"/> <rect width="130" height="90" fill="none" stroke="white" stroke-width="2"/> </g>
        <g transform="translate(280,0)"> <use href="#robot-scene"/> <rect width="130" height="90" fill="none" stroke="white" stroke-width="2"/> </g>
        <g transform="translate(420,0)"> <use href="#robot-scene"/> <rect width="130" height="90" fill="none" stroke="white" stroke-width="2"/> </g>
        
        <!-- Row 2 (Messy) -->
        <g transform="translate(0,100)"> 
            <rect width="130" height="90" fill="url(#photo-grad)"/>
            <rect x="0" y="60" width="130" height="30" fill="#642"/>
            <circle cx="40" cy="70" r="10" fill="#333"/>
            <rect x="30" y="50" width="20" height="20" fill="#444"/>
            <rect width="130" height="90" fill="none" stroke="white" stroke-width="2"/>
        </g>
        <g transform="translate(140,100)"> <rect width="130" height="90" fill="url(#photo-grad)"/> <rect width="130" height="90" fill="none" stroke="white" stroke-width="2"/> </g>
        <g transform="translate(280,100)"> <rect width="130" height="90" fill="url(#photo-grad)"/> <rect width="130" height="90" fill="none" stroke="white" stroke-width="2"/> </g>
        <g transform="translate(420,100)"> <rect width="130" height="90" fill="url(#photo-grad)"/> <rect width="130" height="90" fill="none" stroke="white" stroke-width="2"/> </g>

        <!-- Row 3 -->
        <g transform="translate(0,200)"> <use href="#robot-scene"/> <rect width="130" height="90" fill="none" stroke="white" stroke-width="2"/> </g>
        <g transform="translate(140,200)"> <use href="#robot-scene"/> <rect width="130" height="90" fill="none" stroke="white" stroke-width="2"/> </g>
        <g transform="translate(280,200)"> <use href="#robot-scene"/> <rect width="130" height="90" fill="none" stroke="white" stroke-width="2"/> </g>
        <g transform="translate(420,200)"> <use href="#robot-scene"/> <rect width="130" height="90" fill="none" stroke="white" stroke-width="2"/> </g>

        <!-- Row 4 -->
        <g transform="translate(0,300)"> <use href="#robot-scene"/> <rect width="130" height="90" fill="none" stroke="white" stroke-width="2"/> </g>
        <g transform="translate(140,300)"> <use href="#robot-scene"/> <rect width="130" height="90" fill="none" stroke="white" stroke-width="2"/> </g>
        <g transform="translate(280,300)"> <use href="#robot-scene"/> <rect width="130" height="90" fill="none" stroke="white" stroke-width="2"/> </g>
        <g transform="translate(420,300)"> <use href="#robot-scene"/> <rect width="130" height="90" fill="none" stroke="white" stroke-width="2"/> </g>
    </g>
  </g>

</svg>