<svg xmlns="http://www.w3.org/2000/svg" viewBox="2.0 12.0 1716.0 506.0" style="font-family: 'Times New Roman', Times, serif; background-color: white;">
  <defs>
    <!-- Colors -->
    <style>
      .text-bold { font-weight: bold; }
      .text-italic { font-style: italic; }
      .text-serif { font-family: 'Times New Roman', serif; }
      .border-dashed { stroke-dasharray: 6,4; }
      .border-dotted { stroke-dasharray: 3,3; }
      
      /* Palette */
      .c-grey { stroke: #666666; fill: #666666; }
      .c-green { stroke: #7FA858; fill: #7FA858; }
      .c-orange { stroke: #F0A66F; fill: #F0A66F; }
      .c-blue { stroke: #8DA8C8; fill: #8DA8C8; }
      .c-black { stroke: #000000; fill: #000000; }
      
      .fill-grey { fill: #EAEAEA; }
      .fill-green { fill: #E2F0D9; }
      .fill-orange { fill: #FCE4D6; }
      .fill-blue { fill: #DEEBF7; }
      .fill-white { fill: #FFFFFF; }
    </style>

    <!-- Arrow Markers -->
    <marker id="arrow-grey" markerWidth="6" markerHeight="6" refX="5" refY="3" orient="auto" fill="#666666">
      <path d="M0,0 L6,3 L0,6 L1,3 Z" />
    </marker>
    <marker id="arrow-green" markerWidth="6" markerHeight="6" refX="5" refY="3" orient="auto" fill="#7FA858">
      <path d="M0,0 L6,3 L0,6 L1,3 Z" />
    </marker>
    <marker id="arrow-orange" markerWidth="6" markerHeight="6" refX="5" refY="3" orient="auto" fill="#F0A66F">
      <path d="M0,0 L6,3 L0,6 L1,3 Z" />
    </marker>
    <marker id="arrow-blue" markerWidth="6" markerHeight="6" refX="5" refY="3" orient="auto" fill="#8DA8C8">
      <path d="M0,0 L6,3 L0,6 L1,3 Z" />
    </marker>
    <marker id="arrow-black" markerWidth="6" markerHeight="6" refX="5" refY="3" orient="auto" fill="#000000">
      <path d="M0,0 L6,3 L0,6 L1,3 Z" />
    </marker>

    <!-- Robot Icon -->
    <g id="icon-robot">
      <path d="M25,10 L35,10 L35,25 L25,25 Z" fill="black"/> <!-- Head -->
      <circle cx="28" cy="16" r="3" fill="white"/> <!-- Eye L -->
      <circle cx="32" cy="16" r="3" fill="white"/> <!-- Eye R -->
      <rect x="20" y="25" width="20" height="15" fill="black"/> <!-- Body -->
      <polyline points="25,32 28,32 30,28 34,36 38,32 40,32" stroke="white" stroke-width="2" fill="none"/> <!-- Pulse -->
      <rect x="15" y="40" width="30" height="15" rx="7" fill="black"/> <!-- Base -->
      <circle cx="22" cy="47.5" r="3" fill="white"/> <!-- Wheel L -->
      <circle cx="30" cy="47.5" r="3" fill="white"/> <!-- Wheel M -->
      <circle cx="38" cy="47.5" r="3" fill="white"/> <!-- Wheel R -->
      <path d="M15,20 L5,10 L5,5" stroke="black" stroke-width="4" fill="none"/> <!-- Arm U -->
      <path d="M15,20 L5,30" stroke="black" stroke-width="4" fill="none"/> <!-- Arm L -->
      <path d="M45,20 L55,10 L55,5" stroke="black" stroke-width="4" fill="none"/> <!-- Arm U Mirror -->
      <path d="M45,20 L55,30" stroke="black" stroke-width="4" fill="none"/> <!-- Arm L Mirror -->
      <rect x="22" y="5" width="6" height="5" fill="black"/> <!-- Antenna Base -->
      <circle cx="30" cy="5" r="3" fill="black"/> <!-- Antenna Ball -->
    </g>

    <!-- Camera Icon -->
    <g id="icon-camera">
      <rect x="5" y="10" width="50" height="35" rx="3" fill="black"/>
      <rect x="15" y="5" width="10" height="5" fill="black"/> <!-- Flash hump -->
      <circle cx="30" cy="27" r="12" fill="white"/> <!-- Lens -->
      <circle cx="30" cy="27" r="10" fill="black"/> <!-- Lens Inner -->
      <circle cx="30" cy="27" r="4" fill="white"/> <!-- Lens Reflection -->
      <rect x="45" y="15" width="5" height="10" fill="black"/> <!-- Viewfinder -->
    </g>

    <!-- Film Camera Icon -->
    <g id="icon-film">
      <rect x="5" y="10" width="50" height="35" rx="3" fill="black"/>
      <path d="M5,15 L55,15 L55,45 L5,45 Z" fill="white" stroke="black" stroke-width="2"/>
      <circle cx="18" cy="27" r="8" fill="black"/> <!-- Lens L -->
      <circle cx="18" cy="27" r="3" fill="white"/>
      <circle cx="42" cy="27" r="8" fill="black"/> <!-- Lens R -->
      <circle cx="42" cy="27" r="3" fill="white"/>
      <path d="M55,20 L65,15 L65,40 L55,35 Z" fill="black"/> <!-- Viewfinder side -->
      <rect x="10" y="18" width="6" height="6" fill="white"/> <!-- Reel -->
      <rect x="44" y="18" width="6" height="6" fill="white"/> <!-- Reel -->
    </g>

    <!-- Gamepad Icon -->
    <g id="icon-gamepad">
      <path d="M10,10 Q10,40 30,40 L50,40 Q70,40 70,10 Q50,0 30,10 Z" fill="black"/>
      <circle cx="20" cy="25" r="4" fill="white"/> <!-- Dpad area -->
      <circle cx="60" cy="25" r="2" fill="white"/> <!-- Buttons -->
      <circle cx="65" cy="25" r="2" fill="white"/>
      <circle cx="55" cy="20" r="2" fill="white"/>
      <circle cx="55" cy="30" r="2" fill="white"/>
      <circle cx="25" cy="35" r="5" fill="white"/> <!-- Trigger L -->
      <circle cx="55" cy="35" r="5" fill="white"/> <!-- Trigger R -->
    </g>

    <!-- User Icon -->
    <g id="icon-user">
      <circle cx="25" cy="15" r="12" fill="black"/>
      <path d="M5,40 Q5,25 25,25 Q45,25 45,40 L45,45 L5,45 Z" fill="black"/>
      <path d="M15,15 Q25,25 35,15" stroke="white" stroke-width="2" fill="none"/> <!-- Hairline -->
    </g>

    <!-- Watch Icon -->
    <g id="icon-watch">
      <rect x="10" y="5" width="30" height="40" rx="3" fill="black"/>
      <circle cx="25" cy="25" r="10" fill="white"/>
      <rect x="22" y="2" width="6" height="3" fill="black"/> <!-- Strap Top -->
      <rect x="22" y="45" width="6" height="3" fill="black"/> <!-- Strap Bot -->
    </g>
  </defs>

  <!-- ================= SECTION 1: MLLM-based Tag Extraction ================= -->
  <g transform="translate(10, 20)">
    <!-- Main Border -->
    <rect x="0" y="0" width="560" height="480" rx="20" fill="none" stroke="#666666" stroke-width="3" stroke-dasharray="6,4"/>
    
    <!-- Top Left: Raw Info -->
    <text x="60" y="35" font-size="32" class="text-italic text-bold">Item<tspan dy="5" font-size="24">i</tspan></text>
    <line x1="80" y1="45" x2="80" y2="65" stroke="#666666" stroke-width="3" marker-end="url(#arrow-grey)"/>
    
    <rect x="10" y="60" width="170" height="70" rx="10" fill="#EAEAEA" stroke="#666666" stroke-width="3"/>
    <text x="95" y="90" font-size="30" text-anchor="middle">Raw</text>
    <text x="95" y="115" font-size="30" text-anchor="middle">Information</text>
    
    <line x1="160" y1="85" x2="200" y2="85" stroke="#666666" stroke-width="3" marker-end="url(#arrow-grey)"/>
    
    <!-- Top Center: MLLM -->
    <g transform="translate(200, 40)">
      <use href="#icon-robot" transform="scale(1.5)"/>
      <text x="45" y="90" font-size="32" text-anchor="middle" class="text-bold">MLLM</text>
    </g>
    
    <line x1="270" y1="85" x2="310" y2="85" stroke="#666666" stroke-width="3" marker-end="url(#arrow-grey)"/>

    <!-- Top Right: Processing Blocks -->
    <g transform="translate(310, 20)">
      <!-- Container -->
      <rect x="0" y="0" width="140" height="140" rx="10" fill="none" stroke="#666666" stroke-width="3" stroke-dasharray="8,4"/>
      
      <!-- ASR -->
      <rect x="10" y="10" width="120" height="50" rx="8" fill="#DDE4F0" stroke="#8DA8C8" stroke-width="3"/>
      <text x="70" y="42" font-size="28" text-anchor="middle">ASR</text>
      
      <!-- OCR -->
      <rect x="10" y="65" width="120" height="50" rx="8" fill="#E6E6FA" stroke="#666666" stroke-width="3"/>
      <text x="70" y="97" font-size="28" text-anchor="middle">OCR</text>
      
      <!-- Text -->
      <rect x="10" y="110" width="120" height="50" rx="8" fill="#FFF2CC" stroke="#7FA858" stroke-width="3"/>
      <text x="70" y="142" font-size="28" text-anchor="middle">Text</text>
    </g>

    <!-- MLLM Emb -->
    <rect x="450" y="30" width="140" height="140" rx="20" fill="#FCEAF7" stroke="#666666" stroke-width="3" stroke-dasharray="10,5"/>
    <text x="520" y="100" font-size="28" text-anchor="middle" class="text-bold">MLLM</text>
    <text x="520" y="120" font-size="28" text-anchor="middle" class="text-bold">Emb <tspan font-style="italic">E</tspan><tspan dy="5" font-size="20">i</tspan></text>

    <!-- Arrows for Processing -->
    <!-- ASR/OCR to MLLM Emb -->
    <path d="M380,35 L490,35 L490,45" fill="none" stroke="#666666" stroke-width="3" marker-end="url(#arrow-grey)"/>
    <!-- Text to MLLM Emb (Dotted) -->
    <path d="M420,95 L440,95 L440,100" fill="none" stroke="#666666" stroke-width="3" stroke-dasharray="4,2"/>
    <path d="M440,100 L440,150" fill="none" stroke="#666666" stroke-width="3" stroke-dasharray="4,2"/> <!-- Visual trick to connect -->
    <path d="M380,95 L440,95 L440,100" fill="none" stroke="#666666" stroke-width="3" stroke-dasharray="4,2"/> <!-- OCR connect -->
    <path d="M420,135 L440,135 L440,100" fill="none" stroke="#666666" stroke-width="3" stroke-dasharray="4,2"/> <!-- Text connect -->
    
    <!-- MLLM Emb to ItemTag (Pink) -->
    <path d="M520,170 L520,190 L480,190 L480,200" fill="none" stroke="#F0A66F" stroke-width="3"/> <!-- Start -->
    <path d="M480,200 L480,190 L400,190 L400,210" fill="none" stroke="#F0A66F" stroke-width="3"/> <!-- Adjusting path -->
    <path d="M520,170 L520,190 L480,190 L480,200 L480,210" fill="none" stroke="#F0A66F" stroke-width="3"/> 
    <path d="M480,210 L480,190 L280,190 L280,260" fill="none" stroke="#F0A66F" stroke-width="3" marker-end="url(#arrow-orange)"/> <!-- To UserTag -->
    <path d="M480,210 L480,190 L140,190 L140,210" fill="none" stroke="#666666" stroke-width="3" stroke-dasharray="4,2" marker-end="url(#arrow-grey)"/> <!-- To ItemTag -->

    <!-- Middle Row: Prompts -->
    <!-- ItemTag Prompt -->
    <rect x="10" y="210" width="260" height="80" rx="10" fill="#E2F0D9" stroke="#548235" stroke-width="4"/>
    <text x="140" y="240" font-size="30" text-anchor="middle" class="text-bold">ItemTag Extraction</text>
    <text x="140" y="265" font-size="30" text-anchor="middle" class="text-bold">Prompt <tspan font-style="italic">X</tspan><tspan dy="5" font-size="22">i</tspan><tspan dy="-15" font-size="22" font-style="italic">C</tspan></text>

    <!-- UserTag Prompt -->
    <rect x="310" y="210" width="280" height="80" rx="10" fill="#FCE4D6" stroke="#BF9000" stroke-width="4"/>
    <text x="450" y="240" font-size="30" text-anchor="middle" class="text-bold">UserTag Extraction</text>
    <text x="450" y="265" font-size="30" text-anchor="middle" class="text-bold">Prompt <tspan font-style="italic">X</tspan><tspan dy="5" font-size="22">i</tspan><tspan dy="-15" font-size="22" font-style="italic">T</tspan></text>

    <!-- Center Robot -->
    <g transform="translate(240, 260)">
      <use href="#icon-robot" transform="scale(1.5)"/>
      <text x="45" y="100" font-size="32" text-anchor="middle" class="text-bold">MLLM</text>
    </g>

    <!-- Arrows to Robot -->
    <line x1="140" y1="290" x2="140" y2="310" stroke="#7FA858" stroke-width="3"/>
    <line x1="140" y1="310" x2="230" y2="310" stroke="#7FA858" stroke-width="3" marker-end="url(#arrow-green)"/>
    <line x1="420" y1="290" x2="420" y2="310" stroke="#F0A66F" stroke-width="3"/>
    <line x1="420" y1="310" x2="330" y2="310" stroke="#F0A66F" stroke-width="3" marker-end="url(#arrow-orange)"/>

    <!-- Arrows from Robot -->
    <line x1="140" y1="310" x2="140" y2="330" stroke="#7FA858" stroke-width="3"/>
    <line x1="140" y1="330" x2="140" y2="350" stroke="#7FA858" stroke-width="3" marker-end="url(#arrow-green)"/>
    <line x1="420" y1="310" x2="420" y2="330" stroke="#F0A66F" stroke-width="3"/>
    <line x1="420" y1="330" x2="420" y2="350" stroke="#F0A66F" stroke-width="3" marker-end="url(#arrow-orange)"/>

    <!-- Bottom Row: Sets -->
    <!-- ItemTag Set C* -->
    <g transform="translate(30, 330)">
      <rect x="20" y="0" width="180" height="50" rx="8" fill="#E2F0D9" stroke="#7FA858" stroke-width="2" opacity="0.8"/>
      <text x="110" y="32" font-size="24" text-anchor="middle">Live Music</text>
      
      <rect x="0" y="35" width="180" height="50" rx="8" fill="#C6E0B4" stroke="#7FA858" stroke-width="2" opacity="0.9"/>
      <text x="90" y="60" font-size="24" text-anchor="middle">Instrument</text>
      <text x="90" y="82" font-size="24" text-anchor="middle">Shows</text>
      
      <text x="100" y="115" font-size="30" text-anchor="middle" class="text-bold">ItemTag Set <tspan font-style="italic">C</tspan><tspan dy="-10" font-size="22">*</tspan></text>
    </g>

    <!-- UserTag Set T* -->
    <g transform="translate(330, 330)">
      <rect x="20" y="0" width="220" height="50" rx="8" fill="#FCE4D6" stroke="#BF9000" stroke-width="2" opacity="0.8"/>
      <text x="130" y="32" font-size="24" text-anchor="middle">Folk Music</text>
      
      <rect x="0" y="35" width="220" height="50" rx="8" fill="#F8CBAD" stroke="#BF9000" stroke-width="2" opacity="0.9"/>
      <text x="110" y="60" font-size="24" text-anchor="middle">Music</text>
      <text x="110" y="82" font-size="24" text-anchor="middle">Enthusiast</text>
      
      <text x="130" y="115" font-size="30" text-anchor="middle" class="text-bold">UserTag Set <tspan font-style="italic">T</tspan><tspan dy="-10" font-size="22">*</tspan></text>
    </g>

    <!-- Feedback Loops -->
    <!-- Green Loop -->
    <path d="M90,420 L90,460 L770,460 L770,430" fill="none" stroke="#7FA858" stroke-width="3" marker-end="url(#arrow-green)"/>
    <!-- Orange Loop -->
    <path d="M420,420 L420,460 L970,460 L970,430" fill="none" stroke="#F0A66F" stroke-width="3" marker-end="url(#arrow-orange)"/>

  </g>

  <!-- ================= SECTION 2: LLM-based Collaborative Logic Reasoning ================= -->
  <g transform="translate(600, 20)">
    <!-- Main Border -->
    <rect x="0" y="0" width="520" height="480" rx="20" fill="none" stroke="#666666" stroke-width="3" stroke-dasharray="6,4"/>

    <!-- Logic Graph Box -->
    <rect x="30" y="10" width="460" height="250" rx="20" fill="#F0F6FC" stroke="#666666" stroke-width="3" stroke-dasharray="8,4"/>
    <text x="50" y="45" font-size="32" class="text-italic text-bold">Logic Graph</text>

    <!-- Logic Graph Content -->
    <g transform="translate(100, 40)">
      <!-- Nodes -->
      <rect x="120" y="0" width="220" height="40" rx="8" fill="#FCE4D6" stroke="#BF9000" stroke-width="2"/>
      <text x="230" y="28" font-size="26" text-anchor="middle">Folk Music</text>

      <rect x="80" y="45" width="220" height="60" rx="8" fill="#F8CBAD" stroke="#BF9000" stroke-width="2"/>
      <text x="190" y="70" font-size="26" text-anchor="middle">Music</text>
      <text x="190" y="92" font-size="26" text-anchor="middle">Enthusiast</text>

      <rect x="120" y="130" width="220" height="40" rx="8" fill="#E2F0D9" stroke="#7FA858" stroke-width="2"/>
      <text x="230" y="158" font-size="26" text-anchor="middle">Live Music</text>

      <rect x="80" y="175" width="220" height="60" rx="8" fill="#C6E0B4" stroke="#7FA858" stroke-width="2"/>
      <text x="190" y="200" font-size="26" text-anchor="middle">Instrument</text>
      <text x="190" y="222" font-size="26" text-anchor="middle">Shows</text>

      <!-- Edges -->
      <!-- Orange: Left side -->
      <path d="M120,20 L60,20 L60,155 L110,155" fill="none" stroke="#F0A66F" stroke-width="3" marker-end="url(#arrow-orange)"/>
      <path d="M80,75 L50,75 L50,195 L70,195" fill="none" stroke="#F0A66F" stroke-width="3" marker-end="url(#arrow-orange)"/>
      <text x="10" y="120" font-size="30" fill="#C55A11" class="text-italic text-bold">G<tspan dy="-10" font-size="20">U2I*</tspan></text>

      <!-- Green: Right side -->
      <path d="M340,20 L300,20 L300,75 L210,75" fill="none" stroke="#7FA858" stroke-width="3" marker-end="url(#arrow-green)"/>
      <path d="M340,80 L310,80 L310,150 L250,150" fill="none" stroke="#7FA858" stroke-width="3" marker-end="url(#arrow-green)"/>
      <path d="M340,150 L320,150 L320,195 L210,195" fill="none" stroke="#7FA858" stroke-width="3" marker-end="url(#arrow-green)"/>
      <text x="360" y="120" font-size="30" fill="#548235" class="text-italic text-bold">G<tspan dy="-10" font-size="20">I2U*</tspan></text>

      <!-- Labels -->
      <text x="190" y="110" font-size="30" text-anchor="middle" class="text-bold">UserTag Set <tspan font-style="italic">C</tspan><tspan dy="-10" font-size="22">*</tspan></text>
      <text x="190" y="250" font-size="30" text-anchor="middle" class="text-bold">ItemTag Set <tspan font-style="italic">T</tspan><tspan dy="-10" font-size="22">*</tspan></text>
    </g>

    <!-- Center LLM -->
    <g transform="translate(230, 280)">
      <use href="#icon-robot" transform="scale(1.5)"/>
      <text x="45" y="100" font-size="32" text-anchor="middle" class="text-bold">LLM</text>
    </g>
    <!-- Arrow from LLM to Logic Graph -->
    <line x1="275" y1="280" x2="275" y2="250" stroke="#666666" stroke-width="3" marker-end="url(#arrow-grey)"/>

    <!-- Bottom Prompts -->
    <rect x="50" y="400" width="260" height="70" rx="10" fill="#E2F0D9" stroke="#548235" stroke-width="4"/>
    <text x="180" y="425" font-size="30" text-anchor="middle" class="text-bold">I2U Logic</text>
    <text x="180" y="450" font-size="30" text-anchor="middle" class="text-bold">Prompt <tspan font-style="italic">X</tspan><tspan dy="5" font-size="22">c</tspan></text>

    <rect x="320" y="400" width="280" height="70" rx="10" fill="#FCE4D6" stroke="#BF9000" stroke-width="4"/>
    <text x="460" y="425" font-size="30" text-anchor="middle" class="text-bold">U2I Logic</text>
    <text x="460" y="450" font-size="30" text-anchor="middle" class="text-bold">Prompt <tspan font-style="italic">X</tspan><tspan dy="5" font-size="22">t</tspan></text>

    <!-- Arrows to LLM -->
    <path d="M180,400 L180,310 L230,310" fill="none" stroke="#7FA858" stroke-width="3" marker-end="url(#arrow-green)"/>
    <path d="M460,400 L460,310 L370,310" fill="none" stroke="#F0A66F" stroke-width="3" marker-end="url(#arrow-orange)"/>

  </g>

  <!-- ================= SECTION 3: Tag Logic Integration ================= -->
  <g transform="translate(1130, 20)">
    <!-- Main Border -->
    <rect x="0" y="0" width="470" height="480" rx="20" fill="none" stroke="#666666" stroke-width="3" stroke-dasharray="6,4"/>

    <!-- Top Left: User & Items -->
    <g transform="translate(20, 100)">
      <use href="#icon-user" transform="scale(1.5)"/>
      <text x="37" y="80" font-size="28" text-anchor="middle" class="text-bold">user</text>
    </g>
    
    <!-- Curly Brace -->
    <path d="M100,60 L90,60 L90,200 L100,200" fill="none" stroke="#666666" stroke-width="3"/>
    <path d="M90,130 L80,130" fill="none" stroke="#666666" stroke-width="3"/> <!-- Point -->

    <!-- Items List -->
    <g transform="translate(110, 40)">
      <!-- Camera -->
      <use href="#icon-camera" transform="scale(1)"/>
      <text x="30" y="60" font-size="28" text-anchor="middle" class="text-italic">i<tspan dy="5" font-size="20">1</tspan></text>
      
      <!-- Camcorder -->
      <use href="#icon-film" transform="translate(0, 80) scale(1)"/>
      <text x="30" y="140" font-size="28" text-anchor="middle" class="text-italic">i<tspan dy="5" font-size="20">2</tspan></text>
      
      <!-- Ellipsis -->
      <text x="30" y="170" font-size="32" text-anchor="middle" class="text-bold">...</text>
      
      <!-- Gamepad -->
      <use href="#icon-gamepad" transform="translate(0, 190) scale(1)"/>
      <text x="30" y="250" font-size="28" text-anchor="middle" class="text-italic">i<tspan dy="5" font-size="20">n</tspan></text>
    </g>

    <!-- Top Right: Sets -->
    <g transform="translate(200, 30)">
      <!-- Set 1 -->
      <rect x="0" y="0" width="340" height="35" rx="5" fill="#FCE4D6" stroke="#BF9000" stroke-width="2"/>
      <text x="170" y="25" font-size="28" text-anchor="middle" class="text-bold" fill="#C55A11">
        <tspan font-style="italic">T</tspan><tspan dy="5" font-size="20">1</tspan><tspan dy="-5"> = {</tspan><tspan font-style="italic">t</tspan><tspan dy="5" font-size="20">1,1</tspan><tspan dy="-5">, ··· , </tspan><tspan font-style="italic">t</tspan><tspan dy="5" font-size="20">1,k</tspan><tspan dy="-5">}</tspan>
      </text>
      <rect x="0" y="35" width="340" height="35" rx="5" fill="#E2F0D9" stroke="#7FA858" stroke-width="2"/>
      <text x="170" y="60" font-size="28" text-anchor="middle" class="text-bold" fill="#548235">
        <tspan font-style="italic">C</tspan><tspan dy="5" font-size="20">1</tspan><tspan dy="-5"> = {</tspan><tspan font-style="italic">c</tspan><tspan dy="5" font-size="20">1,1</tspan><tspan dy="-5">, ··· , </tspan><tspan font-style="italic">c</tspan><tspan dy="5" font-size="20">1,l</tspan><tspan dy="-5">}</tspan>
      </text>

      <!-- Set 2 -->
      <g transform="translate(0, 70)">
        <rect x="0" y="0" width="340" height="35" rx="5" fill="#FCE4D6" stroke="#BF9000" stroke-width="2"/>
        <text x="170" y="25" font-size="28" text-anchor="middle" class="text-bold" fill="#C55A11">
          <tspan font-style="italic">T</tspan><tspan dy="5" font-size="20">2</tspan><tspan dy="-5"> = {</tspan><tspan font-style="italic">t</tspan><tspan dy="5" font-size="20">2,1</tspan><tspan dy="-5">, ··· , </tspan><tspan font-style="italic">t</tspan><tspan dy="5" font-size="20">2,k</tspan><tspan dy="-5">}</tspan>
        </text>
        <rect x="0" y="35" width="340" height="35" rx="5" fill="#E2F0D9" stroke="#7FA858" stroke-width="2"/>
        <text x="170" y="60" font-size="28" text-anchor="middle" class="text-bold" fill="#548235">
          <tspan font-style="italic">C</tspan><tspan dy="5" font-size="20">2</tspan><tspan dy="-5"> = {</tspan><tspan font-style="italic">c</tspan><tspan dy="5" font-size="20">2,1</tspan><tspan dy="-5">, ··· , </tspan><tspan font-style="italic">c</tspan><tspan dy="5" font-size="20">2,l</tspan><tspan dy="-5">}</tspan>
        </text>
      </g>

      <!-- Ellipsis -->
      <text x="170" y="150" font-size="32" text-anchor="middle" class="text-bold">...</text>

      <!-- Set n -->
      <g transform="translate(0, 150)">
        <rect x="0" y="0" width="340" height="35" rx="5" fill="#FCE4D6" stroke="#BF9000" stroke-width="2"/>
        <text x="170" y="25" font-size="28" text-anchor="middle" class="text-bold" fill="#C55A11">
          <tspan font-style="italic">T</tspan><tspan dy="5" font-size="20">n</tspan><tspan dy="-5"> = {</tspan><tspan font-style="italic">t</tspan><tspan dy="5" font-size="20">n,1</tspan><tspan dy="-5">, ··· , </tspan><tspan font-style="italic">t</tspan><tspan dy="5" font-size="20">n,k</tspan><tspan dy="-5">}</tspan>
        </text>
        <rect x="0" y="35" width="340" height="35" rx="5" fill="#E2F0D9" stroke="#7FA858" stroke-width="2"/>
        <text x="170" y="60" font-size="28" text-anchor="middle" class="text-bold" fill="#548235">
          <tspan font-style="italic">C</tspan><tspan dy="5" font-size="20">n</tspan><tspan dy="-5"> = {</tspan><tspan font-style="italic">c</tspan><tspan dy="5" font-size="20">n,1</tspan><tspan dy="-5">, ··· , </tspan><tspan font-style="italic">c</tspan><tspan dy="5" font-size="20">n,l</tspan><tspan dy="-5">}</tspan>
        </text>
      </g>
    </g>

    <!-- Middle: RecSys -->
    <g transform="translate(200, 260)">
      <rect x="0" y="0" width="340" height="150" fill="white" stroke="#666666" stroke-width="4"/>
      <text x="10" y="40" font-size="28" class="text-bold">RecSys</text>
      
      <!-- Neural Net Icon -->
      <g transform="translate(10, 60)">
        <circle cx="10" cy="10" r="8" fill="none" stroke="black" stroke-width="4"/>
        <circle cx="10" cy="30" r="8" fill="none" stroke="black" stroke-width="4"/>
        <circle cx="10" cy="50" r="8" fill="none" stroke="black" stroke-width="4"/>
        <circle cx="35" cy="20" r="8" fill="none" stroke="black" stroke-width="4"/>
        <circle cx="35" cy="40" r="8" fill="none" stroke="black" stroke-width="4"/>
        <circle cx="60" cy="30" r="8" fill="none" stroke="black" stroke-width="4"/>
        <line x1="18" y1="10" x2="27" y2="20" stroke="black" stroke-width="4"/>
        <line x1="18" y1="30" x2="27" y2="20" stroke="black" stroke-width="4"/>
        <line x1="18" y1="30" x2="27" y2="40" stroke="black" stroke-width="4"/>
        <line x1="18" y1="50" x2="27" y2="40" stroke="black" stroke-width="4"/>
        <line x1="43" y1="20" x2="52" y2="30" stroke="black" stroke-width="4"/>
        <line x1="43" y1="40" x2="52" y2="30" stroke="black" stroke-width="4"/>
      </g>

      <!-- Inner Boxes -->
      <rect x="110" y="10" width="270" height="65" rx="10" fill="#E0FFFF" stroke="#ADD8E6" stroke-width="2"/>
      <text x="245" y="35" font-size="24" text-anchor="middle">Tag-based</text>
      <text x="245" y="60" font-size="24" text-anchor="middle">Item/User Encoder</text>

      <rect x="110" y="80" width="270" height="65" rx="10" fill="#FFF2CC" stroke="#ADD8E6" stroke-width="2"/>
      <text x="245" y="105" font-size="24" text-anchor="middle">Tag-logic</text>
      <text x="245" y="130" font-size="24" text-anchor="middle">Inference Extension</text>
    </g>

    <!-- Input Arrow -->
    <line x1="370" y1="220" x2="370" y2="280" stroke="black" stroke-width="3" marker-end="url(#arrow-black)"/>
    <text x="360" y="245" font-size="24" text-anchor="end">Input</text>

    <!-- Candidate Item -->
    <g transform="translate(440, 250)">
      <text x="0" y="0" font-size="22" text-anchor="middle">Candidate</text>
      <text x="0" y="25" font-size="22" text-anchor="middle">item</text>
      <use href="#icon-watch" transform="translate(-20, 30) scale(1)"/>
      <text x="35" y="60" font-size="30" class="text-italic text-bold">v<tspan dy="5" font-size="20">i</tspan></text>
      <!-- Arrow to RecSys -->
      <path d="M20,60 L50,60 L50,140 L-10,140" fill="none" stroke="black" stroke-width="3" marker-end="url(#arrow-black)"/>
    </g>

    <!-- Logic Graph Small (Bottom Left) -->
    <g transform="translate(20, 270)">
      <text x="10" y="0" font-size="24" class="text-italic text-bold">Logic Graph</text>
      <rect x="0" y="10" width="170" height="150" rx="20" fill="#F0F6FC" stroke="#666666" stroke-width="3"/>
      
      <!-- Mini Nodes -->
      <circle cx="30" cy="40" r="15" fill="#FCE4D6" stroke="#666666" stroke-width="2"/>
      <circle cx="30" cy="80" r="15" fill="#FCE4D6" stroke="#666666" stroke-width="2"/>
      <circle cx="30" cy="120" r="15" fill="#FCE4D6" stroke="#666666" stroke-width="2"/>
      <text x="30" y="160" font-size="24" text-anchor="middle" class="text-italic text-bold">C*</text>

      <circle cx="130" cy="40" r="15" fill="#E2F0D9" stroke="#666666" stroke-width="2"/>
      <circle cx="130" cy="80" r="15" fill="#E2F0D9" stroke="#666666" stroke-width="2"/>
      <circle cx="130" cy="120" r="15" fill="#E2F0D9" stroke="#666666" stroke-width="2"/>
      <text x="130" y="160" font-size="24" text-anchor="middle" class="text-italic text-bold">T*</text>

      <!-- Mini Edges -->
      <line x1="45" y1="40" x2="115" y2="40" stroke="#F0A66F" stroke-width="2" marker-end="url(#arrow-orange)"/>
      <line x1="45" y1="40" x2="115" y2="120" stroke="#7FA858" stroke-width="2" marker-end="url(#arrow-green)"/>
      <line x1="45" y1="80" x2="115" y2="40" stroke="#7FA858" stroke-width="2" marker-end="url(#arrow-green)"/>
      <line x1="45" y1="80" x2="115" y2="120" stroke="#F0A66F" stroke-width="2" marker-end="url(#arrow-orange)"/>
      <line x1="45" y1="120" x2="115" y2="80" stroke="#F0A66F" stroke-width="2" marker-end="url(#arrow-orange)"/>
      <line x1="45" y1="120" x2="115" y2="40" stroke="#7FA858" stroke-width="2" marker-end="url(#arrow-green)"/>

      <!-- Arrows to RecSys -->
      <line x1="170" y1="50" x2="250" y2="50" stroke="black" stroke-width="2" marker-end="url(#arrow-black)"/>
      <text x="180" y="40" font-size="24" class="text-italic text-bold">G<tspan dy="-8" font-size="16">I2U*</tspan></text>
      
      <line x1="170" y1="120" x2="250" y2="120" stroke="black" stroke-width="2" marker-end="url(#arrow-black)"/>
      <text x="180" y="110" font-size="24" class="text-italic text-bold">G<tspan dy="-8" font-size="16">U2I*</tspan></text>
    </g>

    <!-- Loss Function Box -->
    <g transform="translate(20, 405)">
      <rect x="0" y="0" width="300" height="80" rx="10" fill="#DEEBF7" stroke="#8DA8C8" stroke-width="2"/>
      <text x="150" y="35" font-size="26" text-anchor="middle" class="text-italic text-bold">
        &#x2112; = &#x03BB;(&#x2112;<tspan dy="5" font-size="18">ut</tspan><tspan dy="-5"> + &#x2112;</tspan><tspan dy="5" font-size="18">it</tspan><tspan dy="-5">) + (1 &#x2212; &#x03BB;)&#x2112;</tspan><tspan dy="5" font-size="18">ui</tspan>
      </text>
      <text x="150" y="70" font-size="22" text-anchor="middle" text-decoration="underline">Tag-based Learning Augmentation</text>
    </g>

    <!-- Backpropagation Arrow -->
    <line x1="250" y1="405" x2="250" y2="350" stroke="black" stroke-width="3" stroke-dasharray="6,3" marker-end="url(#arrow-black)"/>
    <text x="240" y="390" font-size="18" text-anchor="middle" text-decoration="underline">Backpropagation</text>

    <!-- Outputs -->
    <line x1="320" y1="360" x2="320" y2="405" stroke="black" stroke-width="2" marker-end="url(#arrow-black)"/>
    <text x="320" y="425" font-size="28" text-anchor="middle" class="text-italic text-bold">ŷ<tspan dy="5" font-size="20">raw</tspan></text>

    <line x1="420" y1="360" x2="420" y2="405" stroke="black" stroke-width="2" marker-end="url(#arrow-black)"/>
    <text x="420" y="425" font-size="28" text-anchor="middle" class="text-italic text-bold">ŷ<tspan dy="5" font-size="20">tag</tspan></text>

    <line x1="330" y1="430" x2="380" y2="450" stroke="black" stroke-width="2" marker-end="url(#arrow-black)"/>
    <line x1="410" y1="430" x2="360" y2="450" stroke="black" stroke-width="2" marker-end="url(#arrow-black)"/>
    <text x="370" y="465" font-size="28" text-anchor="middle" class="text-italic text-bold">ŷ</text>

  </g>

  <!-- ================= GLOBAL CONNECTORS ================= -->
  <!-- Blue Arrow: Section 1 Emb to Section 3 Logic Graph -->
  <path d="M560,160 L1000,160 L1000,340 L1140,340" fill="none" stroke="#8DA8C8" stroke-width="3" marker-end="url(#arrow-blue)"/>

  <!-- ================= CAPTIONS ================= -->
  <text x="280" y="510" font-size="34" text-anchor="middle" class="text-bold">(1) MLLM-based Tag Extraction</text>
  <text x="860" y="510" font-size="34" text-anchor="middle" class="text-bold">(2) LLM-based Collaborative Logic Reasoning</text>
  <text x="1365" y="510" font-size="34" text-anchor="middle" class="text-bold">(3) Tag Logic Integration</text>

</svg>