<svg xmlns="http://www.w3.org/2000/svg" viewBox="0 0 1960 1280" style="background-color: white;">
  <defs>
    <!-- Arrowheads -->
    <marker id="arrow-black" markerWidth="10" markerHeight="10" refX="9" refY="3" orient="auto" markerUnits="strokeWidth">
      <path d="M0,0 L0,6 L9,3 z" fill="black" />
    </marker>
    <marker id="arrow-blue" markerWidth="10" markerHeight="10" refX="9" refY="3" orient="auto" markerUnits="strokeWidth">
      <path d="M0,0 L0,6 L9,3 z" fill="#005580" />
    </marker>
    <marker id="arrow-green" markerWidth="10" markerHeight="10" refX="9" refY="3" orient="auto" markerUnits="strokeWidth">
      <path d="M0,0 L0,6 L9,3 z" fill="#32CD32" />
    </marker>
    <marker id="arrow-orange" markerWidth="10" markerHeight="10" refX="9" refY="3" orient="auto" markerUnits="strokeWidth">
      <path d="M0,0 L0,6 L9,3 z" fill="#ED7D31" />
    </marker>
    <marker id="arrow-purple" markerWidth="10" markerHeight="10" refX="9" refY="3" orient="auto" markerUnits="strokeWidth">
      <path d="M0,0 L0,6 L9,3 z" fill="#6A4C93" />
    </marker>
    <marker id="arrow-yellow" markerWidth="10" markerHeight="10" refX="9" refY="3" orient="auto" markerUnits="strokeWidth">
      <path d="M0,0 L0,6 L9,3 z" fill="#F1C27D" />
    </marker>
    <marker id="arrow-teal" markerWidth="10" markerHeight="10" refX="9" refY="3" orient="auto" markerUnits="strokeWidth">
      <path d="M0,0 L0,6 L9,3 z" fill="#008080" />
    </marker>
    <marker id="arrow-cyan" markerWidth="10" markerHeight="10" refX="9" refY="3" orient="auto" markerUnits="strokeWidth">
      <path d="M0,0 L0,6 L9,3 z" fill="#00BFFF" />
    </marker>
    <marker id="arrow-magenta" markerWidth="10" markerHeight="10" refX="9" refY="3" orient="auto" markerUnits="strokeWidth">
      <path d="M0,0 L0,6 L9,3 z" fill="#800080" />
    </marker>
    
    <!-- Snowflake Icon -->
    <g id="snowflake">
      <path d="M10,0 L10,20 M0,10 L20,10 M3.5,3.5 L16.5,16.5 M3.5,16.5 L16.5,3.5" stroke="#005580" stroke-width="2" stroke-linecap="round" />
      <path d="M10,0 L10,20 M0,10 L20,10 M3.5,3.5 L16.5,16.5 M3.5,16.5 L16.5,3.5" stroke="#005580" stroke-width="1" fill="none" />
    </g>
  </defs>

  <!-- ==================== 1. LEGEND (Right Side) ==================== -->
  <g transform="translate(1650, 200)">
    <!-- Legend Container -->
    <rect x="0" y="0" width="500" height="320" fill="none" stroke="#003366" stroke-width="6" stroke-dasharray="20,15" />
    
    <!-- Item 1 -->
    <rect x="20" y="20" width="60" height="60" fill="#666666" stroke="black" stroke-width="2"/>
    <text x="70" y="50" font-family="Arial, sans-serif" font-size="40" fill="black">Point-wise Addition</text>
    
    <!-- Item 2 -->
    <rect x="20" y="100" width="60" height="60" fill="#666666" stroke="black" stroke-width="2"/>
    <text x="70" y="130" font-family="Arial, sans-serif" font-size="40" fill="black">Stage2 Trainable Modules</text>
    
    <!-- Item 3 -->
    <rect x="20" y="200" width="60" height="60" fill="#666666" stroke="black" stroke-width="2"/>
    <text x="70" y="230" font-family="Arial, sans-serif" font-size="40" fill="black">Stage3 Trainable Modules</text>
    
    <!-- Item 4 -->
    <rect x="20" y="300" width="60" height="60" fill="#666666" stroke="black" stroke-width="2"/>
    <text x="70" y="330" font-family="Arial, sans-serif" font-size="40" fill="black">Frozen Components</text>
  </g>

  <!-- ==================== 2. QUERY BOX (Bottom Right) ==================== -->
  <g transform="translate(1530, 1080)">
    <rect x="0" y="0" width="500" height="200" fill="#FFC000" stroke="black" stroke-width="4" />
    <text x="20" y="50" font-family="Arial, sans-serif" font-size="48" fill="black">
      <tspan x="20" dy="0" font-weight="bold">Query:</tspan> Locate the moment where a man wearing a white mask is talking about the sponsor under noisy street sound, which they have been trying for over a year", return precise timestamps
    </text>
    <text x="20" y="100" font-family="Arial, sans-serif" font-size="48" fill="#00BFFF">man wearing a white mask is talking</text>
    <text x="20" y="140" font-family="Arial, sans-serif" font-size="48" fill="#ED7D31">under noisy street sound, which they have been trying for</text>
    <text x="20" y="180" font-family="Arial, sans-serif" font-size="48" fill="#FF8C00">over a year", return precise timestamps</text>
  </g>

  <!-- ==================== 3. TIME LINE (Bottom) ==================== -->
  <g transform="translate(0, 1200)">
    <!-- Main Line -->
    <line x1="10" y1="0" x2="1450" y2="0" stroke="black" stroke-width="6" />
    
    <!-- Dashed Markers -->
    <line x1="10" y1="-10" x2="10" y2="10" stroke="#F1C27D" stroke-width="6" stroke-dasharray="20,10" />
    <line x1="145" y1="-10" x2="145" y2="10" stroke="#F1C27D" stroke-width="6" stroke-dasharray="20,10" />
    <line x1="230" y1="-10" x2="230" y2="10" stroke="#F1C27D" stroke-width="6" stroke-dasharray="20,10" />
    <line x1="1030" y1="-10" x2="1030" y2="10" stroke="#F1C27D" stroke-width="6" stroke-dasharray="20,10" />
    <line x1="1420" y1="-10" x2="1420" y2="10" stroke="#F1C27D" stroke-width="6" stroke-dasharray="20,10" />
    <line x1="1510" y1="-10" x2="1510" y2="10" stroke="#F1C27D" stroke-width="6" stroke-dasharray="20,10" />
    <line x1="1600" y1="-10" x2="1600" y2="10" stroke="#F1C27D" stroke-width="6" stroke-dasharray="20,10" />
    <line x1="1690" y1="-10" x2="1690" y2="10" stroke="#F1C27D" stroke-width="6" stroke-dasharray="20,10" />
    <line x1="1780" y1="-10" x2="1780" y2="10" stroke="#F1C27D" stroke-width="6" stroke-dasharray="20,10" />
    <line x1="1870" y1="-10" x2="1870" y2="10" stroke="#F1C27D" stroke-width="6" stroke-dasharray="20,10" />
    <line x1="1960" y1="-10" x2="1960" y2="10" stroke="#F1C27D" stroke-width="6" stroke-dasharray="20,10" />

    <!-- Timestamps -->
    <text x="10" y="40" font-family="Arial, sans-serif" font-size="40" fill="black">0s</text>
    <text x="145" y="40" font-family="Arial, sans-serif" font-size="40" fill="black">6s</text>
    <text x="230" y="40" font-family="Arial, sans-serif" font-size="40" fill="black">50s</text>
    <text x="1030" y="40" font-family="Arial, sans-serif" font-size="40" fill="black">106s</text>
    <text x="1420" y="40" font-family="Arial, sans-serif" font-size="40" fill="black">256s</text>
    <text x="1030" y="80" font-family="Arial, sans-serif" font-size="40" fill="black">267s</text>
    <text x="1420" y="80" font-family="Arial, sans-serif" font-size="40" fill="black">1747s</text>
    <text x="1450" y="40" font-family="Arial, sans-serif" font-size="40" fill="black">1759s</text>

    <!-- Markers on Line -->
    <circle cx="10" cy="0" r="15" fill="black" />
    <circle cx="145" cy="0" r="15" fill="black" />
    <circle cx="230" cy="0" r="15" fill="black" />
    <circle cx="1030" cy="0" r="15" fill="black" />
    <circle cx="1420" cy="0" r="15" fill="black" />
    <circle cx="1600" cy="0" r="15" fill="black" />
    <circle cx="1690" cy="0" r="15" fill="black" />
    <circle cx="1780" cy="0" r="15" fill="black" />
    <circle cx="1870" cy="0" r="15" fill="black" />
    <circle cx="1960" cy="0" r="15" fill="black" />
  </g>

  <!-- ==================== 4. FILM STRIPS (Bottom) ==================== -->
  <g transform="translate(0, 1080)">
    <!-- Strip 1 -->
    <g transform="translate(10, 0)">
      <rect x="0" y="0" width="180" height="180" fill="black" stroke="white" stroke-width="4" />
      <rect x="10" y="10" width="160" height="160" fill="url(#bg1)" />
      <rect x="20" y="20" width="80" height="120" fill="#666" stroke="black" stroke-width="2"/>
      <text x="60" y="80" font-family="Arial, sans-serif" font-size="30" fill="white">&lt;AF&gt;20</text>
      <text x="100" y="170" font-family="Arial, sans-serif" font-size="10" fill="white">&lt;AF&gt;26</text>
      <text x="140" y="170" font-family="Arial, sans-serif" font-size="10" fill="white">&lt;AF&gt;27</text>
      <text x="160" y="170" font-family="Arial, sans-serif" font-size="10" fill="white">&lt;AF&gt;28</text>
      <text x="180" y="170" font-family="Arial, sans-serif" font-size="10" fill="white">&lt;AF&gt;29</text>
      <text x="100" y="10" font-family="Arial, sans-serif" font-size="40" fill="white">...</text>
    </g>

    <!-- Strip 2 -->
    <g transform="translate(210, 0)">
      <rect x="0" y="0" width="280" height="180" fill="black" stroke="white" stroke-width="4" />
      <rect x="10" y="10" width="260" height="160" fill="url(#bg2)" />
      <rect x="20" y="20" width="120" height="120" fill="#666" stroke="black" stroke-width="2"/>
      <text x="80" y="80" font-family="Arial, sans-serif" font-size="30" fill="white">&lt;AF&gt;24</text>
      <rect x="150" y="20" width="60" height="120" fill="#666" stroke="black" stroke-width="2"/>
      <text x="180" y="80" font-family="Arial, sans-serif" font-size="30" fill="white">&lt;AF&gt;23</text>
      <text x="220" y="170" font-family="Arial, sans-serif" font-size="10" fill="white">&lt;AF&gt;25</text>
      <text x="100" y="10" font-family="Arial, sans-serif" font-size="40" fill="white">...</text>
    </g>

    <!-- Strip 3 -->
    <g transform="translate(650, 0)">
      <rect x="0" y="0" width="280" height="180" fill="black" stroke="white" stroke-width="4" />
      <rect x="10" y="10" width="260" height="160" fill="url(#bg3)" />
      <rect x="20" y="20" width="140" height="120" fill="#666" stroke="black" stroke-width="2"/>
      <text x="90" y="80" font-family="Arial, sans-serif" font-size="30" fill="white">&lt;AF&gt;18</text>
      <rect x="170" y="20" width="60" height="120" fill="#666" stroke="black" stroke-width="2"/>
      <text x="200" y="80" font-family="Arial, sans-serif" font-size="30" fill="white">&lt;AF&gt;29</text>
      <text x="100" y="10" font-family="Arial, sans-serif" font-size="40" fill="white">...</text>
    </g>

    <!-- Strip 4 -->
    <g transform="translate(810, 0)">
      <rect x="0" y="0" width="280" height="180" fill="black" stroke="white" stroke-width="4" />
      <rect x="10" y="10" width="260" height="160" fill="url(#bg4)" />
      <rect x="20" y="20" width="120" height="120" fill="#666" stroke="black" stroke-width="2"/>
      <text x="80" y="80" font-family="Arial, sans-serif" font-size="30" fill="white">&lt;AF&gt;31</text>
      <rect x="150" y="20" width="60" height="120" fill="#666" stroke="black" stroke-width="2"/>
      <text x="180" y="80" font-family="Arial, sans-serif" font-size="30" fill="white">&lt;AF&gt;27</text>
      <text x="220" y="170" font-family="Arial, sans-serif" font-size="10" fill="white">&lt;AF&gt;19</text>
      <text x="100" y="10" font-family="Arial, sans-serif" font-size="40" fill="white">...</text>
    </g>
  </g>

  <!-- ==================== 5. ENCODERS & PROJECTORS (Middle) ==================== -->
  
  <!-- Vision Section -->
  <g transform="translate(30, 920)">
    <rect x="0" y="0" width="550" height="140" fill="none" stroke="#003366" stroke-width="6" stroke-dasharray="20,15" />
    <g transform="translate(10, 10)">
      <rect x="0" y="0" width="120" height="120" fill="#ccc" />
      <rect x="10" y="10" width="100" height="100" fill="#666" stroke="black" stroke-width="2"/>
      <text x="60" y="60" font-family="Arial, sans-serif" font-size="30" fill="white">&lt;AF&gt;17</text>
    </g>
    <g transform="translate(140, 10)">
      <rect x="0" y="0" width="120" height="120" fill="#ccc" />
      <rect x="10" y="10" width="100" height="100" fill="#666" stroke="black" stroke-width="2"/>
      <text x="60" y="60" font-family="Arial, sans-serif" font-size="30" fill="white">&lt;AF&gt;21</text>
    </g>
    <text x="200" y="70" font-family="Arial, sans-serif" font-size="40" fill="black">...</text>
    <g transform="translate(380, 10)">
      <rect x="0" y="0" width="120" height="120" fill="#ccc" />
      <rect x="10" y="10" width="100" height="100" fill="#666" stroke="black" stroke-width="2"/>
      <text x="60" y="60" font-family="Arial, sans-serif" font-size="30" fill="white">&lt;AF&gt;25</text>
    </g>
  </g>

  <g transform="translate(100, 820)">
    <rect x="0" y="0" width="350" height="120" fill="#DAE8FC" stroke="#003366" stroke-width="4" />
    <text x="175" y="70" font-family="Arial, sans-serif" font-size="50" fill="#003366" text-anchor="middle">Vision Encoder</text>
    <rect x="360" y="10" width="50" height="50" fill="#666" stroke="black" stroke-width="2"/>
    <text x="370" y="40" font-family="Arial, sans-serif" font-size="20" fill="white">&lt;AF&gt;10</text>
    <text x="380" y="100" font-family="Arial, sans-serif" font-size="50" fill="#003366" text-anchor="middle">f<tspan dy="10" font-size="30">i</tspan><tspan dy="-10" font-size="30">v</tspan></text>
  </g>

  <g transform="translate(100, 700)">
    <rect x="0" y="0" width="350" height="120" fill="#DAE8FC" stroke="#003366" stroke-width="4" />
    <text x="175" y="70" font-family="Arial, sans-serif" font-size="50" fill="#003366" text-anchor="middle">Vision Projector</text>
    <rect x="360" y="10" width="50" height="50" fill="#666" stroke="black" stroke-width="2"/>
    <text x="370" y="40" font-family="Arial, sans-serif" font-size="20" fill="white">&lt;AF&gt;05</text>
    <text x="380" y="100" font-family="Arial, sans-serif" font-size="50" fill="#003366" text-anchor="middle">f<tspan dy="10" font-size="30">i</tspan><tspan dy="-10" font-size="30">v'</tspan></text>
  </g>

  <!-- Audio Section -->
  <g transform="translate(600, 920)">
    <rect x="0" y="0" width="350" height="140" fill="#D5E8D4" stroke="#003300" stroke-width="4" />
    <g transform="translate(10, 10)">
      <rect x="0" y="0" width="330" height="120" fill="#ccc" />
      <rect x="10" y="10" width="310" height="100" fill="#2E8B57" stroke="black" stroke-width="2"/>
      <!-- Audio waveform simulation -->
      <path d="M10,10 L15,50 L20,10 L25,50 L30,10 L35,50 L40,10 L45,50 L50,10 L55,50 L60,10 L65,50 L70,10 L75,50 L80,10 L85,50 L90,10 L95,50 L100,10 L105,50 L110,10 L115,50 L120,10 L125,50 L130,10 L135,50 L140,10 L145,50 L150,10 L155,50 L160,10 L165,50 L170,10 L175,50 L180,10 L185,50 L190,10 L195,50 L200,10 L205,50 L210,10 L215,50 L220,10 L225,50 L230,10 L235,50 L240,10 L245,50 L250,10 L255,50 L260,10 L265,50 L270,10 L275,50 L280,10 L285,50 L290,10 L295,50 L300,10 L305,50 L310,10 L315,50 L320,10 L325,50 L330,10" fill="none" stroke="#2E8B57" stroke-width="10" stroke-linecap="round"/>
    </g>
  </g>

  <g transform="translate(600, 820)">
    <rect x="0" y="0" width="350" height="120" fill="#D5E8D4" stroke="#003300" stroke-width="4" />
    <text x="175" y="70" font-family="Arial, sans-serif" font-size="50" fill="#006400" text-anchor="middle">Audio Encoder</text>
    <rect x="360" y="10" width="50" height="50" fill="#666" stroke="black" stroke-width="2"/>
    <text x="370" y="40" font-family="Arial, sans-serif" font-size="20" fill="white">&lt;AF&gt;13</text>
    <text x="380" y="100" font-family="Arial, sans-serif" font-size="50" fill="#006400" text-anchor="middle">f<tspan dy="10" font-size="30">i</tspan><tspan dy="-10" font-size="30">a</tspan></text>
  </g>

  <g transform="translate(600, 700)">
    <rect x="0" y="0" width="350" height="120" fill="#D5E8D4" stroke="#003300" stroke-width="4" />
    <text x="175" y="70" font-family="Arial, sans-serif" font-size="50" fill="#006400" text-anchor="middle">Audio Projector</text>
    <rect x="360" y="10" width="50" height="50" fill="#666" stroke="black" stroke-width="2"/>
    <text x="370" y="40" font-family="Arial, sans-serif" font-size="20" fill="white">&lt;AF&gt;07</text>
    <text x="380" y="100" font-family="Arial, sans-serif" font-size="50" fill="#006400" text-anchor="middle">f<tspan dy="10" font-size="30">i</tspan><tspan dy="-10" font-size="30">a'</tspan></text>
  </g>

  <!-- Speech Section -->
  <g transform="translate(1030, 920)">
    <rect x="0" y="0" width="350" height="140" fill="#F8CECC" stroke="#8B4513" stroke-width="4" />
    <g transform="translate(10, 10)">
      <rect x="0" y="0" width="330" height="120" fill="#ccc" />
      <rect x="10" y="10" width="310" height="100" fill="#8B4513" stroke="black" stroke-width="2"/>
      <!-- Audio waveform simulation -->
      <path d="M10,10 L15,50 L20,10 L25,50 L30,10 L35,50 L40,10 L45,50 L50,10 L55,50 L60,10 L65,50 L70,10 L75,50 L80,10 L85,50 L90,10 L95,50 L100,10 L105,50 L110,10 L115,50 L120,10 L125,50 L130,10 L135,50 L140,10 L145,50 L150,10 L155,50 L160,10 L165,50 L170,10 L175,50 L180,10 L185,50 L190,10 L195,50 L200,10 L205,50 L210,10 L215,50 L220,10 L225,50 L230,10 L235,50 L240,10 L245,50 L250,10 L255,50 L260,10 L265,50 L270,10 L275,50 L280,10 L285,50 L290,10 L295,50 L300,10 L305,50 L310,10 L315,50 L320,10 L325,50 L330,10" fill="none" stroke="#8B4513" stroke-width="10" stroke-linecap="round"/>
    </g>
  </g>

  <g transform="translate(1030, 820)">
    <rect x="0" y="0" width="350" height="120" fill="#F8CECC" stroke="#8B4513" stroke-width="4" />
    <text x="175" y="70" font-family="Arial, sans-serif" font-size="50" fill="#8B4513" text-anchor="middle">Speech Encoder</text>
    <g transform="translate(320, 10)">
      <use href="#snowflake" />
    </g>
    <rect x="360" y="10" width="50" height="50" fill="#666" stroke="black" stroke-width="2"/>
    <text x="370" y="40" font-family="Arial, sans-serif" font-size="20" fill="white">&lt;AF&gt;12</text>
    <text x="380" y="100" font-family="Arial, sans-serif" font-size="50" fill="#8B4513" text-anchor="middle">f<tspan dy="10" font-size="30">i</tspan><tspan dy="-10" font-size="30">s</tspan></text>
  </g>

  <g transform="translate(1030, 700)">
    <rect x="0" y="0" width="350" height="120" fill="#F8CECC" stroke="#8B4513" stroke-width="4" />
    <text x="175" y="70" font-family="Arial, sans-serif" font-size="50" fill="#8B4513" text-anchor="middle">Speech Projector</text>
    <rect x="360" y="10" width="50" height="50" fill="#666" stroke="black" stroke-width="2"/>
    <text x="370" y="40" font-family="Arial, sans-serif" font-size="20" fill="white">&lt;AF&gt;04</text>
    <text x="380" y="100" font-family="Arial, sans-serif" font-size="50" fill="#8B4513" text-anchor="middle">f<tspan dy="10" font-size="30">i</tspan><tspan dy="-10" font-size="30">s'</tspan></text>
  </g>

  <!-- Time Encoder -->
  <g transform="translate(1330, 730)">
    <rect x="0" y="0" width="180" height="100" fill="#F1C27D" stroke="#8B4513" stroke-width="4" />
    <text x="90" y="50" font-family="Arial, sans-serif" font-size="50" fill="#8B4513" text-anchor="middle">Time</text>
    <text x="90" y="90" font-family="Arial, sans-serif" font-size="50" fill="#8B4513" text-anchor="middle">Encoder</text>
  </g>

  <!-- ==================== 6. CONNECTORS (Middle) ==================== -->
  
  <!-- Vision -->
  <line x1="275" y1="920" x2="275" y2="890" stroke="black" stroke-width="4" marker-end="url(#arrow-black)" />
  <line x1="275" y1="820" x2="275" y2="790" stroke="#003366" stroke-width="4" marker-end="url(#arrow-blue)" />
  <line x1="275" y1="700" x2="275" y2="670" stroke="#003366" stroke-width="4" marker-end="url(#arrow-blue)" />
  <line x1="275" y1="600" x2="275" y2="570" stroke="#003366" stroke-width="4" marker-end="url(#arrow-blue)" />

  <!-- Audio -->
  <line x1="725" y1="920" x2="725" y2="890" stroke="#32CD32" stroke-width="4" marker-end="url(#arrow-green)" />
  <line x1="725" y1="820" x2="725" y2="790" stroke="#32CD32" stroke-width="4" marker-end="url(#arrow-green)" />
  <line x1="725" y1="700" x2="725" y2="670" stroke="#32CD32" stroke-width="4" marker-end="url(#arrow-green)" />
  <line x1="725" y1="600" x2="725" y2="570" stroke="#32CD32" stroke-width="4" marker-end="url(#arrow-green)" />

  <!-- Speech -->
  <line x1="1225" y1="920" x2="1225" y2="890" stroke="#ED7D31" stroke-width="4" marker-end="url(#arrow-orange)" />
  <line x1="1225" y1="820" x2="1225" y2="790" stroke="#ED7D31" stroke-width="4" marker-end="url(#arrow-orange)" />
  <line x1="1225" y1="700" x2="1225" y2="670" stroke="#ED7D31" stroke-width="4" marker-end="url(#arrow-orange)" />
  <line x1="1225" y1="600" x2="1225" y2="570" stroke="#ED7D31" stroke-width="4" marker-end="url(#arrow-orange)" />

  <!-- Time Encoder to Multimodal -->
  <line x1="1420" y1="730" x2="1420" y2="340" stroke="#F1C27D" stroke-width="4" marker-end="url(#arrow-yellow)" />

  <!-- ==================== 7. ATTENTION & TOKENS (Middle) ==================== -->
  
  <!-- Vision Tokens -->
  <g transform="translate(180, 620)">
    <rect x="0" y="0" width="160" height="80" rx="10" fill="#F5F5F5" stroke="#666" stroke-width="2" />
    <rect x="20" y="20" width="50" height="40" fill="#87CEEB" />
    <rect x="80" y="20" width="50" height="40" fill="#87CEEB" />
    <rect x="140" y="20" width="50" height="40" fill="#87CEEB" />
    <text x="-10" y="50" font-family="Arial, sans-serif" font-size="40" fill="#005580">Vision Tokens</text>
  </g>
  <line x1="280" y1="620" x2="280" y2="570" stroke="#003366" stroke-width="4" marker-end="url(#arrow-blue)" />

  <!-- Audio Tokens -->
  <g transform="translate(660, 620)">
    <rect x="0" y="0" width="160" height="80" rx="10" fill="#F5F5F5" stroke="#666" stroke-width="2" />
    <rect x="20" y="20" width="50" height="40" fill="#90EE90" />
    <rect x="80" y="20" width="50" height="40" fill="#90EE90" />
    <rect x="140" y="20" width="50" height="40" fill="#90EE90" />
    <text x="-10" y="50" font-family="Arial, sans-serif" font-size="40" fill="#32CD32">Audio Tokens</text>
  </g>
  <line x1="760" y1="620" x2="760" y2="570" stroke="#32CD32" stroke-width="4" marker-end="url(#arrow-green)" />

  <!-- Speech Tokens -->
  <g transform="translate(1160, 620)">
    <rect x="0" y="0" width="160" height="80" rx="10" fill="#F5F5F5" stroke="#666" stroke-width="2" />
    <rect x="20" y="20" width="50" height="40" fill="#F4A460" />
    <rect x="80" y="20" width="50" height="40" fill="#F4A460" />
    <rect x="140" y="20" width="50" height="40" fill="#F4A460" />
    <text x="-10" y="50" font-family="Arial, sans-serif" font-size="40" fill="#8B4513">Speech Tokens</text>
  </g>
  <line x1="1260" y1="620" x2="1260" y2="570" stroke="#6A4C93" stroke-width="4" marker-end="url(#arrow-purple)" />

  <!-- Cross Attention Blocks -->
  <g transform="translate(100, 520)">
    <rect x="0" y="0" width="320" height="100" fill="#DAE8FC" stroke="#003366" stroke-width="4" />
    <text x="160" y="60" font-family="Arial, sans-serif" font-size="50" fill="#003366" text-anchor="middle">Cross Attention</text>
  </g>
  <line x1="280" y1="520" x2="280" y2="420" stroke="#003366" stroke-width="4" marker-end="url(#arrow-blue)" />

  <g transform="translate(600, 520)">
    <rect x="0" y="0" width="320" height="100" fill="#D5E8D4" stroke="#003300" stroke-width="4" />
    <text x="160" y="60" font-family="Arial, sans-serif" font-size="50" fill="#006400" text-anchor="middle">Cross Attention</text>
  </g>
  <line x1="760" y1="520" x2="760" y2="420" stroke="#32CD32" stroke-width="4" marker-end="url(#arrow-green)" />

  <g transform="translate(1030, 520)">
    <rect x="0" y="0" width="320" height="100" fill="#F8CECC" stroke="#8B4513" stroke-width="4" />
    <text x="160" y="60" font-family="Arial, sans-serif" font-size="50" fill="#8B4513" text-anchor="middle">Cross Attention</text>
  </g>
  <line x1="1225" y1="520" x2="1225" y2="420" stroke="#ED7D31" stroke-width="4" marker-end="url(#arrow-orange)" />

  <!-- ==================== 8. MULTIMODAL & HEADS (Top) ==================== -->
  
  <!-- Text Tokens -->
  <g transform="translate(1700, 860)">
    <rect x="0" y="0" width="180" height="80" rx="10" fill="#F5F5F5" stroke="#666" stroke-width="2" />
    <rect x="20" y="20" width="50" height="40" fill="#9673A6" />
    <rect x="80" y="20" width="50" height="40" fill="#9673A6" />
    <rect x="140" y="20" width="50" height="40" fill="#9673A6" />
    <text x="-10" y="50" font-family="Arial, sans-serif" font-size="40" fill="#6A4C93">Text Tokens</text>
  </g>
  <line x1="1800" y1="860" x2="1800" y2="900" stroke="black" stroke-width="4" marker-end="url(#arrow-black)" />

  <g transform="translate(1600, 960)">
    <rect x="0" y="0" width="350" height="100" fill="#E1D5E7" stroke="#6A1B9A" stroke-width="4" />
    <text x="175" y="60" font-family="Arial, sans-serif" font-size="50" fill="#6A1B9A" text-anchor="middle">Text Tokenizer</text>
  </g>
  <line x1="1800" y1="960" x2="1800" y2="1030" stroke="black" stroke-width="4" marker-end="url(#arrow-black)" />

  <!-- Multimodal Concat -->
  <g transform="translate(580, 310)">
    <rect x="0" y="0" width="550" height="60" rx="10" fill="#F5F5F5" stroke="#666" stroke-width="2" />
    <text x="20" y="40" font-family="Arial, sans-serif" font-size="50" fill="#005580">Concat(<tspan font-family="Times New Roman, serif" font-style="italic">Wv</tspan><tspan dy="10" font-size="30">*</tspan><tspan dy="-10"> </tspan><tspan font-family="Times New Roman, serif" font-style="italic">Wv</tspan><tspan dy="10" font-size="30">*</tspan><tspan dy="-10"> </tspan><tspan font-family="Times New Roman, serif" font-style="italic">Ws</tspan><tspan dy="10" font-size="30">*</tspan><tspan dy="-10"> </tspan><tspan font-family="Times New Roman, serif" font-style="italic">Ws</tspan><tspan dy="10" font-size="30">*</tspan><tspan dy="-10"> )</tspan>)</text>
    
    <!-- Colored Squares -->
    <rect x="220" y="10" width="50" height="40" fill="#87CEEB" />
    <rect x="280" y="10" width="50" height="40" fill="#87CEEB" />
    <rect x="340" y="10" width="50" height="40" fill="#90EE90" />
    <rect x="400" y="10" width="50" height="40" fill="#90EE90" />
    <rect x="460" y="10" width="50" height="40" fill="#F4A460" />
    <rect x="520" y="10" width="50" height="40" fill="#F4A460" />
    <rect x="580" y="10" width="50" height="40" fill="#F1C27D" />
  </g>

  <!-- Wv, Wa, Ws Nodes -->
  <g transform="translate(380, 390)">
    <ellipse cx="0" cy="0" rx="100" ry="30" fill="#DAE8FC" stroke="#003366" stroke-width="4" />
    <text x="0" y="10" font-family="Arial, sans-serif" font-size="50" fill="#003366" text-anchor="middle">Wv</text>
  </g>
  <line x1="480" y1="390" x2="720" y2="390" stroke="#003366" stroke-width="4" marker-end="url(#arrow-blue)" />
  <text x="550" y="440" font-family="Arial, sans-serif" font-size="40" fill="#003366" text-anchor="middle">f<tspan dy="10" font-size="30">i</tspan><tspan dy="-10" font-size="30">v,q</tspan></text>

  <g transform="translate(720, 460)">
    <ellipse cx="0" cy="0" rx="100" ry="30" fill="#D5E8D4" stroke="#003300" stroke-width="4" />
    <text x="0" y="10" font-family="Arial, sans-serif" font-size="50" fill="#006400" text-anchor="middle">Wa</text>
  </g>
  <line x1="720" y1="460" x2="720" y2="390" stroke="#32CD32" stroke-width="4" marker-end="url(#arrow-green)" />
  <text x="770" y="440" font-family="Arial, sans-serif" font-size="40" fill="#32CD32" text-anchor="middle">f<tspan dy="10" font-size="30">i</tspan><tspan dy="-10" font-size="30">a,q</tspan></text>

  <g transform="translate(1080, 390)">
    <ellipse cx="0" cy="0" rx="100" ry="30" fill="#F8CECC" stroke="#8B4513" stroke-width="4" />
    <text x="0" y="10" font-family="Arial, sans-serif" font-size="50" fill="#8B4513" text-anchor="middle">Ws</text>
  </g>
  <line x1="1080" y1="390" x2="1080" y2="420" stroke="#ED7D31" stroke-width="4" marker-end="url(#arrow-orange)" />
  <text x="1000" y="440" font-family="Arial, sans-serif" font-size="40" fill="#ED7D31" text-anchor="middle">f<tspan dy="10" font-size="30">i</tspan><tspan dy="-10" font-size="30">s,q</tspan></text>

  <!-- Multimodal to Compress -->
  <line x1="720" y1="310" x2="720" y2="280" stroke="#003366" stroke-width="4" marker-end="url(#arrow-blue)" />
  <g transform="translate(660, 220)">
    <rect x="0" y="0" width="440" height="80" fill="#F5F5F5" stroke="#666" stroke-width="2" />
    <text x="20" y="50" font-family="Arial, sans-serif" font-size="50" fill="#8B4513" text-anchor="middle">Compress &amp; Two-layer MLP</text>
  </g>
  <line x1="720" y1="220" x2="720" y2="190" stroke="#003366" stroke-width="4" marker-end="url(#arrow-blue)" />

  <!-- ==================== 9. QUERY-BASED CONNECTOR (Top) ==================== -->
  <g transform="translate(10, 200)">
    <rect x="0" y="0" width="1600" height="500" fill="none" stroke="#003366" stroke-width="6" stroke-dasharray="20,15" />
    <text x="1200" y="50" font-family="Arial, sans-serif" font-size="60" fill="#005580" text-anchor="middle">Query-Based Connector</text>
  </g>

  <!-- ==================== 10. LLM & HEADS (Top) ==================== -->
  
  <g transform="translate(100, 100)">
    <rect x="0" y="0" width="1180" height="120" fill="#FCE4D6" stroke="#8B4513" stroke-width="6" />
    <text x="590" y="70" font-family="Arial, sans-serif" font-size="60" fill="#8B4513" text-anchor="middle">Large Language Model</text>
  </g>
  <line x1="720" y1="100" x2="720" y2="190" stroke="#003366" stroke-width="4" marker-end="url(#arrow-blue)" />

  <g transform="translate(800, 30)">
    <rect x="0" y="0" width="200" height="60" fill="#E6D8E6" stroke="#6A1B9A" stroke-width="4" />
    <text x="100" y="40" font-family="Arial, sans-serif" font-size="50" fill="#6A1B9A" text-anchor="middle">Time Head</text>
    <rect x="10" y="10" width="40" height="40" fill="#666" stroke="black" stroke-width="2"/>
    <text x="20" y="30" font-family="Arial, sans-serif" font-size="10" fill="white">&lt;AF&gt;06</text>
    <rect x="150" y="10" width="40" height="40" fill="#666" stroke="black" stroke-width="2"/>
    <text x="160" y="30" font-family="Arial, sans-serif" font-size="10" fill="white">&lt;AF&gt;08</text>
  </g>
  <line x1="900" y1="30" x2="900" y2="80" stroke="black" stroke-width="4" marker-end="url(#arrow-black)" />

  <g transform="translate(1180, 30)">
    <rect x="0" y="0" width="200" height="60" fill="#E6D8E6" stroke="#6A1B9A" stroke-width="4" />
    <text x="100" y="40" font-family="Arial, sans-serif" font-size="50" fill="#6A1B9A" text-anchor="middle">LM Head</text>
    <rect x="10" y="10" width="40" height="40" fill="#666" stroke="black" stroke-width="2"/>
    <text x="20" y="30" font-family="Arial, sans-serif" font-size="10" fill="white">&lt;AF&gt;14</text>
    <rect x="150" y="10" width="40" height="40" fill="#666" stroke="black" stroke-width="2"/>
    <text x="160" y="30" font-family="Arial, sans-serif" font-size="10" fill="white">&lt;AF&gt;02</text>
  </g>
  <line x1="1280" y1="30" x2="1280" y2="80" stroke="black" stroke-width="4" marker-end="url(#arrow-black)" />

  <!-- Synchronization Arrow -->
  <line x1="1000" y1="50" x2="1180" y2="50" stroke="#6A1B9A" stroke-width="4" stroke-dasharray="10,5" marker-end="url(#arrow-purple)" />
  <text x="1090" y="40" font-family="Arial, sans-serif" font-size="40" fill="#6A1B9A" text-anchor="middle">&lt;sync&gt;</text>

</svg>