<svg xmlns="http://www.w3.org/2000/svg" width="1408" height="768" viewBox="0 0 1408 768">

<defs>
  <marker id="arrow" markerWidth="12" markerHeight="10" refX="10" refY="5" orient="auto" markerUnits="strokeWidth">
    <path d="M0,0 L10,5 L0,10 Z" fill="#2b5164"/>
  </marker>
  <marker id="arrow_green" markerWidth="12" markerHeight="10" refX="10" refY="5" orient="auto" markerUnits="strokeWidth">
    <path d="M0,0 L10,5 L0,10 Z" fill="#39856f"/>
  </marker>
  <marker id="arrow_purple" markerWidth="12" markerHeight="10" refX="10" refY="5" orient="auto" markerUnits="strokeWidth">
    <path d="M0,0 L10,5 L0,10 Z" fill="#6b408d"/>
  </marker>
  <linearGradient id="blueCard" x1="0" y1="0" x2="1" y2="1">
    <stop offset="0%" stop-color="#e2f4fc"/>
    <stop offset="100%" stop-color="#dceef8"/>
  </linearGradient>
  <linearGradient id="greenCard" x1="0" y1="0" x2="1" y2="1">
    <stop offset="0%" stop-color="#e3f8ee"/>
    <stop offset="100%" stop-color="#d9f2e8"/>
  </linearGradient>
  <linearGradient id="purpleCard" x1="0" y1="0" x2="1" y2="1">
    <stop offset="0%" stop-color="#eee7f7"/>
    <stop offset="100%" stop-color="#ebe4f4"/>
  </linearGradient>
  <filter id="shadow" x="-20%" y="-20%" width="140%" height="140%">
    <feDropShadow dx="0" dy="5" stdDeviation="8" flood-color="#617282" flood-opacity="0.25"/>
  </filter>
  <filter id="softPanelShadow" x="-20%" y="-20%" width="140%" height="140%">
    <feDropShadow dx="0" dy="6" stdDeviation="8" flood-color="#607080" flood-opacity="0.17"/>
  </filter>
</defs>
<rect x="0" y="0" width="1408" height="768" fill="#e8f2f8"/>

<g opacity="0.28" stroke="#93a9bd" stroke-width="1.2" fill="none">
  <line x1="1210" y1="0" x2="1264" y2="110"/><line x1="1264" y1="110" x2="1368" y2="280"/><line x1="1264" y1="110" x2="1370" y2="20"/>
  <line x1="1210" y1="0" x2="1345" y2="40"/><line x1="1350" y1="0" x2="1408" y2="142"/><line x1="1170" y1="80" x2="1400" y2="270"/>
  <line x1="0" y1="528" x2="96" y2="727"/><line x1="0" y1="735" x2="130" y2="664"/><line x1="130" y1="664" x2="225" y2="768"/>
  <line x1="0" y1="528" x2="82" y2="620"/><line x1="82" y1="620" x2="0" y2="735"/>
  <circle cx="1264" cy="110" r="4" fill="#93a9bd" stroke="none"/><circle cx="1368" cy="280" r="5" fill="#93a9bd" stroke="none"/>
  <circle cx="0" cy="528" r="5" fill="#93a9bd" stroke="none"/><circle cx="82" cy="620" r="4" fill="#93a9bd" stroke="none"/>
</g>
<text x="704" y="54" text-anchor="middle" font-family="Arial, Helvetica, sans-serif" font-size="37" font-weight="800" letter-spacing="5" fill="#111d2b">WORLD MODEL: FROM STATIC 3D TO DYNAMIC VIDEO FLOW</text>

<rect x="50" y="80" width="1308" height="610" rx="22" fill="#f8fbff" opacity="0.92" filter="url(#shadow)"/>
<text x="704" y="124" text-anchor="middle" font-family="Arial, Helvetica, sans-serif" font-size="32" font-weight="800" fill="#111624">World Model Pipeline</text>

<!-- left step cards -->
<g filter="url(#softPanelShadow)">
  <rect x="68" y="134" width="275" height="154" rx="13" fill="url(#blueCard)" opacity="0.86"/>
  <rect x="140" y="144" width="120" height="34" rx="6" fill="#2f91d0"/>
  <text x="200" y="168" text-anchor="middle" font-family="Arial, Helvetica, sans-serif" font-size="18" font-weight="800" fill="#ffffff" letter-spacing="1">STEP 1</text>
  <text x="205" y="209" text-anchor="middle" font-family="Arial, Helvetica, sans-serif" font-size="23" font-weight="800" fill="#111" letter-spacing="1">
    <tspan x="205" dy="0">COARSE 3D</tspan><tspan x="205" dy="29">SANDBOX</tspan><tspan x="205" dy="29">GENERATION</tspan>
  </text>

  <rect x="68" y="316" width="275" height="154" rx="13" fill="url(#greenCard)" opacity="0.86"/>
  <rect x="140" y="326" width="120" height="34" rx="6" fill="#39a675"/>
  <text x="200" y="350" text-anchor="middle" font-family="Arial, Helvetica, sans-serif" font-size="18" font-weight="800" fill="#ffffff" letter-spacing="1">STEP 2</text>
  <text x="205" y="390" text-anchor="middle" font-family="Arial, Helvetica, sans-serif" font-size="23" font-weight="800" fill="#111" letter-spacing="1">
    <tspan x="205" dy="0">VLM-BASED</tspan><tspan x="205" dy="29">PHYSICAL MOTION</tspan><tspan x="205" dy="29">PREDICTION</tspan>
  </text>

  <rect x="68" y="518" width="275" height="172" rx="13" fill="url(#purpleCard)" opacity="0.92"/>
  <rect x="136" y="555" width="125" height="35" rx="6" fill="#7d45b1"/>
  <text x="198" y="579" text-anchor="middle" font-family="Arial, Helvetica, sans-serif" font-size="18" font-weight="800" fill="#ffffff" letter-spacing="1">STEP 3</text>
  <text x="205" y="625" text-anchor="middle" font-family="Arial, Helvetica, sans-serif" font-size="23" font-weight="800" fill="#111" letter-spacing="1">
    <tspan x="205" dy="0">VIDEO DIFFUSION</tspan><tspan x="205" dy="31">&amp; SYNTHESIS</tspan>
  </text>
</g>

<!-- input prompt and equation text -->
<text x="393" y="194" font-family="Arial, Helvetica, sans-serif" font-size="22" font-weight="700" fill="#111">Input Prompt</text>
<text x="385" y="217" font-family="Arial, Helvetica, sans-serif" font-size="18" fill="#111">
  <tspan x="385" dy="0">“A ball rolls down</tspan><tspan x="385" dy="25">a rocky ramp”</tspan>
</text>

<text x="386" y="356" font-family="Times New Roman, serif" font-size="15" font-style="italic" fill="#111">
  <tspan x="406" dy="0">f = ∫</tspan><tspan font-size="10" dy="-7">t</tspan><tspan font-size="15" dy="7"> ∂v</tspan>
  <tspan x="406" dy="24">∂u / ∂t = 1/2 C|u|</tspan>
  <tspan x="406" dy="24">E = √(n² + h²)</tspan>
</text>
<text x="386" y="431" font-family="Arial, Helvetica, sans-serif" font-size="18" fill="#111">
  <tspan x="386" dy="0">Physics Laws</tspan><tspan x="386" dy="24">&amp; Constraints</tspan>
</text>

<!-- panels -->
<g filter="url(#softPanelShadow)">
  <rect x="610" y="145" width="280" height="143" rx="12" fill="#e8f2f6" stroke="#4f93b3" stroke-width="2.6"/>
  <text x="750" y="248" text-anchor="middle" font-family="Arial, Helvetica, sans-serif" font-size="20" font-weight="800" fill="#111">
    <tspan x="750" dy="0">Coarse 3D Scene</tspan><tspan x="750" dy="27">Generation Model</tspan>
  </text>

  <rect x="978" y="145" width="359" height="143" rx="12" fill="#e8f2f6" stroke="#6ca2b7" stroke-width="2.6"/>
  <text x="1158" y="274" text-anchor="middle" font-family="Arial, Helvetica, sans-serif" font-size="20" font-weight="800" fill="#111">Coarse 3D Representation</text>

  <rect x="556" y="337" width="304" height="109" rx="12" fill="#dff3ea" stroke="#53a283" stroke-width="2.6"/>
  <text x="718" y="403" text-anchor="middle" font-family="Arial, Helvetica, sans-serif" font-size="33" font-weight="800" fill="#2d6f61" letter-spacing="4">VLM</text>
  <text x="812" y="375" text-anchor="middle" font-family="Arial, Helvetica, sans-serif" font-size="18" fill="#111">
    <tspan x="812" dy="0">Physical</tspan><tspan x="812" dy="22">Language</tspan><tspan x="812" dy="22">Model</tspan>
  </text>

  <rect x="912" y="326" width="425" height="168" rx="12" fill="#e2f4ec" stroke="#63a891" stroke-width="2.4"/>
  <text x="1124" y="356" text-anchor="middle" font-family="Arial, Helvetica, sans-serif" font-size="21" font-weight="800" fill="#111">Physical Motion Prediction</text>
  <text x="1124" y="477" text-anchor="middle" font-family="Arial, Helvetica, sans-serif" font-size="20" fill="#111">4D Sequence (Time-Varying 3D)</text>

  <rect x="548" y="519" width="290" height="136" rx="12" fill="#eee6f5" stroke="#8048a2" stroke-width="2.5"/>
  <text x="725" y="588" text-anchor="middle" font-family="Arial, Helvetica, sans-serif" font-size="26" font-weight="800" fill="#111">
    <tspan x="725" dy="0">Video</tspan><tspan x="725" dy="31">Diffusion</tspan>
  </text>
  <text x="693" y="684" text-anchor="middle" font-family="Arial, Helvetica, sans-serif" font-size="20" fill="#111">Conditioned on 4D Data</text>

  <rect x="916" y="516" width="421" height="187" rx="12" fill="#fff8ee" stroke="#c57e56" stroke-width="2.5"/>
  <text x="1125" y="685" text-anchor="middle" font-family="Arial, Helvetica, sans-serif" font-size="23" font-weight="800" fill="#111" letter-spacing="1">GENERATED HIGH-QUALITY VIDEO</text>
</g>

<!-- connectors -->
<g fill="none" stroke-linecap="square">
  <line x1="542" y1="207" x2="609" y2="207" stroke="#2b5164" stroke-width="3" marker-end="url(#arrow)" fill="none"/>
  <line x1="890" y1="207" x2="977" y2="207" stroke="#2b5164" stroke-width="3" marker-end="url(#arrow)" fill="none"/>
  <path d="M1170,288 L1170,304 L704,304 L704,337" stroke="#2b5164" stroke-width="3" marker-end="url(#arrow)"/>
  <line x1="498" y1="391" x2="556" y2="391" stroke="#39856f" stroke-width="3" marker-end="url(#arrow_green)" fill="none"/>
  <line x1="860" y1="405" x2="912" y2="405" stroke="#39856f" stroke-width="3" marker-end="url(#arrow_green)" fill="none"/>
  <path d="M752,446 L752,477 L704,477 L704,519" stroke="#2b5164" stroke-width="3" marker-end="url(#arrow)"/>
  <line x1="343" y1="599" x2="548" y2="599" stroke="#6b408d" stroke-width="3" marker-end="url(#arrow_purple)" fill="none"/>
  <line x1="838" y1="599" x2="916" y2="599" stroke="#6b408d" stroke-width="3" marker-end="url(#arrow_purple)" fill="none"/>
</g>

<text x="704" y="725" text-anchor="middle" font-family="Arial, Helvetica, sans-serif" font-size="20" font-style="italic" fill="#111">Leveraging physical prediction and diffusion for realistic video creation.</text>

<g id="slot_icon_neural_network" data-bbox="[642,156,84,66]" data-role="asset">
  <rect x="642" y="156" width="84" height="66" fill="#f8f8f8" stroke="#666" stroke-width="2" stroke-dasharray="6 4"/>
  <line x1="642" y1="156" x2="726" y2="222" stroke="#aaa" stroke-width="1.5"/>
  <line x1="726" y1="156" x2="642" y2="222" stroke="#aaa" stroke-width="1.5"/>
  <text x="684.0" y="189.0" font-size="12" font-family="Arial, Helvetica, sans-serif" text-anchor="middle" dominant-baseline="middle" fill="#333">ASSET_SLOT</text>
</g>
<g id="slot_icon_database" data-bbox="[742,165,40,50]" data-role="asset">
  <rect x="742" y="165" width="40" height="50" fill="#f8f8f8" stroke="#666" stroke-width="2" stroke-dasharray="6 4"/>
  <line x1="742" y1="165" x2="782" y2="215" stroke="#aaa" stroke-width="1.5"/>
  <line x1="782" y1="165" x2="742" y2="215" stroke="#aaa" stroke-width="1.5"/>
  <text x="762.0" y="190.0" font-size="12" font-family="Arial, Helvetica, sans-serif" text-anchor="middle" dominant-baseline="middle" fill="#333">ASSET_SLOT</text>
</g>
<g id="slot_icon_cubes" data-bbox="[803,159,63,64]" data-role="asset">
  <rect x="803" y="159" width="63" height="64" fill="#f8f8f8" stroke="#666" stroke-width="2" stroke-dasharray="6 4"/>
  <line x1="803" y1="159" x2="866" y2="223" stroke="#aaa" stroke-width="1.5"/>
  <line x1="866" y1="159" x2="803" y2="223" stroke="#aaa" stroke-width="1.5"/>
  <text x="834.5" y="191.0" font-size="12" font-family="Arial, Helvetica, sans-serif" text-anchor="middle" dominant-baseline="middle" fill="#333">ASSET_SLOT</text>
</g>
<g id="slot_coarse_3d_representation" data-bbox="[1026,158,270,84]" data-role="asset">
  <rect x="1026" y="158" width="270" height="84" fill="#f8f8f8" stroke="#666" stroke-width="2" stroke-dasharray="6 4"/>
  <line x1="1026" y1="158" x2="1296" y2="242" stroke="#aaa" stroke-width="1.5"/>
  <line x1="1296" y1="158" x2="1026" y2="242" stroke="#aaa" stroke-width="1.5"/>
  <text x="1161.0" y="200.0" font-size="12" font-family="Arial, Helvetica, sans-serif" text-anchor="middle" dominant-baseline="middle" fill="#333">ASSET_SLOT</text>
</g>
<g id="slot_vlm_brain" data-bbox="[592,357,75,63]" data-role="asset">
  <rect x="592" y="357" width="75" height="63" fill="#f8f8f8" stroke="#666" stroke-width="2" stroke-dasharray="6 4"/>
  <line x1="592" y1="357" x2="667" y2="420" stroke="#aaa" stroke-width="1.5"/>
  <line x1="667" y1="357" x2="592" y2="420" stroke="#aaa" stroke-width="1.5"/>
  <text x="629.5" y="388.5" font-size="12" font-family="Arial, Helvetica, sans-serif" text-anchor="middle" dominant-baseline="middle" fill="#333">ASSET_SLOT</text>
</g>
<g id="slot_motion_sequence" data-bbox="[918,368,393,87]" data-role="asset">
  <rect x="918" y="368" width="393" height="87" fill="#f8f8f8" stroke="#666" stroke-width="2" stroke-dasharray="6 4"/>
  <line x1="918" y1="368" x2="1311" y2="455" stroke="#aaa" stroke-width="1.5"/>
  <line x1="1311" y1="368" x2="918" y2="455" stroke="#aaa" stroke-width="1.5"/>
  <text x="1114.5" y="411.5" font-size="12" font-family="Arial, Helvetica, sans-serif" text-anchor="middle" dominant-baseline="middle" fill="#333">ASSET_SLOT</text>
</g>
<g id="slot_video_diffusion_icon" data-bbox="[573,548,75,75]" data-role="asset">
  <rect x="573" y="548" width="75" height="75" fill="#f8f8f8" stroke="#666" stroke-width="2" stroke-dasharray="6 4"/>
  <line x1="573" y1="548" x2="648" y2="623" stroke="#aaa" stroke-width="1.5"/>
  <line x1="648" y1="548" x2="573" y2="623" stroke="#aaa" stroke-width="1.5"/>
  <text x="610.5" y="585.5" font-size="12" font-family="Arial, Helvetica, sans-serif" text-anchor="middle" dominant-baseline="middle" fill="#333">ASSET_SLOT</text>
</g>
<g id="slot_generated_video_frames" data-bbox="[927,528,399,90]" data-role="asset">
  <rect x="927" y="528" width="399" height="90" fill="#f8f8f8" stroke="#666" stroke-width="2" stroke-dasharray="6 4"/>
  <line x1="927" y1="528" x2="1326" y2="618" stroke="#aaa" stroke-width="1.5"/>
  <line x1="1326" y1="528" x2="927" y2="618" stroke="#aaa" stroke-width="1.5"/>
  <text x="1126.5" y="573.0" font-size="12" font-family="Arial, Helvetica, sans-serif" text-anchor="middle" dominant-baseline="middle" fill="#333">ASSET_SLOT</text>
</g>
</svg>