<svg xmlns="http://www.w3.org/2000/svg" xmlns:xlink="http://www.w3.org/1999/xlink" width="1890" height="1210" viewBox="0 0 1890 1210">
  <defs>
    <marker id="arrowBlue" markerWidth="15" markerHeight="12" refX="13" refY="6" orient="auto"><path d="M0,0 L15,6 L0,12 Z" fill="#b7d9e5" stroke="#12304b" stroke-width="1"/></marker>
    <marker id="arrowDark" markerWidth="13" markerHeight="10" refX="11" refY="5" orient="auto"><path d="M0,0 L13,5 L0,10 Z" fill="#12304b"/></marker>
    <marker id="arrowGrey" markerWidth="12" markerHeight="10" refX="10" refY="5" orient="auto"><path d="M0,0 L12,5 L0,10 Z" fill="#bbb"/></marker>
    <marker id="arrowOrange" markerWidth="14" markerHeight="12" refX="12" refY="6" orient="auto"><path d="M0,0 L14,6 L0,12 Z" fill="#e79472" stroke="#6d3a2b" stroke-width="1"/></marker>
    <marker id="arrowBlack" markerWidth="12" markerHeight="10" refX="10" refY="5" orient="auto"><path d="M0,0 L12,5 L0,10 Z" fill="#111"/></marker>
    <style>
      .t { font-family: Arial, sans-serif; fill:#111; }
      .math { font-family: "Times New Roman", serif; font-style: italic; fill:#111; }
      .label { font-family: "Times New Roman", serif; font-style: italic; font-weight: 700; fill:#111; }
    </style>
  </defs>
  <rect x="0" y="0" width="1890" height="1210" fill="#ffffff"/>
  <rect x="4" y="14" width="1880" height="780" rx="18" fill="#eef3f8" stroke="#c6c6c6" stroke-width="6"/>
  <rect x="4" y="820" width="1880" height="376" rx="18" fill="#f8f8f8" stroke="#c6c6c6" stroke-width="6"/>
  <rect x="6" y="17" width="345" height="75" rx="7" fill="#e3f1e8"/>
<text x="87" y="74" font-size="40" font-family="Arial, sans-serif" fill="#111" font-weight="700" font-style="italic">Training</text>
  <rect x="6" y="826" width="346" height="82" rx="8" fill="#e9f0ef"/>
<text x="68" y="887" font-size="40" font-family="Arial, sans-serif" fill="#111" font-weight="700" font-style="italic">Inference</text>
  <rect x="350" y="16" width="684" height="781" fill="#edf3f8" opacity="0.90"/>
  <rect x="1033" y="17" width="555" height="781" fill="#fff4de" opacity="0.88"/>
  <rect x="1588" y="19" width="294" height="424" fill="#fff5de" opacity="0.95"/>
<text x="390" y="68" font-size="36" font-family="Arial, sans-serif" fill="#789cbd" font-weight="700" font-style="italic">Subject-Invariant Feature Extraction</text>
<text x="1070" y="68" font-size="36" font-family="Arial, sans-serif" fill="#d66628" font-weight="700" font-style="italic">Semantic-Specific Feature Extraction</text>
  <g id="svg_training_subject_uncertainty_icon" data-source-slot="slot_training_subject_uncertainty_icon" transform="translate(86 151)">
    <text x="23" y="50" font-family="Arial, sans-serif" font-size="42" fill="#111">?</text>
    <text x="75" y="46" font-family="Arial, sans-serif" font-size="58" fill="#d21e60" stroke="#111" stroke-width="1.4">?</text>
    <text x="142" y="50" font-family="Arial, sans-serif" font-size="42" fill="#111">?</text>
    <g stroke="#111" stroke-width="4" stroke-linecap="round" stroke-linejoin="round">
      <path d="M25 86 q0 24 22 24 q22 0 22 -24 v-10 q-22 -4 -44 0 z" fill="#efb58f"/>
      <path d="M68 83 q0 27 24 27 q24 0 24 -27 v-9 q-25 -8 -48 0 z" fill="#f8cf65"/>
      <path d="M115 85 q0 25 23 25 q23 0 23 -25 v-10 q-25 -6 -46 1 z" fill="#8dc4c4"/>
    </g>
  </g>
  <image id="raster_train_fmri_subjects" data-source-slot="slot_train_fmri_subjects" href="assets/raster_required/train_fmri_subjects.png" xlink:href="assets/raster_required/train_fmri_subjects.png" x="68" y="473" width="200" height="272" preserveAspectRatio="none"/>
  <image id="raster_semantic_cartoon_group" data-source-slot="slot_semantic_cartoon_group" href="assets/raster_required/semantic_cartoon_group.png" xlink:href="assets/raster_required/semantic_cartoon_group.png" x="1668" y="154" width="175" height="142" preserveAspectRatio="none"/>
  <image id="raster_visual_stimuli_stack" data-source-slot="slot_visual_stimuli_stack" href="assets/raster_required/visual_stimuli_stack.png" xlink:href="assets/raster_required/visual_stimuli_stack.png" x="1580" y="624" width="230" height="158" preserveAspectRatio="none"/>
<text x="111" y="318" font-size="30" font-family="Arial, sans-serif" fill="#111" font-weight="700" font-style="italic">Subject</text>
<text x="61" y="783" font-size="30" font-family="Arial, sans-serif" fill="#111">Train Subjects</text>
<text x="1645" y="315" font-size="30" font-family="Arial, sans-serif" fill="#111" font-weight="700" font-style="italic">Semantic</text>
<text x="1640" y="788" font-size="30" font-family="Arial, sans-serif" fill="#777" font-weight="700">Visual Stimuli</text>
  <path d="M311 495 L442 534 L442 632 L311 670 Z" fill="#d9edf7" stroke="#12304b" stroke-width="4"/>
<text x="347" y="596" font-size="34" font-family="Arial, sans-serif" fill="#111" font-weight="700">ViT</text>
  <path d="M633 675 L789 643 L789 761 L633 725 Z" fill="#d9edf7" stroke="#12304b" stroke-width="4"/>
<text x="663" y="715" font-size="26" font-family="Arial, sans-serif" fill="#111">Decoder</text>
  <rect x="347" y="140" width="94" height="50" rx="8" fill="#d9edf7" stroke="#0c2436" stroke-width="4"/>
<text x="383" y="174" font-size="26" font-family="Arial, sans-serif" fill="#111" font-weight="700">CLS</text>
  <rect x="331" y="315" width="103" height="77" rx="6" fill="#d9edf7" stroke="#0c2436" stroke-width="4"/>
  <rect x="331" y="315" width="103" height="38" rx="6" fill="#f4b6c4" stroke="#0c2436" stroke-width="4"/>
<text x="351" y="346" font-size="26" font-family="Arial, sans-serif" fill="#111" font-weight="700">GRL</text>
<text x="354" y="382" font-size="26" font-family="Arial, sans-serif" fill="#111" font-weight="700">DIS</text>
<text x="125" y="488" font-size="30" font-family="Arial, sans-serif" fill="#777" font-weight="700">fMRI</text>
<text x="883" y="786" font-size="26" font-family="Arial, sans-serif" fill="#777" font-weight="700">fMRI</text>
  <g id="svg_stack_E" data-source-slot="slot_stack_E" transform="translate(532 542)">
    <rect x="18" y="8" width="15" height="77" fill="#dce7f3" stroke="#17365f" stroke-width="3"/><line x1="21" y1="13" x2="21" y2="81" stroke="#2b4a77" stroke-width="1.2" opacity="0.65"/><rect x="40" y="8" width="15" height="77" fill="#dce7f3" stroke="#17365f" stroke-width="3"/><line x1="43" y1="13" x2="43" y2="81" stroke="#2b4a77" stroke-width="1.2" opacity="0.65"/><rect x="62" y="8" width="15" height="77" fill="#dce7f3" stroke="#17365f" stroke-width="3"/><line x1="65" y1="13" x2="65" y2="81" stroke="#2b4a77" stroke-width="1.2" opacity="0.65"/><rect x="84" y="8" width="15" height="77" fill="#dce7f3" stroke="#17365f" stroke-width="3"/><line x1="87" y1="13" x2="87" y2="81" stroke="#2b4a77" stroke-width="1.2" opacity="0.65"/><rect x="106" y="8" width="15" height="77" fill="#dce7f3" stroke="#17365f" stroke-width="3"/><line x1="109" y1="13" x2="109" y2="81" stroke="#2b4a77" stroke-width="1.2" opacity="0.65"/>
  </g>
  <g id="svg_stack_Ei" data-source-slot="slot_stack_Ei" transform="translate(526 318)">
    <rect x="18" y="8" width="15" height="78" fill="#dce7f3" stroke="#17365f" stroke-width="3"/><line x1="21" y1="13" x2="21" y2="82" stroke="#2b4a77" stroke-width="1.2" opacity="0.65"/><rect x="40" y="8" width="15" height="78" fill="#dce7f3" stroke="#17365f" stroke-width="3"/><line x1="43" y1="13" x2="43" y2="82" stroke="#2b4a77" stroke-width="1.2" opacity="0.65"/><rect x="62" y="8" width="15" height="78" fill="#dce7f3" stroke="#17365f" stroke-width="3"/><line x1="65" y1="13" x2="65" y2="82" stroke="#2b4a77" stroke-width="1.2" opacity="0.65"/><rect x="84" y="8" width="15" height="78" fill="#dce7f3" stroke="#17365f" stroke-width="3"/><line x1="87" y1="13" x2="87" y2="82" stroke="#2b4a77" stroke-width="1.2" opacity="0.65"/><rect x="106" y="8" width="15" height="78" fill="#dce7f3" stroke="#17365f" stroke-width="3"/><line x1="109" y1="13" x2="109" y2="82" stroke="#2b4a77" stroke-width="1.2" opacity="0.65"/>
  </g>
  <g id="svg_stack_Es" data-source-slot="slot_stack_Es" transform="translate(526 101)">
    <rect x="18" y="8" width="15" height="77" fill="#dce7f3" stroke="#17365f" stroke-width="3"/><line x1="21" y1="13" x2="21" y2="81" stroke="#2b4a77" stroke-width="1.2" opacity="0.65"/><rect x="40" y="8" width="15" height="77" fill="#dce7f3" stroke="#17365f" stroke-width="3"/><line x1="43" y1="13" x2="43" y2="81" stroke="#2b4a77" stroke-width="1.2" opacity="0.65"/><rect x="62" y="8" width="15" height="77" fill="#dce7f3" stroke="#17365f" stroke-width="3"/><line x1="65" y1="13" x2="65" y2="81" stroke="#2b4a77" stroke-width="1.2" opacity="0.65"/><rect x="84" y="8" width="15" height="77" fill="#dce7f3" stroke="#17365f" stroke-width="3"/><line x1="87" y1="13" x2="87" y2="81" stroke="#2b4a77" stroke-width="1.2" opacity="0.65"/><rect x="106" y="8" width="15" height="77" fill="#dce7f3" stroke="#17365f" stroke-width="3"/><line x1="109" y1="13" x2="109" y2="81" stroke="#2b4a77" stroke-width="1.2" opacity="0.65"/>
  </g>
  <g id="svg_stack_Fi" data-source-slot="slot_stack_Fi" transform="translate(1417 100)">
    <rect x="18" y="8" width="15" height="78" fill="#dce7f3" stroke="#17365f" stroke-width="3"/><line x1="21" y1="13" x2="21" y2="82" stroke="#2b4a77" stroke-width="1.2" opacity="0.65"/><rect x="40" y="8" width="15" height="78" fill="#dce7f3" stroke="#17365f" stroke-width="3"/><line x1="43" y1="13" x2="43" y2="82" stroke="#2b4a77" stroke-width="1.2" opacity="0.65"/><rect x="62" y="8" width="15" height="78" fill="#dce7f3" stroke="#17365f" stroke-width="3"/><line x1="65" y1="13" x2="65" y2="82" stroke="#2b4a77" stroke-width="1.2" opacity="0.65"/><rect x="84" y="8" width="15" height="78" fill="#dce7f3" stroke="#17365f" stroke-width="3"/><line x1="87" y1="13" x2="87" y2="82" stroke="#2b4a77" stroke-width="1.2" opacity="0.65"/><rect x="106" y="8" width="15" height="78" fill="#dce7f3" stroke="#17365f" stroke-width="3"/><line x1="109" y1="13" x2="109" y2="82" stroke="#2b4a77" stroke-width="1.2" opacity="0.65"/>
  </g>
  <g id="svg_stack_Fs" data-source-slot="slot_stack_Fs" transform="translate(1417 317)">
    <rect x="18" y="8" width="15" height="80" fill="#dce7f3" stroke="#17365f" stroke-width="3"/><line x1="21" y1="13" x2="21" y2="84" stroke="#2b4a77" stroke-width="1.2" opacity="0.65"/><rect x="40" y="8" width="15" height="80" fill="#ffe986" stroke="#17365f" stroke-width="3"/><line x1="43" y1="13" x2="43" y2="84" stroke="#2b4a77" stroke-width="1.2" opacity="0.65"/><rect x="62" y="8" width="15" height="80" fill="#dce7f3" stroke="#17365f" stroke-width="3"/><line x1="65" y1="13" x2="65" y2="84" stroke="#2b4a77" stroke-width="1.2" opacity="0.65"/><rect x="84" y="8" width="15" height="80" fill="#ffe986" stroke="#17365f" stroke-width="3"/><line x1="87" y1="13" x2="87" y2="84" stroke="#2b4a77" stroke-width="1.2" opacity="0.65"/><rect x="106" y="8" width="15" height="80" fill="#dce7f3" stroke="#17365f" stroke-width="3"/><line x1="109" y1="13" x2="109" y2="84" stroke="#2b4a77" stroke-width="1.2" opacity="0.65"/>
  </g>
  <g id="svg_stack_F" data-source-slot="slot_stack_F" transform="translate(1417 541)">
    <rect x="18" y="8" width="15" height="78" fill="#dce7f3" stroke="#17365f" stroke-width="3"/><line x1="21" y1="13" x2="21" y2="82" stroke="#2b4a77" stroke-width="1.2" opacity="0.65"/><rect x="40" y="8" width="15" height="78" fill="#ffe986" stroke="#17365f" stroke-width="3"/><line x1="43" y1="13" x2="43" y2="82" stroke="#2b4a77" stroke-width="1.2" opacity="0.65"/><rect x="62" y="8" width="15" height="78" fill="#dce7f3" stroke="#17365f" stroke-width="3"/><line x1="65" y1="13" x2="65" y2="82" stroke="#2b4a77" stroke-width="1.2" opacity="0.65"/><rect x="84" y="8" width="15" height="78" fill="#ffe986" stroke="#17365f" stroke-width="3"/><line x1="87" y1="13" x2="87" y2="82" stroke="#2b4a77" stroke-width="1.2" opacity="0.65"/><rect x="106" y="8" width="15" height="78" fill="#dce7f3" stroke="#17365f" stroke-width="3"/><line x1="109" y1="13" x2="109" y2="82" stroke="#2b4a77" stroke-width="1.2" opacity="0.65"/>
  </g>
<text x="222" y="149" font-size="40" font-family="Arial, sans-serif" fill="#80a4ca" font-style="italic">L</text>
<text x="249" y="132" font-size="22" font-family="Arial, sans-serif" fill="#80a4ca" font-style="italic">E</text>
<text x="249" y="151" font-size="22" font-family="Arial, sans-serif" fill="#80a4ca" font-style="italic">cls</text>
<text x="220" y="393" font-size="40" font-family="Arial, sans-serif" fill="#80a4ca" font-style="italic">L</text>
<text x="247" y="376" font-size="22" font-family="Arial, sans-serif" fill="#80a4ca" font-style="italic">E</text>
<text x="247" y="395" font-size="22" font-family="Arial, sans-serif" fill="#80a4ca" font-style="italic">dis</text>
<text x="634" y="216" font-size="40" font-family="Arial, sans-serif" fill="#111" font-weight="700" font-style="italic">E</text>
<text x="661" y="232" font-size="26" font-family="Arial, sans-serif" fill="#111" font-style="italic">s</text>
<text x="648" y="435" font-size="40" font-family="Arial, sans-serif" fill="#111" font-weight="700" font-style="italic">E</text>
<text x="675" y="450" font-size="26" font-family="Arial, sans-serif" fill="#111" font-style="italic">i</text>
<text x="548" y="500" font-size="40" font-family="Arial, sans-serif" fill="#111" font-style="italic">F</text>
<text x="580" y="514" font-size="24" font-family="Arial, sans-serif" fill="#111" font-style="italic">i</text>
<text x="620" y="498" font-size="40" font-family="Arial, sans-serif" fill="#111" font-style="italic">(·)</text>
<text x="576" y="646" font-size="40" font-family="Arial, sans-serif" fill="#111" font-style="italic">E</text>
  <path d="M442 155 L526 155" stroke="#c0c0c0" stroke-width="8" fill="none" marker-end="url(#arrowGrey)"/>
  <path d="M434 355 L526 355" stroke="#c0c0c0" stroke-width="8" fill="none" marker-end="url(#arrowGrey)"/>
  <path d="M266 225 L314 165" stroke="#1b4e60" stroke-width="4" fill="none" marker-end="url(#arrowDark)"/>
  <path d="M267 253 L316 318" stroke="#1b4e60" stroke-width="4" fill="none" marker-end="url(#arrowDark)"/>
  <path d="M314 548 L314 548 L268 548" stroke="#b7d9e5" stroke-width="10" fill="none" marker-end="url(#arrowBlue)"/>
  <path d="M442 551 L533 551" stroke="#b7d9e5" stroke-width="10" fill="none" marker-end="url(#arrowBlue)"/>
  <path d="M583 640 L583 412" stroke="#0b5a76" stroke-width="8" fill="none" marker-end="url(#arrowDark)"/>
  <path d="M583 759 L615 759 L615 723" stroke="#aaa" stroke-width="5" fill="none" marker-end="url(#arrowGrey)"/>
  <path d="M647 160 L925 160" stroke="#b7d9e5" stroke-width="10" fill="none" marker-end="url(#arrowBlue)"/>
  <path d="M648 360 L925 360" stroke="#b7d9e5" stroke-width="10" fill="none" marker-end="url(#arrowBlue)"/>
  <path d="M648 560 L925 560" stroke="#b7d9e5" stroke-width="10" fill="none" marker-end="url(#arrowBlue)"/>
<text x="625" y="281" font-size="30" font-family="Arial, sans-serif" fill="#111" font-weight="700" font-style="italic">Difference</text>
  <circle cx="583" cy="265" r="20" fill="#f4f4f4" stroke="#17365f" stroke-width="6"/>
  <line x1="556" y1="265" x2="610" y2="265" stroke="#111" stroke-width="5"/>
  <rect x="940" y="102" width="185" height="97" rx="15" fill="#fff3be" stroke="#12304b" stroke-width="4"/>
<text x="1029" y="145" font-size="30" font-family="Arial, sans-serif" text-anchor="middle" fill="#111" font-weight="700">Vision</text>
<text x="1029" y="180" font-size="30" font-family="Arial, sans-serif" text-anchor="middle" fill="#111" font-weight="700">Projector</text>
<text x="985" y="235" font-size="42" font-family="Arial, sans-serif" fill="#111" font-style="italic">P</text>
<text x="1030" y="235" font-size="42" font-family="Arial, sans-serif" fill="#111" font-style="italic">(·)</text>
  <rect x="940" y="319" width="185" height="97" rx="15" fill="#fff3be" stroke="#12304b" stroke-width="4"/>
<text x="1029" y="362" font-size="30" font-family="Arial, sans-serif" text-anchor="middle" fill="#111" font-weight="700">Vision</text>
<text x="1029" y="397" font-size="30" font-family="Arial, sans-serif" text-anchor="middle" fill="#111" font-weight="700">Projector</text>
<text x="985" y="452" font-size="42" font-family="Arial, sans-serif" fill="#111" font-style="italic">P</text>
<text x="1030" y="452" font-size="42" font-family="Arial, sans-serif" fill="#111" font-style="italic">(·)</text>
  <rect x="940" y="547" width="185" height="97" rx="15" fill="#fff3be" stroke="#12304b" stroke-width="4"/>
<text x="1029" y="590" font-size="30" font-family="Arial, sans-serif" text-anchor="middle" fill="#111" font-weight="700">Vision</text>
<text x="1029" y="625" font-size="30" font-family="Arial, sans-serif" text-anchor="middle" fill="#111" font-weight="700">Projector</text>
<text x="985" y="680" font-size="42" font-family="Arial, sans-serif" fill="#111" font-style="italic">P</text>
<text x="1030" y="680" font-size="42" font-family="Arial, sans-serif" fill="#111" font-style="italic">(·)</text>
  <rect x="1236" y="162" width="96" height="51" rx="7" fill="#f1b2ac" stroke="#082438" stroke-width="4"/>
<text x="1266" y="197" font-size="28" font-family="Arial, sans-serif" fill="#111" font-weight="700">GRL</text>
  <path d="M1125 160 L1417 160" stroke="#f2e6b5" stroke-width="10" fill="none" marker-end="url(#arrowDark)"/>
  <path d="M1125 360 L1417 360" stroke="#f2e6b5" stroke-width="10" fill="none" marker-end="url(#arrowDark)"/>
  <path d="M1125 560 L1417 560" stroke="#f2e6b5" stroke-width="10" fill="none" marker-end="url(#arrowDark)"/>
  <path d="M1418 153 L1334 153" stroke="#f2e6b5" stroke-width="7" fill="none"/>
<text x="1388" y="214" font-size="40" font-family="Arial, sans-serif" fill="#111" font-weight="700" font-style="italic">F</text>
<text x="1415" y="230" font-size="24" font-family="Arial, sans-serif" fill="#111" font-style="italic">i</text>
<text x="1393" y="432" font-size="40" font-family="Arial, sans-serif" fill="#111" font-weight="700" font-style="italic">F</text>
<text x="1420" y="448" font-size="24" font-family="Arial, sans-serif" fill="#111" font-style="italic">s</text>
<text x="1474" y="651" font-size="40" font-family="Arial, sans-serif" fill="#111" font-weight="700" font-style="italic">F</text>
  <path d="M1595 190 L1650 247" stroke="#1b4e60" stroke-width="4" fill="none" marker-end="url(#arrowDark)"/>
  <path d="M1664 190 L1602 160" stroke="#1b4e60" stroke-width="4" fill="none" marker-end="url(#arrowDark)"/>
  <path d="M1595 360 L1652 306" stroke="#1b4e60" stroke-width="4" fill="none" marker-end="url(#arrowDark)"/>
  <path d="M1662 360 L1600 395" stroke="#1b4e60" stroke-width="4" fill="none" marker-end="url(#arrowDark)"/>
<text x="1625" y="140" font-size="40" font-family="Arial, sans-serif" fill="#d99a00" font-style="italic">L</text>
<text x="1652" y="124" font-size="22" font-family="Arial, sans-serif" fill="#d99a00" font-style="italic">F</text>
<text x="1652" y="146" font-size="28" font-family="Arial, sans-serif" fill="#d99a00" font-style="italic">inv</text>
<text x="1625" y="380" font-size="40" font-family="Arial, sans-serif" fill="#d99a00" font-style="italic">L</text>
<text x="1652" y="365" font-size="22" font-family="Arial, sans-serif" fill="#d99a00" font-style="italic">F</text>
<text x="1652" y="390" font-size="28" font-family="Arial, sans-serif" fill="#d99a00" font-style="italic">spe</text>
  <rect x="1615" y="461" width="215" height="69" rx="8" fill="#d9edf7" stroke="#0b2a40" stroke-width="5"/>
  <circle cx="1652" cy="497" r="17" fill="#ffe36e" stroke="#0b2a40" stroke-width="4"/>
  <circle cx="1720" cy="497" r="18" fill="#efb58f" stroke="#0b2a40" stroke-width="4"/>
  <circle cx="1788" cy="497" r="19" fill="#f08a24" stroke="#0b2a40" stroke-width="4"/>
  <path d="M1669 497 L1698 497" stroke="#df8c68" stroke-width="7" fill="none" marker-end="url(#arrowOrange)"/>
  <path d="M1738 497 L1765 497" stroke="#df8c68" stroke-width="7" fill="none" marker-end="url(#arrowOrange)"/>
<text x="1648" y="565" font-size="40" font-family="Arial, sans-serif" fill="#d66628" font-style="italic">L</text>
<text x="1680" y="579" font-size="34" font-family="Arial, sans-serif" fill="#d66628" font-style="italic">prior</text>
  <path d="M1788 530 L1788 621" stroke="#12304b" stroke-width="6" fill="none" marker-end="url(#arrowDark)"/>
  <path d="M1745 621 L1830 621 L1830 673" stroke="#111" stroke-width="4" fill="none"/>
  <g id="svg_training_visual_stimuli_graph" data-source-slot="slot_training_visual_stimuli_graph" transform="translate(1320 650)">
    <defs>
      <marker id="tinyGraphArrow" markerWidth="6" markerHeight="6" refX="5" refY="3" orient="auto"><path d="M0,0 L6,3 L0,6 Z" fill="#aaa"/></marker>
    </defs>
    <g stroke="#aaa" stroke-width="3" marker-end="url(#tinyGraphArrow)">
      <path d="M25 38 L57 58"/>
      <path d="M55 60 L83 36"/>
      <path d="M55 60 L60 100"/>
      <path d="M25 38 L58 101"/>
      <path d="M87 38 L60 101"/>
    </g>
    <circle cx="24" cy="38" r="13" fill="#9bc876" stroke="#1d3c54" stroke-width="4"/>
    <circle cx="85" cy="38" r="15" fill="#ffe168" stroke="#1d3c54" stroke-width="4"/>
    <circle cx="48" cy="72" r="12" fill="#93bf79" stroke="#1d3c54" stroke-width="4"/>
    <circle cx="60" cy="105" r="16" fill="#e57f2f" stroke="#1d3c54" stroke-width="4"/>
  </g>
<text x="1187" y="694" font-size="26" font-family="Arial, sans-serif" fill="#111">Visual stimuli</text>
<text x="1187" y="748" font-size="26" font-family="Arial, sans-serif" fill="#111">Image labels</text>
<text x="1187" y="796" font-size="26" font-family="Arial, sans-serif" fill="#111">Image captions</text>
  <path d="M1500 412 C1500 520 1510 610 1420 660" stroke="#bfbfbf" stroke-width="5" fill="none" marker-end="url(#arrowGrey)" opacity="0.9"/>
  <path d="M1500 412 L1500 470 C1500 505 1550 486 1585 498" stroke="#df8c68" stroke-width="8" fill="none" marker-end="url(#arrowOrange)"/>
  <circle cx="1476" cy="265" r="20" fill="#f4f4f4" stroke="#17365f" stroke-width="6"/>
  <line x1="1450" y1="265" x2="1502" y2="265" stroke="#111" stroke-width="5"/>
  <image id="raster_unseen_subject_fmri" data-source-slot="slot_unseen_subject_fmri" href="assets/raster_required/unseen_subject_fmri.png" xlink:href="assets/raster_required/unseen_subject_fmri.png" x="76" y="956" width="255" height="175" preserveAspectRatio="none"/>
  <image id="raster_reconstructed_images" data-source-slot="slot_reconstructed_images" href="assets/raster_required/reconstructed_images.png" xlink:href="assets/raster_required/reconstructed_images.png" x="1665" y="960" width="190" height="150" preserveAspectRatio="none"/>
  <g id="svg_inference_snowflake_vision" data-source-slot="slot_inference_snowflake_vision" transform="translate(890 952)">
    <text x="27.5" y="38" font-family="Arial, sans-serif" font-size="44" text-anchor="middle" fill="#4d96bf">❄</text>
  </g>
  <g id="svg_inference_snowflake_sdxl" data-source-slot="slot_inference_snowflake_sdxl" transform="translate(1490 951)">
    <text x="27.5" y="38" font-family="Arial, sans-serif" font-size="44" text-anchor="middle" fill="#4d96bf">❄</text>
  </g>
<text x="57" y="1170" font-size="29" font-family="Arial, sans-serif" fill="#111">Test</text>
<text x="120" y="1170" font-size="29" font-family="Arial, sans-serif" fill="#111" font-weight="700">Unseen</text>
<text x="236" y="1170" font-size="29" font-family="Arial, sans-serif" fill="#111">Subject</text>
  <path d="M337 1030 L425 1030" stroke="#fff" stroke-width="15" fill="none" marker-end="url(#arrowDark)"/>
  <path d="M337 1030 L425 1030" stroke="#222" stroke-width="4" fill="none" marker-end="url(#arrowBlack)"/>
  <path d="M438 963 L580 1006 L580 1101 L438 1142 Z" fill="#d9edf7" stroke="#12304b" stroke-width="4"/>
<text x="485" y="1059" font-size="34" font-family="Arial, sans-serif" fill="#111" font-weight="700">ViT</text>
  <path d="M580 1030 L690 1030" stroke="#fff" stroke-width="15" fill="none" marker-end="url(#arrowDark)"/>
  <path d="M580 1030 L690 1030" stroke="#222" stroke-width="4" fill="none" marker-end="url(#arrowBlack)"/>
<text x="602" y="989" font-size="42" font-family="Arial, sans-serif" fill="#111" font-style="italic">F</text>
<text x="632" y="1003" font-size="24" font-family="Arial, sans-serif" fill="#111" font-style="italic">i</text>
<text x="658" y="988" font-size="42" font-family="Arial, sans-serif" fill="#111" font-style="italic">(·)</text>
  <rect x="720" y="1004" width="220" height="62" rx="12" fill="#fff3be" stroke="#12304b" stroke-width="4"/>
<text x="829" y="1037" font-size="28" font-family="Arial, sans-serif" text-anchor="middle" fill="#111" font-weight="700">Vision</text>
<text x="829" y="1068" font-size="28" font-family="Arial, sans-serif" text-anchor="middle" fill="#111" font-weight="700">Projector</text>
<text x="780" y="977" font-size="42" font-family="Arial, sans-serif" fill="#111" font-style="italic">P</text>
<text x="824" y="978" font-size="42" font-family="Arial, sans-serif" fill="#111" font-style="italic">(·)</text>
  <path d="M940 1032 L1065 1032" stroke="#fff" stroke-width="15" fill="none" marker-end="url(#arrowDark)"/>
  <path d="M940 1032 L1065 1032" stroke="#222" stroke-width="4" fill="none" marker-end="url(#arrowBlack)"/>
  <rect x="1075" y="1014" width="215" height="56" rx="8" fill="#d9edf7" stroke="#0b2a40" stroke-width="5"/>
  <circle cx="1110" cy="1042" r="16" fill="#ffe36e" stroke="#0b2a40" stroke-width="4"/>
  <circle cx="1180" cy="1042" r="17" fill="#efb58f" stroke="#0b2a40" stroke-width="4"/>
  <circle cx="1252" cy="1042" r="18" fill="#f08a24" stroke="#0b2a40" stroke-width="4"/>
  <path d="M1126 1042 L1155 1042" stroke="#df8c68" stroke-width="7" fill="none" marker-end="url(#arrowOrange)"/>
  <path d="M1198 1042 L1228 1042" stroke="#df8c68" stroke-width="7" fill="none" marker-end="url(#arrowOrange)"/>
<text x="1064" y="1133" font-size="34" font-family="Arial, sans-serif" fill="#111" font-weight="700">Diffusion Prior</text>
  <path d="M1290 1030 L1405 1030" stroke="#fff" stroke-width="15" fill="none" marker-end="url(#arrowDark)"/>
  <path d="M1290 1030 L1405 1030" stroke="#222" stroke-width="4" fill="none" marker-end="url(#arrowBlack)"/>
  <path d="M1420 963 L1548 1006 L1548 1101 L1420 1142 Z" fill="#fde5d6" stroke="#12304b" stroke-width="4"/>
<text x="1454" y="1059" font-size="32" font-family="Arial, sans-serif" fill="#111" font-weight="700">SDXL</text>
  <path d="M1548 1030 L1648 1030" stroke="#fff" stroke-width="15" fill="none" marker-end="url(#arrowDark)"/>
  <path d="M1548 1030 L1648 1030" stroke="#222" stroke-width="4" fill="none" marker-end="url(#arrowBlack)"/>
<text x="1600" y="932" font-size="32" font-family="Arial, sans-serif" fill="#111">Reconstructed</text>
<text x="1600" y="970" font-size="32" font-family="Arial, sans-serif" fill="#111">Images</text>
</svg>