<svg xmlns="http://www.w3.org/2000/svg" width="1890" height="1210" viewBox="0 0 1890 1210">
  <g id="svg_training_subject_uncertainty_icon" data-source-slot="slot_training_subject_uncertainty_icon" transform="translate(86 151)">
    <text x="23" y="50" font-family="Arial, sans-serif" font-size="42" fill="#111">?</text>
    <text x="75" y="46" font-family="Arial, sans-serif" font-size="58" fill="#d21e60" stroke="#111" stroke-width="1.4">?</text>
    <text x="142" y="50" font-family="Arial, sans-serif" font-size="42" fill="#111">?</text>
    <g stroke="#111" stroke-width="4" stroke-linecap="round" stroke-linejoin="round">
      <path d="M25 86 q0 24 22 24 q22 0 22 -24 v-10 q-22 -4 -44 0 z" fill="#efb58f"/>
      <path d="M68 83 q0 27 24 27 q24 0 24 -27 v-9 q-25 -8 -48 0 z" fill="#f8cf65"/>
      <path d="M115 85 q0 25 23 25 q23 0 23 -25 v-10 q-25 -6 -46 1 z" fill="#8dc4c4"/>
    </g>
  </g>
  <g id="svg_stack_E" data-source-slot="slot_stack_E" transform="translate(532 542)">
    <rect x="18" y="8" width="15" height="77" fill="#dce7f3" stroke="#17365f" stroke-width="3"/><line x1="21" y1="13" x2="21" y2="81" stroke="#2b4a77" stroke-width="1.2" opacity="0.65"/><rect x="40" y="8" width="15" height="77" fill="#dce7f3" stroke="#17365f" stroke-width="3"/><line x1="43" y1="13" x2="43" y2="81" stroke="#2b4a77" stroke-width="1.2" opacity="0.65"/><rect x="62" y="8" width="15" height="77" fill="#dce7f3" stroke="#17365f" stroke-width="3"/><line x1="65" y1="13" x2="65" y2="81" stroke="#2b4a77" stroke-width="1.2" opacity="0.65"/><rect x="84" y="8" width="15" height="77" fill="#dce7f3" stroke="#17365f" stroke-width="3"/><line x1="87" y1="13" x2="87" y2="81" stroke="#2b4a77" stroke-width="1.2" opacity="0.65"/><rect x="106" y="8" width="15" height="77" fill="#dce7f3" stroke="#17365f" stroke-width="3"/><line x1="109" y1="13" x2="109" y2="81" stroke="#2b4a77" stroke-width="1.2" opacity="0.65"/>
  </g>
  <g id="svg_stack_Ei" data-source-slot="slot_stack_Ei" transform="translate(526 318)">
    <rect x="18" y="8" width="15" height="78" fill="#dce7f3" stroke="#17365f" stroke-width="3"/><line x1="21" y1="13" x2="21" y2="82" stroke="#2b4a77" stroke-width="1.2" opacity="0.65"/><rect x="40" y="8" width="15" height="78" fill="#dce7f3" stroke="#17365f" stroke-width="3"/><line x1="43" y1="13" x2="43" y2="82" stroke="#2b4a77" stroke-width="1.2" opacity="0.65"/><rect x="62" y="8" width="15" height="78" fill="#dce7f3" stroke="#17365f" stroke-width="3"/><line x1="65" y1="13" x2="65" y2="82" stroke="#2b4a77" stroke-width="1.2" opacity="0.65"/><rect x="84" y="8" width="15" height="78" fill="#dce7f3" stroke="#17365f" stroke-width="3"/><line x1="87" y1="13" x2="87" y2="82" stroke="#2b4a77" stroke-width="1.2" opacity="0.65"/><rect x="106" y="8" width="15" height="78" fill="#dce7f3" stroke="#17365f" stroke-width="3"/><line x1="109" y1="13" x2="109" y2="82" stroke="#2b4a77" stroke-width="1.2" opacity="0.65"/>
  </g>
  <g id="svg_stack_Es" data-source-slot="slot_stack_Es" transform="translate(526 101)">
    <rect x="18" y="8" width="15" height="77" fill="#dce7f3" stroke="#17365f" stroke-width="3"/><line x1="21" y1="13" x2="21" y2="81" stroke="#2b4a77" stroke-width="1.2" opacity="0.65"/><rect x="40" y="8" width="15" height="77" fill="#dce7f3" stroke="#17365f" stroke-width="3"/><line x1="43" y1="13" x2="43" y2="81" stroke="#2b4a77" stroke-width="1.2" opacity="0.65"/><rect x="62" y="8" width="15" height="77" fill="#dce7f3" stroke="#17365f" stroke-width="3"/><line x1="65" y1="13" x2="65" y2="81" stroke="#2b4a77" stroke-width="1.2" opacity="0.65"/><rect x="84" y="8" width="15" height="77" fill="#dce7f3" stroke="#17365f" stroke-width="3"/><line x1="87" y1="13" x2="87" y2="81" stroke="#2b4a77" stroke-width="1.2" opacity="0.65"/><rect x="106" y="8" width="15" height="77" fill="#dce7f3" stroke="#17365f" stroke-width="3"/><line x1="109" y1="13" x2="109" y2="81" stroke="#2b4a77" stroke-width="1.2" opacity="0.65"/>
  </g>
  <g id="svg_stack_Fi" data-source-slot="slot_stack_Fi" transform="translate(1417 100)">
    <rect x="18" y="8" width="15" height="78" fill="#dce7f3" stroke="#17365f" stroke-width="3"/><line x1="21" y1="13" x2="21" y2="82" stroke="#2b4a77" stroke-width="1.2" opacity="0.65"/><rect x="40" y="8" width="15" height="78" fill="#dce7f3" stroke="#17365f" stroke-width="3"/><line x1="43" y1="13" x2="43" y2="82" stroke="#2b4a77" stroke-width="1.2" opacity="0.65"/><rect x="62" y="8" width="15" height="78" fill="#dce7f3" stroke="#17365f" stroke-width="3"/><line x1="65" y1="13" x2="65" y2="82" stroke="#2b4a77" stroke-width="1.2" opacity="0.65"/><rect x="84" y="8" width="15" height="78" fill="#dce7f3" stroke="#17365f" stroke-width="3"/><line x1="87" y1="13" x2="87" y2="82" stroke="#2b4a77" stroke-width="1.2" opacity="0.65"/><rect x="106" y="8" width="15" height="78" fill="#dce7f3" stroke="#17365f" stroke-width="3"/><line x1="109" y1="13" x2="109" y2="82" stroke="#2b4a77" stroke-width="1.2" opacity="0.65"/>
  </g>
  <g id="svg_stack_Fs" data-source-slot="slot_stack_Fs" transform="translate(1417 317)">
    <rect x="18" y="8" width="15" height="80" fill="#dce7f3" stroke="#17365f" stroke-width="3"/><line x1="21" y1="13" x2="21" y2="84" stroke="#2b4a77" stroke-width="1.2" opacity="0.65"/><rect x="40" y="8" width="15" height="80" fill="#ffe986" stroke="#17365f" stroke-width="3"/><line x1="43" y1="13" x2="43" y2="84" stroke="#2b4a77" stroke-width="1.2" opacity="0.65"/><rect x="62" y="8" width="15" height="80" fill="#dce7f3" stroke="#17365f" stroke-width="3"/><line x1="65" y1="13" x2="65" y2="84" stroke="#2b4a77" stroke-width="1.2" opacity="0.65"/><rect x="84" y="8" width="15" height="80" fill="#ffe986" stroke="#17365f" stroke-width="3"/><line x1="87" y1="13" x2="87" y2="84" stroke="#2b4a77" stroke-width="1.2" opacity="0.65"/><rect x="106" y="8" width="15" height="80" fill="#dce7f3" stroke="#17365f" stroke-width="3"/><line x1="109" y1="13" x2="109" y2="84" stroke="#2b4a77" stroke-width="1.2" opacity="0.65"/>
  </g>
  <g id="svg_stack_F" data-source-slot="slot_stack_F" transform="translate(1417 541)">
    <rect x="18" y="8" width="15" height="78" fill="#dce7f3" stroke="#17365f" stroke-width="3"/><line x1="21" y1="13" x2="21" y2="82" stroke="#2b4a77" stroke-width="1.2" opacity="0.65"/><rect x="40" y="8" width="15" height="78" fill="#ffe986" stroke="#17365f" stroke-width="3"/><line x1="43" y1="13" x2="43" y2="82" stroke="#2b4a77" stroke-width="1.2" opacity="0.65"/><rect x="62" y="8" width="15" height="78" fill="#dce7f3" stroke="#17365f" stroke-width="3"/><line x1="65" y1="13" x2="65" y2="82" stroke="#2b4a77" stroke-width="1.2" opacity="0.65"/><rect x="84" y="8" width="15" height="78" fill="#ffe986" stroke="#17365f" stroke-width="3"/><line x1="87" y1="13" x2="87" y2="82" stroke="#2b4a77" stroke-width="1.2" opacity="0.65"/><rect x="106" y="8" width="15" height="78" fill="#dce7f3" stroke="#17365f" stroke-width="3"/><line x1="109" y1="13" x2="109" y2="82" stroke="#2b4a77" stroke-width="1.2" opacity="0.65"/>
  </g>
  <g id="svg_training_visual_stimuli_graph" data-source-slot="slot_training_visual_stimuli_graph" transform="translate(1320 650)">
    <defs>
      <marker id="tinyGraphArrow" markerWidth="6" markerHeight="6" refX="5" refY="3" orient="auto"><path d="M0,0 L6,3 L0,6 Z" fill="#aaa"/></marker>
    </defs>
    <g stroke="#aaa" stroke-width="3" marker-end="url(#tinyGraphArrow)">
      <path d="M25 38 L57 58"/>
      <path d="M55 60 L83 36"/>
      <path d="M55 60 L60 100"/>
      <path d="M25 38 L58 101"/>
      <path d="M87 38 L60 101"/>
    </g>
    <circle cx="24" cy="38" r="13" fill="#9bc876" stroke="#1d3c54" stroke-width="4"/>
    <circle cx="85" cy="38" r="15" fill="#ffe168" stroke="#1d3c54" stroke-width="4"/>
    <circle cx="48" cy="72" r="12" fill="#93bf79" stroke="#1d3c54" stroke-width="4"/>
    <circle cx="60" cy="105" r="16" fill="#e57f2f" stroke="#1d3c54" stroke-width="4"/>
  </g>
  <g id="svg_inference_snowflake_vision" data-source-slot="slot_inference_snowflake_vision" transform="translate(890 952)">
    <text x="27.5" y="38" font-family="Arial, sans-serif" font-size="44" text-anchor="middle" fill="#4d96bf">❄</text>
  </g>
  <g id="svg_inference_snowflake_sdxl" data-source-slot="slot_inference_snowflake_sdxl" transform="translate(1490 951)">
    <text x="27.5" y="38" font-family="Arial, sans-serif" font-size="44" text-anchor="middle" fill="#4d96bf">❄</text>
  </g>
</svg>
