<svg xmlns="http://www.w3.org/2000/svg" xmlns:xlink="http://www.w3.org/1999/xlink" width="1905" height="1102" viewBox="0 0 1905 1102">
<defs>
  <marker id="arrow-red" markerWidth="14" markerHeight="12" refX="12" refY="6" orient="auto" markerUnits="strokeWidth">
    <path d="M0,0 L12,6 L0,12 Z" fill="#c6202b"/>
  </marker>
  <marker id="arrow-blue" markerWidth="14" markerHeight="12" refX="12" refY="6" orient="auto" markerUnits="strokeWidth">
    <path d="M0,0 L12,6 L0,12 Z" fill="#0034ff"/>
  </marker>
  <marker id="arrow-green" markerWidth="14" markerHeight="12" refX="12" refY="6" orient="auto" markerUnits="strokeWidth">
    <path d="M0,0 L12,6 L0,12 Z" fill="#0a6f39"/>
  </marker>
  <linearGradient id="bluefade" x1="0" y1="0" x2="0" y2="1">
    <stop offset="0" stop-color="#1594d2"/>
    <stop offset="1" stop-color="#d9e4ff"/>
  </linearGradient>
  <linearGradient id="pinkfade" x1="0" y1="0" x2="0" y2="1">
    <stop offset="0" stop-color="#ff6ba7"/>
    <stop offset="1" stop-color="#fdeaf2"/>
  </linearGradient>
</defs>
<rect width="1905" height="1102" fill="#ffffff"/>

<rect x="17" y="16" width="1871" height="528" rx="13" ry="13" fill="none" stroke="#000" stroke-width="2.2" stroke-dasharray="9 4 2 4"/>
<rect x="17" y="122" width="952" height="421" fill="#f2f2fb"/>
<rect x="969" y="122" width="918" height="421" rx="8" ry="8" fill="#eff8ef"/>
<line x1="17" y1="544" x2="1888" y2="544" stroke="#000" stroke-width="2" stroke-dasharray="9 4 2 4"/>
<line x1="17" y1="614" x2="1888" y2="614" stroke="#000" stroke-width="2" stroke-dasharray="9 4 2 4"/>
<rect x="17" y="614" width="1871" height="485" rx="13" ry="13" fill="none" stroke="#000" stroke-width="2.2" stroke-dasharray="9 4 2 4"/>
<rect x="17" y="667" width="1871" height="432" fill="#fff4f5"/>

<text x="44" y="78" font-size="38" font-family="'Courier New', monospace" font-weight="700" fill="#000" text-anchor="start" letter-spacing="7">Sample Selection</text>
<text x="600" y="60" font-size="32" font-family="'Courier New', monospace" font-weight="700" text-anchor="start" letter-spacing="3"><tspan fill="#000">Explore the effect of </tspan><tspan fill="#e01921">triggers</tspan><tspan fill="#000"> on </tspan><tspan fill="#e01921">sample selection</tspan></text>
<text x="535" y="107" font-size="32" font-family="'Courier New', monospace" font-weight="700" text-anchor="start" letter-spacing="3"><tspan fill="#000">via the enhancement of </tspan><tspan fill="#002ad9">attack success rate</tspan><tspan fill="#000"> and </tspan><tspan fill="#0a6f39">stealthiness</tspan><tspan fill="#000">.</tspan></text>
<text x="44" y="158" font-size="32" font-family="Georgia, 'Times New Roman', serif" font-weight="700" fill="#0000bb" text-anchor="start">Component A</text>
<text x="57" y="207" font-size="27" font-family="Georgia, 'Times New Roman', serif" font-weight="700" fill="#bc1e2d" text-anchor="start" letter-spacing="4">highlight</text>
<text x="34" y="256" font-size="26" font-family="Georgia, 'Times New Roman', serif" font-weight="700" fill="#0b0c6e" text-anchor="start" letter-spacing="1">large trigger scale</text>
<text x="30" y="486" font-size="26" font-family="Georgia, 'Times New Roman', serif" font-weight="700" fill="#0b0c6e" text-anchor="start" letter-spacing="1">small trigger scale</text>
<text x="55" y="527" font-size="27" font-family="Georgia, 'Times New Roman', serif" font-weight="700" fill="#bc1e2d" text-anchor="start" letter-spacing="4">highlight</text>
<path d="M205 226 L205 184 L302 184" fill="none" stroke="#c6202b" stroke-width="3" marker-start="url(#arrow-red)" marker-end="url(#arrow-red)"/>
<path d="M205 493 L205 536 L302 536" fill="none" stroke="#c6202b" stroke-width="3" marker-start="url(#arrow-red)" marker-end="url(#arrow-red)"/>
<image id="raster_componentA_large_trigger_texture" data-source-slot="slot_componentA_large_trigger_texture" href="assets/raster_required/componentA_large_trigger_texture.png" xlink:href="assets/raster_required/componentA_large_trigger_texture.png" x="35" y="291" width="70" height="77" preserveAspectRatio="none"/>
<g id="svg_componentA_large_trigger_patch" data-source-slot="slot_componentA_large_trigger_patch" transform="translate(118,292)">
  <rect x="0" y="0" width="74" height="69" fill="#f3e4cd" stroke="none"/>
</g>
<image id="raster_componentA_small_trigger_texture" data-source-slot="slot_componentA_small_trigger_texture" href="assets/raster_required/componentA_small_trigger_texture.png" xlink:href="assets/raster_required/componentA_small_trigger_texture.png" x="36" y="376" width="70" height="68" preserveAspectRatio="none"/>
<g id="svg_componentA_small_trigger_patch" data-source-slot="slot_componentA_small_trigger_patch" transform="translate(128,378)">
  <rect x="0" y="0" width="64" height="57" fill="#f3e9dc" stroke="none"/>
</g>
<rect x="203" y="282" width="21" height="178" rx="8" fill="url(#bluefade)" opacity=".95"/>
<path d="M270 280 C253 281 256 322 256 354 C256 386 253 428 270 431" fill="none" stroke="#000" stroke-width="3"/>
<rect x="290" y="219" width="620" height="77" rx="22" fill="#bd2029"/>
<text x="600" y="268" font-size="30" font-family="Georgia, 'Times New Roman', serif" font-weight="700" fill="#fff" text-anchor="middle">Category Diversity (ours)</text>
<rect x="290" y="428" width="620" height="77" rx="22" fill="#bd2029"/>
<text x="600" y="477" font-size="30" font-family="Georgia, 'Times New Roman', serif" font-weight="700" fill="#fff" text-anchor="middle">Forgetting Events (traditional)</text>
<text x="776" y="162" font-size="28" font-family="Georgia, 'Times New Roman', serif" font-weight="700" fill="#0018bc" text-anchor="middle">
<tspan x="776" dy="0">attack success rate</tspan><tspan x="776" dy="32">enhancement</tspan></text>
<rect x="297" y="318" width="640" height="86" fill="#fffdf6" stroke="#e5e600" stroke-width="2"/>
<text x="335" y="354" font-size="30" font-family="Georgia, 'Times New Roman', serif" font-weight="700" fill="#000" letter-spacing="2">Find the appropriate combination</text>

<text x="314" y="386" font-size="30" font-family="Georgia, 'Times New Roman', serif" font-weight="700" text-anchor="start" letter-spacing="2"><tspan fill="#000">based on </tspan><tspan fill="#c6202b">the scale of trigger features</tspan><tspan fill="#000"> .</tspan></text>
<g id="svg_componentA_red_runner_icon" data-source-slot="slot_componentA_red_runner_icon" transform="translate(855,330)">
  <g transform="scale(1.0000,1.0000)" fill="none" stroke="#c4202a" stroke-width="2.2" stroke-linecap="round" stroke-linejoin="round">
    <circle cx="17" cy="6" r="3.2" fill="#c4202a" stroke="none"/>
    <path d="M15 10 L11 17 L17 18 L22 26"/>
    <path d="M12 17 L6 24"/>
    <path d="M16 13 L23 13"/>
    <path d="M10 18 L15 25 L11 31"/>
  </g>
</g>
<g id="svg_componentA_stealth_icon" data-source-slot="slot_componentA_stealth_icon" transform="translate(881,331)">
  <g transform="scale(1.0000,1.0000)">
    <ellipse cx="23" cy="20" rx="17" ry="7" fill="#1f8f43" opacity=".88"/>
    <path d="M6 22 C13 13, 30 12, 40 22" fill="none" stroke="#006b2f" stroke-width="2.2"/>
    <path d="M10 26 C18 18, 28 18, 36 27" fill="none" stroke="#44aa4f" stroke-width="2.4"/>
    <line x1="14" y1="14" x2="9" y2="7" stroke="#1f8f43" stroke-width="2"/>
    <line x1="32" y1="14" x2="38" y2="7" stroke="#1f8f43" stroke-width="2"/>
    <circle cx="13" cy="20" r="2" fill="#e23237"/>
    <circle cx="27" cy="17" r="1.8" fill="#e23237"/>
    <circle cx="34" cy="23" r="1.6" fill="#e23237"/>
  </g>
</g>
<text x="1009" y="160" font-size="32" font-family="Georgia, 'Times New Roman', serif" font-weight="700" fill="#0a6f39" text-anchor="start">Component B</text>
<text x="1688" y="168" font-size="28" font-family="Georgia, 'Times New Roman', serif" font-weight="700" fill="#0a6f39" text-anchor="middle" letter-spacing="2">stealthiness</text>
<text x="1688" y="198" font-size="28" font-family="Georgia, 'Times New Roman', serif" font-weight="700" fill="#0a6f39" text-anchor="middle" letter-spacing="2">enhancement</text>
<image id="raster_componentB_top_left_photo" data-source-slot="slot_componentB_top_left_photo" href="assets/raster_required/componentB_top_left_photo.png" xlink:href="assets/raster_required/componentB_top_left_photo.png" x="1016" y="178" width="150" height="171" preserveAspectRatio="none"/>
<image id="raster_componentB_top_right_bottle" data-source-slot="slot_componentB_top_right_bottle" href="assets/raster_required/componentB_top_right_bottle.png" xlink:href="assets/raster_required/componentB_top_right_bottle.png" x="1194" y="176" width="151" height="172" preserveAspectRatio="none"/>
<image id="raster_componentB_bottom_left_photo" data-source-slot="slot_componentB_bottom_left_photo" href="assets/raster_required/componentB_bottom_left_photo.png" xlink:href="assets/raster_required/componentB_bottom_left_photo.png" x="1016" y="407" width="150" height="133" preserveAspectRatio="none"/>
<image id="raster_componentB_bottom_right_texture" data-source-slot="slot_componentB_bottom_right_texture" href="assets/raster_required/componentB_bottom_right_texture.png" xlink:href="assets/raster_required/componentB_bottom_right_texture.png" x="1194" y="405" width="151" height="135" preserveAspectRatio="none"/>
<rect x="1183" y="173" width="170" height="368" fill="none" stroke="#d61f2b" stroke-width="2.5"/>
<text x="1268" y="377" font-size="28" font-family="Georgia, 'Times New Roman', serif" font-weight="700" fill="#cf2230" text-anchor="middle">our method</text>
<text x="1380" y="241" font-size="30" font-family="Georgia, 'Times New Roman', serif" font-weight="700" fill="#252b8d" letter-spacing="2">
<tspan x="1380" dy="0">Trigger</tspan><tspan x="1532" dy="0">can be</tspan>
<tspan x="1380" dy="32">concealed in the</tspan>
<tspan x="1380" dy="64" fill="#b01b24">black</tspan><tspan dx="10" fill="#252b8d"> </tspan>
<tspan x="1380" dy="32">background.</tspan>
</text>
<g id="svg_componentB_black_trigger_icon" data-source-slot="slot_componentB_black_trigger_icon" transform="translate(1496,219)">
  <rect x="2" y="1" width="11" height="27" fill="#1d1717"/>
</g>
<text x="1380" y="433" font-size="30" font-family="Georgia, 'Times New Roman', serif" font-weight="700" fill="#252b8d" letter-spacing="2">
<tspan x="1380" dy="0">Trigger</tspan><tspan x="1538" dy="0">can be</tspan>
<tspan x="1380" dy="32">concealed in the</tspan>
<tspan x="1380" dy="64">complex texture</tspan>
<tspan x="1380" dy="32">background.</tspan>
</text>
<g id="svg_componentB_kitty_icon" data-source-slot="slot_componentB_kitty_icon" transform="translate(1494,417)">
  <g transform="scale(1.0000,1.0000)" stroke-linecap="round" stroke-linejoin="round">
    <path d="M8 13 L6 6 L13 10 M30 13 L33 6 L25 10" fill="#f7f7f0" stroke="#645b5b" stroke-width="1.6"/>
    <ellipse cx="19" cy="18" rx="14" ry="10" fill="#f7f7f0" stroke="#645b5b" stroke-width="1.6"/>
    <circle cx="14" cy="18" r="1.3" fill="#222"/>
    <circle cx="24" cy="18" r="1.3" fill="#222"/>
    <ellipse cx="19" cy="22" rx="1.7" ry="1.1" fill="#f2a4b9"/>
    <path d="M7 18 H1 M7 22 H2 M31 18 H37 M31 22 H36" stroke="#645b5b" stroke-width="1.2"/>
    <circle cx="28" cy="9" r="3.2" fill="#ff9fc4" stroke="#cc6790" stroke-width="1"/>
    <circle cx="34" cy="9" r="3.2" fill="#ff9fc4" stroke="#cc6790" stroke-width="1"/>
    <circle cx="31" cy="10" r="2.2" fill="#ff9fc4" stroke="#cc6790" stroke-width="1"/>
  </g>
</g>
<rect x="1650" y="281" width="237" height="191" fill="#fffdf6" stroke="#e5e600" stroke-width="2"/>
<text x="1660" y="316" font-size="30" font-family="Georgia, 'Times New Roman', serif" font-weight="700" fill="#000" letter-spacing="4">
<tspan x="1660" dy="0">Cancel</tspan><tspan dx="10" fill="#c6202b">trigger</tspan>
<tspan x="1660" dy="32" fill="#c6202b">features</tspan><tspan fill="#000"> on</tspan>
<tspan x="1660" dy="32">image by</tspan>
<tspan x="1660" dy="32">similarity</tspan>
<tspan x="1660" dy="32">calculation.</tspan>
</text>
<g id="svg_componentB_note_stealth_icon" data-source-slot="slot_componentB_note_stealth_icon" transform="translate(1801,330)">
  <g transform="scale(0.8667,0.7143)">
    <ellipse cx="23" cy="20" rx="17" ry="7" fill="#1f8f43" opacity=".88"/>
    <path d="M6 22 C13 13, 30 12, 40 22" fill="none" stroke="#006b2f" stroke-width="2.2"/>
    <path d="M10 26 C18 18, 28 18, 36 27" fill="none" stroke="#44aa4f" stroke-width="2.4"/>
    <line x1="14" y1="14" x2="9" y2="7" stroke="#1f8f43" stroke-width="2"/>
    <line x1="32" y1="14" x2="38" y2="7" stroke="#1f8f43" stroke-width="2"/>
    <circle cx="13" cy="20" r="2" fill="#e23237"/>
    <circle cx="27" cy="17" r="1.8" fill="#e23237"/>
    <circle cx="34" cy="23" r="1.6" fill="#e23237"/>
  </g>
</g>
<path d="M347 558 L347 704" stroke="#0034ff" stroke-width="9" fill="none" marker-end="url(#arrow-blue)"/>
<path d="M458 704 L458 558" stroke="#c6202b" stroke-width="9" fill="none" marker-end="url(#arrow-red)"/>
<path d="M1554 704 L1554 558" stroke="#c6202b" stroke-width="9" fill="none" marker-end="url(#arrow-red)"/>
<path d="M1669 558 L1669 704" stroke="#0a6f39" stroke-width="9" fill="none" marker-end="url(#arrow-green)"/>
<text x="160" y="610" font-size="30" font-family="Georgia, 'Times New Roman', serif" font-weight="700" fill="#0018bc" text-anchor="middle">
<tspan x="160" dy="0">attack success rate</tspan><tspan x="160" dy="32">enhancement</tspan></text>
<text x="630" y="622" font-size="30" font-family="Georgia, 'Times New Roman', serif" font-weight="700" fill="#c6202b" text-anchor="middle" letter-spacing="2">the scale of triggers</text>
<text x="1375" y="622" font-size="30" font-family="Georgia, 'Times New Roman', serif" font-weight="700" fill="#c6202b" text-anchor="middle" letter-spacing="2">trigger features</text>
<text x="1793" y="613" font-size="30" font-family="Georgia, 'Times New Roman', serif" font-weight="700" fill="#0a6f39" text-anchor="middle">
<tspan x="1793" dy="0">stealthiness</tspan><tspan x="1793" dy="32">ensurement</tspan></text>

<text x="43" y="695" font-size="38" font-family="'Courier New', monospace" font-weight="700" fill="#000" text-anchor="start" letter-spacing="9">Triggers</text>
<text x="540" y="694" font-size="33" font-family="'Courier New', monospace" font-weight="700" text-anchor="start" letter-spacing="2"><tspan fill="#000">Explore the effect of </tspan><tspan fill="#e01921">sample selection</tspan><tspan fill="#000"> on </tspan><tspan fill="#e01921">triggers</tspan><tspan fill="#000">.</tspan></text>
<text x="44" y="733" font-size="32" font-family="Georgia, 'Times New Roman', serif" font-weight="700" fill="#d21f2f" text-anchor="start">Component C</text>
<text x="468" y="748" font-size="28" font-family="Georgia, 'Times New Roman', serif" font-weight="700" fill="#b51f29" text-anchor="start" letter-spacing="4">Stealthiness ensurement via avoid selecting single-color dominated samples.</text>
<path d="M1725 753 L345 753 L345 817" fill="none" stroke="#c6202b" stroke-width="3" marker-end="url(#arrow-red)"/>
<path d="M1725 753 L1725 790" fill="none" stroke="#c6202b" stroke-width="3" marker-end="url(#arrow-red)"/>
<rect x="47" y="740" width="31" height="217" rx="7" fill="url(#pinkfade)"/>
<text x="84" y="741" font-size="30" font-family="Georgia, 'Times New Roman', serif" font-weight="700" fill="#0a6f39">G</text>
<text x="52" y="882" font-size="30" font-family="Georgia, 'Times New Roman', serif" font-weight="700" fill="#c6202b">R</text>
<text x="85" y="1067" font-size="30" font-family="Georgia, 'Times New Roman', serif" font-weight="700" fill="#0018bc">B</text>
<rect x="132" y="829" width="443" height="110" fill="#fffdf6" stroke="#e5e600" stroke-width="2"/>
<text x="146" y="872" font-size="30" font-family="Georgia, 'Times New Roman', serif" font-weight="700" fill="#000" letter-spacing="3">
<tspan x="146" dy="0">Enhance the</tspan><tspan fill="#c6202b"> trigger feature</tspan>
<tspan x="146" dy="35">on the</tspan><tspan fill="#c6202b"> Blue</tspan><tspan fill="#000"> color channel.</tspan>
</text>
<rect x="48" y="998" width="270" height="88" fill="none" stroke="#000" stroke-width="2" stroke-dasharray="6 4"/>
<line x1="213" y1="940" x2="172" y2="998" stroke="#000" stroke-width="2" stroke-dasharray="4 4"/>
<line x1="232" y1="940" x2="278" y2="998" stroke="#000" stroke-width="2" stroke-dasharray="4 4"/>
<text x="92" y="1025" font-size="28" font-family="Georgia, 'Times New Roman', serif" font-weight="700" fill="#0018bc" letter-spacing="2">low sensitivity</text>

<g id="svg_componentC_eye_icon" data-source-slot="slot_componentC_eye_icon" transform="translate(134,1044)">
  <g transform="scale(1.0000,1.0000)" fill="none" stroke="#111" stroke-width="1.6" stroke-linecap="round">
    <path d="M4 10 C13 3, 25 3, 36 10 C25 17, 13 17, 4 10 Z" fill="#fbfbf2" stroke="#444"/>
    <path d="M43 10 C52 3, 65 3, 76 10 C65 17, 52 17, 43 10 Z" fill="#fbfbf2" stroke="#444"/>
    <circle cx="21" cy="10" r="3.2" fill="#1a1a1a" stroke="none"/>
    <circle cx="59" cy="10" r="3.2" fill="#1a1a1a" stroke="none"/>
    <path d="M7 6 C20 13, 29 13, 34 6"/>
    <path d="M46 6 C58 13, 69 13, 74 6"/>
  </g>
</g>
<path d="M548 1041 L350 1041" fill="none" stroke="#c6202b" stroke-width="11" marker-end="url(#arrow-red)"/>
<text x="465" y="1000" font-size="30" font-family="Georgia, 'Times New Roman', serif" font-weight="700" fill="#c6202b" text-anchor="middle" letter-spacing="2">distinct-color</text>
<text x="465" y="1080" font-size="30" font-family="Georgia, 'Times New Roman', serif" font-weight="700" fill="#c6202b" text-anchor="middle" letter-spacing="2">poisoning</text>

<text x="1045" y="798" font-size="30" font-family="Georgia, 'Times New Roman', serif" font-weight="700" fill="#252b8d" text-anchor="middle" letter-spacing="3">Distinct sensitivity of human visual system on RGB</text>
<text x="609" y="852" font-size="30" font-family="Georgia, 'Times New Roman', serif" font-weight="700" text-anchor="start" letter-spacing="2"><tspan fill="#c6202b">mild</tspan><tspan fill="#252b8d"> distortion</tspan></text>
<text x="893" y="852" font-size="30" font-family="Georgia, 'Times New Roman', serif" font-weight="700" text-anchor="start" letter-spacing="2"><tspan fill="#c6202b">severe</tspan><tspan fill="#252b8d"> distortion</tspan></text>
<text x="1195" y="852" font-size="30" font-family="Georgia, 'Times New Roman', serif" font-weight="700" text-anchor="start" letter-spacing="2"><tspan fill="#c6202b">subtle</tspan><tspan fill="#252b8d"> distortion</tspan></text>
<image id="raster_componentC_mild_photo" data-source-slot="slot_componentC_mild_photo" href="assets/raster_required/componentC_mild_photo.png" xlink:href="assets/raster_required/componentC_mild_photo.png" x="586" y="874" width="253" height="222" preserveAspectRatio="none"/>
<image id="raster_componentC_severe_photo" data-source-slot="slot_componentC_severe_photo" href="assets/raster_required/componentC_severe_photo.png" xlink:href="assets/raster_required/componentC_severe_photo.png" x="889" y="874" width="253" height="222" preserveAspectRatio="none"/>
<image id="raster_componentC_subtle_photo" data-source-slot="slot_componentC_subtle_photo" href="assets/raster_required/componentC_subtle_photo.png" xlink:href="assets/raster_required/componentC_subtle_photo.png" x="1192" y="874" width="253" height="222" preserveAspectRatio="none"/>
<text x="853" y="1080" font-size="28" font-family="Georgia, 'Times New Roman', serif" font-weight="700" fill="#c6202b">R</text>
<text x="1117" y="1080" font-size="28" font-family="Georgia, 'Times New Roman', serif" font-weight="700" fill="#0a6f39">G</text>
<text x="1460" y="1080" font-size="28" font-family="Georgia, 'Times New Roman', serif" font-weight="700" fill="#0018bc">B</text>

<rect x="1540" y="817" width="357" height="282" fill="none" stroke="#0a6f39" stroke-width="2.5"/>
<text x="1718" y="855" font-size="32" font-family="Georgia, 'Times New Roman', serif" font-weight="700" fill="#000" text-anchor="middle" letter-spacing="2">Special samples</text>
<text x="1630" y="895" font-size="28" font-family="Georgia, 'Times New Roman', serif" font-weight="700" fill="#000" text-anchor="middle" letter-spacing="2">Green</text>
<text x="1630" y="925" font-size="28" font-family="Georgia, 'Times New Roman', serif" font-weight="700" fill="#000" text-anchor="middle" letter-spacing="2">dominated</text>
<text x="1797" y="895" font-size="28" font-family="Georgia, 'Times New Roman', serif" font-weight="700" fill="#000" text-anchor="middle" letter-spacing="2">Blue</text>
<text x="1797" y="925" font-size="28" font-family="Georgia, 'Times New Roman', serif" font-weight="700" fill="#000" text-anchor="middle" letter-spacing="2">dominated</text>

<image id="raster_componentC_green_sample" data-source-slot="slot_componentC_green_sample" href="assets/raster_required/componentC_green_sample.png" xlink:href="assets/raster_required/componentC_green_sample.png" x="1551" y="936" width="151" height="145" preserveAspectRatio="none"/>
<image id="raster_componentC_blue_sample" data-source-slot="slot_componentC_blue_sample" href="assets/raster_required/componentC_blue_sample.png" xlink:href="assets/raster_required/componentC_blue_sample.png" x="1747" y="936" width="139" height="145" preserveAspectRatio="none"/>
</svg>
