<svg xmlns="http://www.w3.org/2000/svg" xmlns:xlink="http://www.w3.org/1999/xlink" width="1905" height="1102" viewBox="0 0 1905 1102">
<g id="svg_componentA_large_trigger_patch" data-source-slot="slot_componentA_large_trigger_patch" transform="translate(118,292)">
  <rect x="0" y="0" width="74" height="69" fill="#f3e4cd" stroke="none"/>
</g>
<g id="svg_componentA_small_trigger_patch" data-source-slot="slot_componentA_small_trigger_patch" transform="translate(128,378)">
  <rect x="0" y="0" width="64" height="57" fill="#f3e9dc" stroke="none"/>
</g>
<g id="svg_componentA_red_runner_icon" data-source-slot="slot_componentA_red_runner_icon" transform="translate(855,330)">
  <g transform="scale(1.0000,1.0000)" fill="none" stroke="#c4202a" stroke-width="2.2" stroke-linecap="round" stroke-linejoin="round">
    <circle cx="17" cy="6" r="3.2" fill="#c4202a" stroke="none"/>
    <path d="M15 10 L11 17 L17 18 L22 26"/>
    <path d="M12 17 L6 24"/>
    <path d="M16 13 L23 13"/>
    <path d="M10 18 L15 25 L11 31"/>
  </g>
</g>
<g id="svg_componentA_stealth_icon" data-source-slot="slot_componentA_stealth_icon" transform="translate(881,331)">
  <g transform="scale(1.0000,1.0000)">
    <ellipse cx="23" cy="20" rx="17" ry="7" fill="#1f8f43" opacity=".88"/>
    <path d="M6 22 C13 13, 30 12, 40 22" fill="none" stroke="#006b2f" stroke-width="2.2"/>
    <path d="M10 26 C18 18, 28 18, 36 27" fill="none" stroke="#44aa4f" stroke-width="2.4"/>
    <line x1="14" y1="14" x2="9" y2="7" stroke="#1f8f43" stroke-width="2"/>
    <line x1="32" y1="14" x2="38" y2="7" stroke="#1f8f43" stroke-width="2"/>
    <circle cx="13" cy="20" r="2" fill="#e23237"/>
    <circle cx="27" cy="17" r="1.8" fill="#e23237"/>
    <circle cx="34" cy="23" r="1.6" fill="#e23237"/>
  </g>
</g>
<g id="svg_componentB_black_trigger_icon" data-source-slot="slot_componentB_black_trigger_icon" transform="translate(1496,219)">
  <rect x="2" y="1" width="11" height="27" fill="#1d1717"/>
</g>
<g id="svg_componentB_kitty_icon" data-source-slot="slot_componentB_kitty_icon" transform="translate(1494,417)">
  <g transform="scale(1.0000,1.0000)" stroke-linecap="round" stroke-linejoin="round">
    <path d="M8 13 L6 6 L13 10 M30 13 L33 6 L25 10" fill="#f7f7f0" stroke="#645b5b" stroke-width="1.6"/>
    <ellipse cx="19" cy="18" rx="14" ry="10" fill="#f7f7f0" stroke="#645b5b" stroke-width="1.6"/>
    <circle cx="14" cy="18" r="1.3" fill="#222"/>
    <circle cx="24" cy="18" r="1.3" fill="#222"/>
    <ellipse cx="19" cy="22" rx="1.7" ry="1.1" fill="#f2a4b9"/>
    <path d="M7 18 H1 M7 22 H2 M31 18 H37 M31 22 H36" stroke="#645b5b" stroke-width="1.2"/>
    <circle cx="28" cy="9" r="3.2" fill="#ff9fc4" stroke="#cc6790" stroke-width="1"/>
    <circle cx="34" cy="9" r="3.2" fill="#ff9fc4" stroke="#cc6790" stroke-width="1"/>
    <circle cx="31" cy="10" r="2.2" fill="#ff9fc4" stroke="#cc6790" stroke-width="1"/>
  </g>
</g>
<g id="svg_componentB_note_stealth_icon" data-source-slot="slot_componentB_note_stealth_icon" transform="translate(1801,330)">
  <g transform="scale(0.8667,0.7143)">
    <ellipse cx="23" cy="20" rx="17" ry="7" fill="#1f8f43" opacity=".88"/>
    <path d="M6 22 C13 13, 30 12, 40 22" fill="none" stroke="#006b2f" stroke-width="2.2"/>
    <path d="M10 26 C18 18, 28 18, 36 27" fill="none" stroke="#44aa4f" stroke-width="2.4"/>
    <line x1="14" y1="14" x2="9" y2="7" stroke="#1f8f43" stroke-width="2"/>
    <line x1="32" y1="14" x2="38" y2="7" stroke="#1f8f43" stroke-width="2"/>
    <circle cx="13" cy="20" r="2" fill="#e23237"/>
    <circle cx="27" cy="17" r="1.8" fill="#e23237"/>
    <circle cx="34" cy="23" r="1.6" fill="#e23237"/>
  </g>
</g>
<g id="svg_componentC_eye_icon" data-source-slot="slot_componentC_eye_icon" transform="translate(134,1044)">
  <g transform="scale(1.0000,1.0000)" fill="none" stroke="#111" stroke-width="1.6" stroke-linecap="round">
    <path d="M4 10 C13 3, 25 3, 36 10 C25 17, 13 17, 4 10 Z" fill="#fbfbf2" stroke="#444"/>
    <path d="M43 10 C52 3, 65 3, 76 10 C65 17, 52 17, 43 10 Z" fill="#fbfbf2" stroke="#444"/>
    <circle cx="21" cy="10" r="3.2" fill="#1a1a1a" stroke="none"/>
    <circle cx="59" cy="10" r="3.2" fill="#1a1a1a" stroke="none"/>
    <path d="M7 6 C20 13, 29 13, 34 6"/>
    <path d="M46 6 C58 13, 69 13, 74 6"/>
  </g>
</g>
</svg>
