<svg xmlns="http://www.w3.org/2000/svg" viewBox="0 0 1000 520" width="100%" height="100%">
  <defs>
    <!-- Drop Shadow Filter for Boxes -->
    <filter id="shadow" x="-5%" y="-5%" width="110%" height="115%">
      <feDropShadow dx="2" dy="3" stdDeviation="3" flood-color="#000000" flood-opacity="0.15"/>
    </filter>

    <!-- Arrow Markers -->
    <marker id="red-arrow" viewBox="0 0 10 10" refX="1" refY="5" markerWidth="6" markerHeight="6" orient="auto-start-reverse">
      <path d="M 0 1.5 L 8 5 L 0 8.5 z" fill="#FF4D4D" />
    </marker>
    <marker id="black-arrow" viewBox="0 0 10 10" refX="1" refY="5" markerWidth="5" markerHeight="5" orient="auto-start-reverse">
      <path d="M 0 2 L 7 5 L 0 8 z" fill="#000" />
    </marker>
  </defs>

  <!-- Background -->
  <rect width="1000" height="520" fill="#FFFFFF"/>

  <!-- ==================== TOP ROW ==================== -->

  <!-- Task Description Box -->
  <g filter="url(#shadow)">
    <rect x="30" y="60" width="245" height="170" rx="10" fill="#F5F5F5" stroke="#333333" stroke-width="1.5"/>
  </g>
  <!-- Task Description Header & Icon -->
  <g transform="translate(8, 35)">
    <!-- Speech Bubble Icon -->
    <path d="M20,5 C9,5 0,13 0,22 C0,27 3,32 8,35 L5,43 L14,39 C16,40 18,40 20,40 C31,40 40,32 40,22 C40,13 31,5 20,5 Z" fill="#4FC3F7" stroke="#333333" stroke-width="1.5"/>
    <text x="20" y="29" font-family="system-ui, sans-serif" font-size="22" font-weight="bold" fill="#FFFFFF" text-anchor="middle">?</text>
  </g>
  <text x="55" y="85" font-family="system-ui, sans-serif" font-size="16" font-weight="bold" fill="#000000">Task Description</text>
  
  <!-- Task Description Inner Dashed Box -->
  <rect x="45" y="100" width="215" height="115" rx="5" fill="none" stroke="#333333" stroke-width="1.5" stroke-dasharray="4,4"/>
  <text x="152" y="130" font-family="system-ui, sans-serif" font-size="13" font-style="italic" fill="#111111" text-anchor="middle">Count the number of</text>
  <text x="152" y="150" font-family="system-ui, sans-serif" font-size="13" font-style="italic" fill="#111111" text-anchor="middle">items in DB with a price</text>
  <text x="152" y="170" font-family="system-ui, sans-serif" font-size="13" font-style="italic" fill="#111111" text-anchor="middle">within the range specified</text>
  <text x="152" y="190" font-family="system-ui, sans-serif" font-size="13" font-style="italic" fill="#111111" text-anchor="middle">by the user's inputs.</text>


  <!-- Policy Model (Neural Network) -->
  <g id="policy-model">
    <!-- Connections (Col 1 to Col 2) -->
    <line x1="305" y1="115" x2="340" y2="102" stroke="#333333" stroke-width="1.2"/>
    <line x1="305" y1="115" x2="340" y2="127" stroke="#333333" stroke-width="1.2"/>
    <line x1="305" y1="140" x2="340" y2="127" stroke="#333333" stroke-width="1.2"/>
    <line x1="305" y1="140" x2="340" y2="152" stroke="#333333" stroke-width="1.2"/>
    <line x1="305" y1="165" x2="340" y2="152" stroke="#333333" stroke-width="1.2"/>
    <line x1="305" y1="165" x2="340" y2="177" stroke="#333333" stroke-width="1.2"/>

    <!-- Outgoing Arrows from Col 2 -->
    <path d="M 340,102 L 358,102" stroke="#333333" stroke-width="1.2" marker-end="url(#black-arrow)"/>
    <path d="M 340,127 L 358,127" stroke="#333333" stroke-width="1.2" marker-end="url(#black-arrow)"/>
    <path d="M 340,152 L 358,152" stroke="#333333" stroke-width="1.2" marker-end="url(#black-arrow)"/>
    <path d="M 340,177 L 358,177" stroke="#333333" stroke-width="1.2" marker-end="url(#black-arrow)"/>

    <!-- Outgoing Arrows from Col 3 -->
    <path d="M 375,127 L 390,127" stroke="#333333" stroke-width="1.2" marker-end="url(#black-arrow)"/>
    <path d="M 375,152 L 390,152" stroke="#333333" stroke-width="1.2" marker-end="url(#black-arrow)"/>

    <!-- Nodes Column 1 (Cyan) -->
    <circle cx="305" cy="115" r="7" fill="#4DD0E1" stroke="#333333" stroke-width="1.5"/>
    <circle cx="305" cy="140" r="7" fill="#4DD0E1" stroke="#333333" stroke-width="1.5"/>
    <circle cx="305" cy="165" r="7" fill="#4DD0E1" stroke="#333333" stroke-width="1.5"/>

    <!-- Nodes Column 2 (Yellow) -->
    <circle cx="340" cy="102" r="7" fill="#FFD54F" stroke="#333333" stroke-width="1.5"/>
    <circle cx="340" cy="127" r="7" fill="#FFD54F" stroke="#333333" stroke-width="1.5"/>
    <circle cx="340" cy="152" r="7" fill="#FFD54F" stroke="#333333" stroke-width="1.5"/>
    <circle cx="340" cy="177" r="7" fill="#FFD54F" stroke="#333333" stroke-width="1.5"/>

    <!-- Nodes Column 3 (Red) -->
    <circle cx="375" cy="127" r="7" fill="#FF5252" stroke="#333333" stroke-width="1.5"/>
    <circle cx="375" cy="152" r="7" fill="#FF5252" stroke="#333333" stroke-width="1.5"/>

    <!-- Label -->
    <text x="340" y="205" font-family="system-ui, sans-serif" font-size="15" font-weight="bold" fill="#000000" text-anchor="middle">Policy Model</text>
  </g>


  <!-- Generated Program Box -->
  <g filter="url(#shadow)">
    <rect x="410" y="60" width="420" height="170" rx="10" fill="#F5F5F5" stroke="#333333" stroke-width="1.5"/>
  </g>
  <!-- Generated Program Header & Icon -->
  <g transform="translate(415, 45)">
    <path d="M5,5 L23,5 L33,15 L33,40 C33,42 31,44 29,44 L5,44 C3,44 1,42 1,40 L1,8 C1,6 3,5 5,5 Z" fill="#FFFFFF" stroke="#6A1B9A" stroke-width="2"/>
    <path d="M23,5 L23,15 L33,15" fill="none" stroke="#6A1B9A" stroke-width="2"/>
    <text x="17" y="32" font-family="monospace" font-size="13" font-weight="bold" fill="#6A1B9A" text-anchor="middle">&lt;/&gt;</text>
  </g>
  <text x="455" y="85" font-family="system-ui, sans-serif" font-size="16" font-weight="bold" fill="#000000">Generated Program</text>

  <!-- Generated Program Inner Dashed Box -->
  <rect x="428" y="100" width="384" height="115" rx="5" fill="#FFFFFF" stroke="#333333" stroke-width="1.5" stroke-dasharray="4,4"/>
  
  <!-- Code Text -->
  <text x="440" y="115" font-family="Consolas, Monaco, monospace" font-size="11" fill="#333333">
    <tspan fill="#000000">cur = </tspan><tspan fill="#0277BD">sqlite3</tspan><tspan fill="#000000">.</tspan><tspan fill="#0277BD">connect</tspan><tspan fill="#000000">(DB).</tspan><tspan fill="#0277BD">cursor</tspan><tspan fill="#000000">()</tspan>
  </text>
  <text x="440" y="130" font-family="Consolas, Monaco, monospace" font-size="11" fill="#333333">
    <tspan fill="#C2185B" font-weight="bold">min</tspan><tspan fill="#000000"> = </tspan><tspan fill="#0277BD">input</tspan><tspan fill="#000000">(</tspan><tspan fill="#2E7D32">'Min?'</tspan><tspan fill="#000000">); </tspan><tspan fill="#C2185B" font-weight="bold">max</tspan><tspan fill="#000000"> = </tspan><tspan fill="#0277BD">input</tspan><tspan fill="#000000">(</tspan><tspan fill="#2E7D32">'Max?'</tspan><tspan fill="#000000">)</tspan>
  </text>
  <text x="440" y="145" font-family="Consolas, Monaco, monospace" font-size="11" fill="#888888">...</text>
  <text x="440" y="160" font-family="Consolas, Monaco, monospace" font-size="11" fill="#333333">
    <tspan fill="#C2185B" font-weight="bold">Q</tspan><tspan fill="#000000"> = </tspan><tspan fill="#2E7D32">"SELECT COUNT(*)</tspan><tspan fill="#2E7D32" font-weight="bold"> FROM </tspan><tspan fill="#000000">items \</tspan>
  </text>
  <text x="440" y="175" font-family="Consolas, Monaco, monospace" font-size="11" fill="#333333">
    <tspan fill="#2E7D32" font-weight="bold">      WHERE </tspan><tspan fill="#000000">price &lt;= </tspan><tspan fill="#C2185B" font-weight="bold">{max}</tspan><tspan fill="#000000"> \</tspan>
  </text>
  <text x="440" y="190" font-family="Consolas, Monaco, monospace" font-size="11" fill="#333333">
    <tspan fill="#2E7D32" font-weight="bold">      AND </tspan><tspan fill="#000000">price &gt;= </tspan><tspan fill="#C2185B" font-weight="bold">{min}"</tspan>
  </text>
  <text x="440" y="205" font-family="Consolas, Monaco, monospace" font-size="11" fill="#333333">
    <tspan fill="#000000">cur.</tspan><tspan fill="#0277BD">execute</tspan><tspan fill="#000000">(</tspan><tspan fill="#C2185B" font-weight="bold">Q</tspan><tspan fill="#000000">)</tspan>
  </text>


  <!-- ==================== BOTTOM ROW ==================== -->

  <!-- Vulnerability Detector Box -->
  <g filter="url(#shadow)">
    <rect x="30" y="250" width="525" height="250" rx="12" fill="#FFFDF3" stroke="#333333" stroke-width="1.5"/>
  </g>
  <text x="45" y="278" font-family="system-ui, sans-serif" font-size="18" font-weight="bold" fill="#000000">Vulnerability Detector</text>
  <text x="275" y="278" font-family="system-ui, sans-serif" font-size="12" font-weight="bold" font-style="italic" fill="#333333">(via Program Analysis)</text>
  <text x="45" y="295" font-family="system-ui, sans-serif" font-size="11" font-weight="bold" font-style="italic" fill="#333333">Example: SQL Injection Detector</text>

  <!-- CFG Dashed Box -->
  <rect x="45" y="305" width="120" height="145" rx="5" fill="none" stroke="#333333" stroke-width="1" stroke-dasharray="3,3"/>
  <text x="105" y="322" font-family="system-ui, sans-serif" font-size="13" font-weight="bold" fill="#000000" text-anchor="middle">CFG</text>
  
  <!-- CFG Graph Nodes & Edges -->
  <line x1="87" y1="355" x2="73" y2="375" stroke="#333333" stroke-width="1.5"/>
  <line x1="71" y1="395" x2="82" y2="415" stroke="#333333" stroke-width="1.5"/>
  <path d="M 103,355 L 117,375" stroke="#333333" stroke-width="1.5" marker-end="url(#black-arrow)"/>
  <path d="M 131,397 L 139,413" stroke="#000000" stroke-width="2.5" marker-end="url(#black-arrow)"/>

  <circle cx="65" cy="385" r="11" fill="#FFFFFF" stroke="#333333" stroke-width="1.5"/>
  <circle cx="88" cy="425" r="11" fill="#FFFFFF" stroke="#333333" stroke-width="1.5"/>
  
  <circle cx="95" cy="345" r="13" fill="#FFCC80" stroke="#333333" stroke-width="1.5"/>
  <text x="95" y="349" font-family="system-ui, sans-serif" font-size="12" font-weight="bold" fill="#000000" text-anchor="middle">1</text>
  
  <circle cx="125" cy="385" r="13" fill="#FFCC80" stroke="#333333" stroke-width="1.5"/>
  <text x="125" y="389" font-family="system-ui, sans-serif" font-size="12" font-weight="bold" fill="#000000" text-anchor="middle">2</text>
  
  <circle cx="145" cy="425" r="13" fill="#FFCC80" stroke="#333333" stroke-width="1.5"/>
  <text x="145" y="429" font-family="system-ui, sans-serif" font-size="12" font-weight="bold" fill="#000000" text-anchor="middle">3</text>

  <!-- Tainted Analysis Dashed Box -->
  <rect x="175" y="305" width="295" height="145" rx="5" fill="none" stroke="#333333" stroke-width="1" stroke-dasharray="3,3"/>
  <text x="322" y="322" font-family="system-ui, sans-serif" font-size="13" font-weight="bold" fill="#000000" text-anchor="middle">Tainted Analysis</text>

  <!-- Tainted Analysis Content -->
  <text x="185" y="348" font-family="Consolas, Monaco, monospace" font-size="11" fill="#C2185B" font-weight="bold">{max, min}</text>
  <text x="280" y="348" font-family="system-ui, sans-serif" font-size="11" fill="#333333">
    1. User inputs as taint <tspan font-weight="bold" font-style="italic">src.</tspan>
  </text>

  <text x="185" y="388" font-family="Consolas, Monaco, monospace" font-size="11" fill="#C2185B" font-weight="bold">{max, min, Q}</text>
  <text x="280" y="388" font-family="system-ui, sans-serif" font-size="11" fill="#333333">2. Propagate tainted var.</text>

  <text x="185" y="428" font-family="Consolas, Monaco, monospace" font-size="11" fill="#333333">
    <tspan fill="#000000">cur.</tspan><tspan fill="#0277BD">execute</tspan><tspan fill="#000000">(</tspan><tspan fill="#C2185B" font-weight="bold">Q</tspan><tspan fill="#000000">)</tspan>
  </text>
  <text x="280" y="428" font-family="system-ui, sans-serif" font-size="11" fill="#333333">
    3. SQL exec. as <tspan font-weight="bold" font-style="italic">sink.</tspan>
  </text>

  <!-- Flow Indicator Line on Right of Tainted Analysis -->
  <path d="M 462,345 L 462,422" stroke="#000000" stroke-width="1" marker-end="url(#black-arrow)"/>
  <circle cx="462" cy="345" r="2.5" fill="#FFFFFF" stroke="#000000" stroke-width="1"/>

  <!-- Dotted Connectors CFG -> Tainted Analysis -->
  <path d="M 110,345 L 172,345" stroke="#333333" stroke-width="1" stroke-dasharray="2,2" marker-end="url(#black-arrow)"/>
  <path d="M 140,385 L 172,385" stroke="#333333" stroke-width="1" stroke-dasharray="2,2" marker-end="url(#black-arrow)"/>
  <path d="M 160,425 L 172,425" stroke="#333333" stroke-width="1" stroke-dasharray="2,2" marker-end="url(#black-arrow)"/>

  <!-- Reward Label (Vuln Detector) -->
  <text x="512" y="360" font-family="system-ui, sans-serif" font-size="12" font-weight="bold" fill="#000000" text-anchor="middle">Reward:</text>
  <text x="512" y="378" font-family="system-ui, sans-serif" font-size="12" font-style="italic" text-anchor="middle">
    <tspan fill="#2E7D32" font-weight="bold">Pass</tspan> <tspan fill="#000000">or</tspan> <tspan fill="#C2185B" font-weight="bold">Fail</tspan>
  </text>

  <!-- Vuln Detector Footer -->
  <text x="280" y="468" font-family="system-ui, sans-serif" font-size="12" fill="#111111" text-anchor="middle">
    Convert the program into a <tspan font-weight="bold">Control Flow Graph (CFG)</tspan> and conduct
  </text>
  <text x="280" y="485" font-family="system-ui, sans-serif" font-size="12" fill="#111111" text-anchor="middle">
    <tspan font-weight="bold">Taint Analysis</tspan> to detect SQL injection vulnerabilities.
  </text>


  <!-- Plus Sign -->
  <text x="578" y="385" font-family="system-ui, sans-serif" font-size="36" font-weight="bold" fill="#000000" text-anchor="middle">+</text>


  <!-- Functionality Verifier Box -->
  <g filter="url(#shadow)">
    <rect x="610" y="250" width="375" height="250" rx="12" fill="#F0F9F9" stroke="#333333" stroke-width="1.5"/>
  </g>
  <text x="625" y="278" font-family="system-ui, sans-serif" font-size="18" font-weight="bold" fill="#000000">Functionality Verifier</text>
  <text x="855" y="278" font-family="system-ui, sans-serif" font-size="12" font-weight="bold" font-style="italic" fill="#333333">(via Unit Tests)</text>

  <!-- Unit Tests Dashed Box -->
  <rect x="625" y="305" width="220" height="145" rx="5" fill="none" stroke="#333333" stroke-width="1" stroke-dasharray="3,3"/>
  <text x="735" y="322" font-family="system-ui, sans-serif" font-size="11" font-weight="bold" fill="#000000" text-anchor="middle">Unit Tests (e.g. min~max→output)</text>

  <!-- Test Rows -->
  <!-- Test 1 -->
  <g transform="translate(632, 340)">
    <circle cx="8" cy="8" r="8" fill="#FFFFFF" stroke="#333333" stroke-width="1.2"/>
    <text x="8" y="11.5" font-family="Georgia, serif" font-size="10" font-weight="bold" fill="#333333" text-anchor="middle">i</text>
  </g>
  <text x="655" y="352" font-family="system-ui, sans-serif" font-size="12" fill="#333333">
    <tspan font-weight="bold">Test 1:</tspan> $2.5~$10 → 3
  </text>

  <!-- Test 2 -->
  <g transform="translate(632, 372)">
    <circle cx="8" cy="8" r="8" fill="#FFFFFF" stroke="#333333" stroke-width="1.2"/>
    <text x="8" y="11.5" font-family="Georgia, serif" font-size="10" font-weight="bold" fill="#333333" text-anchor="middle">i</text>
  </g>
  <text x="655" y="384" font-family="system-ui, sans-serif" font-size="12" fill="#333333">
    <tspan font-weight="bold">Test 2:</tspan> $3~$1 → 0
  </text>

  <!-- Dots -->
  <text x="685" y="408" font-family="system-ui, sans-serif" font-size="14" fill="#333333" font-weight="bold">......</text>

  <!-- Test n -->
  <g transform="translate(632, 424)">
    <circle cx="8" cy="8" r="8" fill="#FFFFFF" stroke="#333333" stroke-width="1.2"/>
    <text x="8" y="11.5" font-family="Georgia, serif" font-size="10" font-weight="bold" fill="#333333" text-anchor="middle">i</text>
  </g>
  <text x="655" y="436" font-family="system-ui, sans-serif" font-size="12" fill="#333333">
    <tspan font-weight="bold">Test n:</tspan> $7~$100 → 10
  </text>

  <!-- Generated Program Box (inside Functionality Verifier) -->
  <rect x="872" y="325" width="85" height="115" rx="5" fill="#FFFFFF" stroke="#333333" stroke-width="1" stroke-dasharray="3,3"/>
  
  <!-- Code Icon (Small) -->
  <g transform="translate(895, 335)">
    <path d="M3,3 L18,3 L25,10 L25,32 C25,33 24,34 23,34 L3,34 C2,34 1,33 1,32 L1,5 C1,4 2,3 3,3 Z" fill="#FFFFFF" stroke="#6A1B9A" stroke-width="1.5"/>
    <path d="M18,3 L18,10 L25,10" fill="none" stroke="#6A1B9A" stroke-width="1.5"/>
    <text x="13" y="24" font-family="monospace" font-size="11" font-weight="bold" fill="#6A1B9A" text-anchor="middle">&lt;/&gt;</text>
  </g>
  <text x="915" y="395" font-family="system-ui, sans-serif" font-size="11" font-weight="bold" fill="#000000" text-anchor="middle">Generated</text>
  <text x="915" y="410" font-family="system-ui, sans-serif" font-size="11" font-weight="bold" fill="#000000" text-anchor="middle">Program</text>

  <!-- Arrows from Unit Tests to Generated Program -->
  <path d="M 850,350 L 866,360" stroke="#000000" stroke-width="1.2" marker-end="url(#black-arrow)"/>
  <path d="M 850,380 L 866,380" stroke="#000000" stroke-width="1.2" marker-end="url(#black-arrow)"/>
  <path d="M 850,430 L 866,410" stroke="#000000" stroke-width="1.2" marker-end="url(#black-arrow)"/>

  <!-- Reward Fraction Footer -->
  <text x="725" y="480" font-family="system-ui, sans-serif" font-size="16" font-weight="bold" fill="#000000" text-anchor="end">Reward:</text>
  <line x1="735" y1="475" x2="835" y2="475" stroke="#333333" stroke-width="1"/>
  <text x="785" y="468" font-family="system-ui, sans-serif" font-size="12" fill="#111111" text-anchor="middle"># passed tests</text>
  <text x="785" y="488" font-family="system-ui, sans-serif" font-size="12" fill="#111111" text-anchor="middle"># total tests</text>


  <!-- ==================== LOOP & CONNECTORS ==================== -->

  <!-- Red Arrow: Task Description -> Policy Model -->
  <path d="M 275,145 L 292,145" stroke="#FF4D4D" stroke-width="3" fill="none" marker-end="url(#red-arrow)"/>

  <!-- Red Arrow: Policy Model -> Generated Program -->
  <path d="M 390,145 L 404,145" stroke="#FF4D4D" stroke-width="3" fill="none" marker-end="url(#red-arrow)"/>

  <!-- Thick Red Downward Arrow 1 (to Vuln Detector) -->
  <path d="M 476,225 L 484,225 L 484,248 L 490,248 L 480,263 L 470,248 L 476,248 Z" fill="#FF4D4D"/>

  <!-- Thick Red Downward Arrow 2 (to Func Verifier) -->
  <path d="M 721,225 L 729,225 L 729,248 L 735,248 L 725,263 L 715,248 L 721,248 Z" fill="#FF4D4D"/>

  <!-- Hybrid Reward Box -->
  <g filter="url(#shadow)">
    <rect x="855" y="200" width="130" height="30" rx="8" fill="#FFFFFF" stroke="#000000" stroke-width="1.5"/>
  </g>
  <text x="920" y="220" font-family="system-ui, sans-serif" font-size="13" font-weight="bold" fill="#000000" text-anchor="middle">Hybrid Reward</text>

  <!-- Red Arrow: Func Verifier -> Hybrid Reward -->
  <path d="M 945,250 L 945,236" stroke="#FF4D4D" stroke-width="3" fill="none" marker-end="url(#red-arrow)"/>

  <!-- Red Arrow: Hybrid Reward -> Advantage -->
  <path d="M 920,200 L 920,172" stroke="#FF4D4D" stroke-width="3" fill="none" marker-end="url(#red-arrow)"/>

  <!-- Advantage Section -->
  <g id="advantage-chart">
    <!-- Bar 1 (Yellow) -->
    <rect x="882" y="112" width="12" height="25" fill="#FFE082" stroke="#000000" stroke-width="1.2"/>
    <!-- Sparkle/Star 1 -->
    <path d="M 888,100 L 889.5,103 L 893,103 L 890,105 L 891.5,108 L 888,106 L 884.5,108 L 886,105 L 883,103 L 886.5,103 Z" fill="#FFD54F" stroke="#000000" stroke-width="0.8"/>

    <!-- Bar 2 (Green) -->
    <rect x="907" y="97" width="12" height="40" fill="#A5D6A7" stroke="#000000" stroke-width="1.2"/>
    <!-- Sparkle/Star 2 -->
    <path d="M 913,85 L 914.5,88 L 918,88 L 915,90 L 916.5,93 L 913,91 L 909.5,93 L 911,90 L 908,88 L 911.5,88 Z" fill="#FFD54F" stroke="#000000" stroke-width="0.8"/>

    <!-- Bar 3 (Blue) -->
    <rect x="932" y="87" width="12" height="50" fill="#90CAF9" stroke="#000000" stroke-width="1.2"/>
    <!-- Crown -->
    <path d="M 931,81 L 929,75 L 933,78 L 938,72 L 943,78 L 947,75 L 945,81 Z" fill="#FFD54F" stroke="#000000" stroke-width="0.8"/>

    <!-- Label -->
    <text x="920" y="158" font-family="system-ui, sans-serif" font-size="15" font-weight="bold" fill="#000000" text-anchor="middle">Advantage</text>
  </g>

  <!-- Policy Gradient Box -->
  <g filter="url(#shadow)">
    <rect x="540" y="10" width="170" height="34" rx="10" fill="#FFFFFF" stroke="#000000" stroke-width="1.5"/>
  </g>
  <text x="625" y="32" font-family="system-ui, sans-serif" font-size="14" font-weight="bold" fill="#000000" text-anchor="middle">Policy Gradient</text>

  <!-- Red Arrow: Advantage -> Policy Gradient -->
  <path d="M 920,65 L 920,27 L 718,27" stroke="#FF4D4D" stroke-width="3" fill="none" marker-end="url(#red-arrow)"/>

  <!-- Red Arrow: Policy Gradient -> Policy Model -->
  <path d="M 540,27 L 340,27 L 340,90" stroke="#FF4D4D" stroke-width="3" fill="none" marker-end="url(#red-arrow)"/>

</svg>