<svg xmlns="http://www.w3.org/2000/svg" viewBox="0 0 720 1000" width="100%" height="100%">
  <defs>
    <!-- Markers for arrows -->
    <marker id="arrow" viewBox="0 0 10 10" refX="6" refY="5" markerWidth="6" markerHeight="6" orient="auto-start-reverse">
      <path d="M 0 1.5 L 10 5 L 0 8.5 z" fill="#595959" />
    </marker>
    <marker id="arrow-black" viewBox="0 0 10 10" refX="6" refY="5" markerWidth="6" markerHeight="6" orient="auto-start-reverse">
      <path d="M 0 1.5 L 10 5 L 0 8.5 z" fill="#000" />
    </marker>
    <marker id="arrow-green" viewBox="0 0 10 10" refX="5" refY="5" markerWidth="6" markerHeight="6" orient="auto-start-reverse">
      <path d="M 0 1.5 L 10 5 L 0 8.5 z" fill="#70ad47" />
    </marker>
    <marker id="arrow-blue" viewBox="0 0 10 10" refX="6" refY="5" markerWidth="6" markerHeight="6" orient="auto-start-reverse">
      <path d="M 0 1.5 L 10 5 L 0 8.5 z" fill="#418ab3" />
    </marker>
    <marker id="arrow-gray-dashed" viewBox="0 0 10 10" refX="6" refY="5" markerWidth="6" markerHeight="6" orient="auto-start-reverse">
      <path d="M 0 1.5 L 10 5 L 0 8.5 z" fill="#a6a6a6" />
    </marker>
  </defs>

  <!-- ================= TOP PANEL (LEFT COLUMN CONTENT) ================= -->
  <rect x="10" y="15" width="700" height="475" rx="15" fill="#f4f7f5" stroke="#7f7f7f" stroke-width="2" />
  
  <!-- DyFlow Framework Header -->
  <rect x="225" y="15" width="270" height="40" rx="5" fill="#fff2cc" stroke="#000" stroke-width="1.5" />
  <text x="360" y="42" font-family="Georgia, serif" font-size="22" font-weight="bold" text-anchor="middle">DyFlow Framework</text>

  <!-- Task p -->
  <polygon points="65,45 175,45 155,110 45,110" fill="#cbe3fc" stroke="#000" stroke-width="2" />
  <text x="105" y="85" font-family="Georgia, serif" font-size="22" text-anchor="middle">Task <tspan font-style="italic">p</tspan></text>

  <!-- Designer -->
  <rect x="350" y="55" width="215" height="45" rx="8" fill="#fcd4c5" stroke="#000" stroke-width="2" />
  <!-- Fire Icon (Left) -->
  <g transform="translate(358, 60) scale(0.7)">
    <path d="M15,2 C15,2 12,8 15,12 C18,16 23,15 23,21 C23,27 17,30 12,30 C7,30 3,26 3,20 C3,14 9,10 9,10 C9,10 7,14 9,17 C11,20 14,18 14,15 C14,12 11,8 15,2 Z" fill="#ff5500" />
    <path d="M15,10 C15,10 13,14 15,16 C17,18 19,17 19,21 C19,25 16,27 12,27 C8,27 6,24 6,20 C6,16 11,13 11,13 C11,13 10,15 11,17 C12,19 14,18 14,16 C14,14 13,12 15,10 Z" fill="#ffcc00" />
  </g>
  <!-- Snowflake Icon (Right) -->
  <g transform="translate(525, 60) scale(0.75)" stroke="#418ab3" stroke-width="2" fill="none">
    <line x1="15" y1="3" x2="15" y2="27" />
    <line x1="3" y1="15" x2="27" y2="15" />
    <line x1="6.5" y1="6.5" x2="23.5" y2="23.5" />
    <line x1="6.5" y1="23.5" x2="23.5" y2="6.5" />
    <path d="M11,7 L15,11 L19,7 M11,23 L15,19 L19,23 M7,11 L11,15 L7,19 M23,11 L19,15 L23,19" />
  </g>
  <text x="458" y="86" font-family="Georgia, serif" font-size="22" font-weight="bold" text-anchor="middle">Designer</text>

  <!-- Subgraph G_t -->
  <rect x="195" y="135" width="480" height="340" rx="15" fill="#e2f0d9" stroke="#000" stroke-width="2" />
  <text x="435" y="168" font-family="Georgia, serif" font-size="24" font-weight="bold" text-anchor="middle">Subgraph <tspan font-style="italic">G</tspan><tspan dy="5" font-size="16">t</tspan></text>

  <!-- Op Sequence Box -->
  <rect x="220" y="185" width="430" height="125" rx="5" fill="#faf2e8" stroke="#000" stroke-width="1.5" />
  <!-- Tab -->
  <rect x="375" y="185" width="125" height="25" fill="#ffffff" stroke="#000" stroke-width="1.5" />
  <text x="437" y="203" font-family="Georgia, serif" font-size="15" font-weight="bold" text-anchor="middle">Op Sequence</text>

  <!-- Divider -->
  <line x1="435" y1="210" x2="435" y2="310" stroke="#000" stroke-width="1.5" />

  <!-- Left Graph inside Op Sequence -->
  <circle cx="245" cy="265" r="12" fill="#cbe3fc" stroke="#418ab3" stroke-width="1.5" />
  <!-- Cylinder -->
  <g transform="translate(300, 250)">
    <path d="M 0,5 A 8,15 0 0,0 0,25 L 40,25 A 8,15 0 0,0 40,5 Z" fill="#c5e0b4" stroke="#70ad47" stroke-width="1.5" />
    <ellipse cx="40" cy="15" rx="5" ry="10" fill="#e2f0d9" stroke="#70ad47" stroke-width="1.5" />
    <ellipse cx="0" cy="15" rx="5" ry="10" fill="#c5e0b4" stroke="#70ad47" stroke-width="1.5" />
  </g>
  <circle cx="395" cy="265" r="12" fill="#cbe3fc" stroke="#418ab3" stroke-width="1.5" />

  <!-- Arrows in Left Graph -->
  <path d="M 257,265 L 295,265" stroke="#000" stroke-width="1.5" marker-end="url(#arrow-black)" />
  <path d="M 345,265 L 380,265" stroke="#000" stroke-width="1.5" marker-end="url(#arrow-black)" />
  <path d="M 325,250 L 325,220 L 245,220 L 245,250" fill="none" stroke="#000" stroke-width="1.5" marker-end="url(#arrow-black)" />

  <!-- Right Graph inside Op Sequence -->
  <circle cx="470" cy="245" r="12" fill="#cbe3fc" stroke="#418ab3" stroke-width="1.5" />
  <polygon points="525,220 540,245 510,245" fill="#fcd4c5" stroke="#c00000" stroke-width="1.5" />
  <circle cx="525" cy="290" r="12" fill="#cbe3fc" stroke="#418ab3" stroke-width="1.5" />
  <rect x="575" y="235" width="22" height="22" rx="4" fill="#d9d2e9" stroke="#674ea7" stroke-width="1.5" />

  <!-- Arrows in Right Graph -->
  <path d="M 470,257 C 470,290 505,290 510,290" fill="none" stroke="#000" stroke-width="1.5" marker-end="url(#arrow-black)" />
  <path d="M 482,245 C 500,245 505,235 510,235" fill="none" stroke="#000" stroke-width="1.5" marker-end="url(#arrow-black)" />
  <path d="M 540,232 L 575,232" stroke="#000" stroke-width="1.5" marker-end="url(#arrow-black)" />
  <path d="M 586,257 L 586,280 C 586,290 540,290 540,290" fill="none" stroke="#000" stroke-width="1.5" />

  <!-- Dots on the very right of Op Sequence -->
  <text x="630" y="235" font-size="20" font-weight="bold">...</text>
  <text x="630" y="255" font-size="20" font-weight="bold">...</text>
  <text x="630" y="275" font-size="20" font-weight="bold">...</text>
  <text x="630" y="295" font-size="20" font-weight="bold">...</text>

  <!-- Op Template &amp; Op Instance Box -->
  <rect x="220" y="345" width="430" height="115" rx="5" fill="#e2f0d9" stroke="#000" stroke-width="1.5" />
  <!-- Labels -->
  <rect x="245" y="345" width="125" height="22" fill="#ffffff" stroke="#000" stroke-width="1.5" />
  <text x="307" y="361" font-family="Georgia, serif" font-size="14" font-weight="bold" text-anchor="middle">Op Template</text>

  <rect x="495" y="345" width="115" height="22" fill="#ffffff" stroke="#000" stroke-width="1.5" />
  <text x="552" y="361" font-family="Georgia, serif" font-size="14" font-weight="bold" text-anchor="middle">Op Instance</text>

  <!-- Inner Blue Boxes -->
  <rect x="225" y="375" width="165" height="75" rx="5" fill="#d9e1f2" stroke="#000" stroke-width="1.2" />
  <rect x="475" y="375" width="165" height="75" rx="5" fill="#d9e1f2" stroke="#000" stroke-width="1.2" />

  <!-- Inside Op Template (White shapes) -->
  <circle cx="248" cy="412" r="12" fill="#fff" stroke="#000" stroke-width="1.5" />
  <g transform="translate(270, 400)">
    <path d="M 0,5 A 6,12 0 0,0 0,20 L 30,20 A 6,12 0 0,0 30,5 Z" fill="#fff" stroke="#000" stroke-width="1.5" />
    <ellipse cx="30" cy="12.5" rx="4" ry="7.5" fill="#fff" stroke="#000" stroke-width="1.5" />
    <ellipse cx="0" cy="12.5" rx="4" ry="7.5" fill="#fff" stroke="#000" stroke-width="1.5" />
  </g>
  <polygon points="325,400 337,425 313,425" fill="#fff" stroke="#000" stroke-width="1.5" />
  <rect x="352" y="400" width="22" height="22" rx="4" fill="#fff" stroke="#000" stroke-width="1.5" />
  <text x="307" y="440" font-size="16" font-weight="bold" text-anchor="middle">.... ....</text>

  <!-- Inside Op Instance (Colored shapes) -->
  <circle cx="498" cy="412" r="12" fill="#cbe3fc" stroke="#418ab3" stroke-width="1.5" />
  <g transform="translate(520, 400)">
    <path d="M 0,5 A 6,12 0 0,0 0,20 L 30,20 A 6,12 0 0,0 30,5 Z" fill="#c5e0b4" stroke="#70ad47" stroke-width="1.5" />
    <ellipse cx="30" cy="12.5" rx="4" ry="7.5" fill="#e2f0d9" stroke="#70ad47" stroke-width="1.5" />
    <ellipse cx="0" cy="12.5" rx="4" ry="7.5" fill="#c5e0b4" stroke="#70ad47" stroke-width="1.5" />
  </g>
  <polygon points="575,400 587,425 563,425" fill="#fcd4c5" stroke="#c00000" stroke-width="1.5" />
  <rect x="602" y="400" width="22" height="22" rx="4" fill="#d9d2e9" stroke="#674ea7" stroke-width="1.5" />
  <text x="557" y="440" font-size="16" font-weight="bold" text-anchor="middle">.... ....</text>

  <!-- Mapping arrows between Template and Instance -->
  <path d="M 400,400 L 465,400" stroke="#a6a6a6" stroke-dasharray="3,3" stroke-width="1.5" marker-end="url(#arrow-gray-dashed)" />
  <path d="M 400,425 L 465,425" stroke="#a6a6a6" stroke-dasharray="3,3" stroke-width="1.5" marker-end="url(#arrow-gray-dashed)" />
  <text x="432" y="395" font-family="Georgia, serif" font-size="18" font-style="italic" text-anchor="middle">φ</text>
  <text x="432" y="442" font-family="Georgia, serif" font-size="18" font-style="italic" text-anchor="middle">ψ</text>

  <!-- Magnifying Glass &amp; Dashed Blue Arrow -->
  <g transform="translate(360, 305) rotate(-30)">
    <circle cx="10" cy="10" r="8" fill="none" stroke="#000" stroke-width="2.5" />
    <circle cx="10" cy="10" r="7" fill="#cbe3fc" opacity="0.7" />
    <line x1="17" y1="17" x2="27" y2="27" stroke="#000" stroke-width="4" stroke-linecap="round" />
  </g>
  <path d="M 400,290 C 410,320 410,340 435,355" fill="none" stroke="#418ab3" stroke-width="2.5" stroke-dasharray="4,4" marker-end="url(#arrow-blue)" />

  <!-- State s_t -->
  <rect x="55" y="350" width="45" height="115" rx="8" fill="#fff2cc" stroke="#000" stroke-width="2" />
  <text x="78" y="408" font-family="Georgia, serif" font-size="20" font-weight="bold" text-anchor="middle" transform="rotate(-90, 78, 408)">State <tspan font-style="italic">s</tspan><tspan dy="5" font-size="14">t</tspan></text>

  <!-- Summary -->
  <rect x="55" y="155" width="45" height="115" rx="8" fill="#fff2cc" stroke="#000" stroke-width="2" />
  <text x="78" y="212" font-family="Georgia, serif" font-size="20" font-weight="bold" text-anchor="middle" transform="rotate(-90, 78, 212)">Summary</text>

  <!-- Left Panel Connections -->
  <!-- Task p -> Designer -->
  <path d="M 160,77 L 342,77" fill="none" stroke="#595959" stroke-width="2.5" marker-end="url(#arrow)" />
  <!-- Designer -> Subgraph -->
  <path d="M 435,100 L 435,132" fill="none" stroke="#595959" stroke-width="2.5" marker-end="url(#arrow)" />
  <!-- Subgraph -> State s_t (Save) -->
  <path d="M 195,408 L 110,408" fill="none" stroke="#595959" stroke-width="2.5" marker-end="url(#arrow)" />
  <text x="150" y="400" font-family="Georgia, serif" font-size="16" font-weight="bold" text-anchor="middle">Save</text>
  <!-- State s_t -> Summary (f) -->
  <path d="M 78,350 L 78,280" fill="none" stroke="#595959" stroke-width="2.5" marker-end="url(#arrow)" />
  <text x="65" y="315" font-family="Georgia, serif" font-size="20" font-style="italic" text-anchor="middle">f</text>
  <!-- Summary -> Designer (Replan) -->
  <path d="M 78,155 C 78,115 150,115 350,115 C 362,115 368,110 368,105" fill="none" stroke="#70ad47" stroke-width="3" marker-end="url(#arrow-green)" />
  <text x="220" y="110" font-family="Georgia, serif" font-size="18" font-weight="bold" fill="#000" text-anchor="middle">Replan</text>

  <!-- Iterate Loop -->
  <g transform="translate(140, 290)">
    <path d="M 10,-25 A 30,30 0 1,0 25,10" fill="none" stroke="#70ad47" stroke-width="3" />
    <path d="M 5,-20 A 25,25 0 1,0 20,5" fill="none" stroke="#70ad47" opacity="0.5" stroke-width="1.5" />
    <polygon points="10,-32 22,-22 10,-18" fill="#70ad47" />
    <text x="-3" y="5" font-family="Georgia, serif" font-size="15" font-weight="bold" text-anchor="middle">Iterate</text>
  </g>
  <text x="20" y="360" font-family="Georgia, serif" font-size="20" font-weight="bold" text-anchor="middle" transform="rotate(-90, 20, 360)">Summarize</text>


  <!-- ================= BOTTOM PANEL (RIGHT COLUMN CONTENT) ================= -->
  <g transform="translate(-555, 495)">
    <rect x="725" y="15" width="380" height="475" rx="15" fill="#f9f9f9" stroke="#7f7f7f" stroke-width="2" />

    <!-- Expert -->
    <rect x="745" y="25" width="48" height="145" rx="10" fill="#cbe3fc" stroke="#000" stroke-width="2" />
    <text x="770" y="90" font-family="Georgia, serif" font-size="22" font-weight="bold" text-anchor="middle" transform="rotate(-90, 770, 90)">Expert</text>
    <g transform="translate(753, 130) scale(0.65)" stroke="#418ab3" stroke-width="2" fill="none">
      <line x1="15" y1="3" x2="15" y2="27" />
      <line x1="3" y1="15" x2="27" y2="15" />
      <line x1="6.5" y1="6.5" x2="23.5" y2="23.5" />
      <line x1="6.5" y1="23.5" x2="23.5" y2="6.5" />
      <path d="M11,7 L15,11 L19,7 M11,23 L15,19 L19,23 M7,11 L11,15 L7,19 M23,11 L19,15 L23,19" />
    </g>

    <!-- Tasks P -->
    <g transform="translate(945, 25)">
      <rect x="0" y="0" width="100" height="50" fill="#fdeaa8" />
      <ellipse cx="0" cy="25" rx="10" ry="25" fill="#fdeaa8" />
      <ellipse cx="100" cy="25" rx="10" ry="25" fill="#fdeaa8" stroke="#000" stroke-width="2" />
      <line x1="0" y1="0" x2="100" y2="0" stroke="#000" stroke-width="2" />
      <line x1="0" y1="50" x2="100" y2="50" stroke="#000" stroke-width="2" />
      <path d="M 0,0 A 10,25 0 0,0 0,50" fill="none" stroke="#000" stroke-width="2" />
      <text x="50" y="31" font-family="Georgia, serif" font-size="18" font-weight="bold" text-anchor="middle">Tasks <tspan font-style="italic">&#x2119;</tspan></text>
    </g>

    <!-- Expert Trajectories -->
    <text x="955" y="100" font-family="Georgia, serif" font-size="16" font-weight="bold" text-anchor="middle">Expert Trajectories</text>
    <rect x="845" y="108" width="225" height="65" rx="8" fill="#fcd4c5" stroke="#000" stroke-width="1.5" />
    
    <!-- Inside Expert Trajectories: Graph 1 (t-1) -->
    <g transform="translate(855, 112)">
      <circle cx="10" cy="15" r="4" fill="#ff5500" />
      <circle cx="25" cy="10" r="4" fill="#ff5500" />
      <circle cx="20" cy="30" r="4" fill="#ff5500" />
      <circle cx="35" cy="25" r="4" fill="#ff5500" />
      <line x1="10" y1="15" x2="25" y2="10" stroke="#000" stroke-width="1" />
      <line x1="10" y1="15" x2="20" y2="30" stroke="#000" stroke-width="1" />
      <line x1="25" y1="10" x2="20" y2="30" stroke="#000" stroke-width="1" />
      <line x1="20" y1="30" x2="35" y2="25" stroke="#000" stroke-width="1" />
      <circle cx="50" cy="20" r="8" fill="none" stroke="#ff5500" stroke-width="1.5" stroke-dasharray="2,2" />
      <circle cx="50" cy="20" r="4" fill="#ff5500" opacity="0.5" />
      <text x="30" y="48" font-family="Georgia, serif" font-size="10" text-anchor="middle">t - 1</text>
      <path d="M 8,36 C 8,41 18,41 23,41 C 25,41 28,43 28,45 C 28,43 31,41 33,41 C 38,41 48,41 48,36" fill="none" stroke="#000" stroke-width="0.8" />
    </g>

    <!-- Inside Expert Trajectories: Graph 2 (t) -->
    <g transform="translate(940, 112)">
      <circle cx="10" cy="15" r="4" fill="#ff5500" />
      <circle cx="25" cy="10" r="4" fill="#ff5500" />
      <circle cx="20" cy="30" r="4" fill="#ff5500" />
      <circle cx="35" cy="25" r="4" fill="#ff5500" />
      <line x1="10" y1="15" x2="25" y2="10" stroke="#000" stroke-width="1" />
      <line x1="10" y1="15" x2="20" y2="30" stroke="#000" stroke-width="1" />
      <line x1="25" y1="10" x2="20" y2="30" stroke="#000" stroke-width="1" />
      <line x1="20" y1="30" x2="35" y2="25" stroke="#000" stroke-width="1" />
      <circle cx="50" cy="20" r="8" fill="none" stroke="#ff5500" stroke-width="1.5" stroke-dasharray="2,2" />
      <circle cx="50" cy="20" r="4" fill="#ff5500" opacity="0.5" />
      <text x="30" y="48" font-family="Georgia, serif" font-size="10" text-anchor="middle">t</text>
      <path d="M 8,36 C 8,41 18,41 23,41 C 25,41 28,43 28,45 C 28,43 31,41 33,41 C 38,41 48,41 48,36" fill="none" stroke="#000" stroke-width="0.8" />
    </g>
    <line x1="1015" y1="140" x2="1055" y2="140" stroke="#000" stroke-width="2" stroke-dasharray="3,3" />

    <!-- DyPlanner -->
    <rect x="750" y="225" width="310" height="45" rx="8" fill="#fcd4c5" stroke="#000" stroke-width="2" />
    <g transform="translate(760, 230) scale(0.7)">
      <path d="M15,2 C15,2 12,8 15,12 C18,16 23,15 23,21 C23,27 17,30 12,30 C7,30 3,26 3,20 C3,14 9,10 9,10 C9,10 7,14 9,17 C11,20 14,18 14,15 C14,12 11,8 15,2 Z" fill="#ff5500" />
      <path d="M15,10 C15,10 13,14 15,16 C17,18 19,17 19,21 C19,25 16,27 12,27 C8,27 6,24 6,20 C6,16 11,13 11,13 C11,13 10,15 11,17 C12,19 14,18 14,16 C14,14 13,12 15,10 Z" fill="#ffcc00" />
    </g>
    <text x="915" y="256" font-family="Georgia, serif" font-size="24" font-weight="bold" text-anchor="middle">DyPlanner</text>

    <!-- Self-generate Trajectories -->
    <rect x="735" y="385" width="135" height="85" rx="5" fill="#fcd4c5" stroke="#000" stroke-width="1.5" />
    <text x="802" y="418" font-family="Georgia, serif" font-size="16" font-weight="bold" text-anchor="middle">Self-generate</text>
    <text x="802" y="443" font-family="Georgia, serif" font-size="16" font-weight="bold" text-anchor="middle">Trajectories</text>

    <!-- Execution -->
    <rect x="945" y="385" width="140" height="85" rx="5" fill="#fff2cc" stroke="#000" stroke-width="1.5" />
    <!-- Row 1 (Top) -->
    <g transform="translate(950, 390)">
      <circle cx="10" cy="15" r="3" fill="#ff5500" />
      <circle cx="25" cy="10" r="3" fill="#ff5500" />
      <circle cx="40" cy="15" r="3" fill="#ff5500" />
      <line x1="10" y1="15" x2="25" y2="10" stroke="#000" stroke-width="0.8" />
      <line x1="25" y1="10" x2="40" y2="15" stroke="#000" stroke-width="0.8" />
      <circle cx="55" cy="12" r="5" fill="none" stroke="#ff5500" stroke-width="1" stroke-dasharray="1.5,1.5" />
      <circle cx="75" cy="15" r="3" fill="#ff5500" />
      <circle cx="90" cy="10" r="3" fill="#ff5500" />
      <line x1="75" y1="15" x2="90" y2="10" stroke="#000" stroke-width="0.8" />
      <circle cx="105" cy="12" r="5" fill="none" stroke="#ff5500" stroke-width="1" stroke-dasharray="1.5,1.5" />
      <circle cx="122" cy="12" r="8" fill="#2eb82e" />
      <path d="M 119,12 L 121,14 L 125,10" fill="none" stroke="#fff" stroke-width="1.5" stroke-linecap="round" stroke-linejoin="round" />
      <rect x="2" y="2" width="112" height="22" fill="none" stroke="#ffcc00" stroke-dasharray="2,2" stroke-width="1" />
    </g>
    <!-- Row 2 (Bottom) -->
    <g transform="translate(950, 425)">
      <circle cx="10" cy="15" r="3" fill="#ff5500" />
      <circle cx="25" cy="10" r="3" fill="#ff5500" />
      <circle cx="40" cy="15" r="3" fill="#ff5500" />
      <line x1="10" y1="15" x2="25" y2="10" stroke="#000" stroke-width="0.8" />
      <line x1="25" y1="10" x2="40" y2="15" stroke="#000" stroke-width="0.8" />
      <circle cx="55" cy="12" r="5" fill="none" stroke="#ff5500" stroke-width="1" stroke-dasharray="1.5,1.5" />
      <circle cx="75" cy="15" r="3" fill="#ff5500" />
      <circle cx="90" cy="10" r="3" fill="#ff5500" />
      <line x1="75" y1="15" x2="90" y2="10" stroke="#000" stroke-width="0.8" />
      <circle cx="105" cy="12" r="5" fill="none" stroke="#ff5500" stroke-width="1" stroke-dasharray="1.5,1.5" />
      <circle cx="122" cy="12" r="8" fill="#ff3333" />
      <path d="M 119,9 L 125,15 M 125,9 L 119,15" fill="none" stroke="#fff" stroke-width="1.5" stroke-linecap="round" />
      <rect x="2" y="2" width="112" height="22" fill="none" stroke="#ffcc00" stroke-dasharray="2,2" stroke-width="1" />
    </g>

    <!-- Right Panel Connections -->
    <!-- Tasks P -> Expert -->
    <path d="M 935,50 L 803,50" fill="none" stroke="#a6a6a6" stroke-width="2.5" marker-end="url(#arrow-gray-dashed)" />
    <text x="870" y="42" font-family="Georgia, serif" font-size="18" font-weight="bold" text-anchor="middle">Sample</text>

    <!-- Expert -> Expert Trajectories -->
    <path d="M 793,140 L 835,140" fill="none" stroke="#a6a6a6" stroke-dasharray="4,4" stroke-width="2.5" marker-end="url(#arrow-gray-dashed)" />

    <!-- Expert Trajectories -> DyPlanner -->
    <path d="M 955,173 L 955,215" fill="none" stroke="#a6a6a6" stroke-dasharray="4,4" stroke-width="2.5" marker-end="url(#arrow-gray-dashed)" />
    <text x="850" y="205" font-family="Georgia, serif" font-size="18" font-weight="bold" text-anchor="middle">Distillation</text>
    <text x="1020" y="205" font-family="Georgia, serif" font-size="22" font-weight="bold" text-anchor="middle">&#x2112;<tspan dy="6" font-size="14">SFT</tspan></text>

    <!-- DyPlanner -> Self-generate -->
    <path d="M 785,270 L 785,375" fill="none" stroke="#595959" stroke-width="2.5" marker-end="url(#arrow)" />
    <text x="765" y="325" font-family="Georgia, serif" font-size="16" font-weight="bold" text-anchor="middle" transform="rotate(-90, 765, 325)">Generate</text>

    <!-- Self-generate -> Execution -->
    <path d="M 870,428 L 935,428" fill="none" stroke="#595959" stroke-width="2.5" marker-end="url(#arrow)" />
    <text x="902" y="445" font-family="Georgia, serif" font-size="15" font-weight="bold" text-anchor="middle">Execution</text>

    <!-- Execution -> DyPlanner -->
    <path d="M 1015,385 L 1015,280" fill="none" stroke="#595959" stroke-width="2.5" marker-end="url(#arrow)" />
    <text x="1030" y="345" font-family="Georgia, serif" font-size="22" font-weight="bold" text-anchor="left">&#x2112;<tspan dy="6" font-size="14">KTO</tspan></text>

    <!-- Self-play Preference Optimization Loop -->
    <g transform="translate(890, 335)">
      <path d="M 15,-35 A 40,40 0 1,0 35,15" fill="none" stroke="#70ad47" stroke-width="3" />
      <path d="M 10,-30 A 35,35 0 1,0 30,10" fill="none" stroke="#70ad47" opacity="0.5" stroke-width="1.5" />
      <polygon points="15,-43 29,-31 15,-25" fill="#70ad47" />
      <text x="0" y="-5" font-family="Georgia, serif" font-size="12" font-weight="bold" text-anchor="middle">Self-play Preference</text>
      <text x="0" y="12" font-family="Georgia, serif" font-size="12" font-weight="bold" text-anchor="middle">Optimization</text>
    </g>
  </g>


  <!-- ================= CROSS-PANEL CONNECTIONS ================= -->
  <!-- Expert -> Designer -->
  <path d="M 214, 520 C 214, 495 685, 495 685, 300 C 685, 80 650, 80 575, 70" fill="none" stroke="#000" stroke-width="2" stroke-dasharray="3,3" marker-end="url(#arrow-black)" />
  <!-- DyPlanner -> Designer -->
  <path d="M 505, 742 C 695, 742 695, 500 695, 300 C 695, 90 650, 90 575, 90" fill="none" stroke="#000" stroke-width="2" stroke-dasharray="3,3" marker-end="url(#arrow-black)" />

</svg>