<svg xmlns="http://www.w3.org/2000/svg" viewBox="0 0 1600 900" style="background-color: white;">
  <defs>
    <!-- Arrowhead Marker -->
    <marker id="arrow" markerWidth="10" markerHeight="10" refX="9" refY="3" orient="auto" markerUnits="strokeWidth">
      <path d="M0,0 L0,6 L9,3 z" fill="black" />
    </marker>
    <!-- Small Arrowhead for dashed lines -->
    <marker id="arrow-small" markerWidth="8" markerHeight="8" refX="7" refY="3" orient="auto" markerUnits="strokeWidth">
      <path d="M0,0 L0,6 L7,3 z" fill="black" />
    </marker>
  </defs>

  <style>
    text { font-family: "Times New Roman", Times, serif; }
    .title { font-size: 56px; font-style: italic; font-weight: bold; }
    .label { font-size: 36px; font-weight: bold; }
    .box-text { font-size: 32px; font-weight: bold; }
    .small-text { font-size: 28px; }
    .sub { baseline-shift: sub; font-size: 0.7em; }
    .legend-text { font-size: 32px; }
    .dashed-box { fill: none; stroke: black; stroke-width: 4; stroke-dasharray: 15,10; }
    .stack { fill: none; stroke: black; stroke-width: 3; }
  </style>

  <!-- ================= SECTION A: ICL ================= -->
  <g id="section-a">
    <text x="160" y="60" class="title" text-anchor="middle">ICL</text>
    
    <!-- LLM -->
    <rect x="20" y="75" width="340" height="80" fill="#E6E6E6" stroke="black" stroke-width="4"/>
    <text x="190" y="115" class="box-text" text-anchor="middle">LLM</text>

    <!-- Input Stack -->
    <g transform="translate(60, 200)">
      <rect x="0" y="0" width="220" height="80" class="stack"/>
      <rect x="10" y="10" width="220" height="80" class="stack"/>
      <rect x="20" y="20" width="220" height="80" class="stack"/>
      <text x="10" y="-10" font-size="48" font-weight="bold">N</text>
      <path d="M-10,40 Q0,20 10,40" fill="none" stroke="black" stroke-width="3"/>
      <path d="M-10,60 Q0,80 10,60" fill="none" stroke="black" stroke-width="3"/>
    </g>

    <!-- Arrow to Embedding -->
    <line x1="160" y1="360" x2="160" y2="290" stroke="black" stroke-width="4" marker-end="url(#arrow)"/>

    <!-- Embedding Layer -->
    <rect x="60" y="360" width="240" height="100" fill="#F2F2F2" stroke="black" stroke-width="4"/>
    <text x="180" y="405" class="box-text" text-anchor="middle">Embedding Layer</text>

    <!-- Arrow to Input -->
    <line x1="160" y1="510" x2="160" y2="440" stroke="black" stroke-width="4" marker-end="url(#arrow)"/>

    <!-- Input Stack -->
    <g transform="translate(60, 500)">
      <rect x="0" y="0" width="220" height="80" class="stack"/>
      <rect x="10" y="10" width="220" height="80" class="stack"/>
      <text x="110" y="50" class="box-text" text-anchor="middle">Input x<tspan class="sub">i</tspan>, Label y<tspan class="sub">i</tspan></text>
    </g>

    <!-- Arrow to Bottom Input -->
    <line x1="160" y1="630" x2="160" y2="570" stroke="black" stroke-width="4" marker-end="url(#arrow)"/>

    <!-- Bottom Input Stack -->
    <g transform="translate(5, 630)">
      <rect x="0" y="0" width="360" height="100" class="stack"/>
      <rect x="10" y="10" width="360" height="100" class="stack"/>
      <rect x="20" y="20" width="360" height="100" class="stack"/>
      <text x="180" y="50" class="box-text" text-anchor="middle">Input X (<tspan font-style="italic">SMILES</tspan> sequence): CC(C)(C)CCO</text>
      <text x="180" y="90" class="box-text" text-anchor="middle">Label Y (Predicted Property): 1.15</text>
    </g>

    <!-- Arrow to LLM -->
    <line x1="160" y1="200" x2="160" y2="130" stroke="black" stroke-width="4" marker-end="url(#arrow)"/>

    <!-- Label (a) -->
    <text x="130" y="820" class="label">(a)</text>
  </g>

  <!-- ================= SECTION B: MLLM ================= -->
  <g id="section-b">
    <text x="580" y="60" class="title" text-anchor="middle">MLLM</text>

    <!-- LLM -->
    <rect x="400" y="75" width="400" height="80" fill="#E6E6E6" stroke="black" stroke-width="4"/>
    <text x="600" y="115" class="box-text" text-anchor="middle">LLM</text>

    <!-- Dashed Container -->
    <rect x="600" y="340" width="240" height="420" class="dashed-box"/>

    <!-- Top Row: Tokens -->
    <g transform="translate(440, 160)">
      <!-- Dashed Group -->
      <rect x="0" y="0" width="340" height="80" rx="20" class="dashed-box"/>
      <!-- Tokens -->
      <rect x="10" y="10" width="80" height="60" fill="#E6E6E6" stroke="black" stroke-width="3"/>
      <rect x="90" y="10" width="80" height="60" fill="#E6E6E6" stroke="black" stroke-width="3"/>
      <rect x="170" y="10" width="80" height="60" fill="#E6E6E6" stroke="black" stroke-width="3"/>
      <rect x="250" y="10" width="80" height="60" fill="#E6E6E6" stroke="black" stroke-width="3"/>
      <rect x="330" y="10" width="80" height="60" fill="#E6E6E6" stroke="black" stroke-width="3"/>
      <rect x="410" y="10" width="80" height="60" fill="#E6E6E6" stroke="black" stroke-width="3"/>
      <rect x="490" y="10" width="80" height="60" fill="#E6E6E6" stroke="black" stroke-width="3"/>
      <rect x="570" y="10" width="80" height="60" fill="#E6E6E6" stroke="black" stroke-width="3"/>
      <rect x="650" y="10" width="80" height="60" fill="#E6E6E6" stroke="black" stroke-width="3"/>
      <rect x="730" y="10" width="80" height="60" fill="#E6E6E6" stroke="black" stroke-width="3"/>
      <rect x="810" y="10" width="80" height="60" fill="#E6E6E6" stroke="black" stroke-width="3"/>
      <!-- Blue Tokens -->
      <rect x="410" y="10" width="80" height="60" fill="#E6F2FF" stroke="#4472C4" stroke-width="4"/>
      <rect x="490" y="10" width="80" height="60" fill="#E6F2FF" stroke="#4472C4" stroke-width="4"/>
      <rect x="570" y="10" width="80" height="60" fill="#E6F2FF" stroke="#4472C4" stroke-width="4"/>
      <rect x="650" y="10" width="80" height="60" fill="#E6F2FF" stroke="#4472C4" stroke-width="4"/>
      <rect x="730" y="10" width="80" height="60" fill="#E6F2FF" stroke="#4472C4" stroke-width="4"/>
      <rect x="810" y="10" width="80" height="60" fill="#E6F2FF" stroke="#4472C4" stroke-width="4"/>
    </g>

    <!-- Side Arrows -->
    <path d="M440,200 L400,200 L400,180" fill="none" stroke="black" stroke-width="3" marker-end="url(#arrow-small)"/>
    <path d="M840,200 L800,200 L800,180" fill="none" stroke="black" stroke-width="3" marker-end="url(#arrow-small)"/>

    <!-- Blue Tokens Row 2 -->
    <g transform="translate(640, 240)">
      <rect x="0" y="0" width="80" height="80" fill="#E6F2FF" stroke="#4472C4" stroke-width="4"/>
      <rect x="80" y="0" width="80" height="80" fill="#E6F2FF" stroke="#4472C4" stroke-width="4"/>
      <rect x="160" y="0" width="80" height="80" fill="#E6F2FF" stroke="#4472C4" stroke-width="4"/>
      <rect x="240" y="0" width="80" height="80" fill="#E6F2FF" stroke="#4472C4" stroke-width="4"/>
    </g>

    <!-- Arrow to Projector -->
    <line x1="700" y1="320" x2="700" y2="300" stroke="black" stroke-width="4" marker-end="url(#arrow)"/>

    <!-- Projector -->
    <rect x="660" y="350" width="140" height="60" fill="#99B3E6" stroke="#4472C4" stroke-width="4"/>
    <text x="730" y="390" class="box-text" text-anchor="middle">Projector</text>
    <rect x="660" y="350" width="40" height="40" fill="#666666"/> <!-- Icon -->
    <text x="665" y="375" fill="white" font-size="12" font-weight="bold">&lt;AF&gt;08</text>

    <!-- Arrow to Blue Tokens -->
    <line x1="700" y1="410" x2="700" y2="390" stroke="black" stroke-width="4" marker-end="url(#arrow)"/>

    <!-- Blue Tokens Row 3 -->
    <g transform="translate(660, 440)">
      <rect x="0" y="0" width="80" height="80" fill="#99B3E6" stroke="#4472C4" stroke-width="4"/>
      <rect x="80" y="0" width="80" height="80" fill="#99B3E6" stroke="#4472C4" stroke-width="4"/>
      <rect x="160" y="0" width="80" height="80" fill="#99B3E6" stroke="#4472C4" stroke-width="4"/>
      <rect x="240" y="0" width="80" height="80" fill="#99B3E6" stroke="#4472C4" stroke-width="4"/>
    </g>

    <!-- Arrow to Encoder -->
    <line x1="700" y1="520" x2="700" y2="500" stroke="black" stroke-width="4" marker-end="url(#arrow)"/>

    <!-- Pre-trained Modality Encoder -->
    <path d="M620,550 L780,550 L780,630 L620,630 Z" fill="#99B3E6" stroke="#4472C4" stroke-width="4"/>
    <text x="700" y="580" class="box-text" text-anchor="middle">Pre-trained</text>
    <text x="700" y="620" class="box-text" text-anchor="middle">Modality Encoder</text>
    <rect x="620" y="550" width="40" height="40" fill="#666666"/> <!-- Icon -->
    <text x="625" y="575" fill="white" font-size="12" font-weight="bold">&lt;AF&gt;09</text>

    <!-- Arrows from Encoder -->
    <line x1="660" y1="630" x2="660" y2="660" stroke="black" stroke-width="4" marker-end="url(#arrow)"/>
    <line x1="700" y1="630" x2="700" y2="660" stroke="black" stroke-width="4" marker-end="url(#arrow)"/>
    <line x1="740" y1="630" x2="740" y2="660" stroke="black" stroke-width="4" marker-end="url(#arrow)"/>

    <!-- Bottom Input Stack -->
    <g transform="translate(620, 660)">
      <rect x="0" y="0" width="80" height="80" fill="#888888" stroke="black" stroke-width="3"/>
      <text x="40" y="50" fill="white" font-size="24" font-weight="bold" text-anchor="middle">&lt;AF&gt;03</text>
      <rect x="80" y="0" width="80" height="80" fill="#888888" stroke="black" stroke-width="3"/>
      <text x="120" y="50" fill="white" font-size="24" font-weight="bold" text-anchor="middle">&lt;AF&gt;05</text>
      <rect x="160" y="0" width="80" height="80" fill="#888888" stroke="black" stroke-width="3"/>
      <text x="200" y="50" fill="white" font-size="24" font-weight="bold" text-anchor="middle">&lt;AF&gt;10</text>
    </g>

    <!-- Arrow to Text Input -->
    <line x1="620" y1="700" x2="620" y2="670" stroke="black" stroke-width="4" marker-end="url(#arrow)"/>
    <line x1="700" y1="700" x2="700" y2="670" stroke="black" stroke-width="4" marker-end="url(#arrow)"/>
    <line x1="780" y1="700" x2="780" y2="670" stroke="black" stroke-width="4" marker-end="url(#arrow)"/>

    <!-- Text Input Box -->
    <rect x="400" y="510" width="180" height="200" fill="white" stroke="black" stroke-width="4"/>
    <text x="490" y="570" class="box-text" text-anchor="middle">Text Input: x<tspan class="sub">i</tspan></text>
    <text x="490" y="600" class="box-text" text-anchor="middle">Modality Input: m<tspan class="sub">i</tspan></text>
    <text x="490" y="630" class="box-text" text-anchor="middle">Label y<tspan class="sub">i</tspan></text>

    <!-- Arrow to Embedding -->
    <line x1="490" y1="510" x2="490" y2="440" stroke="black" stroke-width="4" marker-end="url(#arrow)"/>

    <!-- Embedding Layer -->
    <rect x="390" y="370" width="200" height="100" fill="#F2F2F2" stroke="black" stroke-width="4"/>
    <text x="490" y="415" class="box-text" text-anchor="middle">Embedding Layer</text>

    <!-- Arrow to LLM -->
    <line x1="490" y1="370" x2="490" y2="300" stroke="black" stroke-width="4" marker-end="url(#arrow)"/>

    <!-- Label (b) -->
    <text x="650" y="820" class="label">(b)</text>
  </g>

  <!-- ================= SECTION C: ICR L ================= -->
  <g id="section-c">
    <text x="1250" y="60" class="title" text-anchor="middle">ICRL</text>

    <!-- LLM -->
    <rect x="880" y="75" width="700" height="80" fill="#E6E6E6" stroke="black" stroke-width="4"/>
    <text x="1230" y="115" class="box-text" text-anchor="middle">LLM</text>

    <!-- Vertical Dividers -->
    <line x1="1180" y1="140" x2="1180" y2="680" stroke="black" stroke-width="5"/>
    <text x="1100" y="160" font-size="36" font-weight="bold">Text Level</text>
    <text x="1200" y="160" font-size="36" font-weight="bold">Embedding Level</text>

    <!-- Left Column: Text Level -->
    <g transform="translate(950, 200)">
      <!-- Text Stack -->
      <g>
        <rect x="0" y="0" width="200" height="80" class="stack"/>
        <rect x="10" y="10" width="200" height="80" class="stack"/>
        <rect x="20" y="20" width="200" height="80" class="stack"/>
      </g>
      <!-- Arrow to Embedding -->
      <line x1="100" y1="100" x2="100" y2="60" stroke="black" stroke-width="4" marker-end="url(#arrow)"/>
      
      <!-- Embedding Layer -->
      <rect x="0" y="200" width="260" height="60" fill="#F2F2F2" stroke="black" stroke-width="4"/>
      <text x="130" y="240" class="box-text" text-anchor="middle">Embedding Layer</text>

      <!-- Arrow to Rep -->
      <line x1="130" y1="200" x2="130" y2="160" stroke="black" stroke-width="4" marker-end="url(#arrow)"/>

      <!-- Rep Stack -->
      <g transform="translate(100, 160)">
        <rect x="0" y="0" width="120" height="120" class="stack"/>
        <rect x="10" y="10" width="120" height="120" class="stack"/>
        <rect x="20" y="20" width="120" height="120" class="stack"/>
      </g>
      <!-- Label -->
      <text x="160" y="100" class="box-text" text-anchor="middle">Rep r<tspan class="sub">i</tspan></text>
      <text x="160" y="130" class="box-text" text-anchor="middle">Label y<tspan class="sub">i</tspan></text>

      <!-- Arrow to Pre-trained FM -->
      <line x1="160" y1="160" x2="160" y2="120" stroke="black" stroke-width="4" marker-end="url(#arrow)"/>

      <!-- Pre-trained FM -->
      <rect x="0" y="200" width="120" height="120" fill="#F2E0F2" stroke="#800080" stroke-width="4"/>
      <text x="60" y="240" class="box-text" text-anchor="middle">Pre-trained</text>
      <text x="60" y="280" class="box-text" text-anchor="middle">FM</text>

      <!-- Arrow to Bottom Input -->
      <line x1="60" y1="200" x2="60" y2="160" stroke="black" stroke-width="4" marker-end="url(#arrow)"/>

      <!-- Bottom Input Stack -->
      <g transform="translate(0, 160)">
        <rect x="0" y="0" width="360" height="100" class="stack"/>
        <rect x="10" y="10" width="360" height="100" class="stack"/>
        <rect x="20" y="20" width="360" height="100" class="stack"/>
        <text x="180" y="50" class="box-text" text-anchor="middle">Input X (<tspan font-style="italic">SMILES</tspan> sequence): Oc1cccc1O</text>
        <text x="180" y="90" class="box-text" text-anchor="middle">Label Y (Predicted Property): -6.36</text>
      </g>
    </g>

    <!-- Middle Column: Stringify -->
    <g transform="translate(880, 440)">
      <!-- Pink Tokens -->
      <g>
        <rect x="0" y="0" width="80" height="80" fill="#FCE4F6" stroke="#800080" stroke-width="4"/>
        <rect x="80" y="0" width="80" height="80" fill="#FCE4F6" stroke="#800080" stroke-width="4"/>
        <rect x="160" y="0" width="80" height="80" fill="#FCE4F6" stroke="#800080" stroke-width="4"/>
      </g>
      <!-- Dashed Group -->
      <rect x="0" y="0" width="240" height="80" rx="20" class="dashed-box"/>
      <!-- Arrow to Rep -->
      <line x1="120" y1="80" x2="120" y2="60" stroke="black" stroke-width="4" marker-end="url(#arrow)"/>
      <text x="130" y="50" font-size="32" font-weight="bold">Stringify</text>
    </g>

    <!-- Right Column: Embedding Level -->
    <g transform="translate(1350, 200)">
      <!-- Top Stack (Orange) -->
      <g>
        <rect x="0" y="0" width="80" height="80" fill="#FFF2E6" stroke="#C65911" stroke-width="4"/>
        <rect x="10" y="10" width="80" height="80" fill="#FFF2E6" stroke="#C65911" stroke-width="4"/>
        <rect x="20" y="20" width="80" height="80" fill="#FFF2E6" stroke="#C65911" stroke-width="4"/>
      </g>
      <!-- Arrow to Projector -->
      <line x1="60" y1="100" x2="60" y2="60" stroke="black" stroke-width="4" marker-end="url(#arrow)"/>
      
      <!-- Projector -->
      <rect x="0" y="200" width="140" height="60" fill="#F2E0E0" stroke="#C65911" stroke-width="4"/>
      <text x="120" y="240" class="box-text" text-anchor="middle">Projector</text>
      <rect x="0" y="200" width="40" height="40" fill="#666666"/> <!-- Icon -->
      <text x="5" y="225" fill="white" font-size="12" font-weight="bold">&lt;AF&gt;01</text>

      <!-- Arrow to Pink Tokens -->
      <line x1="60" y1="200" x2="60" y2="160" stroke="black" stroke-width="4" marker-end="url(#arrow)"/>

      <!-- Pink Tokens -->
      <g transform="translate(0, 160)">
        <rect x="0" y="0" width="80" height="80" fill="#FCE4F6" stroke="#800080" stroke-width="4"/>
        <rect x="80" y="0" width="80" height="80" fill="#FCE4F6" stroke="#800080" stroke-width="4"/>
        <rect x="160" y="0" width="80" height="80" fill="#FCE4F6" stroke="#800080" stroke-width="4"/>
      </g>
      <!-- Dashed Group -->
      <rect x="0" y="0" width="240" height="80" rx="20" class="dashed-box"/>

      <!-- Arrow to Embedding -->
      <line x1="120" y1="80" x2="120" y2="60" stroke="black" stroke-width="4" marker-end="url(#arrow)"/>

      <!-- Embedding Layer -->
      <rect x="0" y="200" width="300" height="60" fill="#F2F2F2" stroke="black" stroke-width="4"/>
      <text x="150" y="240" class="box-text" text-anchor="middle">Embedding Layer</text>

      <!-- Arrow to Top Stack -->
      <line x1="150" y1="200" x2="150" y2="160" stroke="black" stroke-width="4" marker-end="url(#arrow)"/>

      <!-- Top Stack (Orange) -->
      <g transform="translate(0, 160)">
        <rect x="0" y="0" width="80" height="80" fill="#FFF2E6" stroke="#C65911" stroke-width="4"/>
        <rect x="10" y="10" width="80" height="80" fill="#FFF2E6" stroke="#C65911" stroke-width="4"/>
        <rect x="20" y="20" width="80" height="80" fill="#FFF2E6" stroke="#C65911" stroke-width="4"/>
      </g>
    </g>

    <!-- Injection Strategy -->
    <g transform="translate(1350, 200)">
      <path d="M100,100 Q150,100 150,150 T200,150" fill="none" stroke="#C65911" stroke-width="4" stroke-dasharray="15,10"/>
      <text x="150" y="180" font-size="32" font-weight="bold">M<tspan class="sub">inj</tspan></text>
    </g>

    <!-- Arrow from Pink Tokens to Top Stack -->
    <line x1="1500" y1="320" x2="1500" y2="280" stroke="black" stroke-width="4" marker-end="url(#arrow)"/>

    <!-- Bottom Input Stack (Right) -->
    <g transform="translate(1350, 550)">
      <rect x="0" y="0" width="360" height="100" class="stack"/>
      <rect x="10" y="10" width="360" height="100" class="stack"/>
      <rect x="20" y="20" width="360" height="100" class="stack"/>
      <rect x="100" y="40" width="100" height="60" fill="none" stroke="black" stroke-width="3" stroke-dasharray="5,5"/>
      <text x="150" y="80" class="box-text" text-anchor="middle">Rep r<tspan class="sub">i</tspan>, Label y<tspan class="sub">i</tspan></text>
    </g>

    <!-- Arrow to Embedding -->
    <line x1="1450" y1="550" x2="1450" y2="490" stroke="black" stroke-width="4" marker-end="url(#arrow)"/>

    <!-- Arrow to LLM -->
    <line x1="1450" y1="490" x2="1450" y2="150" stroke="black" stroke-width="4" marker-end="url(#arrow)"/>

    <!-- Label (c) -->
    <text x="1150" y="820" class="label">(c)</text>
  </g>

  <!-- ================= LEGEND ================= -->
  <g transform="translate(10, 850)">
    <!-- Item 1 -->
    <rect x="0" y="0" width="40" height="60" fill="#888888" stroke="black" stroke-width="3"/>
    <text x="50" y="40" class="legend-text">: Train-optional</text>
    
    <!-- Item 2 -->
    <rect x="190" y="0" width="40" height="60" fill="#888888" stroke="black" stroke-width="3"/>
    <text x="240" y="40" class="legend-text">: Train-required</text>
    
    <!-- Item 3 -->
    <rect x="380" y="0" width="40" height="60" fill="#888888" stroke="black" stroke-width="3"/>
    <text x="430" y="40" class="legend-text">: Train-free</text>
    
    <!-- Item 4 -->
    <rect x="540" y="0" width="60" height="60" fill="#E6E6E6" stroke="black" stroke-width="3"/>
    <text x="610" y="40" class="legend-text">: Text token</text>
    
    <!-- Item 5 -->
    <rect x="720" y="0" width="60" height="60" fill="#99B3E6" stroke="#4472C4" stroke-width="3"/>
    <rect x="780" y="0" width="60" height="60" fill="#FCE4F6" stroke="#800080" stroke-width="3"/>
    <text x="840" y="40" class="legend-text">: Modality token</text>
    
    <!-- Item 6 -->
    <rect x="960" y="0" width="60" height="60" fill="#E6F2FF" stroke="#4472C4" stroke-width="3"/>
    <rect x="1020" y="0" width="60" height="60" fill="#FFF2E6" stroke="#C65911" stroke-width="3"/>
    <text x="1080" y="40" class="legend-text">: Aligned token</text>
    
    <!-- Item 7 -->
    <text x="1180" y="40" class="legend-text">N : Example nums</text>
    
    <!-- Item 8 -->
    <text x="1350" y="40" class="legend-text">M<tspan class="sub">inj</tspan> : Injection strategy</text>
  </g>
</svg>