<svg xmlns="http://www.w3.org/2000/svg" viewBox="-6.0 4.0 1718.0 740.0" style="font-family: Arial, sans-serif; background-color: white;">
  <defs>
    <!-- Arrowhead Marker -->
    <marker id="arrowhead" markerWidth="6" markerHeight="6" refX="5" refY="3" orient="auto">
      <path d="M0,0 L6,3 L0,6 L0,0" fill="#FF4D4D" />
    </marker>
    <marker id="arrowhead-black" markerWidth="6" markerHeight="6" refX="5" refY="3" orient="auto">
      <path d="M0,0 L6,3 L0,6 L0,0" fill="black" />
    </marker>
    <!-- Shadow Filter -->
    <filter id="shadow" x="-20%" y="-20%" width="140%" height="140%">
      <feGaussianBlur in="SourceAlpha" stdDeviation="2"/>
      <feOffset dx="2" dy="2" result="offsetblur"/>
      <feComponentTransfer>
        <feFuncA type="linear" slope="0.3"/>
      </feComponentTransfer>
      <feMerge>
        <feMergeNode/>
        <feMergeNode in="SourceGraphic"/>
      </feMerge>
    </filter>
  </defs>

  <!-- ==================== TOP ROW ==================== -->

  <!-- 1. Task Description Box -->
  <g transform="translate(40, 90)">
    <!-- Shadow -->
    <rect x="5" y="5" width="410" height="260" rx="20" fill="#999" />
    <!-- Main Box -->
    <rect x="0" y="0" width="410" height="260" rx="20" fill="#E6E6E6" stroke="black" stroke-width="3" />
    <!-- Header -->
    <text x="50" y="45" font-size="32" font-weight="bold" fill="black">Task Description</text>
    <!-- Inner Box -->
    <rect x="25" y="60" width="360" height="180" fill="white" stroke="black" stroke-width="3" stroke-dasharray="8,5" />
    <!-- Content -->
    <text x="45" y="110" font-family="Times New Roman, serif" font-style="italic" font-size="34" fill="black">
      <tspan x="45" dy="0">Count the number of</tspan>
      <tspan x="45" dy="45">items in DB with a price</tspan>
      <tspan x="45" dy="45">within the range specified</tspan>
      <tspan x="45" dy="45">by the user's inputs.</tspan>
    </text>
  </g>

  <!-- Icon: Question Bubble -->
  <g transform="translate(10, 60)">
    <path d="M30,30 A40,40 0 1,1 30,110 A40,40 0 0,1 30,30" fill="#5F9EA0" stroke="black" stroke-width="4" />
    <path d="M40,90 L20,100 L50,95" fill="#5F9EA0" stroke="black" stroke-width="4" stroke-linejoin="round"/>
    <text x="30" y="80" font-size="60" font-weight="bold" fill="white" stroke="black" stroke-width="2">?</text>
  </g>

  <!-- 2. Policy Model -->
  <g transform="translate(480, 150)">
    <!-- Neural Net Graphic -->
    <g stroke="black" stroke-width="3">
      <!-- Lines -->
      <line x1="20" y1="50" x2="70" y2="30" marker-end="url(#arrowhead-black)" />
      <line x1="20" y1="50" x2="70" y2="70" marker-end="url(#arrowhead-black)" />
      <line x1="20" y1="90" x2="70" y2="70" marker-end="url(#arrowhead-black)" />
      <line x1="20" y1="90" x2="70" y2="110" marker-end="url(#arrowhead-black)" />
      <line x1="20" y1="130" x2="70" y2="110" marker-end="url(#arrowhead-black)" />
      <line x1="20" y1="130" x2="70" y2="150" marker-end="url(#arrowhead-black)" />
      
      <line x1="90" y1="30" x2="130" y2="50" marker-end="url(#arrowhead-black)" />
      <line x1="90" y1="70" x2="130" y2="70" marker-end="url(#arrowhead-black)" />
      <line x1="90" y1="110" x2="130" y2="90" marker-end="url(#arrowhead-black)" />
      <line x1="90" y1="150" x2="130" y2="130" marker-end="url(#arrowhead-black)" />
    </g>
    <!-- Nodes -->
    <g stroke="black" stroke-width="3">
      <!-- Input (Cyan) -->
      <circle cx="20" cy="50" r="14" fill="#40E0D0" />
      <circle cx="20" cy="90" r="14" fill="#40E0D0" />
      <circle cx="20" cy="130" r="14" fill="#40E0D0" />
      <!-- Hidden (Yellow) -->
      <circle cx="90" cy="30" r="14" fill="#F4C430" />
      <circle cx="90" cy="70" r="14" fill="#F4C430" />
      <circle cx="90" cy="110" r="14" fill="#F4C430" />
      <circle cx="90" cy="150" r="14" fill="#F4C430" />
      <!-- Output (Red) -->
      <circle cx="160" cy="70" r="14" fill="#D32F2F" />
      <circle cx="160" cy="110" r="14" fill="#D32F2F" />
    </g>
    <!-- Label -->
    <text x="90" y="190" text-anchor="middle" font-size="36" font-weight="bold" fill="black">Policy Model</text>
  </g>

  <!-- 3. Generated Program Box -->
  <g transform="translate(690, 90)">
    <!-- Shadow -->
    <rect x="5" y="5" width="670" height="260" rx="20" fill="#999" />
    <!-- Main Box -->
    <rect x="0" y="0" width="670" height="260" rx="20" fill="#E6E6E6" stroke="black" stroke-width="3" />
    <!-- Header -->
    <text x="50" y="45" font-size="32" font-weight="bold" fill="black">Generated Program</text>
    <!-- Inner Box -->
    <rect x="25" y="60" width="620" height="200" fill="white" stroke="black" stroke-width="3" stroke-dasharray="8,5" />
    <!-- Code Content -->
    <text x="40" y="90" font-family="Consolas, monospace" font-size="24" fill="black">
      <tspan x="40" dy="0">cur = </tspan><tspan fill="#00AA00" font-weight="bold">sqlite3.connect</tspan><tspan>(DB).</tspan><tspan fill="#0000FF" font-weight="bold">cursor</tspan><tspan fill="black">()</tspan>
      <tspan x="40" dy="35" fill="#CC0000" font-weight="bold">min</tspan><tspan fill="black"> = </tspan><tspan fill="#0000FF" font-weight="bold">input</tspan><tspan fill="black">(</tspan><tspan font-family="Times New Roman, serif">'Min?'</tspan><tspan fill="black">); </tspan><tspan fill="#CC0000" font-weight="bold">max</tspan><tspan fill="black"> = </tspan><tspan fill="#0000FF" font-weight="bold">input</tspan><tspan fill="black">(</tspan><tspan font-family="Times New Roman, serif">'Max?'</tspan><tspan fill="black">)</tspan>
      <tspan x="40" dy="35" font-weight="bold">. . .</tspan>
      <tspan x="40" dy="35" fill="#CC0000" font-weight="bold">Q</tspan><tspan fill="black"> = </tspan><tspan fill="#00AA00" font-weight="bold">"SELECT COUNT</tspan><tspan fill="black">(*) </tspan><tspan fill="#00AA00" font-weight="bold">FROM</tspan><tspan fill="black"> items \</tspan>
      <tspan x="140" dy="35" fill="#00AA00" font-weight="bold">WHERE</tspan><tspan fill="black"> price &lt;= </tspan><tspan fill="#CC0000" font-weight="bold">{max}</tspan><tspan fill="black"> \</tspan>
      <tspan x="140" dy="35" fill="#00AA00" font-weight="bold">AND</tspan><tspan fill="black"> price &gt;= </tspan><tspan fill="#CC0000" font-weight="bold">{min}"</tspan>
      <tspan x="40" dy="35" fill="black">cur.</tspan><tspan fill="#0000FF" font-weight="bold">execute</tspan><tspan fill="black">(</tspan><tspan fill="#CC0000" font-weight="bold">Q</tspan><tspan fill="black">)</tspan>
    </text>
  </g>

  <!-- Icon: Code Tag -->
  <g transform="translate(685, 55)">
    <path d="M10,10 L60,10 L80,30 L80,90 A10,10 0 0,1 70,100 L10,100 A10,10 0 0,1 0,90 L0,10 A10,10 0 0,1 10,10" fill="white" stroke="#4B0082" stroke-width="5" />
    <path d="M60,10 L60,30 L80,30" fill="none" stroke="#4B0082" stroke-width="5" stroke-linejoin="round"/>
    <path d="M25,45 L35,65 L45,45 M35,65 L25,85" stroke="#9370DB" stroke-width="6" fill="none" stroke-linecap="round"/>
  </g>

  <!-- 4. Advantage / Hybrid Reward -->
  <g transform="translate(1380, 100)">
    <!-- Bars -->
    <rect x="60" y="60" width="25" height="70" fill="#F4C430" stroke="black" stroke-width="4" />
    <rect x="110" y="50" width="25" height="80" fill="#40E0D0" stroke="black" stroke-width="4" />
    <rect x="160" y="30" width="25" height="100" fill="#87CEFA" stroke="black" stroke-width="4" />
    <!-- Stars -->
    <polygon points="82,20 86,35 100,35 89,45 94,60 82,50 70,60 75,45 64,35 78,35" fill="#F4C430" stroke="black" stroke-width="3" />
    <polygon points="132,10 136,25 150,25 139,35 144,50 132,40 120,50 125,35 114,25 128,25" fill="#F4C430" stroke="black" stroke-width="3" />
    <polygon points="182,-10 186,15 200,15 189,25 194,40 182,30 170,40 175,25 164,15 178,15" fill="#F4C430" stroke="black" stroke-width="3" />
    <!-- Crown -->
    <path d="M160,20 L160,30 L172,20 L184,30 L184,20 L196,20 L196,10 L184,10 L184,0 L172,10 L160,0 L160,10 Z" fill="#F4C430" stroke="black" stroke-width="3" />
    <!-- Label -->
    <text x="110" y="150" text-anchor="middle" font-size="36" font-weight="bold" fill="black">Advantage</text>
  </g>

  <!-- Hybrid Reward Box -->
  <g transform="translate(1385, 285)">
    <rect x="5" y="5" width="230" height="60" rx="15" fill="#999" />
    <rect x="0" y="0" width="230" height="60" rx="15" fill="white" stroke="black" stroke-width="3" />
    <text x="115" y="40" text-anchor="middle" font-size="32" font-weight="bold" fill="black">Hybrid Reward</text>
  </g>

  <!-- ==================== BOTTOM ROW ==================== -->

  <!-- 5. Vulnerability Detector -->
  <g transform="translate(40, 350)">
    <!-- Shadow -->
    <rect x="5" y="5" width="880" height="360" rx="20" fill="#999" />
    <!-- Main Box -->
    <rect x="0" y="0" width="880" height="360" rx="20" fill="#FDF5E6" stroke="black" stroke-width="3" />
    <!-- Header -->
    <text x="30" y="45" font-size="40" font-weight="bold" fill="black">Vulnerability Detector <tspan font-style="italic" font-size="28">(via</tspan> Program Analysis)</text>
    <text x="30" y="75" font-size="24" font-weight="bold" font-style="italic" fill="black">Example: SQL Injection Detector</text>
    
    <!-- Inner Dashed Box -->
    <rect x="25" y="90" width="730" height="240" fill="white" stroke="black" stroke-width="2" stroke-dasharray="8,5" />
    
    <!-- Vertical Divider -->
    <line x1="230" y1="90" x2="230" y2="330" stroke="black" stroke-width="2" stroke-dasharray="8,5" />

    <!-- Left: CFG -->
    <text x="127" y="125" text-anchor="middle" font-size="30" font-weight="bold">CFG</text>
    <g transform="translate(20, 140)">
      <!-- Edges -->
      <line x1="60" y1="100" x2="100" y2="50" stroke="black" stroke-width="4" />
      <line x1="120" y1="120" x2="180" y2="200" stroke="black" stroke-width="4" marker-end="url(#arrowhead-black)" />
      <line x1="100" y1="220" x2="160" y2="160" stroke="black" stroke-width="4" marker-end="url(#arrowhead-black)" />
      <!-- Nodes -->
      <circle cx="60" cy="100" r="28" fill="#F0F0F0" stroke="black" stroke-width="4" />
      <circle cx="100" cy="50" r="28" fill="#F4C476" stroke="black" stroke-width="4" />
      <text x="100" y="62" text-anchor="middle" font-size="30" font-weight="bold">1</text>
      
      <circle cx="160" cy="120" r="28" fill="#F4C476" stroke="black" stroke-width="4" />
      <text x="160" y="132" text-anchor="middle" font-size="30" font-weight="bold">2</text>
      
      <circle cx="100" cy="220" r="28" fill="#F0F0F0" stroke="black" stroke-width="4" />
      <circle cx="190" cy="200" r="28" fill="#F4C476" stroke="black" stroke-width="4" />
      <text x="190" y="212" text-anchor="middle" font-size="30" font-weight="bold">3</text>
    </g>

    <!-- Right: Tainted Analysis -->
    <text x="480" y="125" text-anchor="middle" font-size="30" font-weight="bold">Tainted Analysis</text>
    <g transform="translate(250, 150)">
      <!-- Row 1 -->
      <text x="0" y="20" font-family="Consolas, monospace" font-size="28" fill="#CC0000" font-weight="bold">{max,min}</text>
      <text x="130" y="20" font-family="Times New Roman, serif" font-style="italic" font-size="30" fill="black">1. User inputs as taint <tspan font-weight="bold">src.</tspan></text>
      <path d="M400,0 Q410,0 410,10 L410,20" fill="none" stroke="black" stroke-width="3" />
      <circle cx="410" cy="0" r="5" fill="none" stroke="black" stroke-width="3" />

      <!-- Row 2 -->
      <text x="0" y="90" font-family="Consolas, monospace" font-size="28" fill="#CC0000" font-weight="bold">{max,min,Q}</text>
      <text x="130" y="90" font-family="Times New Roman, serif" font-style="italic" font-size="30" fill="black">2. Propagate tainted var.</text>
      <path d="M400,70 Q410,70 410,80 L410,90" fill="none" stroke="black" stroke-width="3" />
      <circle cx="410" cy="70" r="5" fill="none" stroke="black" stroke-width="3" />

      <!-- Row 3 -->
      <text x="0" y="160" font-family="Consolas, monospace" font-size="28" fill="black">cur.</text>
      <text x="50" y="160" font-family="Consolas, monospace" font-size="28" fill="#0000FF" font-weight="bold">execute</text>
      <text x="170" y="160" font-family="Consolas, monospace" font-size="28" fill="black">(</text>
      <text x="185" y="160" font-family="Consolas, monospace" font-size="28" fill="#CC0000" font-weight="bold">Q</text>
      <text x="210" y="160" font-family="Consolas, monospace" font-size="28" fill="black">)</text>
      <text x="230" y="160" font-family="Times New Roman, serif" font-style="italic" font-size="30" fill="black">3. SQL exec. as <tspan font-weight="bold">sink.</tspan></text>
      <path d="M400,140 Q410,140 410,150 L410,160" fill="none" stroke="black" stroke-width="3" />
      <circle cx="410" cy="140" r="5" fill="none" stroke="black" stroke-width="3" />
    </g>

    <!-- Reward -->
    <text x="770" y="210" text-anchor="end" font-size="28" font-weight="bold" fill="black">Reward:</text>
    <text x="770" y="240" text-anchor="end" font-size="28" font-weight="bold" fill="#4CAF50">Pass</text>
    <text x="800" y="240" text-anchor="end" font-size="28" font-weight="bold" fill="black">or</text>
    <text x="830" y="240" text-anchor="end" font-size="28" font-weight="bold" fill="#D32F2F">Fail</text>

    <!-- Footer -->
    <text x="50" y="320" font-size="28" fill="black">
      <tspan x="50" dy="0">Convert the program into a <tspan font-weight="bold">Control Flow Graph (CFG)</tspan> and conduct</tspan>
      <tspan x="130" dy="40"><tspan font-weight="bold">Taint Analysis</tspan> to detect SQL injection vulnerabilities.</tspan>
    </text>
  </g>

  <!-- 6. Functionality Verifier -->
  <g transform="translate(1010, 350)">
    <!-- Shadow -->
    <rect x="5" y="5" width="580" height="360" rx="20" fill="#999" />
    <!-- Main Box -->
    <rect x="0" y="0" width="580" height="360" rx="20" fill="#D8E6E6" stroke="black" stroke-width="3" />
    <!-- Header -->
    <text x="30" y="45" font-size="40" font-weight="bold" fill="black">Functionality Verifier <tspan font-style="italic" font-size="28">(via</tspan> Unit Tests)</text>
    
    <!-- Inner Dashed Box (Tests) -->
    <rect x="30" y="70" width="400" height="240" fill="white" stroke="black" stroke-width="2" stroke-dasharray="8,5" />
    
    <!-- Test List -->
    <g transform="translate(50, 100)">
      <text x="0" y="0" font-size="28" font-weight="bold" fill="black">Unit Tests <tspan font-style="italic" font-size="24">(e.g. min~max&#8594;output)</tspan></text>
      
      <!-- Row 1 -->
      <g transform="translate(0, 40)">
        <circle cx="25" cy="20" r="25" fill="none" stroke="black" stroke-width="5" />
        <text x="25" y="30" text-anchor="middle" font-size="40" font-weight="bold">i</text>
        <text x="80" y="30" font-family="Times New Roman, serif" font-weight="bold" font-size="34" fill="black">Test 1: $2.5~$10&#8594;3</text>
      </g>
      <!-- Row 2 -->
      <g transform="translate(0, 110)">
        <circle cx="25" cy="20" r="25" fill="none" stroke="black" stroke-width="5" />
        <text x="25" y="30" text-anchor="middle" font-size="40" font-weight="bold">i</text>
        <text x="80" y="30" font-family="Times New Roman, serif" font-weight="bold" font-size="34" fill="black">Test 2: $3~$1&#8594;0</text>
      </g>
      <!-- Row 3 -->
      <text x="80" y="180" font-size="34" font-weight="bold" fill="black">......</text>
      <!-- Row 4 -->
      <g transform="translate(0, 200)">
        <circle cx="25" cy="20" r="25" fill="none" stroke="black" stroke-width="5" />
        <text x="25" y="30" text-anchor="middle" font-size="40" font-weight="bold">i</text>
        <text x="80" y="30" font-family="Times New Roman, serif" font-weight="bold" font-size="34" fill="black">Test n: $7~$100&#8594;10</text>
      </g>
    </g>

    <!-- Inner Dashed Box (Generated Program) -->
    <g transform="translate(400, 100)">
      <rect x="0" y="0" width="210" height="210" fill="white" stroke="black" stroke-width="2" stroke-dasharray="8,5" />
      <!-- Code Icon -->
      <g transform="translate(50, 20)">
        <path d="M10,10 L100,10 L130,40 L130,140 A10,10 0 0,1 120,150 L20,150 A10,10 0 0,1 10,140 L10,10" fill="white" stroke="#4B0082" stroke-width="8" />
        <path d="M100,10 L100,40 L130,40" fill="none" stroke="#4B0082" stroke-width="8" stroke-linejoin="round"/>
        <path d="M40,65 L60,105 L80,65 M60,105 L40,125" stroke="#9370DB" stroke-width="10" fill="none" stroke-linecap="round"/>
      </g>
      <text x="105" y="190" text-anchor="middle" font-size="30" font-weight="bold" fill="black">Generated</text>
      <text x="105" y="230" text-anchor="middle" font-size="30" font-weight="bold" fill="black">Program</text>
    </g>

    <!-- Arrows between boxes -->
    <g stroke="black" stroke-width="5" fill="none">
      <line x1="330" y1="120" x2="430" y2="150" marker-end="url(#arrowhead-black)" />
      <line x1="330" y1="180" x2="430" y2="180" marker-end="url(#arrowhead-black)" />
      <line x1="330" y1="240" x2="430" y2="210" marker-end="url(#arrowhead-black)" />
    </g>

    <!-- Footer Reward -->
    <text x="300" y="340" font-size="36" font-weight="bold" fill="black">Reward:</text>
    <text x="360" y="310" font-family="Times New Roman, serif" font-size="28" fill="black"># passed tests</text>
    <line x1="360" y1="315" x2="480" y2="315" stroke="black" stroke-width="2" />
    <text x="360" y="340" font-family="Times New Roman, serif" font-size="28" fill="black"># total tests</text>
  </g>

  <!-- Plus Sign -->
  <g transform="translate(940, 500)">
    <line x1="0" y1="20" x2="40" y2="20" stroke="black" stroke-width="10" />
    <line x1="20" y1="0" x2="20" y2="40" stroke="black" stroke-width="10" />
  </g>

  <!-- ==================== RED FLOW ARROWS ==================== -->
  
  <!-- 1. Task -> Policy -->
  <path d="M450,210 L560,210 L560,150" fill="none" stroke="#FF4D4D" stroke-width="6" marker-end="url(#arrowhead)" />

  <!-- 2. Policy -> Generated -->
  <path d="M630,210 L680,210" fill="none" stroke="#FF4D4D" stroke-width="6" marker-end="url(#arrowhead)" />

  <!-- 3. Generated -> Vuln Detector -->
  <path d="M800,320 L800,360 L790,360 L810,380 L830,360 L820,360 L820,320" fill="#FF4D4D" stroke="none" />

  <!-- 4. Generated -> Func Verifier -->
  <path d="M1190,320 L1190,360 L1180,360 L1200,380 L1220,360 L1210,360 L1210,320" fill="#FF4D4D" stroke="none" />

  <!-- 5. Vuln Detector -> Policy (Feedback Loop) -->
  <path d="M560,350 L560,35 L880,35" fill="none" stroke="#FF4D4D" stroke-width="6" />
  <!-- Note: This line goes behind Policy Gradient box visually, but SVG z-index is painter's algo. 
       To make it look right, we draw Policy Gradient last or this path first. 
       Actually, let's redraw this path to go OVER the Policy Gradient box. 
       Start: Top of Vuln Detector (560, 350). Up to Y=40. Right to X=1500. Down to Advantage. 
       Wait, description says: "originates from top center... travels UP, turns RIGHT... travels RIGHT... turns DOWN".
       Let's adjust coordinates to match description exactly.
  -->
  
  <!-- Redrawing Feedback Loop to be on top of Policy Gradient -->
  <path d="M560,350 L560,35 L1490,35 L1490,120" fill="none" stroke="#FF4D4D" stroke-width="6" marker-end="url(#arrowhead)" />

  <!-- 6. Func Verifier -> Hybrid Reward -->
  <path d="M1490,350 L1490,245" fill="none" stroke="#FF4D4D" stroke-width="6" marker-end="url(#arrowhead)" />

  <!-- 7. Hybrid Reward -> Advantage -->
  <path d="M1490,285 L1490,240" fill="none" stroke="#FF4D4D" stroke-width="6" marker-end="url(#arrowhead)" />

  <!-- 8. Advantage -> Generated Program -->
  <path d="M1490,100 L1490,45 L880,45" fill="none" stroke="#FF4D4D" stroke-width="6" />

  <!-- Policy Gradient Box (Drawn last to sit on top of the feedback line) -->
  <g transform="translate(910, 10)">
    <rect x="5" y="5" width="330" height="60" rx="15" fill="#999" />
    <rect x="0" y="0" width="330" height="60" rx="15" fill="white" stroke="black" stroke-width="3" />
    <text x="165" y="40" text-anchor="middle" font-size="32" font-weight="bold" fill="black">Policy Gradient</text>
  </g>

</svg>