<svg xmlns="http://www.w3.org/2000/svg" viewBox="6.0 16.0 1696.0 800.0" style="background-color: white;">
  <defs>
    <!-- Arrowheads -->
    <marker id="arrow-black" markerWidth="6" markerHeight="6" refX="5" refY="3" orient="auto">
      <path d="M0,0 L6,3 L0,6 L0,0" fill="#333333" />
    </marker>
    <marker id="arrow-blue" markerWidth="6" markerHeight="6" refX="5" refY="3" orient="auto">
      <path d="M0,0 L6,3 L0,6 L0,0" fill="#4A6FA5" />
    </marker>
    <marker id="arrow-green" markerWidth="6" markerHeight="6" refX="5" refY="3" orient="auto">
      <path d="M0,0 L6,3 L0,6 L0,0" fill="#2E8B57" />
    </marker>
    <marker id="arrow-red" markerWidth="6" markerHeight="6" refX="5" refY="3" orient="auto">
      <path d="M0,0 L6,3 L0,6 L0,0" fill="#A52A2A" />
    </marker>
    <marker id="arrow-orange" markerWidth="6" markerHeight="6" refX="5" refY="3" orient="auto">
      <path d="M0,0 L6,3 L0,6 L0,0" fill="#F4A460" />
    </marker>
    <marker id="arrow-yellow" markerWidth="6" markerHeight="6" refX="5" refY="3" orient="auto">
      <path d="M0,0 L6,3 L0,6 L0,0" fill="#FFC107" />
    </marker>

    <!-- Patterns -->
    <pattern id="noise-pattern" x="0" y="0" width="10" height="10" patternUnits="userSpaceOnUse">
      <rect width="10" height="10" fill="#888"/>
      <circle cx="2" cy="2" r="1" fill="#ccc"/>
      <circle cx="7" cy="7" r="1" fill="#ccc"/>
      <circle cx="8" cy="2" r="1" fill="#ccc"/>
      <circle cx="3" cy="8" r="1" fill="#ccc"/>
    </pattern>
    <pattern id="stripe-blue" width="8" height="8" patternUnits="userSpaceOnUse" patternTransform="rotate(45)">
      <rect width="8" height="8" fill="white"/>
      <rect width="4" height="8" fill="#4A6FA5"/>
    </pattern>
    <pattern id="stripe-orange" width="8" height="8" patternUnits="userSpaceOnUse" patternTransform="rotate(45)">
      <rect width="8" height="8" fill="white"/>
      <rect width="4" height="8" fill="#F4A460"/>
    </pattern>

    <!-- Reusable Shapes -->
    <symbol id="sum-node" viewBox="0 0 60 60">
      <circle cx="30" cy="30" r="28" fill="white" stroke="#333" stroke-width="4"/>
      <line x1="30" y1="5" x2="30" y2="55" stroke="#333" stroke-width="4"/>
      <line x1="5" y1="30" x2="55" y2="30" stroke="#333" stroke-width="4"/>
    </symbol>
    
    <symbol id="trapezoid" viewBox="0 0 120 160">
      <path d="M0,0 L120,30 L120,130 L0,160 Z" fill="white" stroke="#333" stroke-width="2"/>
    </symbol>
    
    <symbol id="rect-blue" viewBox="0 0 40 200">
      <rect width="40" height="200" rx="8" fill="#9FB6D9" stroke="#555" stroke-width="3"/>
    </symbol>
    <symbol id="rect-green" viewBox="0 0 40 200">
      <rect width="40" height="200" rx="8" fill="#CDE6D5" stroke="#555" stroke-width="3"/>
    </symbol>
    <symbol id="rect-orange" viewBox="0 0 40 200">
      <rect width="40" height="200" rx="8" fill="#FAD7B9" stroke="#555" stroke-width="3"/>
    </symbol>
  </defs>

  <!-- ================= LEGEND (Right) ================= -->
  <g transform="translate(1220, 50)">
    <!-- Spatial -->
    <rect x="20" y="30" width="50" height="40" rx="8" fill="#7A95C3" stroke="#333" stroke-width="3"/>
    <text x="120" y="55" font-family="sans-serif" font-size="32" fill="#222">Spatial-Attn</text>
    
    <!-- Cross -->
    <rect x="20" y="85" width="50" height="40" rx="8" fill="#D5E8D4" stroke="#333" stroke-width="3"/>
    <text x="120" y="110" font-family="sans-serif" font-size="32" fill="#222">Cross-Attn</text>
    
    <!-- Temporal -->
    <rect x="20" y="130" width="50" height="40" rx="8" fill="#F9CB9C" stroke="#333" stroke-width="3"/>
    <text x="120" y="155" font-family="sans-serif" font-size="32" fill="#222">Temporal-Attn</text>
    
    <!-- Intermediate -->
    <path d="M10,180 Q50,195 90,180" fill="none" stroke="#A52A2A" stroke-width="3" marker-end="url(#arrow-red)"/>
    <text x="120" y="190" font-family="sans-serif" font-size="32" fill="#222">Intermediate Features</text>
    
    <!-- Gradient -->
    <path d="M10,220 Q50,235 90,220" fill="none" stroke="#FFC107" stroke-width="3" stroke-dasharray="8,4" marker-end="url(#arrow-yellow)"/>
    <text x="120" y="230" font-family="sans-serif" font-size="32" fill="#222">Gradient from <tspan font-family="serif" font-style="italic" font-weight="bold">C</tspan><tspan dy="-10" font-size="20">(ℓ)</tspan></text>
    
    <!-- IMG Construction -->
    <path d="M10,260 L30,250 L50,260 L70,250 L90,260" fill="none" stroke="#555" stroke-width="3" stroke-dasharray="8,4"/>
    <text x="120" y="270" font-family="sans-serif" font-size="32" fill="#222">IMG Construction</text>
    <text x="120" y="300" font-family="sans-serif" font-size="32" fill="#222">(Training only)</text>
    
    <!-- Selected MSM -->
    <rect x="10" y="320" width="80" height="40" rx="8" fill="#8DA6C9" stroke="#555" stroke-width="3" stroke-dasharray="10,5"/>
    <text x="120" y="340" font-family="sans-serif" font-size="32" fill="#222">Selected for MSM</text>
  </g>

  <!-- ================= INPUTS (Left) ================= -->
  <!-- Ref Pose -->
  <g transform="translate(10, 30)">
    <rect width="180" height="170" fill="black"/>
    <!-- Stick Figures -->
    <g stroke="#00FF00" stroke-width="3" fill="none">
      <path d="M60,50 L70,30 M60,50 L50,30 M60,50 L60,90 L50,140 M60,90 L75,140 M60,90 L45,140 M60,50 L40,80 M60,50 L80,80"/>
      <circle cx="60" cy="40" r="3" stroke="none" fill="#00FF00"/>
    </g>
    <g stroke="#FF4500" stroke-width="3" fill="none">
      <path d="M120,60 L130,40 M120,60 L110,40 M120,60 L120,100 L110,150 M120,100 L135,150 M120,100 L105,150 M120,60 L100,90 M120,60 L140,90"/>
      <circle cx="120" cy="50" r="3" stroke="none" fill="#FF4500"/>
    </g>
    <text x="90" y="190" text-anchor="middle" font-family="sans-serif" font-size="30" fill="#222">Ref Pose</text>
  </g>

  <!-- Ref Img -->
  <g transform="translate(10, 220)">
    <rect width="180" height="170" fill="#E6C2E6"/> <!-- Pinkish bg -->
    <!-- Abstract representation of dancers -->
    <path d="M30,170 L30,100 L40,80 L50,100 L60,170 Z" fill="#E6A8A8"/> <!-- Left Pants -->
    <path d="M120,170 L120,110 L130,90 L140,110 L150,170 Z" fill="#E6A8A8"/> <!-- Right Pants -->
    <circle cx="50" cy="50" r="10" fill="#E6C2E6"/> <rect x="40" y="60" width="20" height="30" fill="white"/>
    <circle cx="130" cy="50" r="10" fill="#E6C2E6"/> <rect x="120" y="60" width="20" height="30" fill="white"/>
    <text x="90" y="190" text-anchor="middle" font-family="sans-serif" font-size="30" fill="#222">Ref Img</text>
  </g>

  <!-- Tgt Pose -->
  <g transform="translate(10, 420)">
    <rect width="180" height="170" fill="black"/>
    <g stroke="#FF4500" stroke-width="3" fill="none">
      <path d="M40,50 L30,30 L20,40 M40,50 L50,90 L40,140 M50,90 L70,130 M50,90 L30,130 M50,90 L60,60 M40,50 L60,60"/>
    </g>
    <g stroke="#00FF00" stroke-width="3" fill="none">
      <path d="M140,60 L130,40 L120,50 M140,60 L150,100 L140,150 M150,100 L170,140 M150,100 L130,140 M150,100 L160,70"/>
    </g>
    <text x="90" y="190" text-anchor="middle" font-family="sans-serif" font-size="30" fill="#222">Tgt Pose</text>
  </g>

  <!-- Noise -->
  <g transform="translate(160, 620)">
    <text x="80" y="-30" text-anchor="middle" font-family="sans-serif" font-size="30" fill="#222">Noise</text>
    <rect x="20" y="20" width="140" height="140" fill="url(#noise-pattern)" stroke="#333"/>
    <rect x="10" y="10" width="140" height="140" fill="url(#noise-pattern)" stroke="#333"/>
    <rect x="0" y="0" width="140" height="140" fill="url(#noise-pattern)" stroke="#333"/>
  </g>

  <!-- ================= ENCODERS (Left Center) ================= -->
  <!-- Pose Enc Top -->
  <g transform="translate(260, 50)">
    <use href="#trapezoid" width="120" height="140"/>
    <text x="60" y="70" text-anchor="middle" font-family="sans-serif" font-size="34" fill="#222">Pose</text>
    <text x="60" y="110" text-anchor="middle" font-family="sans-serif" font-size="34" fill="#222">Enc</text>
  </g>
  <!-- VAE Enc -->
  <g transform="translate(260, 180)">
    <use href="#trapezoid" width="120" height="140"/>
    <text x="60" y="70" text-anchor="middle" font-family="sans-serif" font-size="34" fill="#222">VAE</text>
    <text x="60" y="110" text-anchor="middle" font-family="sans-serif" font-size="34" fill="#222">Enc</text>
  </g>
  <!-- CLIP -->
  <g transform="translate(260, 290)">
    <use href="#trapezoid" width="120" height="140"/>
    <text x="60" y="80" text-anchor="middle" font-family="sans-serif" font-size="34" fill="#222">CLIP</text>
  </g>
  <!-- Pose Enc Bottom -->
  <g transform="translate(260, 440)">
    <use href="#trapezoid" width="120" height="140"/>
    <text x="60" y="70" text-anchor="middle" font-family="sans-serif" font-size="34" fill="#222">Pose</text>
    <text x="60" y="110" text-anchor="middle" font-family="sans-serif" font-size="34" fill="#222">Enc</text>
  </g>

  <!-- Connections Inputs -> Encoders -->
  <path d="M190,115 L260,115" stroke="#333" stroke-width="3" marker-end="url(#arrow-black)"/>
  <path d="M190,290 L220,290 L220,230 L260,230" stroke="#333" stroke-width="3" marker-end="url(#arrow-black)" fill="none"/>
  <path d="M190,290 L220,290 L220,340 L260,340" stroke="#333" stroke-width="3" marker-end="url(#arrow-black)" fill="none"/>
  <path d="M190,500 L260,500" stroke="#333" stroke-width="3" marker-end="url(#arrow-black)"/>
  
  <!-- Noise Connection -->
  <path d="M300,650 L400,650 L400,490" stroke="#333" stroke-width="3" marker-end="url(#arrow-black)" fill="none"/>

  <!-- ================= SUMMATION NODES ================= -->
  <!-- Top Node -->
  <g transform="translate(380, 150)">
    <use href="#sum-node" width="60" height="60"/>
  </g>
  <!-- Bottom Node -->
  <g transform="translate(380, 470)">
    <use href="#sum-node" width="60" height="60"/>
  </g>
  
  <!-- Connections to Sum Nodes -->
  <path d="M340,120 L400,120 L400,150" stroke="#333" stroke-width="3" marker-end="url(#arrow-black)" fill="none"/>
  <path d="M340,230 L400,230 L400,180" stroke="#333" stroke-width="3" marker-end="url(#arrow-black)" fill="none"/>
  <path d="M340,340 L410,340 L410,470" stroke="#333" stroke-width="3" marker-end="url(#arrow-black)" fill="none"/>
  <path d="M340,490 L410,490 L410,490" stroke="#333" stroke-width="3" marker-end="url(#arrow-black)" fill="none"/>

  <!-- ================= NETWORKS (Center) ================= -->
  
  <!-- ReferenceNet (Top) -->
  <g transform="translate(470, 20)">
    <!-- Background -->
    <path d="M0,0 L400,60 L600,100 L800,0 L800,280 L600,220 L400,180 L0,280 Z" fill="#DDE6F6" stroke="none"/>
    <text x="400" y="50" text-anchor="middle" font-family="sans-serif" font-size="32" fill="#222">ReferenceNet</text>
    
    <!-- Blocks -->
    <g transform="translate(30, 70)">
      <use href="#rect-blue" x="0" y="0" width="40" height="180"/>
      <use href="#rect-green" x="50" y="0" width="40" height="180"/>
    </g>
    <text x="150" y="170" font-family="sans-serif" font-size="40" fill="#222">...</text>
    <g transform="translate(230, 110)">
      <use href="#rect-blue" x="0" y="0" width="40" height="120"/>
      <use href="#rect-green" x="50" y="0" width="40" height="120"/>
    </g>
    <text x="400" y="170" font-family="sans-serif" font-size="40" fill="#222">...</text>
    <g transform="translate(480, 110)">
      <use href="#rect-blue" x="0" y="0" width="40" height="120"/>
      <use href="#rect-green" x="50" y="0" width="40" height="120"/>
    </g>
    <text x="600" y="170" font-family="sans-serif" font-size="40" fill="#222">...</text>
    <g transform="translate(650, 70)">
      <use href="#rect-blue" x="0" y="0" width="40" height="180"/>
      <use href="#rect-green" x="50" y="0" width="40" height="180"/>
    </g>
  </g>

  <!-- DenoisingNet (Bottom) -->
  <g transform="translate(470, 360)">
    <!-- Background -->
    <path d="M0,0 L400,60 L600,100 L800,0 L800,280 L600,220 L400,180 L0,280 Z" fill="#FBEFE8" stroke="none"/>
    <text x="400" y="50" text-anchor="middle" font-family="sans-serif" font-size="32" fill="#222">DenoisingNet</text>
    
    <!-- Blocks -->
    <g transform="translate(30, 70)">
      <use href="#rect-blue" x="0" y="0" width="40" height="180"/>
      <use href="#rect-green" x="50" y="0" width="40" height="180"/>
      <use href="#rect-orange" x="100" y="0" width="40" height="180"/>
    </g>
    <text x="150" y="170" font-family="sans-serif" font-size="40" fill="#222">...</text>
    <g transform="translate(230, 110)">
      <use href="#rect-blue" x="0" y="0" width="40" height="120"/>
      <use href="#rect-green" x="50" y="0" width="40" height="120"/>
      <use href="#rect-orange" x="100" y="0" width="40" height="120"/>
    </g>
    <text x="400" y="170" font-family="sans-serif" font-size="40" fill="#222">...</text>
    <g transform="translate(480, 110)">
      <use href="#rect-blue" x="0" y="0" width="40" height="120"/>
      <use href="#rect-green" x="50" y="0" width="40" height="120"/>
      <use href="#rect-orange" x="100" y="0" width="40" height="120"/>
    </g>
    <text x="600" y="170" font-family="sans-serif" font-size="40" fill="#222">...</text>
    <g transform="translate(650, 70)">
      <use href="#rect-blue" x="0" y="0" width="40" height="180"/>
      <use href="#rect-green" x="50" y="0" width="40" height="180"/>
      <use href="#rect-orange" x="100" y="0" width="40" height="180"/>
    </g>
  </g>

  <!-- ================= VERTICAL CONNECTIONS ================= -->
  <!-- Top to Bottom -->
  <g stroke-width="3">
    <!-- Pair 1 -->
    <line x1="510" y1="250" x2="510" y2="430" stroke="#4A6FA5" marker-end="url(#arrow-blue)"/>
    <line x1="550" y1="430" x2="550" y2="250" stroke="#2E8B57" marker-end="url(#arrow-green)"/>
    <!-- Pair 2 -->
    <line x1="700" y1="210" x2="700" y2="450" stroke="#4A6FA5" marker-end="url(#arrow-blue)"/>
    <line x1="740" y1="450" x2="740" y2="210" stroke="#2E8B57" marker-end="url(#arrow-green)"/>
    <!-- Pair 3 -->
    <line x1="940" y1="210" x2="940" y2="450" stroke="#4A6FA5" marker-end="url(#arrow-blue)"/>
    <line x1="980" y1="450" x2="980" y2="210" stroke="#2E8B57" marker-end="url(#arrow-green)"/>
    <!-- Pair 4 -->
    <line x1="1110" y1="250" x2="1110" y2="430" stroke="#4A6FA5" marker-end="url(#arrow-blue)"/>
    <line x1="1150" y1="430" x2="1150" y2="250" stroke="#2E8B57" marker-end="url(#arrow-green)"/>
  </g>

  <!-- CLIP Horizontal Line -->
  <line x1="320" y1="340" x2="1150" y2="340" stroke="#2E8B57" stroke-width="4"/>

  <!-- ================= OUTPUTS (Right) ================= -->
  <!-- VAE Dec -->
  <g transform="translate(1260, 440)">
    <path d="M0,30 L120,0 L120,160 L0,130 Z" fill="white" stroke="#333" stroke-width="2"/>
    <text x="60" y="60" text-anchor="middle" font-family="sans-serif" font-size="34" fill="#222">VAE</text>
    <text x="60" y="100" text-anchor="middle" font-family="sans-serif" font-size="34" fill="#222">Dec</text>
  </g>
  <line x1="1210" y1="490" x2="1260" y2="490" stroke="#333" stroke-width="3" marker-end="url(#arrow-black)"/>
  <line x1="1380" y1="490" x2="1420" y2="490" stroke="#333" stroke-width="3" marker-end="url(#arrow-black)"/>

  <!-- Gen Frames -->
  <g transform="translate(1400, 420)">
    <rect x="20" y="20" width="180" height="150" fill="#E6C2E6" stroke="white" stroke-width="2"/>
    <rect x="10" y="10" width="180" height="150" fill="#E6C2E6" stroke="white" stroke-width="2"/>
    <rect x="0" y="0" width="180" height="150" fill="#E6C2E6" stroke="white" stroke-width="2"/>
    <!-- Dancers -->
    <path d="M40,150 L40,100 L30,80 L20,90 L10,110 Z" fill="#E6A8A8"/>
    <path d="M140,150 L140,100 L150,80 L160,90 L170,110 Z" fill="#E6A8A8"/>
    <circle cx="50" cy="50" r="10" fill="#E6C2E6"/> <rect x="40" y="60" width="20" height="30" fill="white"/>
    <circle cx="130" cy="50" r="10" fill="#E6C2E6"/> <rect x="120" y="60" width="20" height="30" fill="white"/>
    <text x="90" y="190" text-anchor="middle" font-family="sans-serif" font-size="30" fill="#222">Gen Frames</text>
  </g>

  <!-- ================= MASKS & GRADIENTS (Bottom) ================= -->
  <text x="640" y="615" text-anchor="middle" font-family="sans-serif" font-size="30" fill="#222">Mask</text>
  
  <!-- Mask 1 -->
  <g transform="translate(490, 620)">
    <rect width="170" height="150" fill="black"/>
    <path d="M40,150 L40,100 L30,80 L20,90 L10,110 Z" fill="#FFA500"/>
    <path d="M110,150 L110,100 L120,80 L130,90 L140,110 Z" fill="#4682B4"/>
  </g>
  
  <!-- Mask 2 -->
  <g transform="translate(640, 620)">
    <rect width="170" height="150" fill="black"/>
    <path d="M20,80 L30,60 L40,70 L50,50 L60,80 L50,100 L40,90 L30,120 L20,140 L10,110 Z" fill="#4682B4"/>
    <path d="M130,80 L140,60 L150,70 L160,50 L170,80 L160,100 L150,90 L140,120 L130,140 L120,110 Z" fill="#FFA500"/>
    <rect x="20" y="20" width="130" height="130" fill="black" stroke="white"/>
    <rect x="10" y="10" width="130" height="130" fill="black" stroke="white"/>
  </g>

  <!-- Arrow to IMG Construction -->
  <path d="M810,665 L830,665 L830,655 L850,675 L830,685 L830,675 L810,675 Z" fill="white" stroke="#333" stroke-width="2"/>

  <!-- IMG Construction Box -->
  <g transform="translate(850, 560)">
    <rect width="390" height="250" fill="none" stroke="#555" stroke-width="3" stroke-dasharray="10,5"/>
    <path d="M0,0 L390,0 L390,250 L0,250 L0,0" fill="none" stroke="#555" stroke-width="3" stroke-dasharray="10,5"/>
    <path d="M0,0 L390,0" stroke="white" stroke-width="2"/>
    <path d="M0,250 L390,250" stroke="white" stroke-width="2"/>
    
    <!-- Top Left Cluster -->
    <g transform="translate(20, 20)">
      <rect x="0" y="0" width="130" height="150" fill="#DDE6F6" opacity="0.5"/>
      <!-- Circles -->
      <circle cx="30" cy="30" r="25" fill="#4A6FA5" stroke="#333" stroke-width="3"/>
      <circle cx="90" cy="30" r="25" fill="#F9CB9C" stroke="#333" stroke-width="3"/>
      <circle cx="30" cy="120" r="25" fill="url(#stripe-blue)" stroke="#333" stroke-width="3"/>
      <circle cx="90" cy="120" r="25" fill="url(#stripe-orange)" stroke="#333" stroke-width="3"/>
      <!-- Arrows -->
      <line x1="30" y1="120" x2="30" y2="30" stroke="#4A6FA5" stroke-width="2" marker-end="url(#arrow-blue)"/>
      <line x1="90" y1="120" x2="90" y2="30" stroke="#F4A460" stroke-width="2" marker-end="url(#arrow-orange)"/>
      <line x1="30" y1="120" x2="90" y2="30" stroke="#4A6FA5" stroke-width="2" stroke-dasharray="5,5" marker-end="url(#arrow-blue)"/>
      <line x1="90" y1="120" x2="30" y2="30" stroke="#F4A460" stroke-width="2" stroke-dasharray="5,5" marker-end="url(#arrow-orange)"/>
      <!-- Label -->
      <path d="M135,75 L150,75 L150,65 L165,80 L150,95 L150,85 L135,85 Z" fill="white" stroke="#333" stroke-width="2"/>
      <text x="175" y="90" font-family="serif" font-style="italic" font-weight="bold" font-size="30">C<tspan dy="-10" font-size="18">(1)</tspan></text>
      <text x="175" y="130" font-family="sans-serif" font-size="24">xT</text>
    </g>

    <!-- Top Right Cluster -->
    <g transform="translate(200, 20)">
      <rect x="0" y="0" width="130" height="150" fill="#FBEFE8" opacity="0.5"/>
      <!-- Circles -->
      <circle cx="30" cy="30" r="25" fill="#4A6FA5" stroke="#333" stroke-width="3"/>
      <circle cx="90" cy="30" r="25" fill="#F9CB9C" stroke="#333" stroke-width="3"/>
      <circle cx="30" cy="120" r="25" fill="url(#stripe-blue)" stroke="#333" stroke-width="3"/>
      <circle cx="90" cy="120" r="25" fill="url(#stripe-orange)" stroke="#333" stroke-width="3"/>
      <!-- Arrows -->
      <line x1="30" y1="120" x2="30" y2="30" stroke="#4A6FA5" stroke-width="2" marker-end="url(#arrow-blue)"/>
      <line x1="90" y1="120" x2="90" y2="30" stroke="#F4A460" stroke-width="2" marker-end="url(#arrow-orange)"/>
      <line x1="30" y1="120" x2="90" y2="30" stroke="#4A6FA5" stroke-width="2" stroke-dasharray="5,5" marker-end="url(#arrow-blue)"/>
      <line x1="90" y1="120" x2="30" y2="30" stroke="#F4A460" stroke-width="2" stroke-dasharray="5,5" marker-end="url(#arrow-orange)"/>
      <!-- Label -->
      <path d="M135,75 L150,75 L150,65 L165,80 L150,95 L150,85 L135,85 Z" fill="white" stroke="#333" stroke-width="2"/>
      <text x="175" y="90" font-family="serif" font-style="italic" font-weight="bold" font-size="30">C<tspan dy="-10" font-size="18">(N)</tspan></text>
      <text x="175" y="130" font-family="sans-serif" font-size="24">xT</text>
    </g>
  </g>

  <!-- Gradient Arrows (Yellow Dashed) -->
  <path d="M1000,630 Q950,550 910,560" fill="none" stroke="#FFC107" stroke-width="3" stroke-dasharray="8,4" marker-end="url(#arrow-yellow)"/>
  <path d="M1080,630 Q1000,500 950,540" fill="none" stroke="#FFC107" stroke-width="3" stroke-dasharray="8,4" marker-end="url(#arrow-yellow)"/>
  <path d="M1180,630 Q1150,550 1120,560" fill="none" stroke="#FFC107" stroke-width="3" stroke-dasharray="8,4" marker-end="url(#arrow-yellow)"/>
  <path d="M1200,630 Q1100,700 1150,540" fill="none" stroke="#FFC107" stroke-width="3" stroke-dasharray="8,4" marker-end="url(#arrow-yellow)"/>

  <!-- Intermediate Features (Red Solid) -->
  <path d="M910,540 Q880,520 910,580" fill="none" stroke="#A52A2A" stroke-width="3" marker-end="url(#arrow-red)"/>
  <path d="M1120,540 Q1080,520 1100,600" fill="none" stroke="#A52A2A" stroke-width="3" marker-end="url(#arrow-red)"/>

</svg>