<svg xmlns="http://www.w3.org/2000/svg" xmlns:xlink="http://www.w3.org/1999/xlink" width="1809" height="890" viewBox="0 0 1809 890">
  <defs>
    <marker id="arrow" markerWidth="12" markerHeight="10" refX="11" refY="5" orient="auto" markerUnits="strokeWidth">
      <path d="M 0 0 L 12 5 L 0 10 z" fill="#000"/>
    </marker>
    <marker id="arrowGray" markerWidth="16" markerHeight="14" refX="15" refY="7" orient="auto" markerUnits="strokeWidth">
      <path d="M 0 0 L 16 7 L 0 14 z" fill="#dedede"/>
    </marker>
    <linearGradient id="udtGrad" x1="0" y1="1" x2="0" y2="0">
      <stop offset="0%" stop-color="#f97883"/>
      <stop offset="46%" stop-color="#f4d78b"/>
      <stop offset="100%" stop-color="#c8f5d7"/>
    </linearGradient>
    <style>
      .serif { font-family: "Times New Roman", Times, serif; fill:#000; }
      .label { font-family: "Times New Roman", Times, serif; fill:#000; font-size:34px; }
      .small-label { font-family: "Times New Roman", Times, serif; fill:#000; font-size:30px; }
      .caption { font-family: "Times New Roman", Times, serif; fill:#000; font-size:36px; }
      .panel { fill:#fff; stroke:#000; stroke-width:3; }
      .box { fill:#efefef; stroke:#000; stroke-width:3; }
      .dash { fill:none; stroke:#000; stroke-width:3; stroke-dasharray:10 6; }
      .line { stroke:#000; stroke-width:3; fill:none; }
      .thin { stroke:#000; stroke-width:2.5; fill:none; }
      .slot-label { font-family:Arial, sans-serif; font-size:13px; fill:#666; }
    </style>
  </defs>
  <rect x="0" y="0" width="1809" height="890" fill="#fff"/>

<g id="svg_seq_cubes" data-source-slot="slot_seq_cubes" transform="translate(445,92)">
<g transform="translate(8,0)">
<polygon points="0,8 14,3 26,8 12,14" fill="#6fa1d9" stroke="#477bb6" stroke-width="1.2"/>
<polygon points="0,8 12,14 12,30 0,24" fill="#4d87c8" stroke="#477bb6" stroke-width="1.2"/>
<polygon points="12,14 26,8 26,24 12,30" fill="#2f6fb1" stroke="#477bb6" stroke-width="1.2"/>
</g>
<g transform="translate(8,43)">
<polygon points="0,8 14,3 26,8 12,14" fill="#6fa1d9" stroke="#477bb6" stroke-width="1.2"/>
<polygon points="0,8 12,14 12,30 0,24" fill="#4d87c8" stroke="#477bb6" stroke-width="1.2"/>
<polygon points="12,14 26,8 26,24 12,30" fill="#2f6fb1" stroke="#477bb6" stroke-width="1.2"/>
</g>
<g transform="translate(8,84)">
<polygon points="0,8 14,3 26,8 12,14" fill="#6fa1d9" stroke="#477bb6" stroke-width="1.2"/>
<polygon points="0,8 12,14 12,30 0,24" fill="#4d87c8" stroke="#477bb6" stroke-width="1.2"/>
<polygon points="12,14 26,8 26,24 12,30" fill="#2f6fb1" stroke="#477bb6" stroke-width="1.2"/>
</g>
<g transform="translate(8,126)">
<polygon points="0,8 14,3 26,8 12,14" fill="#6fa1d9" stroke="#477bb6" stroke-width="1.2"/>
<polygon points="0,8 12,14 12,30 0,24" fill="#4d87c8" stroke="#477bb6" stroke-width="1.2"/>
<polygon points="12,14 26,8 26,24 12,30" fill="#2f6fb1" stroke="#477bb6" stroke-width="1.2"/>
</g>
<g transform="translate(8,166)">
<polygon points="0,8 14,3 26,8 12,14" fill="#6fa1d9" stroke="#477bb6" stroke-width="1.2"/>
<polygon points="0,8 12,14 12,30 0,24" fill="#4d87c8" stroke="#477bb6" stroke-width="1.2"/>
<polygon points="12,14 26,8 26,24 12,30" fill="#2f6fb1" stroke="#477bb6" stroke-width="1.2"/>
</g>
<circle cx="21" cy="85" r="2" fill="#000"/><circle cx="21" cy="93" r="2" fill="#000"/><circle cx="21" cy="101" r="2" fill="#000"/>
</g>
<g id="svg_data_memory_icons" data-source-slot="slot_data_memory_icons" transform="translate(1244,38)">
<g transform="translate(0,5) scale(1.0)">
<path d="M40,10 C28,8 25,21 27,31 C16,31 12,43 19,52 C12,61 18,74 30,72 C32,82 43,83 47,74 L47,15 C45,13 43,11 40,10 Z" fill="none" stroke="#3b3b9c" stroke-width="5" stroke-linecap="round" stroke-linejoin="round"/>
<path d="M53,15 L53,74 C58,83 69,82 71,72 C83,74 88,61 81,52 C88,43 84,31 73,31 C75,21 72,8 60,10 C57,11 55,13 53,15 Z" fill="none" stroke="#3b3b9c" stroke-width="5" stroke-linecap="round" stroke-linejoin="round"/>
<line x1="50" y1="8" x2="50" y2="78" stroke="#3b3b9c" stroke-width="5" stroke-linecap="round"/>
<path d="M32,45 C42,38 28,33 38,27" fill="none" stroke="#f1b52a" stroke-width="4" stroke-linecap="round"/>
<path d="M68,45 C58,38 72,33 62,27" fill="none" stroke="#f1b52a" stroke-width="4" stroke-linecap="round"/>
</g>
<g transform="translate(0,90) scale(1.0)">
<path d="M40,10 C28,8 25,21 27,31 C16,31 12,43 19,52 C12,61 18,74 30,72 C32,82 43,83 47,74 L47,15 C45,13 43,11 40,10 Z" fill="none" stroke="#3b3b9c" stroke-width="5" stroke-linecap="round" stroke-linejoin="round"/>
<path d="M53,15 L53,74 C58,83 69,82 71,72 C83,74 88,61 81,52 C88,43 84,31 73,31 C75,21 72,8 60,10 C57,11 55,13 53,15 Z" fill="none" stroke="#3b3b9c" stroke-width="5" stroke-linecap="round" stroke-linejoin="round"/>
<line x1="50" y1="8" x2="50" y2="78" stroke="#3b3b9c" stroke-width="5" stroke-linecap="round"/>
<path d="M32,45 C42,38 28,33 38,27" fill="none" stroke="#f1b52a" stroke-width="4" stroke-linecap="round"/>
<path d="M68,45 C58,38 72,33 62,27" fill="none" stroke="#f1b52a" stroke-width="4" stroke-linecap="round"/>
</g>
<g transform="translate(0,176) scale(1.0)">
<path d="M40,10 C28,8 25,21 27,31 C16,31 12,43 19,52 C12,61 18,74 30,72 C32,82 43,83 47,74 L47,15 C45,13 43,11 40,10 Z" fill="none" stroke="#3b3b9c" stroke-width="5" stroke-linecap="round" stroke-linejoin="round"/>
<path d="M53,15 L53,74 C58,83 69,82 71,72 C83,74 88,61 81,52 C88,43 84,31 73,31 C75,21 72,8 60,10 C57,11 55,13 53,15 Z" fill="none" stroke="#3b3b9c" stroke-width="5" stroke-linecap="round" stroke-linejoin="round"/>
<line x1="50" y1="8" x2="50" y2="78" stroke="#3b3b9c" stroke-width="5" stroke-linecap="round"/>
<path d="M32,45 C42,38 28,33 38,27" fill="none" stroke="#f1b52a" stroke-width="4" stroke-linecap="round"/>
<path d="M68,45 C58,38 72,33 62,27" fill="none" stroke="#f1b52a" stroke-width="4" stroke-linecap="round"/>
</g>
</g>
<g id="svg_task_memory_icon" data-source-slot="slot_task_memory_icon" transform="translate(1250,398)">
<g transform="translate(0,0) scale(1.0)">
<path d="M40,10 C28,8 25,21 27,31 C16,31 12,43 19,52 C12,61 18,74 30,72 C32,82 43,83 47,74 L47,15 C45,13 43,11 40,10 Z" fill="none" stroke="#3b3b9c" stroke-width="5" stroke-linecap="round" stroke-linejoin="round"/>
<path d="M53,15 L53,74 C58,83 69,82 71,72 C83,74 88,61 81,52 C88,43 84,31 73,31 C75,21 72,8 60,10 C57,11 55,13 53,15 Z" fill="none" stroke="#3b3b9c" stroke-width="5" stroke-linecap="round" stroke-linejoin="round"/>
<line x1="50" y1="8" x2="50" y2="78" stroke="#3b3b9c" stroke-width="5" stroke-linecap="round"/>
<path d="M32,45 C42,38 28,33 38,27" fill="none" stroke="#f1b52a" stroke-width="4" stroke-linecap="round"/>
<path d="M68,45 C58,38 72,33 62,27" fill="none" stroke="#f1b52a" stroke-width="4" stroke-linecap="round"/>
</g>
</g>
</svg>
