<svg width="1200" height="590" viewBox="0 0 1200 590" xmlns="http://www.w3.org/2000/svg">
  <!-- Definitions for markers and styles -->
  <defs>
    <marker id="arrow" viewBox="0 0 10 10" refX="6" refY="5" markerWidth="6" markerHeight="6" orient="auto-start-reverse">
      <path d="M 0 1.5 L 10 5 L 0 8.5 z" fill="#333"/>
    </marker>
    <style>
      .label-text { font-family: system-ui, -apple-system, sans-serif; font-size: 14px; fill: #333; }
      .bold-text { font-family: system-ui, -apple-system, sans-serif; font-size: 14px; font-weight: bold; fill: #2c3e50; }
      .title-text { font-family: system-ui, -apple-system, sans-serif; font-size: 16px; font-weight: bold; fill: #2c3e50; }
      .math-text { font-family: 'Times New Roman', Times, serif; font-size: 17px; font-style: italic; fill: #000; }
      .pill-text-white { font-family: system-ui, -apple-system, sans-serif; font-size: 13px; fill: #fff; font-weight: 500; }
      .pill-text-dark { font-family: system-ui, -apple-system, sans-serif; font-size: 13px; fill: #1c2833; font-weight: 500; }
    </style>
  </defs>

  <!-- White background for the entire canvas -->
  <rect width="100%" height="100%" fill="#ffffff"/>

  <!-- ==================== LEFT COLUMN: LEGEND &amp; INPUT ==================== -->
  
  <!-- Legend Box -->
  <rect x="15" y="70" width="120" height="140" rx="5" stroke="#999" stroke-dasharray="4,4" fill="none" stroke-width="1.5"/>
  
  <!-- Legend Items -->
  <rect x="25" y="80" width="20" height="20" rx="3" fill="#7ba4e0"/>
  <text x="55" y="95" class="label-text">hard label</text>
  
  <rect x="25" y="110" width="20" height="20" rx="3" fill="#9e9e9e"/>
  <text x="55" y="125" class="label-text">mask label</text>
  
  <rect x="25" y="140" width="20" height="20" rx="3" fill="#fcd04b"/>
  <text x="55" y="155" class="label-text">target</text>
  
  <rect x="25" y="170" width="20" height="20" rx="3" fill="#9ad991"/>
  <text x="55" y="185" class="label-text">non-target</text>

  <!-- Input Cat Image Box -->
  <g id="input-image">
    <rect x="15" y="285" width="105" height="105" rx="8" fill="#2c3e50"/>
    <!-- Stylized Vector Cat -->
    <ellipse cx="67" cy="360" rx="30" ry="25" fill="#ecf0f1"/>
    <circle cx="67" cy="330" r="22" fill="#ecf0f1"/>
    <!-- Ears -->
    <polygon points="48,315 40,290 58,310" fill="#bdc3c7"/>
    <polygon points="86,315 94,290 76,310" fill="#bdc3c7"/>
    <polygon points="49,312 44,295 55,309" fill="#f192a4"/>
    <polygon points="85,312 90,295 79,309" fill="#f192a4"/>
    <!-- Eyes -->
    <circle cx="59" cy="328" r="4" fill="#27ae60"/>
    <circle cx="59" cy="328" r="2" fill="black"/>
    <circle cx="75" cy="328" r="4" fill="#27ae60"/>
    <circle cx="75" cy="328" r="2" fill="black"/>
    <!-- Nose &amp; Mouth -->
    <polygon points="65,334 69,334 67,337" fill="#f192a4"/>
    <path d="M 64 339 Q 67 342 67 339 Q 67 342 70 339" stroke="#7f8c8d" stroke-width="1" fill="none"/>
    <!-- Whiskers -->
    <line x1="50" y1="335" x2="35" y2="333" stroke="#bdc3c7" stroke-width="1.5"/>
    <line x1="50" y1="338" x2="33" y2="340" stroke="#bdc3c7" stroke-width="1.5"/>
    <line x1="84" y1="335" x2="99" y2="333" stroke="#bdc3c7" stroke-width="1.5"/>
    <line x1="84" y1="338" x2="101" y2="340" stroke="#bdc3c7" stroke-width="1.5"/>
    
    <text x="67" y="410" class="title-text" text-anchor="middle">cat</text>
  </g>

  <!-- Arrows from Cat to Teacher/Teacher2/Student -->
  <path d="M 120 337 L 140 337 L 140 195 L 150 195" stroke="#333" stroke-width="1.5" fill="none" marker-end="url(#arrow)"/>
  <path d="M 120 337 L 140 337 L 140 315 L 150 315" stroke="#333" stroke-width="1.5" fill="none" marker-end="url(#arrow)"/>
  <path d="M 120 337 L 140 337 L 140 435 L 150 435" stroke="#333" stroke-width="1.5" fill="none" marker-end="url(#arrow)"/>


  <!-- ==================== SECOND COLUMN: MODELS ==================== -->

  <!-- Ground Truth -->
  <rect x="155" y="50" width="160" height="55" rx="10" stroke="#999" fill="none" stroke-width="1.5"/>
  <text x="235" y="83" class="title-text" text-anchor="middle">Ground Truth</text>

  <!-- Teacher1 Model -->
  <g id="teacher-model">
    <rect x="155" y="150" width="160" height="95" rx="15" stroke="#999" fill="none" stroke-width="1.5"/>
    <!-- 3D CNN Layers (Blue) -->
    <!-- Layer 1 -->
    <polygon points="170,180 178,180 186,172 178,172" fill="#7ba4e0"/>
    <polygon points="178,180 178,225 186,217 186,172" fill="#41719c"/>
    <rect x="170" y="180" width="8" height="45" fill="#5b9bd5"/>
    <!-- Layer 2 -->
    <polygon points="185,177 193,177 201,169 193,169" fill="#7ba4e0"/>
    <polygon points="193,177 193,218 201,210 201,169" fill="#41719c"/>
    <rect x="185" y="177" width="8" height="41" fill="#5b9bd5"/>
    <!-- Layer 3 -->
    <polygon points="200,174 208,174 216,166 208,166" fill="#7ba4e0"/>
    <polygon points="208,174 208,211 216,203 216,166" fill="#41719c"/>
    <rect x="200" y="174" width="8" height="37" fill="#5b9bd5"/>
    <!-- Layer 4 -->
    <polygon points="215,171 223,171 231,163 223,163" fill="#7ba4e0"/>
    <polygon points="223,171 223,204 231,196 231,163" fill="#41719c"/>
    <rect x="215" y="171" width="8" height="33" fill="#5b9bd5"/>
    <!-- Layer 5 -->
    <polygon points="230,168 238,168 246,160 238,160" fill="#7ba4e0"/>
    <polygon points="238,168 238,197 246,189 246,160" fill="#41719c"/>
    <rect x="230" y="168" width="8" height="29" fill="#5b9bd5"/>
    <!-- Layer 6 -->
    <polygon points="245,165 253,165 261,157 253,157" fill="#7ba4e0"/>
    <polygon points="253,165 253,190 261,182 261,157" fill="#41719c"/>
    <rect x="245" y="165" width="8" height="25" fill="#5b9bd5"/>
    <!-- Layer 7 -->
    <polygon points="260,162 268,162 276,154 268,154" fill="#7ba4e0"/>
    <polygon points="268,162 268,183 276,175 276,154" fill="#41719c"/>
    <rect x="260" y="162" width="8" height="21" fill="#5b9bd5"/>

    <text x="245" y="230" class="title-text" text-anchor="middle">Teacher1</text>
  </g>

  <!-- Teacher2 Model -->
  <g id="teacher2-model">
    <rect x="155" y="270" width="160" height="95" rx="15" stroke="#999" fill="none" stroke-width="1.5"/>
    <!-- 3D CNN Layers (Blue) -->
    <!-- Layer 1 -->
    <polygon points="170,300 178,300 186,292 178,292" fill="#7ba4e0"/>
    <polygon points="178,300 178,345 186,337 186,292" fill="#41719c"/>
    <rect x="170" y="300" width="8" height="45" fill="#5b9bd5"/>
    <!-- Layer 2 -->
    <polygon points="185,297 193,297 201,289 193,289" fill="#7ba4e0"/>
    <polygon points="193,297 193,338 201,330 201,289" fill="#41719c"/>
    <rect x="185" y="297" width="8" height="41" fill="#5b9bd5"/>
    <!-- Layer 3 -->
    <polygon points="200,294 208,294 216,286 208,286" fill="#7ba4e0"/>
    <polygon points="208,294 208,331 216,323 216,286" fill="#41719c"/>
    <rect x="200" y="294" width="8" height="37" fill="#5b9bd5"/>
    <!-- Layer 4 -->
    <polygon points="215,291 223,291 231,283 223,283" fill="#7ba4e0"/>
    <polygon points="223,291 223,324 231,316 231,283" fill="#41719c"/>
    <rect x="215" y="291" width="8" height="33" fill="#5b9bd5"/>
    <!-- Layer 5 -->
    <polygon points="230,288 238,288 246,280 238,280" fill="#7ba4e0"/>
    <polygon points="238,288 238,317 246,309 246,280" fill="#41719c"/>
    <rect x="230" y="288" width="8" height="29" fill="#5b9bd5"/>
    <!-- Layer 6 -->
    <polygon points="245,285 253,285 261,277 253,277" fill="#7ba4e0"/>
    <polygon points="253,285 253,310 261,302 261,277" fill="#41719c"/>
    <rect x="245" y="285" width="8" height="25" fill="#5b9bd5"/>
    <!-- Layer 7 -->
    <polygon points="260,282 268,282 276,274 268,274" fill="#7ba4e0"/>
    <polygon points="268,282 268,303 276,295 276,274" fill="#41719c"/>
    <rect x="260" y="282" width="8" height="21" fill="#5b9bd5"/>

    <text x="245" y="350" class="title-text" text-anchor="middle">Teacher2</text>
  </g>

  <!-- Student Model -->
  <g id="student-model">
    <rect x="155" y="390" width="160" height="95" rx="15" stroke="#999" fill="none" stroke-width="1.5"/>
    <!-- 3D CNN Layers (Orange) -->
    <!-- Layer 1 -->
    <polygon points="170,420 178,420 186,412 178,412" fill="#f19e65"/>
    <polygon points="178,420 178,465 186,457 186,412" fill="#c65911"/>
    <rect x="170" y="420" width="8" height="45" fill="#ed7d31"/>
    <!-- Layer 2 -->
    <polygon points="185,417 193,417 201,409 193,409" fill="#f19e65"/>
    <polygon points="193,417 193,458 201,450 201,409" fill="#c65911"/>
    <rect x="185" y="417" width="8" height="41" fill="#ed7d31"/>
    <!-- Layer 3 -->
    <polygon points="200,414 208,414 216,406 208,406" fill="#f19e65"/>
    <polygon points="208,414 208,451 216,443 216,406" fill="#c65911"/>
    <rect x="200" y="414" width="8" height="37" fill="#ed7d31"/>
    <!-- Layer 4 -->
    <polygon points="215,411 223,411 231,403 223,403" fill="#f19e65"/>
    <polygon points="223,411 223,444 231,436 231,403" fill="#c65911"/>
    <rect x="215" y="411" width="8" height="33" fill="#ed7d31"/>
    <!-- Layer 5 -->
    <polygon points="230,408 238,408 246,400 238,400" fill="#f19e65"/>
    <polygon points="238,408 238,437 246,429 246,400" fill="#c65911"/>
    <rect x="230" y="408" width="8" height="29" fill="#ed7d31"/>

    <text x="245" y="470" class="title-text" text-anchor="middle">Student</text>
  </g>


  <!-- ==================== THIRD COLUMN: LABELS (DASHED BOX) ==================== -->

  <rect x="330" y="15" width="60" height="485" rx="5" stroke="#999" stroke-dasharray="5,5" fill="none" stroke-width="1.5"/>

  <!-- Top Bar (Ground Truth Labels) -->
  <g>
    <rect x="340" y="30" width="15" height="20" rx="2" fill="#7ba4e0"/>
    <rect x="340" y="52" width="15" height="20" rx="2" fill="#9e9e9e"/>
    <rect x="340" y="74" width="15" height="20" rx="2" fill="#9e9e9e"/>
    <rect x="340" y="96" width="15" height="20" rx="2" fill="#9e9e9e"/>
    <rect x="340" y="118" width="15" height="20" rx="2" fill="#9e9e9e"/>
    <text x="368" y="45" class="math-text">1</text>
  </g>

  <!-- Middle Bar (Teacher1 Probabilities) -->
  <g>
    <rect x="340" y="140" width="15" height="20" rx="2" fill="#fcd04b"/>
    <rect x="340" y="162" width="15" height="20" rx="2" fill="#9ad991"/>
    <rect x="340" y="184" width="15" height="20" rx="2" fill="#9ad991"/>
    <rect x="340" y="206" width="15" height="20" rx="2" fill="#9ad991"/>
    <rect x="340" y="228" width="15" height="20" rx="2" fill="#9ad991"/>
    <text x="362" y="155" class="math-text">p<tspan font-size="11" dy="4">t</tspan><tspan font-size="11" dx="1" dy="-8">T1</tspan></text>
  </g>

  <!-- Middle 2 Bar (Teacher2 Probabilities) -->
  <g>
    <rect x="340" y="260" width="15" height="20" rx="2" fill="#fcd04b"/>
    <rect x="340" y="282" width="15" height="20" rx="2" fill="#9ad991"/>
    <rect x="340" y="304" width="15" height="20" rx="2" fill="#9ad991"/>
    <rect x="340" y="326" width="15" height="20" rx="2" fill="#9ad991"/>
    <rect x="340" y="348" width="15" height="20" rx="2" fill="#9ad991"/>
    <text x="362" y="275" class="math-text">p<tspan font-size="11" dy="4">t</tspan><tspan font-size="11" dx="1" dy="-8">T2</tspan></text>
  </g>

  <!-- Bottom Bar (Student Probabilities) -->
  <g>
    <rect x="340" y="375" width="15" height="20" rx="2" fill="#fcd04b"/>
    <rect x="340" y="397" width="15" height="20" rx="2" fill="#9ad991"/>
    <rect x="340" y="419" width="15" height="20" rx="2" fill="#9ad991"/>
    <rect x="340" y="441" width="15" height="20" rx="2" fill="#9ad991"/>
    <rect x="340" y="463" width="15" height="20" rx="2" fill="#9ad991"/>
    <text x="362" y="390" class="math-text">p<tspan font-size="11" dy="4">t</tspan><tspan font-size="11" dx="1" dy="-8">S</tspan></text>
  </g>

  <!-- Arrows to Labels -->
  <path d="M 315 77 L 330 77" stroke="#333" stroke-width="1.5" fill="none" marker-end="url(#arrow)"/>
  <path d="M 315 195 L 330 195" stroke="#333" stroke-width="1.5" fill="none" marker-end="url(#arrow)"/>
  <path d="M 315 315 L 330 315" stroke="#333" stroke-width="1.5" fill="none" marker-end="url(#arrow)"/>
  <path d="M 315 435 L 330 435" stroke="#333" stroke-width="1.5" fill="none" marker-end="url(#arrow)"/>


  <!-- ==================== FOURTH COLUMN: DECOUPLED INPUTS ==================== -->

  <!-- Top Decoupled (TASK inputs) -->
  <g>
    <rect x="405" y="25" width="65" height="100" rx="5" stroke="#999" stroke-dasharray="5,5" fill="none" stroke-width="1.5"/>
    <rect x="415" y="45" width="18" height="18" rx="2" fill="#7ba4e0"/>
    <rect x="442" y="45" width="18" height="18" rx="2" fill="#fcd04b"/>
    <text x="424" y="85" class="math-text" text-anchor="middle">1</text>
    <text x="451" y="85" class="math-text" text-anchor="middle">p<tspan font-size="11" dy="4">t</tspan><tspan font-size="11" dx="1" dy="-8">S</tspan></text>
    <path d="M 390 77 L 405 77" stroke="#333" stroke-width="1.5" fill="none" marker-end="url(#arrow)"/>
  </g>

  <!-- Middle Decoupled (TCKD1 inputs) -->
  <g>
    <rect x="405" y="145" width="65" height="100" rx="5" stroke="#999" stroke-dasharray="5,5" fill="none" stroke-width="1.5"/>
    <rect x="415" y="165" width="18" height="18" rx="2" fill="#fcd04b"/>
    <rect x="442" y="165" width="18" height="18" rx="2" fill="#fcd04b"/>
    <text x="424" y="210" class="math-text" text-anchor="middle">p<tspan font-size="11" dy="4">t</tspan><tspan font-size="11" dx="1" dy="-8">T1</tspan></text>
    <text x="451" y="210" class="math-text" text-anchor="middle">p<tspan font-size="11" dy="4">t</tspan><tspan font-size="11" dx="1" dy="-8">S</tspan></text>
    <path d="M 390 195 L 405 195" stroke="#333" stroke-width="1.5" fill="none" marker-end="url(#arrow)"/>
  </g>

  <!-- Middle 2 Decoupled (TCKD2 inputs) -->
  <g>
    <rect x="405" y="265" width="65" height="100" rx="5" stroke="#999" stroke-dasharray="5,5" fill="none" stroke-width="1.5"/>
    <rect x="415" y="285" width="18" height="18" rx="2" fill="#fcd04b"/>
    <rect x="442" y="285" width="18" height="18" rx="2" fill="#fcd04b"/>
    <text x="424" y="330" class="math-text" text-anchor="middle">p<tspan font-size="11" dy="4">t</tspan><tspan font-size="11" dx="1" dy="-8">T2</tspan></text>
    <text x="451" y="330" class="math-text" text-anchor="middle">p<tspan font-size="11" dy="4">t</tspan><tspan font-size="11" dx="1" dy="-8">S</tspan></text>
    <path d="M 390 315 L 405 315" stroke="#333" stroke-width="1.5" fill="none" marker-end="url(#arrow)"/>
  </g>

  <!-- Bottom Decoupled (NCKD inputs / Decoupling) -->
  <g>
    <text x="437" y="370" class="bold-text" text-anchor="middle">Decoupling</text>
    <rect x="405" y="380" width="65" height="110" rx="5" stroke="#999" stroke-dasharray="5,5" fill="none" stroke-width="1.5"/>
    
    <!-- Bar 1 -->
    <rect x="415" y="390" width="15" height="50" rx="2" fill="#9ad991"/>
    <rect x="415" y="442" width="15" height="40" rx="2" fill="#9e9e9e"/>
    
    <!-- Bar 2 -->
    <rect x="442" y="390" width="15" height="50" rx="2" fill="#9ad991"/>
    <rect x="442" y="442" width="15" height="40" rx="2" fill="#9e9e9e"/>
    
    <path d="M 390 435 L 405 435" stroke="#333" stroke-width="1.5" fill="none" marker-end="url(#arrow)"/>
  </g>

  <!-- Dynamic Top-k Mask Pill -->
  <g>
    <rect x="350" y="510" width="170" height="30" rx="15" fill="#e8daef" stroke="#d7bde2" stroke-width="1"/>
    <text x="435" y="530" class="bold-text" fill="#6c3483" text-anchor="middle" font-size="13">Dynamic Top-k Mask</text>
    <!-- Double-headed vertical arrow -->
    <path d="M 437.5 493 L 437.5 507 M 434.5 498 L 437.5 493 L 440.5 498 M 434.5 502 L 437.5 507 L 440.5 502" stroke="#c39bd3" stroke-width="1.5" fill="none"/>
  </g>


  <!-- ==================== FIFTH COLUMN: LOSSES ==================== -->

  <!-- TASK -->
  <g>
    <rect x="485" y="25" width="140" height="100" rx="5" stroke="#7ba4e0" stroke-dasharray="5,5" fill="none" stroke-width="1.5"/>
    <text x="555" y="45" class="bold-text" text-anchor="middle">TASK</text>
    <rect x="495" y="55" width="120" height="55" rx="15" stroke="#7ba4e0" stroke-width="1.5" fill="none"/>
    <text x="555" y="77" class="label-text" text-anchor="middle">Task</text>
    <text x="555" y="97" class="label-text" text-anchor="middle">CE Loss</text>
    <path d="M 470 75 L 485 75" stroke="#333" stroke-width="1.5" fill="none" marker-end="url(#arrow)"/>
  </g>

  <!-- TCKD1 -->
  <g>
    <rect x="485" y="145" width="140" height="100" rx="5" stroke="#fcd04b" stroke-dasharray="5,5" fill="none" stroke-width="1.5"/>
    <text x="555" y="165" class="bold-text" text-anchor="middle">TCKD1</text>
    <rect x="495" y="180" width="120" height="55" rx="15" stroke="#fcd04b" stroke-width="1.5" fill="none"/>
    <text x="555" y="202" class="label-text" text-anchor="middle">Target Class</text>
    <text x="555" y="222" class="label-text" text-anchor="middle">KL Loss</text>
    <path d="M 470 195 L 485 195" stroke="#333" stroke-width="1.5" fill="none" marker-end="url(#arrow)"/>
  </g>

  <!-- TCKD2 -->
  <g>
    <rect x="485" y="265" width="140" height="100" rx="5" stroke="#fcd04b" stroke-dasharray="5,5" fill="none" stroke-width="1.5"/>
    <text x="555" y="285" class="bold-text" text-anchor="middle">TCKD2</text>
    <rect x="495" y="300" width="120" height="55" rx="15" stroke="#fcd04b" stroke-width="1.5" fill="none"/>
    <text x="555" y="322" class="label-text" text-anchor="middle">Target Class</text>
    <text x="555" y="342" class="label-text" text-anchor="middle">KL Loss</text>
    <path d="M 470 315 L 485 315" stroke="#333" stroke-width="1.5" fill="none" marker-end="url(#arrow)"/>
  </g>

  <!-- NCKD -->
  <g>
    <rect x="485" y="380" width="140" height="100" rx="5" stroke="#9ad991" stroke-dasharray="5,5" fill="none" stroke-width="1.5"/>
    <text x="555" y="400" class="bold-text" text-anchor="middle">NCKD</text>
    <rect x="495" y="415" width="120" height="55" rx="15" stroke="#9ad991" stroke-width="1.5" fill="none"/>
    <text x="555" y="437" class="label-text" text-anchor="middle">Non-target</text>
    <text x="555" y="457" class="label-text" text-anchor="middle">Class KL Loss</text>
    <path d="M 470 435 L 485 435" stroke="#333" stroke-width="1.5" fill="none" marker-end="url(#arrow)"/>
  </g>


  <!-- ==================== SIXTH COLUMN: GRADIENTS ==================== -->

  <!-- TOG -->
  <g>
    <rect x="645" y="25" width="140" height="100" rx="5" stroke="#7ba4e0" stroke-dasharray="5,5" fill="none" stroke-width="1.5"/>
    <text x="715" y="45" class="bold-text" text-anchor="middle">TOG</text>
    <rect x="655" y="55" width="120" height="55" rx="15" fill="#7ba4e0"/>
    <text x="715" y="77" class="pill-text-white" text-anchor="middle">Task-oriented</text>
    <text x="715" y="97" class="pill-text-white" text-anchor="middle">Gradient</text>
    <path d="M 625 75 L 645 75" stroke="#333" stroke-width="1.5" fill="none" marker-end="url(#arrow)"/>
  </g>

  <!-- TCG1 -->
  <g>
    <rect x="645" y="145" width="140" height="100" rx="5" stroke="#fcd04b" stroke-dasharray="5,5" fill="none" stroke-width="1.5"/>
    <text x="715" y="165" class="bold-text" text-anchor="middle">TCG1</text>
    <rect x="655" y="180" width="120" height="55" rx="15" fill="#fcd04b"/>
    <text x="715" y="202" class="pill-text-dark" text-anchor="middle">Target class</text>
    <text x="715" y="222" class="pill-text-dark" text-anchor="middle">Gradient</text>
    <path d="M 625 195 L 645 195" stroke="#333" stroke-width="1.5" fill="none" marker-end="url(#arrow)"/>
  </g>

  <!-- TCG2 -->
  <g>
    <rect x="645" y="265" width="140" height="100" rx="5" stroke="#fcd04b" stroke-dasharray="5,5" fill="none" stroke-width="1.5"/>
    <text x="715" y="285" class="bold-text" text-anchor="middle">TCG2</text>
    <rect x="655" y="300" width="120" height="55" rx="15" fill="#fcd04b"/>
    <text x="715" y="322" class="pill-text-dark" text-anchor="middle">Target class</text>
    <text x="715" y="342" class="pill-text-dark" text-anchor="middle">Gradient</text>
    <path d="M 625 315 L 645 315" stroke="#333" stroke-width="1.5" fill="none" marker-end="url(#arrow)"/>
  </g>

  <!-- NCG -->
  <g>
    <rect x="645" y="380" width="140" height="100" rx="5" stroke="#9ad991" stroke-dasharray="5,5" fill="none" stroke-width="1.5"/>
    <text x="715" y="400" class="bold-text" text-anchor="middle">NCG</text>
    <rect x="655" y="415" width="120" height="55" rx="15" fill="#9ad991"/>
    <text x="715" y="437" class="pill-text-dark" text-anchor="middle">Non-target</text>
    <text x="715" y="457" class="pill-text-dark" text-anchor="middle">class Gradient</text>
    <path d="M 625 435 L 645 435" stroke="#333" stroke-width="1.5" fill="none" marker-end="url(#arrow)"/>
  </g>


  <!-- ==================== SEVENTH COLUMN: EQUATIONS &amp; BUFFERS ==================== -->

  <!-- Top Buffer -->
  <g>
    <text x="795" y="35" class="math-text">v ← g + (μ + Δ)v</text>
    <path d="M 815 53 L 815 83 M 811 59 L 815 53 L 819 59 M 811 77 L 815 83 L 819 77" stroke="#7ba4e0" stroke-width="2" fill="none"/>
    <rect x="845" y="45" width="140" height="55" rx="15" fill="#7ba4e0"/>
    <text x="915" y="67" class="pill-text-white" text-anchor="middle">Task</text>
    <text x="915" y="87" class="pill-text-white" text-anchor="middle">Momentum buffer</text>
    <path d="M 785 75 L 845 75" stroke="#333" stroke-width="1.5" fill="none" marker-end="url(#arrow)"/>
  </g>

  <!-- Middle Buffer -->
  <g>
    <text x="795" y="155" class="math-text">v ← g + (μ - Δ)v</text>
    <path d="M 815 173 L 815 203 M 811 179 L 815 173 L 819 179 M 811 197 L 815 203 L 819 197" stroke="#fcd04b" stroke-width="2" fill="none"/>
    <rect x="845" y="165" width="140" height="55" rx="15" fill="#fcd04b"/>
    <text x="915" y="187" class="pill-text-dark" text-anchor="middle">Target1</text>
    <text x="915" y="207" class="pill-text-dark" text-anchor="middle">Momentum buffer</text>
    <path d="M 785 195 L 845 195" stroke="#333" stroke-width="1.5" fill="none" marker-end="url(#arrow)"/>
  </g>

  <!-- Middle 2 Buffer -->
  <g>
    <text x="795" y="275" class="math-text">v ← g + (μ - Δ)v</text>
    <path d="M 815 293 L 815 323 M 811 299 L 815 293 L 819 299 M 811 317 L 815 323 L 819 317" stroke="#fcd04b" stroke-width="2" fill="none"/>
    <rect x="845" y="285" width="140" height="55" rx="15" fill="#fcd04b"/>
    <text x="915" y="307" class="pill-text-dark" text-anchor="middle">Target2</text>
    <text x="915" y="327" class="pill-text-dark" text-anchor="middle">Momentum buffer</text>
    <path d="M 785 315 L 845 315" stroke="#333" stroke-width="1.5" fill="none" marker-end="url(#arrow)"/>
  </g>

  <!-- Bottom Buffer -->
  <g>
    <text x="795" y="395" class="math-text">v ← g + (μ + Δ)v</text>
    <path d="M 815 413 L 815 443 M 811 419 L 815 413 L 819 419 M 811 437 L 815 443 L 819 437" stroke="#9ad991" stroke-width="2" fill="none"/>
    <rect x="845" y="405" width="140" height="55" rx="15" fill="#9ad991"/>
    <text x="915" y="427" class="pill-text-dark" text-anchor="middle">Non-target</text>
    <text x="915" y="447" class="pill-text-dark" text-anchor="middle">Momentum buffer</text>
    <path d="M 785 435 L 845 435" stroke="#333" stroke-width="1.5" fill="none" marker-end="url(#arrow)"/>
  </g>


  <!-- ==================== RIGHT COLUMN: AGGREGATION &amp; UPDATE ==================== -->

  <!-- Summation Circle -->
  <g>
    <circle cx="1015" cy="255" r="12" stroke="black" stroke-width="1.5" fill="none"/>
    <line x1="1009" y1="255" x2="1021" y2="255" stroke="black" stroke-width="1.5"/>
    <line x1="1015" y1="249" x2="1015" y2="261" stroke="black" stroke-width="1.5"/>
  </g>

  <!-- Arrows to Summation Circle -->
  <path d="M 985 75 L 1015 75 L 1015 240" stroke="#333" stroke-width="1.5" fill="none" marker-end="url(#arrow)"/>
  <path d="M 985 195 L 1015 195" stroke="#333" stroke-width="1.5" fill="none"/>
  <path d="M 985 315 L 1015 315" stroke="#333" stroke-width="1.5" fill="none"/>
  <path d="M 985 435 L 1015 435 L 1015 270" stroke="#333" stroke-width="1.5" fill="none" marker-end="url(#arrow)"/>

  <!-- Update Block -->
  <g>
    <path d="M 1027 255 L 1050 255" stroke="#333" stroke-width="1.5" fill="none" marker-end="url(#arrow)"/>
    <text x="1060" y="245" class="math-text">θ ← θ - γv</text>
    <text x="1060" y="270" class="title-text">Update</text>
  </g>

  <!-- Feedback Loop to Student Model -->
  <path d="M 1130 255 L 1190 255 L 1190 575 L 230 575 L 230 492" stroke="#333" stroke-width="2" fill="none" marker-end="url(#arrow)"/>

</svg>