<svg xmlns="http://www.w3.org/2000/svg" viewBox="0 0 1200 680" width="100%" height="100%" style="background-color: #ffffff; font-family: 'Segoe UI', -apple-system, Roboto, Helvetica, Arial, sans-serif;">
  <defs>
    <!-- Markers for arrows -->
    <marker id="arrow" viewBox="0 0 10 10" refX="6" refY="5" markerWidth="6" markerHeight="6" orient="auto-start-reverse">
      <path d="M 0 1.5 L 10 5 L 0 8.5 z" fill="#475569" />
    </marker>
    <marker id="arrow-blue" viewBox="0 0 10 10" refX="6" refY="5" markerWidth="6" markerHeight="6" orient="auto-start-reverse">
      <path d="M 0 1.5 L 10 5 L 0 8.5 z" fill="#0284c7" />
    </marker>
    <marker id="arrow-pink" viewBox="0 0 10 10" refX="6" refY="5" markerWidth="6" markerHeight="6" orient="auto-start-reverse">
      <path d="M 0 1.5 L 10 5 L 0 8.5 z" fill="#f43f5e" />
    </marker>

    <!-- Noise pattern -->
    <pattern id="noise" width="6" height="6" patternUnits="userSpaceOnUse">
      <rect width="3" height="3" fill="#94a3b8" opacity="0.8"/>
      <rect x="3" y="3" width="3" height="3" fill="#475569" opacity="0.8"/>
      <rect x="3" y="0" width="3" height="3" fill="#cbd5e1" opacity="0.5"/>
      <rect x="0" y="3" width="3" height="3" fill="#334155" opacity="0.6"/>
    </pattern>

    <!-- Reusable Expert Hourglass Shape -->
    <g id="expert-shape">
      <path d="M 2 2 L 28 2 L 18 15 L 28 28 L 2 28 L 12 15 Z" fill="#e0f2fe" stroke="#0284c7" stroke-width="1.5" stroke-linejoin="round"/>
    </g>

    <!-- Reusable Fire Icon -->
    <g id="fire-icon">
      <path d="M 8 18 C 4 14, 4 8, 8 4 C 9.5 6.5, 12 6.5, 12 2.5 C 16 6.5, 17.5 12, 14.5 16 C 13.5 17.5, 11 19, 8 18 Z" fill="#f97316"/>
      <path d="M 8 18 C 6.5 15, 6.5 12, 9.5 9.5 C 9.5 11, 11 11, 11 8 C 13.5 11, 13.5 15, 11 18 Z" fill="#ef4444"/>
    </g>

    <!-- Reusable Frozen Parameter Icon -->
    <g id="frozen-icon">
      <rect x="0" y="0" width="16" height="16" rx="3" fill="#bae6fd" stroke="#0284c7" stroke-width="1.5"/>
      <circle cx="8" cy="8" r="3" fill="#0284c7"/>
      <path d="M 5 5 L 11 11 M 11 5 L 5 11" stroke="#0284c7" stroke-width="1"/>
    </g>
  </defs>

  <!-- Vertical Divider -->
  <line x1="615" y1="20" x2="615" y2="630" stroke="#cbd5e1" stroke-width="2" stroke-dasharray="8 8" />

  <!-- ==================== LEFT COLUMN (a) ==================== -->

  <!-- Top Box: T2I DiT Framework -->
  <rect x="15" y="15" width="580" height="380" rx="12" fill="#f0f9ff" stroke="#0284c7" stroke-width="1.5" />
  <text x="305" y="38" font-size="16" font-weight="bold" fill="#0369a1" text-anchor="middle">In-context Editing Framework based on T2I DiT</text>

  <!-- Source Image (a) -->
  <g transform="translate(60, 65)">
    <rect x="0" y="0" width="80" height="120" rx="6" fill="#e2e8f0" stroke="#0284c7" stroke-width="1.5" />
    <!-- Stylized Man Portrait -->
    <path d="M 10 120 C 10 95, 25 85, 40 85 C 55 85, 70 95, 70 120 Z" fill="#0284c7" />
    <circle cx="40" cy="60" r="18" fill="#fbcfe8" />
    <path d="M 30 48 C 30 40, 50 40, 50 48 C 52 42, 38 35, 30 48" fill="#475569" />
    <rect x="25" y="90" width="30" height="30" fill="#38bdf8" rx="2" />
    <text x="40" y="138" font-size="12" font-weight="bold" fill="#0284c7" text-anchor="middle">Source Image</text>
  </g>

  <!-- T2I Diffusion Transformer (Top) -->
  <rect x="210" y="65" width="200" height="60" rx="10" fill="#e0f2fe" stroke="#38bdf8" stroke-width="1.5" />
  <text x="310" y="100" font-size="13" font-weight="bold" fill="#0369a1" text-anchor="middle">T2I Diffusion Transformer</text>

  <!-- Arrow: Source Image to T2I -->
  <path d="M 155 95 L 202 95" stroke="#0284c7" stroke-width="1.5" marker-end="url(#arrow-blue)" />

  <!-- Inverted Noise Grid (Top Right) -->
  <g transform="translate(475, 75)">
    <!-- 4x4 Grid -->
    <rect x="0" y="0" width="10" height="10" fill="#e0f2fe" stroke="#0284c7" rx="1"/>
    <rect x="14" y="0" width="10" height="10" fill="#e0f2fe" stroke="#0284c7" rx="1"/>
    <rect x="28" y="0" width="10" height="10" fill="#e0f2fe" stroke="#0284c7" rx="1"/>
    <rect x="42" y="0" width="10" height="10" fill="#e0f2fe" stroke="#0284c7" rx="1"/>
    <rect x="0" y="14" width="10" height="10" fill="#e0f2fe" stroke="#0284c7" rx="1"/>
    <rect x="14" y="14" width="10" height="10" fill="#e0f2fe" stroke="#0284c7" rx="1"/>
    <rect x="28" y="14" width="10" height="10" fill="#e0f2fe" stroke="#0284c7" rx="1"/>
    <rect x="42" y="14" width="10" height="10" fill="#e0f2fe" stroke="#0284c7" rx="1"/>
    <rect x="0" y="28" width="10" height="10" fill="#e0f2fe" stroke="#0284c7" rx="1"/>
    <rect x="14" y="28" width="10" height="10" fill="#e0f2fe" stroke="#0284c7" rx="1"/>
    <rect x="28" y="28" width="10" height="10" fill="#e0f2fe" stroke="#0284c7" rx="1"/>
    <rect x="42" y="28" width="10" height="10" fill="#e0f2fe" stroke="#0284c7" rx="1"/>
    <rect x="0" y="42" width="10" height="10" fill="#e0f2fe" stroke="#0284c7" rx="1"/>
    <rect x="14" y="42" width="10" height="10" fill="#e0f2fe" stroke="#0284c7" rx="1"/>
    <rect x="28" y="42" width="10" height="10" fill="#e0f2fe" stroke="#0284c7" rx="1"/>
    <rect x="42" y="42" width="10" height="10" fill="#e0f2fe" stroke="#0284c7" rx="1"/>
    <text x="26" y="68" font-size="12" font-weight="bold" fill="#0284c7" text-anchor="middle">Inverted Noise</text>
  </g>

  <!-- Arrow: T2I to Inverted Noise -->
  <path d="M 418 95 L 467 95" stroke="#0284c7" stroke-width="1.5" marker-end="url(#arrow-blue)" />

  <!-- Loop: Inversion x N -->
  <path d="M 470 110 L 470 155 L 190 155 L 190 95 L 202 95" fill="none" stroke="#0284c7" stroke-width="1.5" marker-end="url(#arrow-blue)" />
  <text x="310" y="148" font-size="13" font-weight="bold" font-style="italic" fill="#0369a1" text-anchor="middle">Inversion × N</text>

  <!-- Feature Injection Section -->
  <text x="235" y="180" font-size="11" font-weight="bold" fill="#0284c7" text-anchor="end">Feature Injection</text>
  <path d="M 245 170 L 245 195" fill="none" stroke="#38bdf8" stroke-width="3" marker-end="url(#arrow-blue)" />

  <!-- Feature Injection Grids -->
  <g transform="translate(270, 165)">
    <!-- Blue Grid 3x3 -->
    <rect x="0" y="0" width="8" height="8" fill="#e0f2fe" stroke="#0284c7" rx="1"/>
    <rect x="11" y="0" width="8" height="8" fill="#e0f2fe" stroke="#0284c7" rx="1"/>
    <rect x="22" y="0" width="8" height="8" fill="#e0f2fe" stroke="#0284c7" rx="1"/>
    <rect x="0" y="11" width="8" height="8" fill="#e0f2fe" stroke="#0284c7" rx="1"/>
    <rect x="11" y="11" width="8" height="8" fill="#e0f2fe" stroke="#0284c7" rx="1"/>
    <rect x="22" y="11" width="8" height="8" fill="#e0f2fe" stroke="#0284c7" rx="1"/>
    <rect x="0" y="22" width="8" height="8" fill="#e0f2fe" stroke="#0284c7" rx="1"/>
    <rect x="11" y="22" width="8" height="8" fill="#e0f2fe" stroke="#0284c7" rx="1"/>
    <rect x="22" y="22" width="8" height="8" fill="#e0f2fe" stroke="#0284c7" rx="1"/>
  </g>
  <path d="M 308 180 L 322 180" stroke="#475569" stroke-width="1" marker-end="url(#arrow)" />
  <g transform="translate(330, 165)">
    <!-- Mixed Grid 3x3 -->
    <rect x="0" y="0" width="8" height="8" fill="#e0f2fe" stroke="#0284c7" rx="1"/>
    <rect x="11" y="0" width="8" height="8" fill="#ffedd5" stroke="#ea580c" rx="1"/>
    <rect x="22" y="0" width="8" height="8" fill="#ffedd5" stroke="#ea580c" rx="1"/>
    <rect x="0" y="11" width="8" height="8" fill="#e0f2fe" stroke="#0284c7" rx="1"/>
    <rect x="11" y="11" width="8" height="8" fill="#e0f2fe" stroke="#0284c7" rx="1"/>
    <rect x="22" y="11" width="8" height="8" fill="#ffedd5" stroke="#ea580c" rx="1"/>
    <rect x="0" y="22" width="8" height="8" fill="#e0f2fe" stroke="#0284c7" rx="1"/>
    <rect x="11" y="22" width="8" height="8" fill="#e0f2fe" stroke="#0284c7" rx="1"/>
    <rect x="22" y="22" width="8" height="8" fill="#e0f2fe" stroke="#0284c7" rx="1"/>
    <!-- Dashed Highlight Border -->
    <rect x="-3" y="-3" width="36" height="36" fill="none" stroke="#ef4444" stroke-dasharray="2 2" stroke-width="1" rx="2" />
  </g>

  <!-- Bottom Left: Inverted + Random Noise -->
  <g transform="translate(25, 215)">
    <!-- Inverted Noise Grid (3x4) -->
    <g transform="translate(0, 10)">
      <rect x="0" y="0" width="10" height="10" fill="#e0f2fe" stroke="#0284c7" rx="1"/>
      <rect x="13" y="0" width="10" height="10" fill="#e0f2fe" stroke="#0284c7" rx="1"/>
      <rect x="26" y="0" width="10" height="10" fill="#e0f2fe" stroke="#0284c7" rx="1"/>
      <rect x="0" y="13" width="10" height="10" fill="#e0f2fe" stroke="#0284c7" rx="1"/>
      <rect x="13" y="13" width="10" height="10" fill="#e0f2fe" stroke="#0284c7" rx="1"/>
      <rect x="26" y="13" width="10" height="10" fill="#e0f2fe" stroke="#0284c7" rx="1"/>
      <rect x="0" y="26" width="10" height="10" fill="#e0f2fe" stroke="#0284c7" rx="1"/>
      <rect x="13" y="26" width="10" height="10" fill="#e0f2fe" stroke="#0284c7" rx="1"/>
      <rect x="26" y="26" width="10" height="10" fill="#e0f2fe" stroke="#0284c7" rx="1"/>
      <rect x="0" y="39" width="10" height="10" fill="#e0f2fe" stroke="#0284c7" rx="1"/>
      <rect x="13" y="39" width="10" height="10" fill="#e0f2fe" stroke="#0284c7" rx="1"/>
      <rect x="26" y="39" width="10" height="10" fill="#e0f2fe" stroke="#0284c7" rx="1"/>
      <text x="18" y="62" font-size="11" font-weight="bold" fill="#0284c7" text-anchor="middle">Inverted</text>
      <text x="18" y="73" font-size="11" font-weight="bold" fill="#0284c7" text-anchor="middle">Noise</text>
    </g>

    <!-- Plus / Concat -->
    <text x="53" y="38" font-size="16" font-weight="bold" fill="#475569" text-anchor="middle">+</text>
    <text x="53" y="48" font-size="9" fill="#475569" text-anchor="middle">concat</text>

    <!-- Random Noise Grid (3x4) -->
    <g transform="translate(70, 10)">
      <rect x="0" y="0" width="10" height="10" fill="#ffedd5" stroke="#ea580c" rx="1"/>
      <rect x="13" y="0" width="10" height="10" fill="#ffedd5" stroke="#ea580c" rx="1"/>
      <rect x="26" y="0" width="10" height="10" fill="#ffedd5" stroke="#ea580c" rx="1"/>
      <rect x="0" y="13" width="10" height="10" fill="#ffedd5" stroke="#ea580c" rx="1"/>
      <rect x="13" y="13" width="10" height="10" fill="#ffedd5" stroke="#ea580c" rx="1"/>
      <rect x="26" y="13" width="10" height="10" fill="#ffedd5" stroke="#ea580c" rx="1"/>
      <rect x="0" y="26" width="10" height="10" fill="#ffedd5" stroke="#ea580c" rx="1"/>
      <rect x="13" y="26" width="10" height="10" fill="#ffedd5" stroke="#ea580c" rx="1"/>
      <rect x="26" y="26" width="10" height="10" fill="#ffedd5" stroke="#ea580c" rx="1"/>
      <rect x="0" y="39" width="10" height="10" fill="#ffedd5" stroke="#ea580c" rx="1"/>
      <rect x="13" y="39" width="10" height="10" fill="#ffedd5" stroke="#ea580c" rx="1"/>
      <rect x="26" y="39" width="10" height="10" fill="#ffedd5" stroke="#ea580c" rx="1"/>
      <text x="18" y="62" font-size="11" font-weight="bold" fill="#ea580c" text-anchor="middle">Random</text>
      <text x="18" y="73" font-size="11" font-weight="bold" fill="#ea580c" text-anchor="middle">Noise</text>
    </g>
  </g>

  <!-- T2I Diffusion Transformer (Bottom) -->
  <rect x="170" y="240" width="220" height="60" rx="10" fill="#e0f2fe" stroke="#38bdf8" stroke-width="1.5" />
  <text x="280" y="275" font-size="13" font-weight="bold" fill="#0369a1" text-anchor="middle">T2I Diffusion Transformer</text>

  <!-- Arrow: Noise to Bottom T2I -->
  <path d="M 140 265 L 162 265" stroke="#0284c7" stroke-width="1.5" marker-end="url(#arrow-blue)" />

  <!-- Loop: Denoising x N -->
  <path d="M 380 240 L 380 210 L 150 210 L 150 285 L 162 285" fill="none" stroke="#0284c7" stroke-width="1.5" marker-end="url(#arrow-blue)" />
  <text x="265" y="223" font-size="13" font-weight="bold" font-style="italic" fill="#0369a1" text-anchor="middle">Denoising × N</text>

  <!-- Prompt Box (a) -->
  <rect x="25" y="325" width="365" height="58" rx="8" fill="none" stroke="#38bdf8" stroke-width="1.5" stroke-dasharray="4 4" />
  <text x="30" y="340" font-size="10.5" fill="#0369a1">“ A diptych with two side-by-side images of the same scene.</text>
  <text x="42" y="354" font-size="10.5" fill="#0369a1">On the right, the scene is the same as on the left but</text>
  <text x="82" y="368" font-size="10.5" font-weight="bold" fill="#ea580c">{make the man grab a basketball}.”</text>

  <!-- Arrow: Prompt to Bottom T2I -->
  <path d="M 190 325 L 190 308" stroke="#0284c7" stroke-width="1.5" marker-end="url(#arrow-blue)" />

  <!-- Generated Target Image (a) -->
  <g transform="translate(475, 200)">
    <rect x="0" y="0" width="90" height="120" rx="6" fill="#ffedd5" stroke="#ea580c" stroke-width="1.5" />
    <!-- Stylized Man with Basketball -->
    <path d="M 15 120 C 15 95, 30 85, 45 85 C 60 85, 75 95, 75 120 Z" fill="#0284c7" />
    <circle cx="45" cy="60" r="18" fill="#fbcfe8" />
    <path d="M 35 48 C 35 40, 55 40, 55 48 C 57 42, 43 35, 35 48" fill="#475569" />
    <rect x="30" y="90" width="30" height="30" fill="#38bdf8" rx="2" />
    <!-- Basketball -->
    <circle cx="45" cy="105" r="12" fill="#f97316" stroke="#c2410c" stroke-width="1" />
    <path d="M 35 105 Q 45 105 55 105 M 45 95 Q 45 105 45 115" stroke="#c2410c" stroke-width="1" fill="none" />
    <text x="45" y="138" font-size="12" font-weight="bold" fill="#ea580c" text-anchor="middle">Generated</text>
    <text x="45" y="150" font-size="12" font-weight="bold" fill="#ea580c" text-anchor="middle">Target Image</text>
  </g>

  <!-- Arrow: Bottom T2I to Target Image -->
  <path d="M 398 270 L 467 270" stroke="#0284c7" stroke-width="1.5" marker-end="url(#arrow-blue)" />

  <!-- Small Crop Box -->
  <g transform="translate(425, 265)">
    <rect x="0" y="0" width="38" height="26" rx="3" fill="#e2e8f0" stroke="#475569" stroke-width="1" />
    <line x1="19" y1="0" x2="19" y2="26" stroke="#475569" stroke-width="1" />
    <circle cx="9" cy="13" r="4" fill="#0284c7" />
    <circle cx="29" cy="13" r="4" fill="#ea580c" />
    <text x="19" y="36" font-size="10" font-weight="bold" fill="#0284c7" text-anchor="middle">crop</text>
  </g>


  <!-- Bottom Box: Inpainting DiT Framework -->
  <rect x="15" y="410" width="580" height="215" rx="12" fill="#fff1f2" stroke="#f43f5e" stroke-width="1.5" />
  <text x="305" y="433" font-size="16" font-weight="bold" fill="#e11d48" text-anchor="middle">In-context Editing Framework based on Inpainting DiT</text>

  <!-- Source Image (Bottom) -->
  <g transform="translate(25, 450)">
    <rect x="0" y="0" width="80" height="120" rx="6" fill="#1e293b" stroke="#f43f5e" stroke-width="1.5" />
    <!-- Stylized Woman Portrait -->
    <path d="M 10 120 C 10 95, 25 85, 40 85 C 55 85, 70 95, 70 120 Z" fill="#ec4899" />
    <circle cx="40" cy="60" r="16" fill="#fed7aa" />
    <!-- Hat -->
    <ellipse cx="40" cy="46" rx="22" ry="6" fill="#b45309" />
    <path d="M 25 46 C 25 35, 55 35, 55 46 Z" fill="#b45309" />
    <text x="40" y="138" font-size="12" font-weight="bold" fill="#f43f5e" text-anchor="middle">Source Image</text>
  </g>

  <!-- Image with Mask -->
  <g transform="translate(160, 485)">
    <rect x="0" y="0" width="100" height="85" rx="6" fill="#cbd5e1" stroke="#f43f5e" stroke-width="1" />
    <!-- Small Source Image inside -->
    <rect x="5" y="15" width="40" height="60" rx="3" fill="#1e293b" />
    <circle cx="25" cy="45" r="8" fill="#fed7aa" />
    <!-- Pink Mask Overlay -->
    <rect x="50" y="10" width="45" height="65" rx="4" fill="#fecdd3" stroke="#fda4af" stroke-width="1" opacity="0.9" />
    <text x="50" y="98" font-size="12" font-weight="bold" fill="#f43f5e" text-anchor="middle">Image with Mask</text>
  </g>

  <!-- Arrows: Source to Mask/Concat -->
  <path d="M 110 480 L 152 480" stroke="#f43f5e" stroke-width="1.5" marker-end="url(#arrow-pink)" />
  <text x="131" y="474" font-size="10" font-weight="bold" fill="#f43f5e" text-anchor="middle">mask</text>

  <path d="M 110 525 L 152 525" stroke="#f43f5e" stroke-width="1.5" marker-end="url(#arrow-pink)" />
  <text x="131" y="520" font-size="10" font-weight="bold" fill="#f43f5e" text-anchor="middle">concat</text>

  <!-- Noise Box (Bottom) -->
  <rect x="160" y="450" width="100" height="30" fill="url(#noise)" stroke="#475569" stroke-width="1" />
  <text x="268" y="470" font-size="12" font-weight="bold" fill="#f43f5e">Noise</text>

  <!-- Inpainting DiT Block -->
  <rect x="295" y="485" width="110" height="50" rx="8" fill="#ffe4e6" stroke="#fda4af" stroke-width="1.5" />
  <text x="350" y="515" font-size="12" font-weight="bold" fill="#e11d48" text-anchor="middle">Inpainting DiT</text>

  <!-- Arrow: Mask to Inpainting DiT -->
  <path d="M 268 510 L 287 510" stroke="#f43f5e" stroke-width="1.5" marker-end="url(#arrow-pink)" />

  <!-- Target Image (Bottom Right) -->
  <g transform="translate(485, 450)">
    <rect x="0" y="0" width="80" height="120" rx="6" fill="#1e293b" stroke="#f43f5e" stroke-width="1.5" />
    <!-- Stylized Woman holding can -->
    <path d="M 10 120 C 10 95, 25 85, 40 85 C 55 85, 70 95, 70 120 Z" fill="#ec4899" />
    <circle cx="40" cy="60" r="16" fill="#fed7aa" />
    <ellipse cx="40" cy="46" rx="22" ry="6" fill="#b45309" />
    <path d="M 25 46 C 25 35, 55 35, 55 46 Z" fill="#b45309" />
    <!-- Red Can -->
    <rect x="20" y="90" width="10" height="18" rx="1" fill="#ef4444" />
    <rect x="21" y="88" width="8" height="2" fill="#cbd5e1" />
    <text x="40" y="138" font-size="12" font-weight="bold" fill="#f43f5e" text-anchor="middle">Target Image</text>
  </g>

  <!-- Arrow: Inpainting DiT to Target Image -->
  <path d="M 412 510 L 477 510" stroke="#f43f5e" stroke-width="1.5" marker-end="url(#arrow-pink)" />

  <!-- Small Crop Box (Bottom) -->
  <g transform="translate(435, 465)">
    <rect x="0" y="0" width="38" height="26" rx="3" fill="#e2e8f0" stroke="#f43f5e" stroke-width="1" />
    <line x1="19" y1="0" x2="19" y2="26" stroke="#f43f5e" stroke-width="1" />
    <circle cx="9" cy="13" r="4" fill="#ec4899" />
    <circle cx="29" cy="13" r="4" fill="#ef4444" />
    <text x="19" y="36" font-size="10" font-weight="bold" fill="#f43f5e" text-anchor="middle">crop</text>
  </g>

  <!-- Prompt Box (Bottom) -->
  <rect x="250" y="555" width="200" height="42" rx="8" fill="none" stroke="#fda4af" stroke-width="1.5" stroke-dasharray="4 4" />
  <text x="350" y="570" font-size="10" fill="#e11d48" text-anchor="middle">“ A diptych with ... ... but</text>
  <text x="350" y="584" font-size="10" font-weight="bold" fill="#e11d48" text-anchor="middle">{make her hold a red can}.”</text>

  <!-- Arrow: Prompt to Inpainting DiT -->
  <path d="M 350 555 L 350 542" stroke="#f43f5e" stroke-width="1.5" marker-end="url(#arrow-pink)" />


  <!-- ==================== RIGHT COLUMN (b) ==================== -->

  <!-- Top Left Images (b) -->
  <g transform="translate(670, 15)">
    <!-- Original Girl -->
    <rect x="0" y="0" width="65" height="100" rx="6" fill="#f1f5f9" stroke="#cbd5e1" stroke-width="1" />
    <path d="M 8 100 C 8 80, 20 70, 32 70 C 44 70, 56 80, 56 100 Z" fill="#475569" />
    <circle cx="32" cy="45" r="15" fill="#fbcfe8" />
    <path d="M 20 35 C 20 25, 45 25, 45 35 C 48 30, 35 22, 20 35" fill="#1e293b" />
    <!-- Watercolor Girl -->
    <g transform="translate(75, 0)">
      <rect x="0" y="0" width="65" height="100" rx="6" fill="#fffbeb" stroke="#ef4444" stroke-width="1.5" stroke-dasharray="3 3" />
      <!-- Soft watercolor-like shapes -->
      <path d="M 8 100 C 8 80, 20 70, 32 70 C 44 70, 56 80, 56 100 Z" fill="#64748b" opacity="0.8" />
      <circle cx="32" cy="45" r="15" fill="#fbcfe8" opacity="0.8" />
      <path d="M 20 35 C 20 25, 45 25, 45 35 C 48 30, 35 22, 20 35" fill="#334155" opacity="0.8" />
    </g>
    <!-- Label -->
    <text x="150" y="35" font-size="11" font-weight="bold" fill="#1e293b">Edit by</text>
    <text x="150" y="48" font-size="11" font-weight="bold" fill="#1e293b">In-context</text>
    <text x="150" y="61" font-size="11" font-weight="bold" fill="#1e293b">Generation</text>
  </g>

  <!-- Decoder Box -->
  <rect x="735" y="130" width="85" height="25" rx="5" fill="#e0f2fe" stroke="#38bdf8" stroke-width="1" />
  <text x="777" y="147" font-size="11" font-weight="bold" fill="#0369a1" text-anchor="middle">Decoder</text>
  <path d="M 777 130 L 777 122" stroke="#475569" stroke-width="1" marker-end="url(#arrow)" />

  <!-- Main Pink Block (N x) -->
  <rect x="650" y="170" width="245" height="255" rx="15" fill="#fdf2f8" stroke="#fbcfe8" stroke-width="1.5" />
  <text x="865" y="195" font-size="13" font-weight="bold" fill="#be123c">N×</text>

  <!-- Top Squares inside Pink Block -->
  <g transform="translate(725, 190)">
    <rect x="0" y="0" width="10" height="10" fill="#93c5fd" stroke="#2563eb" rx="1"/>
    <rect x="11" y="0" width="10" height="10" fill="#93c5fd" stroke="#2563eb" rx="1"/>
    <rect x="22" y="0" width="10" height="10" fill="#93c5fd" stroke="#2563eb" rx="1"/>
    <rect x="33" y="0" width="10" height="10" fill="#f472b6" stroke="#db2777" rx="1"/>
    <rect x="44" y="0" width="10" height="10" fill="#f472b6" stroke="#db2777" rx="1"/>
    <rect x="55" y="0" width="10" height="10" fill="#f472b6" stroke="#db2777" rx="1"/>
    <rect x="66" y="0" width="10" height="10" fill="#f472b6" stroke="#db2777" rx="1"/>
  </g>
  <path d="M 777 170 L 777 160" stroke="#475569" stroke-width="1" marker-end="url(#arrow)" />

  <!-- Operators -->
  <circle cx="777" cy="220" r="7" fill="none" stroke="#475569" stroke-width="1.5" />
  <text x="777" y="223" font-size="10" font-weight="bold" fill="#475569" text-anchor="middle">+</text>

  <circle cx="777" cy="245" r="7" fill="none" stroke="#475569" stroke-width="1.5" />
  <text x="777" y="248" font-size="9" font-weight="bold" fill="#475569" text-anchor="middle">×</text>

  <path d="M 777 203 L 777 211" stroke="#475569" stroke-width="1" marker-end="url(#arrow)" />
  <path d="M 777 227 L 777 236" stroke="#475569" stroke-width="1" marker-end="url(#arrow)" />

  <!-- Out Projection Box -->
  <rect x="715" y="270" width="120" height="25" rx="5" fill="#fce7f3" stroke="#e11d48" stroke-width="2" />
  <text x="775" y="287" font-size="11" font-weight="bold" fill="#9f1239" text-anchor="middle">Out Projection</text>
  <path d="M 777 270 L 777 254" stroke="#475569" stroke-width="1" marker-end="url(#arrow)" />

  <!-- MLP &amp; MM Attention -->
  <rect x="685" y="315" width="45" height="25" rx="5" fill="#fce7f3" stroke="#db2777" stroke-width="1.5" stroke-dasharray="3 3" />
  <text x="707" y="331" font-size="10" font-weight="bold" fill="#9d174d" text-anchor="middle">MLP</text>

  <rect x="760" y="315" width="105" height="25" rx="5" fill="#fce7f3" stroke="#db2777" stroke-width="1.5" stroke-dasharray="3 3" />
  <text x="812" y="331" font-size="10" font-weight="bold" fill="#9d174d" text-anchor="middle">MM Attention</text>

  <!-- Norm &amp; Mod -->
  <rect x="710" y="360" width="125" height="25" rx="5" fill="#fce7f3" stroke="#db2777" stroke-width="1.5" stroke-dasharray="3 3" />
  <text x="772" y="377" font-size="11" font-weight="bold" fill="#9d174d" text-anchor="middle">Norm &amp; Mod</text>

  <!-- Concat Block (Bottom of Pink) -->
  <g transform="translate(670, 400)">
    <rect x="0" y="0" width="205" height="30" rx="5" fill="none" stroke="#475569" stroke-width="1" />
    <g transform="translate(15, 10)">
      <rect x="0" y="0" width="10" height="10" fill="#93c5fd" stroke="#2563eb" rx="1"/>
      <rect x="12" y="0" width="10" height="10" fill="#93c5fd" stroke="#2563eb" rx="1"/>
      <rect x="24" y="0" width="10" height="10" fill="#93c5fd" stroke="#2563eb" rx="1"/>
    </g>
    <text x="80" y="19" font-size="10" font-weight="bold" fill="#475569">+</text>
    <text x="90" y="18" font-size="8" fill="#475569">concat</text>
    <g transform="translate(125, 10)">
      <rect x="0" y="0" width="10" height="10" fill="#f472b6" stroke="#db2777" rx="1"/>
      <rect x="12" y="0" width="10" height="10" fill="#f472b6" stroke="#db2777" rx="1"/>
      <rect x="24" y="0" width="10" height="10" fill="#f472b6" stroke="#db2777" rx="1"/>
      <rect x="36" y="0" width="10" height="10" fill="#f472b6" stroke="#db2777" rx="1"/>
      <rect x="48" y="0" width="10" height="10" fill="#f472b6" stroke="#db2777" rx="1"/>
    </g>
  </g>

  <!-- Connections inside Pink Block -->
  <path d="M 772 400 L 772 387" stroke="#475569" stroke-width="1" marker-end="url(#arrow)" />
  <path d="M 772 360 L 772 350" stroke="#475569" stroke-width="1" />
  <path d="M 772 350 L 707 350 L 707 342" stroke="#475569" stroke-width="1" marker-end="url(#arrow)" />
  <path d="M 772 350 L 812 350 L 812 342" stroke="#475569" stroke-width="1" marker-end="url(#arrow)" />
  <path d="M 707 315 L 707 305 L 772 305 L 772 297" stroke="#475569" stroke-width="1" marker-end="url(#arrow)" />
  <path d="M 812 315 L 812 305 L 772 305" stroke="#475569" stroke-width="1" />

  <!-- Skip Connections -->
  <path d="M 665 415 L 660 415 L 660 220 L 768 220" fill="none" stroke="#475569" stroke-width="1" marker-end="url(#arrow)" />
  <path d="M 660 245 L 768 245" fill="none" stroke="#475569" stroke-width="1" marker-end="url(#arrow)" />


  <!-- ==================== LoRA-MoE MODULE ==================== -->
  <rect x="910" y="45" width="275" height="345" rx="15" fill="#eff6ff" stroke="#dbeafe" stroke-width="1.5" />
  <text x="1047" y="65" font-size="13" font-weight="bold" fill="#1e3a8a" text-anchor="middle">LoRA-MoE Module</text>

  <!-- Base Layer -->
  <rect x="920" y="180" width="80" height="22" rx="4" fill="#fce7f3" stroke="#db2777" stroke-width="1" />
  <text x="960" y="195" font-size="10" font-weight="bold" fill="#9d174d" text-anchor="middle">Base Layer</text>
  <use href="#frozen-icon" x="1005" y="183" />

  <!-- Experts -->
  <g transform="translate(925, 230)">
    <use href="#expert-shape" x="0" y="0" />
    <text x="15" y="42" font-size="9" font-weight="bold" fill="#1e3a8a" text-anchor="middle">Expert 1</text>
    <use href="#fire-icon" x="20" y="12" transform="scale(0.8)" />

    <use href="#expert-shape" x="45" y="0" />
    <text x="60" y="42" font-size="9" font-weight="bold" fill="#1e3a8a" text-anchor="middle">Expert 2</text>
    <use href="#fire-icon" x="76" y="12" transform="scale(0.8)" />

    <use href="#expert-shape" x="90" y="0" />
    <text x="105" y="42" font-size="9" font-weight="bold" fill="#1e3a8a" text-anchor="middle">Expert 3</text>
    <use href="#fire-icon" x="132" y="12" transform="scale(0.8)" />

    <!-- Dots -->
    <text x="142" y="18" font-size="14" font-weight="bold" fill="#1e3a8a">...</text>

    <use href="#expert-shape" x="160" y="0" />
    <text x="175" y="42" font-size="9" font-weight="bold" fill="#1e3a8a" text-anchor="middle">Expert N</text>
    <use href="#fire-icon" x="220" y="12" transform="scale(0.8)" />
  </g>

  <!-- Route Block -->
  <rect x="985" y="330" width="65" height="20" rx="4" fill="#e0f2fe" stroke="#0284c7" stroke-width="1" />
  <text x="1017" y="344" font-size="10" font-weight="bold" fill="#0369a1" text-anchor="middle">Route</text>
  <use href="#fire-icon" x="1055" y="330" transform="scale(0.8)" />

  <!-- TopK=1 Selector -->
  <g transform="translate(990, 295)">
    <rect x="0" y="0" width="55" height="25" fill="#fee2e2" stroke="#ef4444" stroke-width="1" rx="3" />
    <!-- Small bar chart representation -->
    <rect x="5" y="15" width="8" height="6" fill="#ef4444" />
    <rect x="18" y="5" width="8" height="16" fill="#22c55e" />
    <path d="M 20 2 L 22 4 L 26 0" fill="none" stroke="#22c55e" stroke-width="1.5" />
    <rect x="31" y="12" width="8" height="9" fill="#ef4444" />
    <text x="-5" y="16" font-size="9" font-weight="bold" fill="#1e293b" text-anchor="end">TopK=1</text>
  </g>

  <!-- Bottom Squares of LoRA-MoE -->
  <g transform="translate(980, 375)">
    <rect x="0" y="0" width="8" height="8" fill="#93c5fd" stroke="#2563eb" rx="1"/>
    <rect x="10" y="0" width="8" height="8" fill="#93c5fd" stroke="#2563eb" rx="1"/>
    <rect x="20" y="0" width="8" height="8" fill="#93c5fd" stroke="#2563eb" rx="1"/>
    <rect x="30" y="0" width="8" height="8" fill="#f472b6" stroke="#db2777" rx="1"/>
    <rect x="40" y="0" width="8" height="8" fill="#f472b6" stroke="#db2777" rx="1"/>
    <rect x="50" y="0" width="8" height="8" fill="#f472b6" stroke="#db2777" rx="1"/>
    <rect x="60" y="0" width="8" height="8" fill="#f472b6" stroke="#db2777" rx="1"/>
  </g>

  <!-- Routing Connections -->
  <path d="M 1017 370 L 1017 353" stroke="#475569" stroke-width="1" marker-end="url(#arrow)" />
  <path d="M 1017 330 L 1017 323" stroke="#475569" stroke-width="1" />

  <!-- Dashed Routing Lines to Experts -->
  <path d="M 990 305 C 940 305, 940 280, 940 262" fill="none" stroke="#475569" stroke-width="1" stroke-dasharray="3 3" marker-end="url(#arrow)" />
  <path d="M 1010 295 L 985 262" fill="none" stroke="#475569" stroke-width="1" stroke-dasharray="3 3" marker-end="url(#arrow)" />
  <path d="M 1025 295 L 1030 262" fill="none" stroke="#475569" stroke-width="1" stroke-dasharray="3 3" marker-end="url(#arrow)" />
  <path d="M 1045 305 C 1085 305, 1100 280, 1100 262" fill="none" stroke="#475569" stroke-width="1" stroke-dasharray="3 3" marker-end="url(#arrow)" />

  <!-- Big Loop in LoRA-MoE -->
  <path d="M 980 380 C 900 380, 880 280, 918 205" fill="none" stroke="#475569" stroke-width="1" stroke-dasharray="4 4" marker-end="url(#arrow)" />
  <path d="M 1010 135 C 1050 145, 1150 220, 1110 380 L 1055 380" fill="none" stroke="#475569" stroke-width="1" stroke-dasharray="4 4" />

  <!-- Merging Operator at Top of LoRA-MoE -->
  <circle cx="1010" cy="135" r="7" fill="none" stroke="#475569" stroke-width="1.5" />
  <text x="1010" y="138" font-size="10" font-weight="bold" fill="#475569" text-anchor="middle">+</text>

  <path d="M 960 180 C 960 150, 995 135, 1001 135" fill="none" stroke="#475569" stroke-width="1" marker-end="url(#arrow)" />
  <path d="M 1010 128 L 1010 118" stroke="#475569" stroke-width="1" marker-end="url(#arrow)" />

  <!-- Top Squares of LoRA-MoE -->
  <g transform="translate(975, 105)">
    <rect x="0" y="0" width="8" height="8" fill="#93c5fd" stroke="#2563eb" rx="1"/>
    <rect x="10" y="0" width="8" height="8" fill="#93c5fd" stroke="#2563eb" rx="1"/>
    <rect x="20" y="0" width="8" height="8" fill="#93c5fd" stroke="#2563eb" rx="1"/>
    <rect x="30" y="0" width="8" height="8" fill="#f472b6" stroke="#db2777" rx="1"/>
    <rect x="40" y="0" width="8" height="8" fill="#f472b6" stroke="#db2777" rx="1"/>
    <rect x="50" y="0" width="8" height="8" fill="#f472b6" stroke="#db2777" rx="1"/>
    <rect x="60" y="0" width="8" height="8" fill="#f472b6" stroke="#db2777" rx="1"/>
  </g>


  <!-- ==================== BOTTOM INPUTS (b) ==================== -->

  <!-- Text Encoder -->
  <rect x="645" y="445" width="90" height="25" rx="5" fill="#e0f2fe" stroke="#38bdf8" stroke-width="1" />
  <text x="690" y="462" font-size="11" font-weight="bold" fill="#0369a1" text-anchor="middle">Text Encoder</text>
  <path d="M 690 445 L 690 430" stroke="#475569" stroke-width="1" marker-end="url(#arrow)" />

  <!-- Prompt Box (b) -->
  <rect x="635" y="490" width="110" height="75" rx="8" fill="none" stroke="#cbd5e1" stroke-width="1.5" />
  <text x="690" y="508" font-size="9.5" fill="#475569" text-anchor="middle">“ A diptych with ...</text>
  <text x="690" y="521" font-size="9.5" font-weight="bold" fill="#1e293b" text-anchor="middle">but {what if it</text>
  <text x="690" y="534" font-size="9.5" font-weight="bold" fill="#1e293b" text-anchor="middle">looks like water</text>
  <text x="690" y="547" font-size="9.5" font-weight="bold" fill="#1e293b" text-anchor="middle">color painting?}”</text>
  <path d="M 690 490 L 690 473" stroke="#475569" stroke-width="1" marker-end="url(#arrow)" />

  <!-- Image Encoder -->
  <rect x="765" y="445" width="130" height="25" rx="5" fill="#e0f2fe" stroke="#38bdf8" stroke-width="1" />
  <text x="830" y="462" font-size="11" font-weight="bold" fill="#0369a1" text-anchor="middle">Image Encoder</text>
  <path d="M 830 445 L 830 430" stroke="#475569" stroke-width="1" marker-end="url(#arrow)" />

  <!-- Image Encoder Inputs -->
  <g transform="translate(760, 490)">
    <!-- Image -->
    <rect x="0" y="10" width="45" height="60" rx="4" fill="#f1f5f9" stroke="#cbd5e1" stroke-width="1" />
    <path d="M 5 70 C 5 55, 12 48, 22 48 C 32 48, 40 55, 40 70 Z" fill="#475569" />
    <circle cx="22" cy="32" r="10" fill="#fbcfe8" />
    <text x="22" y="2" font-size="10" font-weight="bold" fill="#1e293b" text-anchor="middle">Image</text>
    <path d="M 22 10 L 22 -17" stroke="#475569" stroke-width="1" marker-end="url(#arrow)" />

    <!-- Mask -->
    <g transform="translate(55, 10)">
      <rect x="0" y="0" width="40" height="60" fill="#000" stroke="#cbd5e1" stroke-width="1" />
      <rect x="20" y="0" width="20" height="60" fill="#fff" />
      <text x="20" y="-8" font-size="10" font-weight="bold" fill="#1e293b" text-anchor="middle">Mask</text>
      <path d="M 20 0 L 20 -27" stroke="#475569" stroke-width="1" marker-end="url(#arrow)" />
    </g>

    <!-- Noise -->
    <g transform="translate(105, 15)">
      <rect x="0" y="0" width="30" height="55" fill="url(#noise)" stroke="#cbd5e1" stroke-width="1" />
      <text x="15" y="-13" font-size="10" font-weight="bold" fill="#1e293b" text-anchor="middle">Noise</text>
      <path d="M 15 0 L 15 -32" stroke="#475569" stroke-width="1" marker-end="url(#arrow)" />
    </g>
  </g>


  <!-- ==================== LEGEND ==================== -->
  <rect x="910" y="415" width="275" height="155" rx="10" fill="none" stroke="#38bdf8" stroke-width="1.5" />

  <g transform="translate(925, 425)">
    <!-- Trainable Parameter -->
    <use href="#fire-icon" x="0" y="0" transform="scale(1.1)" />
    <text x="35" y="15" font-size="11" font-weight="bold" fill="#1e293b">: Trainable Parameter</text>

    <!-- Frozen Parameter -->
    <use href="#frozen-icon" x="2" y="30" />
    <text x="35" y="43" font-size="11" font-weight="bold" fill="#1e293b">: Frozen Parameter</text>

    <!-- Standard LoRA Tuning -->
    <rect x="0" y="58" width="30" height="14" rx="3" fill="#fce7f3" stroke="#db2777" stroke-width="1.5" stroke-dasharray="3 3" />
    <text x="35" y="70" font-size="11" font-weight="bold" fill="#1e293b">: Standard LoRA Tuning</text>

    <!-- LoRA-MoE Tuning -->
    <rect x="0" y="85" width="30" height="14" rx="3" fill="#fce7f3" stroke="#e11d48" stroke-width="2" />
    <text x="35" y="97" font-size="11" font-weight="bold" fill="#1e293b">: LoRA-MoE Tuning</text>

    <!-- LoRA Adapter -->
    <g transform="translate(0, 110)">
      <use href="#expert-shape" x="0" y="0" transform="scale(0.8)" />
      <text x="35" y="18" font-size="11" font-weight="bold" fill="#1e293b">: LoRA Adapter</text>
    </g>
  </g>


  <!-- ==================== SECTION LABELS (a) &amp; (b) ==================== -->
  <text x="305" y="660" font-size="18" font-weight="bold" fill="#1e293b" text-anchor="middle">(a) Training-free Structure of ICEdit</text>
  <text x="905" y="660" font-size="18" font-weight="bold" fill="#1e293b" text-anchor="middle">(b) Finetuning Strategy for ICEdit</text>

</svg>