<svg xmlns="http://www.w3.org/2000/svg" viewBox="2.0 12.0 1686.0 816.0" style="font-family: Arial, Helvetica, sans-serif; background-color: white;">

  <!-- Definitions for Reusable Elements -->
  <defs>
    <!-- Arrowheads -->
    <marker id="arrow-black" markerWidth="10" markerHeight="10" refX="9" refY="5" orient="auto">
      <path d="M0,0 L10,5 L0,10" fill="none" stroke="black" stroke-width="1.5"/>
    </marker>
    <marker id="arrow-black-fill" markerWidth="10" markerHeight="10" refX="9" refY="5" orient="auto">
      <path d="M0,0 L10,5 L0,10 z" fill="black"/>
    </marker>
    <marker id="arrow-blue" markerWidth="10" markerHeight="10" refX="9" refY="5" orient="auto">
      <path d="M0,0 L10,5 L0,10 z" fill="#4F73B7"/>
    </marker>
    <marker id="arrow-green" markerWidth="10" markerHeight="10" refX="9" refY="5" orient="auto">
      <path d="M0,0 L10,5 L0,10 z" fill="#348E43"/>
    </marker>
    <marker id="arrow-red" markerWidth="10" markerHeight="10" refX="9" refY="5" orient="auto">
      <path d="M0,0 L10,5 L0,10 z" fill="#B0152E"/>
    </marker>
    <marker id="arrow-orange" markerWidth="10" markerHeight="10" refX="9" refY="5" orient="auto">
      <path d="M0,0 L10,5 L0,10 z" fill="#F5A623"/>
    </marker>

    <!-- Noise Filter -->
    <filter id="staticNoise">
      <feTurbulence type="fractalNoise" baseFrequency="0.85" numOctaves="3" stitchTiles="stitch"/>
      <feColorMatrix type="saturate" values="0"/>
    </filter>

    <!-- Stripe Patterns -->
    <pattern id="stripe-blue" patternUnits="userSpaceOnUse" width="10" height="10" patternTransform="rotate(45)">
      <rect width="10" height="10" fill="white"/>
      <line x1="0" y1="0" x2="0" y2="10" stroke="#4F73B7" stroke-width="6"/>
    </pattern>
    <pattern id="stripe-orange" patternUnits="userSpaceOnUse" width="10" height="10" patternTransform="rotate(45)">
      <rect width="10" height="10" fill="white"/>
      <line x1="0" y1="0" x2="0" y2="10" stroke="#F5A623" stroke-width="6"/>
    </pattern>

    <!-- Generic Girl Figure (Simplified) -->
    <g id="girl-fig">
      <circle cx="0" cy="-30" r="5" /> <!-- Head -->
      <path d="M-5,-20 Q0,-25 5,-20 L8,0 L5,30 L2,30 L-2,30 L-5,30 L-8,0 Z" /> <!-- Body -->
      <path d="M-8,0 L-15,10 L-12,15 L-5,5" fill="none" stroke-width="3" stroke-linecap="round"/> <!-- Arm L -->
      <path d="M8,0 L15,10 L12,15 L5,5" fill="none" stroke-width="3" stroke-linecap="round"/> <!-- Arm R -->
    </g>
  </defs>

  <!-- ==================== 1. Left Column: Inputs ==================== -->
  
  <!-- Ref Pose -->
  <g transform="translate(10, 30)">
    <rect width="180" height="180" fill="black"/>
    <!-- Skeletons -->
    <g transform="translate(60, 100) scale(1.5)">
      <use href="#girl-fig" stroke="#00FF00" stroke-width="1.5" fill="none"/> <!-- Green -->
      <path d="M-5,-20 Q0,-25 5,-20 M-8,0 L-15,10 M8,0 L15,10" stroke="#00FF00" stroke-width="1.5" fill="none"/>
    </g>
    <g transform="translate(130, 100) scale(1.5)">
      <use href="#girl-fig" stroke="#FF4500" stroke-width="1.5" fill="none"/> <!-- Orange -->
      <path d="M-5,-20 Q0,-25 5,-20 M-8,0 L-15,10 M8,0 L15,10" stroke="#FF4500" stroke-width="1.5" fill="none"/>
    </g>
    <text x="90" y="195" text-anchor="middle" font-size="32" font-weight="bold" fill="#222">Ref Pose</text>
  </g>

  <!-- Ref Img -->
  <g transform="translate(10, 220)">
    <rect width="180" height="180" fill="#E6C2E6"/> <!-- Pinkish bg -->
    <path d="M0,180 L50,100 L130,100 L180,180" fill="#D0B0D0"/> <!-- Floor -->
    <!-- Girl 1 (Left) -->
    <g transform="translate(60, 100)">
      <circle cx="0" cy="-30" r="12" fill="#D2B48C"/> <!-- Head -->
      <path d="M-10,-20 L10,-20 L8,10 L-8,10 Z" fill="white" stroke="none"/> <!-- Shirt -->
      <text x="0" y="-15" font-size="8" text-anchor="middle" fill="pink" font-weight="bold">COSMIC</text>
      <path d="M-8,10 L-10,50 L10,50 L8,10 Z" fill="#FF7F7F"/> <!-- Pants -->
      <path d="M-15,-20 L-20,-40 L-10,-35" stroke="#D2B48C" stroke-width="4" fill="none"/> <!-- Hair -->
    </g>
    <!-- Girl 2 (Right) -->
    <g transform="translate(130, 100)">
      <circle cx="0" cy="-30" r="12" fill="#D2B48C"/>
      <path d="M-10,-20 L10,-20 L8,10 L-8,10 Z" fill="white" stroke="none"/>
      <path d="M-8,10 L-10,30 L10,30 L8,10 Z" fill="#333"/> <!-- Shorts -->
      <path d="M-15,-20 L-25,-45 L-5,-35" stroke="#D2B48C" stroke-width="4" fill="none"/>
      <path d="M15,-20 L25,-45 L5,-35" stroke="#D2B48C" stroke-width="4" fill="none"/>
      <path d="M-5,30 L-5,60 L5,60 L5,30 Z" fill="#333"/> <!-- Boots -->
      <path d="M5,30 L5,60 L15,60 L15,30 Z" fill="#333"/>
    </g>
    <text x="90" y="195" text-anchor="middle" font-size="32" font-weight="bold" fill="#222">Ref Img</text>
  </g>

  <!-- Tgt Pose -->
  <g transform="translate(10, 420)">
    <rect width="180" height="180" fill="black" stroke="white" stroke-width="2"/>
    <rect x="10" y="-10" width="180" height="180" fill="black" stroke="white" stroke-width="2"/>
    <rect x="20" y="-20" width="180" height="180" fill="black" stroke="white" stroke-width="2"/>
    <!-- Skeletons Dynamic -->
    <g transform="translate(60, 100) scale(1.5)">
      <use href="#girl-fig" stroke="#FF4500" stroke-width="1.5" fill="none" transform="rotate(-10)"/> <!-- Kick -->
      <path d="M-5,-20 Q0,-25 5,-20 M-8,0 L-15,10 M8,0 L15,10" stroke="#FF4500" stroke-width="1.5" fill="none"/>
    </g>
    <g transform="translate(130, 100) scale(1.5)">
      <use href="#girl-fig" stroke="#00FF00" stroke-width="1.5" fill="none" transform="rotate(10)"/> <!-- Kick -->
      <path d="M-5,-20 Q0,-25 5,-20 M-8,0 L-15,10 M8,0 L15,10" stroke="#00FF00" stroke-width="1.5" fill="none"/>
    </g>
    <text x="90" y="195" text-anchor="middle" font-size="32" font-weight="bold" fill="#222">Tgt Pose</text>
  </g>

  <!-- Noise -->
  <g transform="translate(160, 620)">
    <text x="90" y="-30" text-anchor="middle" font-size="32" font-weight="bold" fill="#222">Noise</text>
    <rect x="20" y="-20" width="160" height="160" fill="#aaa" filter="url(#staticNoise)" stroke="black"/>
    <rect x="10" y="-10" width="160" height="160" fill="#aaa" filter="url(#staticNoise)" stroke="black"/>
    <rect x="0" y="0" width="160" height="160" fill="#aaa" filter="url(#staticNoise)" stroke="black"/>
  </g>

  <!-- ==================== 2. Encoders ==================== -->
  
  <!-- Pose Enc Top -->
  <g transform="translate(260, 50)">
    <path d="M0,0 L120,40 L120,120 L0,160 Z" fill="white" stroke="#555" stroke-width="3"/>
    <text x="50" y="70" font-size="36" font-weight="bold" fill="#333" text-anchor="middle">Pose</text>
    <text x="50" y="110" font-size="36" font-weight="bold" fill="#333" text-anchor="middle">Enc</text>
  </g>

  <!-- VAE Enc -->
  <g transform="translate(260, 180)">
    <path d="M0,0 L120,40 L120,120 L0,160 Z" fill="white" stroke="#555" stroke-width="3"/>
    <text x="50" y="70" font-size="36" font-weight="bold" fill="#333" text-anchor="middle">VAE</text>
    <text x="50" y="110" font-size="36" font-weight="bold" fill="#333" text-anchor="middle">Enc</text>
  </g>

  <!-- CLIP -->
  <g transform="translate(260, 290)">
    <path d="M0,0 L120,40 L120,120 L0,160 Z" fill="white" stroke="#555" stroke-width="3"/>
    <text x="50" y="90" font-size="36" font-weight="bold" fill="#333" text-anchor="middle">CLIP</text>
  </g>

  <!-- Pose Enc Bottom -->
  <g transform="translate(260, 440)">
    <path d="M0,0 L120,40 L120,120 L0,160 Z" fill="white" stroke="#555" stroke-width="3"/>
    <text x="50" y="70" font-size="36" font-weight="bold" fill="#333" text-anchor="middle">Pose</text>
    <text x="50" y="110" font-size="36" font-weight="bold" fill="#333" text-anchor="middle">Enc</text>
  </g>

  <!-- Connections to Encoders -->
  <!-- Ref Pose -> Pose Enc -->
  <line x1="190" y1="120" x2="260" y2="120" stroke="black" stroke-width="2" marker-end="url(#arrow-black-fill)"/>
  
  <!-- Ref Img -> VAE Enc -->
  <line x1="190" y1="290" x2="220" y2="290" stroke="black" stroke-width="2"/>
  <line x1="220" y1="290" x2="220" y2="220" stroke="black" stroke-width="2"/>
  <line x1="220" y1="220" x2="260" y2="220" stroke="black" stroke-width="2" marker-end="url(#arrow-black-fill)"/>
  <!-- Ref Img -> CLIP -->
  <line x1="220" y1="290" x2="220" y2="340" stroke="black" stroke-width="2"/>
  <line x1="220" y1="340" x2="260" y2="340" stroke="black" stroke-width="2" marker-end="url(#arrow-black-fill)"/>

  <!-- Tgt Pose -> Pose Enc -->
  <line x1="190" y1="490" x2="260" y2="490" stroke="black" stroke-width="2" marker-end="url(#arrow-black-fill)"/>

  <!-- Noise -> Pose Enc -->
  <line x1="300" y1="640" x2="400" y2="640" stroke="black" stroke-width="2"/>
  <line x1="400" y1="640" x2="400" y2="490" stroke="black" stroke-width="2" marker-end="url(#arrow-black-fill)"/>
  <!-- Noise -> CLIP -->
  <line x1="300" y1="640" x2="380" y2="640" stroke="black" stroke-width="2"/>
  <line x1="380" y1="640" x2="380" y2="500" stroke="black" stroke-width="2" marker-end="url(#arrow-black-fill)"/>
  <!-- Noise -> VAE Enc -->
  <line x1="380" y1="500" x2="380" y2="400" stroke="black" stroke-width="2"/>
  <line x1="380" y1="400" x2="380" y2="350" stroke="black" stroke-width="2"/>
  <line x1="380" y1="350" x2="260" y2="350" stroke="black" stroke-width="2" marker-end="url(#arrow-black-fill)"/>

  <!-- ==================== 3. Summation Nodes ==================== -->
  
  <!-- Top Node -->
  <g transform="translate(410, 175)">
    <circle cx="0" cy="0" r="25" fill="white" stroke="black" stroke-width="3"/>
    <line x1="-25" y1="0" x2="25" y2="0" stroke="black" stroke-width="3"/>
    <line x1="0" y1="-25" x2="0" y2="25" stroke="black" stroke-width="3"/>
  </g>
  <!-- Connections to Top Node -->
  <polyline points="380,120 410,120 410,145" fill="none" stroke="black" stroke-width="2" marker-end="url(#arrow-black-fill)"/>
  <polyline points="380,230 410,230 410,195" fill="none" stroke="black" stroke-width="2" marker-end="url(#arrow-black-fill)"/>
  <line x1="410" y1="175" x2="470" y2="175" stroke="black" stroke-width="2" marker-end="url(#arrow-black-fill)"/>

  <!-- Bottom Node -->
  <g transform="translate(410, 500)">
    <circle cx="0" cy="0" r="30" fill="white" stroke="black" stroke-width="3"/>
    <line x1="-30" y1="0" x2="30" y2="0" stroke="black" stroke-width="3"/>
    <line x1="0" y1="-30" x2="0" y2="30" stroke="black" stroke-width="3"/>
  </g>
  <!-- Connections to Bottom Node -->
  <line x1="380" y1="490" x2="410" y2="490" stroke="black" stroke-width="2" marker-end="url(#arrow-black-fill)"/>
  <line x1="410" y1="500" x2="470" y2="500" stroke="black" stroke-width="2" marker-end="url(#arrow-black-fill)"/>

  <!-- ==================== 4. ReferenceNet (Top Center) ==================== -->
  
  <g transform="translate(470, 20)">
    <!-- Background -->
    <path d="M0,0 L500,60 L500,200 L0,280 Z" fill="#DDE6F6"/> <!-- Left Trap -->
    <path d="M500,60 L1000,0 L1000,280 L500,200 Z" fill="#DDE6F6"/> <!-- Right Trap -->
    <rect x="500" y="60" width="500" height="240" fill="#DDE6F6"/> <!-- Center Rect -->
    <!-- Center Line -->
    <line x1="500" y1="60" x2="500" y2="300" stroke="white" stroke-width="2"/>
    <line x1="500" y1="60" x2="500" y2="0" stroke="white" stroke-width="2"/>
    
    <text x="500" y="55" text-anchor="middle" font-size="32" font-weight="bold" fill="#222">ReferenceNet</text>

    <!-- Blocks Group -->
    <g id="ref-blocks">
      <!-- Block 1 (Large) -->
      <rect x="30" y="80" width="40" height="180" rx="5" fill="#92A9D6" stroke="#666" stroke-width="3"/>
      <rect x="80" y="80" width="40" height="180" rx="5" fill="#C8E0CD" stroke="#666" stroke-width="3"/>
      
      <!-- Ellipsis -->
      <circle cx="150" cy="160" r="3" fill="#666"/>
      <circle cx="170" cy="160" r="3" fill="#666"/>
      <circle cx="190" cy="160" r="3" fill="#666"/>

      <!-- Block 2 (Small) -->
      <rect x="230" y="120" width="40" height="120" rx="5" fill="#92A9D6" stroke="#666" stroke-width="3"/>
      <rect x="280" y="120" width="40" height="120" rx="5" fill="#C8E0CD" stroke="#666" stroke-width="3"/>

      <!-- Ellipsis -->
      <circle cx="400" cy="160" r="3" fill="#666"/>
      <circle cx="420" cy="160" r="3" fill="#666"/>
      <circle cx="440" cy="160" r="3" fill="#666"/>

      <!-- Block 3 (Small) -->
      <rect x="480" y="120" width="40" height="120" rx="5" fill="#92A9D6" stroke="#666" stroke-width="3"/>
      <rect x="530" y="120" width="40" height="120" rx="5" fill="#C8E0CD" stroke="#666" stroke-width="3"/>

      <!-- Ellipsis -->
      <circle cx="600" cy="160" r="3" fill="#666"/>
      <circle cx="620" cy="160" r="3" fill="#666"/>
      <circle cx="640" cy="160" r="3" fill="#666"/>

      <!-- Block 4 (Large) -->
      <rect x="680" y="80" width="40" height="180" rx="5" fill="#92A9D6" stroke="#666" stroke-width="3"/>
      <rect x="730" y="80" width="40" height="180" rx="5" fill="#C8E0CD" stroke="#666" stroke-width="3"/>
    </g>
  </g>

  <!-- ==================== 5. DenoisingNet (Bottom Center) ==================== -->
  
  <g transform="translate(470, 360)">
    <!-- Background -->
    <path d="M0,0 L500,60 L500,200 L0,280 Z" fill="#FBEFE9"/> <!-- Left Trap -->
    <path d="M500,60 L1000,0 L1000,280 L500,200 Z" fill="#FBEFE9"/> <!-- Right Trap -->
    <rect x="500" y="60" width="500" height="240" fill="#FBEFE9"/> <!-- Center Rect -->
    <!-- Center Line -->
    <line x1="500" y1="60" x2="500" y2="300" stroke="white" stroke-width="2"/>
    <line x1="500" y1="60" x2="500" y2="0" stroke="white" stroke-width="2"/>
    
    <text x="500" y="55" text-anchor="middle" font-size="32" font-weight="bold" fill="#222">DenoisingNet</text>

    <!-- Blocks Group -->
    <g id="den-blocks">
      <!-- Block 1 (Large) + Temporal -->
      <rect x="30" y="80" width="40" height="180" rx="5" fill="#92A9D6" stroke="#666" stroke-width="3"/>
      <rect x="80" y="80" width="40" height="180" rx="5" fill="#C8E0CD" stroke="#666" stroke-width="3"/>
      <rect x="130" y="80" width="40" height="180" rx="5" fill="#F7CEB6" stroke="#666" stroke-width="3"/>
      
      <!-- Ellipsis -->
      <circle cx="190" cy="160" r="3" fill="#666"/>
      <circle cx="200" cy="160" r="3" fill="#666"/>
      <circle cx="210" cy="160" r="3" fill="#666"/>

      <!-- Block 2 (Small) + Temporal -->
      <rect x="230" y="120" width="40" height="120" rx="5" fill="#92A9D6" stroke="#666" stroke-width="3"/>
      <rect x="280" y="120" width="40" height="120" rx="5" fill="#C8E0CD" stroke="#666" stroke-width="3"/>
      <rect x="330" y="120" width="40" height="120" rx="5" fill="#F7CEB6" stroke="#666" stroke-width="3"/>

      <!-- Ellipsis -->
      <circle cx="400" cy="160" r="3" fill="#666"/>
      <circle cx="410" cy="160" r="3" fill="#666"/>
      <circle cx="420" cy="160" r="3" fill="#666"/>

      <!-- Block 3 (Small) + Temporal -->
      <rect x="480" y="120" width="40" height="120" rx="5" fill="#92A9D6" stroke="#666" stroke-width="3"/>
      <rect x="530" y="120" width="40" height="120" rx="5" fill="#C8E0CD" stroke="#666" stroke-width="3"/>
      <rect x="580" y="120" width="40" height="120" rx="5" fill="#F7CEB6" stroke="#666" stroke-width="3"/>

      <!-- Ellipsis -->
      <circle cx="600" cy="160" r="3" fill="#666"/>
      <circle cx="610" cy="160" r="3" fill="#666"/>
      <circle cx="620" cy="160" r="3" fill="#666"/>

      <!-- Block 4 (Large) + Temporal -->
      <rect x="680" y="80" width="40" height="180" rx="5" fill="#92A9D6" stroke="#666" stroke-width="3"/>
      <rect x="730" y="80" width="40" height="180" rx="5" fill="#C8E0CD" stroke="#666" stroke-width="3"/>
      <rect x="780" y="80" width="40" height="180" rx="5" fill="#F7CEB6" stroke="#666" stroke-width="3"/>
    </g>
  </g>

  <!-- ==================== 6. Vertical Connections (ReferenceNet <-> DenoisingNet) ==================== -->
  
  <!-- Define X coords for columns -->
  <!-- Col 1: 510, 560 -->
  <!-- Col 2: 710, 760 -->
  <!-- Col 3: 960, 1010 -->
  <!-- Col 4: 1130, 1180 -->

  <!-- Blue Down Arrows -->
  <line x1="510" y1="240" x2="510" y2="420" stroke="#4F73B7" stroke-width="3" marker-end="url(#arrow-blue)"/>
  <line x1="710" y1="200" x2="710" y2="450" stroke="#4F73B7" stroke-width="3" marker-end="url(#arrow-blue)"/>
  <line x1="960" y1="200" x2="960" y2="450" stroke="#4F73B7" stroke-width="3" marker-end="url(#arrow-blue)"/>
  <line x1="1130" y1="240" x2="1130" y2="420" stroke="#4F73B7" stroke-width="3" marker-end="url(#arrow-blue)"/>

  <!-- Green Up Arrows -->
  <line x1="560" y1="420" x2="560" y2="240" stroke="#348E43" stroke-width="3" marker-end="url(#arrow-green)"/>
  <line x1="760" y1="450" x2="760" y2="200" stroke="#348E43" stroke-width="3" marker-end="url(#arrow-green)"/>
  <line x1="1010" y1="450" x2="1010" y2="200" stroke="#348E43" stroke-width="3" marker-end="url(#arrow-green)"/>
  <line x1="1180" y1="420" x2="1180" y2="240" stroke="#348E43" stroke-width="3" marker-end="url(#arrow-green)"/>

  <!-- CLIP Horizontal Line (Crossing over verticals) -->
  <path d="M380,340 L1180,340" stroke="#348E43" stroke-width="3" fill="none"/>
  <!-- Bridge for CLIP line over Blue Down 1 -->
  <path d="M510,340 a10,10 0 0,1 20,0" stroke="#348E43" stroke-width="3" fill="none"/>
  <!-- Bridge for CLIP line over Blue Down 2 -->
  <path d="M710,340 a10,10 0 0,1 20,0" stroke="#348E43" stroke-width="3" fill="none"/>
  <!-- Bridge for CLIP line over Blue Down 3 -->
  <path d="M960,340 a10,10 0 0,1 20,0" stroke="#348E43" stroke-width="3" fill="none"/>
  <!-- Bridge for CLIP line over Blue Down 4 -->
  <path d="M1130,340 a10,10 0 0,1 20,0" stroke="#348E43" stroke-width="3" fill="none"/>

  <!-- ==================== 7. Mask & Gradient Logic ==================== -->
  
  <!-- Mask Images -->
  <g transform="translate(500, 620)">
    <text x="100" y="-30" text-anchor="middle" font-size="32" font-weight="bold" fill="#222">Mask</text>
    <!-- Mask 1 -->
    <rect x="0" y="0" width="180" height="150" fill="black"/>
    <path d="M60,50 Q70,30 80,50 L85,100 L80,140 L75,140 L70,100 L65,140 L60,140 L65,100 Z" fill="#FF7F00"/> <!-- Orange Silhouette -->
    <path d="M140,50 Q150,30 160,50 L165,100 L160,140 L155,140 L150,100 L145,140 L140,140 L145,100 Z" fill="#4682B4"/> <!-- Blue Silhouette -->
    
    <!-- Mask 2 (Stack) -->
    <g transform="translate(130, 0)">
      <rect x="10" y="-10" width="180" height="150" fill="black" stroke="white"/>
      <rect x="5" y="-5" width="180" height="150" fill="black" stroke="white"/>
      <rect x="0" y="0" width="180" height="150" fill="black" stroke="white"/>
      <!-- Silhouettes Dynamic -->
      <path d="M60,40 Q50,30 40,40 L50,80 L60,70 L70,80 L70,140 L65,140 L65,100 Z" fill="#4682B4"/>
      <path d="M140,50 Q150,30 160,50 L165,100 L170,90 L180,100 L180,140 L175,140 L165,100 Z" fill="#FF7F00"/>
    </g>
  </g>

  <!-- Gradient Logic Box -->
  <g transform="translate(860, 570)">
    <rect x="0" y="0" width="380" height="250" rx="10" fill="none" stroke="#666" stroke-width="3" stroke-dasharray="10,10"/>
    
    <!-- Top Left Group -->
    <g transform="translate(20, 40)">
      <rect x="0" y="0" width="130" height="150" fill="#DDE6F6" rx="5"/>
      <!-- Circles -->
      <circle cx="30" cy="30" r="25" fill="#4F73B7" stroke="#333" stroke-width="3"/> <!-- Blue Solid -->
      <circle cx="100" cy="30" r="25" fill="#F7CEB6" stroke="#333" stroke-width="3"/> <!-- Orange Solid -->
      <circle cx="30" cy="120" r="25" fill="url(#stripe-blue)" stroke="#333" stroke-width="3"/> <!-- Blue Stripe -->
      <circle cx="100" cy="120" r="25" fill="url(#stripe-orange)" stroke="#333" stroke-width="3"/> <!-- Orange Stripe -->
      
      <!-- Arrows inside -->
      <line x1="30" y1="120" x2="30" y2="30" stroke="#4F73B7" stroke-width="2" marker-end="url(#arrow-blue)"/>
      <line x1="100" y1="120" x2="100" y2="30" stroke="#F5A623" stroke-width="2" marker-end="url(#arrow-orange)"/>
      <line x1="30" y1="120" x2="100" y2="30" stroke="#4F73B7" stroke-width="2" stroke-dasharray="5,5" marker-end="url(#arrow-blue)"/>
    </g>

    <!-- Top Right Group -->
    <g transform="translate(210, 40)">
      <rect x="0" y="0" width="130" height="150" fill="#DDE6F6" rx="5"/>
      <!-- Circles -->
      <circle cx="30" cy="30" r="25" fill="#4F73B7" stroke="#333" stroke-width="3"/>
      <circle cx="100" cy="30" r="25" fill="#F7CEB6" stroke="#333" stroke-width="3"/>
      <circle cx="30" cy="120" r="25" fill="url(#stripe-blue)" stroke="#333" stroke-width="3"/>
      <circle cx="100" cy="120" r="25" fill="url(#stripe-orange)" stroke="#333" stroke-width="3"/>
      
      <!-- Arrows inside -->
      <line x1="30" y1="120" x2="30" y2="30" stroke="#4F73B7" stroke-width="2" marker-end="url(#arrow-blue)"/>
      <line x1="100" y1="120" x2="100" y2="30" stroke="#F5A623" stroke-width="2" marker-end="url(#arrow-orange)"/>
      <line x1="30" y1="120" x2="100" y2="30" stroke="#4F73B7" stroke-width="2" stroke-dasharray="5,5" marker-end="url(#arrow-blue)"/>
    </g>

    <!-- Transition Arrows -->
    <path d="M160,70 L180,70 L180,60 L200,80 L180,100 L180,90 L160,90 Z" fill="white" stroke="black" stroke-width="2"/>
    <text x="210" y="100" font-family="serif" font-style="italic" font-size="32" font-weight="bold">C<tspan dy="-10" font-size="20">(1)</tspan></text>
    
    <path d="M350,70 L370,70 L370,60 L390,80 L370,100 L370,90 L350,90 Z" fill="white" stroke="black" stroke-width="2"/>
    <text x="390" y="100" font-family="serif" font-style="italic" font-size="32" font-weight="bold">C<tspan dy="-10" font-size="20">(N)</tspan></text>

    <text x="200" y="140" font-size="24" font-weight="bold">xT</text>
    <text x="350" y="170" font-size="24" font-weight="bold">xT</text>
  </g>

  <!-- Gradient Arrows (Red & Yellow) -->
  <!-- Left Curve (Red) -->
  <path d="M910,530 Q880,530 920,590" fill="none" stroke="#B0152E" stroke-width="3" marker-end="url(#arrow-red)"/>
  <!-- Right Curve (Yellow) -->
  <path d="M1020,610 Q1000,530 980,540" fill="none" stroke="#F5A623" stroke-width="3" stroke-dasharray="10,5" marker-end="url(#arrow-orange)"/>

  <!-- Left Curve (Red) -->
  <path d="M1120,530 Q1090,530 1100,590" fill="none" stroke="#B0152E" stroke-width="3" marker-end="url(#arrow-red)"/>
  <!-- Right Curve (Yellow) -->
  <path d="M1200,610 Q1180,530 1150,560" fill="none" stroke="#F5A623" stroke-width="3" stroke-dasharray="10,5" marker-end="url(#arrow-orange)"/>

  <!-- ==================== 8. Right Column: Decoders & Output ==================== -->
  
  <!-- VAE Dec -->
  <g transform="translate(1260, 440)">
    <path d="M0,40 L120,0 L120,160 L0,120 Z" fill="white" stroke="#555" stroke-width="3"/>
    <text x="60" y="70" font-size="36" font-weight="bold" fill="#333" text-anchor="middle">VAE</text>
    <text x="60" y="110" font-size="36" font-weight="bold" fill="#333" text-anchor="middle">Dec</text>
  </g>
  <line x1="1210" y1="490" x2="1260" y2="490" stroke="black" stroke-width="2" marker-end="url(#arrow-black-fill)"/>
  <line x1="1380" y1="490" x2="1420" y2="490" stroke="black" stroke-width="2" marker-end="url(#arrow-black-fill)"/>

  <!-- Gen Frames -->
  <g transform="translate(1420, 420)">
    <rect x="10" y="-10" width="250" height="180" fill="#E6C2E6" stroke="white" stroke-width="2"/>
    <rect x="5" y="-5" width="250" height="180" fill="#E6C2E6" stroke="white" stroke-width="2"/>
    <rect x="0" y="0" width="250" height="180" fill="#E6C2E6" stroke="white" stroke-width="2"/>
    <!-- Content (Dancers dynamic) -->
    <g transform="translate(60, 90) scale(1.2)">
       <!-- Left Girl -->
      <g transform="rotate(-10)">
        <circle cx="0" cy="-25" r="10" fill="#D2B48C"/>
        <path d="M-8,-15 L8,-15 L5,10 L-5,10 Z" fill="white"/>
        <path d="M-5,10 L-15,40 L-10,60" stroke="#FF7F7F" stroke-width="4" fill="none"/>
        <path d="M5,10 L20,40 L25,60" stroke="#333" stroke-width="4" fill="none"/>
        <path d="M-10,-15 L-25,-30 L-20,-20" stroke="#D2B48C" stroke-width="4" fill="none"/>
      </g>
    </g>
    <g transform="translate(140, 90) scale(1.2)">
       <!-- Right Girl -->
      <g transform="rotate(10)">
        <circle cx="0" cy="-25" r="10" fill="#D2B48C"/>
        <path d="M-8,-15 L8,-15 L5,10 L-5,10 Z" fill="white"/>
        <path d="M-5,10 L-20,40 L-25,60" stroke="#FF7F7F" stroke-width="4" fill="none"/>
        <path d="M5,10 L25,40 L30,60" stroke="#FF7F7F" stroke-width="4" fill="none"/>
        <path d="M-10,-15 L-25,-30 L-20,-20" stroke="#D2B48C" stroke-width="4" fill="none"/>
      </g>
    </g>
    <text x="125" y="210" text-anchor="middle" font-size="32" font-weight="bold" fill="#222">Gen Frames</text>
  </g>

  <!-- ==================== 9. Legend ==================== -->
  
  <g transform="translate(1230, 80)">
    <!-- Item 1 -->
    <rect x="0" y="0" width="50" height="50" rx="8" fill="#92A9D6" stroke="#666" stroke-width="3"/>
    <text x="120" y="35" font-size="32" font-weight="bold" fill="#222">Spatial-Attn</text>
    
    <!-- Item 2 -->
    <rect x="0" y="60" width="50" height="50" rx="8" fill="#C8E0CD" stroke="#666" stroke-width="3"/>
    <text x="120" y="95" font-size="32" font-weight="bold" fill="#222">Cross-Attn</text>
    
    <!-- Item 3 -->
    <rect x="0" y="120" width="50" height="50" rx="8" fill="#F7CEB6" stroke="#666" stroke-width="3"/>
    <text x="120" y="155" font-size="32" font-weight="bold" fill="#222">Temporal-Attn</text>
    
    <!-- Item 4 -->
    <path d="M0,180 Q40,190 80,170" fill="none" stroke="#B0152E" stroke-width="3" marker-end="url(#arrow-red)"/>
    <text x="120" y="175" font-size="32" font-weight="bold" fill="#222">Intermediate Features</text>
    
    <!-- Item 5 -->
    <path d="M0,230 Q40,210 80,220" fill="none" stroke="#F5A623" stroke-width="3" stroke-dasharray="10,5" marker-end="url(#arrow-orange)"/>
    <text x="120" y="215" font-size="32" font-weight="bold" fill="#222">Gradient from <tspan font-family="serif" font-style="italic">C</tspan><tspan dy="-10" font-size="20" font-family="serif" font-style="italic">(ℓ)</tspan></text>
    
    <!-- Item 6 -->
    <path d="M0,260 L100,260 L100,280 L120,290 L100,300 L100,280 L0,280 Z" fill="none" stroke="#666" stroke-width="3" stroke-dasharray="10,5"/>
    <text x="120" y="255" font-size="32" font-weight="bold" fill="#222">IMG Construction</text>
    <text x="120" y="295" font-size="32" font-weight="bold" fill="#222">(Training only)</text>
    
    <!-- Item 7 -->
    <rect x="0" y="320" width="70" height="40" rx="8" fill="#92A9D6" stroke="#666" stroke-width="3" stroke-dasharray="10,5"/>
    <text x="120" y="350" font-size="32" font-weight="bold" fill="#222">Selected for MSM</text>
  </g>

</svg>