<svg xmlns="http://www.w3.org/2000/svg" width="1771" height="736" viewBox="0 0 1771 736">
  <defs>
    <marker id="arrow" markerWidth="10" markerHeight="8" refX="9" refY="4" orient="auto" markerUnits="strokeWidth">
      <path d="M0,0 L10,4 L0,8 Z" fill="#000"/>
    </marker>
    <marker id="arrowBlue" markerWidth="10" markerHeight="8" refX="9" refY="4" orient="auto" markerUnits="strokeWidth">
      <path d="M0,0 L10,4 L0,8 Z" fill="#99add3"/>
    </marker>
    <marker id="arrowYellow" markerWidth="10" markerHeight="8" refX="9" refY="4" orient="auto" markerUnits="strokeWidth">
      <path d="M0,0 L10,4 L0,8 Z" fill="#f7c938"/>
    </marker>
    <marker id="arrowGreen" markerWidth="10" markerHeight="8" refX="9" refY="4" orient="auto" markerUnits="strokeWidth">
      <path d="M0,0 L10,4 L0,8 Z" fill="#9cc77f"/>
    </marker>
    <style>
      .main { font-family: Arial, Helvetica, sans-serif; fill:#000; }
      .math { font-family: 'Times New Roman', Times, serif; font-style: italic; fill:#000; }
      .box { fill:#fff; stroke:#777; stroke-width:2; }
      .dash { fill:none; stroke:#a9a9a9; stroke-width:2; stroke-dasharray:18 8; }
      .dash-blue { fill:none; stroke:#abc0df; stroke-width:2; stroke-dasharray:18 8; }
      .dash-yellow { fill:none; stroke:#f2d66c; stroke-width:2; stroke-dasharray:18 8; }
      .dash-green { fill:none; stroke:#b7d79f; stroke-width:2; stroke-dasharray:18 8; }
      .label-small { font-size:24px; }
      .label-med { font-size:30px; }
      .label-large { font-size:32px; }
    </style>
  </defs>
<rect width="1771" height="736" fill="#ffffff"/>
<g class="main">
<rect x="17" y="102" width="182" height="205" fill="#fff" stroke="#aaa" stroke-width="2" stroke-dasharray="16 8"/>
<rect x="29" y="117" width="29" height="29" fill="#9ab4df" stroke="#7797c8" stroke-width="2"/>
<text x="70" y="142" font-size="28">hard label</text>
<rect x="29" y="167" width="29" height="29" fill="#a9a9a9" stroke="#7f7f7f" stroke-width="2"/>
<text x="70" y="192" font-size="28">mask label</text>
<rect x="29" y="217" width="29" height="29" fill="#ffd65a" stroke="#f2bd2f" stroke-width="2"/>
<text x="70" y="242" font-size="28">target</text>
<rect x="29" y="267" width="29" height="29" fill="#b9dca5" stroke="#97c579" stroke-width="2"/>
<text x="70" y="292" font-size="28">non-target</text>
<rect x="230" y="68" width="246" height="80" rx="10" ry="10" class="box"/>
<text x="275" y="119" font-size="30">Ground Truth</text>
<rect x="230" y="229" width="246" height="173" rx="16" ry="16" class="box"/>
<text x="357" y="383" font-size="29">Teacher</text>
<rect x="230" y="486" width="246" height="140" rx="16" ry="16" class="box"/>
<text x="357" y="613" font-size="29">Student</text>
<text x="79" y="565" font-size="29">cat</text>
<line x1="176" y1="365" x2="229" y2="331" stroke="#000" stroke-width="2" marker-end="url(#arrow)" />
<line x1="176" y1="493" x2="229" y2="553" stroke="#000" stroke-width="2" marker-end="url(#arrow)" />
<line x1="476" y1="108" x2="508" y2="108" stroke="#000" stroke-width="2" marker-end="url(#arrow)" />
<line x1="476" y1="330" x2="508" y2="330" stroke="#000" stroke-width="2" marker-end="url(#arrow)" />
<line x1="476" y1="557" x2="508" y2="557" stroke="#000" stroke-width="2" marker-end="url(#arrow)" />
<rect x="508" y="20" width="93" height="637" class="dash"/>
<text x="570" y="52" font-size="26">1</text>
<text x="561" y="262" class="math" font-size="27">p<tspan baseline-shift="super" font-size="18">T</tspan><tspan baseline-shift="sub" font-size="18">t</tspan></text>
<text x="561" y="489" class="math" font-size="27">p<tspan baseline-shift="super" font-size="18">S</tspan><tspan baseline-shift="sub" font-size="18">t</tspan></text>
<rect x="634" y="32" width="99" height="151" class="dash"/>
<rect x="634" y="223" width="99" height="183" class="dash"/>
<text x="629" y="451" font-size="30">Decoupling</text>
<rect x="634" y="478" width="99" height="162" class="dash"/>
<text x="654" y="136" font-size="27">1</text>
<text x="692" y="132" class="math" font-size="28">p<tspan baseline-shift="super" font-size="18">S</tspan><tspan baseline-shift="sub" font-size="18">t</tspan></text>
<text x="646" y="358" class="math" font-size="27">p<tspan baseline-shift="super" font-size="18">T</tspan><tspan baseline-shift="sub" font-size="18">t</tspan></text>
<text x="693" y="355" class="math" font-size="27">p<tspan baseline-shift="super" font-size="18">S</tspan><tspan baseline-shift="sub" font-size="18">t</tspan></text>
<rect x="557" y="673" width="257" height="41" rx="5" ry="5" fill="#c4a6d8" opacity="0.9"/>
<text x="575" y="704" font-size="28">Dynamic Top-k Mask</text>
<path d="M686 645 L686 667" stroke="#c4a6d8" stroke-width="3" marker-start="url(#arrowBlue)" marker-end="url(#arrowBlue)" opacity="0.8"/>
<line x1="601" y1="108" x2="634" y2="108" stroke="#000" stroke-width="2" marker-end="url(#arrow)" />
<line x1="733" y1="108" x2="762" y2="108" stroke="#000" stroke-width="2" marker-end="url(#arrow)" />
<line x1="601" y1="330" x2="634" y2="330" stroke="#000" stroke-width="2" marker-end="url(#arrow)" />
<line x1="733" y1="330" x2="762" y2="330" stroke="#000" stroke-width="2" marker-end="url(#arrow)" />
<line x1="601" y1="557" x2="634" y2="557" stroke="#000" stroke-width="2" marker-end="url(#arrow)" />
<line x1="733" y1="557" x2="762" y2="557" stroke="#000" stroke-width="2" marker-end="url(#arrow)" />
<path d="M353 626 L353 704 L1766 704 L1766 330 L1616 330" fill="none" stroke="#000" stroke-width="2"/>
<line x1="353" y1="704" x2="353" y2="626" stroke="#000" stroke-width="2" marker-end="url(#arrow)"/>
<rect x="762" y="33" width="218" height="151" class="dash-blue"/>
<text x="887" y="70" font-size="30">TASK</text>
<rect x="773" y="88" width="196" height="81" rx="12" ry="12" fill="#fff" stroke="#a5bbe0" stroke-width="2"/>
<text x="849" y="121" font-size="27">Task</text>
<text x="827" y="156" font-size="27">CE Loss</text>
<line x1="980" y1="108" x2="1012" y2="108" stroke="#000" stroke-width="2" marker-end="url(#arrow)" />
<rect x="1013" y="33" width="217" height="151" class="dash-blue"/>
<text x="1150" y="70" font-size="30">TOG</text>
<rect x="1023" y="84" width="197" height="81" rx="12" ry="12" fill="#9cb7df"/>
<text x="1049" y="116" font-size="27">Task-oriented</text>
<text x="1078" y="150" font-size="27">Gradient</text>
<rect x="762" y="255" width="218" height="151" class="dash-yellow"/>
<text x="886" y="291" font-size="30">TCKD</text>
<rect x="773" y="309" width="196" height="81" rx="12" ry="12" fill="#fff" stroke="#ffd65a" stroke-width="2"/>
<text x="809" y="342" font-size="27">Target class</text>
<text x="830" y="376" font-size="27">KL Loss</text>
<line x1="980" y1="330" x2="1012" y2="330" stroke="#000" stroke-width="2" marker-end="url(#arrow)" />
<rect x="1013" y="255" width="217" height="151" class="dash-yellow"/>
<text x="1150" y="291" font-size="30">TCG</text>
<rect x="1023" y="309" width="197" height="80" rx="12" ry="12" fill="#ffd95f"/>
<text x="1058" y="342" font-size="27">Target class</text>
<text x="1077" y="376" font-size="27">Gradient</text>
<rect x="762" y="485" width="218" height="151" class="dash-green"/>
<text x="887" y="520" font-size="30">NCKD</text>
<rect x="773" y="540" width="196" height="81" rx="12" ry="12" fill="#fff" stroke="#afcf9a" stroke-width="2"/>
<text x="816" y="574" font-size="27">Non-target</text>
<text x="795" y="608" font-size="27">Class KL Loss</text>
<line x1="980" y1="557" x2="1012" y2="557" stroke="#000" stroke-width="2" marker-end="url(#arrow)" />
<rect x="1013" y="485" width="217" height="151" class="dash-green"/>
<text x="1150" y="520" font-size="30">NCG</text>
<rect x="1023" y="535" width="197" height="83" rx="12" ry="12" fill="#b8d8a7"/>
<text x="1059" y="571" font-size="27">Non-target</text>
<text x="1044" y="607" font-size="27">class Gradient</text>
<text x="1246" y="39" class="math" font-size="29">v ← g + (μ + Δ)v</text>
<path d="M1268 88 L1268 66" stroke="#99add3" stroke-width="3" marker-end="url(#arrowBlue)"/>
<path d="M1274 66 L1274 88" stroke="#99add3" stroke-width="3" marker-end="url(#arrowBlue)"/>
<line x1="1230" y1="108" x2="1324" y2="108" stroke="#000" stroke-width="2" marker-end="url(#arrow)" />
<rect x="1324" y="68" width="226" height="80" rx="10" ry="10" fill="#99add3"/>
<text x="1414" y="100" font-size="27" text-anchor="middle">Task</text>
<text x="1437" y="135" font-size="27" text-anchor="middle">Momentum buffer</text>
<text x="1246" y="260" class="math" font-size="29">v ← g + (μ − Δ)v</text>
<path d="M1268 309 L1268 287" stroke="#f7cf58" stroke-width="3" marker-end="url(#arrowBlue)"/>
<path d="M1274 287 L1274 309" stroke="#f7cf58" stroke-width="3" marker-end="url(#arrowBlue)"/>
<line x1="1230" y1="330" x2="1324" y2="330" stroke="#000" stroke-width="2" marker-end="url(#arrow)" />
<rect x="1324" y="290" width="226" height="80" rx="10" ry="10" fill="#f7cf58"/>
<text x="1414" y="322" font-size="27" text-anchor="middle">Target</text>
<text x="1437" y="357" font-size="27" text-anchor="middle">Momentum buffer</text>
<text x="1246" y="489" class="math" font-size="29">v ← g + (μ + Δ)v</text>
<path d="M1268 538 L1268 516" stroke="#a9cf8e" stroke-width="3" marker-end="url(#arrowBlue)"/>
<path d="M1274 516 L1274 538" stroke="#a9cf8e" stroke-width="3" marker-end="url(#arrowBlue)"/>
<line x1="1230" y1="557" x2="1324" y2="557" stroke="#000" stroke-width="2" marker-end="url(#arrow)" />
<rect x="1324" y="517" width="226" height="80" rx="10" ry="10" fill="#a9cf8e"/>
<text x="1414" y="549" font-size="27" text-anchor="middle">Non-target</text>
<text x="1437" y="584" font-size="27" text-anchor="middle">Momentum buffer</text>
<line x1="1550" y1="108" x2="1598" y2="108" stroke="#000" stroke-width="2"/>
<line x1="1598" y1="108" x2="1598" y2="310" stroke="#000" stroke-width="2" marker-end="url(#arrow)"/>
<line x1="1550" y1="330" x2="1581" y2="330" stroke="#000" stroke-width="2"/>
<line x1="1550" y1="557" x2="1598" y2="557" stroke="#000" stroke-width="2"/>
<line x1="1598" y1="557" x2="1598" y2="348" stroke="#000" stroke-width="2" marker-end="url(#arrow)"/>
<circle cx="1598" cy="329" r="18" fill="none" stroke="#000" stroke-width="2"/>
<line x1="1582" y1="329" x2="1614" y2="329" stroke="#000" stroke-width="2"/>
<line x1="1598" y1="313" x2="1598" y2="345" stroke="#000" stroke-width="2"/>
<text x="1625" y="317" class="math" font-size="29">θ ← θ − γv</text>
<text x="1651" y="359" font-size="29">Update</text>
<line x1="1616" y1="330" x2="1766" y2="330" stroke="#000" stroke-width="2"/>
<image id="raster_input_cat_photo" data-source-slot="slot_input_cat_photo" href="assets/raster_required/input_cat_photo.png" x="18" y="363" width="158" height="130" preserveAspectRatio="none"/>
  <g id="svg_teacher_feature_stack" data-source-slot="slot_teacher_feature_stack" transform="translate(260,270)">
    <g opacity="0.98">
      <polygon points="0,38 31,6 31,111 0,111" fill="#4d9ad2"/>
      <polygon points="31,6 43,6 12,38 0,38" fill="#70b2dd"/>
      <polygon points="31,6 43,6 43,96 31,111" fill="#2e82bd"/>
      <polygon points="24,31 55,0 55,105 24,105" fill="#4d9ad2"/>
      <polygon points="55,0 67,0 36,31 24,31" fill="#70b2dd"/>
      <polygon points="55,0 67,0 67,90 55,105" fill="#2e82bd"/>
      <polygon points="48,30 80,1 80,104 48,104" fill="#4d9ad2"/>
      <polygon points="80,1 92,1 60,30 48,30" fill="#70b2dd"/>
      <polygon points="80,1 92,1 92,88 80,104" fill="#2e82bd"/>
      <polygon points="90,28 117,0 117,77 90,77" fill="#4d9ad2"/>
      <polygon points="117,0 129,0 103,28 90,28" fill="#70b2dd"/>
      <polygon points="117,0 129,0 129,63 117,77" fill="#2e82bd"/>
      <polygon points="116,25 143,2 143,75 116,75" fill="#4d9ad2"/>
      <polygon points="143,2 155,2 129,25 116,25" fill="#70b2dd"/>
      <polygon points="143,2 155,2 155,62 143,75" fill="#2e82bd"/>
      <polygon points="143,25 166,10 166,61 143,61" fill="#4d9ad2"/>
      <polygon points="166,10 177,10 154,25 143,25" fill="#70b2dd"/>
      <polygon points="166,10 177,10 177,50 166,61" fill="#2e82bd"/>
      <polygon points="171,39 198,25 198,47 171,61" fill="#4d9ad2"/>
      <polygon points="198,25 210,25 183,39 171,39" fill="#70b2dd"/>
      <polygon points="198,25 210,25 210,36 198,47" fill="#2e82bd"/>
    </g>
  </g>
  <g id="svg_student_feature_stack" data-source-slot="slot_student_feature_stack" transform="translate(260,499)">
    <g opacity="0.98">
      <polygon points="0,37 33,4 33,110 0,110" fill="#f58220"/>
      <polygon points="33,4 47,4 14,37 0,37" fill="#f6a15b"/>
      <polygon points="33,4 47,4 47,95 33,110" fill="#cb6416"/>
      <polygon points="28,29 61,0 61,104 28,104" fill="#f58220"/>
      <polygon points="61,0 75,0 42,29 28,29" fill="#f6a15b"/>
      <polygon points="61,0 75,0 75,88 61,104" fill="#cb6416"/>
      <polygon points="61,27 92,1 92,84 61,84" fill="#f58220"/>
      <polygon points="92,1 106,1 75,27 61,27" fill="#f6a15b"/>
      <polygon points="92,1 106,1 106,72 92,84" fill="#cb6416"/>
      <polygon points="87,37 116,16 116,76 87,76" fill="#f58220"/>
      <polygon points="116,16 129,16 101,37 87,37" fill="#f6a15b"/>
      <polygon points="116,16 129,16 129,65 116,76" fill="#cb6416"/>
      <polygon points="112,49 135,29 135,62 112,62" fill="#f58220"/>
      <polygon points="135,29 147,29 124,49 112,49" fill="#f6a15b"/>
      <polygon points="135,29 147,29 147,51 135,62" fill="#cb6416"/>
    </g>
  </g>
  <g id="svg_hard_label_vector" data-source-slot="slot_hard_label_vector" transform="translate(523,31)">
    <rect x="1" y="1" width="28" height="29" fill="#9ab4df" stroke="#7d9acc" stroke-width="2"/>
    <rect x="1" y="35" width="28" height="27" fill="#9f9f9f" stroke="#747474" stroke-width="2"/>
    <rect x="1" y="63" width="28" height="28" fill="#9f9f9f" stroke="#747474" stroke-width="2"/>
    <rect x="1" y="91" width="28" height="28" fill="#9f9f9f" stroke="#747474" stroke-width="2"/>
    <rect x="1" y="119" width="28" height="28" fill="#9f9f9f" stroke="#747474" stroke-width="2"/>
    <rect x="1" y="147" width="28" height="24" fill="#9f9f9f" stroke="#747474" stroke-width="2"/>
  </g>
  <g id="svg_teacher_target_nontarget_vector" data-source-slot="slot_teacher_target_nontarget_vector" transform="translate(523,215)">
    <rect x="1" y="1" width="29" height="29" fill="#ffd65a" stroke="#f2bf2e" stroke-width="2"/>
    <rect x="1" y="32" width="29" height="28" fill="#b8dca4" stroke="#95c77b" stroke-width="2"/>
    <rect x="1" y="60" width="29" height="28" fill="#b8dca4" stroke="#95c77b" stroke-width="2"/>
    <rect x="1" y="88" width="29" height="29" fill="#b8dca4" stroke="#95c77b" stroke-width="2"/>
    <rect x="1" y="117" width="29" height="28" fill="#b8dca4" stroke="#95c77b" stroke-width="2"/>
    <rect x="1" y="145" width="29" height="29" fill="#b8dca4" stroke="#95c77b" stroke-width="2"/>
    <rect x="1" y="174" width="29" height="30" fill="#b8dca4" stroke="#95c77b" stroke-width="2"/>
  </g>
  <g id="svg_student_target_nontarget_vector" data-source-slot="slot_student_target_nontarget_vector" transform="translate(523,469)">
    <rect x="1" y="1" width="29" height="29" fill="#ffd65a" stroke="#f2bf2e" stroke-width="2"/>
    <rect x="1" y="32" width="29" height="28" fill="#b8dca4" stroke="#95c77b" stroke-width="2"/>
    <rect x="1" y="60" width="29" height="29" fill="#b8dca4" stroke="#95c77b" stroke-width="2"/>
    <rect x="1" y="89" width="29" height="28" fill="#b8dca4" stroke="#95c77b" stroke-width="2"/>
    <rect x="1" y="117" width="29" height="28" fill="#b8dca4" stroke="#95c77b" stroke-width="2"/>
    <rect x="1" y="145" width="29" height="28" fill="#b8dca4" stroke="#95c77b" stroke-width="2"/>
  </g>
  <g id="svg_task_label_pair" data-source-slot="slot_task_label_pair" transform="translate(644,69)">
    <rect x="0" y="0" width="30" height="32" fill="#9ab4df" stroke="#7d9acc" stroke-width="2"/>
    <rect x="48" y="0" width="30" height="32" fill="#ffd65a" stroke="#f2bf2e" stroke-width="2"/>
  </g>
  <g id="svg_tckd_target_pair" data-source-slot="slot_tckd_target_pair" transform="translate(643,291)">
    <rect x="1" y="0" width="30" height="31" fill="#ffd65a" stroke="#f2bf2e" stroke-width="2"/>
    <rect x="51" y="0" width="30" height="31" fill="#ffd65a" stroke="#f2bf2e" stroke-width="2"/>
  </g>
  <g id="svg_nckd_mask_pair" data-source-slot="slot_nckd_mask_pair" transform="translate(643,489)">
    <rect x="1" y="0" width="29" height="27" fill="#b8dca4" stroke="#95c77b" stroke-width="2"/>
    <rect x="51" y="0" width="29" height="27" fill="#b8dca4" stroke="#95c77b" stroke-width="2"/>
    <rect x="1" y="27" width="29" height="27" fill="#b8dca4" stroke="#95c77b" stroke-width="2"/>
    <rect x="51" y="27" width="29" height="27" fill="#b8dca4" stroke="#95c77b" stroke-width="2"/>
    <rect x="1" y="54" width="29" height="28" fill="#9f9f9f" stroke="#747474" stroke-width="2"/>
    <rect x="51" y="54" width="29" height="28" fill="#9f9f9f" stroke="#747474" stroke-width="2"/>
    <rect x="1" y="82" width="29" height="28" fill="#9f9f9f" stroke="#747474" stroke-width="2"/>
    <rect x="51" y="82" width="29" height="28" fill="#9f9f9f" stroke="#747474" stroke-width="2"/>
    <rect x="1" y="110" width="29" height="29" fill="#9f9f9f" stroke="#747474" stroke-width="2"/>
    <rect x="51" y="110" width="29" height="29" fill="#9f9f9f" stroke="#747474" stroke-width="2"/>
  </g>
</g>
</svg>