<svg xmlns="http://www.w3.org/2000/svg" width="1771" height="736" viewBox="0 0 1771 736">
  <defs>
    <marker id="arrow" markerWidth="10" markerHeight="8" refX="9" refY="4" orient="auto" markerUnits="strokeWidth">
      <path d="M0,0 L10,4 L0,8 Z" fill="#000"/>
    </marker>
    <marker id="arrowBlue" markerWidth="10" markerHeight="8" refX="9" refY="4" orient="auto" markerUnits="strokeWidth">
      <path d="M0,0 L10,4 L0,8 Z" fill="#99add3"/>
    </marker>
    <marker id="arrowYellow" markerWidth="10" markerHeight="8" refX="9" refY="4" orient="auto" markerUnits="strokeWidth">
      <path d="M0,0 L10,4 L0,8 Z" fill="#f7c938"/>
    </marker>
    <marker id="arrowGreen" markerWidth="10" markerHeight="8" refX="9" refY="4" orient="auto" markerUnits="strokeWidth">
      <path d="M0,0 L10,4 L0,8 Z" fill="#9cc77f"/>
    </marker>
    <style>
      .main { font-family: Arial, Helvetica, sans-serif; fill:#000; }
      .math { font-family: 'Times New Roman', Times, serif; font-style: italic; fill:#000; }
      .box { fill:#fff; stroke:#777; stroke-width:2; }
      .dash { fill:none; stroke:#a9a9a9; stroke-width:2; stroke-dasharray:18 8; }
      .dash-blue { fill:none; stroke:#abc0df; stroke-width:2; stroke-dasharray:18 8; }
      .dash-yellow { fill:none; stroke:#f2d66c; stroke-width:2; stroke-dasharray:18 8; }
      .dash-green { fill:none; stroke:#b7d79f; stroke-width:2; stroke-dasharray:18 8; }
      .label-small { font-size:24px; }
      .label-med { font-size:30px; }
      .label-large { font-size:32px; }
    </style>
  </defs>
<rect width="1771" height="736" fill="#ffffff"/>
<g class="main">
<rect x="17" y="102" width="182" height="205" fill="#fff" stroke="#aaa" stroke-width="2" stroke-dasharray="16 8"/>
<rect x="29" y="117" width="29" height="29" fill="#9ab4df" stroke="#7797c8" stroke-width="2"/>
<text x="70" y="142" font-size="28">hard label</text>
<rect x="29" y="167" width="29" height="29" fill="#a9a9a9" stroke="#7f7f7f" stroke-width="2"/>
<text x="70" y="192" font-size="28">mask label</text>
<rect x="29" y="217" width="29" height="29" fill="#ffd65a" stroke="#f2bd2f" stroke-width="2"/>
<text x="70" y="242" font-size="28">target</text>
<rect x="29" y="267" width="29" height="29" fill="#b9dca5" stroke="#97c579" stroke-width="2"/>
<text x="70" y="292" font-size="28">non-target</text>
<rect x="230" y="68" width="246" height="80" rx="10" ry="10" class="box"/>
<text x="275" y="119" font-size="30">Ground Truth</text>
<rect x="230" y="229" width="246" height="173" rx="16" ry="16" class="box"/>
<text x="357" y="383" font-size="29">Teacher</text>
<rect x="230" y="486" width="246" height="140" rx="16" ry="16" class="box"/>
<text x="357" y="613" font-size="29">Student</text>
<text x="79" y="565" font-size="29">cat</text>
<line x1="176" y1="365" x2="229" y2="331" stroke="#000" stroke-width="2" marker-end="url(#arrow)" />
<line x1="176" y1="493" x2="229" y2="553" stroke="#000" stroke-width="2" marker-end="url(#arrow)" />
<line x1="476" y1="108" x2="508" y2="108" stroke="#000" stroke-width="2" marker-end="url(#arrow)" />
<line x1="476" y1="330" x2="508" y2="330" stroke="#000" stroke-width="2" marker-end="url(#arrow)" />
<line x1="476" y1="557" x2="508" y2="557" stroke="#000" stroke-width="2" marker-end="url(#arrow)" />
<rect x="508" y="20" width="93" height="637" class="dash"/>
<text x="570" y="52" font-size="26">1</text>
<text x="561" y="262" class="math" font-size="27">p<tspan baseline-shift="super" font-size="18">T</tspan><tspan baseline-shift="sub" font-size="18">t</tspan></text>
<text x="561" y="489" class="math" font-size="27">p<tspan baseline-shift="super" font-size="18">S</tspan><tspan baseline-shift="sub" font-size="18">t</tspan></text>
<rect x="634" y="32" width="99" height="151" class="dash"/>
<rect x="634" y="223" width="99" height="183" class="dash"/>
<text x="629" y="451" font-size="30">Decoupling</text>
<rect x="634" y="478" width="99" height="162" class="dash"/>
<text x="654" y="136" font-size="27">1</text>
<text x="692" y="132" class="math" font-size="28">p<tspan baseline-shift="super" font-size="18">S</tspan><tspan baseline-shift="sub" font-size="18">t</tspan></text>
<text x="646" y="358" class="math" font-size="27">p<tspan baseline-shift="super" font-size="18">T</tspan><tspan baseline-shift="sub" font-size="18">t</tspan></text>
<text x="693" y="355" class="math" font-size="27">p<tspan baseline-shift="super" font-size="18">S</tspan><tspan baseline-shift="sub" font-size="18">t</tspan></text>
<rect x="557" y="673" width="257" height="41" rx="5" ry="5" fill="#c4a6d8" opacity="0.9"/>
<text x="575" y="704" font-size="28">Dynamic Top-k Mask</text>
<path d="M686 645 L686 667" stroke="#c4a6d8" stroke-width="3" marker-start="url(#arrowBlue)" marker-end="url(#arrowBlue)" opacity="0.8"/>
<line x1="601" y1="108" x2="634" y2="108" stroke="#000" stroke-width="2" marker-end="url(#arrow)" />
<line x1="733" y1="108" x2="762" y2="108" stroke="#000" stroke-width="2" marker-end="url(#arrow)" />
<line x1="601" y1="330" x2="634" y2="330" stroke="#000" stroke-width="2" marker-end="url(#arrow)" />
<line x1="733" y1="330" x2="762" y2="330" stroke="#000" stroke-width="2" marker-end="url(#arrow)" />
<line x1="601" y1="557" x2="634" y2="557" stroke="#000" stroke-width="2" marker-end="url(#arrow)" />
<line x1="733" y1="557" x2="762" y2="557" stroke="#000" stroke-width="2" marker-end="url(#arrow)" />
<path d="M353 626 L353 704 L1766 704 L1766 330 L1616 330" fill="none" stroke="#000" stroke-width="2"/>
<line x1="353" y1="704" x2="353" y2="626" stroke="#000" stroke-width="2" marker-end="url(#arrow)"/>
<rect x="762" y="33" width="218" height="151" class="dash-blue"/>
<text x="887" y="70" font-size="30">TASK</text>
<rect x="773" y="88" width="196" height="81" rx="12" ry="12" fill="#fff" stroke="#a5bbe0" stroke-width="2"/>
<text x="849" y="121" font-size="27">Task</text>
<text x="827" y="156" font-size="27">CE Loss</text>
<line x1="980" y1="108" x2="1012" y2="108" stroke="#000" stroke-width="2" marker-end="url(#arrow)" />
<rect x="1013" y="33" width="217" height="151" class="dash-blue"/>
<text x="1150" y="70" font-size="30">TOG</text>
<rect x="1023" y="84" width="197" height="81" rx="12" ry="12" fill="#9cb7df"/>
<text x="1049" y="116" font-size="27">Task-oriented</text>
<text x="1078" y="150" font-size="27">Gradient</text>
<rect x="762" y="255" width="218" height="151" class="dash-yellow"/>
<text x="886" y="291" font-size="30">TCKD</text>
<rect x="773" y="309" width="196" height="81" rx="12" ry="12" fill="#fff" stroke="#ffd65a" stroke-width="2"/>
<text x="809" y="342" font-size="27">Target class</text>
<text x="830" y="376" font-size="27">KL Loss</text>
<line x1="980" y1="330" x2="1012" y2="330" stroke="#000" stroke-width="2" marker-end="url(#arrow)" />
<rect x="1013" y="255" width="217" height="151" class="dash-yellow"/>
<text x="1150" y="291" font-size="30">TCG</text>
<rect x="1023" y="309" width="197" height="80" rx="12" ry="12" fill="#ffd95f"/>
<text x="1058" y="342" font-size="27">Target class</text>
<text x="1077" y="376" font-size="27">Gradient</text>
<rect x="762" y="485" width="218" height="151" class="dash-green"/>
<text x="887" y="520" font-size="30">NCKD</text>
<rect x="773" y="540" width="196" height="81" rx="12" ry="12" fill="#fff" stroke="#afcf9a" stroke-width="2"/>
<text x="816" y="574" font-size="27">Non-target</text>
<text x="795" y="608" font-size="27">Class KL Loss</text>
<line x1="980" y1="557" x2="1012" y2="557" stroke="#000" stroke-width="2" marker-end="url(#arrow)" />
<rect x="1013" y="485" width="217" height="151" class="dash-green"/>
<text x="1150" y="520" font-size="30">NCG</text>
<rect x="1023" y="535" width="197" height="83" rx="12" ry="12" fill="#b8d8a7"/>
<text x="1059" y="571" font-size="27">Non-target</text>
<text x="1044" y="607" font-size="27">class Gradient</text>
<text x="1246" y="39" class="math" font-size="29">v ← g + (μ + Δ)v</text>
<path d="M1268 88 L1268 66" stroke="#99add3" stroke-width="3" marker-end="url(#arrowBlue)"/>
<path d="M1274 66 L1274 88" stroke="#99add3" stroke-width="3" marker-end="url(#arrowBlue)"/>
<line x1="1230" y1="108" x2="1324" y2="108" stroke="#000" stroke-width="2" marker-end="url(#arrow)" />
<rect x="1324" y="68" width="226" height="80" rx="10" ry="10" fill="#99add3"/>
<text x="1414" y="100" font-size="27" text-anchor="middle">Task</text>
<text x="1437" y="135" font-size="27" text-anchor="middle">Momentum buffer</text>
<text x="1246" y="260" class="math" font-size="29">v ← g + (μ − Δ)v</text>
<path d="M1268 309 L1268 287" stroke="#f7cf58" stroke-width="3" marker-end="url(#arrowBlue)"/>
<path d="M1274 287 L1274 309" stroke="#f7cf58" stroke-width="3" marker-end="url(#arrowBlue)"/>
<line x1="1230" y1="330" x2="1324" y2="330" stroke="#000" stroke-width="2" marker-end="url(#arrow)" />
<rect x="1324" y="290" width="226" height="80" rx="10" ry="10" fill="#f7cf58"/>
<text x="1414" y="322" font-size="27" text-anchor="middle">Target</text>
<text x="1437" y="357" font-size="27" text-anchor="middle">Momentum buffer</text>
<text x="1246" y="489" class="math" font-size="29">v ← g + (μ + Δ)v</text>
<path d="M1268 538 L1268 516" stroke="#a9cf8e" stroke-width="3" marker-end="url(#arrowBlue)"/>
<path d="M1274 516 L1274 538" stroke="#a9cf8e" stroke-width="3" marker-end="url(#arrowBlue)"/>
<line x1="1230" y1="557" x2="1324" y2="557" stroke="#000" stroke-width="2" marker-end="url(#arrow)" />
<rect x="1324" y="517" width="226" height="80" rx="10" ry="10" fill="#a9cf8e"/>
<text x="1414" y="549" font-size="27" text-anchor="middle">Non-target</text>
<text x="1437" y="584" font-size="27" text-anchor="middle">Momentum buffer</text>
<line x1="1550" y1="108" x2="1598" y2="108" stroke="#000" stroke-width="2"/>
<line x1="1598" y1="108" x2="1598" y2="310" stroke="#000" stroke-width="2" marker-end="url(#arrow)"/>
<line x1="1550" y1="330" x2="1581" y2="330" stroke="#000" stroke-width="2"/>
<line x1="1550" y1="557" x2="1598" y2="557" stroke="#000" stroke-width="2"/>
<line x1="1598" y1="557" x2="1598" y2="348" stroke="#000" stroke-width="2" marker-end="url(#arrow)"/>
<circle cx="1598" cy="329" r="18" fill="none" stroke="#000" stroke-width="2"/>
<line x1="1582" y1="329" x2="1614" y2="329" stroke="#000" stroke-width="2"/>
<line x1="1598" y1="313" x2="1598" y2="345" stroke="#000" stroke-width="2"/>
<text x="1625" y="317" class="math" font-size="29">θ ← θ − γv</text>
<text x="1651" y="359" font-size="29">Update</text>
<line x1="1616" y1="330" x2="1766" y2="330" stroke="#000" stroke-width="2"/>
  <g id="slot_input_cat_photo" data-bbox="[18,363,158,130]" data-role="asset">
    <rect x="18" y="363" width="158" height="130" fill="#f8f8f8" stroke="#666" stroke-width="1.8" stroke-dasharray="6 4"/>
    <line x1="18" y1="363" x2="176" y2="493" stroke="#aaa" stroke-width="1.2"/>
    <line x1="176" y1="363" x2="18" y2="493" stroke="#aaa" stroke-width="1.2"/>
    <text x="97.0" y="428.0" font-size="15.0" text-anchor="middle" dominant-baseline="middle" fill="#555">ASSET_SLOT</text>
  </g>
  <g id="slot_teacher_feature_stack" data-bbox="[260,270,200,112]" data-role="asset">
    <rect x="260" y="270" width="200" height="112" fill="#f8f8f8" stroke="#666" stroke-width="1.8" stroke-dasharray="6 4"/>
    <line x1="260" y1="270" x2="460" y2="382" stroke="#aaa" stroke-width="1.2"/>
    <line x1="460" y1="270" x2="260" y2="382" stroke="#aaa" stroke-width="1.2"/>
    <text x="360.0" y="326.0" font-size="15.0" text-anchor="middle" dominant-baseline="middle" fill="#555">ASSET_SLOT</text>
  </g>
  <g id="slot_student_feature_stack" data-bbox="[260,499,172,110]" data-role="asset">
    <rect x="260" y="499" width="172" height="110" fill="#f8f8f8" stroke="#666" stroke-width="1.8" stroke-dasharray="6 4"/>
    <line x1="260" y1="499" x2="432" y2="609" stroke="#aaa" stroke-width="1.2"/>
    <line x1="432" y1="499" x2="260" y2="609" stroke="#aaa" stroke-width="1.2"/>
    <text x="346.0" y="554.0" font-size="15.0" text-anchor="middle" dominant-baseline="middle" fill="#555">ASSET_SLOT</text>
  </g>
  <g id="slot_hard_label_vector" data-bbox="[523,31,30,172]" data-role="asset">
    <rect x="523" y="31" width="30" height="172" fill="#f8f8f8" stroke="#666" stroke-width="1.8" stroke-dasharray="6 4"/>
    <line x1="523" y1="31" x2="553" y2="203" stroke="#aaa" stroke-width="1.2"/>
    <line x1="553" y1="31" x2="523" y2="203" stroke="#aaa" stroke-width="1.2"/>
    <text x="538.0" y="117.0" font-size="10.0" text-anchor="middle" dominant-baseline="middle" fill="#555">ASSET_SLOT</text>
  </g>
  <g id="slot_teacher_target_nontarget_vector" data-bbox="[523,215,31,205]" data-role="asset">
    <rect x="523" y="215" width="31" height="205" fill="#f8f8f8" stroke="#666" stroke-width="1.8" stroke-dasharray="6 4"/>
    <line x1="523" y1="215" x2="554" y2="420" stroke="#aaa" stroke-width="1.2"/>
    <line x1="554" y1="215" x2="523" y2="420" stroke="#aaa" stroke-width="1.2"/>
    <text x="538.5" y="317.5" font-size="10.0" text-anchor="middle" dominant-baseline="middle" fill="#555">ASSET_SLOT</text>
  </g>
  <g id="slot_student_target_nontarget_vector" data-bbox="[523,469,31,174]" data-role="asset">
    <rect x="523" y="469" width="31" height="174" fill="#f8f8f8" stroke="#666" stroke-width="1.8" stroke-dasharray="6 4"/>
    <line x1="523" y1="469" x2="554" y2="643" stroke="#aaa" stroke-width="1.2"/>
    <line x1="554" y1="469" x2="523" y2="643" stroke="#aaa" stroke-width="1.2"/>
    <text x="538.5" y="556.0" font-size="10.0" text-anchor="middle" dominant-baseline="middle" fill="#555">ASSET_SLOT</text>
  </g>
  <g id="slot_task_label_pair" data-bbox="[644,69,78,32]" data-role="asset">
    <rect x="644" y="69" width="78" height="32" fill="#f8f8f8" stroke="#666" stroke-width="1.8" stroke-dasharray="6 4"/>
    <line x1="644" y1="69" x2="722" y2="101" stroke="#aaa" stroke-width="1.2"/>
    <line x1="722" y1="69" x2="644" y2="101" stroke="#aaa" stroke-width="1.2"/>
    <text x="683.0" y="85.0" font-size="11.1" text-anchor="middle" dominant-baseline="middle" fill="#555">ASSET_SLOT</text>
  </g>
  <g id="slot_tckd_target_pair" data-bbox="[643,291,81,31]" data-role="asset">
    <rect x="643" y="291" width="81" height="31" fill="#f8f8f8" stroke="#666" stroke-width="1.8" stroke-dasharray="6 4"/>
    <line x1="643" y1="291" x2="724" y2="322" stroke="#aaa" stroke-width="1.2"/>
    <line x1="724" y1="291" x2="643" y2="322" stroke="#aaa" stroke-width="1.2"/>
    <text x="683.5" y="306.5" font-size="11.6" text-anchor="middle" dominant-baseline="middle" fill="#555">ASSET_SLOT</text>
  </g>
  <g id="slot_nckd_mask_pair" data-bbox="[643,489,81,139]" data-role="asset">
    <rect x="643" y="489" width="81" height="139" fill="#f8f8f8" stroke="#666" stroke-width="1.8" stroke-dasharray="6 4"/>
    <line x1="643" y1="489" x2="724" y2="628" stroke="#aaa" stroke-width="1.2"/>
    <line x1="724" y1="489" x2="643" y2="628" stroke="#aaa" stroke-width="1.2"/>
    <text x="683.5" y="558.5" font-size="11.6" text-anchor="middle" dominant-baseline="middle" fill="#555">ASSET_SLOT</text>
  </g>
</g>
</svg>