<svg xmlns="http://www.w3.org/2000/svg" viewBox="2.0 12.0 1621.0 676.0" style="font-family: Arial, sans-serif;">
  <defs>
    <!-- Gradients -->
    <linearGradient id="cqGradient" x1="0%" y1="0%" x2="100%" y2="100%">
      <stop offset="0%" style="stop-color:#2b7bb9;stop-opacity:1" />
      <stop offset="100%" style="stop-color:#104a8e;stop-opacity:1" />
    </linearGradient>
    <linearGradient id="metalGradient" x1="0%" y1="0%" x2="100%" y2="0%">
      <stop offset="0%" style="stop-color:#889;" />
      <stop offset="50%" style="stop-color:#aaa;" />
      <stop offset="100%" style="stop-color:#677;" />
    </linearGradient>
    <linearGradient id="metalDarkGradient" x1="0%" y1="0%" x2="100%" y2="0%">
      <stop offset="0%" style="stop-color:#445;" />
      <stop offset="50%" style="stop-color:#556;" />
      <stop offset="100%" style="stop-color:#334;" />
    </linearGradient>
    <linearGradient id="metalRawGradient" x1="0%" y1="0%" x2="100%" y2="100%">
      <stop offset="0%" style="stop-color:#888;" />
      <stop offset="100%" style="stop-color:#444;" />
    </linearGradient>
    <linearGradient id="arrowGradient" x1="0%" y1="0%" x2="100%" y2="0%">
      <stop offset="0%" style="stop-color:#ff9999;stop-opacity:1" />
      <stop offset="100%" style="stop-color:#ffcccc;stop-opacity:1" />
    </linearGradient>

    <!-- Arrow Marker -->
    <marker id="arrowHead" markerWidth="10" markerHeight="7" refX="9" refY="3.5" orient="auto">
      <polygon points="0 0, 10 3.5, 0 7" fill="#000" />
    </marker>
    <marker id="arrowHeadGreen" markerWidth="10" markerHeight="7" refX="9" refY="3.5" orient="auto">
      <polygon points="0 0, 10 3.5, 0 7" fill="#99cc33" />
    </marker>
    <marker id="arrowHeadPink" markerWidth="10" markerHeight="7" refX="9" refY="3.5" orient="auto">
      <polygon points="0 0, 10 3.5, 0 7" fill="#ff9999" />
    </marker>

    <!-- Reusable Flange Path -->
    <symbol id="flange3D" viewBox="0 0 100 100">
      <path d="M20,30 L20,60 A40,15 0 0,0 100,60 L100,30 A40,15 0 0,1 20,30" fill="url(#metalGradient)" stroke="#555" stroke-width="0.5"/>
      <ellipse cx="60" cy="45" rx="40" ry="15" fill="url(#metalGradient)" stroke="#555" stroke-width="0.5"/>
      <ellipse cx="60" cy="30" rx="20" ry="7" fill="#555" opacity="0.5"/>
      <circle cx="35" cy="45" r="3" fill="#666"/>
      <circle cx="85" cy="45" r="3" fill="#666"/>
    </symbol>
    
    <!-- Reusable Flange Raw -->
    <symbol id="flangeRaw" viewBox="0 0 100 100">
      <path d="M15,25 L15,65 A45,20 0 0,0 105,65 L105,25 A45,20 0 0,1 15,25" fill="url(#metalRawGradient)" stroke="#333" stroke-width="0.5"/>
      <ellipse cx="60" cy="45" rx="45" ry="20" fill="url(#metalRawGradient)" stroke="#333" stroke-width="0.5"/>
      <circle cx="30" cy="45" r="4" fill="#333"/>
      <circle cx="90" cy="45" r="4" fill="#333"/>
    </symbol>
  </defs>

  <!-- ================= TOP ROW ================= -->
  
  <!-- Panel 1: Command Sequence -->
  <g transform="translate(10, 20)">
    <rect x="0" y="0" width="380" height="210" rx="15" fill="#fcfcfc" stroke="#808080" stroke-width="4" stroke-dasharray="15,10" />
    <text x="290" y="200" text-anchor="end" font-weight="bold" fill="#385e22" font-size="24">Command Sequence</text>
    <text x="15" y="30" font-family="monospace" font-size="16">
      <tspan fill="#000">{</tspan>
      <tspan x="30" dy="20" fill="#8b4513">"steps"</tspan><tspan fill="#000">: [</tspan>
      <tspan x="50" dy="20" fill="#000">{</tspan>
      <tspan x="70" dy="20" fill="#8b4513">"sketch"</tspan><tspan fill="#000">: {</tspan>
      <tspan x="90" dy="20" fill="#8b4513">"circles"</tspan><tspan fill="#000">: [</tspan>
      <tspan x="110" dy="20" fill="#000">{</tspan><tspan x="130" dy="0" fill="#8b4513">"center"</tspan><tspan fill="#000">: [</tspan><tspan fill="#8b4513">0</tspan><tspan fill="#000">, </tspan><tspan fill="#8b4513">0</tspan><tspan fill="#000">], </tspan><tspan fill="#8b4513">"radius"</tspan><tspan fill="#000">: </tspan><tspan fill="#8b4513">60</tspan><tspan fill="#000">},</tspan>
      <tspan x="110" dy="20" fill="#000">{</tspan><tspan x="130" dy="0" fill="#8b4513">"center"</tspan><tspan fill="#000">: [</tspan><tspan fill="#8b4513">0</tspan><tspan fill="#000">, </tspan><tspan fill="#8b4513">0</tspan><tspan fill="#000">], </tspan><tspan fill="#8b4513">"radius"</tspan><tspan fill="#000">: </tspan><tspan fill="#8b4513">25</tspan><tspan fill="#000">}</tspan>
      <tspan x="90" dy="20" fill="#000">]</tspan>
      <tspan x="70" dy="20" fill="#000">},</tspan>
      <tspan x="65" dy="20" fill="#8b4513">"extrusion"</tspan><tspan fill="#000">: {</tspan>
      <tspan x="85" dy="20" fill="#8b4513">"direction"</tspan><tspan fill="#000">: [</tspan><tspan fill="#8b4513">0</tspan><tspan fill="#000">, </tspan><tspan fill="#8b4513">0</tspan><tspan fill="#000">, </tspan><tspan fill="#8b4513">1</tspan><tspan fill="#000">],</tspan>
      <tspan x="85" dy="20" fill="#8b4513">"origin"</tspan><tspan fill="#000">: [</tspan><tspan fill="#8b4513">0</tspan><tspan fill="#000">, </tspan><tspan fill="#8b4513">0</tspan><tspan fill="#000">, </tspan><tspan fill="#8b4513">0</tspan><tspan fill="#000">],</tspan>
      <tspan x="85" dy="20" fill="#d2691e">"depth"</tspan><tspan fill="#000">: </tspan><tspan fill="#d2691e">15</tspan><tspan fill="#000">,</tspan>
      <tspan x="85" dy="20" fill="#8b4513">"operation"</tspan><tspan fill="#000">: </tspan><tspan fill="#8b4513">"NewBody"</tspan>
      <tspan x="65" dy="20" fill="#000">}</tspan>
      <tspan x="50" dy="20" fill="#000">}...]</tspan>
      <tspan x="30" dy="20" fill="#000">}</tspan><tspan fill="#000">}</tspan>
    </text>
  </g>

  <!-- Panel 2: Text Description -->
  <g transform="translate(400, 20)">
    <rect x="0" y="0" width="380" height="210" rx="15" fill="#fcfcfc" stroke="#808080" stroke-width="4" stroke-dasharray="15,10" />
    <text x="290" y="200" text-anchor="end" font-weight="bold" fill="#385e22" font-size="24">Text Description</text>
    <text x="15" y="25" font-family="monospace" font-size="14" fill="#558b2f">
      <tspan x="15" dy="0">Text_Description = """</tspan>
      <tspan x="15" dy="18">This circular flange is a metal component</tspan>
      <tspan x="15" dy="18">featuring a flat base plate with a</tspan>
      <tspan x="15" dy="18">diameter of 120 mm and thickness of 15 mm.</tspan>
      <tspan x="15" dy="18">The design includes a central bore</tspan>
      <tspan x="15" dy="18">measuring 50 mm in diameter surrounded by</tspan>
      <tspan x="15" dy="18">a raised concentric ring with an outer</tspan>
      <tspan x="15" dy="18">diameter of 70 mm and height of 8 mm that</tspan>
      <tspan x="15" dy="18">shares the same inner diameter as the</tspan>
      <tspan x="15" dy="18">central bore. Six equidistant mounting</tspan>
      <tspan x="15" dy="18">holes measuring 12 mm in diameter are</tspan>
      <tspan x="15" dy="18">arranged in a circular pattern with a</tspan>
      <tspan x="15" dy="18">diameter of 90 mm around the periphery.</tspan>
      <tspan x="15" dy="18">"""</tspan>
    </text>
  </g>

  <!-- Panel 3: System Prompt -->
  <g transform="translate(790, 20)">
    <rect x="0" y="0" width="800" height="100" rx="0" ry="15" fill="#fcfcfc" stroke="#808080" stroke-width="4" stroke-dasharray="15,10" />
    <text x="780" y="90" text-anchor="end" font-weight="bold" fill="#385e22" font-size="24">System prompt</text>
    <text x="15" y="35" font-family="monospace" font-size="14">
      <tspan fill="#8b4513">System_prompt = """</tspan>
      <tspan x="15" dy="20" fill="#558b2f">Please convert the following CAD command sequence into CAD–Query code, with the final model represented as 'r':</tspan>
      <tspan x="15" dy="20" fill="#558b2f">"""</tspan>
      <tspan x="15" dy="30" fill="#808080"># The CoT system prompt can be found in the appendix.</tspan>
    </text>
  </g>

  <!-- Panel 4: CadQuery Code -->
  <g transform="translate(790, 130)">
    <rect x="0" y="0" width="800" height="140" rx="0" ry="15" fill="#fcfcfc" stroke="#808080" stroke-width="4" stroke-dasharray="15,10" />
    <text x="780" y="130" text-anchor="end" font-weight="bold" fill="#385e22" font-size="24">CadQuery Code</text>
    <text x="15" y="30" font-family="monospace" font-size="14">
      <tspan fill="#000">import </tspan><tspan fill="#d2691e">cadquery</tspan><tspan fill="#000"> as cq</tspan>
      <tspan x="15" dy="30"></tspan>
      <tspan fill="#d2691e">flange</tspan><tspan fill="#000"> = (cq.</tspan><tspan fill="#1e90ff">Workplane</tspan><tspan fill="#000">("XY")</tspan>
      <tspan x="40" dy="20"></tspan><tspan fill="#1e90ff">.circle</tspan><tspan fill="#000">(60).</tspan><tspan fill="#1e90ff">circle</tspan><tspan fill="#000">(25).</tspan><tspan fill="#1e90ff">extrude</tspan><tspan fill="#000">(15)</tspan>
      <tspan x="40" dy="20"></tspan><tspan fill="#1e90ff">.faces</tspan><tspan fill="#000">(">2").</tspan><tspan fill="#1e90ff">workplane</tspan><tspan fill="#000">().</tspan><tspan fill="#1e90ff">polarArray</tspan><tspan fill="#000">(45, 0, 360,6).</tspan><tspan fill="#1e90ff">circle</tspan><tspan fill="#000">(6).</tspan><tspan fill="#1e90ff">cutThruAll</tspan><tspan fill="#000">()</tspan>
      <tspan x="40" dy="20"></tspan><tspan fill="#1e90ff">.faces</tspan><tspan fill="#000">(">2").</tspan><tspan fill="#1e90ff">workplane</tspan><tspan fill="#000">().</tspan><tspan fill="#1e90ff">add</tspan><tspan fill="#000">(cq.</tspan><tspan fill="#1e90ff">Workplane</tspan><tspan fill="#000">("XY").</tspan><tspan fill="#1e90ff">circle</tspan><tspan fill="#000">(35).</tspan><tspan fill="#1e90ff">circle</tspan><tspan fill="#000">(25).</tspan><tspan fill="#1e90ff">workplane</tspan><tspan fill="#000">(offset=15).</tspan><tspan fill="#1e90ff">extrude</tspan><tspan fill="#000">(8))</tspan>
      <tspan x="15" dy="20"></tspan><tspan fill="#d2691e">result</tspan><tspan fill="#000"> = </tspan><tspan fill="#d2691e">flange</tspan>
    </text>
  </g>

  <!-- ================= BOTTOM ROW ================= -->

  <!-- Panel 5: Text2CAD Dataset -->
  <g transform="translate(10, 230)">
    <rect x="0" y="0" width="450" height="450" rx="30" fill="#f0f4ff" stroke="#b0b0b0" stroke-width="4" />
    
    <!-- Icon -->
    <g transform="translate(20, 150)">
      <path d="M10,20 L30,5 L70,5 L90,20 L90,70 L10,70 Z" fill="#fdd070" stroke="#333" stroke-width="3"/>
      <rect x="10" y="20" width="80" height="50" rx="5" fill="#fdd070" stroke="none"/>
      <rect x="10" y="20" width="80" height="15" rx="5" fill="#e0b050" stroke="none"/>
      <path d="M10,20 L20,20 L20,30 L10,30 Z" fill="#333" opacity="0.2"/>
      <path d="M80,20 L90,20 L90,30 L80,30 Z" fill="#333" opacity="0.2"/>
      <!-- Paper -->
      <path d="M30,0 L70,0 L90,20 L90,50 L30,50 Z" fill="#fff" stroke="#333" stroke-width="2" transform="rotate(-10 60 25)"/>
      <line x1="35" y1="10" x2="80" y2="10" stroke="#333" stroke-width="3" transform="rotate(-10 60 25)"/>
      <line x1="35" y1="20" x2="70" y2="20" stroke="#333" stroke-width="3" transform="rotate(-10 60 25)"/>
      <line x1="35" y1="30" x2="80" y2="30" stroke="#333" stroke-width="3" transform="rotate(-10 60 25)"/>
      <!-- Badge -->
      <circle cx="80" cy="70" r="15" fill="#4aa3b5" stroke="#333" stroke-width="3"/>
      <path d="M72,70 L78,76 L88,64" fill="none" stroke="#333" stroke-width="3"/>
    </g>
    <text x="60" y="260" text-anchor="middle" font-size="22" fill="#000">Text2CAD</text>
    <text x="60" y="285" text-anchor="middle" font-size="22" fill="#000">Dataset</text>

    <!-- Arrows -->
    <path d="M100,180 L140,180 L140,60 L190,60" fill="none" stroke="#000" stroke-width="2" marker-end="url(#arrowHead)"/>
    <path d="M140,180 L190,180" fill="none" stroke="#000" stroke-width="2" marker-end="url(#arrowHead)"/>
    <path d="M140,180 L140,330 L190,330" fill="none" stroke="#000" stroke-width="2" marker-end="url(#arrowHead)"/>

    <!-- Sub Panel 1: Command Seq -->
    <g transform="translate(200, 20)">
      <rect x="0" y="0" width="110" height="220" fill="none" stroke="#000" stroke-width="2" stroke-dasharray="8,5"/>
      <!-- JSON Icon -->
      <g transform="translate(20, 10)">
        <path d="M0,0 L60,0 L80,20 L80,90 L0,90 Z" fill="#fdd0b0" stroke="#333" stroke-width="3"/>
        <path d="M60,0 L60,20 L80,20" fill="#d09060" stroke="#333" stroke-width="3"/>
        <line x1="10" y1="20" x2="50" y2="20" stroke="#333" stroke-width="3"/>
        <line x1="10" y1="35" x2="70" y2="35" stroke="#333" stroke-width="3"/>
        <line x1="10" y1="50" x2="70" y2="50" stroke="#333" stroke-width="3"/>
        <rect x="0" y="65" width="80" height="25" rx="5" fill="#d06010"/>
        <text x="40" y="83" text-anchor="middle" fill="#fff" font-weight="bold" font-size="18" stroke="#333" stroke-width="1">JSON</text>
      </g>
      <text x="55" y="125" text-anchor="middle" font-size="18">Command</text>
      <text x="55" y="145" text-anchor="middle" font-size="18">Sequence</text>
      <!-- Arrow out -->
      <path d="M110,110 L150,110 L150,60 L190,60" fill="none" stroke="#000" stroke-width="2" marker-end="url(#arrowHead)"/>
    </g>

    <!-- Sub Panel 2: Text Desc -->
    <g transform="translate(200, 150)">
      <rect x="0" y="0" width="110" height="160" fill="none" stroke="#000" stroke-width="2" stroke-dasharray="8,5"/>
      <!-- Text Icon -->
      <g transform="translate(20, 10)">
        <path d="M0,0 L60,0 L80,20 L80,90 L0,90 Z" fill="#fff" stroke="#333" stroke-width="3"/>
        <path d="M60,0 L60,20 L80,20" fill="#fdd0b0" stroke="#333" stroke-width="3"/>
        <line x1="10" y1="20" x2="50" y2="20" stroke="#333" stroke-width="3"/>
        <line x1="10" y1="35" x2="70" y2="35" stroke="#333" stroke-width="3"/>
        <line x1="10" y1="50" x2="70" y2="50" stroke="#333" stroke-width="3"/>
        <line x1="10" y1="65" x2="70" y2="65" stroke="#333" stroke-width="3"/>
        <rect x="0" y="70" width="80" height="25" rx="5" fill="#fff" stroke="#333" stroke-width="3"/>
        <text x="40" y="90" text-anchor="middle" fill="#555" font-weight="bold" font-size="18">TEXT</text>
      </g>
      <text x="55" y="130" text-anchor="middle" font-size="18">Text</text>
      <text x="55" y="150" text-anchor="middle" font-size="18">Description</text>
    </g>

    <!-- Sub Panel 3: GT Model -->
    <g transform="translate(200, 300)">
      <rect x="0" y="0" width="110" height="130" fill="none" stroke="#000" stroke-width="2" stroke-dasharray="8,5"/>
      <!-- STEP Icon -->
      <g transform="translate(20, 10)">
        <path d="M0,0 L60,0 L80,20 L80,90 L0,90 Z" fill="#fff" stroke="#333" stroke-width="3"/>
        <path d="M60,0 L60,20 L80,20" fill="#fdd0b0" stroke="#333" stroke-width="3"/>
        <line x1="10" y1="20" x2="50" y2="20" stroke="#333" stroke-width="3"/>
        <line x1="10" y1="35" x2="70" y2="35" stroke="#333" stroke-width="3"/>
        <line x1="10" y1="50" x2="70" y2="50" stroke="#333" stroke-width="3"/>
        <rect x="0" y="65" width="80" height="25" rx="5" fill="#4aa3b5" stroke="#333" stroke-width="3"/>
        <text x="40" y="83" text-anchor="middle" fill="#fff" font-weight="bold" font-size="18">STEP</text>
      </g>
      <text x="55" y="150" text-anchor="middle" font-size="22">Ground–Truth Model</text>
    </g>
  </g>

  <!-- Panel 6: LLMs -->
  <g transform="translate(320, 230)">
    <text x="75" y="20" text-anchor="middle" font-size="24">LLMs</text>
    <!-- Whale -->
    <g transform="translate(25, 30) scale(0.6)">
      <path d="M10,60 Q30,10 80,10 Q130,10 150,50 Q160,30 170,20 Q160,60 140,70 Q160,50 180,30 Q170,80 120,90 Q100,110 60,100 Q40,90 10,60 Z" fill="#4169e1"/>
      <path d="M10,60 Q30,10 80,10 Q130,10 150,50 Q160,30 170,20 Q160,60 140,70 Q160,50 180,30 Q170,80 120,90 Q100,110 60,100 Q40,90 10,60 Z" fill="none" stroke="#fff" stroke-width="2"/>
      <path d="M10,60 Q30,10 80,10 Q130,10 150,50 Q160,30 170,20 Q160,60 140,70 Q160,50 180,30 Q170,80 120,90 Q100,110 60,100 Q40,90 10,60 Z" fill="none" stroke="#6495ed" stroke-width="1"/>
      <circle cx="50" cy="50" r="5" fill="#fff"/>
    </g>
    <!-- Arrow Down -->
    <line x1="75" y1="90" x2="75" y2="130" stroke="#000" stroke-width="2" marker-end="url(#arrowHead)"/>
    
    <!-- CQ Logo -->
    <g transform="translate(35, 130)">
      <rect x="0" y="0" width="80" height="80" fill="#2b7bb9"/>
      <text x="40" y="55" text-anchor="middle" fill="#fff" font-weight="bold" font-size="50">cq</text>
    </g>
    <text x="75" y="230" text-anchor="middle" font-size="22">CadQuery</text>

    <!-- Branching -->
    <path d="M115,170 L130,170 L130,140 L150,140" fill="none" stroke="#99cc33" stroke-width="3" marker-end="url(#arrowHeadGreen)"/>
    <path d="M115,170 L130,170 L130,240 L150,240" fill="none" stroke="#ff4444" stroke-width="3" marker-end="url(#arrowHeadPink)"/>

    <!-- Success -->
    <path d="M120,130 L135,145 L160,110" fill="none" stroke="#99cc33" stroke-width="10" opacity="0.5"/>
    <path d="M120,130 L135,145 L160,110" fill="none" stroke="#99cc33" stroke-width="4"/>

    <!-- Failure X -->
    <g transform="translate(30, 210)">
      <line x1="0" y1="0" x2="30" y2="30" stroke="#ff4444" stroke-width="5" stroke-linecap="round"/>
      <line x1="30" y1="0" x2="0" y2="30" stroke="#ff4444" stroke-width="5" stroke-linecap="round"/>
    </g>
    <!-- Trash Can -->
    <g transform="translate(50, 240)">
      <rect x="10" y="20" width="60" height="60" rx="5" fill="#e67e22" stroke="#333" stroke-width="2"/>
      <path d="M15,20 L15,10 Q15,0 25,0 L55,0 Q65,0 65,10 L65,20" fill="#993399" stroke="#333" stroke-width="2"/>
      <line x1="25" y1="30" x2="25" y2="70" stroke="#333" stroke-width="3"/>
      <line x1="40" y1="30" x2="40" y2="70" stroke="#333" stroke-width="3"/>
      <line x1="55" y1="30" x2="55" y2="70" stroke="#333" stroke-width="3"/>
      <!-- Papers -->
      <rect x="0" y="10" width="20" height="25" fill="#fff" stroke="#333" transform="rotate(-10)"/>
      <rect x="50" y="-10" width="20" height="25" fill="#993399" stroke="#333" transform="rotate(10)"/>
      <rect x="30" y="0" width="20" height="25" fill="#993399" stroke="#333" transform="rotate(5)"/>
    </g>
    <text x="75" y="340" text-anchor="middle" font-size="22">Discard</text>
  </g>

  <!-- Panel 7: Generated Models -->
  <g transform="translate(470, 230)">
    <rect x="0" y="0" width="880" height="450" rx="30" fill="#f4fcf4" stroke="#b0b0b0" stroke-width="4" />
    
    <!-- Top Box -->
    <g transform="translate(50, 30)">
      <rect x="0" y="0" width="650" height="160" rx="15" fill="none" stroke="#99cc33" stroke-width="4" stroke-dasharray="20,15"/>
      <g transform="translate(180, -20)">
        <rect x="0" y="0" width="280" height="40" rx="5" fill="#e6f5d0" stroke="#99cc33" stroke-width="2" stroke-dasharray="10,5"/>
        <text x="140" y="28" text-anchor="middle" font-weight="bold" fill="#385e22" font-size="24">Generated Models</text>
      </g>
      <!-- 3D Renders -->
      <use href="#flange3D" x="30" y="30" width="200" height="200" transform="scale(1.5)"/>
      <use href="#flange3D" x="250" y="30" width="200" height="200" transform="scale(1.5)"/>
      <use href="#flange3D" x="470" y="30" width="200" height="200" transform="scale(1.5)"/>
    </g>

    <!-- Sample Arrow -->
    <line x1="375" y1="200" x2="375" y2="240" stroke="#000" stroke-width="2" marker-end="url(#arrowHead)"/>
    <text x="390" y="225" font-size="22">Sample</text>

    <!-- Bottom Box -->
    <g transform="translate(50, 250)">
      <rect x="0" y="0" width="650" height="180" rx="15" fill="none" stroke="#808080" stroke-width="4" stroke-dasharray="20,15"/>
      <g transform="translate(180, 140)">
        <rect x="0" y="0" width="280" height="40" rx="5" fill="#e6f5d0" stroke="#99cc33" stroke-width="2" stroke-dasharray="10,5"/>
        <text x="140" y="28" text-anchor="middle" font-weight="bold" fill="#385e22" font-size="24">3D Point Models</text>
      </g>
      <!-- Point Clouds -->
      <use href="#flangeRaw" x="30" y="20" width="200" height="200" transform="scale(1.5)"/>
      <use href="#flangeRaw" x="250" y="20" width="200" height="200" transform="scale(1.5)"/>
      <use href="#flangeRaw" x="470" y="20" width="200" height="200" transform="scale(1.5)"/>
      <rect x="480" y="20" width="240" height="120" fill="none" stroke="#ff0000" stroke-width="4" stroke-dasharray="20,10"/>
      <text x="500" y="160" font-size="24">Select by CD</text>
    </g>

    <!-- Chamfer Distance -->
    <text x="710" y="240" font-size="20">Chamfer</text>
    <text x="710" y="265" font-size="20">Distance</text>
    <!-- Pink Arrow -->
    <path d="M710,300 L680,300 L680,290 L650,310 L680,330 L680,320 L710,320 Z" fill="url(#arrowGradient)" stroke="#ff9999" stroke-width="1"/>
    <path d="M710,300 L710,320" fill="none" stroke="#ff9999" stroke-width="1"/>

    <!-- Python Code Selection -->
    <text x="710" y="380" font-size="22">Python code</text>
    <text x="710" y="405" font-size="22">selection</text>
    <path d="M710,340 L710,360 L880,360" fill="none" stroke="#ff9999" stroke-width="3" marker-end="url(#arrowHeadPink)"/>
  </g>

  <!-- Panel 8: Our Dataset -->
  <g transform="translate(1360, 230)">
    <rect x="0" y="0" width="230" height="450" rx="30" fill="#fcf2eb" stroke="#b0b0b0" stroke-width="4" />
    
    <!-- Inputs -->
    <g transform="translate(20, 20)">
      <rect x="0" y="0" width="120" height="220" fill="none" stroke="#000" stroke-width="2" stroke-dasharray="8,5"/>
      <!-- STEP Icon -->
      <g transform="translate(20, 10)">
        <path d="M0,0 L60,0 L80,20 L80,90 L0,90 Z" fill="#fff" stroke="#333" stroke-width="3"/>
        <path d="M60,0 L60,20 L80,20" fill="#fdd0b0" stroke="#333" stroke-width="3"/>
        <line x1="10" y1="20" x2="50" y2="20" stroke="#333" stroke-width="3"/>
        <line x1="10" y1="35" x2="70" y2="35" stroke="#333" stroke-width="3"/>
        <line x1="10" y1="50" x2="70" y2="50" stroke="#333" stroke-width="3"/>
        <rect x="0" y="65" width="80" height="25" rx="5" fill="#4aa3b5" stroke="#333" stroke-width="3"/>
        <text x="40" y="83" text-anchor="middle" fill="#fff" font-weight="bold" font-size="18">STEP</text>
      </g>
      <text x="60" y="130" text-anchor="middle" font-size="20">Model</text>
      
      <!-- Text Icon -->
      <g transform="translate(20, 150)">
        <path d="M0,0 L60,0 L80,20 L80,90 L0,90 Z" fill="#fff" stroke="#333" stroke-width="3"/>
        <path d="M60,0 L60,20 L80,20" fill="#fdd0b0" stroke="#333" stroke-width="3"/>
        <line x1="10" y1="20" x2="50" y2="20" stroke="#333" stroke-width="3"/>
        <line x1="10" y1="35" x2="70" y2="35" stroke="#333" stroke-width="3"/>
        <line x1="10" y1="50" x2="70" y2="50" stroke="#333" stroke-width="3"/>
        <rect x="0" y="70" width="80" height="25" rx="5" fill="#fff" stroke="#333" stroke-width="3"/>
        <text x="40" y="90" text-anchor="middle" fill="#555" font-weight="bold" font-size="18">TEXT</text>
      </g>
      <text x="60" y="260" text-anchor="middle" font-size="18">Text</text>
      <text x="60" y="280" text-anchor="middle" font-size="18">Description</text>
    </g>

    <!-- Merge Arrows -->
    <path d="M140,130 L170,130 L170,200 L200,200" fill="none" stroke="#000" stroke-width="2" marker-end="url(#arrowHead)"/>
    <path d="M140,330 L170,330 L170,200" fill="none" stroke="#000" stroke-width="2"/>

    <!-- Final Folder Icon -->
    <g transform="translate(160, 150)">
      <path d="M10,20 L30,5 L70,5 L90,20 L90,70 L10,70 Z" fill="#fdd070" stroke="#333" stroke-width="3"/>
      <rect x="10" y="20" width="80" height="50" rx="5" fill="#fdd070" stroke="none"/>
      <rect x="10" y="20" width="80" height="15" rx="5" fill="#e0b050" stroke="none"/>
      <path d="M10,20 L20,20 L20,30 L10,30 Z" fill="#333" opacity="0.2"/>
      <path d="M80,20 L90,20 L90,30 L80,30 Z" fill="#333" opacity="0.2"/>
      <!-- Paper -->
      <path d="M30,0 L70,0 L90,20 L90,50 L30,50 Z" fill="#fff" stroke="#333" stroke-width="2" transform="rotate(-10 60 25)"/>
      <line x1="35" y1="10" x2="80" y2="10" stroke="#333" stroke-width="3" transform="rotate(-10 60 25)"/>
      <line x1="35" y1="20" x2="70" y2="20" stroke="#333" stroke-width="3" transform="rotate(-10 60 25)"/>
      <line x1="35" y1="30" x2="80" y2="30" stroke="#333" stroke-width="3" transform="rotate(-10 60 25)"/>
      <!-- Badge -->
      <circle cx="80" cy="70" r="15" fill="#4aa3b5" stroke="#333" stroke-width="3"/>
      <path d="M72,70 L78,76 L88,64" fill="none" stroke="#333" stroke-width="3"/>
      <circle cx="80" cy="70" r="15" fill="#ff4d4d" stroke="#333" stroke-width="3" opacity="0.8"/>
      <path d="M75,65 L85,75 M85,65 L75,75" stroke="#333" stroke-width="3"/>
    </g>
    <text x="210" y="260" text-anchor="middle" font-size="22">Our Dataset</text>

    <!-- CQ Logo -->
    <g transform="translate(30, 300)">
      <rect x="0" y="0" width="80" height="80" fill="#2b7bb9"/>
      <text x="40" y="55" text-anchor="middle" fill="#fff" font-weight="bold" font-size="50">cq</text>
    </g>
    <text x="70" y="410" text-anchor="middle" font-size="22">CadQuery</text>
  </g>

  <!-- Ground Truth Connection -->
  <g transform="translate(1100, 230)">
    <text x="130" y="130" text-anchor="middle" font-size="24">Ground–Truth Models</text>
    <line x1="130" y1="140" x2="130" y2="180" stroke="#000" stroke-width="2" marker-end="url(#arrowHead)"/>
    <text x="150" y="160" font-size="22">Sample</text>
    <use href="#flange3D" x="50" y="20" width="200" height="200" transform="scale(1.5)"/>
  </g>

</svg>