<svg xmlns="http://www.w3.org/2000/svg" viewBox="4.0 14.0 1987.0 785.0" style="font-family: 'Times New Roman', serif; background-color: white;">
  <defs>
    <!-- Arrowhead Marker -->
    <marker id="arrowhead" markerWidth="10" markerHeight="7" refX="9" refY="3.5" orient="auto">
      <polygon points="0 0, 10 3.5, 0 7" fill="black" />
    </marker>
    <!-- Green Arrowhead -->
    <marker id="arrowhead-green" markerWidth="10" markerHeight="7" refX="9" refY="3.5" orient="auto">
      <polygon points="0 0, 10 3.5, 0 7" fill="#92D050" />
    </marker>
    <!-- Red Arrowhead -->
    <marker id="arrowhead-red" markerWidth="10" markerHeight="7" refX="9" refY="3.5" orient="auto">
      <polygon points="0 0, 10 3.5, 0 7" fill="#FF0000" />
    </marker>
  </defs>

  <!-- ================= TOP SECTION ================= -->
  
  <!-- Panel 1: Command Sequence -->
  <g transform="translate(10, 20)">
    <rect x="0" y="0" width="380" height="290" rx="20" fill="white" stroke="#666666" stroke-width="4" stroke-dasharray="10,10" />
    <text x="190" y="270" text-anchor="middle" font-size="24" fill="#556B2F" font-weight="bold">Command Sequence</text>
    <text x="20" y="60" font-family="monospace" font-size="18" fill="#000000">
      <tspan x="20" dy="0">"steps": [</tspan>
      <tspan x="40" dy="25">"sketch": {</tspan>
      <tspan x="60" dy="25">"circles": [</tspan>
      <tspan x="80" dy="25">{"center": [0, 0], "radius": 60},</tspan>
      <tspan x="80" dy="25">{"center": [0, 0], "radius": 25}</tspan>
      <tspan x="60" dy="25">],</tspan>
      <tspan x="40" dy="25">"extrusion": {</tspan>
      <tspan x="60" dy="25">"direction": [0, 0, 1],</tspan>
      <tspan x="60" dy="25">"origin": [0, 0, 0],</tspan>
      <tspan x="60" dy="25">"depth": 15,</tspan>
      <tspan x="60" dy="25">"operation": "NewBody"</tspan>
      <tspan x="40" dy="25">},</tspan>
      <tspan x="20" dy="25">],...]</tspan>
    </text>
  </g>

  <!-- Panel 2: Text Description -->
  <g transform="translate(380, 20)">
    <rect x="0" y="0" width="380" height="290" rx="20" fill="white" stroke="#666666" stroke-width="4" stroke-dasharray="10,10" />
    <text x="190" y="270" text-anchor="middle" font-size="24" fill="#556B2F" font-weight="bold">Text Description</text>
    <text x="20" y="40" font-family="monospace" font-size="18" fill="#000000">
      <tspan x="20" dy="0" fill="#FF0000">Text_Description = """</tspan>
      <tspan x="20" dy="25" fill="#92D050">This circular flange is a metal component</tspan>
      <tspan x="20" dy="20" fill="#92D050">featuring a flat base plate with a</tspan>
      <tspan x="20" dy="20" fill="#92D050">diameter of 120 mm and thickness of 15 mm.</tspan>
      <tspan x="20" dy="20" fill="#92D050">The design includes a central bore</tspan>
      <tspan x="20" dy="20" fill="#92D050">measuring 50 mm in diameter surrounded by</tspan>
      <tspan x="20" dy="20" fill="#92D050">a raised concentric ring with an outer</tspan>
      <tspan x="20" dy="20" fill="#92D050">diameter of 70 mm and height of 8 mm that</tspan>
      <tspan x="20" dy="20" fill="#92D050">shares the same inner diameter as the</tspan>
      <tspan x="20" dy="20" fill="#92D050">central bore. Six equidistant mounting</tspan>
      <tspan x="20" dy="20" fill="#92D050">holes measuring 12 mm in diameter are</tspan>
      <tspan x="20" dy="20" fill="#92D050">arranged in a circular pattern with a</tspan>
      <tspan x="20" dy="20" fill="#92D050">diameter of 90 mm around the periphery.</tspan>
      <tspan x="20" dy="20" fill="#92D050">""""</tspan>
    </text>
  </g>

  <!-- Panel 3: System Prompt -->
  <g transform="translate(750, 20)">
    <rect x="0" y="0" width="830" height="290" rx="20" fill="white" stroke="#666666" stroke-width="4" stroke-dasharray="10,10" />
    <text x="810" y="120" text-anchor="end" font-size="24" fill="#556B2F" font-weight="bold">System prompt</text>
    <text x="20" y="50" font-family="monospace" font-size="18" fill="#000000">
      <tspan x="20" dy="0" fill="#FF0000">System_prompt = """</tspan>
      <tspan x="20" dy="25" fill="#92D050">Please convert the following CAD command sequence into CAD-Query code, with the final model represented as 'r':</tspan>
      <tspan x="20" dy="25" fill="#92D050">""""</tspan>
      <tspan x="20" dy="40" fill="#555555"># The CoT system prompt can be found in the appendix.</tspan>
    </text>
  </g>

  <!-- Panel 4: CadQuery Code -->
  <g transform="translate(750, 180)">
    <rect x="0" y="0" width="830" height="190" rx="20" fill="white" stroke="#666666" stroke-width="4" stroke-dasharray="10,10" />
    <text x="810" y="170" text-anchor="end" font-size="24" fill="#556B2F" font-weight="bold">CadQuery Code</text>
    <text x="20" y="30" font-family="monospace" font-size="18" fill="#000000">
      <tspan x="20" dy="0" fill="#FF8C00">import cadquery as cq</tspan>
      <tspan x="20" dy="40" fill="#FF0000">flange = (cq.Workplane("XY")</tspan>
      <tspan x="20" dy="25" fill="#92D050">.circle(60).circle(25).extrude(15)</tspan>
      <tspan x="20" dy="25" fill="#92D050">.faces("&lt;Z&gt;").workplane().polarArray(45, 0, 360,6).circle(6).cutThruAll()</tspan>
      <tspan x="20" dy="25" fill="#92D050">.faces("&lt;Z&gt;").workplane().add(cq.Workplane("XY").circle(35).circle(25).workplane(offset=15).extrude(8)))</tspan>
      <tspan x="20" dy="40" fill="#FF0000">result = flange</tspan>
    </text>
  </g>

  <!-- ================= BOTTOM SECTION ================= -->

  <!-- Panel A: Text2CAD Dataset -->
  <g transform="translate(10, 320)">
    <rect x="0" y="0" width="450" height="420" rx="30" fill="#E8EEF5" stroke="#999999" stroke-width="2" />
    <text x="20" y="300" font-size="24" fill="black">Text2CAD</text>
    <text x="20" y="325" font-size="24" fill="black">Dataset</text>
    
    <!-- Icon: Folder -->
    <g transform="translate(20, 200)">
      <path d="M0,10 L40,10 L50,0 L50,70 L0,70 Z" fill="#F0C050" stroke="black" stroke-width="2"/>
      <path d="M40,10 L40,0 L50,0" fill="#F0C050" stroke="black" stroke-width="2"/>
      <rect x="10" y="20" width="30" height="20" fill="white" stroke="black" stroke-width="2"/>
      <rect x="15" y="25" width="20" height="10" fill="white" stroke="black" stroke-width="2"/>
      <rect x="15" y="38" width="20" height="10" fill="white" stroke="black" stroke-width="2"/>
      <rect x="15" y="51" width="20" height="10" fill="white" stroke="black" stroke-width="2"/>
      <!-- Checkmark -->
      <circle cx="55" cy="60" r="18" fill="#009966" stroke="black" stroke-width="2"/>
      <path d="M55,55 L59,60 L63,58" fill="none" stroke="white" stroke-width="3" stroke-linecap="round" stroke-linejoin="round"/>
    </g>

    <!-- Connector -->
    <path d="M80,210 L120,210 M120,210 L120,100 L180,100 M120,210 L120,320 L180,320" fill="none" stroke="black" stroke-width="3" marker-end="url(#arrowhead)"/>
  </g>

  <!-- Panel B: Command Sequence & LLMs -->
  <g transform="translate(180, 320)">
    <!-- JSON Icon -->
    <g transform="translate(20, 20)">
      <path d="M0,0 L60,0 L80,20 L80,90 L0,90 Z" fill="#F0E6D2" stroke="black" stroke-width="2"/>
      <polyline points="60,0 60,20 80,20" fill="none" stroke="black" stroke-width="2"/>
      <line x1="10" y1="30" x2="70" y2="30" stroke="black" stroke-width="2"/>
      <line x1="10" y1="45" x2="70" y2="45" stroke="black" stroke-width="2"/>
      <line x1="10" y1="60" x2="70" y2="60" stroke="black" stroke-width="2"/>
      <line x1="10" y1="75" x2="70" y2="75" stroke="black" stroke-width="2"/>
      <rect x="10" y="85" width="60" height="30" fill="#D2691E" stroke="black" stroke-width="2"/>
      <text x="40" y="105" text-anchor="middle" fill="white" font-weight="bold" font-size="18">JSON</text>
    </g>
    <text x="80" y="180" text-anchor="middle" font-size="20" fill="black">Command</text>
    <text x="80" y="205" text-anchor="middle" font-size="20" fill="black">Sequence</text>

    <!-- Text Description Icon -->
    <g transform="translate(20, 190)">
      <path d="M0,0 L60,0 L80,20 L80,90 L0,90 Z" fill="white" stroke="black" stroke-width="2"/>
      <polyline points="60,0 60,20 80,20" fill="none" stroke="black" stroke-width="2"/>
      <line x1="10" y1="30" x2="70" y2="30" stroke="black" stroke-width="2"/>
      <line x1="10" y1="45" x2="70" y2="45" stroke="black" stroke-width="2"/>
      <line x1="10" y1="60" x2="70" y2="60" stroke="black" stroke-width="2"/>
      <line x1="10" y1="75" x2="70" y2="75" stroke="black" stroke-width="2"/>
      <rect x="10" y="85" width="60" height="30" fill="#5F9EA0" stroke="black" stroke-width="2"/>
      <text x="40" y="105" text-anchor="middle" fill="white" font-weight="bold" font-size="18">TEXT</text>
    </g>
    <text x="80" y="300" text-anchor="middle" font-size="20" fill="black">Text</text>
    <text x="80" y="325" text-anchor="middle" font-size="20" fill="black">Description</text>

    <!-- LLMs -->
    <g transform="translate(180, 20)">
      <text x="50" y="0" text-anchor="middle" font-size="24" fill="black">LLMs</text>
      <!-- Whale Icon -->
      <g transform="translate(50, 30) scale(0.8)">
        <path d="M10,10 Q30,0 50,10 Q70,20 70,40 Q70,60 50,70 Q30,80 10,70 Q0,60 0,40 Q0,20 10,10 Z" fill="#4169E1" stroke="black" stroke-width="2"/>
        <path d="M50,10 Q70,0 90,10 Q110,20 110,40 Q110,60 90,70 Q70,80 50,70 Q30,60 30,40 Q30,20 50,10 Z" fill="#4169E1" stroke="black" stroke-width="2"/>
        <circle cx="50" cy="10" r="5" fill="white" stroke="black" stroke-width="2"/>
        <circle cx="90" cy="10" r="5" fill="white" stroke="black" stroke-width="2"/>
        <path d="M50,40 Q70,30 90,40" fill="none" stroke="white" stroke-width="2"/>
      </g>
      <!-- Arrow down -->
      <line x1="70" y1="100" x2="70" y2="140" stroke="black" stroke-width="3" marker-end="url(#arrowhead)"/>
    </g>

    <!-- CadQuery -->
    <g transform="translate(180, 190)">
      <rect x="0" y="0" width="70" height="90" fill="#2E75B6" stroke="black" stroke-width="2"/>
      <text x="35" y="60" text-anchor="middle" fill="white" font-size="50" font-weight="bold">cq</text>
      <text x="35" y="120" text-anchor="middle" font-size="24" fill="black">CadQuery</text>
    </g>

    <!-- Discard Icon -->
    <g transform="translate(180, 280)">
      <text x="35" y="-10" text-anchor="middle" font-size="24" fill="black">×</text>
      <line x1="35" y1="0" x2="35" y2="30" stroke="#FF0000" stroke-width="4" marker-end="url(#arrowhead-red)"/>
      <!-- Trash Can -->
      <g transform="translate(0, 40)">
        <path d="M10,10 L50,10 L50,70 L10,70 Z" fill="#F4A460" stroke="black" stroke-width="2"/>
        <path d="M10,10 L10,0 L50,0 L50,10" fill="#F4A460" stroke="black" stroke-width="2"/>
        <path d="M10,10 L30,20 L50,10" fill="none" stroke="black" stroke-width="2"/>
        <path d="M10,30 L30,40 L50,30" fill="none" stroke="black" stroke-width="2"/>
        <path d="M10,50 L30,60 L50,50" fill="none" stroke="black" stroke-width="2"/>
        <path d="M10,70 L30,80 L50,70" fill="none" stroke="black" stroke-width="2"/>
        <rect x="20" y="20" width="30" height="50" fill="none" stroke="black" stroke-width="2"/>
        <line x1="25" y1="30" x2="45" y2="30" stroke="black" stroke-width="2"/>
        <line x1="25" y1="45" x2="45" y2="45" stroke="black" stroke-width="2"/>
        <line x1="25" y1="60" x2="45" y2="60" stroke="black" stroke-width="2"/>
        <rect x="10" y="0" width="50" height="10" fill="#F4A460" stroke="black" stroke-width="2"/>
        <rect x="10" y="10" width="50" height="10" fill="#F4A460" stroke="black" stroke-width="2"/>
        <rect x="10" y="20" width="50" height="10" fill="#F4A460" stroke="black" stroke-width="2"/>
        <rect x="10" y="30" width="50" height="10" fill="#F4A460" stroke="black" stroke-width="2"/>
        <rect x="10" y="40" width="50" height="10" fill="#F4A460" stroke="black" stroke-width="2"/>
        <rect x="10" y="50" width="50" height="10" fill="#F4A460" stroke="black" stroke-width="2"/>
        <rect x="10" y="60" width="50" height="10" fill="#F4A460" stroke="black" stroke-width="2"/>
        <rect x="10" y="70" width="50" height="10" fill="#F4A460" stroke="black" stroke-width="2"/>
        <circle cx="60" cy="20" r="15" fill="#FF69B4" stroke="black" stroke-width="2"/>
        <text x="60" y="25" text-anchor="middle" fill="white" font-weight="bold" font-size="20">+</text>
      </g>
      <text x="35" y="180" text-anchor="middle" font-size="24" fill="black">Discard</text>
    </g>
  </g>

  <!-- Panel C: Generated Models -->
  <g transform="translate(450, 320)">
    <rect x="0" y="0" width="930" height="420" rx="30" fill="#F5F5F0" stroke="#999999" stroke-width="2" />
    
    <!-- Green Box -->
    <rect x="200" y="20" width="220" height="40" rx="10" fill="#E2F0D9" stroke="#92D050" stroke-width="3" stroke-dasharray="8,4"/>
    <text x="310" y="50" text-anchor="middle" font-size="24" fill="#556B2F" font-weight="bold">Generated Models</text>

    <!-- 3D Models -->
    <g transform="translate(100, 80)">
      <!-- Model 1 -->
      <g transform="translate(0, 0)">
        <ellipse cx="80" cy="100" rx="80" ry="30" fill="#C1B283" stroke="black" stroke-width="1"/>
        <ellipse cx="80" cy="100" rx="80" ry="30" fill="none" stroke="black" stroke-width="1"/>
        <ellipse cx="80" cy="100" rx="30" ry="15" fill="#C1B283" stroke="black" stroke-width="1"/>
        <ellipse cx="80" cy="100" rx="30" ry="15" fill="none" stroke="black" stroke-width="1"/>
        <path d="M0,100 L0,130 L160,130 L160,100 Z" fill="#C1B283" stroke="black" stroke-width="1"/>
        <path d="M0,100 L0,130 L160,130 L160,100 Z" fill="none" stroke="black" stroke-width="1"/>
      </g>
      <!-- Model 2 -->
      <g transform="translate(220, 0)">
        <ellipse cx="80" cy="100" rx="80" ry="30" fill="#C1B283" stroke="black" stroke-width="1"/>
        <ellipse cx="80" cy="100" rx="80" ry="30" fill="none" stroke="black" stroke-width="1"/>
        <ellipse cx="80" cy="100" rx="30" ry="15" fill="#C1B283" stroke="black" stroke-width="1"/>
        <ellipse cx="80" cy="100" rx="30" ry="15" fill="none" stroke="black" stroke-width="1"/>
        <path d="M0,100 L0,130 L160,130 L160,100 Z" fill="#C1B283" stroke="black" stroke-width="1"/>
        <path d="M0,100 L0,130 L160,130 L160,100 Z" fill="none" stroke="black" stroke-width="1"/>
        <circle cx="40" cy="100" r="8" fill="#C1B283" stroke="black" stroke-width="1"/>
        <circle cx="120" cy="100" r="8" fill="#C1B283" stroke="black" stroke-width="1"/>
      </g>
      <!-- Model 3 -->
      <g transform="translate(440, 0)">
        <ellipse cx="80" cy="100" rx="80" ry="30" fill="#C1B283" stroke="black" stroke-width="1"/>
        <ellipse cx="80" cy="100" rx="80" ry="30" fill="none" stroke="black" stroke-width="1"/>
        <ellipse cx="80" cy="100" rx="30" ry="15" fill="#C1B283" stroke="black" stroke-width="1"/>
        <ellipse cx="80" cy="100" rx="30" ry="15" fill="none" stroke="black" stroke-width="1"/>
        <path d="M0,100 L0,130 L160,130 L160,100 Z" fill="#C1B283" stroke="black" stroke-width="1"/>
        <path d="M0,100 L0,130 L160,130 L160,100 Z" fill="none" stroke="black" stroke-width="1"/>
        <circle cx="40" cy="100" r="8" fill="#C1B283" stroke="black" stroke-width="1"/>
        <circle cx="120" cy="100" r="8" fill="#C1B283" stroke="black" stroke-width="1"/>
        <circle cx="60" cy="60" r="8" fill="#C1B283" stroke="black" stroke-width="1"/>
        <circle cx="100" cy="60" r="8" fill="#C1B283" stroke="black" stroke-width="1"/>
      </g>
    </g>

    <!-- Green Arrow -->
    <path d="M200,140 L240,140 L240,120 L320,160 L320,180 L280,180 L280,200 L200,200 Z" fill="#92D050" stroke="#92D050" stroke-width="2"/>
    <path d="M320,160 L320,180" fill="none" stroke="#92D050" stroke-width="2"/>

    <!-- 3D Point Models Box -->
    <rect x="100" y="280" width="580" height="120" rx="15" fill="none" stroke="#666666" stroke-width="4" stroke-dasharray="10,10"/>
    <text x="390" y="360" text-anchor="middle" font-size="24" fill="#556B2F" font-weight="bold">3D Point Models</text>

    <!-- Point Models -->
    <g transform="translate(100, 300)">
      <!-- Model 1 -->
      <ellipse cx="80" cy="100" rx="80" ry="30" fill="#555555" stroke="black" stroke-width="1"/>
      <ellipse cx="80" cy="100" rx="80" ry="30" fill="none" stroke="black" stroke-width="1"/>
      <ellipse cx="80" cy="100" rx="30" ry="15" fill="#555555" stroke="black" stroke-width="1"/>
      <ellipse cx="80" cy="100" rx="30" ry="15" fill="none" stroke="black" stroke-width="1"/>
      <path d="M0,100 L0,130 L160,130 L160,100 Z" fill="#555555" stroke="black" stroke-width="1"/>
      <path d="M0,100 L0,130 L160,130 L160,100 Z" fill="none" stroke="black" stroke-width="1"/>
      <circle cx="40" cy="100" r="8" fill="#555555" stroke="black" stroke-width="1"/>
      <circle cx="120" cy="100" r="8" fill="#555555" stroke="black" stroke-width="1"/>
      <!-- Model 2 -->
      <g transform="translate(220, 0)">
        <ellipse cx="80" cy="100" rx="80" ry="30" fill="#555555" stroke="black" stroke-width="1"/>
        <ellipse cx="80" cy="100" rx="80" ry="30" fill="none" stroke="black" stroke-width="1"/>
        <ellipse cx="80" cy="100" rx="30" ry="15" fill="#555555" stroke="black" stroke-width="1"/>
        <ellipse cx="80" cy="100" rx="30" ry="15" fill="none" stroke="black" stroke-width="1"/>
        <path d="M0,100 L0,130 L160,130 L160,100 Z" fill="#555555" stroke="black" stroke-width="1"/>
        <path d="M0,100 L0,130 L160,130 L160,100 Z" fill="none" stroke="black" stroke-width="1"/>
        <circle cx="40" cy="100" r="8" fill="#555555" stroke="black" stroke-width="1"/>
        <circle cx="120" cy="100" r="8" fill="#555555" stroke="black" stroke-width="1"/>
        <circle cx="60" cy="60" r="8" fill="#555555" stroke="black" stroke-width="1"/>
        <circle cx="100" cy="60" r="8" fill="#555555" stroke="black" stroke-width="1"/>
      </g>
      <!-- Model 3 (Selected) -->
      <g transform="translate(440, 0)">
        <rect x="0" y="0" width="160" height="120" rx="20" fill="none" stroke="#FF0000" stroke-width="4" stroke-dasharray="15,10"/>
        <ellipse cx="80" cy="100" rx="80" ry="30" fill="#777777" stroke="black" stroke-width="1"/>
        <ellipse cx="80" cy="100" rx="80" ry="30" fill="none" stroke="black" stroke-width="1"/>
        <ellipse cx="80" cy="100" rx="30" ry="15" fill="#777777" stroke="black" stroke-width="1"/>
        <ellipse cx="80" cy="100" rx="30" ry="15" fill="none" stroke="black" stroke-width="1"/>
        <path d="M0,100 L0,130 L160,130 L160,100 Z" fill="#777777" stroke="black" stroke-width="1"/>
        <path d="M0,100 L0,130 L160,130 L160,100 Z" fill="none" stroke="black" stroke-width="1"/>
        <circle cx="40" cy="100" r="8" fill="#777777" stroke="black" stroke-width="1"/>
        <circle cx="120" cy="100" r="8" fill="#777777" stroke="black" stroke-width="1"/>
        <circle cx="60" cy="60" r="8" fill="#777777" stroke="black" stroke-width="1"/>
        <circle cx="100" cy="60" r="8" fill="#777777" stroke="black" stroke-width="1"/>
      </g>
    </g>
  </g>

  <!-- Panel D: Ground-Truth Models -->
  <g transform="translate(1180, 320)">
    <rect x="0" y="0" width="250" height="420" rx="30" fill="#F5F5F0" stroke="#999999" stroke-width="2" />
    
    <!-- Model -->
    <g transform="translate(50, 80)">
      <ellipse cx="80" cy="100" rx="80" ry="30" fill="#555555" stroke="black" stroke-width="1"/>
      <ellipse cx="80" cy="100" rx="80" ry="30" fill="none" stroke="black" stroke-width="1"/>
      <ellipse cx="80" cy="100" rx="30" ry="15" fill="#555555" stroke="black" stroke-width="1"/>
      <ellipse cx="80" cy="100" rx="30" ry="15" fill="none" stroke="black" stroke-width="1"/>
      <path d="M0,100 L0,130 L160,130 L160,100 Z" fill="#555555" stroke="black" stroke-width="1"/>
      <path d="M0,100 L0,130 L160,130 L160,100 Z" fill="none" stroke="black" stroke-width="1"/>
      <circle cx="40" cy="100" r="8" fill="#555555" stroke="black" stroke-width="1"/>
      <circle cx="120" cy="100" r="8" fill="#555555" stroke="black" stroke-width="1"/>
      <circle cx="60" cy="60" r="8" fill="#555555" stroke="black" stroke-width="1"/>
      <circle cx="100" cy="60" r="8" fill="#555555" stroke="black" stroke-width="1"/>
    </g>
    <text x="125" y="220" text-anchor="middle" font-size="24" fill="black">Ground–Truth Models</text>
    
    <!-- Arrow -->
    <line x1="125" y1="240" x2="125" y2="280" stroke="black" stroke-width="3" marker-end="url(#arrowhead)"/>
    <text x="135" y="260" font-size="24" fill="black">Sample</text>
  </g>

  <!-- Panel E: Python Code -->
  <g transform="translate(1180, 500)">
    <rect x="0" y="0" width="250" height="200" rx="30" fill="#F5F5F0" stroke="#999999" stroke-width="2" />
    
    <!-- Model -->
    <g transform="translate(50, 80)">
      <ellipse cx="80" cy="100" rx="80" ry="30" fill="#777777" stroke="black" stroke-width="1"/>
      <ellipse cx="80" cy="100" rx="80" ry="30" fill="none" stroke="black" stroke-width="1"/>
      <ellipse cx="80" cy="100" rx="30" ry="15" fill="#777777" stroke="black" stroke-width="1"/>
      <ellipse cx="80" cy="100" rx="30" ry="15" fill="none" stroke="black" stroke-width="1"/>
      <path d="M0,100 L0,130 L160,130 L160,100 Z" fill="#777777" stroke="black" stroke-width="1"/>
      <path d="M0,100 L0,130 L160,130 L160,100 Z" fill="none" stroke="black" stroke-width="1"/>
      <circle cx="40" cy="100" r="8" fill="#777777" stroke="black" stroke-width="1"/>
      <circle cx="120" cy="100" r="8" fill="#777777" stroke="black" stroke-width="1"/>
      <circle cx="60" cy="60" r="8" fill="#777777" stroke="black" stroke-width="1"/>
      <circle cx="100" cy="60" r="8" fill="#777777" stroke="black" stroke-width="1"/>
    </g>
    <text x="125" y="160" text-anchor="middle" font-size="24" fill="black">Python code</text>
    <text x="125" y="185" text-anchor="middle" font-size="24" fill="black">selection</text>
  </g>

  <!-- Panel F: Our Dataset -->
  <g transform="translate(1350, 320)">
    <rect x="0" y="0" width="300" height="420" rx="30" fill="#FBEFE5" stroke="#999999" stroke-width="2" />
    
    <!-- Model Icon -->
    <g transform="translate(20, 20)">
      <path d="M0,0 L60,0 L80,20 L80,90 L0,90 Z" fill="#F0F0F0" stroke="black" stroke-width="2"/>
      <polyline points="60,0 60,20 80,20" fill="none" stroke="black" stroke-width="2"/>
      <line x1="10" y1="30" x2="70" y2="30" stroke="black" stroke-width="2"/>
      <line x1="10" y1="45" x2="70" y2="45" stroke="black" stroke-width="2"/>
      <line x1="10" y1="60" x2="70" y2="60" stroke="black" stroke-width="2"/>
      <line x1="10" y1="75" x2="70" y2="75" stroke="black" stroke-width="2"/>
      <rect x="10" y="85" width="60" height="30" fill="#5F9EA0" stroke="black" stroke-width="2"/>
      <text x="40" y="105" text-anchor="middle" fill="white" font-weight="bold" font-size="18">STEP</text>
    </g>
    <text x="80" y="180" text-anchor="middle" font-size="20" fill="black">Model</text>

    <!-- Text Description Icon -->
    <g transform="translate(20, 190)">
      <path d="M0,0 L60,0 L80,20 L80,90 L0,90 Z" fill="white" stroke="black" stroke-width="2"/>
      <polyline points="60,0 60,20 80,20" fill="none" stroke="black" stroke-width="2"/>
      <line x1="10" y1="30" x2="70" y2="30" stroke="black" stroke-width="2"/>
      <line x1="10" y1="45" x2="70" y2="45" stroke="black" stroke-width="2"/>
      <line x1="10" y1="60" x2="70" y2="60" stroke="black" stroke-width="2"/>
      <line x1="10" y1="75" x2="70" y2="75" stroke="black" stroke-width="2"/>
      <rect x="10" y="85" width="60" height="30" fill="#5F9EA0" stroke="black" stroke-width="2"/>
      <text x="40" y="105" text-anchor="middle" fill="white" font-weight="bold" font-size="18">TEXT</text>
    </g>
    <text x="80" y="300" text-anchor="middle" font-size="20" fill="black">Text</text>
    <text x="80" y="325" text-anchor="middle" font-size="20" fill="black">Description</text>

    <!-- CadQuery -->
    <g transform="translate(20, 350)">
      <rect x="0" y="0" width="70" height="90" fill="#2E75B6" stroke="black" stroke-width="2"/>
      <text x="35" y="60" text-anchor="middle" fill="white" font-size="50" font-weight="bold">cq</text>
      <text x="35" y="120" text-anchor="middle" font-size="24" fill="black">CadQuery</text>
    </g>
  </g>

  <!-- Connectors -->
  <!-- Green Arrow from Panel B to C -->
  <path d="M420,480 L320,480 L320,400 L360,400" fill="none" stroke="#92D050" stroke-width="3" marker-end="url(#arrowhead-green)"/>
  <path d="M420,480 L420,500 L460,500 L460,500" fill="none" stroke="#92D050" stroke-width="3" marker-end="url(#arrowhead-green)"/>

  <!-- Red Arrow from Panel B to C -->
  <path d="M420,480 L420,500 L460,500 L460,500" fill="none" stroke="#FF0000" stroke-width="3" marker-end="url(#arrowhead-red)"/>

  <!-- Pink Arrow from Panel E to C -->
  <path d="M1180,680 L1380,680" fill="none" stroke="#FFC0CB" stroke-width="3" marker-end="url(#arrowhead)"/>
  <path d="M1180,680 L1100,680 L1100,610" fill="none" stroke="#FFC0CB" stroke-width="3" marker-end="url(#arrowhead)"/>

  <!-- Black Arrow from Panel F to E -->
  <path d="M1450,480 L1500,480 L1500,550 L1490,550" fill="none" stroke="black" stroke-width="3" marker-end="url(#arrowhead)"/>

  <!-- Sample Arrow from C to E -->
  <line x1="810" y1="520" x2="810" y2="570" stroke="black" stroke-width="3" marker-end="url(#arrowhead)"/>
  <text x="820" y="550" font-size="24" fill="black">Sample</text>

  <!-- Chamfer Distance Arrow -->
  <line x1="1100" y1="620" x2="1140" y2="620" stroke="#FFC0CB" stroke-width="3" marker-end="url(#arrowhead)"/>
  <text x="1120" y="590" text-anchor="middle" font-size="24" fill="black">Chamfer</text>
  <text x="1120" y="615" text-anchor="middle" font-size="24" fill="black">Distance</text>

</svg>