<svg xmlns="http://www.w3.org/2000/svg" viewBox="-5.0 -5.0 1774.0 1033.0" style="font-family: 'Times New Roman', serif; background-color: white;">
  <defs>
    <!-- Gradients -->
    <linearGradient id="gradBlue" x1="0%" y1="0%" x2="100%" y2="0%">
      <stop offset="0%" style="stop-color:#ADD8E6;stop-opacity:1" />
      <stop offset="100%" style="stop-color:#4682B4;stop-opacity:1" />
    </linearGradient>
    <linearGradient id="gradYellow" x1="0%" y1="0%" x2="100%" y2="0%">
      <stop offset="0%" style="stop-color:#FFFACD;stop-opacity:1" />
      <stop offset="100%" style="stop-color:#DAA520;stop-opacity:1" />
    </linearGradient>
    <linearGradient id="gradOrange" x1="0%" y1="0%" x2="100%" y2="0%">
      <stop offset="0%" style="stop-color:#FFDAB9;stop-opacity:1" />
      <stop offset="100%" style="stop-color:#D2691E;stop-opacity:1" />
    </linearGradient>
    <linearGradient id="gradGrey" x1="0%" y1="0%" x2="100%" y2="0%">
      <stop offset="0%" style="stop-color:#F0F0F0;stop-opacity:1" />
      <stop offset="100%" style="stop-color:#A9A9A9;stop-opacity:1" />
    </linearGradient>
    <linearGradient id="gradTeal" x1="0%" y1="0%" x2="0%" y2="100%">
      <stop offset="0%" style="stop-color:#E0FFFF;stop-opacity:1" />
      <stop offset="100%" style="stop-color:#B0E0E6;stop-opacity:1" />
    </linearGradient>
    <linearGradient id="gradCream" x1="0%" y1="0%" x2="0%" y2="100%">
      <stop offset="0%" style="stop-color:#FFF8DC;stop-opacity:1" />
      <stop offset="100%" style="stop-color:#F5F5DC;stop-opacity:1" />
    </linearGradient>
    <linearGradient id="gradBeige" x1="0%" y1="0%" x2="0%" y2="100%">
      <stop offset="0%" style="stop-color:#FFE4B5;stop-opacity:1" />
      <stop offset="100%" style="stop-color:#FFDAB9;stop-opacity:1" />
    </linearGradient>
    <linearGradient id="gradGreyArrow" x1="0%" y1="0%" x2="100%" y2="0%">
      <stop offset="0%" style="stop-color:#D3D3D3;stop-opacity:1" />
      <stop offset="100%" style="stop-color:#808080;stop-opacity:1" />
    </linearGradient>
    <linearGradient id="gradBlueArrow" x1="0%" y1="0%" x2="100%" y2="0%">
      <stop offset="0%" style="stop-color:#E6F2FF;stop-opacity:1" />
      <stop offset="100%" style="stop-color:#B0C4DE;stop-opacity:1" />
    </linearGradient>
    <linearGradient id="gradYellowArrow" x1="0%" y1="0%" x2="100%" y2="0%">
      <stop offset="0%" style="stop-color:#FFFFE0;stop-opacity:1" />
      <stop offset="100%" style="stop-color:#F0E68C;stop-opacity:1" />
    </linearGradient>
    <linearGradient id="gradOrangeArrow" x1="0%" y1="0%" x2="100%" y2="0%">
      <stop offset="0%" style="stop-color:#FFDAB9;stop-opacity:1" />
      <stop offset="100%" style="stop-color:#F4A460;stop-opacity:1" />
    </linearGradient>
    <linearGradient id="gradGreenArrow" x1="0%" y1="0%" x2="100%" y2="0%">
      <stop offset="0%" style="stop-color:#E0EEE0;stop-opacity:1" />
      <stop offset="100%" style="stop-color:#C1E1C1;stop-opacity:1" />
    </linearGradient>
    <linearGradient id="gradRedArrow" x1="0%" y1="0%" x2="100%" y2="0%">
      <stop offset="0%" style="stop-color:#FFF0F5;stop-opacity:1" />
      <stop offset="100%" style="stop-color:#FFC0CB;stop-opacity:1" />
    </linearGradient>
    <linearGradient id="gradDarkBlueArrow" x1="0%" y1="0%" x2="100%" y2="0%">
      <stop offset="0%" style="stop-color:#B0C4DE;stop-opacity:1" />
      <stop offset="100%" style="stop-color:#4682B4;stop-opacity:1" />
    </linearGradient>
    <linearGradient id="gradDarkOrangeArrow" x1="0%" y1="0%" x2="100%" y2="0%">
      <stop offset="0%" style="stop-color:#FFDAB9;stop-opacity:1" />
      <stop offset="100%" style="stop-color:#D2691E;stop-opacity:1" />
    </linearGradient>

    <!-- Filters -->
    <filter id="shadow" x="-20%" y="-20%" width="140%" height="140%">
      <feGaussianBlur in="SourceAlpha" stdDeviation="2"/>
      <feOffset dx="2" dy="2" result="offsetblur"/>
      <feComponentTransfer>
        <feFuncA type="linear" slope="0.3"/>
      </feComponentTransfer>
      <feMerge>
        <feMergeNode/>
        <feMergeNode in="SourceGraphic"/>
      </feMerge>
    </filter>

    <!-- Reusable Objects -->
    <g id="neuralBlock">
      <rect x="0" y="0" width="20" height="100" rx="3" fill="#4682B4" stroke="#001f3f" stroke-width="3"/>
      <rect x="25" y="0" width="20" height="100" rx="3" fill="#4682B4" stroke="#001f3f" stroke-width="3"/>
      <rect x="50" y="0" width="20" height="100" rx="3" fill="#4682B4" stroke="#001f3f" stroke-width="3"/>
      <rect x="75" y="0" width="20" height="100" rx="3" fill="#4682B4" stroke="#001f3f" stroke-width="3"/>
    </g>
    
    <g id="neuralBlockYellow">
      <rect x="0" y="0" width="20" height="100" rx="3" fill="#F4C430" stroke="#001f3f" stroke-width="3"/>
      <rect x="25" y="0" width="20" height="100" rx="3" fill="#F4C430" stroke="#001f3f" stroke-width="3"/>
      <rect x="50" y="0" width="20" height="100" rx="3" fill="#F4C430" stroke="#001f3f" stroke-width="3"/>
      <rect x="75" y="0" width="20" height="100" rx="3" fill="#F4C430" stroke="#001f3f" stroke-width="3"/>
    </g>

    <g id="neuralBlockDark">
      <rect x="0" y="0" width="20" height="100" rx="3" fill="#2c3e50" stroke="#001f3f" stroke-width="3"/>
      <rect x="25" y="0" width="20" height="100" rx="3" fill="#2c3e50" stroke="#001f3f" stroke-width="3"/>
      <rect x="50" y="0" width="20" height="100" rx="3" fill="#2c3e50" stroke="#001f3f" stroke-width="3"/>
      <rect x="75" y="0" width="20" height="100" rx="3" fill="#2c3e50" stroke="#001f3f" stroke-width="3"/>
    </g>

    <g id="fMRIIcon">
      <rect x="0" y="0" width="140" height="100" rx="5" fill="#333" stroke="#001f3f" stroke-width="4"/>
      <rect x="10" y="10" width="120" height="80" fill="white" stroke="#001f3f" stroke-width="2"/>
      <!-- Brain -->
      <path d="M70 15 C50 15 35 25 35 40 C35 50 40 55 45 60 C40 65 35 75 35 85 C35 95 50 95 60 95 C65 95 70 90 70 85 C70 90 75 95 80 95 C90 95 105 95 105 85 C105 75 100 65 105 60 C110 55 115 50 115 40 C115 25 100 15 80 15 Z" fill="#FFCBA4" stroke="#000" stroke-width="2"/>
      <path d="M70 15 V95 M35 40 H105 M40 60 H100 M35 80 H105" stroke="#000" stroke-width="1.5" fill="none"/>
      <!-- Monitor Stand -->
      <rect x="60" y="100" width="20" height="15" fill="#333" stroke="#001f3f" stroke-width="2"/>
      <rect x="40" y="115" width="60" height="10" rx="2" fill="#333" stroke="#001f3f" stroke-width="2"/>
      <rect x="30" y="125" width="80" height="10" rx="2" fill="#333" stroke="#001f3f" stroke-width="2"/>
      <!-- ECG -->
      <polyline points="130,5 135,5 140,20 145,5 150,5 155,30 160,5 165,5 170,25 175,5" fill="none" stroke="#000" stroke-width="2"/>
    </g>

    <g id="personIcon">
        <path d="M20,60 Q10,80 0,100 H80 Q70,80 60,60" fill="#333" stroke="#000" stroke-width="2"/>
        <circle cx="40" cy="30" r="20" fill="#FFCBA4" stroke="#000" stroke-width="2"/>
        <path d="M20,30 Q40,10 60,30" fill="#333" stroke="#000" stroke-width="2"/>
    </g>
    
    <g id="snowflake">
        <path d="M20,0 L20,40 M0,20 L40,20 M6,6 L34,34 M6,34 L34,6" stroke="#87CEEB" stroke-width="4" stroke-linecap="round"/>
        <path d="M20,5 L15,10 M20,5 L25,10 M20,35 L15,30 M20,35 L25,30 M5,20 L10,15 M5,20 L10,25 M35,20 L30,15 M35,20 L30,25" stroke="#87CEEB" stroke-width="3" stroke-linecap="round"/>
    </g>
  </defs>

  <!-- ================= TRAINING PANEL ================= -->
  <g transform="translate(0,0)">
    <!-- Backgrounds -->
    <rect x="0" y="0" width="1600" height="650" rx="20" fill="#F8F8F8" stroke="#ddd" stroke-width="2"/>
    <rect x="10" y="10" width="1580" height="630" rx="20" fill="none" stroke="#ddd" stroke-width="2"/>
    
    <!-- Top Headers -->
    <rect x="10" y="20" width="310" height="70" rx="10" fill="#E0F0E0"/>
    <text x="165" y="70" font-size="60" font-weight="bold" font-style="italic" text-anchor="middle" fill="black">Training</text>
    
    <rect x="320" y="20" width="600" height="70" rx="10" fill="#F0F8FF"/>
    <text x="620" y="60" font-size="45" font-weight="bold" font-style="italic" text-anchor="middle" fill="#5F9EA0">Subject-Invariant Feature Extraction</text>
    
    <rect x="920" y="20" width="670" height="70" rx="10" fill="#FFF8E7"/>
    <text x="1255" y="60" font-size="45" font-weight="bold" font-style="italic" text-anchor="middle" fill="#D2691E">Semantic-Specific Feature Extraction</text>

    <!-- LEFT COLUMN: INPUTS -->
    <g transform="translate(50, 150)">
        <!-- Subject Group -->
        <g transform="translate(50,0)">
            <text x="0" y="50" font-size="50" font-weight="bold">?</text>
            <text x="50" y="50" font-size="50" font-weight="bold">?</text>
            <text x="100" y="50" font-size="50" font-weight="bold">?</text>
            <!-- Avatars -->
            <g transform="translate(0, 70)">
                <path d="M10,50 Q0,70 0,90 H50 Q50,70 40,50" fill="#8B4513" stroke="#000" stroke-width="2"/>
                <circle cx="25" cy="25" r="18" fill="#FFCBA4" stroke="#000" stroke-width="2"/>
                <path d="M10,25 Q25,5 40,25" fill="#5D4037" stroke="#000" stroke-width="2"/>
            </g>
            <g transform="translate(60, 70)">
                <path d="M10,50 Q0,70 0,90 H50 Q50,70 40,50" fill="#FFD700" stroke="#000" stroke-width="2"/>
                <circle cx="25" cy="25" r="18" fill="#FFCBA4" stroke="#000" stroke-width="2"/>
                <path d="M10,25 Q25,5 40,25" fill="#DAA520" stroke="#000" stroke-width="2"/>
            </g>
            <g transform="translate(120, 70)">
                <path d="M10,50 Q0,70 0,90 H50 Q50,70 40,50" fill="#4682B4" stroke="#000" stroke-width="2"/>
                <circle cx="25" cy="25" r="18" fill="#FFCBA4" stroke="#000" stroke-width="2"/>
                <path d="M10,25 Q25,5 40,25" fill="#2c3e50" stroke="#000" stroke-width="2"/>
            </g>
            <text x="0" y="150" font-size="40" font-weight="bold" font-style="italic">Subject</text>
        </g>
        
        <!-- Semantic Group -->
        <g transform="translate(1400, 0)">
            <text x="0" y="50" font-size="50" font-weight="bold">?</text>
            <text x="50" y="50" font-size="50" font-weight="bold">?</text>
            <text x="100" y="50" font-size="50" font-weight="bold">?</text>
            <!-- Avatars -->
            <g transform="translate(0, 70)">
                <path d="M10,50 Q0,70 0,90 H50 Q50,70 40,50" fill="#CD853F" stroke="#000" stroke-width="2"/>
                <circle cx="25" cy="25" r="18" fill="#8B4513" stroke="#000" stroke-width="2"/>
                <path d="M15,30 L35,30 L25,45 Z" fill="#FFF" stroke="#000" stroke-width="1"/>
                <circle cx="25" cy="30" r="5" fill="#8B4513"/>
            </g>
            <g transform="translate(60, 70)">
                <path d="M10,50 Q0,70 0,90 H50 Q50,70 40,50" fill="#D2691E" stroke="#000" stroke-width="2"/>
                <circle cx="25" cy="25" r="18" fill="#8B4513" stroke="#000" stroke-width="2"/>
                <path d="M10,25 Q25,5 40,25" fill="#8B4513" stroke="#000" stroke-width="2"/>
            </g>
            <g transform="translate(120, 70)">
                <path d="M10,50 Q0,70 0,90 H50 Q50,70 40,50" fill="#FFF" stroke="#000" stroke-width="2"/>
                <circle cx="25" cy="25" r="18" fill="#FFCBA4" stroke="#000" stroke-width="2"/>
                <path d="M10,25 Q25,5 40,25" fill="#FFF" stroke="#000" stroke-width="2"/>
                <circle cx="25" cy="30" r="5" fill="#000"/>
            </g>
            <text x="0" y="150" font-size="40" font-weight="bold" font-style="italic">Semantic</text>
        </g>
        
        <!-- Loss Arrows -->
        <g transform="translate(180, 20)">
            <path d="M0,0 L80,-60 L70,-65 M80,-60 L70,-55 M0,0 L10,5 M0,0 L5,-10" stroke="url(#gradBlueArrow)" stroke-width="15" fill="none" stroke-linecap="round"/>
            <path d="M80,-60 L90,-55 M80,-60 L90,-65" stroke="url(#gradBlueArrow)" stroke-width="15" fill="none" stroke-linecap="round"/>
            <text x="-40" y="-30" font-size="60" font-family="serif" font-style="italic" fill="#4682B4">ℒ<tspan dy="-20" font-size="40">E</tspan><tspan dy="20" dx="-10" font-size="40">cls</tspan></text>
        </g>
        <g transform="translate(180, 120)">
            <path d="M0,0 L80,-60 L70,-65 M80,-60 L70,-55 M0,0 L10,5 M0,0 L5,-10" stroke="url(#gradBlueArrow)" stroke-width="15" fill="none" stroke-linecap="round"/>
            <path d="M80,-60 L90,-55 M80,-60 L90,-65" stroke="url(#gradBlueArrow)" stroke-width="15" fill="none" stroke-linecap="round"/>
            <text x="-40" y="-30" font-size="60" font-family="serif" font-style="italic" fill="#4682B4">ℒ<tspan dy="-20" font-size="40">E</tspan><tspan dy="20" dx="-10" font-size="40">dis</tspan></text>
        </g>
    </g>

    <!-- CENTER LEFT: ViT & Features -->
    <g transform="translate(50, 380)">
        <!-- fMRI -->
        <g transform="translate(50, 0)">
            <text x="30" y="-10" font-size="40" font-weight="bold" fill="#808080">fMRI</text>
            <use href="#fMRIIcon" />
        </g>
        <!-- Subjects -->
        <g transform="translate(40, 130)">
            <use href="#personIcon" transform="scale(1.5)"/>
            <use href="#personIcon" x="60" transform="scale(1.5)"/>
            <use href="#personIcon" x="120" transform="scale(1.5)"/>
            <use href="#personIcon" y="-40" x="60" transform="scale(1.5)"/>
            <use href="#personIcon" y="-80" x="120" transform="scale(1.5)"/>
            <text x="-20" y="160" font-size="40" font-family="serif">Train Subjects</text>
        </g>
        
        <!-- ViT -->
        <g transform="translate(230, 20)">
            <path d="M0,0 L180,-40 L180,180 L0,140 Z" fill="url(#gradTeal)" stroke="#001f3f" stroke-width="4" filter="url(#shadow)"/>
            <text x="60" y="90" font-size="45" font-weight="bold">ViT</text>
        </g>
        
        <!-- Arrow to ViT -->
        <g transform="translate(160, 80)">
            <path d="M0,20 L80,20 L80,0 L120,35 L80,70 L80,50 L0,50 Z" fill="url(#gradBlueArrow)" stroke="#001f3f" stroke-width="3"/>
            <path d="M5,25 L5,45 M115,25 L115,45" stroke="#4682B4" stroke-width="2"/>
        </g>
        
        <!-- Arrow from ViT -->
        <g transform="translate(330, 80)">
            <path d="M0,20 L80,20 L80,0 L120,35 L80,70 L80,50 L0,50 Z" fill="url(#gradBlueArrow)" stroke="#001f3f" stroke-width="3"/>
            <path d="M5,25 L5,45 M115,25 L115,45" stroke="#4682B4" stroke-width="2"/>
        </g>
        
        <!-- Feature Stack E -->
        <g transform="translate(430, 60)">
            <use href="#neuralBlock" />
            <text x="20" y="140" font-size="50" font-weight="bold" font-style="italic">E</text>
            <text x="-60" y="-10" font-size="60" font-family="serif" font-style="italic">F<tspan dy="10" font-size="40">i</tspan><tspan dy="-10">(·)</tspan></text>
        </g>
        
        <!-- Up Arrow to Ei -->
        <g transform="translate(460, 40)">
             <path d="M20,0 L20,-80 L0,-80 L30,-120 L60,-80 L40,-80 L40,0 Z" fill="url(#gradBlueArrow)" stroke="#001f3f" stroke-width="3"/>
        </g>
    </g>

    <!-- CENTER: Processing -->
    <g transform="translate(450, 100)">
        <!-- CLS -->
        <g transform="translate(-150, 30)">
            <rect x="0" y="0" width="130" height="60" rx="10" fill="#ADD8E6" stroke="#001f3f" stroke-width="4" filter="url(#shadow)"/>
            <rect x="5" y="5" width="120" height="50" rx="8" fill="none" stroke="white" stroke-width="2"/>
            <text x="65" y="40" font-size="40" font-weight="bold" text-anchor="middle">CLS</text>
        </g>
        
        <!-- Top Branch (Subject) -->
        <g transform="translate(0, 0)">
            <use href="#neuralBlock" />
            <text x="110" y="100" font-size="50" font-weight="bold" font-style="italic">E<tspan dy="10" font-size="30">s</tspan></text>
            <!-- Arrow to Projector -->
            <g transform="translate(150, 30)">
                <path d="M0,15 L350,15 L350,0 L390,30 L350,60 L350,45 L0,45 Z" fill="url(#gradBlueArrow)" stroke="#001f3f" stroke-width="3"/>
            </g>
            <!-- Arrow from Projector -->
            <g transform="translate(420, 30)">
                <path d="M0,15 L350,15 L350,0 L390,30 L350,60 L350,45 L0,45 Z" fill="url(#gradYellowArrow)" stroke="#001f3f" stroke-width="3"/>
            </g>
            <!-- GRL -->
            <g transform="translate(580, 50)">
                <rect x="0" y="0" width="130" height="60" rx="10" fill="#FFC0CB" stroke="#001f3f" stroke-width="4" filter="url(#shadow)"/>
                <rect x="5" y="5" width="120" height="50" rx="8" fill="none" stroke="white" stroke-width="2"/>
                <text x="65" y="40" font-size="40" font-weight="bold" text-anchor="middle">GRL</text>
            </g>
            <!-- Fi Feature -->
            <g transform="translate(750, 0)">
                <use href="#neuralBlock" />
                <text x="0" y="100" font-size="50" font-weight="bold" font-style="italic">F<tspan dy="10" font-size="30">i</tspan></text>
            </g>
        </g>
        
        <!-- Middle Branch (Difference) -->
        <g transform="translate(0, 150)">
            <!-- Minus Circle -->
            <circle cx="60" cy="30" r="25" fill="none" stroke="#001f3f" stroke-width="6"/>
            <line x1="35" y1="30" x2="85" y2="30" stroke="black" stroke-width="6"/>
            <!-- Arrow Up -->
            <line x1="60" y1="5" x2="60" y2="-30" stroke="#ccc" stroke-width="5"/>
            <polygon points="50,-30 70,-30 60,-45" fill="#ccc"/>
            <!-- Arrow Down -->
            <line x1="60" y1="55" x2="60" y2="100" stroke="#ccc" stroke-width="5"/>
            <polygon points="50,100 70,100 60,115" fill="#ccc"/>
            
            <text x="100" y="40" font-size="40" font-weight="bold" font-style="italic">Difference</text>
            
            <!-- Ei Feature -->
            <g transform="translate(0, 80)">
                <use href="#neuralBlock" />
                <text x="110" y="100" font-size="50" font-weight="bold" font-style="italic">E<tspan dy="10" font-size="30">i</tspan></text>
                <!-- Arrow to Projector -->
                <g transform="translate(150, 30)">
                    <path d="M0,15 L350,15 L350,0 L390,30 L350,60 L350,45 L0,45 Z" fill="url(#gradBlueArrow)" stroke="#001f3f" stroke-width="3"/>
                </g>
                <!-- Arrow from Projector -->
                <g transform="translate(420, 30)">
                    <path d="M0,15 L350,15 L350,0 L390,30 L350,60 L350,45 L0,45 Z" fill="url(#gradYellowArrow)" stroke="#001f3f" stroke-width="3"/>
                </g>
                <!-- FS Feature -->
                <g transform="translate(750, 0)">
                    <use href="#neuralBlockYellow" />
                    <text x="0" y="100" font-size="50" font-weight="bold" font-style="italic">F<tspan dy="10" font-size="30">s</tspan></text>
                </g>
            </g>
        </g>
        
        <!-- Bottom Branch (Semantic) -->
        <g transform="translate(0, 350)">
            <use href="#neuralBlock" />
            <!-- Arrow to Projector -->
            <g transform="translate(150, 30)">
                <path d="M0,15 L350,15 L350,0 L390,30 L350,60 L350,45 L0,45 Z" fill="url(#gradBlueArrow)" stroke="#001f3f" stroke-width="3"/>
            </g>
            <!-- Arrow from Projector -->
            <g transform="translate(420, 30)">
                <path d="M0,15 L350,15 L350,0 L390,30 L350,60 L350,45 L0,45 Z" fill="url(#gradYellowArrow)" stroke="#001f3f" stroke-width="3"/>
            </g>
            <!-- F Feature -->
            <g transform="translate(750, 0)">
                <use href="#neuralBlockYellow" />
                <text x="110" y="100" font-size="50" font-weight="bold" font-style="italic">F</text>
            </g>
        </g>
        
        <!-- Projector Boxes -->
        <g transform="translate(420, 10)">
            <rect x="0" y="0" width="260" height="120" rx="20" fill="#F5F5DC" stroke="#001f3f" stroke-width="4" filter="url(#shadow)"/>
            <rect x="5" y="5" width="250" height="110" rx="15" fill="none" stroke="white" stroke-width="2"/>
            <text x="130" y="45" font-size="40" font-weight="bold" text-anchor="middle">Vision</text>
            <text x="130" y="90" font-size="40" font-weight="bold" text-anchor="middle">Projector</text>
            <text x="130" y="150" font-size="60" font-family="serif" font-style="italic" text-anchor="middle">P<tspan dy="10" font-size="40">i</tspan><tspan dy="-10">(·)</tspan></text>
        </g>
        <g transform="translate(420, 180)">
            <rect x="0" y="0" width="260" height="120" rx="20" fill="#F5F5DC" stroke="#001f3f" stroke-width="4" filter="url(#shadow)"/>
            <rect x="5" y="5" width="250" height="110" rx="15" fill="none" stroke="white" stroke-width="2"/>
            <text x="130" y="45" font-size="40" font-weight="bold" text-anchor="middle">Vision</text>
            <text x="130" y="90" font-size="40" font-weight="bold" text-anchor="middle">Projector</text>
            <text x="130" y="150" font-size="60" font-family="serif" font-style="italic" text-anchor="middle">P<tspan dy="10" font-size="40">s</tspan><tspan dy="-10">(·)</tspan></text>
        </g>
        <g transform="translate(420, 350)">
            <rect x="0" y="0" width="260" height="120" rx="20" fill="#F5F5DC" stroke="#001f3f" stroke-width="4" filter="url(#shadow)"/>
            <rect x="5" y="5" width="250" height="110" rx="15" fill="none" stroke="white" stroke-width="2"/>
            <text x="130" y="45" font-size="40" font-weight="bold" text-anchor="middle">Vision</text>
            <text x="130" y="90" font-size="40" font-weight="bold" text-anchor="middle">Projector</text>
            <text x="130" y="150" font-size="60" font-family="serif" font-style="italic" text-anchor="middle">P(·)</text>
        </g>
        
        <!-- GRL DIS -->
        <g transform="translate(-150, 180)">
            <rect x="0" y="0" width="130" height="60" rx="10" fill="#FFC0CB" stroke="#001f3f" stroke-width="4" filter="url(#shadow)"/>
            <rect x="5" y="5" width="120" height="50" rx="8" fill="none" stroke="white" stroke-width="2"/>
            <text x="65" y="40" font-size="40" font-weight="bold" text-anchor="middle">GRL</text>
            <rect x="20" y="60" width="130" height="60" rx="10" fill="#ADD8E6" stroke="#001f3f" stroke-width="4" filter="url(#shadow)"/>
            <rect x="25" y="65" width="120" height="50" rx="8" fill="none" stroke="white" stroke-width="2"/>
            <text x="85" y="100" font-size="40" font-weight="bold" text-anchor="middle">DIS</text>
        </g>
        
        <!-- Minus Circle 2 -->
        <g transform="translate(800, 100)">
            <circle cx="60" cy="30" r="25" fill="none" stroke="#001f3f" stroke-width="6"/>
            <line x1="35" y1="30" x2="85" y2="30" stroke="black" stroke-width="6"/>
            <line x1="60" y1="5" x2="60" y2="-30" stroke="#ccc" stroke-width="5"/>
            <polygon points="50,-30 70,-30 60,-45" fill="#ccc"/>
            <line x1="60" y1="55" x2="60" y2="100" stroke="#ccc" stroke-width="5"/>
            <polygon points="50,100 70,100 60,115" fill="#ccc"/>
        </g>
        
        <!-- Curved Arrows -->
        <path d="M100,180 Q100,300 10,300" fill="none" stroke="#ccc" stroke-width="8"/>
        <polygon points="10,300 20,290 20,310" fill="#ccc"/>
        <path d="M860,130 Q950,200 950,300" fill="none" stroke="#ccc" stroke-width="8"/>
        <polygon points="950,300 940,290 960,290" fill="#ccc"/>
        <path d="M860,350 Q950,300 950,200" fill="none" stroke="#ccc" stroke-width="8"/>
        <polygon points="950,200 940,210 960,210" fill="#ccc"/>
    </g>

    <!-- RIGHT COLUMN: OUTPUTS -->
    <g transform="translate(1300, 100)">
        <!-- Loss Arrows -->
        <g transform="translate(0, 50)">
            <path d="M0,0 L80,60 L70,65 M80,60 L70,55 M0,0 L10,5 M0,0 L5,-10" stroke="url(#gradYellowArrow)" stroke-width="15" fill="none" stroke-linecap="round"/>
            <path d="M80,60 L90,55 M80,60 L90,65" stroke="url(#gradYellowArrow)" stroke-width="15" fill="none" stroke-linecap="round"/>
            <text x="-40" y="40" font-size="60" font-family="serif" font-style="italic" fill="#DAA520">ℒ<tspan dy="-20" font-size="40">F</tspan><tspan dy="20" dx="-10" font-size="40">inv</tspan></text>
        </g>
        <g transform="translate(0, 150)">
            <path d="M0,0 L80,60 L70,65 M80,60 L70,55 M0,0 L10,5 M0,0 L5,-10" stroke="url(#gradOrangeArrow)" stroke-width="15" fill="none" stroke-linecap="round"/>
            <path d="M80,60 L90,55 M80,60 L90,65" stroke="url(#gradOrangeArrow)" stroke-width="15" fill="none" stroke-linecap="round"/>
            <text x="-40" y="40" font-size="60" font-family="serif" font-style="italic" fill="#DAA520">ℒ<tspan dy="-20" font-size="40">F</tspan><tspan dy="20" dx="-10" font-size="40">spe</tspan></text>
        </g>
        
        <!-- Visual Stimuli -->
        <g transform="translate(100, 280)">
            <g transform="translate(0, 0)">
                <rect x="0" y="0" width="280" height="80" rx="10" fill="#E0FFFF" stroke="#001f3f" stroke-width="4" filter="url(#shadow)"/>
                <rect x="5" y="5" width="270" height="70" rx="8" fill="none" stroke="white" stroke-width="2"/>
                <circle cx="40" cy="40" r="20" fill="#F4C430" stroke="#001f3f" stroke-width="3"/>
                <line x1="65" y1="40" x2="105" y2="40" stroke="url(#gradOrangeArrow)" stroke-width="4"/>
                <circle cx="130" cy="40" r="20" fill="#F4A460" stroke="#001f3f" stroke-width="3"/>
                <line x1="155" y1="40" x2="195" y2="40" stroke="url(#gradOrangeArrow)" stroke-width="4"/>
                <circle cx="220" cy="40" r="20" fill="#D2691E" stroke="#001f3f" stroke-width="3"/>
            </g>
            <text x="0" y="130" font-size="60" font-family="serif" font-style="italic" fill="#D2691E">L<tspan dy="10" font-size="40">prior</tspan></text>
            
            <!-- Images -->
            <g transform="translate(100, 180)">
                <rect x="0" y="0" width="160" height="100" rx="5" fill="#FFF" stroke="#001f3f" stroke-width="4" filter="url(#shadow)"/>
                <rect x="10" y="10" width="140" height="80" fill="#87CEEB" stroke="#001f3f" stroke-width="2"/>
                <path d="M10,70 L30,50 L50,70 L70,50 L90,70 L110,60 L150,90 V10 H10 Z" fill="white" stroke="#000" stroke-width="2"/>
                
                <rect x="60" y="40" width="160" height="100" rx="5" fill="#FFF" stroke="#001f3f" stroke-width="4" filter="url(#shadow)"/>
                <rect x="70" y="50" width="140" height="80" fill="#87CEEB" stroke="#001f3f" stroke-width="2"/>
                <path d="M70,110 L90,80 L120,110 L140,90 L160,110 L180,100 L200,120 V60 H70 Z" fill="#6B8E23" stroke="#000" stroke-width="2"/>
                <circle cx="110" cy="70" r="10" fill="#FFD700"/>
                
                <text x="-40" y="180" font-size="40" font-family="serif">Visual Stimuli</text>
            </g>
            
            <!-- Curved Arrow from F -->
            <path d="M-100, -50 L-100, 50 Q-100, 100 0, 100" fill="none" stroke="url(#gradOrangeArrow)" stroke-width="20"/>
            <polygon points="0,90 20,100 -10,110" fill="#D2691E"/>
            
            <!-- Vertical Arrow -->
            <g transform="translate(220, 100)">
                <path d="M0,0 L0,80 L-10,80 M0,80 L10,80 M0,80 L0,100" stroke="url(#gradGreenArrow)" stroke-width="15" fill="none"/>
                <polygon points="-10,0 10,0 0,-15" fill="#C1E1C1"/>
                <polygon points="-10,100 10,100 0,115" fill="#C1E1C1"/>
            </g>
        </g>
    </g>
    
    <!-- Bottom Left Decoder -->
    <g transform="translate(500, 520)">
        <path d="M0,20 L220,0 L220,140 L0,120 Z" fill="#B0C4DE" stroke="#001f3f" stroke-width="4" filter="url(#shadow)"/>
        <text x="60" y="80" font-size="40" font-weight="bold">Decoder</text>
        <path d="M230,50 L270,50 L270,35 L300,60 L270,85 L270,70 L230,70 Z" fill="url(#gradBlueArrow)" stroke="#001f3f" stroke-width="3"/>
        <path d="M310,50 L350,50 L350,35 L380,60 L350,85 L350,70 L310,70 Z" fill="url(#gradDarkBlueArrow)" stroke="#001f3f" stroke-width="3"/>
        <text x="230" y="120" font-size="60" font-family="serif" font-style="italic" fill="#4682B4">L<tspan dy="10" font-size="40">rec</tspan></text>
        <g transform="translate(300, 60)">
            <use href="#fMRIIcon" />
            <text x="20" y="140" font-size="40" font-weight="bold" fill="#808080">fMRI</text>
        </g>
    </g>
    
    <!-- Bottom Left fMRI Input -->
    <g transform="translate(50, 380)">
        <use href="#fMRIIcon" />
        <text x="20" y="140" font-size="40" font-weight="bold" fill="#808080">fMRI</text>
    </g>
    
    <!-- Bottom Left Subjects Input -->
    <g transform="translate(40, 480)">
        <use href="#personIcon" transform="scale(1.5)"/>
        <use href="#personIcon" x="60" transform="scale(1.5)"/>
        <use href="#personIcon" x="120" transform="scale(1.5)"/>
        <use href="#personIcon" y="-40" x="60" transform="scale(1.5)"/>
        <use href="#personIcon" y="-80" x="120" transform="scale(1.5)"/>
    </g>
  </g>

  <!-- ================= INFERENCE PANEL ================= -->
  <g transform="translate(0, 670)">
    <!-- Background -->
    <rect x="0" y="0" width="1600" height="230" rx="20" fill="#F8F8F8" stroke="#ddd" stroke-width="2"/>
    <rect x="10" y="10" width="1580" height="210" rx="20" fill="none" stroke="#ddd" stroke-width="2"/>
    
    <!-- Header -->
    <rect x="10" y="20" width="310" height="70" rx="10" fill="#E0E0E0"/>
    <text x="165" y="70" font-size="60" font-weight="bold" font-style="italic" text-anchor="middle" fill="black">Inference</text>
    
    <!-- Content -->
    <g transform="translate(50, 100)">
        <!-- Subject -->
        <g transform="translate(0, 0)">
            <use href="#personIcon" transform="scale(2)"/>
            <text x="0" y="180" font-size="40" font-family="serif">Test <tspan font-weight="bold">Unseen</tspan> Subject</text>
        </g>
        
        <!-- Input fMRI -->
        <g transform="translate(160, 0)">
            <use href="#fMRIIcon" />
            <text x="20" y="140" font-size="40" font-weight="bold" fill="#808080">fMRI</text>
        </g>
        
        <!-- Arrow 1 -->
        <g transform="translate(250, 50)">
            <path d="M0,20 L80,20 L80,0 L120,35 L80,70 L80,50 L0,50 Z" fill="url(#gradGreyArrow)" stroke="#000" stroke-width="3"/>
            <path d="M5,25 L5,45 M115,25 L115,45" stroke="#808080" stroke-width="2"/>
        </g>
        
        <!-- ViT -->
        <g transform="translate(340, 0)">
            <path d="M0,0 L180,-40 L180,180 L0,140 Z" fill="url(#gradTeal)" stroke="#001f3f" stroke-width="4" filter="url(#shadow)"/>
            <use href="#snowflake" transform="translate(10, -10) scale(1.5)"/>
            <text x="60" y="90" font-size="45" font-weight="bold">ViT</text>
        </g>
        
        <!-- Arrow 2 -->
        <g transform="translate(480, 50)">
            <path d="M0,20 L80,20 L80,0 L120,35 L80,70 L80,50 L0,50 Z" fill="url(#gradGreyArrow)" stroke="#000" stroke-width="3"/>
            <path d="M5,25 L5,45 M115,25 L115,45" stroke="#808080" stroke-width="2"/>
            <text x="-20" y="-10" font-size="60" font-family="serif" font-style="italic">F<tspan dy="10" font-size="40">i</tspan><tspan dy="-10">(·)</tspan></text>
        </g>
        
        <!-- Projector -->
        <g transform="translate(600, 40)">
            <rect x="0" y="0" width="280" height="120" rx="20" fill="#F5F5DC" stroke="#001f3f" stroke-width="4" filter="url(#shadow)"/>
            <use href="#snowflake" transform="translate(200, -10) scale(1.5)"/>
            <rect x="5" y="5" width="270" height="110" rx="15" fill="none" stroke="white" stroke-width="2"/>
            <text x="140" y="45" font-size="40" font-weight="bold" text-anchor="middle">Vision</text>
            <text x="140" y="90" font-size="40" font-weight="bold" text-anchor="middle">Projector</text>
            <text x="140" y="-10" font-size="60" font-family="serif" font-style="italic" text-anchor="middle">P<tspan dy="10" font-size="40">s</tspan><tspan dy="-10">(·)</tspan></text>
        </g>
        
        <!-- Arrow 3 -->
        <g transform="translate(820, 50)">
            <path d="M0,20 L80,20 L80,0 L120,35 L80,70 L80,50 L0,50 Z" fill="url(#gradGreyArrow)" stroke="#000" stroke-width="3"/>
            <path d="M5,25 L5,45 M115,25 L115,45" stroke="#808080" stroke-width="2"/>
        </g>
        
        <!-- Diffusion Prior -->
        <g transform="translate(920, 40)">
            <rect x="0" y="0" width="280" height="80" rx="10" fill="#E0FFFF" stroke="#001f3f" stroke-width="4" filter="url(#shadow)"/>
            <use href="#snowflake" transform="translate(200, -10) scale(1.5)"/>
            <rect x="5" y="5" width="270" height="70" rx="8" fill="none" stroke="white" stroke-width="2"/>
            <circle cx="40" cy="40" r="20" fill="#F4C430" stroke="#001f3f" stroke-width="3"/>
            <line x1="65" y1="40" x2="105" y2="40" stroke="url(#gradOrangeArrow)" stroke-width="4"/>
            <circle cx="130" cy="40" r="20" fill="#F4A460" stroke="#001f3f" stroke-width="3"/>
            <line x1="155" y1="40" x2="195" y2="40" stroke="url(#gradOrangeArrow)" stroke-width="4"/>
            <circle cx="220" cy="40" r="20" fill="#D2691E" stroke="#001f3f" stroke-width="3"/>
            <text x="140" y="130" font-size="45" font-weight="bold" text-anchor="middle">Diffusion Prior</text>
        </g>
        
        <!-- Arrow 4 -->
        <g transform="translate(1130, 50)">
            <path d="M0,20 L80,20 L80,0 L120,35 L80,70 L80,50 L0,50 Z" fill="url(#gradGreyArrow)" stroke="#000" stroke-width="3"/>
            <path d="M5,25 L5,45 M115,25 L115,45" stroke="#808080" stroke-width="2"/>
        </g>
        
        <!-- SDXL -->
        <g transform="translate(1200, 0)">
            <path d="M0,40 L180,0 L180,200 L0,160 Z" fill="#FFE4C4" stroke="#001f3f" stroke-width="4" filter="url(#shadow)"/>
            <use href="#snowflake" transform="translate(100, -10) scale(1.5)"/>
            <text x="60" y="110" font-size="45" font-weight="bold">SDXL</text>
        </g>
        
        <!-- Arrow 5 -->
        <g transform="translate(1320, 50)">
            <path d="M0,20 L80,20 L80,0 L120,35 L80,70 L80,50 L0,50 Z" fill="url(#gradGreyArrow)" stroke="#000" stroke-width="3"/>
            <path d="M5,25 L5,45 M115,25 L115,45" stroke="#808080" stroke-width="2"/>
        </g>
        
        <!-- Output Images -->
        <g transform="translate(1420, 20)">
            <text x="0" y="-10" font-size="40" font-family="serif">Reconstructed</text>
            <text x="0" y="30" font-size="40" font-family="serif">Images</text>
            <g transform="translate(0, 50)">
                <rect x="0" y="0" width="160" height="100" rx="5" fill="#FFF" stroke="#001f3f" stroke-width="4" filter="url(#shadow)"/>
                <rect x="10" y="10" width="140" height="80" fill="#87CEEB" stroke="#001f3f" stroke-width="2"/>
                <path d="M10,70 L30,50 L50,70 L70,50 L90,70 L110,60 L150,90 V10 H10 Z" fill="white" stroke="#000" stroke-width="2"/>
                
                <rect x="60" y="40" width="160" height="100" rx="5" fill="#FFF" stroke="#001f3f" stroke-width="4" filter="url(#shadow)"/>
                <rect x="70" y="50" width="140" height="80" fill="#87CEEB" stroke="#001f3f" stroke-width="2"/>
                <path d="M70,110 L90,80 L120,110 L140,90 L160,110 L180,100 L200,120 V60 H70 Z" fill="#6B8E23" stroke="#000" stroke-width="2"/>
                <circle cx="110" cy="70" r="10" fill="#FFD700"/>
                
                <rect x="20" y="80" width="160" height="100" rx="5" fill="#FFF" stroke="#001f3f" stroke-width="4" filter="url(#shadow)"/>
                <rect x="30" y="90" width="140" height="80" fill="#87CEEB" stroke="#001f3f" stroke-width="2"/>
                <path d="M30,150 L50,130 L70,150 L90,130 L110,150 L130,140 L150,160 V110 H30 Z" fill="#6B8E23" stroke="#000" stroke-width="2"/>
                <circle cx="80" cy="120" r="10" fill="#FFD700"/>
            </g>
        </g>
    </g>
  </g>
</svg>