<svg width="1634" height="890" viewBox="0 0 1634 890" xmlns="http://www.w3.org/2000/svg">
  <defs>
    <marker id="arrow" viewBox="0 0 10 10" refX="9" refY="5" markerWidth="8" markerHeight="8" orient="auto">
      <path d="M 0 0 L 10 5 L 0 10 z" fill="#555"/>
    </marker>
    <marker id="arrowSmall" viewBox="0 0 10 10" refX="9" refY="5" markerWidth="7" markerHeight="7" orient="auto">
      <path d="M 0 0 L 10 5 L 0 10 z" fill="#555"/>
    </marker>
    <marker id="arrowStart" viewBox="0 0 10 10" refX="1" refY="5" markerWidth="7" markerHeight="7" orient="auto">
      <path d="M 10 0 L 0 5 L 10 10 z" fill="#555"/>
    </marker>
  </defs>

  <!-- page background -->
  <rect x="5" y="5" width="1624" height="880" fill="#f8f8f8" stroke="#b8b8b8" stroke-width="3"/>
  <rect x="11" y="11" width="1612" height="868" fill="none" stroke="#d4d4d4" stroke-width="3"/>

  <!-- three side-by-side columns -->
  <rect x="40" y="40" width="500" height="810" rx="18" ry="18" fill="#ffffff" stroke="#183456" stroke-width="4"/>
  <rect x="565" y="40" width="500" height="810" rx="18" ry="18" fill="#fffef7" stroke="#183456" stroke-width="4"/>
  <rect x="1090" y="40" width="500" height="810" rx="18" ry="18" fill="#ffffff" stroke="#183456" stroke-width="4"/>

  <!-- column-to-column arrows -->
  <line x1="541" y1="445" x2="557" y2="445" stroke="#555" stroke-width="9" marker-end="url(#arrow)"/>
  <line x1="1066" y1="445" x2="1082" y2="445" stroke="#555" stroke-width="9" marker-end="url(#arrow)"/>

  <!-- Column 1: Modality-Level -->
  <text x="290" y="88" text-anchor="middle" font-family="Times New Roman, serif" font-size="38" font-weight="700" fill="#000">Modality-Level</text>
  <text x="290" y="120" text-anchor="middle" font-family="Times New Roman, serif" font-size="23" font-weight="700" fill="#3869b6">(Modality-Aware Load Balancing §3.1)</text>

  <!-- request boxes -->
  <rect x="68" y="144" width="212" height="76" rx="12" ry="12" fill="#ffffff" stroke="#183456" stroke-width="3"/>
  <g transform="translate(84,158) scale(0.82)">
    <rect x="0" y="0" width="37" height="47" fill="#ffffff" stroke="#333" stroke-width="2"/>
    <path d="M26 0 L37 10 L26 10 Z" fill="#eeeeee" stroke="#333" stroke-width="2"/>
    <rect x="4" y="3" width="28" height="43" fill="none" stroke="#999" stroke-width="1"/>
    <line x1="10" y1="15" x2="29" y2="15" stroke="#333" stroke-width="2"/>
    <line x1="10" y1="20" x2="31" y2="20" stroke="#333" stroke-width="2"/>
    <line x1="10" y1="25" x2="27" y2="25" stroke="#333" stroke-width="2"/>
    <line x1="10" y1="31" x2="24" y2="31" stroke="#333" stroke-width="2"/>
  </g>
  <text x="180" y="177" text-anchor="middle" font-family="Times New Roman, serif" font-size="23" fill="#000">
    <tspan x="180" dy="0">Text-Only</tspan>
    <tspan x="180" dy="28">Request</tspan>
  </text>

  <rect x="300" y="144" width="220" height="76" rx="12" ry="12" fill="#ffffff" stroke="#183456" stroke-width="3"/>
  <g transform="translate(316,164) scale(0.82)">
    <rect x="0" y="0" width="49" height="38" rx="2" fill="#ffffff" stroke="#555" stroke-width="2"/>
    <rect x="4" y="5" width="41" height="29" fill="#bfe7ef" stroke="#2b7c66" stroke-width="2"/>
    <circle cx="15" cy="10" r="5" fill="#ffeaa6" stroke="#777" stroke-width="1.5"/>
    <path d="M5 32 L18 20 L27 26 L38 15 L45 21 L45 34 L5 34 Z" fill="#7bd890" stroke="#2b7c66" stroke-width="2"/>
  </g>
  <text x="418" y="177" text-anchor="middle" font-family="Times New Roman, serif" font-size="23" fill="#000">
    <tspan x="418" dy="0">Image-Text</tspan>
    <tspan x="418" dy="28">Request</tspan>
  </text>

  <line x1="174" y1="222" x2="174" y2="258" stroke="#555" stroke-width="6" marker-end="url(#arrow)"/>
  <line x1="410" y1="222" x2="410" y2="258" stroke="#555" stroke-width="6" marker-end="url(#arrow)"/>

  <!-- modality groups -->
  <rect x="70" y="260" width="205" height="555" fill="#dfeefb" stroke="#183456" stroke-width="3"/>
  <rect x="305" y="260" width="205" height="555" fill="#fde6e1" stroke="#183456" stroke-width="3"/>
  <line x1="290" y1="260" x2="290" y2="815" stroke="#000" stroke-width="3" stroke-dasharray="10 6"/>

  <text x="172.5" y="305" text-anchor="middle" font-family="Times New Roman, serif" font-size="27" font-weight="700" fill="#000">Text-Only</text>
  <text x="407.5" y="305" text-anchor="middle" font-family="Times New Roman, serif" font-size="27" font-weight="700" fill="#000">Multimodal</text>

  <rect x="94" y="352" width="157" height="73" rx="12" ry="12" fill="#c6def4" stroke="#183456" stroke-width="3"/>
  <text x="172.5" y="398" text-anchor="middle" font-family="Times New Roman, serif" font-size="26" font-weight="700" fill="#000">Prefill</text>
  <line x1="172.5" y1="426" x2="172.5" y2="485" stroke="#555" stroke-width="6" marker-end="url(#arrow)"/>
  <rect x="94" y="489" width="157" height="73" rx="12" ry="12" fill="#c6def4" stroke="#183456" stroke-width="3"/>
  <text x="172.5" y="536" text-anchor="middle" font-family="Times New Roman, serif" font-size="26" font-weight="700" fill="#000">Decode</text>

  <rect x="329" y="330" width="157" height="73" rx="12" ry="12" fill="#ffb8b5" stroke="#183456" stroke-width="3"/>
  <text x="407.5" y="376" text-anchor="middle" font-family="Times New Roman, serif" font-size="26" font-weight="700" fill="#000">Encode</text>
  <line x1="407.5" y1="404" x2="407.5" y2="453" stroke="#555" stroke-width="6" marker-end="url(#arrow)"/>
  <rect x="329" y="457" width="157" height="73" rx="12" ry="12" fill="#ffb8b5" stroke="#183456" stroke-width="3"/>
  <text x="407.5" y="504" text-anchor="middle" font-family="Times New Roman, serif" font-size="26" font-weight="700" fill="#000">Prefill</text>
  <line x1="407.5" y1="531" x2="407.5" y2="580" stroke="#555" stroke-width="6" marker-end="url(#arrow)"/>
  <rect x="329" y="584" width="157" height="73" rx="12" ry="12" fill="#ffb8b5" stroke="#183456" stroke-width="3"/>
  <text x="407.5" y="631" text-anchor="middle" font-family="Times New Roman, serif" font-size="26" font-weight="700" fill="#000">Decode</text>

  <!-- bidirectional arrow between modality groups -->
  <line x1="245" y1="724" x2="334" y2="724" stroke="#555" stroke-width="8"/>
  <path d="M225 724 L252 708 L252 740 Z" fill="#555"/>
  <path d="M354 724 L327 708 L327 740 Z" fill="#555"/>
  <text x="290" y="766" text-anchor="middle" font-family="Times New Roman, serif" font-size="25" font-weight="700" fill="#000">Load Balancing</text>

  <!-- Column 2: Stage-Level -->
  <text x="815" y="88" text-anchor="middle" font-family="Times New Roman, serif" font-size="38" font-weight="700">
    <tspan fill="#000">Stage-Level</tspan>
  </text>
  <text x="815" y="120" text-anchor="middle" font-family="Times New Roman, serif" font-size="23" font-weight="700" fill="#3869b6">(Elastic Partition Scheduling §3.2)</text>

  <rect x="646" y="184" width="338" height="120" rx="18" ry="18" fill="#ffefb8" stroke="#183456" stroke-width="3"/>
  <text x="815" y="235" text-anchor="middle" font-family="Times New Roman, serif" font-size="36" font-weight="700" fill="#000">
    <tspan x="815" dy="0">Request</tspan>
    <tspan x="815" dy="43">Scheduling</tspan>
  </text>

  <line x1="815" y1="306" x2="815" y2="378" stroke="#555" stroke-width="9" marker-end="url(#arrow)"/>

  <rect x="646" y="382" width="338" height="120" rx="18" ry="18" fill="#ffefb8" stroke="#183456" stroke-width="3"/>
  <text x="815" y="433" text-anchor="middle" font-family="Times New Roman, serif" font-size="36" font-weight="700" fill="#000">
    <tspan x="815" dy="0">Stage</tspan>
    <tspan x="815" dy="43">Allocation</tspan>
  </text>

  <line x1="815" y1="504" x2="815" y2="576" stroke="#555" stroke-width="9" marker-end="url(#arrow)"/>

  <rect x="646" y="580" width="338" height="120" rx="18" ry="18" fill="#ffefb8" stroke="#183456" stroke-width="3"/>
  <text x="815" y="631" text-anchor="middle" font-family="Times New Roman, serif" font-size="36" font-weight="700" fill="#000">
    <tspan x="815" dy="0">Elastic</tspan>
    <tspan x="815" dy="43">Auto-Scaling</tspan>
  </text>

  <line x1="702" y1="765" x2="928" y2="765" stroke="#555" stroke-width="8" marker-start="url(#arrowStart)" marker-end="url(#arrowSmall)"/>
  <text x="815" y="807" text-anchor="middle" font-family="Times New Roman, serif" font-size="28" font-weight="700" fill="#000">Dynamic Resource Adjustment</text>

  <!-- Column 3: Cache and Legend -->
  <rect x="1120" y="75" width="440" height="270" rx="22" ry="22" fill="#dff4dc" stroke="#183456" stroke-width="4"/>
  <text x="1340" y="164" text-anchor="middle" font-family="Times New Roman, serif" font-size="36" font-weight="700">
    <tspan x="1340" fill="#000">Unified Multimodal</tspan>
    <tspan x="1340" dy="45" fill="#000">Prefix Cache</tspan>
    <tspan fill="#3869b6"> (§3.3)</tspan>
  </text>
  <path d="M1190 260 C1190 236 1230 236 1230 260 C1230 284 1190 284 1190 260 Z" fill="#b7dfb2" stroke="#183456" stroke-width="3"/>
  <path d="M1285 260 C1285 236 1325 236 1325 260 C1325 284 1285 284 1285 260 Z" fill="#b7dfb2" stroke="#183456" stroke-width="3"/>
  <path d="M1380 260 C1380 236 1420 236 1420 260 C1420 284 1380 284 1380 260 Z" fill="#b7dfb2" stroke="#183456" stroke-width="3"/>
  <path d="M1475 260 C1475 236 1515 236 1515 260 C1515 284 1475 284 1475 260 Z" fill="#b7dfb2" stroke="#183456" stroke-width="3"/>
  <line x1="1230" y1="260" x2="1285" y2="260" stroke="#555" stroke-width="5"/>
  <line x1="1325" y1="260" x2="1380" y2="260" stroke="#555" stroke-width="5"/>
  <line x1="1420" y1="260" x2="1475" y2="260" stroke="#555" stroke-width="5"/>

  <rect x="1120" y="396" width="440" height="398" rx="12" ry="12" fill="#ffffff" stroke="#183456" stroke-width="4"/>
  <text x="1340" y="455" text-anchor="middle" font-family="Times New Roman, serif" font-size="38" font-weight="700" fill="#000">Legend</text>

  <rect x="1162" y="503" width="64" height="32" fill="#c6def4" stroke="#000" stroke-width="4"/>
  <text x="1252" y="532" font-family="Times New Roman, serif" font-size="31" fill="#000">Text-Only Group</text>

  <rect x="1162" y="573" width="64" height="32" fill="#ffb8b5" stroke="#000" stroke-width="4"/>
  <text x="1252" y="602" font-family="Times New Roman, serif" font-size="31" fill="#000">Multimodal Group</text>

  <rect x="1162" y="643" width="64" height="32" fill="#ffefb8" stroke="#000" stroke-width="4"/>
  <text x="1252" y="672" font-family="Times New Roman, serif" font-size="31" fill="#000">Scheduling Stage</text>

  <line x1="1166" y1="724" x2="1227" y2="724" stroke="#555" stroke-width="8" marker-start="url(#arrowStart)" marker-end="url(#arrowSmall)"/>
  <text x="1252" y="735" font-family="Times New Roman, serif" font-size="31" fill="#000">Auto-Scaling</text>
</svg>