<svg xmlns="http://www.w3.org/2000/svg" width="1688" height="860" viewBox="0 0 1688 860">
<defs>
  <marker id="arrowBlack" markerWidth="10" markerHeight="8" refX="9" refY="4" orient="auto" markerUnits="strokeWidth">
    <path d="M0,0 L10,4 L0,8 Z" fill="#111"/>
  </marker>
</defs>
<style>
  .serif { font-family: "Times New Roman", Times, serif; fill:#111; }
  .boxText { font-family: "Times New Roman", Times, serif; fill:#111; }
</style>
<rect x="0" y="0" width="1688" height="860" fill="#ffffff"/>

<rect x="95" y="16" width="1593" height="389" fill="#d9f1f3" stroke="none"/>
<text x="20" y="63" font-family="Times New Roman, Times, serif" font-size="32" text-anchor="start" >(a)</text>
<text x="158" y="65" font-family="Times New Roman, Times, serif" font-size="36" text-anchor="start" >GIBMS</text>
<g id="svg_a_molecular_graph_left" data-source-slot="slot_a_molecular_graph_left" transform="translate(150,150)">
<line x1="82" y1="20" x2="82" y2="88" stroke="#111" stroke-width="1.4"/>
<line x1="82" y1="88" x2="24" y2="92" stroke="#111" stroke-width="1.4"/>
<line x1="82" y1="88" x2="142" y2="94" stroke="#111" stroke-width="1.4"/>
<line x1="145" y1="43" x2="142" y2="94" stroke="#111" stroke-width="1.4"/>
<circle cx="82" cy="20" r="17" fill="#8db1ef"/>
<circle cx="82" cy="88" r="17" fill="#8db1ef"/>
<circle cx="24" cy="92" r="17" fill="#8db1ef"/>
<circle cx="145" cy="43" r="17" fill="#8db1ef"/>
<circle cx="142" cy="94" r="17" fill="#8db1ef"/>
</g>
<text x="230" y="337" font-family="Times New Roman, Times, serif" font-size="34" text-anchor="middle" font-style="italic">G</text>
<line x1="324" y1="200" x2="403" y2="200" stroke="#111" stroke-width="2" fill="none" marker-end="url(#arrowBlack)"/>
<rect x="405" y="138" width="81" height="188" fill="#f8f8f8" stroke="#5d2e2d" stroke-width="2" />
<text x="446" y="232" font-family="Times New Roman, Times, serif" font-size="30" text-anchor="middle" dominant-baseline="middle" transform="rotate(-90 446 232)">Encoder</text>
<line x1="486" y1="232" x2="556" y2="232" stroke="#111" stroke-width="2" fill="none" marker-end="url(#arrowBlack)"/>
<text x="512" y="183" font-family="Times New Roman, Times, serif" font-size="34" font-weight="bold">H</text>
<g id="svg_a_hidden_state_H" data-source-slot="slot_a_hidden_state_H" transform="translate(555,150)">
<rect x="2" y="2" width="58" height="162" fill="#acf0f8" stroke="#102849" stroke-width="2"/>
<line x1="2" y1="34.40" x2="60" y2="34.40" stroke="#102849" stroke-width="2"/>
<line x1="2" y1="66.80" x2="60" y2="66.80" stroke="#102849" stroke-width="2"/>
<line x1="2" y1="99.20" x2="60" y2="99.20" stroke="#102849" stroke-width="2"/>
<line x1="2" y1="131.60" x2="60" y2="131.60" stroke="#102849" stroke-width="2"/>
</g>
<line x1="616" y1="232" x2="684" y2="232" stroke="#111" stroke-width="2" fill="none" marker-end="url(#arrowBlack)"/>
<rect x="684" y="138" width="80" height="188" fill="#f3f3f3" stroke="#5d2e2d" stroke-width="2" />
<text x="724" y="232" font-family="Times New Roman, Times, serif" font-size="30" text-anchor="middle" dominant-baseline="middle" transform="rotate(-90 724 232)">MLP</text>
<line x1="764" y1="232" x2="832" y2="232" stroke="#111" stroke-width="2" fill="none" marker-end="url(#arrowBlack)"/>
<g id="svg_a_weighted_graph" data-source-slot="slot_a_weighted_graph" transform="translate(850,150)">
<line x1="23" y1="91" x2="83" y2="58" stroke="#111" stroke-width="1.4"/>
<line x1="83" y1="58" x2="84" y2="18" stroke="#111" stroke-width="1.4"/>
<line x1="83" y1="58" x2="143" y2="93" stroke="#111" stroke-width="1.4"/>
<line x1="145" y1="37" x2="143" y2="93" stroke="#111" stroke-width="1.4"/>
<circle cx="23" cy="91" r="17" fill="#8db1ef"/>
<text x="23" y="96" font-family="Times New Roman, Times, serif" font-size="17" text-anchor="middle">0.7</text>
<circle cx="83" cy="58" r="17" fill="#8db1ef"/>
<text x="83" y="63" font-family="Times New Roman, Times, serif" font-size="17" text-anchor="middle">0.9</text>
<circle cx="84" cy="18" r="17" fill="#8db1ef"/>
<text x="84" y="23" font-family="Times New Roman, Times, serif" font-size="17" text-anchor="middle">0.1</text>
<circle cx="145" cy="37" r="17" fill="#8db1ef"/>
<text x="145" y="42" font-family="Times New Roman, Times, serif" font-size="17" text-anchor="middle">0.3</text>
<circle cx="143" cy="93" r="17" fill="#8db1ef"/>
<text x="143" y="98" font-family="Times New Roman, Times, serif" font-size="17" text-anchor="middle">0.6</text>
</g>
<polyline points="584,150 584,86 828,86" stroke="#111" stroke-width="2" fill="none" marker-end="url(#arrowBlack)"/>
<text x="835" y="65" font-family="Times New Roman, Times, serif" font-size="34" fill="#111">
<tspan></tspan><tspan font-style="italic">I</tspan><tspan> (</tspan><tspan font-style="italic">G</tspan><tspan>; </tspan><tspan font-style="italic">G</tspan><tspan baseline-shift="sub" font-size="21">IB</tspan><tspan>)</tspan>
</text>
<polyline points="584,315 584,379 828,379" stroke="#111" stroke-width="2" fill="none" marker-end="url(#arrowBlack)"/>
<text x="835" y="390" font-family="Times New Roman, Times, serif" font-size="34" fill="#111">
<tspan></tspan><tspan font-style="italic">I</tspan><tspan> (</tspan><tspan font-style="italic">G</tspan><tspan>; </tspan><tspan font-style="italic">G</tspan><tspan baseline-shift="sub" font-size="21">IB</tspan><tspan>)</tspan>
</text>
<line x1="1032" y1="232" x2="1082" y2="232" stroke="#111" stroke-width="2" fill="none"/>
<text x="1094" y="242" font-family="Times New Roman, Times, serif" font-size="32">Sample</text>
<polyline points="1082,232 1082,119 1148,119" stroke="#111" stroke-width="2" fill="none" marker-end="url(#arrowBlack)"/>
<polyline points="1082,232 1082,347 1148,347" stroke="#111" stroke-width="2" fill="none" marker-end="url(#arrowBlack)"/>
<text x="1090" y="63" font-family="Times New Roman, Times, serif" font-size="28" fill="#111">
<tspan font-style="italic">G</tspan><tspan baseline-shift="sub" font-size="18">IB</tspan>
</text>
<text x="1090" y="386" font-family="Times New Roman, Times, serif" font-size="28" fill="#111">
<tspan font-style="italic">G</tspan><tspan baseline-shift="sub" font-size="18">IB</tspan>
</text>
<g id="svg_a_gib_stack_top" data-source-slot="slot_a_gib_stack_top" transform="translate(1149,36)">
<rect x="2" y="2" width="56" height="162" fill="#dbe88e" stroke="#253451" stroke-width="2"/>
<line x1="2" y1="34.40" x2="58" y2="34.40" stroke="#253451" stroke-width="2"/>
<line x1="2" y1="66.80" x2="58" y2="66.80" stroke="#253451" stroke-width="2"/>
<line x1="2" y1="99.20" x2="58" y2="99.20" stroke="#253451" stroke-width="2"/>
<line x1="2" y1="131.60" x2="58" y2="131.60" stroke="#253451" stroke-width="2"/>
</g>
<g id="svg_a_gib_stack_bottom" data-source-slot="slot_a_gib_stack_bottom" transform="translate(1149,263)">
<rect x="2" y="2" width="56" height="162" fill="#dbe88e" stroke="#253451" stroke-width="2"/>
<line x1="2" y1="34.40" x2="58" y2="34.40" stroke="#253451" stroke-width="2"/>
<line x1="2" y1="66.80" x2="58" y2="66.80" stroke="#253451" stroke-width="2"/>
<line x1="2" y1="99.20" x2="58" y2="99.20" stroke="#253451" stroke-width="2"/>
<line x1="2" y1="131.60" x2="58" y2="131.60" stroke="#253451" stroke-width="2"/>
</g>
<line x1="1208" y1="119" x2="1309" y2="119" stroke="#111" stroke-width="2" fill="none" marker-end="url(#arrowBlack)"/>
<line x1="1208" y1="347" x2="1309" y2="347" stroke="#111" stroke-width="2" fill="none" marker-end="url(#arrowBlack)"/>
<text x="1217" y="104" font-family="Times New Roman, Times, serif" font-size="30" text-anchor="start" >Pool</text>
<text x="1217" y="334" font-family="Times New Roman, Times, serif" font-size="30" text-anchor="start" >Pool</text>
<g id="svg_a_pool_top" data-source-slot="slot_a_pool_top" transform="translate(1309,66)">
<rect x="2" y="2" width="61" height="42" fill="#dce88d" stroke="#6b3635" stroke-width="2"/>
</g>
<g id="svg_a_pool_bottom" data-source-slot="slot_a_pool_bottom" transform="translate(1309,325)">
<rect x="2" y="2" width="61" height="42" fill="#dce88d" stroke="#6b3635" stroke-width="2"/>
</g>
<polyline points="1374,89 1439,222" stroke="#111" stroke-width="2" fill="none" marker-end="url(#arrowBlack)"/>
<polyline points="1374,348 1439,222" stroke="#111" stroke-width="2" fill="none" marker-end="url(#arrowBlack)"/>
<text x="1445" y="232" font-family="Times New Roman, Times, serif" font-size="34" fill="#111">
<tspan>− </tspan><tspan font-style="italic">I</tspan><tspan> (Y; </tspan><tspan font-style="italic">G</tspan><tspan baseline-shift="sub" font-size="21">IB</tspan><tspan>)</tspan>
</text>
<text x="20" y="456" font-family="Times New Roman, Times, serif" font-size="32" text-anchor="start" >(b)</text>
<text x="142" y="462" font-family="Times New Roman, Times, serif" font-size="36" text-anchor="start" >SLG</text>
<g id="svg_b_molecular_graph_left" data-source-slot="slot_b_molecular_graph_left" transform="translate(150,547)">
<line x1="84" y1="16" x2="84" y2="72" stroke="#111" stroke-width="1.4"/>
<line x1="84" y1="72" x2="25" y2="92" stroke="#111" stroke-width="1.4"/>
<line x1="84" y1="72" x2="145" y2="92" stroke="#111" stroke-width="1.4"/>
<line x1="148" y1="42" x2="145" y2="92" stroke="#111" stroke-width="1.4"/>
<circle cx="84" cy="16" r="17" fill="#8db1ef"/>
<circle cx="84" cy="72" r="17" fill="#8db1ef"/>
<circle cx="25" cy="92" r="17" fill="#8db1ef"/>
<circle cx="148" cy="42" r="17" fill="#8db1ef"/>
<circle cx="145" cy="92" r="17" fill="#8db1ef"/>
</g>
<text x="230" y="719" font-family="Times New Roman, Times, serif" font-size="34" text-anchor="middle" font-style="italic">G</text>
<polyline points="322,626 340,626 424,556" stroke="#111" stroke-width="2" fill="none" marker-end="url(#arrowBlack)"/>
<polyline points="340,626 424,724" stroke="#111" stroke-width="2" fill="none" marker-end="url(#arrowBlack)"/>
<rect x="424" y="467" width="82" height="181" fill="#d9f1f3" stroke="none" stroke-width="0" />
<text x="465" y="557" font-family="Times New Roman, Times, serif" font-size="28" text-anchor="middle" dominant-baseline="middle" transform="rotate(-90 465 557)">GIBMS</text>
<rect x="424" y="670" width="82" height="181" fill="#f4f4ed" stroke="#5c4f21" stroke-width="2" />
<text x="465" y="760" font-family="Times New Roman, Times, serif" font-size="28" text-anchor="middle" dominant-baseline="middle" transform="rotate(-90 465 760)">Tokenizer</text>
<line x1="506" y1="557" x2="593" y2="557" stroke="#111" stroke-width="2" fill="none" marker-end="url(#arrowBlack)"/>
<line x1="506" y1="760" x2="593" y2="760" stroke="#111" stroke-width="2" fill="none" marker-end="url(#arrowBlack)"/>
<rect x="593" y="467" width="81" height="181" fill="#f5f5ef" stroke="#5c4f21" stroke-width="2" />
<text x="633" y="557" font-family="Times New Roman, Times, serif" font-size="29" text-anchor="middle" dominant-baseline="middle" transform="rotate(-90 633 557)">Encoder</text>
<rect x="593" y="638" width="81" height="213" fill="#f5f5ef" stroke="#5c4f21" stroke-width="2" />
<text x="633" y="744" font-family="Times New Roman, Times, serif" font-size="29" text-anchor="middle" dominant-baseline="middle" transform="rotate(-90 633 744)">Embedding</text>
<line x1="674" y1="557" x2="759" y2="557" stroke="#111" stroke-width="2" fill="none" marker-end="url(#arrowBlack)"/>
<line x1="674" y1="760" x2="759" y2="760" stroke="#111" stroke-width="2" fill="none" marker-end="url(#arrowBlack)"/>
<text x="704" y="512" font-family="Times New Roman, Times, serif" font-size="34" font-weight="bold">
<tspan>H</tspan><tspan baseline-shift="super" font-size="22">p</tspan>
</text>
<text x="704" y="714" font-family="Times New Roman, Times, serif" font-size="34" font-weight="bold">
<tspan>H</tspan><tspan baseline-shift="super" font-size="22">y</tspan>
</text>
<g id="svg_b_hidden_p" data-source-slot="slot_b_hidden_p" transform="translate(759,475)">
<rect x="2" y="2" width="56" height="162" fill="#f7f5e6" stroke="#1e254b" stroke-width="2"/>
<line x1="2" y1="34.40" x2="58" y2="34.40" stroke="#1e254b" stroke-width="2"/>
<line x1="2" y1="66.80" x2="58" y2="66.80" stroke="#1e254b" stroke-width="2"/>
<line x1="2" y1="99.20" x2="58" y2="99.20" stroke="#1e254b" stroke-width="2"/>
<line x1="2" y1="131.60" x2="58" y2="131.60" stroke="#1e254b" stroke-width="2"/>
</g>
<g id="svg_b_hidden_y" data-source-slot="slot_b_hidden_y" transform="translate(759,678)">
<rect x="2" y="2" width="56" height="164" fill="#f7f5e6" stroke="#1e254b" stroke-width="2"/>
<line x1="2" y1="34.80" x2="58" y2="34.80" stroke="#1e254b" stroke-width="2"/>
<line x1="2" y1="67.60" x2="58" y2="67.60" stroke="#1e254b" stroke-width="2"/>
<line x1="2" y1="100.40" x2="58" y2="100.40" stroke="#1e254b" stroke-width="2"/>
<line x1="2" y1="133.20" x2="58" y2="133.20" stroke="#1e254b" stroke-width="2"/>
</g>
<line x1="819" y1="558" x2="905" y2="558" stroke="#111" stroke-width="2" fill="none"/>
<text x="914" y="561" font-family="Times New Roman, Times, serif" font-size="30" fill="#111">
<tspan>softmax </tspan><tspan>( </tspan><tspan font-weight="bold">H</tspan><tspan baseline-shift="super" font-size="20">p</tspan><tspan> · Q</tspan><tspan> / </tspan><tspan font-style="italic">τ</tspan><tspan baseline-shift="sub" font-size="20">p</tspan><tspan> )</tspan>
</text>
<line x1="819" y1="760" x2="905" y2="760" stroke="#111" stroke-width="2" fill="none"/>
<text x="914" y="763" font-family="Times New Roman, Times, serif" font-size="30" fill="#111">
<tspan>softmax </tspan><tspan>( </tspan><tspan font-weight="bold">H</tspan><tspan baseline-shift="super" font-size="20">y</tspan><tspan> · Q</tspan><tspan> / </tspan><tspan font-style="italic">τ</tspan><tspan baseline-shift="sub" font-size="20">y</tspan><tspan> )</tspan>
</text>
<text x="938" y="672" font-family="Times New Roman, Times, serif" font-size="34" text-anchor="middle" font-weight="bold">Q</text>
<g id="svg_b_query_vector" data-source-slot="slot_b_query_vector" transform="translate(967,618)">
<rect x="2" y="2" width="156" height="65" fill="none" stroke="#20264f" stroke-width="2"/>
<rect x="2.00" y="2" width="39.00" height="65" fill="#8fb3f2" stroke="#20264f" stroke-width="2"/>
<rect x="41.00" y="2" width="39.00" height="65" fill="#a9dfc2" stroke="#20264f" stroke-width="2"/>
<rect x="80.00" y="2" width="39.00" height="65" fill="#ffd06c" stroke="#20264f" stroke-width="2"/>
<rect x="119.00" y="2" width="39.00" height="65" fill="#ee8da9" stroke="#20264f" stroke-width="2"/>
</g>
<line x1="1190" y1="557" x2="1276" y2="557" stroke="#111" stroke-width="2" fill="none" marker-end="url(#arrowBlack)"/>
<line x1="1190" y1="760" x2="1276" y2="760" stroke="#111" stroke-width="2" fill="none" marker-end="url(#arrowBlack)"/>
<text x="1228" y="485" font-family="Times New Roman, Times, serif" font-size="28" font-style="italic">
<tspan>s</tspan><tspan baseline-shift="super" font-size="18">p</tspan>
</text>
<text x="1228" y="738" font-family="Times New Roman, Times, serif" font-size="28" font-style="italic">
<tspan>s</tspan><tspan baseline-shift="super" font-size="18">y</tspan>
</text>
<g id="svg_b_sp_matrix" data-source-slot="slot_b_sp_matrix" transform="translate(1276,475)">
<rect x="2.00" y="2.00" width="38.75" height="33.00" fill="#8fb3f2" stroke="#20264f" stroke-width="2"/>
<rect x="40.75" y="2.00" width="38.75" height="33.00" fill="#a9dfc2" stroke="#20264f" stroke-width="2"/>
<rect x="79.50" y="2.00" width="38.75" height="33.00" fill="#ffd06c" stroke="#20264f" stroke-width="2"/>
<rect x="118.25" y="2.00" width="38.75" height="33.00" fill="#ee8da9" stroke="#20264f" stroke-width="2"/>
<rect x="2.00" y="35.00" width="38.75" height="33.00" fill="#8fb3f2" stroke="#20264f" stroke-width="2"/>
<rect x="40.75" y="35.00" width="38.75" height="33.00" fill="#a9dfc2" stroke="#20264f" stroke-width="2"/>
<rect x="79.50" y="35.00" width="38.75" height="33.00" fill="#ffd06c" stroke="#20264f" stroke-width="2"/>
<rect x="118.25" y="35.00" width="38.75" height="33.00" fill="#ee8da9" stroke="#20264f" stroke-width="2"/>
<rect x="2.00" y="68.00" width="38.75" height="33.00" fill="#8fb3f2" stroke="#20264f" stroke-width="2"/>
<rect x="40.75" y="68.00" width="38.75" height="33.00" fill="#a9dfc2" stroke="#20264f" stroke-width="2"/>
<rect x="79.50" y="68.00" width="38.75" height="33.00" fill="#ffd06c" stroke="#20264f" stroke-width="2"/>
<rect x="118.25" y="68.00" width="38.75" height="33.00" fill="#ee8da9" stroke="#20264f" stroke-width="2"/>
<rect x="2.00" y="101.00" width="38.75" height="33.00" fill="#8fb3f2" stroke="#20264f" stroke-width="2"/>
<rect x="40.75" y="101.00" width="38.75" height="33.00" fill="#a9dfc2" stroke="#20264f" stroke-width="2"/>
<rect x="79.50" y="101.00" width="38.75" height="33.00" fill="#ffd06c" stroke="#20264f" stroke-width="2"/>
<rect x="118.25" y="101.00" width="38.75" height="33.00" fill="#ee8da9" stroke="#20264f" stroke-width="2"/>
<rect x="2.00" y="134.00" width="38.75" height="33.00" fill="#8fb3f2" stroke="#20264f" stroke-width="2"/>
<rect x="40.75" y="134.00" width="38.75" height="33.00" fill="#a9dfc2" stroke="#20264f" stroke-width="2"/>
<rect x="79.50" y="134.00" width="38.75" height="33.00" fill="#ffd06c" stroke="#20264f" stroke-width="2"/>
<rect x="118.25" y="134.00" width="38.75" height="33.00" fill="#ee8da9" stroke="#20264f" stroke-width="2"/>
</g>
<g id="svg_b_sy_matrix" data-source-slot="slot_b_sy_matrix" transform="translate(1276,678)">
<rect x="2.00" y="2.00" width="38.75" height="33.00" fill="#8fb3f2" stroke="#20264f" stroke-width="2"/>
<rect x="40.75" y="2.00" width="38.75" height="33.00" fill="#a9dfc2" stroke="#20264f" stroke-width="2"/>
<rect x="79.50" y="2.00" width="38.75" height="33.00" fill="#ffd06c" stroke="#20264f" stroke-width="2"/>
<rect x="118.25" y="2.00" width="38.75" height="33.00" fill="#ee8da9" stroke="#20264f" stroke-width="2"/>
<rect x="2.00" y="35.00" width="38.75" height="33.00" fill="#8fb3f2" stroke="#20264f" stroke-width="2"/>
<rect x="40.75" y="35.00" width="38.75" height="33.00" fill="#a9dfc2" stroke="#20264f" stroke-width="2"/>
<rect x="79.50" y="35.00" width="38.75" height="33.00" fill="#ffd06c" stroke="#20264f" stroke-width="2"/>
<rect x="118.25" y="35.00" width="38.75" height="33.00" fill="#ee8da9" stroke="#20264f" stroke-width="2"/>
<rect x="2.00" y="68.00" width="38.75" height="33.00" fill="#8fb3f2" stroke="#20264f" stroke-width="2"/>
<rect x="40.75" y="68.00" width="38.75" height="33.00" fill="#a9dfc2" stroke="#20264f" stroke-width="2"/>
<rect x="79.50" y="68.00" width="38.75" height="33.00" fill="#ffd06c" stroke="#20264f" stroke-width="2"/>
<rect x="118.25" y="68.00" width="38.75" height="33.00" fill="#ee8da9" stroke="#20264f" stroke-width="2"/>
<rect x="2.00" y="101.00" width="38.75" height="33.00" fill="#8fb3f2" stroke="#20264f" stroke-width="2"/>
<rect x="40.75" y="101.00" width="38.75" height="33.00" fill="#a9dfc2" stroke="#20264f" stroke-width="2"/>
<rect x="79.50" y="101.00" width="38.75" height="33.00" fill="#ffd06c" stroke="#20264f" stroke-width="2"/>
<rect x="118.25" y="101.00" width="38.75" height="33.00" fill="#ee8da9" stroke="#20264f" stroke-width="2"/>
<rect x="2.00" y="134.00" width="38.75" height="33.00" fill="#8fb3f2" stroke="#20264f" stroke-width="2"/>
<rect x="40.75" y="134.00" width="38.75" height="33.00" fill="#a9dfc2" stroke="#20264f" stroke-width="2"/>
<rect x="79.50" y="134.00" width="38.75" height="33.00" fill="#ffd06c" stroke="#20264f" stroke-width="2"/>
<rect x="118.25" y="134.00" width="38.75" height="33.00" fill="#ee8da9" stroke="#20264f" stroke-width="2"/>
</g>
<polyline points="1435,558 1490,646" stroke="#111" stroke-width="2" fill="none" marker-end="url(#arrowBlack)"/>
<polyline points="1435,760 1490,646" stroke="#111" stroke-width="2" fill="none" marker-end="url(#arrowBlack)"/>
<text x="1500" y="657" font-family="Times New Roman, Times, serif" font-size="34">
<tspan font-style="italic">L</tspan><tspan baseline-shift="sub" font-size="22">soft</tspan><tspan> (</tspan><tspan font-style="italic">s</tspan><tspan baseline-shift="super" font-size="22">y</tspan><tspan>, </tspan><tspan font-style="italic">s</tspan><tspan baseline-shift="super" font-size="22">p</tspan><tspan>)</tspan>
</text>
</svg>