<svg xmlns="http://www.w3.org/2000/svg" viewBox="4.0 14.0 1623.0 631.0" style="font-family: 'Times New Roman', serif; background-color: white;">
  <defs>
    <!-- Arrowhead Marker -->
    <marker id="arrow" markerWidth="10" markerHeight="10" refX="9" refY="3" orient="auto" markerUnits="strokeWidth">
      <path d="M0,0 L0,6 L9,3 z" fill="#555" />
    </marker>
    <marker id="arrow-red" markerWidth="10" markerHeight="10" refX="9" refY="3" orient="auto" markerUnits="strokeWidth">
      <path d="M0,0 L0,6 L9,3 z" fill="#FF6B6B" />
    </marker>
    <marker id="arrow-green" markerWidth="10" markerHeight="10" refX="9" refY="3" orient="auto" markerUnits="strokeWidth">
      <path d="M0,0 L0,6 L9,3 z" fill="#2ECC71" />
    </marker>
    <marker id="arrow-black" markerWidth="10" markerHeight="10" refX="9" refY="3" orient="auto" markerUnits="strokeWidth">
      <path d="M0,0 L0,6 L9,3 z" fill="#000" />
    </marker>

    <!-- Noise Filter for Augmentation -->
    <filter id="noise">
      <feTurbulence type="fractalNoise" baseFrequency="0.8" numOctaves="3" stitchTiles="stitch" />
      <feColorMatrix type="matrix" values="0 0 0 0 0  0 0 0 0 0  0 0 0 0 0  0 0 0 1 0" />
    </filter>

    <!-- Gradients -->
    <linearGradient id="grad-perturbation" x1="0%" y1="0%" x2="0%" y2="100%">
      <stop offset="0%" style="stop-color:#FFB6C1;stop-opacity:1" />
      <stop offset="100%" style="stop-color:#FF0000;stop-opacity:1" />
    </linearGradient>
    <linearGradient id="grad-guidance" x1="100%" y1="0%" x2="0%" y2="0%">
      <stop offset="0%" style="stop-color:#A5D6A7;stop-opacity:1" />
      <stop offset="100%" style="stop-color:#4CAF50;stop-opacity:1" />
    </linearGradient>
    <linearGradient id="grad-arrow-horz-red" x1="0%" y1="0%" x2="100%" y2="0%">
      <stop offset="0%" style="stop-color:#FF4D4D;stop-opacity:1" />
      <stop offset="100%" style="stop-color:#FF4D4D;stop-opacity:0" />
    </linearGradient>
    <linearGradient id="grad-arrow-horz-green" x1="100%" y1="0%" x2="0%" y2="0%">
      <stop offset="0%" style="stop-color:#4CAF50;stop-opacity:1" />
      <stop offset="100%" style="stop-color:#4CAF50;stop-opacity:0" />
    </linearGradient>

    <!-- Reusable Video Frame Group -->
    <g id="video-frames">
      <g transform="skewY(-15)">
        <rect x="0" y="0" width="60" height="80" fill="#dcbfa6" stroke="#333" stroke-width="1"/>
        <!-- Abstract hands/body -->
        <path d="M10,80 L10,30 L40,30 L40,80" fill="#eac09d" />
        <circle cx="25" cy="25" r="8" fill="#d4a373" /> 
        <rect x="20" y="40" width="20" height="5" fill="#cceeb0" /> <!-- Celery -->
      </g>
      <g transform="translate(30, 0) skewY(-15)">
        <rect x="0" y="0" width="60" height="80" fill="#dcbfa6" stroke="#333" stroke-width="1"/>
        <path d="M10,80 L10,30 L40,30 L40,80" fill="#eac09d" />
        <circle cx="25" cy="25" r="8" fill="#d4a373" />
        <rect x="20" y="40" width="20" height="5" fill="#cceeb0" />
      </g>
      <g transform="translate(90, 0) skewY(-15)">
        <rect x="0" y="0" width="60" height="80" fill="#dcbfa6" stroke="#333" stroke-width="1"/>
        <path d="M10,80 L10,30 L40,30 L40,80" fill="#eac09d" />
        <circle cx="25" cy="25" r="8" fill="#d4a373" />
        <rect x="20" y="40" width="20" height="5" fill="#cceeb0" />
      </g>
    </g>
  </defs>

  <!-- ================= TOP CONTAINER ================= -->
  <rect x="10" y="20" width="1580" height="260" rx="15" fill="none" stroke="#333" stroke-width="3" />
  <text x="25" y="45" font-size="36" font-weight="bold" fill="black">Measure Difficulty based on Relative Reward Statistics</text>

  <!-- Input Block -->
  <g transform="translate(15, 100)">
    <rect x="0" y="0" width="265" height="170" rx="10" fill="none" stroke="#ddd" stroke-width="2" />
    <use href="#video-frames" x="15" y="20" />
    <text x="132" y="60" font-size="30" font-weight="bold">. . .</text>
    <text x="15" y="110" font-size="28" fill="#A07040" font-weight="bold">Question: <tspan fill="#A07040">What action</tspan></text>
    <text x="15" y="135" font-size="28" fill="#A07040" font-weight="bold">should I take next in</text>
    <text x="15" y="160" font-size="28" fill="#A07040" font-weight="bold">order to eat the celery?</text>
    <!-- Arrow to LLM -->
    <line x1="265" y1="80" x2="295" y2="80" stroke="#555" stroke-width="2" marker-end="url(#arrow)" />
  </g>

  <!-- Video LLM -->
  <g transform="translate(310, 130)">
    <rect x="0" y="0" width="160" height="110" rx="10" fill="#FFF5E0" stroke="#F5DEB3" stroke-width="3" />
    <text x="80" y="50" font-size="34" font-weight="bold" text-anchor="middle">Video</text>
    <text x="80" y="85" font-size="34" font-weight="bold" text-anchor="middle">LLM</text>
  </g>

  <!-- Response Column -->
  <g transform="translate(475, 95)">
    <!-- Arrows from LLM -->
    <path d="M-55,85 C-25,85 -25,20 0,20" fill="none" stroke="#555" stroke-width="2" marker-end="url(#arrow)" />
    <path d="M-55,85 C-25,85 0,85 0,85" fill="none" stroke="#555" stroke-width="2" marker-end="url(#arrow)" />
    <path d="M-55,85 C-25,85 -25,150 0,150" fill="none" stroke="#555" stroke-width="2" marker-end="url(#arrow)" />

    <!-- Box 1 -->
    <rect x="0" y="0" width="235" height="55" fill="white" stroke="#4A7099" stroke-width="3" />
    <text x="15" y="38" font-size="32" font-weight="bold">Response <tspan font-style="italic">y</tspan><tspan dy="-10" font-size="24">1</tspan></text>
    <!-- Box 2 -->
    <rect x="0" y="65" width="235" height="55" fill="white" stroke="#4A7099" stroke-width="3" />
    <text x="15" y="103" font-size="32" font-weight="bold">Response <tspan font-style="italic">y</tspan><tspan dy="-10" font-size="24">2</tspan></text>
    <!-- Ellipsis -->
    <text x="117" y="140" font-size="32" font-weight="bold" text-anchor="middle">. . .</text>
    <!-- Box 3 -->
    <rect x="0" y="150" width="235" height="55" fill="white" stroke="#4A7099" stroke-width="3" />
    <text x="15" y="188" font-size="32" font-weight="bold">Response <tspan font-style="italic">y</tspan><tspan dy="-10" font-size="24" font-style="italic">G</tspan></text>
  </g>

  <!-- Reward Group Column -->
  <g transform="translate(715, 90)">
    <text x="0" y="-10" font-size="40" font-family="serif" font-style="italic">R<tspan dy="5" font-size="28" font-style="normal">group</tspan></text>
    <rect x="0" y="0" width="185" height="180" rx="15" fill="#E0F2D8" stroke="#8CD676" stroke-width="4" stroke-dasharray="15,10" />
    
    <!-- Arrows from Response -->
    <line x1="-90" y1="32" x2="-5" y2="32" stroke="#555" stroke-width="2" marker-end="url(#arrow)" />
    <line x1="-90" y1="87" x2="-5" y2="87" stroke="#555" stroke-width="2" marker-end="url(#arrow)" />
    <line x1="-90" y1="167" x2="-5" y2="167" stroke="#555" stroke-width="2" marker-end="url(#arrow)" />

    <!-- Content -->
    <text x="20" y="50" font-size="42" font-family="serif" font-style="italic">R(x, y<tspan dy="-15" font-size="28">1</tspan><tspan dy="15">)</tspan></text>
    <text x="20" y="105" font-size="42" font-family="serif" font-style="italic">R(x, y<tspan dy="-15" font-size="28">2</tspan><tspan dy="15">)</tspan></text>
    <text x="92" y="135" font-size="32" font-weight="bold" text-anchor="middle">. . .</text>
    <text x="20" y="170" font-size="42" font-family="serif" font-style="italic">R(x, y<tspan dy="-15" font-size="28" font-style="italic">G</tspan><tspan dy="15">)</tspan></text>
  </g>

  <!-- Formula Bubble -->
  <g transform="translate(880, 30)">
    <rect x="0" y="0" width="360" height="90" rx="30" fill="white" fill-opacity="0.8" />
    <text x="20" y="55" font-size="36" font-family="serif" font-style="italic">
      Â<tspan dy="-10" font-size="24">(i)</tspan><tspan dy="10"> = </tspan>
    </text>
    <!-- Fraction -->
    <line x1="100" y1="45" x2="340" y2="45" stroke="black" stroke-width="2" />
    <text x="110" y="40" font-size="40" font-family="serif" font-style="italic">R(x, y<tspan dy="-10" font-size="28">(i)</tspan><tspan dy="10">)</tspan> − μ<tspan dy="5" font-size="28">r</tspan></text>
    <text x="220" y="80" font-size="36" font-family="serif" font-style="italic">σ<tspan dy="5" font-size="24">r</tspan></text>
  </g>

  <!-- Data Vectors -->
  <g transform="translate(880, 120)">
    <!-- Red Vector -->
    <rect x="0" y="0" width="360" height="50" rx="10" fill="white" stroke="#FF6B6B" stroke-width="4" />
    <text x="10" y="35" font-size="36" font-family="serif" font-style="italic">R<tspan dy="5" font-size="24" font-style="normal">group</tspan><tspan dy="-5"> = {0.0, 0.0, ..., 0.0, 0.0}</tspan></text>
    
    <!-- Grey Vector -->
    <rect x="0" y="70" width="360" height="50" rx="10" fill="white" stroke="#666" stroke-width="4" />
    <text x="10" y="105" font-size="36" font-family="serif" font-style="italic">R<tspan dy="5" font-size="24" font-style="normal">group</tspan><tspan dy="-5"> = {1.1, 0.3, ..., 1.9, 0.8}</tspan></text>

    <!-- Green Vector -->
    <rect x="0" y="140" width="360" height="50" rx="10" fill="white" stroke="#00B050" stroke-width="4" />
    <text x="10" y="175" font-size="36" font-family="serif" font-style="italic">R<tspan dy="5" font-size="24" font-style="normal">group</tspan><tspan dy="-5"> = {2.0, 2.0, ..., 2.0, 2.0}</tspan></text>
  </g>

  <!-- Dynamic Global Reward Sub-Container -->
  <g transform="translate(1220, 20)">
    <rect x="0" y="0" width="365" height="260" rx="15" fill="none" stroke="#aaa" stroke-width="4" stroke-dasharray="15,10" />
    <text x="15" y="30" font-size="36" font-weight="bold">Dynamic Global Reward</text>
    
    <!-- Graph -->
    <g transform="translate(40, 100)">
      <text x="0" y="-10" font-size="24">Reward</text>
      <!-- Grid -->
      <rect x="0" y="0" width="260" height="150" fill="#f9f9f9" />
      <line x1="0" y1="37" x2="260" y2="37" stroke="#ddd" />
      <line x1="0" y1="75" x2="260" y2="75" stroke="#ddd" />
      <line x1="0" y1="112" x2="260" y2="112" stroke="#ddd" />
      
      <!-- Highlight Zone -->
      <rect x="150" y="10" width="110" height="140" fill="#FFFFA0" fill-opacity="0.6" />
      <text x="155" y="120" font-size="40" font-family="serif">B<tspan dy="-15" font-size="28">W</tspan></text>
      
      <!-- Axes -->
      <line x1="0" y1="150" x2="0" y2="0" stroke="black" stroke-width="2" marker-end="url(#arrow-black)" />
      <line x1="0" y1="150" x2="280" y2="150" stroke="black" stroke-width="2" marker-end="url(#arrow-black)" />
      <text x="280" y="170" font-size="24">Iteration</text>
      
      <!-- Data Line -->
      <polyline points="0,130 40,120 80,90 120,60 160,50 200,40 240,30" fill="none" stroke="#005580" stroke-width="2" />
      <circle cx="0" cy="130" r="2" fill="#005580"/>
      <circle cx="40" cy="120" r="2" fill="#005580"/>
      <circle cx="80" cy="90" r="2" fill="#005580"/>
      <circle cx="120" cy="60" r="2" fill="#005580"/>
      <circle cx="160" cy="50" r="2" fill="#005580"/>
      <circle cx="200" cy="40" r="2" fill="#005580"/>
      <circle cx="240" cy="30" r="2" fill="#005580"/>
      
      <!-- Double Arrow -->
      <path d="M150,140 L150,150 L140,145 M150,150 L160,145" stroke="#FF6B6B" stroke-width="2" fill="none" />
      <path d="M260,140 L260,150 L250,145 M260,150 L270,145" stroke="#FF6B6B" stroke-width="2" fill="none" />
      <rect x="150" y="142" width="110" height="16" fill="url(#grad-arrow-horz-red)" />
    </g>

    <!-- Database Icon -->
    <g transform="translate(300, 120)">
      <path d="M0,10 A20,8 0 0,0 40,10 A20,8 0 0,0 0,10" fill="black" />
      <path d="M0,10 L0,40 A20,8 0 0,0 40,40 L40,10" fill="black" />
      <path d="M0,25 A20,8 0 0,0 40,25" fill="none" stroke="white" stroke-width="2" />
      <path d="M0,35 A20,8 0 0,0 40,35" fill="none" stroke="white" stroke-width="2" />
      <circle cx="35" cy="18" r="1.5" fill="white" />
      <circle cx="35" cy="28" r="1.5" fill="white" />
      <circle cx="35" cy="38" r="1.5" fill="white" />
      <text x="20" y="80" font-size="24" font-weight="bold" text-anchor="middle">Replay</text>
      <text x="20" y="105" font-size="24" font-weight="bold" text-anchor="middle">Buffer</text>
    </g>
  </g>

  <!-- ================= MIDDLE ARROWS ================= -->
  <!-- Red Arrow (Left) -->
  <path d="M1000,240 L1000,280 Q1000,300 900,300 L500,300 Q450,300 450,340 L450,320" fill="none" stroke="none" /> <!-- Guide path -->
  <path d="M1000,240 L1000,280 Q1000,310 900,310 L500,310 Q450,310 450,350 L430,330 L450,320" fill="none" stroke="none" />
  
  <!-- Actual drawn arrows -->
  <path d="M1000,240 L1000,280 Q1000,310 900,310 L500,310 Q450,310 450,350 L430,330 L450,320" fill="none" stroke="none" />
  
  <!-- Red Path -->
  <path d="M1000,240 L1000,280 Q1000,310 900,310 L500,310 Q450,310 450,350 L430,330 L450,320" fill="none" stroke="#FF6B6B" stroke-width="20" />
  <path d="M450,350 L430,330 L450,320" fill="#FF6B6B" stroke="none" />
  
  <!-- Green Path -->
  <path d="M1080,240 L1080,280 Q1080,310 1180,310 L1280,310 Q1280,310 1280,350 L1260,330 L1280,320" fill="none" stroke="#2ECC71" stroke-width="20" />
  <path d="M1280,350 L1260,330 L1280,320" fill="#2ECC71" stroke="none" />

  <!-- Arrowheads for paths -->
  <polygon points="430,330 450,320 450,340" fill="#FF6B6B" />
  <polygon points="1260,330 1280,320 1280,340" fill="#2ECC71" />


  <!-- ================= BOTTOM LEFT CONTAINER ================= -->
  <rect x="10" y="325" width="885" height="235" rx="15" fill="none" stroke="#333" stroke-width="3" />
  <text x="20" y="350" font-size="36" font-weight="bold">Difficulty Decreasement Augmentation</text>

  <!-- Input Block (Copy) -->
  <g transform="translate(15, 355)">
    <rect x="0" y="0" width="265" height="170" rx="10" fill="none" stroke="#ddd" stroke-width="2" />
    <use href="#video-frames" x="15" y="20" />
    <text x="132" y="60" font-size="30" font-weight="bold">. . .</text>
    <text x="15" y="110" font-size="28" fill="#A07040" font-weight="bold">Question: <tspan fill="#A07040">What action</tspan></text>
    <text x="15" y="135" font-size="28" fill="#A07040" font-weight="bold">should I take next in</text>
    <text x="15" y="160" font-size="28" fill="#A07040" font-weight="bold">order to eat the celery?</text>
    <text x="15" y="190" font-size="28" fill="#2ECC71" font-weight="bold">GT: B. pick up celery</text>
    <line x1="265" y1="80" x2="295" y2="80" stroke="#555" stroke-width="2" marker-end="url(#arrow)" />
  </g>

  <!-- LLM (Copy) -->
  <g transform="translate(310, 400)">
    <rect x="0" y="0" width="160" height="110" rx="10" fill="#FFF5E0" stroke="#F5DEB3" stroke-width="3" />
    <text x="80" y="50" font-size="34" font-weight="bold" text-anchor="middle">Video</text>
    <text x="80" y="85" font-size="34" font-weight="bold" text-anchor="middle">LLM</text>
  </g>

  <!-- Response Column (GT) -->
  <g transform="translate(475, 365)">
    <path d="M-55,85 C-25,85 -25,20 0,20" fill="none" stroke="#555" stroke-width="2" marker-end="url(#arrow)" />
    <path d="M-55,85 C-25,85 0,85 0,85" fill="none" stroke="#555" stroke-width="2" marker-end="url(#arrow)" />
    <path d="M-55,85 C-25,85 -25,150 0,150" fill="none" stroke="#555" stroke-width="2" marker-end="url(#arrow)" />

    <rect x="0" y="0" width="235" height="55" fill="white" stroke="#4A7099" stroke-width="3" />
    <text x="15" y="38" font-size="32" font-weight="bold">Response <tspan font-style="italic">y</tspan><tspan dy="5" font-size="20">gt</tspan><tspan dy="-15" font-size="20">1</tspan></text>
    
    <rect x="0" y="65" width="235" height="55" fill="white" stroke="#4A7099" stroke-width="3" />
    <text x="15" y="103" font-size="32" font-weight="bold">Response <tspan font-style="italic">y</tspan><tspan dy="5" font-size="20">gt</tspan><tspan dy="-15" font-size="20">2</tspan></text>
    
    <text x="117" y="140" font-size="32" font-weight="bold" text-anchor="middle">. . .</text>
    
    <rect x="0" y="150" width="235" height="55" fill="white" stroke="#4A7099" stroke-width="3" />
    <text x="15" y="188" font-size="32" font-weight="bold">Response <tspan font-style="italic">y</tspan><tspan dy="5" font-size="20" font-style="italic">gt</tspan><tspan dy="-15" font-size="20" font-style="italic">G</tspan></text>
  </g>

  <!-- Reward Group GT -->
  <g transform="translate(715, 360)">
    <text x="0" y="-10" font-size="40" font-family="serif" font-style="italic">R<tspan dy="5" font-size="28" font-style="normal">group</tspan></text>
    <rect x="0" y="0" width="185" height="180" rx="15" fill="#E0F2D8" stroke="#8CD676" stroke-width="4" stroke-dasharray="15,10" />
    
    <line x1="-90" y1="32" x2="-5" y2="32" stroke="#555" stroke-width="2" marker-end="url(#arrow)" />
    <line x1="-90" y1="87" x2="-5" y2="87" stroke="#555" stroke-width="2" marker-end="url(#arrow)" />
    <line x1="-90" y1="167" x2="-5" y2="167" stroke="#555" stroke-width="2" marker-end="url(#arrow)" />

    <text x="20" y="50" font-size="42" font-family="serif" font-style="italic">R(x, y<tspan dy="5" font-size="28">gt</tspan><tspan dy="-15" font-size="28">1</tspan><tspan dy="10">)</tspan></text>
    <text x="20" y="105" font-size="42" font-family="serif" font-style="italic">R(x, y<tspan dy="5" font-size="28">gt</tspan><tspan dy="-15" font-size="28">2</tspan><tspan dy="10">)</tspan></text>
    <text x="92" y="135" font-size="32" font-weight="bold" text-anchor="middle">. . .</text>
    <text x="20" y="170" font-size="42" font-family="serif" font-style="italic">R(x, y<tspan dy="5" font-size="28" font-style="italic">gt</tspan><tspan dy="-15" font-size="28" font-style="italic">G</tspan><tspan dy="10">)</tspan></text>
    
    <!-- Trophy -->
    <g transform="translate(190, 80) scale(0.6)">
      <path d="M10,0 Q30,0 30,20 L30,40 L0,40 L0,20 Q0,0 10,0" fill="#DAA520" stroke="#B8860B" stroke-width="2"/>
      <path d="M0,20 Q-15,10 -15,30 Q-15,50 0,40" fill="#DAA520" stroke="#B8860B" stroke-width="2"/>
      <path d="M30,20 Q45,10 45,30 Q45,50 30,40" fill="#DAA520" stroke="#B8860B" stroke-width="2"/>
      <rect x="0" y="40" width="30" height="5" fill="#8B4513" />
      <rect x="-5" y="45" width="40" height="5" fill="#8B4513" />
    </g>
  </g>

  <!-- Bottom Left Text -->
  <g transform="translate(20, 540)">
    <text x="0" y="20" font-size="40" font-family="serif" font-style="italic">y<tspan dy="5" font-size="28">gt</tspan><tspan dy="-15" font-size="28">2</tspan></text>
    <text x="60" y="20" font-size="28" font-family="serif">
      <tspan fill="black">&lt;think&gt;</tspan>
      <tspan fill="black">The video shows a person preparing ... . </tspan>
      <tspan fill="#00B050" font-weight="bold">To make a slice of celery you</tspan>
    </text>
    <text x="60" y="50" font-size="28" font-family="serif">
       <tspan fill="#00B050" font-weight="bold">should bring it from the bag.</tspan>
       <tspan fill="black"> &lt;/think&gt;&lt;answer&gt;B. pick up celery&lt;/answer&gt;</tspan>
    </text>
    <!-- Underlines -->
    <line x1="60" y1="55" x2="350" y2="55" stroke="#00B050" stroke-width="2" />
    <line x1="60" y1="85" x2="350" y2="85" stroke="#00B050" stroke-width="2" />
    
    <!-- Guidance Level Arrow -->
    <g transform="translate(110, 90)">
      <polygon points="0,0 10,-10 10,10" fill="#2ECC71" />
      <rect x="10" y="-5" width="220" height="10" fill="url(#grad-guidance)" />
      <polygon points="230,-10 240,0 230,10" fill="#2ECC71" />
      <text x="250" y="10" font-size="30" font-weight="bold">Guidance Level</text>
    </g>
  </g>

  <!-- ================= BOTTOM RIGHT CONTAINER ================= -->
  <rect x="900" y="325" width="690" height="235" rx="15" fill="none" stroke="#333" stroke-width="3" />
  <line x1="900" y1="325" x2="900" y2="560" stroke="#333" stroke-width="2" stroke-dasharray="5,5" />
  <text x="915" y="350" font-size="36" font-weight="bold">Difficulty Increasement Augmentation</text>

  <!-- Input Frames (Normal) -->
  <g transform="translate(930, 360)">
    <use href="#video-frames" x="0" y="0" />
    <text x="130" y="60" font-size="30" font-weight="bold">. . .</text>
  </g>

  <!-- Equations -->
  <g transform="translate(1000, 480)">
    <text x="0" y="0" font-size="48" font-family="serif">Δ<tspan font-style="italic">R</tspan> &lt; 0</text>
    <text x="0" y="50" font-size="48" font-family="serif">Δ<tspan font-style="italic">R</tspan> ≈ 0</text>
    <text x="0" y="100" font-size="48" font-family="serif">Δ<tspan font-style="italic">R</tspan> &gt; 0</text>
  </g>

  <!-- Gradient Arrows -->
  <g transform="translate(1150, 460)">
    <!-- Red Down -->
    <rect x="0" y="0" width="15" height="80" fill="url(#grad-perturbation)" />
    <polygon points="0,80 15,100 30,80" fill="#FF0000" />
    <!-- Green Up -->
    <rect x="40" y="80" width="15" height="80" fill="#A5D6A7" />
    <polygon points="40,0 55,-20 70,0" fill="#2ECC71" />
  </g>

  <!-- Branching Arrows -->
  <g transform="translate(1150, 400)">
    <path d="M0,0 C50,0 100,-50 200,-50" fill="none" stroke="#555" stroke-width="3" marker-end="url(#arrow)" />
    <path d="M0,0 C50,0 100,50 200,50" fill="none" stroke="#555" stroke-width="3" marker-end="url(#arrow)" />
    <path d="M0,0 C50,0 100,150 200,150" fill="none" stroke="#555" stroke-width="3" marker-end="url(#arrow)" />
  </g>

  <!-- Noisy Frames -->
  <g transform="translate(1320, 360)">
    <!-- Row 1 -->
    <g transform="translate(0, 0)">
      <use href="#video-frames" x="0" y="0" />
      <rect x="0" y="0" width="180" height="100" fill="transparent" filter="url(#noise)" opacity="0.4" />
      <text x="130" y="60" font-size="30" font-weight="bold">. . .</text>
    </g>
    <!-- Row 2 -->
    <g transform="translate(0, 100)">
      <use href="#video-frames" x="0" y="0" />
      <rect x="0" y="0" width="180" height="100" fill="transparent" filter="url(#noise)" opacity="0.6" />
      <text x="130" y="60" font-size="30" font-weight="bold">. . .</text>
    </g>
    <!-- Row 3 -->
    <g transform="translate(0, 200)">
      <use href="#video-frames" x="0" y="0" />
      <rect x="0" y="0" width="180" height="100" fill="transparent" filter="url(#noise)" opacity="0.8" />
      <text x="130" y="60" font-size="30" font-weight="bold">. . .</text>
    </g>
  </g>

  <!-- Perturbation Level Bar -->
  <g transform="translate(1550, 360)">
    <rect x="0" y="0" width="20" height="180" fill="url(#grad-perturbation)" />
    <polygon points="0,180 20,200 40,180" fill="#FF0000" />
    <text x="30" y="10" transform="rotate(90, 30, 10)" font-size="30" font-weight="bold">Perturbation Level</text>
  </g>

</svg>