<svg xmlns="http://www.w3.org/2000/svg" viewBox="-47.0 43.0 3051.0 1711.0" style="background-color: white;">
  <defs>
    <!-- Arrowhead Marker -->
    <marker id="arrow" viewBox="0 0 10 10" refX="9" refY="5" markerWidth="6" markerHeight="6" orient="auto">
      <path d="M 0 0 L 10 5 L 0 10 z" fill="black" />
    </marker>

    <!-- Filters and Patterns for Image Simulation -->
    <filter id="noiseFilter">
      <feTurbulence type="fractalNoise" baseFrequency="0.8" numOctaves="3" stitchTiles="stitch" />
      <feColorMatrix type="matrix" values="0 0 0 0 0  0 0 0 0 0  0 0 0 0 0  0 0 0 1 0" />
    </filter>
    
    <pattern id="eventPattern" width="10" height="10" patternUnits="userSpaceOnUse">
      <rect width="10" height="10" fill="#222"/>
      <circle cx="2" cy="2" r="1.5" fill="white" opacity="0.6"/>
      <circle cx="7" cy="7" r="1.5" fill="white" opacity="0.6"/>
      <circle cx="8" cy="2" r="1" fill="white" opacity="0.4"/>
    </pattern>

    <pattern id="thermalPattern" width="50" height="50" patternUnits="userSpaceOnUse">
      <rect width="50" height="50" fill="#00008b"/> <!-- Deep Blue -->
      <circle cx="10" cy="10" r="15" fill="#00ffff" opacity="0.5"/>
      <circle cx="35" cy="35" r="10" fill="#ffff00" opacity="0.6"/>
      <path d="M0,0 L50,50" stroke="#ff0000" stroke-width="5" opacity="0.3"/>
    </pattern>

    <!-- Reusable Image Content (Stylized Vector Representation of the described scene) -->
    <g id="sceneContent">
      <!-- Background Wall -->
      <rect width="100%" height="100%" fill="#333"/>
      <path d="M0,0 L100,50 L0,100 Z" fill="#555" opacity="0.5"/> <!-- Shadow hint -->
      <!-- Tripod -->
      <path d="M60,120 L40,180 M60,120 L80,180 M60,120 L60,90" stroke="#111" stroke-width="8" stroke-linecap="round"/>
      <!-- Tripod Head -->
      <circle cx="60" cy="90" r="10" fill="#222"/>
      <!-- Camera Body -->
      <path d="M40,40 L120,60 L120,120 L40,120 Z" fill="#1a1a1a"/> <!-- Side -->
      <path d="M40,40 L80,20 L120,60" fill="#2a2a2a"/> <!-- Top -->
      <circle cx="90" cy="80" r="30" fill="#111" stroke="#333" stroke-width="2"/> <!-- Lens -->
      <!-- Bowl -->
      <ellipse cx="100" cy="150" rx="50" ry="40" fill="rgba(255,255,255,0.3)" stroke="#fff" stroke-width="2"/>
      <path d="M50,150 Q100,190 150,150" fill="none" stroke="#fff" stroke-width="1" opacity="0.5"/>
      <!-- Bowl Contents (Apples/Oranges) -->
      <circle cx="80" cy="130" r="15" fill="#fff" opacity="0.8"/>
      <circle cx="120" cy="140" r="15" fill="#fff" opacity="0.8"/>
    </g>

    <!-- Block Definitions -->
    <g id="blueBlock">
      <rect x="0" y="0" width="50" height="250" fill="#B4C6E7" />
    </g>
    <g id="greenBlock">
      <rect x="0" y="0" width="50" height="250" fill="#C5E0B4" />
    </g>
  </defs>

  <!-- ================= LEFT COLUMN: INPUTS ================= -->
  
  <!-- 1. Captured Event Frames -->
  <g transform="translate(25, 50)">
    <!-- Back Image -->
    <g transform="translate(60, 0)">
      <rect width="350" height="200" fill="url(#eventPattern)" stroke="white" stroke-width="2"/>
    </g>
    <!-- Middle Image -->
    <g transform="translate(30, 30)">
      <rect width="350" height="200" fill="url(#eventPattern)" stroke="white" stroke-width="2"/>
    </g>
    <!-- Front Image -->
    <g transform="translate(0, 60)">
      <rect width="350" height="200" fill="black" stroke="white" stroke-width="2"/>
      <use href="#sceneContent" width="350" height="200"/>
      <!-- Overlay noise for event look -->
      <rect width="350" height="200" fill="white" opacity="0.1" filter="url(#noiseFilter)"/>
    </g>
    <text x="175" y="240" font-family="serif" font-size="40" text-anchor="middle" fill="black">Captured Event Frames</text>
  </g>

  <!-- Arrow Down -->
  <line x1="200" y1="260" x2="200" y2="310" stroke="black" stroke-width="4" marker-end="url(#arrow)"/>

  <!-- 2. Energy Map -->
  <g transform="translate(25, 310)">
    <!-- Back Image -->
    <g transform="translate(60, 0)">
      <rect width="350" height="200" fill="url(#thermalPattern)" stroke="white" stroke-width="2"/>
    </g>
    <!-- Middle Image -->
    <g transform="translate(30, 30)">
      <rect width="350" height="200" fill="url(#thermalPattern)" stroke="white" stroke-width="2"/>
    </g>
    <!-- Front Image -->
    <g transform="translate(0, 60)">
      <rect width="350" height="200" fill="black" stroke="white" stroke-width="2"/>
      <use href="#sceneContent" width="350" height="200"/>
      <!-- Heatmap overlay simulation -->
      <rect width="350" height="200" fill="url(#thermalPattern)" opacity="0.7"/>
    </g>
    <text x="175" y="240" font-family="serif" font-size="40" text-anchor="middle" fill="black">Energy Map</text>
  </g>

  <!-- 3. Reference Frames -->
  <g transform="translate(25, 520)">
    <!-- Back Image -->
    <g transform="translate(120, 0)">
      <rect width="350" height="200" fill="url(#noiseFilter)" stroke="white" stroke-width="2"/>
    </g>
    <!-- Middle Image -->
    <g transform="translate(60, 40)">
      <rect width="350" height="200" fill="url(#noiseFilter)" stroke="white" stroke-width="2"/>
    </g>
    <!-- Front Image -->
    <g transform="translate(0, 80)">
      <rect width="350" height="200" fill="url(#noiseFilter)" stroke="white" stroke-width="2"/>
    </g>
    <text x="175" y="270" font-family="serif" font-size="40" text-anchor="middle" fill="black">Reference Frames</text>
  </g>

  <!-- ================= MIDDLE COLUMN: FEATURE EXTRACTION ================= -->

  <!-- Top Row (Blue) -->
  <g transform="translate(480, 80)">
    <use href="#blueBlock" x="0" y="0"/>
    <use href="#blueBlock" x="80" y="30" transform="scale(0.8)"/>
    <use href="#blueBlock" x="160" y="0"/>
    <text x="105" y="220" font-family="serif" font-size="40" text-anchor="middle" fill="black">Feature Extraction</text>
  </g>
  <!-- Arrow In -->
  <line x1="400" y1="180" x2="470" y2="180" stroke="black" stroke-width="4" marker-end="url(#arrow)"/>
  <!-- Arrow Out -->
  <line x1="650" y1="165" x2="860" y2="165" stroke="black" stroke-width="4" marker-end="url(#arrow)"/>

  <!-- Middle Row (Green) -->
  <g transform="translate(480, 320)">
    <use href="#greenBlock" x="0" y="0"/>
    <use href="#greenBlock" x="80" y="30" transform="scale(0.8)"/>
    <use href="#greenBlock" x="160" y="0"/>
    <text x="105" y="220" font-family="serif" font-size="40" text-anchor="middle" fill="black">Feature Extraction</text>
  </g>
  <!-- Arrow In -->
  <line x1="400" y1="415" x2="470" y2="415" stroke="black" stroke-width="4" marker-end="url(#arrow)"/>
  <!-- Arrow Out -->
  <line x1="650" y1="415" x2="700" y2="415" stroke="black" stroke-width="4" marker-end="url(#arrow)"/>

  <!-- Bottom Row (Blue) -->
  <g transform="translate(480, 560)">
    <use href="#blueBlock" x="0" y="0"/>
    <use href="#blueBlock" x="80" y="30" transform="scale(0.8)"/>
    <use href="#blueBlock" x="160" y="0"/>
    <text x="105" y="220" font-family="serif" font-size="40" text-anchor="middle" fill="black">Feature Extraction</text>
  </g>
  <!-- Arrow In -->
  <line x1="400" y1="650" x2="470" y2="650" stroke="black" stroke-width="4" marker-end="url(#arrow)"/>
  <!-- Arrow Out -->
  <line x1="650" y1="650" x2="860" y2="650" stroke="black" stroke-width="4" marker-end="url(#arrow)"/>

  <!-- ================= CENTER: CONFIDENCE ESTIMATION ================= -->
  
  <g transform="translate(700, 325)">
    <rect width="350" height="220" rx="40" ry="40" fill="#A9D18E"/>
    <text x="175" y="50" font-family="serif" font-size="40" text-anchor="middle" fill="black">Energy-</text>
    <text x="175" y="100" font-family="serif" font-size="40" text-anchor="middle" fill="black">guided</text>
    <text x="175" y="150" font-family="serif" font-size="40" text-anchor="middle" fill="black">Confidence</text>
    <text x="175" y="200" font-family="serif" font-size="40" text-anchor="middle" fill="black">Estimation</text>
  </g>
  <!-- Arrow Out -->
  <line x1="950" y1="415" x2="1020" y2="415" stroke="black" stroke-width="4" marker-end="url(#arrow)"/>

  <!-- ================= FEATURE STACKS ================= -->

  <!-- Left Features (Top) -->
  <g transform="translate(900, 50)">
    <!-- Labels -->
    <text x="-10" y="30" font-family="serif" font-style="italic" font-size="45" text-anchor="end">F<tspan dy="10" font-size="30">L2</tspan></text>
    <text x="-10" y="80" font-family="serif" font-style="italic" font-size="45" text-anchor="end">F<tspan dy="10" font-size="30">L1</tspan></text>
    <text x="-10" y="130" font-family="serif" font-style="italic" font-size="45" text-anchor="end">F<tspan dy="10" font-size="30">L0</tspan></text>
    
    <!-- Blocks (Back to Front) -->
    <!-- Block 2 -->
    <g transform="translate(80, 0)">
      <polygon points="150,0 200,0 200,150 150,150" fill="#7F6000"/> <!-- Side -->
      <polygon points="150,0 200,0 180,20 130,20" fill="#7F6000"/> <!-- Top -->
      <rect x="0" y="20" width="150" height="150" fill="#BF9000" stroke="black" stroke-width="2"/> <!-- Face -->
    </g>
    <!-- Block 1 -->
    <g transform="translate(40, 40)">
      <polygon points="150,0 200,0 200,150 150,150" fill="#7F6000"/>
      <polygon points="150,0 200,0 180,20 130,20" fill="#7F6000"/>
      <rect x="0" y="20" width="150" height="150" fill="#FBE588" stroke="black" stroke-width="2"/>
    </g>
    <!-- Block 0 -->
    <g transform="translate(0, 80)">
      <polygon points="150,0 200,0 200,150 150,150" fill="#7F6000"/>
      <polygon points="150,0 200,0 180,20 130,20" fill="#7F6000"/>
      <rect x="0" y="20" width="150" height="150" fill="#FBE588" stroke="black" stroke-width="2"/>
    </g>
    <text x="125" y="220" font-family="serif" font-size="40" text-anchor="middle" fill="black">Left Features</text>
  </g>

  <!-- Right Features (Bottom) -->
  <g transform="translate(900, 550)">
    <!-- Labels -->
    <text x="-10" y="30" font-family="serif" font-style="italic" font-size="45" text-anchor="end">F<tspan dy="10" font-size="30">R2</tspan></text>
    <text x="-10" y="80" font-family="serif" font-style="italic" font-size="45" text-anchor="end">F<tspan dy="10" font-size="30">R1</tspan></text>
    <text x="-10" y="130" font-family="serif" font-style="italic" font-size="45" text-anchor="end">F<tspan dy="10" font-size="30">R0</tspan></text>

    <!-- Blocks (Back to Front) -->
    <!-- Block 2 -->
    <g transform="translate(80, 0)">
      <polygon points="150,0 200,0 200,150 150,150" fill="#9C8840"/> <!-- Side -->
      <polygon points="150,0 200,0 180,20 130,20" fill="#9C8840"/> <!-- Top -->
      <rect x="0" y="20" width="150" height="150" fill="#FBE588" stroke="black" stroke-width="2"/> <!-- Face -->
    </g>
    <!-- Block 1 -->
    <g transform="translate(40, 40)">
      <polygon points="150,0 200,0 200,150 150,150" fill="#9C8840"/>
      <polygon points="150,0 200,0 180,20 130,20" fill="#9C8840"/>
      <rect x="0" y="20" width="150" height="150" fill="#FBE588" stroke="black" stroke-width="2"/>
    </g>
    <!-- Block 0 -->
    <g transform="translate(0, 80)">
      <polygon points="150,0 200,0 200,150 150,150" fill="#9C8840"/>
      <polygon points="150,0 200,0 180,20 130,20" fill="#9C8840"/>
      <rect x="0" y="20" width="150" height="150" fill="#FBE588" stroke="black" stroke-width="2"/>
    </g>
    <text x="125" y="220" font-family="serif" font-size="40" text-anchor="middle" fill="black">Right Features</text>
  </g>

  <!-- ================= CONFIDENCE MAPS ================= -->
  
  <g transform="translate(1020, 300)">
    <!-- Back Image -->
    <g transform="translate(60, 0)">
      <rect width="350" height="200" fill="url(#thermalPattern)" stroke="white" stroke-width="2"/>
    </g>
    <!-- Middle Image -->
    <g transform="translate(30, 30)">
      <rect width="350" height="200" fill="url(#thermalPattern)" stroke="white" stroke-width="2"/>
    </g>
    <!-- Front Image -->
    <g transform="translate(0, 60)">
      <rect width="350" height="200" fill="url(#thermalPattern)" stroke="white" stroke-width="2"/>
      <use href="#sceneContent" width="350" height="200" opacity="0.3"/>
    </g>
    <text x="175" y="240" font-family="serif" font-size="40" text-anchor="middle" fill="black">Confidence Maps</text>
  </g>
  <!-- Arrow Out -->
  <line x1="1300" y1="410" x2="1350" y2="410" stroke="black" stroke-width="4" marker-end="url(#arrow)"/>

  <!-- ================= CONFIDENCE PROPAGATION ================= -->
  
  <g transform="translate(1350, 315)">
    <rect width="350" height="220" rx="40" ry="40" fill="#F4B183"/>
    <text x="175" y="50" font-family="serif" font-size="40" text-anchor="middle" fill="black">Confidence</text>
    <text x="175" y="100" font-family="serif" font-size="40" text-anchor="middle" fill="black">Propagation</text>
    <text x="175" y="150" font-family="serif" font-size="40" text-anchor="middle" fill="black">Volume</text>
    <text x="175" y="200" font-family="serif" font-size="40" text-anchor="middle" fill="black">Construction</text>
  </g>

  <!-- ================= RIGHT COLUMN: OUTPUTS ================= -->

  <!-- Cost Volume (3D Box) -->
  <g transform="translate(1700, 100)">
    <!-- Top Face -->
    <polygon points="0,40 300,40 380,-20 80,-20" fill="#F8CBAD"/>
    <!-- Side Face -->
    <polygon points="300,40 380,-20 380,140 300,200" fill="#D99566"/>
    <!-- Front Face -->
    <rect x="0" y="40" width="300" height="160" fill="#F4B183"/>
    <text x="150" y="90" font-family="serif" font-size="50" text-anchor="middle" fill="black">Cost</text>
    <text x="150" y="150" font-family="serif" font-size="50" text-anchor="middle" fill="black">Volume</text>
  </g>

  <!-- Cost Aggregation -->
  <g transform="translate(1700, 315)">
    <rect width="350" height="220" rx="40" ry="40" fill="#8EA6D6"/>
    <text x="175" y="100" font-family="serif" font-size="40" text-anchor="middle" fill="black">Cost</text>
    <text x="175" y="150" font-family="serif" font-size="40" text-anchor="middle" fill="black">Aggregation</text>
  </g>

  <!-- Disparity -->
  <g transform="translate(1680, 560)">
    <rect width="350" height="200" fill="url(#thermalPattern)" stroke="white" stroke-width="2"/>
    <use href="#sceneContent" width="350" height="200" opacity="0.4"/>
    <text x="175" y="240" font-family="serif" font-size="40" text-anchor="middle" fill="black">Disparity</text>
  </g>

  <!-- ================= WIRING (PATHS) ================= -->
  
  <!-- Path 1: Left Features -> Cost Volume & Propagation -->
  <!-- Start Right of Left Features (approx 1180, 165) -->
  <path d="M 1150 165 L 1500 165 L 1500 320" fill="none" stroke="black" stroke-width="4" marker-end="url(#arrow)"/>
  <!-- Branch to Propagation -->
  <path d="M 1500 320 L 1500 400 L 1695 400 L 1695 150 L 1700 150" fill="none" stroke="black" stroke-width="4" marker-end="url(#arrow)"/>

  <!-- Path 2: Right Features -> Cost Volume & Propagation -->
  <!-- Start Right of Right Features (approx 1180, 650) -->
  <path d="M 1150 650 L 1500 650 L 1500 490" fill="none" stroke="black" stroke-width="4" marker-end="url(#arrow)"/>
  <!-- Branch to Propagation -->
  <path d="M 1500 490 L 1500 410 L 1695 410 L 1695 150 L 1700 150" fill="none" stroke="black" stroke-width="4" marker-end="url(#arrow)"/>

  <!-- Path 3: Left Features -> Energy Guided (Zig Zag) -->
  <!-- Start Bottom of Left Features (approx 1000, 240) -->
  <path d="M 1000 240 L 1000 290 L 820 290 L 820 320" fill="none" stroke="black" stroke-width="4" marker-end="url(#arrow)"/>

  <!-- Path 4: Cost Volume -> Cost Aggregation -->
  <line x1="2000" y1="240" x2="2000" y2="305" stroke="black" stroke-width="4" marker-end="url(#arrow)"/>

  <!-- Path 5: Cost Aggregation -> Disparity -->
  <line x1="2000" y1="500" x2="2000" y2="555" stroke="black" stroke-width="4" marker-end="url(#arrow)"/>

</svg>