<svg xmlns="http://www.w3.org/2000/svg" xmlns:xlink="http://www.w3.org/1999/xlink" width="1736" height="921" viewBox="0 0 1736 921" font-family="'Times New Roman', Times, serif">
  <defs>
    <marker id="arrow" markerWidth="16" markerHeight="12" refX="15" refY="6" orient="auto" markerUnits="userSpaceOnUse">
      <path d="M 0 0 L 16 6 L 0 12 z" fill="#000"/>
    </marker>
    <marker id="arrowGreen" markerWidth="16" markerHeight="12" refX="15" refY="6" orient="auto" markerUnits="userSpaceOnUse">
      <path d="M 0 0 L 16 6 L 0 12 z" fill="#75b843"/>
    </marker>
    <style>
      .title { font-size:36px; font-weight:600; letter-spacing:1.2px; }
      .label { font-size:29px; }
      .small { font-size:24px; }
      .wire { stroke:#000; stroke-width:4; fill:none; stroke-linecap:square; stroke-linejoin:miter; }
      .thinwire { stroke:#000; stroke-width:3.4; fill:none; stroke-linecap:square; stroke-linejoin:miter; }
      .panel-line { stroke:#fff; stroke-width:3; }
      .bluebox { fill:#4472c4; stroke:#244f97; stroke-width:2; }
      .brownbox { fill:none; stroke:#8a6228; stroke-width:3; }
      .greenwire { stroke:#73b842; stroke-width:3; fill:none; stroke-linecap:square; }
    </style>
  </defs>
  <rect x="0" y="0" width="1736" height="465" fill="#ededed"/>
  <rect x="0" y="465" width="876" height="456" fill="#f7eadc"/>
  <rect x="876" y="465" width="860" height="456" fill="#dfe6f5"/>
  <line x1="0" y1="465" x2="1736" y2="465" class="panel-line"/>
  <line x1="876" y1="465" x2="876" y2="921" class="panel-line"/>

  <text x="22" y="52" class="title">(a) Overall MINI Architecture</text>
  <rect x="498" y="72" width="268" height="50" rx="6" fill="#eef5e9" stroke="#2d579a" stroke-width="2"/>
  <text x="632" y="106" class="small" text-anchor="middle">Query function q(·)</text>
  <path d="M 398 220 L 398 96 L 496 96" class="wire" marker-end="url(#arrow)"/>
  <path d="M 766 96 L 870 96 L 870 203" class="wire" marker-end="url(#arrow)"/>
  <path d="M 498 309 L 660 309" class="wire" marker-end="url(#arrow)"/>
  <rect x="662" y="203" width="411" height="208" rx="30" fill="none" stroke="#294e8d" stroke-width="4" stroke-dasharray="22 14"/>
  <path d="M 1074 309 L 1242 309" class="wire" marker-end="url(#arrow)"/>
  <text x="431" y="405" class="label" text-anchor="middle">input x</text>
  <text x="867" y="444" class="label" text-anchor="middle">Any backbone</text>
  <text x="867" y="479" class="label" text-anchor="middle">with MINI-Conv</text>
  <text x="1323" y="405" class="label" text-anchor="middle">output y</text>

  <text x="22" y="510" class="title">(b) MINI-Conv</text>
  <text x="51" y="711" class="label" font-style="italic">q(x)</text>
  <text x="45" y="854" class="label" font-style="italic">h</text>
  <text x="10" y="904" class="small">hidden state</text>
  <text x="342" y="579" class="small" text-anchor="middle">bias embeddings</text>
  <text x="331" y="813" class="small" text-anchor="middle">weight embeddings</text>
  <path d="M 111 701 L 270 701" class="wire" marker-end="url(#arrow)"/>
  <path d="M 180 701 L 180 624 L 296 624" class="wire" marker-end="url(#arrow)"/>
  <path d="M 388 624 L 459 624" class="wire" marker-end="url(#arrow)"/>
  <path d="M 492 624 L 733 624 L 733 704" class="wire" marker-end="url(#arrow)"/>
  <path d="M 405 731 L 459 731" class="wire" marker-end="url(#arrow)"/>
  <path d="M 502 731 L 541 731" class="wire" marker-end="url(#arrow)"/>
  <circle cx="566" cy="731" r="22" fill="none" stroke="#000" stroke-width="3"/>
  <text x="566" y="739" font-size="31" text-anchor="middle">R</text>
  <path d="M 588 731 L 632 731" class="wire" marker-end="url(#arrow)"/>
  <circle cx="657" cy="731" r="22" fill="none" stroke="#000" stroke-width="3"/>
  <text x="657" y="742" font-size="38" text-anchor="middle">*</text>
  <path d="M 679 731 L 710 731" class="wire" marker-end="url(#arrow)"/>
  <circle cx="733" cy="731" r="23" fill="none" stroke="#000" stroke-width="3"/>
  <line x1="733" y1="710" x2="733" y2="752" stroke="#000" stroke-width="3"/>
  <line x1="712" y1="731" x2="754" y2="731" stroke="#000" stroke-width="3"/>
  <path d="M 756 731 L 816 731" class="wire" marker-end="url(#arrow)"/>
  <text x="839" y="741" class="label" font-style="italic">h′</text>
  <path d="M 105 852 L 657 852 L 657 755" class="wire" marker-end="url(#arrow)"/>
  <g font-size="28">
    <circle cx="407" cy="876" r="16" fill="none" stroke="#000" stroke-width="2"/>
    <text x="407" y="884" text-anchor="middle">R</text>
    <text x="432" y="884">: reshape</text>
    <circle cx="625" cy="876" r="16" fill="none" stroke="#000" stroke-width="2"/>
    <text x="625" y="884" text-anchor="middle">*</text>
    <text x="651" y="884">: convolution</text>
    <circle cx="407" cy="910" r="16" fill="none" stroke="#000" stroke-width="2"/>
    <line x1="407" y1="896" x2="407" y2="924" stroke="#000" stroke-width="2"/>
    <line x1="393" y1="910" x2="421" y2="910" stroke="#000" stroke-width="2"/>
    <text x="432" y="918">: Element-wise addition</text>
  </g>

  <text x="899" y="510" class="title">(c) Query function q(·)</text>
  <text x="891" y="791" class="label" font-style="italic">x</text>
  <path d="M 912 788 L 948 788" class="thinwire" marker-end="url(#arrow)"/>
  <rect x="948" y="746" width="148" height="83" rx="12" class="bluebox"/>
  <text x="1022" y="796" class="small" fill="#fff" text-anchor="middle">patching</text>
  <rect x="948" y="587" width="171" height="84" rx="9" fill="none" stroke="#f0b400" stroke-width="3" stroke-dasharray="9 5"/>
  <text x="1034" y="611" font-size="21" text-anchor="middle">Degradation</text>
  <text x="1034" y="639" font-size="22" text-anchor="middle">Classification</text>
  <text x="1034" y="666" font-size="22" text-anchor="middle">MLP</text>
  <path d="M 1033 746 L 1033 672" class="thinwire" marker-end="url(#arrow)"/>
  <path d="M 1096 788 L 1175 788" class="thinwire"/>
  <path d="M 1119 630 L 1200 630 L 1200 703" class="greenwire" marker-end="url(#arrowGreen)"/>
  <rect x="1155" y="704" width="88" height="168" fill="none" stroke="#00a64a" stroke-width="3" stroke-dasharray="12 9"/>
  <circle cx="1205" cy="733" r="10" fill="#000"/>
  <circle cx="1205" cy="837" r="10" fill="#000"/>
  <path d="M 1175 788 L 1205 733" stroke="#000" stroke-width="4" fill="none"/>
  <path d="M 1205 733 L 1308 733" class="thinwire" marker-end="url(#arrow)"/>
  <path d="M 1205 837 L 1308 837" class="thinwire" marker-end="url(#arrow)"/>
  <text x="1199" y="900" class="small" text-anchor="middle">switch</text>
  <rect x="1309" y="694" width="128" height="82" rx="11" class="brownbox"/>
  <text x="1373" y="729" class="small" text-anchor="middle">Global</text>
  <text x="1373" y="762" class="small" text-anchor="middle">MLP</text>
  <rect x="1309" y="795" width="128" height="82" rx="11" class="brownbox"/>
  <text x="1373" y="831" class="small" text-anchor="middle">Local</text>
  <text x="1373" y="864" class="small" text-anchor="middle">MLP</text>
  <path d="M 1437 735 L 1465 735 L 1465 789 L 1525 789" class="thinwire" marker-end="url(#arrow)"/>
  <path d="M 1437 837 L 1465 837 L 1465 789" class="thinwire"/>
  <rect x="1525" y="746" width="105" height="83" rx="10" class="bluebox"/>
  <text x="1578" y="777" font-size="25" fill="#fff" text-anchor="middle">softmax</text>
  <text x="1578" y="804" font-size="23" fill="#fff" text-anchor="middle">&amp;</text>
  <text x="1578" y="827" font-size="23" fill="#fff" text-anchor="middle">argmax</text>
  <path d="M 1630 789 L 1665 789" class="thinwire" marker-end="url(#arrow)"/>
  <text x="1673" y="798" class="label" font-style="italic">q(x)</text>

  <image id="raster_input_image_stack" data-source-slot="slot_input_image_stack" href="assets/raster_required/input_image_stack.png" xlink:href="assets/raster_required/input_image_stack.png" x="332" y="162" width="166" height="210" preserveAspectRatio="none"/>
  <g id="svg_backbone_mini_conv_visual" data-source-slot="slot_backbone_mini_conv_visual" transform="translate(690,217)">
    <polygon points="0,25 170,64 170,120 0,155" fill="none" stroke="#274a8e" stroke-width="2"/>
    <polygon points="184,64 350,22 350,155 184,120" fill="none" stroke="#274a8e" stroke-width="2"/>
    <g opacity="0.95">
      <rect x="7" y="36" width="20" height="43" fill="#ffd966"/><rect x="7" y="79" width="20" height="39" fill="#f4b183"/><rect x="7" y="118" width="20" height="41" fill="#2f66bd"/>
      <rect x="39" y="49" width="20" height="36" fill="#ffd966"/><rect x="39" y="85" width="20" height="34" fill="#f4b183"/><rect x="39" y="119" width="20" height="31" fill="#2f66bd"/>
      <rect x="72" y="61" width="20" height="29" fill="#ffd966"/><rect x="72" y="90" width="20" height="29" fill="#f4b183"/><rect x="72" y="119" width="20" height="26" fill="#2f66bd"/>
      <rect x="105" y="71" width="20" height="22" fill="#ffd966"/><rect x="105" y="93" width="20" height="26" fill="#f4b183"/><rect x="105" y="119" width="20" height="21" fill="#2f66bd"/>
      <rect x="138" y="81" width="20" height="17" fill="#ffd966"/><rect x="138" y="98" width="20" height="22" fill="#f4b183"/><rect x="138" y="120" width="20" height="15" fill="#2f66bd"/>
      <rect x="197" y="87" width="20" height="17" fill="#ffd966"/><rect x="197" y="104" width="20" height="23" fill="#f4b183"/><rect x="197" y="127" width="20" height="14" fill="#2f66bd"/>
      <rect x="230" y="76" width="20" height="25" fill="#ffd966"/><rect x="230" y="101" width="20" height="27" fill="#f4b183"/><rect x="230" y="128" width="20" height="18" fill="#2f66bd"/>
      <rect x="263" y="68" width="20" height="31" fill="#ffd966"/><rect x="263" y="99" width="20" height="32" fill="#f4b183"/><rect x="263" y="131" width="20" height="22" fill="#2f66bd"/>
      <rect x="296" y="55" width="20" height="45" fill="#ffd966"/><rect x="296" y="100" width="20" height="37" fill="#f4b183"/><rect x="296" y="137" width="20" height="27" fill="#2f66bd"/>
      <rect x="329" y="38" width="20" height="62" fill="#ffd966"/><rect x="329" y="100" width="20" height="41" fill="#f4b183"/><rect x="329" y="141" width="20" height="18" fill="#2f66bd"/>
    </g>
  </g>
  <image id="raster_output_image_stack" data-source-slot="slot_output_image_stack" href="assets/raster_required/output_image_stack.png" xlink:href="assets/raster_required/output_image_stack.png" x="1246" y="162" width="169" height="210" preserveAspectRatio="none"/>
  <g id="svg_bias_embedding_stack" data-source-slot="slot_bias_embedding_stack" transform="translate(296,580)">
    <g stroke="#2c6fae" stroke-width="1.1">
      <polygon points="16,16 76,16 89,5 29,5" fill="#f4b21a"/>
      <polygon points="20,20 80,20 93,9 33,9" fill="#2f73c9"/>
      <polygon points="24,24 84,24 97,13 37,13" fill="#f0b31d"/>
      <polygon points="28,28 88,28 101,17 41,17" fill="#79b05c"/>
      <polygon points="12,17 72,17 72,67 12,67" fill="#a7cf94"/>
      <polygon points="72,17 88,28 88,76 72,67" fill="#6c9b55"/>
      <polygon points="12,17 28,7 88,7 72,17" fill="#b6d9a5"/>
      <rect x="16" y="21" width="54" height="43" fill="#a7cf94" opacity="0.95"/>
    </g>
  </g>
  <g id="svg_weight_embedding_stack" data-source-slot="slot_weight_embedding_stack" transform="translate(271,659)">
    <g stroke="#2c6fae" stroke-width="1.2">
      <polygon points="37,10 105,10 130,0 61,0" fill="#f1b51d"/>
      <polygon points="32,16 100,16 125,6 56,6" fill="#d96f1f"/>
      <polygon points="27,22 95,22 120,12 51,12" fill="#f2c441"/>
      <polygon points="22,28 90,28 115,18 46,18" fill="#416fbd"/>
      <polygon points="17,34 85,34 110,24 41,24" fill="#f3b63c"/>
      <polygon points="12,40 80,40 105,30 36,30" fill="#7fb05b"/>
      <polygon points="10,43 78,43 78,108 10,108" fill="#a7ce93"/>
      <polygon points="78,43 105,30 105,95 78,108" fill="#6d9b55"/>
      <polygon points="10,43 36,30 105,30 78,43" fill="#b7dba5"/>
      <rect x="17" y="50" width="54" height="51" fill="#a7ce93"/>
      <line x1="81" y1="47" x2="101" y2="38" stroke="#446f41" opacity="0.65"/>
      <line x1="83" y1="62" x2="103" y2="53" stroke="#446f41" opacity="0.65"/>
      <line x1="83" y1="77" x2="103" y2="68" stroke="#446f41" opacity="0.65"/>
    </g>
  </g>
  <g id="svg_bias_filter_block" data-source-slot="slot_bias_filter_block" transform="translate(459,589)">
    <polygon points="5,12 21,3 21,59 5,68" fill="#2f66bd" stroke="#214c93" stroke-width="1.5"/>
    <polygon points="21,3 29,7 29,63 21,59" fill="#5687d4" stroke="#214c93" stroke-width="1.2"/>
    <polygon points="5,12 13,17 29,7 21,3" fill="#6b95d8" stroke="#214c93" stroke-width="1.0"/>
  </g>
  <g id="svg_weight_filter_block" data-source-slot="slot_weight_filter_block" transform="translate(457,670)">
    <polygon points="9,22 27,7 27,111 9,120" fill="#2f66bd" stroke="#214c93" stroke-width="1.5"/>
    <polygon points="27,7 40,10 40,114 27,111" fill="#5687d4" stroke="#214c93" stroke-width="1.2"/>
    <polygon points="0,30 15,18 15,117 0,123" fill="#2b5fb0" stroke="#214c93" stroke-width="1.2" opacity="0.95"/>
    <polygon points="15,18 27,22 27,119 15,117" fill="#4d7bc6" stroke="#214c93" stroke-width="1.0" opacity="0.95"/>
  </g>

</svg>
