<svg xmlns="http://www.w3.org/2000/svg" xmlns:xlink="http://www.w3.org/1999/xlink" width="1736" height="921" viewBox="0 0 1736 921" font-family="'Times New Roman', Times, serif">
  <defs>
    <marker id="arrow" markerWidth="16" markerHeight="12" refX="15" refY="6" orient="auto" markerUnits="userSpaceOnUse">
      <path d="M 0 0 L 16 6 L 0 12 z" fill="#000"/>
    </marker>
    <marker id="arrowGreen" markerWidth="16" markerHeight="12" refX="15" refY="6" orient="auto" markerUnits="userSpaceOnUse">
      <path d="M 0 0 L 16 6 L 0 12 z" fill="#75b843"/>
    </marker>
    <style>
      .title { font-size:36px; font-weight:600; letter-spacing:1.2px; }
      .label { font-size:29px; }
      .small { font-size:24px; }
      .wire { stroke:#000; stroke-width:4; fill:none; stroke-linecap:square; stroke-linejoin:miter; }
      .thinwire { stroke:#000; stroke-width:3.4; fill:none; stroke-linecap:square; stroke-linejoin:miter; }
      .panel-line { stroke:#fff; stroke-width:3; }
      .bluebox { fill:#4472c4; stroke:#244f97; stroke-width:2; }
      .brownbox { fill:none; stroke:#8a6228; stroke-width:3; }
      .greenwire { stroke:#73b842; stroke-width:3; fill:none; stroke-linecap:square; }
    </style>
  </defs>
  <rect x="0" y="0" width="1736" height="465" fill="#ededed"/>
  <rect x="0" y="465" width="876" height="456" fill="#f7eadc"/>
  <rect x="876" y="465" width="860" height="456" fill="#dfe6f5"/>
  <line x1="0" y1="465" x2="1736" y2="465" class="panel-line"/>
  <line x1="876" y1="465" x2="876" y2="921" class="panel-line"/>

  <text x="22" y="52" class="title">(a) Overall MINI Architecture</text>
  <rect x="498" y="72" width="268" height="50" rx="6" fill="#eef5e9" stroke="#2d579a" stroke-width="2"/>
  <text x="632" y="106" class="small" text-anchor="middle">Query function q(·)</text>
  <path d="M 398 220 L 398 96 L 496 96" class="wire" marker-end="url(#arrow)"/>
  <path d="M 766 96 L 870 96 L 870 203" class="wire" marker-end="url(#arrow)"/>
  <path d="M 498 309 L 660 309" class="wire" marker-end="url(#arrow)"/>
  <rect x="662" y="203" width="411" height="208" rx="30" fill="none" stroke="#294e8d" stroke-width="4" stroke-dasharray="22 14"/>
  <path d="M 1074 309 L 1242 309" class="wire" marker-end="url(#arrow)"/>
  <text x="431" y="405" class="label" text-anchor="middle">input x</text>
  <text x="867" y="444" class="label" text-anchor="middle">Any backbone</text>
  <text x="867" y="479" class="label" text-anchor="middle">with MINI-Conv</text>
  <text x="1323" y="405" class="label" text-anchor="middle">output y</text>

  <text x="22" y="510" class="title">(b) MINI-Conv</text>
  <text x="51" y="711" class="label" font-style="italic">q(x)</text>
  <text x="45" y="854" class="label" font-style="italic">h</text>
  <text x="10" y="904" class="small">hidden state</text>
  <text x="342" y="579" class="small" text-anchor="middle">bias embeddings</text>
  <text x="331" y="813" class="small" text-anchor="middle">weight embeddings</text>
  <path d="M 111 701 L 270 701" class="wire" marker-end="url(#arrow)"/>
  <path d="M 180 701 L 180 624 L 296 624" class="wire" marker-end="url(#arrow)"/>
  <path d="M 388 624 L 459 624" class="wire" marker-end="url(#arrow)"/>
  <path d="M 492 624 L 733 624 L 733 704" class="wire" marker-end="url(#arrow)"/>
  <path d="M 405 731 L 459 731" class="wire" marker-end="url(#arrow)"/>
  <path d="M 502 731 L 541 731" class="wire" marker-end="url(#arrow)"/>
  <circle cx="566" cy="731" r="22" fill="none" stroke="#000" stroke-width="3"/>
  <text x="566" y="739" font-size="31" text-anchor="middle">R</text>
  <path d="M 588 731 L 632 731" class="wire" marker-end="url(#arrow)"/>
  <circle cx="657" cy="731" r="22" fill="none" stroke="#000" stroke-width="3"/>
  <text x="657" y="742" font-size="38" text-anchor="middle">*</text>
  <path d="M 679 731 L 710 731" class="wire" marker-end="url(#arrow)"/>
  <circle cx="733" cy="731" r="23" fill="none" stroke="#000" stroke-width="3"/>
  <line x1="733" y1="710" x2="733" y2="752" stroke="#000" stroke-width="3"/>
  <line x1="712" y1="731" x2="754" y2="731" stroke="#000" stroke-width="3"/>
  <path d="M 756 731 L 816 731" class="wire" marker-end="url(#arrow)"/>
  <text x="839" y="741" class="label" font-style="italic">h′</text>
  <path d="M 105 852 L 657 852 L 657 755" class="wire" marker-end="url(#arrow)"/>
  <g font-size="28">
    <circle cx="407" cy="876" r="16" fill="none" stroke="#000" stroke-width="2"/>
    <text x="407" y="884" text-anchor="middle">R</text>
    <text x="432" y="884">: reshape</text>
    <circle cx="625" cy="876" r="16" fill="none" stroke="#000" stroke-width="2"/>
    <text x="625" y="884" text-anchor="middle">*</text>
    <text x="651" y="884">: convolution</text>
    <circle cx="407" cy="910" r="16" fill="none" stroke="#000" stroke-width="2"/>
    <line x1="407" y1="896" x2="407" y2="924" stroke="#000" stroke-width="2"/>
    <line x1="393" y1="910" x2="421" y2="910" stroke="#000" stroke-width="2"/>
    <text x="432" y="918">: Element-wise addition</text>
  </g>

  <text x="899" y="510" class="title">(c) Query function q(·)</text>
  <text x="891" y="791" class="label" font-style="italic">x</text>
  <path d="M 912 788 L 948 788" class="thinwire" marker-end="url(#arrow)"/>
  <rect x="948" y="746" width="148" height="83" rx="12" class="bluebox"/>
  <text x="1022" y="796" class="small" fill="#fff" text-anchor="middle">patching</text>
  <rect x="948" y="587" width="171" height="84" rx="9" fill="none" stroke="#f0b400" stroke-width="3" stroke-dasharray="9 5"/>
  <text x="1034" y="611" font-size="21" text-anchor="middle">Degradation</text>
  <text x="1034" y="639" font-size="22" text-anchor="middle">Classification</text>
  <text x="1034" y="666" font-size="22" text-anchor="middle">MLP</text>
  <path d="M 1033 746 L 1033 672" class="thinwire" marker-end="url(#arrow)"/>
  <path d="M 1096 788 L 1175 788" class="thinwire"/>
  <path d="M 1119 630 L 1200 630 L 1200 703" class="greenwire" marker-end="url(#arrowGreen)"/>
  <rect x="1155" y="704" width="88" height="168" fill="none" stroke="#00a64a" stroke-width="3" stroke-dasharray="12 9"/>
  <circle cx="1205" cy="733" r="10" fill="#000"/>
  <circle cx="1205" cy="837" r="10" fill="#000"/>
  <path d="M 1175 788 L 1205 733" stroke="#000" stroke-width="4" fill="none"/>
  <path d="M 1205 733 L 1308 733" class="thinwire" marker-end="url(#arrow)"/>
  <path d="M 1205 837 L 1308 837" class="thinwire" marker-end="url(#arrow)"/>
  <text x="1199" y="900" class="small" text-anchor="middle">switch</text>
  <rect x="1309" y="694" width="128" height="82" rx="11" class="brownbox"/>
  <text x="1373" y="729" class="small" text-anchor="middle">Global</text>
  <text x="1373" y="762" class="small" text-anchor="middle">MLP</text>
  <rect x="1309" y="795" width="128" height="82" rx="11" class="brownbox"/>
  <text x="1373" y="831" class="small" text-anchor="middle">Local</text>
  <text x="1373" y="864" class="small" text-anchor="middle">MLP</text>
  <path d="M 1437 735 L 1465 735 L 1465 789 L 1525 789" class="thinwire" marker-end="url(#arrow)"/>
  <path d="M 1437 837 L 1465 837 L 1465 789" class="thinwire"/>
  <rect x="1525" y="746" width="105" height="83" rx="10" class="bluebox"/>
  <text x="1578" y="777" font-size="25" fill="#fff" text-anchor="middle">softmax</text>
  <text x="1578" y="804" font-size="23" fill="#fff" text-anchor="middle">&amp;</text>
  <text x="1578" y="827" font-size="23" fill="#fff" text-anchor="middle">argmax</text>
  <path d="M 1630 789 L 1665 789" class="thinwire" marker-end="url(#arrow)"/>
  <text x="1673" y="798" class="label" font-style="italic">q(x)</text>

  <g id="slot_input_image_stack" data-bbox="[332,162,166,210]" data-role="asset">
    <rect x="332" y="162" width="166" height="210" fill="#f8f8f8" stroke="#666" stroke-width="2" stroke-dasharray="6 4"/>
    <line x1="332" y1="162" x2="498" y2="372" stroke="#aaa" stroke-width="1.2"/>
    <line x1="498" y1="162" x2="332" y2="372" stroke="#aaa" stroke-width="1.2"/>
    <text x="415.0" y="267.0" font-size="13" fill="#555" text-anchor="middle" dominant-baseline="middle">ASSET_SLOT</text>
  </g>
  <g id="slot_backbone_mini_conv_visual" data-bbox="[690,217,350,166]" data-role="asset">
    <rect x="690" y="217" width="350" height="166" fill="#f8f8f8" stroke="#666" stroke-width="2" stroke-dasharray="6 4"/>
    <line x1="690" y1="217" x2="1040" y2="383" stroke="#aaa" stroke-width="1.2"/>
    <line x1="1040" y1="217" x2="690" y2="383" stroke="#aaa" stroke-width="1.2"/>
    <text x="865.0" y="300.0" font-size="13" fill="#555" text-anchor="middle" dominant-baseline="middle">ASSET_SLOT</text>
  </g>
  <g id="slot_output_image_stack" data-bbox="[1246,162,169,210]" data-role="asset">
    <rect x="1246" y="162" width="169" height="210" fill="#f8f8f8" stroke="#666" stroke-width="2" stroke-dasharray="6 4"/>
    <line x1="1246" y1="162" x2="1415" y2="372" stroke="#aaa" stroke-width="1.2"/>
    <line x1="1415" y1="162" x2="1246" y2="372" stroke="#aaa" stroke-width="1.2"/>
    <text x="1330.5" y="267.0" font-size="13" fill="#555" text-anchor="middle" dominant-baseline="middle">ASSET_SLOT</text>
  </g>
  <g id="slot_bias_embedding_stack" data-bbox="[296,580,92,75]" data-role="asset">
    <rect x="296" y="580" width="92" height="75" fill="#f8f8f8" stroke="#666" stroke-width="2" stroke-dasharray="6 4"/>
    <line x1="296" y1="580" x2="388" y2="655" stroke="#aaa" stroke-width="1.2"/>
    <line x1="388" y1="580" x2="296" y2="655" stroke="#aaa" stroke-width="1.2"/>
    <text x="342.0" y="617.5" font-size="13" fill="#555" text-anchor="middle" dominant-baseline="middle">ASSET_SLOT</text>
  </g>
  <g id="slot_weight_embedding_stack" data-bbox="[271,659,133,131]" data-role="asset">
    <rect x="271" y="659" width="133" height="131" fill="#f8f8f8" stroke="#666" stroke-width="2" stroke-dasharray="6 4"/>
    <line x1="271" y1="659" x2="404" y2="790" stroke="#aaa" stroke-width="1.2"/>
    <line x1="404" y1="659" x2="271" y2="790" stroke="#aaa" stroke-width="1.2"/>
    <text x="337.5" y="724.5" font-size="13" fill="#555" text-anchor="middle" dominant-baseline="middle">ASSET_SLOT</text>
  </g>
  <g id="slot_bias_filter_block" data-bbox="[459,589,34,70]" data-role="asset">
    <rect x="459" y="589" width="34" height="70" fill="#f8f8f8" stroke="#666" stroke-width="2" stroke-dasharray="6 4"/>
    <line x1="459" y1="589" x2="493" y2="659" stroke="#aaa" stroke-width="1.2"/>
    <line x1="493" y1="589" x2="459" y2="659" stroke="#aaa" stroke-width="1.2"/>
    <text x="476.0" y="624.0" font-size="13" fill="#555" text-anchor="middle" dominant-baseline="middle">ASSET_SLOT</text>
  </g>
  <g id="slot_weight_filter_block" data-bbox="[457,670,45,121]" data-role="asset">
    <rect x="457" y="670" width="45" height="121" fill="#f8f8f8" stroke="#666" stroke-width="2" stroke-dasharray="6 4"/>
    <line x1="457" y1="670" x2="502" y2="791" stroke="#aaa" stroke-width="1.2"/>
    <line x1="502" y1="670" x2="457" y2="791" stroke="#aaa" stroke-width="1.2"/>
    <text x="479.5" y="730.5" font-size="13" fill="#555" text-anchor="middle" dominant-baseline="middle">ASSET_SLOT</text>
  </g>

</svg>
