<svg xmlns="http://www.w3.org/2000/svg" viewBox="6.0 5.0 1694.0 749.0" style="font-family: Arial, Helvetica, sans-serif; background-color: white;">
  <defs>
    <!-- Arrowhead Marker -->
    <marker id="arrowhead" markerWidth="10" markerHeight="7" refX="9" refY="3.5" orient="auto">
      <polygon points="0 0, 10 3.5, 0 7" fill="#555" />
    </marker>
    <marker id="arrowhead-black" markerWidth="10" markerHeight="7" refX="9" refY="3.5" orient="auto">
      <polygon points="0 0, 10 3.5, 0 7" fill="black" />
    </marker>
    <marker id="arrowhead-small" markerWidth="6" markerHeight="6" refX="5" refY="3" orient="auto">
      <polygon points="0 0, 6 3, 0 6" fill="black" />
    </marker>
    
    <!-- Gradients -->
    <linearGradient id="grad-encoder" x1="0%" y1="0%" x2="0%" y2="100%">
      <stop offset="0%" style="stop-color:#E1BEE7;stop-opacity:1" />
      <stop offset="100%" style="stop-color:#D1C4E9;stop-opacity:1" />
    </linearGradient>
    <linearGradient id="grad-classifier" x1="0%" y1="0%" x2="0%" y2="100%">
      <stop offset="0%" style="stop-color:#BBDEFB;stop-opacity:1" />
      <stop offset="100%" style="stop-color:#E3F2FD;stop-opacity:1" />
    </linearGradient>
  </defs>

  <!-- ==================== TOP SECTION ==================== -->

  <!-- 1. Input Block -->
  <g transform="translate(20, 10)">
    <rect x="0" y="0" width="390" height="320" rx="20" fill="#F2F2F2" stroke="#888" stroke-width="2"/>
    
    <!-- Trajectory Scaling -->
    <g transform="translate(30, 30)">
      <!-- Teal Curve -->
      <path d="M10,140 Q80,140 150,40" fill="none" stroke="#A0D6C8" stroke-width="4"/>
      <circle cx="10" cy="140" r="8" fill="#A0D6C8"/>
      <circle cx="60" cy="110" r="8" fill="#A0D6C8"/>
      <circle cx="110" cy="80" r="8" fill="#A0D6C8"/>
      <circle cx="150" cy="40" r="8" fill="#A0D6C8"/>
      <!-- Arrow -->
      <line x1="0" y1="120" x2="140" y2="0" stroke="black" stroke-width="2" marker-end="url(#arrowhead-black)"/>
      
      <!-- Salmon Curve -->
      <path d="M20,130 Q90,130 160,30" fill="none" stroke="#F0A090" stroke-width="4"/>
      <circle cx="20" cy="130" r="8" fill="#F0A090"/>
      <circle cx="70" cy="100" r="8" fill="#F0A090"/>
      <circle cx="120" cy="70" r="8" fill="#F0A090"/>
      <circle cx="160" cy="30" r="8" fill="#F0A090"/>
      <!-- Arrow -->
      <line x1="10" y1="110" x2="150" y2="10" stroke="black" stroke-width="2" marker-end="url(#arrowhead-black)"/>
      
      <text x="170" y="100" text-anchor="middle" font-size="28" fill="black">Trajectory</text>
      <text x="170" y="130" text-anchor="middle" font-size="28" fill="black">Scaling</text>
    </g>

    <!-- Rotation -->
    <g transform="translate(130, 160)">
      <path d="M0,20 Q50,60 100,20" fill="none" stroke="#A0D6C8" stroke-width="4"/>
      <circle cx="0" cy="20" r="8" fill="#A0D6C8"/>
      <circle cx="50" cy="50" r="8" fill="#F0A090"/>
      <circle cx="100" cy="20" r="8" fill="#F0A090"/>
      <!-- Circular Arrow -->
      <path d="M60,10 A25,25 0 1,1 40,30" fill="none" stroke="black" stroke-width="2" marker-end="url(#arrowhead-black)"/>
      <text x="50" y="70" text-anchor="middle" font-size="28" fill="black">Rotation</text>
    </g>

    <!-- Translation -->
    <g transform="translate(250, 100)">
      <path d="M20,100 Q40,60 60,60 T100,20 T140,10" fill="none" stroke="#C8A2C8" stroke-width="4"/>
      <circle cx="20" cy="100" r="8" fill="#C8A2C8"/>
      <circle cx="60" cy="60" r="8" fill="#C8A2C8"/>
      <circle cx="100" cy="20" r="8" fill="#C8A2C8"/>
      <circle cx="140" cy="10" r="8" fill="#C8A2C8"/>
      <text x="80" y="130" text-anchor="middle" font-size="28" fill="black">Translation</text>
    </g>

    <text x="195" y="300" text-anchor="middle" font-size="32" fill="black">Augmented Trajectories</text>
  </g>

  <!-- Arrow 1 -->
  <polygon points="410,185 410,215 450,195" fill="#555" stroke="#555" stroke-width="2"/>
  <rect x="410" y="185" width="40" height="20" fill="#555" stroke="none" transform="translate(0,0)"/>

  <!-- 2. Feature Extraction Module -->
  <g transform="translate(460, 10)">
    <rect x="0" y="0" width="300" height="320" rx="20" fill="#D5E8D4" stroke="#82B366" stroke-width="2"/>
    <text x="150" y="40" text-anchor="middle" font-size="32" font-weight="bold" fill="black">Feature Extraction</text>
    <text x="150" y="70" text-anchor="middle" font-size="32" font-weight="bold" fill="black">module</text>
    
    <!-- Inner Container -->
    <rect x="20" y="90" width="260" height="210" rx="20" fill="#E3EFE3" stroke="#82B366" stroke-width="1"/>
    <text x="150" y="120" text-anchor="middle" font-size="28" fill="black">Trajectory Feature</text>
    <text x="150" y="145" text-anchor="middle" font-size="28" fill="black">Extraction</text>

    <!-- Buttons -->
    <g transform="translate(40, 160)">
      <rect x="0" y="0" width="220" height="50" rx="10" fill="#E3EFE3" stroke="#82B366" stroke-width="2"/>
      <text x="110" y="35" text-anchor="middle" font-size="28" fill="black">Motion Velocity</text>
      
      <rect x="0" y="60" width="220" height="50" rx="10" fill="#E3EFE3" stroke="#82B366" stroke-width="2"/>
      <text x="110" y="95" text-anchor="middle" font-size="28" fill="black">Spatial Density</text>
      
      <rect x="0" y="120" width="220" height="60" rx="10" fill="#E3EFE3" stroke="#82B366" stroke-width="2"/>
      <text x="110" y="145" text-anchor="middle" font-size="28" fill="black">Interaction</text>
      <text x="110" y="170" text-anchor="middle" font-size="28" fill="black">Patterns</text>
    </g>
  </g>

  <!-- Arrow 2 -->
  <polygon points="730,185 730,215 770,195" fill="#555" stroke="#555" stroke-width="2"/>
  <rect x="730" y="185" width="40" height="20" fill="#555" stroke="none"/>

  <!-- 3. Context Encoder -->
  <g transform="translate(780, 95)">
    <!-- Shadow -->
    <rect x="10" y="10" width="210" height="190" rx="20" fill="#CCC"/>
    <!-- Main Box -->
    <rect x="0" y="0" width="210" height="190" rx="20" fill="url(#grad-encoder)" stroke="#9C27B0" stroke-width="1.5"/>
    <text x="105" y="40" text-anchor="middle" font-size="32" fill="black">Context</text>
    <text x="105" y="75" text-anchor="middle" font-size="32" fill="black">Encoder</text>
    
    <!-- Grid Graphic -->
    <g transform="translate(40, 90)">
      <rect x="0" y="0" width="120" height="100" fill="white" stroke="black" stroke-width="1"/>
      <!-- Simulated colored cells -->
      <rect x="0" y="0" width="15" height="15" fill="#F0A090" opacity="0.8"/>
      <rect x="15" y="15" width="15" height="15" fill="#A0D6C8" opacity="0.8"/>
      <rect x="30" y="0" width="15" height="15" fill="#C8A2C8" opacity="0.8"/>
      <rect x="45" y="30" width="15" height="15" fill="#A0D6C8" opacity="0.8"/>
      <rect x="60" y="60" width="15" height="15" fill="#C8A2C8" opacity="0.8"/>
      <rect x="75" y="15" width="15" height="15" fill="#F0A090" opacity="0.8"/>
      <rect x="90" y="45" width="15" height="15" fill="#A0D6C8" opacity="0.8"/>
      <rect x="105" y="75" width="15" height="15" fill="#C8A2C8" opacity="0.8"/>
      <!-- Grid lines overlay -->
      <path d="M0,15 H120 M0,30 H120 M0,45 H120 M0,60 H120 M0,75 H120 M0,90 H120" stroke="black" stroke-width="0.5"/>
      <path d="M15,0 V100 M30,0 V100 M45,0 V100 M60,0 V100 M75,0 V100 M90,0 V100 M105,0 V100" stroke="black" stroke-width="0.5"/>
    </g>
  </g>

  <!-- Arrow 3 -->
  <polygon points="950,185 950,215 990,195" fill="#555" stroke="#555" stroke-width="2"/>
  <rect x="950" y="185" width="40" height="20" fill="#555" stroke="none"/>

  <!-- 4. SceneSelect Classifier -->
  <g transform="translate(1000, 95)">
    <rect x="0" y="0" width="210" height="190" rx="20" fill="url(#grad-classifier)" stroke="#6C8EBF" stroke-width="1.5"/>
    <text x="105" y="40" text-anchor="middle" font-size="32" fill="black">SceneSelect</text>
    <text x="105" y="75" text-anchor="middle" font-size="32" fill="black">Classifier</text>
    
    <!-- Tree Diagram -->
    <g transform="translate(105, 100)">
      <!-- Edges -->
      <line x1="0" y1="0" x2="-40" y2="40" stroke="black" stroke-width="1.5"/>
      <line x1="0" y1="0" x2="40" y2="40" stroke="black" stroke-width="1.5"/>
      <line x1="-40" y1="40" x2="-60" y2="80" stroke="black" stroke-width="1.5"/>
      <line x1="-40" y1="40" x2="-20" y2="80" stroke="black" stroke-width="1.5"/>
      <line x1="40" y1="40" x2="20" y2="80" stroke="black" stroke-width="1.5"/>
      <line x1="40" y1="40" x2="60" y2="80" stroke="black" stroke-width="1.5"/>
      
      <!-- Nodes -->
      <circle cx="0" cy="0" r="12" fill="#A9C4EB" stroke="black" stroke-width="1.5"/>
      <circle cx="-40" cy="40" r="12" fill="#A9C4EB" stroke="black" stroke-width="1.5"/>
      <circle cx="40" cy="40" r="12" fill="#A9C4EB" stroke="black" stroke-width="1.5"/>
      
      <circle cx="-60" cy="80" r="12" fill="#F0A090" stroke="black" stroke-width="1.5"/>
      <circle cx="-20" cy="80" r="12" fill="#F0A090" stroke="black" stroke-width="1.5"/>
      <circle cx="20" cy="80" r="12" fill="#EBC070" stroke="black" stroke-width="1.5"/>
      <circle cx="60" cy="80" r="12" fill="#EBC070" stroke="black" stroke-width="1.5"/>
    </g>
  </g>

  <!-- Scheduling Policy -->
  <g transform="translate(1000, 285)">
    <rect x="0" y="0" width="250" height="80" rx="15" fill="#FFF2CC" stroke="#D6B656" stroke-width="2"/>
    <text x="125" y="35" text-anchor="middle" font-size="32" fill="black">Scheduling</text>
    <text x="125" y="70" text-anchor="middle" font-size="32" fill="black">Policy</text>
    <!-- Grid Icon -->
    <g transform="translate(180, 15)">
      <rect x="0" y="0" width="60" height="50" fill="none" stroke="black" stroke-width="2"/>
      <line x1="0" y1="12" x2="60" y2="12" stroke="black" stroke-width="1"/>
      <line x1="0" y1="25" x2="60" y2="25" stroke="black" stroke-width="1"/>
      <line x1="0" y1="37" x2="60" y2="37" stroke="black" stroke-width="1"/>
      <line x1="20" y1="0" x2="20" y2="50" stroke="black" stroke-width="1"/>
      <line x1="40" y1="0" x2="40" y2="50" stroke="black" stroke-width="1"/>
    </g>
  </g>

  <!-- Arrow 4 -->
  <polygon points="1170,185 1170,215 1210,195" fill="#555" stroke="#555" stroke-width="2"/>
  <rect x="1170" y="185" width="40" height="20" fill="#555" stroke="none"/>

  <!-- 5. Scene-Model Pool -->
  <g transform="translate(1220, 10)">
    <rect x="0" y="0" width="280" height="320" rx="20" fill="#FFE6CC" stroke="#D68910" stroke-width="2"/>
    <text x="140" y="40" text-anchor="middle" font-size="32" font-weight="bold" fill="black">Scene-Model Pool</text>
    
    <!-- Expert 1 -->
    <g transform="translate(140, 80)">
      <path d="M-40,20 A25,25 0 1,1 40,20" fill="none" stroke="black" stroke-width="2" marker-end="url(#arrowhead-black)"/>
      <path d="M40,20 A25,25 0 1,1 -40,20" fill="none" stroke="black" stroke-width="2" marker-end="url(#arrowhead-black)" transform="rotate(180)"/>
      <line x1="-50" y1="20" x2="-30" y2="20" stroke="black" stroke-width="2"/>
      <line x1="30" y1="20" x2="50" y2="20" stroke="black" stroke-width="2" marker-end="url(#arrowhead-black)"/>
      <text x="0" y="60" text-anchor="middle" font-size="28" fill="black">Expert 1</text>
    </g>

    <!-- Expert 2 -->
    <g transform="translate(140, 160)">
      <path d="M-50,20 C-50,0 -20,0 -20,10 C-20,20 20,20 20,10 C20,0 50,0 50,20" fill="none" stroke="black" stroke-width="2"/>
      <line x1="-50" y1="20" x2="-50" y2="50" stroke="black" stroke-width="2"/>
      <line x1="-20" y1="10" x2="-20" y2="50" stroke="black" stroke-width="2"/>
      <line x1="20" y1="10" x2="20" y2="50" stroke="black" stroke-width="2"/>
      <line x1="50" y1="20" x2="50" y2="50" stroke="black" stroke-width="2"/>
      <!-- Small arrows -->
      <path d="M-50,20 L-20,20" stroke="black" stroke-width="1" marker-end="url(#arrowhead-small)"/>
      <path d="M-20,10 L20,10" stroke="black" stroke-width="1" marker-end="url(#arrowhead-small)"/>
      <path d="M20,10 L50,20" stroke="black" stroke-width="1" marker-end="url(#arrowhead-small)"/>
      <!-- Small boxes -->
      <rect x="-25" y="5" width="15" height="10" fill="#FFE6CC" stroke="black" stroke-width="1"/>
      <rect x="5" y="5" width="15" height="10" fill="#FFE6CC" stroke="black" stroke-width="1"/>
      <rect x="25" y="5" width="15" height="10" fill="#FFE6CC" stroke="black" stroke-width="1"/>
      <rect x="-25" y="35" width="15" height="10" fill="#FFE6CC" stroke="black" stroke-width="1"/>
      <rect x="5" y="35" width="15" height="10" fill="#FFE6CC" stroke="black" stroke-width="1"/>
      <rect x="25" y="35" width="15" height="10" fill="#FFE6CC" stroke="black" stroke-width="1"/>
      
      <text x="0" y="80" text-anchor="middle" font-size="28" fill="black">Expert 2</text>
    </g>

    <!-- Expert 3 -->
    <g transform="translate(140, 240)">
      <line x1="-50" y1="20" x2="50" y2="20" stroke="black" stroke-width="2" marker-end="url(#arrowhead-black)"/>
      <rect x="-30" y="0" width="15" height="50" fill="#FFE6CC" stroke="black" stroke-width="1.5" transform="skewY(-10)"/>
      <rect x="-5" y="5" width="15" height="50" fill="#FFE6CC" stroke="black" stroke-width="1.5" transform="skewY(-10)"/>
      <rect x="20" y="10" width="15" height="50" fill="#FFE6CC" stroke="black" stroke-width="1.5" transform="skewY(-10)"/>
      <text x="0" y="80" text-anchor="middle" font-size="28" fill="black">Expert 3</text>
    </g>
  </g>

  <!-- Arrow 5 -->
  <polygon points="1480,185 1480,215 1520,195" fill="#555" stroke="#555" stroke-width="2"/>
  <rect x="1480" y="185" width="40" height="20" fill="#555" stroke="none"/>

  <!-- 6. Output -->
  <g transform="translate(1530, 195)">
    <path d="M0,0 Q20,-20 40,0 T80,-20" fill="none" stroke="black" stroke-width="2" stroke-dasharray="8,4" marker-end="url(#arrowhead-black)"/>
    <text x="40" y="40" text-anchor="middle" font-size="28" fill="black">Predicted</text>
    <text x="40" y="70" text-anchor="middle" font-size="28" fill="black">Trajectory</text>
  </g>

  <!-- ==================== DIVIDER ==================== -->
  <line x1="10" y1="370" x2="1590" y2="370" stroke="black" stroke-width="2" stroke-dasharray="10,10"/>

  <!-- ==================== BOTTOM SECTION ==================== -->

  <!-- Labels -->
  <text x="20" y="410" font-size="40" font-weight="bold" fill="black">(a)</text>
  <text x="910" y="410" font-size="40" font-weight="bold" fill="black">(b)</text>

  <!-- Panel (a): Scene Context Encoder -->
  <g transform="translate(15, 420)">
    <rect x="0" y="0" width="870" height="270" rx="20" fill="#EADDF5" stroke="#9C27B0" stroke-width="1.5"/>
    <text x="435" y="40" text-anchor="middle" font-size="36" font-weight="bold" fill="black">Scene Context Encoder</text>

    <!-- 1. Raw Features -->
    <g transform="translate(30, 70)">
      <text x="60" y="30" text-anchor="middle" font-size="32" fill="black">Raw</text>
      <text x="60" y="65" text-anchor="middle" font-size="32" fill="black">Features</text>
      
      <rect x="0" y="100" width="120" height="20" fill="#A0D6C8" stroke="black" stroke-width="1.5"/>
      <rect x="0" y="130" width="120" height="20" fill="#F0A090" stroke="black" stroke-width="1.5"/>
      <rect x="0" y="160" width="120" height="20" fill="#EBC070" stroke="black" stroke-width="1.5"/>
      
      <text x="60" y="210" text-anchor="middle" font-size="24" fill="black">Extracted &amp;</text>
      <text x="60" y="235" text-anchor="middle" font-size="24" fill="black">kinematic</text>
      <text x="60" y="260" text-anchor="middle" font-size="24" fill="black">feature vectors</text>
    </g>

    <!-- Arrow -->
    <polygon points="140,140 140,160 170,150" fill="#555" stroke="#555" stroke-width="1"/>
    <rect x="140" y="140" width="30" height="20" fill="#555" stroke="none"/>

    <!-- 2. Random Projection -->
    <g transform="translate(170, 40)">
      <rect x="0" y="0" width="180" height="200" rx="15" fill="#EADDF5" stroke="#9C27B0" stroke-width="1.5"/>
      <text x="90" y="40" text-anchor="middle" font-size="32" fill="black">Random</text>
      <text x="90" y="75" text-anchor="middle" font-size="32" fill="black">Projection</text>
      
      <!-- Grids -->
      <g transform="translate(10, 110)">
        <rect x="0" y="0" width="60" height="60" fill="white" stroke="black" stroke-width="1"/>
        <path d="M15,0 V60 M30,0 V60 M45,0 V60 M0,15 H60 M0,30 H60 M0,45 H60" stroke="black" stroke-width="1"/>
        <rect x="0" y="0" width="15" height="15" fill="#A9C4EB" opacity="0.8"/>
        <rect x="15" y="15" width="15" height="15" fill="#A0D6C8" opacity="0.8"/>
        <rect x="30" y="30" width="15" height="15" fill="#F0A090" opacity="0.8"/>
      </g>
      
      <text x="85" y="150" font-size="24" font-weight="bold" fill="black">x</text>
      
      <g transform="translate(110, 110)">
        <rect x="0" y="0" width="60" height="60" fill="white" stroke="black" stroke-width="1"/>
        <path d="M15,0 V60 M30,0 V60 M45,0 V60 M0,15 H60 M0,30 H60 M0,45 H60" stroke="black" stroke-width="1"/>
        <rect x="0" y="0" width="15" height="15" fill="#EBC070" opacity="0.8"/>
        <rect x="15" y="15" width="15" height="15" fill="#C8A2C8" opacity="0.8"/>
        <rect x="30" y="30" width="15" height="15" fill="#A0D6C8" opacity="0.8"/>
      </g>
      
      <text x="90" y="230" text-anchor="middle" font-size="24" fill="black">Random</text>
      <text x="90" y="255" text-anchor="middle" font-size="24" fill="black">matrix</text>
    </g>

    <!-- Arrow -->
    <polygon points="330,140 330,160 360,150" fill="#555" stroke="#555" stroke-width="1"/>
    <rect x="330" y="140" width="30" height="20" fill="#555" stroke="none"/>

    <!-- 3. Sparsification -->
    <g transform="translate(370, 70)">
      <text x="80" y="30" text-anchor="middle" font-size="30" fill="black">Sparsification</text>
      <g transform="translate(20, 70)">
        <rect x="0" y="0" width="120" height="100" fill="white" stroke="black" stroke-width="1.5"/>
        <!-- Sparse colored cells -->
        <rect x="0" y="0" width="15" height="15" fill="#6C8EBF" stroke="black" stroke-width="0.5"/>
        <rect x="15" y="15" width="15" height="15" fill="#6C8EBF" stroke="black" stroke-width="0.5"/>
        <rect x="30" y="0" width="15" height="15" fill="#D5E8D4" stroke="black" stroke-width="0.5"/>
        <rect x="60" y="30" width="15" height="15" fill="#D5E8D4" stroke="black" stroke-width="0.5"/>
        <rect x="90" y="0" width="15" height="15" fill="#D5E8D4" stroke="black" stroke-width="0.5"/>
        <rect x="60" y="60" width="15" height="15" fill="#6C8EBF" stroke="black" stroke-width="0.5"/>
        <rect x="90" y="60" width="15" height="15" fill="#6C8EBF" stroke="black" stroke-width="0.5"/>
        <rect x="105" y="85" width="15" height="15" fill="#D5E8D4" stroke="black" stroke-width="0.5"/>
        <!-- Grid lines -->
        <path d="M0,15 H120 M0,30 H120 M0,45 H120 M0,60 H120 M0,75 H120 M0,90 H120" stroke="black" stroke-width="1"/>
        <path d="M15,0 V100 M30,0 V100 M45,0 V100 M60,0 V100 M75,0 V100 M90,0 V100 M105,0 V100" stroke="black" stroke-width="1"/>
      </g>
      <text x="80" y="200" text-anchor="middle" font-size="24" fill="black">Sparse high-</text>
      <text x="80" y="225" text-anchor="middle" font-size="24" fill="black">dimensional</text>
      <text x="80" y="250" text-anchor="middle" font-size="24" fill="black">representation</text>
    </g>

    <!-- Arrow -->
    <polygon points="515,140 515,160 545,150" fill="#555" stroke="#555" stroke-width="1"/>
    <rect x="515" y="140" width="30" height="20" fill="#555" stroke="none"/>

    <!-- 4. Clustering -->
    <g transform="translate(550, 40)">
      <rect x="0" y="0" width="180" height="200" rx="15" fill="#EADDF5" stroke="#9C27B0" stroke-width="1.5"/>
      <text x="90" y="40" text-anchor="middle" font-size="32" fill="black">Clustering</text>
      
      <!-- Axes -->
      <line x1="20" y1="180" x2="20" y2="60" stroke="black" stroke-width="1.5" marker-end="url(#arrowhead-black)"/>
      <line x1="20" y1="180" x2="160" y2="180" stroke="black" stroke-width="1.5" marker-end="url(#arrowhead-black)"/>
      
      <!-- Blobs -->
      <g transform="translate(60, 90) rotate(-30)">
        <ellipse cx="0" cy="0" rx="30" ry="20" fill="#F0A090" fill-opacity="0.4" stroke="#F0A090"/>
        <circle cx="-10" cy="-5" r="4" fill="#F0A090"/>
        <circle cx="10" cy="5" r="4" fill="#F0A090"/>
        <circle cx="0" cy="-10" r="4" fill="#F0A090"/>
      </g>
      <g transform="translate(120, 100) rotate(30)">
        <ellipse cx="0" cy="0" rx="30" ry="20" fill="#A0D6C8" fill-opacity="0.4" stroke="#A0D6C8"/>
        <circle cx="-10" cy="-5" r="4" fill="#A0D6C8"/>
        <circle cx="10" cy="5" r="4" fill="#A0D6C8"/>
        <circle cx="0" cy="-10" r="4" fill="#A0D6C8"/>
      </g>
      <g transform="translate(70, 150)">
        <ellipse cx="0" cy="0" rx="25" ry="20" fill="#C8A2C8" fill-opacity="0.4" stroke="#C8A2C8"/>
        <circle cx="-10" cy="-5" r="4" fill="#C8A2C8"/>
        <circle cx="10" cy="5" r="4" fill="#C8A2C8"/>
        <circle cx="0" cy="-10" r="4" fill="#C8A2C8"/>
      </g>
      <g transform="translate(120, 130)">
        <ellipse cx="0" cy="0" rx="20" ry="25" fill="#EBC070" fill-opacity="0.4" stroke="#EBC070"/>
        <circle cx="-8" cy="-8" r="4" fill="#EBC070"/>
        <circle cx="8" cy="8" r="4" fill="#EBC070"/>
        <circle cx="0" cy="10" r="4" fill="#EBC070"/>
      </g>
      
      <text x="90" y="230" text-anchor="middle" font-size="24" fill="black">Unsupervised</text>
      <text x="90" y="255" text-anchor="middle" font-size="24" fill="black">Clustering</text>
    </g>

    <!-- Arrow -->
    <polygon points="710,140 710,160 740,150" fill="#555" stroke="#555" stroke-width="1"/>
    <rect x="710" y="140" width="30" height="20" fill="#555" stroke="none"/>

    <!-- 5. Pseudo-labels -->
    <g transform="translate(740, 70)">
      <text x="60" y="20" text-anchor="middle" font-size="32" fill="black">Pseudo-</text>
      <text x="60" y="55" text-anchor="middle" font-size="32" fill="black">labels</text>
      
      <rect x="10" y="80" width="110" height="30" rx="10" fill="#F0A090" stroke="#888"/>
      <text x="65" y="103" text-anchor="middle" font-size="24" fill="black">Scene A</text>
      
      <rect x="10" y="115" width="110" height="30" rx="10" fill="#A0D6C8" stroke="#888"/>
      <text x="65" y="138" text-anchor="middle" font-size="24" fill="black">Scene B</text>
      
      <rect x="10" y="150" width="110" height="30" rx="10" fill="#EBC070" stroke="#888"/>
      <text x="65" y="173" text-anchor="middle" font-size="24" fill="black">Scene C</text>
      
      <text x="65" y="210" text-anchor="middle" font-size="24" fill="black">Pseudo-labels</text>
      <text x="65" y="235" text-anchor="middle" font-size="20" fill="black">(Scene Categories)</text>
    </g>
  </g>

  <!-- Arrow between panels -->
  <polygon points="870,585 870,605 900,590" fill="#555" stroke="#555" stroke-width="1"/>
  <rect x="870" y="585" width="30" height="20" fill="#555" stroke="none"/>

  <!-- Panel (b): SceneSelect Classifier Detail -->
  <g transform="translate(905, 420)">
    <rect x="0" y="0" width="685" height="270" rx="20" fill="#DAE8FC" stroke="#6C8EBF" stroke-width="1.5"/>
    <text x="342" y="40" text-anchor="middle" font-size="36" font-weight="bold" fill="black">SceneSelect Classifier</text>

    <!-- 1. Input -->
    <g transform="translate(20, 80)">
      <text x="0" y="20" font-size="30" fill="black">Input</text>
      <text x="0" y="100" font-size="26" fill="black">Pseudo-</text>
      <text x="0" y="130" font-size="26" fill="black">labels</text>
      <text x="0" y="160" font-size="26" fill="black">+ Features</text>
    </g>

    <!-- Arrow -->
    <polygon points="120,140 120,160 150,150" fill="#555" stroke="#555" stroke-width="1"/>
    <rect x="120" y="140" width="30" height="20" fill="#555" stroke="none"/>

    <!-- 2. Additive Tree -->
    <g transform="translate(200, 70)">
      <text x="100" y="20" text-anchor="middle" font-size="32" fill="black">Additive Tree-based</text>
      <text x="100" y="55" text-anchor="middle" font-size="32" fill="black">Classifier</text>
      
      <!-- Tree -->
      <g transform="translate(100, 80)">
        <!-- Edges -->
        <line x1="0" y1="0" x2="-60" y2="60" stroke="black" stroke-width="2"/>
        <line x1="0" y1="0" x2="60" y2="60" stroke="black" stroke-width="2"/>
        <line x1="-60" y1="60" x2="-90" y2="130" stroke="black" stroke-width="2"/>
        <line x1="-60" y1="60" x2="-30" y2="130" stroke="black" stroke-width="2"/>
        <line x1="60" y1="60" x2="30" y2="130" stroke="black" stroke-width="2"/>
        <line x1="60" y1="60" x2="90" y2="130" stroke="black" stroke-width="2"/>
        
        <!-- Nodes -->
        <circle cx="0" cy="0" r="20" fill="#A9C4EB" stroke="black" stroke-width="2"/>
        <circle cx="-60" cy="60" r="20" fill="#A9C4EB" stroke="black" stroke-width="2"/>
        <circle cx="60" cy="60" r="20" fill="#A9C4EB" stroke="black" stroke-width="2"/>
        
        <circle cx="-90" cy="130" r="20" fill="#F0A090" stroke="black" stroke-width="2"/>
        <circle cx="-30" cy="130" r="20" fill="#A0D6C8" stroke="black" stroke-width="2"/>
        <circle cx="30" cy="130" r="20" fill="#EBC070" stroke="black" stroke-width="2"/>
        <circle cx="90" cy="130" r="20" fill="#EBC070" stroke="black" stroke-width="2"/>
      </g>
    </g>

    <!-- Arrow -->
    <polygon points="360,140 360,160 390,150" fill="#555" stroke="#555" stroke-width="1"/>
    <rect x="360" y="140" width="30" height="20" fill="#555" stroke="none"/>

    <!-- 3. Output -->
    <g transform="translate(420, 70)">
      <text x="60" y="20" text-anchor="middle" font-size="32" fill="black">Scene</text>
      <text x="60" y="55" text-anchor="middle" font-size="32" fill="black">Category</text>
      <text x="60" y="90" text-anchor="middle" font-size="32" fill="black">Output</text>
      
      <rect x="0" y="110" width="120" height="30" rx="10" fill="#F0A090" stroke="#888"/>
      <text x="60" y="133" text-anchor="middle" font-size="24" fill="black">Scene A</text>
      
      <rect x="0" y="145" width="120" height="30" rx="10" fill="#A0D6C8" stroke="#888"/>
      <text x="60" y="168" text-anchor="middle" font-size="24" fill="black">Scene B</text>
      
      <rect x="0" y="180" width="120" height="30" rx="10" fill="#EBC070" stroke="#888"/>
      <text x="60" y="203" text-anchor="middle" font-size="24" fill="black">Scene C</text>
    </g>

    <!-- Arrow -->
    <polygon points="540,140 540,160 570,150" fill="#555" stroke="#555" stroke-width="1"/>
    <rect x="540" y="140" width="30" height="20" fill="#555" stroke="none"/>

    <!-- 4. Scheduling Policy Table -->
    <g transform="translate(570, 110)">
      <text x="110" y="20" text-anchor="middle" font-size="32" fill="black">Scheduling</text>
      <text x="110" y="55" text-anchor="middle" font-size="32" fill="black">Policy Table</text>
      
      <rect x="0" y="70" width="220" height="140" rx="15" fill="#FFF2CC" stroke="#D6B656" stroke-width="2"/>
      
      <!-- Table -->
      <g transform="translate(10, 90)">
        <rect x="0" y="0" width="200" height="100" fill="none" stroke="black" stroke-width="1.5"/>
        <line x1="0" y1="33" x2="200" y2="33" stroke="black" stroke-width="1"/>
        <line x1="0" y1="66" x2="200" y2="66" stroke="black" stroke-width="1"/>
        <line x1="90" y1="0" x2="90" y2="100" stroke="black" stroke-width="1"/>
        
        <!-- Text -->
        <text x="45" y="24" text-anchor="middle" font-size="20" fill="black">Scene A</text>
        <text x="145" y="24" text-anchor="middle" font-size="20" fill="black">Expert 1</text>
        
        <text x="45" y="57" text-anchor="middle" font-size="20" fill="black">Scene B</text>
        <text x="145" y="57" text-anchor="middle" font-size="20" fill="black">Expert 2</text>
        
        <text x="45" y="90" text-anchor="middle" font-size="20" fill="black">...</text>
        <text x="145" y="90" text-anchor="middle" font-size="20" fill="black">Expert 3</text>
      </g>
    </g>
  </g>

</svg>