<svg xmlns="http://www.w3.org/2000/svg" viewBox="4.0 14.0 1623.0 920.0" style="font-family: 'Times New Roman', Times, serif; background-color: white;">
  <defs>
    <!-- Arrowhead Marker -->
    <marker id="arrowhead" markerWidth="10" markerHeight="7" refX="9" refY="3.5" orient="auto">
      <polygon points="0 0, 10 3.5, 0 7" fill="black" />
    </marker>
    <!-- Arrowhead for dashed line -->
    <marker id="arrowhead-dashed" markerWidth="10" markerHeight="7" refX="9" refY="3.5" orient="auto">
      <polygon points="0 0, 10 3.5, 0 7" fill="black" />
    </marker>
  </defs>

  <!-- ================= SECTION A: TOP HALF ================= -->
  
  <!-- 1. Input Container -->
  <rect x="20" y="20" width="380" height="400" rx="20" fill="#F2F2F2" stroke="#808080" stroke-width="3" />
  <text x="210" y="405" font-size="32" font-weight="bold" text-anchor="middle" fill="black">Augmented Trajectories</text>

  <!-- Trajectory Graphics -->
  <g stroke-width="3" fill="none" stroke-linecap="round" stroke-linejoin="round">
    <!-- Green Traj -->
    <path d="M50,210 C100,150 150,100 200,90" stroke="#5F9EA0" />
    <circle cx="50" cy="210" r="8" fill="#5F9EA0" />
    <circle cx="100" cy="150" r="8" fill="#5F9EA0" />
    <circle cx="150" cy="100" r="8" fill="#5F9EA0" />
    <circle cx="200" cy="90" r="8" fill="#5F9EA0" />
    
    <!-- Red Traj -->
    <path d="M50,350 C100,300 150,280 200,300" stroke="#D98A78" />
    <circle cx="50" cy="350" r="8" fill="#D98A78" />
    <circle cx="100" cy="300" r="8" fill="#D98A78" />
    <circle cx="150" cy="280" r="8" fill="#D98A78" />
    <circle cx="200" cy="300" r="8" fill="#D98A78" />
    
    <!-- Purple Traj -->
    <path d="M280,150 C300,180 320,200 340,160" stroke="#9B7DB8" />
    <circle cx="280" cy="150" r="8" fill="#9B7DB8" />
    <circle cx="300" cy="180" r="8" fill="#9B7DB8" />
    <circle cx="320" cy="200" r="8" fill="#9B7DB8" />
    <circle cx="340" cy="160" r="8" fill="#9B7DB8" />
    
    <!-- Long Green -->
    <path d="M50,210 L200,40" stroke="#5F9EA0" marker-end="url(#arrowhead)" />
    
    <!-- Long Red -->
    <path d="M50,350 L200,50" stroke="#D98A78" marker-end="url(#arrowhead)" />
  </g>

  <!-- Labels -->
  <text x="210" y="160" font-size="28" font-weight="bold" text-anchor="middle" fill="black">Trajectory</text>
  <text x="210" y="190" font-size="28" font-weight="bold" text-anchor="middle" fill="black">Scaling</text>
  
  <text x="210" y="290" font-size="28" font-weight="bold" text-anchor="middle" fill="black">Rotation</text>
  <text x="350" y="290" font-size="28" font-weight="bold" text-anchor="middle" fill="black">Translation</text>

  <!-- Curved Arrows -->
  <path d="M100,290 Q130,280 150,290" fill="none" stroke="black" stroke-width="2" marker-end="url(#arrowhead)" />
  <path d="M230,210 Q250,230 230,250" fill="none" stroke="black" stroke-width="2" marker-end="url(#arrowhead)" />

  <!-- Arrow to Feature Extraction -->
  <path d="M400,230 L430,230" stroke="black" stroke-width="4" marker-end="url(#arrowhead)" />

  <!-- 2. Feature Extraction Module -->
  <rect x="440" y="20" width="260" height="400" rx="20" fill="#D5E8D4" stroke="#82B366" stroke-width="3" />
  <text x="570" y="60" font-size="32" font-weight="bold" text-anchor="middle" fill="black">Feature Extraction</text>
  <text x="570" y="90" font-size="32" font-weight="bold" text-anchor="middle" fill="black">module</text>

  <!-- Inner Container -->
  <rect x="460" y="110" width="220" height="320" rx="20" fill="#E2F0D9" stroke="#82B366" stroke-width="2" />
  
  <!-- Sub-Items -->
  <text x="570" y="155" font-size="28" font-weight="bold" text-anchor="middle" fill="black">Trajectory Feature</text>
  <text x="570" y="185" font-size="28" font-weight="bold" text-anchor="middle" fill="black">Extraction</text>
  
  <rect x="470" y="200" width="200" height="60" rx="10" fill="white" stroke="black" stroke-width="2" />
  <text x="570" y="235" font-size="28" font-weight="bold" text-anchor="middle" fill="black">Motion Velocity</text>
  
  <rect x="470" y="260" width="200" height="60" rx="10" fill="white" stroke="black" stroke-width="2" />
  <text x="570" y="295" font-size="28" font-weight="bold" text-anchor="middle" fill="black">Spatial Density</text>
  
  <rect x="470" y="320" width="200" height="80" rx="10" fill="white" stroke="black" stroke-width="2" />
  <text x="570" y="345" font-size="28" font-weight="bold" text-anchor="middle" fill="black">Interaction</text>
  <text x="570" y="375" font-size="28" font-weight="bold" text-anchor="middle" fill="black">Patterns</text>

  <!-- Arrow to Context Encoder -->
  <path d="M700,230 L730,230" stroke="black" stroke-width="4" marker-end="url(#arrowhead)" />

  <!-- 3. Context Encoder -->
  <rect x="740" y="110" width="180" height="240" rx="20" fill="#E1D5E7" stroke="#9673A6" stroke-width="3" />
  <text x="830" y="155" font-size="32" font-weight="bold" text-anchor="middle" fill="black">Context</text>
  <text x="830" y="190" font-size="32" font-weight="bold" text-anchor="middle" fill="black">Encoder</text>
  
  <!-- Grid Icon -->
  <g transform="translate(780, 200)">
    <rect x="0" y="0" width="100" height="100" fill="white" stroke="black" stroke-width="2" />
    <!-- Grid Lines -->
    <path d="M25,0 v100 M50,0 v100 M75,0 v100 M0,25 h100 M0,50 h100 M0,75 h100" stroke="black" stroke-width="1" />
    <!-- Color Squares -->
    <rect x="0" y="0" width="25" height="25" fill="#D98A78" opacity="0.6" />
    <rect x="25" y="25" width="25" height="25" fill="#5F9EA0" opacity="0.6" />
    <rect x="50" y="50" width="25" height="25" fill="#9B7DB8" opacity="0.6" />
    <rect x="75" y="75" width="25" height="25" fill="#D98A78" opacity="0.6" />
    <rect x="0" y="50" width="25" height="25" fill="#5F9EA0" opacity="0.6" />
    <rect x="25" y="75" width="25" height="25" fill="#9B7DB8" opacity="0.6" />
    <rect x="50" y="0" width="25" height="25" fill="#5F9EA0" opacity="0.6" />
    <rect x="75" y="25" width="25" height="25" fill="#9B7DB8" opacity="0.6" />
  </g>

  <!-- Arrow to SceneSelect -->
  <path d="M920,230 L950,230" stroke="black" stroke-width="4" marker-end="url(#arrowhead)" />

  <!-- 4. SceneSelect Classifier -->
  <rect x="960" y="110" width="180" height="240" rx="20" fill="#DAE8FC" stroke="#6C8EBF" stroke-width="3" />
  <text x="1050" y="155" font-size="32" font-weight="bold" text-anchor="middle" fill="black">SceneSelect</text>
  <text x="1050" y="190" font-size="32" font-weight="bold" text-anchor="middle" fill="black">Classifier</text>
  
  <!-- Tree Icon -->
  <g transform="translate(1000, 200)">
    <circle cx="50" cy="0" r="15" fill="#99B3E6" stroke="black" stroke-width="2" />
    <line x1="50" y1="15" x2="20" y2="50" stroke="black" stroke-width="2" />
    <line x1="50" y1="15" x2="80" y2="50" stroke="black" stroke-width="2" />
    <circle cx="20" cy="50" r="12" fill="#E69189" stroke="black" stroke-width="2" />
    <circle cx="80" cy="50" r="12" fill="#99B3E6" stroke="black" stroke-width="2" />
    <line x1="20" y1="62" x2="0" y2="80" stroke="black" stroke-width="2" />
    <line x1="20" y1="62" x2="40" y2="80" stroke="black" stroke-width="2" />
    <circle cx="0" cy="80" r="12" fill="#E69189" stroke="black" stroke-width="2" />
    <circle cx="40" cy="80" r="12" fill="#E69189" stroke="black" stroke-width="2" />
    <line x1="80" y1="62" x2="60" y2="80" stroke="black" stroke-width="2" />
    <line x1="80" y1="62" x2="100" y2="80" stroke="black" stroke-width="2" />
    <circle cx="60" cy="80" r="12" fill="#E6C875" stroke="black" stroke-width="2" />
    <circle cx="100" cy="80" r="12" fill="#E6C875" stroke="black" stroke-width="2" />
  </g>

  <!-- Arrow to Pool -->
  <path d="M1140,230 L1170,230" stroke="black" stroke-width="4" marker-end="url(#arrowhead)" />

  <!-- 5. Scene-Model Pool -->
  <rect x="1200" y="20" width="260" height="400" rx="20" fill="#FCE5CD" stroke="#D79B56" stroke-width="3" />
  <text x="1330" y="60" font-size="32" font-weight="bold" text-anchor="middle" fill="black">Scene-Model Pool</text>

  <!-- Expert 1 -->
  <g transform="translate(1330, 100)">
    <circle cx="0" cy="0" r="30" fill="none" stroke="black" stroke-width="2" />
    <path d="M-30,0 A30,30 0 0,1 30,0" fill="none" stroke="black" stroke-width="2" marker-end="url(#arrowhead)" />
    <path d="M30,0 A30,30 0 0,1 -30,0" fill="none" stroke="black" stroke-width="2" marker-end="url(#arrowhead)" />
    <text x="0" y="50" font-size="28" font-weight="bold" text-anchor="middle" fill="black">Expert 1</text>
  </g>

  <!-- Expert 2 -->
  <g transform="translate(1330, 200)">
    <line x1="0" y1="0" x2="100" y2="0" stroke="black" stroke-width="2" />
    <line x1="0" y1="20" x2="100" y2="20" stroke="black" stroke-width="2" />
    <line x1="0" y1="40" x2="100" y2="40" stroke="black" stroke-width="2" />
    <line x1="0" y1="60" x2="100" y2="60" stroke="black" stroke-width="2" />
    <!-- Fan Arrows -->
    <line x1="10" y1="0" x2="30" y2="0" stroke="black" stroke-width="2" marker-end="url(#arrowhead)" />
    <line x1="10" y1="20" x2="30" y2="20" stroke="black" stroke-width="2" marker-end="url(#arrowhead)" />
    <line x1="10" y1="40" x2="30" y2="40" stroke="black" stroke-width="2" marker-end="url(#arrowhead)" />
    <line x1="10" y1="60" x2="30" y2="60" stroke="black" stroke-width="2" marker-end="url(#arrowhead)" />
    <!-- Output Arrows -->
    <line x1="30" y1="0" x2="50" y2="0" stroke="black" stroke-width="2" marker-end="url(#arrowhead)" />
    <line x1="30" y1="20" x2="50" y2="20" stroke="black" stroke-width="2" marker-end="url(#arrowhead)" />
    <line x1="30" y1="40" x2="50" y2="40" stroke="black" stroke-width="2" marker-end="url(#arrowhead)" />
    <line x1="30" y1="60" x2="50" y2="60" stroke="black" stroke-width="2" marker-end="url(#arrowhead)" />
    <text x="0" y="100" font-size="28" font-weight="bold" text-anchor="middle" fill="black">Expert 2</text>
  </g>

  <!-- Expert 3 -->
  <g transform="translate(1330, 300)">
    <line x1="0" y1="0" x2="10" y2="0" stroke="black" stroke-width="2" />
    <line x1="10" y1="0" x2="20" y2="0" stroke="black" stroke-width="2" />
    <line x1="20" y1="0" x2="30" y2="0" stroke="black" stroke-width="2" />
    <line x1="30" y1="0" x2="40" y2="0" stroke="black" stroke-width="2" />
    <line x1="40" y1="0" x2="50" y2="0" stroke="black" stroke-width="2" />
    <!-- Filter -->
    <rect x="50" y="-15" width="30" height="30" fill="#D98A78" stroke="black" stroke-width="2" />
    <rect x="50" y="-15" width="30" height="30" fill="none" stroke="black" stroke-width="2" />
    <line x1="50" y1="0" x2="80" y2="0" stroke="black" stroke-width="2" />
    <line x1="80" y1="0" x2="90" y2="0" stroke="black" stroke-width="2" />
    <line x1="90" y1="0" x2="100" y2="0" stroke="black" stroke-width="2" marker-end="url(#arrowhead)" />
    <text x="0" y="100" font-size="28" font-weight="bold" text-anchor="middle" fill="black">Expert 3</text>
  </g>

  <!-- Scheduling Policy -->
  <rect x="980" y="360" width="220" height="110" rx="15" fill="#FFF2CC" stroke="#D6B656" stroke-width="3" />
  <text x="1090" y="405" font-size="32" font-weight="bold" text-anchor="middle" fill="black">Scheduling</text>
  <text x="1090" y="435" font-size="32" font-weight="bold" text-anchor="middle" fill="black">Policy</text>
  <g transform="translate(1130, 375)">
    <rect x="0" y="0" width="30" height="30" fill="none" stroke="black" stroke-width="2" />
    <rect x="30" y="0" width="30" height="30" fill="none" stroke="black" stroke-width="2" />
    <rect x="0" y="30" width="30" height="30" fill="none" stroke="black" stroke-width="2" />
    <rect x="30" y="30" width="30" height="30" fill="none" stroke="black" stroke-width="2" />
    <rect x="0" y="60" width="30" height="30" fill="none" stroke="black" stroke-width="2" />
    <rect x="30" y="60" width="30" height="30" fill="none" stroke="black" stroke-width="2" />
    <rect x="0" y="90" width="30" height="30" fill="none" stroke="black" stroke-width="2" />
    <rect x="30" y="90" width="30" height="30" fill="none" stroke="black" stroke-width="2" />
  </g>

  <!-- Output Arrow -->
  <path d="M1460,230 L1530,230" stroke="black" stroke-width="4" marker-end="url(#arrowhead)" />
  <path d="M1580,220 Q1600,200 1620,220" fill="none" stroke="black" stroke-width="3" stroke-dasharray="10,5" marker-end="url(#arrowhead-dashed)" />
  <text x="1500" y="290" font-size="28" font-weight="bold" text-anchor="middle" fill="black">Predicted</text>
  <text x="1500" y="320" font-size="28" font-weight="bold" text-anchor="middle" fill="black">Trajectory</text>

  <!-- ================= DIVIDER ================= -->
  <line x1="10" y1="480" x2="1600" y2="480" stroke="black" stroke-width="3" stroke-dasharray="15,10" />

  <!-- ================= SECTION B: BOTTOM HALF ================= -->

  <!-- (a) Scene Context Encoder -->
  <text x="20" y="530" font-size="40" font-weight="bold" fill="black">(a)</text>
  <rect x="10" y="550" width="880" height="370" rx="30" fill="#EAD1EE" stroke="#9673A6" stroke-width="3" />
  <text x="450" y="600" font-size="36" font-weight="bold" text-anchor="middle" fill="black">Scene Context Encoder</text>

  <!-- 1. Raw Features -->
  <text x="100" y="670" font-size="32" font-weight="bold" text-anchor="middle" fill="black">Raw</text>
  <text x="100" y="700" font-size="32" font-weight="bold" text-anchor="middle" fill="black">Features</text>
  <g transform="translate(40, 730)">
    <rect x="0" y="0" width="120" height="25" fill="#5F9EA0" stroke="black" stroke-width="2" />
    <rect x="0" y="40" width="120" height="25" fill="#E69189" stroke="black" stroke-width="2" />
    <rect x="0" y="80" width="120" height="25" fill="#D9C776" stroke="black" stroke-width="2" />
    <text x="60" y="140" font-size="28" font-weight="bold" text-anchor="middle" fill="black">Extracted &amp;</text>
    <text x="60" y="170" font-size="28" font-weight="bold" text-anchor="middle" fill="black">kinematic</text>
    <text x="60" y="200" font-size="28" font-weight="bold" text-anchor="middle" fill="black">feature vectors</text>
  </g>
  <path d="M140,772 L180,772" stroke="black" stroke-width="3" marker-end="url(#arrowhead)" />

  <!-- 2. Random Projection -->
  <rect x="180" y="620" width="160" height="260" rx="20" fill="#EAD1EE" stroke="#9673A6" stroke-width="3" />
  <text x="260" y="670" font-size="32" font-weight="bold" text-anchor="middle" fill="black">Random</text>
  <text x="260" y="700" font-size="32" font-weight="bold" text-anchor="middle" fill="black">Projection</text>
  <g transform="translate(200, 740)">
    <rect x="0" y="0" width="80" height="80" fill="none" stroke="black" stroke-width="2" />
    <path d="M0,0 v80 M80,0 v80 M20,0 h80 M40,0 h80 M0,20 h80 M0,40 h80" stroke="black" stroke-width="1" />
    <rect x="0" y="0" width="20" height="20" fill="#D98A78" opacity="0.6" />
    <rect x="20" y="20" width="20" height="20" fill="#5F9EA0" opacity="0.6" />
    <rect x="40" y="40" width="20" height="20" fill="#9B7DB8" opacity="0.6" />
    <rect x="60" y="60" width="20" height="20" fill="#D98A78" opacity="0.6" />
    <text x="90" y="40" font-size="24" font-weight="bold">x</text>
    <rect x="100" y="0" width="80" height="80" fill="none" stroke="black" stroke-width="2" />
    <path d="M100,0 v80 M180,0 v80 M120,0 h80 M140,0 h80 M100,20 h80 M100,40 h80" stroke="black" stroke-width="1" />
    <rect x="100" y="0" width="20" height="20" fill="#D98A78" opacity="0.6" />
    <rect x="120" y="20" width="20" height="20" fill="#5F9EA0" opacity="0.6" />
    <rect x="140" y="40" width="20" height="20" fill="#9B7DB8" opacity="0.6" />
    <rect x="160" y="60" width="20" height="20" fill="#D98A78" opacity="0.6" />
    <text x="100" y="110" font-size="28" font-weight="bold" text-anchor="middle" fill="black">Random</text>
    <text x="100" y="140" font-size="28" font-weight="bold" text-anchor="middle" fill="black">matrix</text>
  </g>
  <path d="M340,772 L380,772" stroke="black" stroke-width="3" marker-end="url(#arrowhead)" />

  <!-- 3. Sparsification -->
  <text x="450" y="680" font-size="32" font-weight="bold" text-anchor="middle" fill="black">Sparsification</text>
  <g transform="translate(390, 720)">
    <rect x="0" y="0" width="100" height="100" fill="none" stroke="black" stroke-width="2" />
    <path d="M0,0 v100 M100,0 v100 M20,0 h100 M40,0 h100 M60,0 h100 M0,20 h100 M0,40 h100 M0,60 h100 M0,80 h100" stroke="black" stroke-width="1" />
    <rect x="0" y="0" width="20" height="20" fill="#5F9EA0" opacity="0.6" />
    <rect x="20" y="20" width="20" height="20" fill="#D98A78" opacity="0.6" />
    <rect x="40" y="40" width="20" height="20" fill="#9B7DB8" opacity="0.6" />
    <rect x="60" y="60" width="20" height="20" fill="#D98A78" opacity="0.6" />
    <rect x="80" y="80" width="20" height="20" fill="#9B7DB8" opacity="0.6" />
    <text x="50" y="130" font-size="28" font-weight="bold" text-anchor="middle" fill="black">Sparse high-</text>
    <text x="50" y="160" font-size="28" font-weight="bold" text-anchor="middle" fill="black">dimensional</text>
    <text x="50" y="190" font-size="28" font-weight="bold" text-anchor="middle" fill="black">representation</text>
  </g>
  <path d="M520,772 L560,772" stroke="black" stroke-width="3" marker-end="url(#arrowhead)" />

  <!-- 4. Clustering -->
  <rect x="560" y="620" width="160" height="300" rx="20" fill="#EAD1EE" stroke="#9673A6" stroke-width="3" />
  <text x="640" y="670" font-size="32" font-weight="bold" text-anchor="middle" fill="black">Clustering</text>
  <g transform="translate(580, 720)">
    <circle cx="40" cy="40" r="35" fill="#E69189" opacity="0.6" />
    <circle cx="40" cy="40" r="10" fill="none" stroke="black" stroke-width="1" />
    <circle cx="40" cy="40" r="5" fill="none" stroke="black" stroke-width="1" />
    <circle cx="40" cy="40" r="2" fill="none" stroke="black" stroke-width="1" />
    <circle cx="40" cy="40" r="1" fill="none" stroke="black" stroke-width="1" />
    <circle cx="40" cy="40" r="0.5" fill="none" stroke="black" stroke-width="1" />
    <circle cx="40" cy="40" r="0.2" fill="none" stroke="black" stroke-width="1" />
    
    <circle cx="100" cy="20" r="35" fill="#5F9EA0" opacity="0.6" />
    <circle cx="100" cy="20" r="10" fill="none" stroke="black" stroke-width="1" />
    <circle cx="100" cy="20" r="5" fill="none" stroke="black" stroke-width="1" />
    <circle cx="100" cy="20" r="2" fill="none" stroke="black" stroke-width="1" />
    <circle cx="100" cy="20" r="1" fill="none" stroke="black" stroke-width="1" />
    <circle cx="100" cy="20" r="0.5" fill="none" stroke="black" stroke-width="1" />
    <circle cx="100" cy="20" r="0.2" fill="none" stroke="black" stroke-width="1" />
    
    <circle cx="40" cy="100" r="35" fill="#9B7DB8" opacity="0.6" />
    <circle cx="40" cy="100" r="10" fill="none" stroke="black" stroke-width="1" />
    <circle cx="40" cy="100" r="5" fill="none" stroke="black" stroke-width="1" />
    <circle cx="40" cy="100" r="2" fill="none" stroke="black" stroke-width="1" />
    <circle cx="40" cy="100" r="1" fill="none" stroke="black" stroke-width="1" />
    <circle cx="40" cy="100" r="0.5" fill="none" stroke="black" stroke-width="1" />
    <circle cx="40" cy="100" r="0.2" fill="none" stroke="black" stroke-width="1" />
    
    <circle cx="100" cy="100" r="35" fill="#E6C875" opacity="0.6" />
    <circle cx="100" cy="100" r="10" fill="none" stroke="black" stroke-width="1" />
    <circle cx="100" cy="100" r="5" fill="none" stroke="black" stroke-width="1" />
    <circle cx="100" cy="100" r="2" fill="none" stroke="black" stroke-width="1" />
    <circle cx="100" cy="100" r="1" fill="none" stroke="black" stroke-width="1" />
    <circle cx="100" cy="100" r="0.5" fill="none" stroke="black" stroke-width="1" />
    <circle cx="100" cy="100" r="0.2" fill="none" stroke="black" stroke-width="1" />
    
    <line x1="0" y1="40" x2="0" y2="0" stroke="black" stroke-width="2" marker-end="url(#arrowhead)" />
    <line x1="100" y1="100" x2="140" y2="100" stroke="black" stroke-width="2" marker-end="url(#arrowhead)" />
    <text x="80" y="160" font-size="28" font-weight="bold" text-anchor="middle" fill="black">Unsupervised</text>
    <text x="80" y="190" font-size="28" font-weight="bold" text-anchor="middle" fill="black">Clustering</text>
  </g>

  <!-- 5. Pseudo-labels -->
  <text x="780" y="660" font-size="32" font-weight="bold" text-anchor="middle" fill="black">Pseudo-</text>
  <text x="780" y="690" font-size="32" font-weight="bold" text-anchor="middle" fill="black">labels</text>
  <g transform="translate(740, 720)">
    <rect x="0" y="0" width="100" height="30" rx="10" fill="#E69189" />
    <text x="50" y="20" font-size="24" font-weight="bold" text-anchor="middle" fill="black">Scene A</text>
    <rect x="0" y="40" width="100" height="30" rx="10" fill="#5F9EA0" />
    <text x="50" y="60" font-size="24" font-weight="bold" text-anchor="middle" fill="black">Scene B</text>
    <rect x="0" y="80" width="100" height="30" rx="10" fill="#D9C776" />
    <text x="50" y="100" font-size="24" font-weight="bold" text-anchor="middle" fill="black">Scene C</text>
    <text x="50" y="150" font-size="28" font-weight="bold" text-anchor="middle" fill="black">Pseudo-labels</text>
    <text x="50" y="180" font-size="24" font-weight="bold" text-anchor="middle" fill="black">(Scene Categories)</text>
  </g>
  <path d="M720,772 L760,772" stroke="black" stroke-width="3" marker-end="url(#arrowhead)" />

  <!-- ================= SECTION (b) ================= -->
  <text x="900" y="530" font-size="40" font-weight="bold" fill="black">(b)</text>
  <rect x="890" y="550" width="700" height="370" rx="30" fill="#DAE8FC" stroke="#6C8EBF" stroke-width="3" />
  <text x="1240" y="600" font-size="36" font-weight="bold" text-anchor="middle" fill="black">SceneSelect Classifier</text>

  <!-- 1. Input -->
  <text x="880" y="670" font-size="32" font-weight="bold" text-anchor="middle" fill="black">Input</text>
  <text x="950" y="760" font-size="28" font-weight="bold" text-anchor="middle" fill="black">Pseudo-</text>
  <text x="950" y="800" font-size="28" font-weight="bold" text-anchor="middle" fill="black">labels + Features</text>
  <path d="M860,772 L900,772" stroke="black" stroke-width="3" marker-end="url(#arrowhead)" />

  <!-- 2. Additive Tree-based Classifier -->
  <text x="1080" y="660" font-size="32" font-weight="bold" text-anchor="middle" fill="black">Additive Tree-based</text>
  <text x="1080" y="690" font-size="32" font-weight="bold" text-anchor="middle" fill="black">Classifier</text>
  <g transform="translate(1000, 720)">
    <circle cx="80" cy="0" r="25" fill="#99B3E6" stroke="black" stroke-width="2" />
    <line x1="80" y1="25" x2="20" y2="80" stroke="black" stroke-width="2" />
    <line x1="80" y1="25" x2="140" y2="80" stroke="black" stroke-width="2" />
    <circle cx="20" cy="80" r="20" fill="#E69189" stroke="black" stroke-width="2" />
    <circle cx="140" cy="80" r="20" fill="#99B3E6" stroke="black" stroke-width="2" />
    <line x1="20" y1="100" x2="0" y2="120" stroke="black" stroke-width="2" />
    <line x1="20" y1="100" x2="40" y2="120" stroke="black" stroke-width="2" />
    <circle cx="0" cy="120" r="20" fill="#E69189" stroke="black" stroke-width="2" />
    <circle cx="40" cy="120" r="20" fill="#5F9EA0" stroke="black" stroke-width="2" />
    <line x1="140" y1="100" x2="120" y2="120" stroke="black" stroke-width="2" />
    <line x1="140" y1="100" x2="160" y2="120" stroke="black" stroke-width="2" />
    <circle cx="120" cy="120" r="20" fill="#E6C875" stroke="black" stroke-width="2" />
    <circle cx="160" cy="120" r="20" fill="#E6C875" stroke="black" stroke-width="2" />
  </g>
  <path d="M980,772 L1020,772" stroke="black" stroke-width="3" marker-end="url(#arrowhead)" />

  <!-- 3. Scene Category Output -->
  <text x="1280" y="660" font-size="32" font-weight="bold" text-anchor="middle" fill="black">Scene</text>
  <text x="1280" y="690" font-size="32" font-weight="bold" text-anchor="middle" fill="black">Category</text>
  <text x="1280" y="720" font-size="32" font-weight="bold" text-anchor="middle" fill="black">Output</text>
  <g transform="translate(1250, 740)">
    <rect x="0" y="0" width="100" height="30" rx="10" fill="#E69189" />
    <text x="50" y="20" font-size="24" font-weight="bold" text-anchor="middle" fill="black">Scene A</text>
    <rect x="0" y="40" width="100" height="30" rx="10" fill="#5F9EA0" />
    <text x="50" y="60" font-size="24" font-weight="bold" text-anchor="middle" fill="black">Scene B</text>
    <rect x="0" y="80" width="100" height="30" rx="10" fill="#D9C776" />
    <text x="50" y="100" font-size="24" font-weight="bold" text-anchor="middle" fill="black">Scene C</text>
  </g>
  <path d="M1230,772 L1270,772" stroke="black" stroke-width="3" marker-end="url(#arrowhead)" />

  <!-- 4. Scheduling Policy Table -->
  <text x="1480" y="660" font-size="32" font-weight="bold" text-anchor="middle" fill="black">Scheduling</text>
  <text x="1480" y="690" font-size="32" font-weight="bold" text-anchor="middle" fill="black">Policy Table</text>
  <g transform="translate(1400, 720)">
    <rect x="0" y="0" width="180" height="130" rx="15" fill="#FFF2CC" stroke="#D6B656" stroke-width="3" />
    <line x1="0" y1="40" x2="180" y2="40" stroke="black" stroke-width="2" />
    <line x1="0" y1="80" x2="180" y2="80" stroke="black" stroke-width="2" />
    <line x1="90" y1="0" x2="90" y2="130" stroke="black" stroke-width="2" />
    <line x1="90" y1="40" x2="90" y2="80" stroke="black" stroke-width="2" />
    <text x="45" y="25" font-size="20" font-weight="bold" text-anchor="middle" fill="black">Scene A</text>
    <text x="135" y="25" font-size="20" font-weight="bold" text-anchor="middle" fill="black">Expert 1</text>
    <text x="45" y="65" font-size="20" font-weight="bold" text-anchor="middle" fill="black">Scene B</text>
    <text x="135" y="65" font-size="20" font-weight="bold" text-anchor="middle" fill="black">Expert 2</text>
    <text x="45" y="105" font-size="20" font-weight="bold" text-anchor="middle" fill="black">...</text>
    <text x="135" y="105" font-size="20" font-weight="bold" text-anchor="middle" fill="black">Expert 3</text>
  </g>

</svg>