<svg xmlns="http://www.w3.org/2000/svg" width="1950" height="956" viewBox="0 0 1950 956">
  <defs>
    <marker id="arrowGrey" markerWidth="16" markerHeight="16" refX="14" refY="8" orient="auto" markerUnits="strokeWidth">
      <path d="M 0 0 L 16 8 L 0 16 z" fill="#a8a8a8"/>
    </marker>
    <style>
      .icon-stroke{stroke:#111;stroke-width:4;stroke-linecap:round;stroke-linejoin:round;}
      .thin-stroke{stroke:#111;stroke-width:3;stroke-linecap:round;stroke-linejoin:round;}
      .mid-stroke{stroke:#111;stroke-width:3.5;stroke-linecap:round;stroke-linejoin:round;}
    </style>
  </defs>
  <rect width="1950" height="956" fill="#ffffff"/>
  <rect x="18" y="25" width="426" height="214" rx="25" ry="25" fill="none" stroke="#b9b9b9" stroke-width="4" stroke-dasharray="30 18" stroke-linecap="round"/>
  <rect x="18" y="263" width="426" height="215" rx="25" ry="25" fill="none" stroke="#b9b9b9" stroke-width="4" stroke-dasharray="30 18" stroke-linecap="round"/>
  <rect x="18" y="503" width="426" height="177" rx="25" ry="25" fill="none" stroke="#b9b9b9" stroke-width="4" stroke-dasharray="30 18" stroke-linecap="round"/>
  <rect x="18" y="705" width="426" height="250" rx="25" ry="25" fill="none" stroke="#b9b9b9" stroke-width="4" stroke-dasharray="30 18" stroke-linecap="round"/>
  <rect x="1515" y="25" width="420" height="252" rx="25" ry="25" fill="none" stroke="#b9b9b9" stroke-width="4" stroke-dasharray="30 18" stroke-linecap="round"/>
  <rect x="1515" y="365" width="420" height="250" rx="25" ry="25" fill="none" stroke="#b9b9b9" stroke-width="4" stroke-dasharray="30 18" stroke-linecap="round"/>
  <rect x="1515" y="705" width="420" height="250" rx="25" ry="25" fill="none" stroke="#b9b9b9" stroke-width="4" stroke-dasharray="30 18" stroke-linecap="round"/>
  <g id="layout_connectors" fill="none" stroke="#a8a8a8" stroke-width="3.2" stroke-linecap="square" stroke-linejoin="miter">
    <line x1="500" y1="130" x2="500" y2="820"/>
    <line x1="500" y1="130" x2="444" y2="130" marker-end="url(#arrowGrey)"/>
    <line x1="500" y1="365" x2="444" y2="365" marker-end="url(#arrowGrey)"/>
    <line x1="500" y1="610" x2="444" y2="610" marker-end="url(#arrowGrey)"/>
    <line x1="500" y1="820" x2="444" y2="820" marker-end="url(#arrowGrey)"/>
    <line x1="500" y1="735" x2="545" y2="735"/>
    <line x1="985" y1="462" x2="985" y2="735"/>
    <line x1="900" y1="735" x2="1056" y2="735" marker-start="url(#arrowGrey)" marker-end="url(#arrowGrey)"/>
    <line x1="1411" y1="735" x2="1455" y2="735"/>
    <line x1="1455" y1="150" x2="1455" y2="825"/>
    <line x1="1455" y1="150" x2="1515" y2="150" marker-end="url(#arrowGrey)"/>
    <line x1="1455" y1="490" x2="1515" y2="490" marker-end="url(#arrowGrey)"/>
    <line x1="1455" y1="825" x2="1515" y2="825" marker-end="url(#arrowGrey)"/>
  </g>
  <rect x="728" y="332" width="512" height="130" rx="9" fill="#d9d9d9"/>
  <rect x="545" y="516" width="355" height="440" rx="8" fill="#d9d9d9"/>
  <rect x="1056" y="516" width="355" height="440" rx="8" fill="#d9d9d9"/>
  <g id="editable_text" fill="#000000" font-family="Times New Roman, Times, serif">
    <text x="38" y="205" font-size="42" font-weight="normal" font-style="normal" text-anchor="start" font-family="Times New Roman, Times, serif">Sentiment</text>
    <text x="82" y="438" font-size="42" font-weight="normal" font-style="normal" text-anchor="start" font-family="Times New Roman, Times, serif">Style</text>
    <text x="74" y="682" font-size="42" font-weight="normal" font-style="normal" text-anchor="start" font-family="Times New Roman, Times, serif">Topic</text>
    <text x="38" y="925" font-size="42" font-weight="normal" font-style="normal" text-anchor="start" font-family="Times New Roman, Times, serif">Perplexity</text>
    <text x="220" y="84" font-size="40" font-weight="normal" font-style="normal" text-anchor="start" font-family="Times New Roman, Times, serif">(a) positive</text>
    <text x="220" y="139" font-size="40" font-weight="normal" font-style="normal" text-anchor="start" font-family="Times New Roman, Times, serif">(b) negative</text>
    <text x="220" y="194" font-size="40" font-weight="normal" font-style="normal" text-anchor="start" font-family="Times New Roman, Times, serif">(c) neutral</text>
    <text x="220" y="338" font-size="40" font-weight="normal" font-style="normal" text-anchor="start" font-family="Times New Roman, Times, serif">(a) subjective</text>
    <text x="220" y="430" font-size="40" font-weight="normal" font-style="normal" text-anchor="start" font-family="Times New Roman, Times, serif">(b) neutral</text>
    <text x="220" y="555" font-size="40" font-weight="normal" font-style="normal" text-anchor="start" font-family="Times New Roman, Times, serif">(a) sports</text>
    <text x="220" y="608" font-size="40" font-weight="normal" font-style="normal" text-anchor="start" font-family="Times New Roman, Times, serif">(b) crime</text>
    <text x="220" y="660" font-size="40" font-weight="normal" font-style="normal" text-anchor="start" font-family="Times New Roman, Times, serif">(c) politics</text>
    <text x="220" y="696" font-size="40" font-weight="normal" font-style="normal" text-anchor="start" font-family="Times New Roman, Times, serif">......</text>
    <text x="220" y="818" font-size="40" font-weight="normal" font-style="normal" text-anchor="start" font-family="Times New Roman, Times, serif">(a) high</text>
    <text x="220" y="909" font-size="40" font-weight="normal" font-style="normal" text-anchor="start" font-family="Times New Roman, Times, serif">(b) low</text>
    <text x="985" y="214" font-size="54" font-weight="bold" font-style="normal" text-anchor="middle" font-family="Times New Roman, Times, serif">Truth Over Tricks</text>
    <text x="985" y="265" font-size="36" font-weight="normal" font-style="italic" text-anchor="middle" font-family="Times New Roman, Times, serif">Evaluate Shortcut Learning in</text>
    <text x="985" y="306" font-size="36" font-weight="normal" font-style="italic" text-anchor="middle" font-family="Times New Roman, Times, serif">Misinformation Detection</text>
    <text x="1008" y="403" font-size="46" font-weight="normal" font-style="normal" text-anchor="middle" font-family="Times New Roman, Times, serif">Misinformation</text>
    <text x="1008" y="457" font-size="46" font-weight="normal" font-style="normal" text-anchor="middle" font-family="Times New Roman, Times, serif">Benchmarks</text>
    <text x="722" y="567" font-size="46" font-weight="normal" font-style="normal" text-anchor="middle" font-family="Times New Roman, Times, serif">Intrinsic</text>
    <text x="722" y="620" font-size="46" font-weight="normal" font-style="normal" text-anchor="middle" font-family="Times New Roman, Times, serif">Shortcut</text>
    <text x="722" y="674" font-size="46" font-weight="normal" font-style="normal" text-anchor="middle" font-family="Times New Roman, Times, serif">Induction</text>
    <text x="722" y="927" font-size="34" font-weight="normal" font-style="italic" text-anchor="middle" font-family="Times New Roman, Times, serif">Indicator Classifier</text>
    <text x="1234" y="567" font-size="46" font-weight="normal" font-style="normal" text-anchor="middle" font-family="Times New Roman, Times, serif">Extrinsic</text>
    <text x="1234" y="620" font-size="46" font-weight="normal" font-style="normal" text-anchor="middle" font-family="Times New Roman, Times, serif">Shortcut</text>
    <text x="1234" y="674" font-size="46" font-weight="normal" font-style="normal" text-anchor="middle" font-family="Times New Roman, Times, serif">Injection</text>
    <text x="1234" y="927" font-size="34" font-weight="normal" font-style="italic" text-anchor="middle" font-family="Times New Roman, Times, serif">LLM Injector</text>
    <text x="1540" y="242" font-size="42" font-weight="normal" font-style="normal" text-anchor="start" font-family="Times New Roman, Times, serif">Vanilla</text>
    <text x="1535" y="571" font-size="42" font-weight="normal" font-style="normal" text-anchor="start" font-family="Times New Roman, Times, serif">Explicit</text>
    <text x="1535" y="922" font-size="42" font-weight="normal" font-style="normal" text-anchor="start" font-family="Times New Roman, Times, serif">Implicit</text>
    <text x="1680" y="123" font-size="32" font-weight="normal" font-style="italic" text-anchor="start" font-family="Times New Roman, Times, serif">Please rewrite it</text>
    <text x="1680" y="164" font-size="32" font-weight="normal" font-style="italic" text-anchor="start" font-family="Times New Roman, Times, serif">to make it more</text>
    <text x="1680" y="205" font-size="32" font-weight="normal" font-style="italic" text-anchor="start" font-family="Times New Roman, Times, serif">convincing.</text>
    <text x="1680" y="442" font-size="32" font-weight="normal" font-style="italic" text-anchor="start" font-family="Times New Roman, Times, serif">Make the {word</text>
    <text x="1680" y="482" font-size="32" font-weight="normal" font-style="italic" text-anchor="start" font-family="Times New Roman, Times, serif">choice} of the</text>
    <text x="1680" y="522" font-size="32" font-weight="normal" font-style="italic" text-anchor="start" font-family="Times New Roman, Times, serif">rewritten content</text>
    <text x="1680" y="562" font-size="32" font-weight="normal" font-style="italic" text-anchor="start" font-family="Times New Roman, Times, serif">{simple}.</text>
    <text x="1670" y="778" font-size="32" font-weight="normal" font-style="italic" text-anchor="start" font-family="Times New Roman, Times, serif">You are</text>
    <text x="1670" y="816" font-size="32" font-weight="normal" font-style="italic" text-anchor="start" font-family="Times New Roman, Times, serif">{elderly}. Please</text>
    <text x="1670" y="854" font-size="32" font-weight="normal" font-style="italic" text-anchor="start" font-family="Times New Roman, Times, serif">rewrite this</text>
    <text x="1670" y="892" font-size="32" font-weight="normal" font-style="italic" text-anchor="start" font-family="Times New Roman, Times, serif">passage.</text>
  </g>
  <g id="svg_left_sentiment_icon" data-source-slot="slot_left_sentiment_icon" transform="translate(55,35)">
    <g class="icon-stroke">
      <circle cx="25" cy="32" r="13" fill="#ff2a17"/>
      <circle cx="69" cy="16" r="13" fill="#ffa800"/>
      <circle cx="111" cy="32" r="13" fill="#12a64a"/>
      <circle cx="20" cy="29" r="2.5" fill="#111" stroke="none"/><circle cx="30" cy="29" r="2.5" fill="#111" stroke="none"/>
      <circle cx="64" cy="13" r="2.5" fill="#111" stroke="none"/><circle cx="74" cy="13" r="2.5" fill="#111" stroke="none"/>
      <circle cx="106" cy="29" r="2.5" fill="#111" stroke="none"/><circle cx="116" cy="29" r="2.5" fill="#111" stroke="none"/>
      <path d="M20 39 q5 -3 10 0" fill="none"/>
      <path d="M63 22 h12" fill="none"/>
      <path d="M105 39 q6 5 12 0" fill="none"/>
      <path d="M25 78 A43 43 0 0 1 111 78" fill="none" stroke="#111" stroke-width="16"/>
      <path d="M25 78 A43 43 0 0 1 44 43" fill="none" stroke="#ff3b22" stroke-width="13"/>
      <path d="M44 43 A43 43 0 0 1 82 43" fill="none" stroke="#ffd11f" stroke-width="13"/>
      <path d="M82 43 A43 43 0 0 1 111 78" fill="none" stroke="#35b559" stroke-width="13"/>
      <path d="M58 78 L70 95 L82 78" fill="#ffffff"/>
      <line x1="53" y1="82" x2="53" y2="111"/>
      <line x1="82" y1="82" x2="82" y2="111"/>
      <circle cx="53" cy="111" r="4" fill="#ff3b22"/>
      <circle cx="82" cy="111" r="4" fill="#ff3b22"/>
    </g>
  </g>
  <g id="svg_left_style_icon" data-source-slot="slot_left_style_icon" transform="translate(70,285)">
    <g class="mid-stroke">
      <line x1="0" y1="5" x2="95" y2="5"/>
      <path d="M28 92 L45 18 L65 92" fill="#19a9e5"/>
      <path d="M36 62 L56 62" fill="none"/>
      <path d="M25 92 H70" fill="none"/>
      <rect x="66" y="13" width="29" height="47" fill="#f3f3f3"/>
      <line x1="72" y1="25" x2="89" y2="25"/><line x1="72" y1="38" x2="89" y2="38"/><line x1="72" y1="51" x2="89" y2="51"/>
      <text x="76" y="23" font-size="10" font-family="Times New Roman, serif">Aa</text>
      <text x="76" y="36" font-size="10" font-family="Times New Roman, serif">Aa</text>
      <text x="76" y="49" font-size="10" font-family="Times New Roman, serif">Aa</text>
    </g>
  </g>
  <g id="svg_left_topic_icon" data-source-slot="slot_left_topic_icon" transform="translate(65,515)">
    <g class="mid-stroke">
      <path d="M39 25 h57 q7 0 7 7 v49 q0 7 -7 7 H66 l-15 13 v-13 H39 q-7 0 -7 -7 V32 q0 -7 7 -7 z" fill="#ffd55c"/>
      <path d="M9 17 h36 q6 0 6 6 v38 q0 6 -6 6 H25 l-11 10 V67 H9 q-6 0 -6 -6 V23 q0 -6 6 -6 z" fill="#4fc5e5"/>
      <path d="M68 3 h36 q6 0 6 6 v13 q0 6 -6 6 H82 L69 38 V28 h-1 q-6 0 -6 -6 V9 q0 -6 6 -6 z" fill="#ff65c9"/>
      <path d="M2 93 h38 q6 0 6 6 v5 q0 6 -6 6 H21 l-12 8 v-8 H2 q-6 0 -6 -6 v-5 q0 -6 6 -6 z" fill="#b8ed62"/>
      <circle cx="52" cy="99" r="12" fill="#ff65c9"/>
      <circle cx="18" cy="5" r="13" fill="#b8ed62"/>
    </g>
  </g>
  <g id="svg_left_perplexity_icon" data-source-slot="slot_left_perplexity_icon" transform="translate(72,760)">
    <g class="mid-stroke">
      <path d="M27 22 l16 -16 h26 l17 17 -19 22 2 62 H40 V80 L27 72 z" fill="#ff5268"/>
      <circle cx="58" cy="26" r="15" fill="#ffd0c2"/>
      <path d="M41 43 q-22 18 -19 40 l20 10" fill="#ff5268"/>
      <path d="M54 56 q17 6 25 -7" fill="none"/>
      <rect x="38" y="86" width="25" height="22" fill="#91d4f7"/>
      <text x="82" y="33" font-size="40" font-weight="bold" font-family="Arial, sans-serif">?</text>
    </g>
  </g>
  <g id="svg_title_meter_icon" data-source-slot="slot_title_meter_icon" transform="translate(875,30)">
    <g class="icon-stroke">
      <path d="M18 104 A104 104 0 0 1 122 0 V55 A49 49 0 0 0 73 104 Z" fill="#ef2b2b"/>
      <path d="M122 0 A104 104 0 0 1 178 16 L150 63 A49 49 0 0 0 122 55 Z" fill="#f4aa24"/>
      <path d="M178 16 A104 104 0 0 1 226 104 H171 A49 49 0 0 0 150 63 Z" fill="#ffcf23"/>
      <path d="M226 104 A104 104 0 0 0 211 47 L163 75 A49 49 0 0 1 171 104 Z" fill="#28a854"/>
      <path d="M18 104 A104 104 0 0 1 226 104" fill="none" stroke="#111" stroke-width="6"/>
      <line x1="122" y1="0" x2="122" y2="56"/>
      <line x1="73" y1="20" x2="104" y2="62"/>
      <line x1="179" y1="17" x2="151" y2="63"/>
      <path d="M122 104 L206 64" stroke="#154b66" stroke-width="12"/>
      <circle cx="122" cy="104" r="18" fill="#176c9a"/>
    </g>
  </g>
  <g id="svg_benchmark_database_icon" data-source-slot="slot_benchmark_database_icon" transform="translate(735,350)">
    <g class="mid-stroke">
      <path d="M5 6 h22 l6 8 h16 v20 H5 z" fill="#ffc54d"/>
      <path d="M82 6 h22 l6 8 h16 v20 H82 z" fill="#ffc54d"/>
      <path d="M5 88 h22 l6 8 h16 v20 H5 z" fill="#ffc54d"/>
      <path d="M82 88 h22 l6 8 h16 v20 H82 z" fill="#ffc54d"/>
      <ellipse cx="65" cy="45" rx="27" ry="9" fill="#777"/>
      <path d="M38 45 v45 c0 6 12 11 27 11 s27 -5 27 -11 V45" fill="#777"/>
      <ellipse cx="65" cy="61" rx="27" ry="9" fill="none"/>
      <ellipse cx="65" cy="77" rx="27" ry="9" fill="none"/>
      <path d="M34 58 h-14 M20 58 v-17 M20 41 l-7 8 M20 41 l7 8" fill="none"/>
      <path d="M96 58 h14 M110 58 v-17 M110 41 l-7 8 M110 41 l7 8" fill="none"/>
      <path d="M34 86 h-14 M20 86 v17 M20 103 l-7 -8 M20 103 l7 -8" fill="none"/>
      <path d="M96 86 h14 M110 86 v17 M110 103 l-7 -8 M110 103 l7 -8" fill="none"/>
    </g>
  </g>
  <g id="svg_intrinsic_classifier_icon" data-source-slot="slot_intrinsic_classifier_icon" transform="translate(625,680)">
    <g class="icon-stroke">
      <circle cx="65" cy="72" r="51" fill="#ffd923"/>
      <circle cx="65" cy="72" r="40" fill="#58d6e8"/>
      <circle cx="40" cy="72" r="8" fill="#e6282c"/><circle cx="65" cy="72" r="8" fill="#e6282c"/><circle cx="91" cy="72" r="8" fill="#e6282c"/>
      <line x1="96" y1="112" x2="137" y2="178"/>
      <path d="M50 115 L38 175 q0 12 14 12 h15 q14 0 14 -12 L70 119" fill="#bfbfbf"/>
      <circle cx="59" cy="170" r="7" fill="#111"/>
      <path d="M112 49 h27 v-24 h52 v47 h-52 v-23" fill="none"/>
      <rect x="145" y="33" width="37" height="8" fill="#d9d9d9" stroke="none"/>
      <rect x="145" y="48" width="37" height="8" fill="#d9d9d9" stroke="none"/>
      <path d="M115 95 h28 v-24 h52 v47 h-52 v-23" fill="none"/>
      <rect x="151" y="79" width="35" height="8" fill="#d9d9d9" stroke="none"/>
      <rect x="151" y="94" width="35" height="8" fill="#d9d9d9" stroke="none"/>
      <path d="M116 142 h27 v-24 h52 v47 h-52 v-23" fill="none"/>
      <rect x="151" y="127" width="35" height="8" fill="#d9d9d9" stroke="none"/>
      <rect x="151" y="142" width="35" height="8" fill="#d9d9d9" stroke="none"/>
    </g>
  </g>
  <g id="svg_extrinsic_injector_icon" data-source-slot="slot_extrinsic_injector_icon" transform="translate(1165,704)">
    <g class="icon-stroke">
      <line x1="28" y1="26" x2="28" y2="55"/><circle cx="28" cy="20" r="6" fill="#e8345d"/>
      <line x1="122" y1="26" x2="122" y2="55"/><circle cx="122" cy="20" r="6" fill="#e8345d"/>
      <circle cx="18" cy="73" r="9" fill="#5b8de3"/>
      <circle cx="132" cy="73" r="9" fill="#5b8de3"/>
      <rect x="30" y="48" width="90" height="67" rx="19" fill="#9adffc"/>
      <rect x="45" y="66" width="60" height="35" rx="5" fill="#ffffff"/>
      <text x="75" y="92" text-anchor="middle" font-size="29" font-weight="bold" font-family="Arial, sans-serif">AI</text>
      <path d="M52 48 q0 -13 23 -13 q23 0 23 13" fill="none"/>
      <line x1="75" y1="116" x2="75" y2="137"/>
      <path d="M35 161 v-39 q0 -24 40 -24 q40 0 40 24 v39 z" fill="#f7f7f7"/>
      <rect x="59" y="135" width="32" height="26" fill="#9adffc"/>
      <circle cx="45" cy="145" r="5" fill="#e8345d"/><circle cx="105" cy="145" r="5" fill="#e8345d"/><circle cx="75" cy="123" r="5" fill="#e8345d"/>
      <path d="M45 145 H22 v10 M105 145 h23 v10 M75 123 v-15" fill="none"/>
    </g>
  </g>
  <g id="svg_right_vanilla_icon" data-source-slot="slot_right_vanilla_icon" transform="translate(1530,55)">
    <g class="mid-stroke">
      <path d="M22 80 L70 46 L119 82 L72 78 Z" fill="#fff8c8"/>
      <path d="M72 74 C50 56 47 18 73 0 C97 22 94 56 72 74 Z" fill="#fff8c8"/>
      <path d="M72 74 C93 54 132 56 146 84 C118 99 92 93 72 74 Z" fill="#fff8c8"/>
      <path d="M72 74 C51 93 19 102 0 74 C23 58 49 58 72 74 Z" fill="#fff8c8"/>
      <path d="M72 74 C60 100 66 124 99 128 C109 104 96 84 72 74 Z" fill="#fff8c8"/>
      <circle cx="72" cy="74" r="10" fill="#ffffff"/>
      <circle cx="72" cy="74" r="4" fill="#ff8b00"/>
      <path d="M8 119 C34 100 49 80 60 58" fill="none" stroke="#e95d35"/>
      <path d="M100 16 C126 -8 137 28 110 38 C140 25 142 61 112 53" fill="none" stroke="#e95d35" stroke-width="5"/>
    </g>
  </g>
  <g id="svg_right_explicit_icon" data-source-slot="slot_right_explicit_icon" transform="translate(1535,385)">
    <g class="mid-stroke">
      <path d="M3 80 h34 v15 H3 z" fill="#ffd629"/>
      <path d="M8 65 h25 q5 0 5 5 v10 H3 V70 q0 -5 5 -5 z" fill="#ffd629"/>
      <path d="M20 65 C10 56 6 45 12 35 c9 -15 34 -14 42 0 c6 10 2 23 -7 30" fill="none"/>
      <path d="M42 50 h20 v45 H42 z" fill="#ffffff"/>
      <path d="M45 18 h12 v55 h-12 z M58 9 h12 v64 h-12 z M72 9 h12 v64 h-12 z M86 12 h12 v61 h-12 z M100 22 h12 v51 h-12 z" fill="#eeeeee"/>
      <path d="M51 74 h56 q10 0 10 10 v14 q0 10 -10 10 H51 z" fill="#ffe05c"/>
      <path d="M67 108 v18 M101 108 v18 M57 126 h54" fill="none"/>
      <rect x="65" y="125" width="39" height="18" fill="#777"/>
      <rect x="71" y="143" width="27" height="6" fill="#777"/>
    </g>
  </g>
  <g id="svg_right_implicit_icon" data-source-slot="slot_right_implicit_icon" transform="translate(1545,735)">
    <g class="mid-stroke">
      <path d="M2 58 h35 v48 H2 z" fill="#f8c445"/>
      <path d="M18 57 V24 q0 -6 6 -6 q6 0 6 7 v31" fill="#f8c445"/>
      <line x1="7" y1="70" x2="31" y2="70"/><line x1="7" y1="82" x2="31" y2="82"/>
      <rect x="43" y="56" width="31" height="48" fill="#f2de82"/>
      <line x1="50" y1="67" x2="68" y2="67"/><line x1="50" y1="79" x2="68" y2="79"/><line x1="50" y1="91" x2="68" y2="91"/>
      <circle cx="89" cy="30" r="20" fill="#ffd0b0"/>
      <path d="M70 32 v-13 q0 -14 19 -17 q23 0 25 17 v13" fill="#8a3d1b"/>
      <rect x="70" y="60" width="50" height="59" fill="#8d431f"/>
      <path d="M70 60 h50 l-16 -22 H87 z" fill="#8d431f"/>
      <path d="M76 31 h20 M99 31 h17" fill="none"/>
      <circle cx="86" cy="31" r="5.5" fill="none"/><circle cx="107" cy="31" r="5.5" fill="none"/>
      <line x1="92" y1="31" x2="101" y2="31"/>
      <path d="M83 43 q9 6 18 0" fill="none"/>
      <line x1="95" y1="60" x2="95" y2="118"/>
    </g>
  </g>
</svg>
