<svg xmlns="http://www.w3.org/2000/svg" xmlns:xlink="http://www.w3.org/1999/xlink" width="1920" height="1071" viewBox="0 0 1920 1071">
<defs>
  <marker id="arrowGreen" markerWidth="13" markerHeight="10" refX="11" refY="5" orient="auto" markerUnits="strokeWidth"><path d="M0,0 L12,5 L0,10 Z" fill="#2f7039"/></marker>
  <marker id="arrowBlack" markerWidth="13" markerHeight="10" refX="11" refY="5" orient="auto" markerUnits="strokeWidth"><path d="M0,0 L12,5 L0,10 Z" fill="#111"/></marker>
  <marker id="arrowPurple" markerWidth="13" markerHeight="10" refX="11" refY="5" orient="auto" markerUnits="strokeWidth"><path d="M0,0 L12,5 L0,10 Z" fill="#6e3d8e"/></marker>
  <style>
    .title { font-family: Arial, sans-serif; font-weight: 800; font-size: 32px; fill:#000; }
    .panelTitle { font-family: Arial, sans-serif; font-weight: 800; font-size: 34px; fill:#000; }
    .serif { font-family: 'Times New Roman', Times, serif; }
    .boxText { font-family: Arial, sans-serif; font-size: 30px; fill:#111; }
    .thin { stroke:#111; stroke-width:2.2; fill:none; }
  </style>
</defs>

<rect width="1920" height="1071" fill="#ffffff"/>
<rect x="0" y="14" width="1920" height="520" rx="34" ry="34" fill="#eef7f0" stroke="none" stroke-width="0" />
<rect x="0" y="545" width="1920" height="526" rx="34" ry="34" fill="#f4f0fa" stroke="none" stroke-width="0" />
<text x="62" y="303" font-family="Arial" font-weight="700" font-size="34" transform="rotate(-90 62 303)" text-anchor="middle">Learning</text>
<text x="62" y="802" font-family="Arial" font-weight="700" font-size="34" transform="rotate(-90 62 802)" text-anchor="middle">Planning</text>
<rect x="246" y="30" width="493" height="486" rx="30" ry="30" fill="#ffffff" stroke="none" stroke-width="0" />
<rect x="768" y="30" width="620" height="486" rx="30" ry="30" fill="#ffffff" stroke="none" stroke-width="0" />
<rect x="1421" y="30" width="491" height="486" rx="30" ry="30" fill="#ffffff" stroke="none" stroke-width="0" />
<rect x="510" y="595" width="386" height="448" rx="30" ry="30" fill="#ffffff" stroke="none" stroke-width="0" />
<rect x="940" y="595" width="310" height="448" rx="30" ry="30" fill="#ffffff" stroke="none" stroke-width="0" />
<rect x="1290" y="595" width="610" height="448" rx="30" ry="30" fill="#ffffff" stroke="none" stroke-width="0" />
<text x="493" y="67" class="panelTitle" text-anchor="middle">(a) Keyframe Extraction</text>
<text x="1078" y="67" class="panelTitle" text-anchor="middle">(b) Atomic Domain Generation</text>
<text x="1672" y="67" class="panelTitle" text-anchor="middle">(c) Domain Fusion</text>
<text x="705" y="637" class="panelTitle" text-anchor="middle">(d) Problem Generation</text>
<text x="1095" y="637" class="panelTitle" text-anchor="middle">(e) Planning</text>
<text x="1595" y="637" class="panelTitle" text-anchor="middle">(f) Execution</text>
<line x1="203" y1="296" x2="262" y2="296" stroke="#2f7039" stroke-width="5" fill="none" marker-end="url(#arrowGreen)"/>
<path d="M225 148 H262 M225 148 V458 M225 458 H262" stroke="#2f7039" stroke-width="5" fill="none"/>
<path d="M225 296 H262" stroke="#2f7039" stroke-width="5" fill="none" marker-end="url(#arrowGreen)"/>
<path d="M225 148 H262" stroke="#2f7039" stroke-width="5" fill="none" marker-end="url(#arrowGreen)"/>
<path d="M225 458 H262" stroke="#2f7039" stroke-width="5" fill="none" marker-end="url(#arrowGreen)"/>
<path d="M717 156 H766 V156 H809" stroke="#2f7039" stroke-width="5" fill="none" marker-end="url(#arrowGreen)"/>
<path d="M717 296 H766 V156" stroke="#2f7039" stroke-width="5" fill="none"/>
<path d="M717 458 H766 V156" stroke="#2f7039" stroke-width="5" fill="none"/>
<rect x="812" y="108" width="525" height="94" rx="10" ry="10" fill="#c7f0cc" stroke="none" stroke-width="0" />
<text x="885" y="143" font-size="30" font-family="Arial" font-weight="normal" fill="#000" text-anchor="start" ><tspan x="885" dy="0">Domain Construction</tspan><tspan x="885" dy="32.400000000000006">&amp; Revision</tspan></text>
<line x1="1074" y1="202" x2="1074" y2="232" stroke="#111" stroke-width="2.5" fill="none" marker-end="url(#arrowBlack)"/>
<rect x="812" y="233" width="227" height="137" rx="10" ry="10" fill="#c7f0cc" stroke="none" stroke-width="0" />
<text x="885" y="285" font-size="30" font-family="Arial" font-weight="normal" fill="#000" text-anchor="start" ><tspan x="885" dy="0">Solvability</tspan><tspan x="885" dy="31.5">Check</tspan></text>
<line x1="921" y1="370" x2="921" y2="391" stroke="#111" stroke-width="2.5" fill="none" marker-end="url(#arrowBlack)"/>
<rect x="812" y="394" width="227" height="106" rx="10" ry="10" fill="#c7f0cc" stroke="none" stroke-width="0" />
<text x="885" y="437" font-size="30" font-family="Arial" font-weight="normal" fill="#000" text-anchor="start" ><tspan x="885" dy="0">Solution</tspan><tspan x="885" dy="31.5">Verification</tspan></text>
<rect x="1151" y="212" width="186" height="248" rx="10" ry="10" fill="#c7f0cc" stroke="none" stroke-width="0" />
<text x="1161" y="354" font-size="30" font-family="Arial" font-weight="normal" fill="#000" text-anchor="start" ><tspan x="1161" dy="0">Closed-Loop</tspan><tspan x="1161" dy="31.5">Refinement</tspan></text>
<line x1="1038" y1="291" x2="1151" y2="291" stroke="#111" stroke-width="2.4" marker-end="url(#arrowBlack)"/>
<line x1="1151" y1="316" x2="1038" y2="316" stroke="#111" stroke-width="2.4" marker-end="url(#arrowBlack)"/>
<text x="1046" y="344" font-size="25" font-family="Arial" font-weight="normal" fill="#000" text-anchor="start"  >Feedback</text>
<line x1="1038" y1="446" x2="1151" y2="446" stroke="#111" stroke-width="2.4" marker-end="url(#arrowBlack)"/>
<text x="1046" y="429" font-size="25" font-family="Arial" font-weight="normal" fill="#000" text-anchor="start"  >Feedback</text>
<path d="M1337 447 H1396 V181 H1421" stroke="#2f7039" stroke-width="4" fill="none" marker-end="url(#arrowGreen)"/>
<rect x="1431" y="96" width="452" height="124" rx="0" ry="0" fill="none" stroke="#111" stroke-width="2.5" />
<path d="M1863 96 L1883 116 L1883 220" stroke="#111" stroke-width="2.5" fill="none"/>
<text x="1657" y="126" font-size="28" font-family="Arial" font-weight="normal" fill="#000" text-anchor="middle"  >Unified Domain</text>
<path d="M1438 137 H1526 L1544 155 V209 H1438 Z" fill="#fff" stroke="#111" stroke-width="2.2"/>
<text x="1490" y="171" font-size="22" font-family="Arial" font-weight="normal" fill="#000" text-anchor="middle" ><tspan x="1490" dy="0">Atomic</tspan><tspan x="1490" dy="24.200000000000003">Domain</tspan></text>
<path d="M1526 137 V155 H1544" stroke="#111" stroke-width="1.6" fill="none"/>
<path d="M1553 137 H1641 L1659 155 V209 H1553 Z" fill="#fff" stroke="#111" stroke-width="2.2"/>
<text x="1605" y="171" font-size="22" font-family="Arial" font-weight="normal" fill="#000" text-anchor="middle" ><tspan x="1605" dy="0">Atomic</tspan><tspan x="1605" dy="24.200000000000003">Domain</tspan></text>
<path d="M1641 137 V155 H1659" stroke="#111" stroke-width="1.6" fill="none"/>
<path d="M1716 137 H1804 L1822 155 V209 H1716 Z" fill="#fff" stroke="#111" stroke-width="2.2"/>
<text x="1768" y="171" font-size="22" font-family="Arial" font-weight="normal" fill="#000" text-anchor="middle" ><tspan x="1768" dy="0">Atomic</tspan><tspan x="1768" dy="24.200000000000003">Domain</tspan></text>
<path d="M1804 137 V155 H1822" stroke="#111" stroke-width="1.6" fill="none"/>
<path d="M1817 137 H1905 L1923 155 V209 H1817 Z" fill="#fff" stroke="#111" stroke-width="2.2"/>
<text x="1869" y="171" font-size="22" font-family="Arial" font-weight="normal" fill="#000" text-anchor="middle" ><tspan x="1869" dy="0">Atomic</tspan><tspan x="1869" dy="24.200000000000003">Domain</tspan></text>
<path d="M1905 137 V155 H1923" stroke="#111" stroke-width="1.6" fill="none"/>
<text x="1643" y="179" font-size="30" font-family="Arial" font-weight="normal" fill="#000" text-anchor="middle"  >...</text>
<path d="M1466 280 H1605 L1623 300 V374 H1466 Z" fill="#fff" stroke="#111" stroke-width="2.2"/>
<text x="1544" y="316" font-size="28" font-family="Arial" font-weight="normal" fill="#000" text-anchor="middle" ><tspan x="1544" dy="0">Meta</tspan><tspan x="1544" dy="30.800000000000004">Domain</tspan></text>
<path d="M1605 280 V300 H1623" stroke="#111" stroke-width="1.6" fill="none"/>
<path d="M1711 280 H1850 L1868 300 V374 H1711 Z" fill="#fff" stroke="#111" stroke-width="2.2"/>
<text x="1789" y="316" font-size="28" font-family="Arial" font-weight="normal" fill="#000" text-anchor="middle" ><tspan x="1789" dy="0">Meta</tspan><tspan x="1789" dy="30.800000000000004">Domain</tspan></text>
<path d="M1850 280 V300 H1868" stroke="#111" stroke-width="1.6" fill="none"/>
<text x="1665" y="333" font-size="32" font-family="Arial" font-weight="normal" fill="#000" text-anchor="middle"  >...</text>
<path d="M1569 419 H1762 L1780 439 V522 H1569 Z" fill="#fff" stroke="#111" stroke-width="2.2"/>
<text x="1667" y="456" font-size="32" font-family="Arial" font-weight="normal" fill="#000" text-anchor="middle" ><tspan x="1667" dy="0">Meta</tspan><tspan x="1667" dy="35.2">Domain</tspan></text>
<path d="M1762 419 V439 H1780" stroke="#111" stroke-width="1.6" fill="none"/>
<line x1="1483" y1="209" x2="1522" y2="280" stroke="#111" stroke-width="1.8"/>
<line x1="1606" y1="209" x2="1578" y2="280" stroke="#111" stroke-width="1.8"/>
<line x1="1754" y1="209" x2="1790" y2="280" stroke="#111" stroke-width="1.8"/>
<line x1="1855" y1="209" x2="1815" y2="280" stroke="#111" stroke-width="1.8"/>
<line x1="1545" y1="374" x2="1630" y2="419" stroke="#111" stroke-width="1.8"/>
<line x1="1790" y1="374" x2="1705" y2="419" stroke="#111" stroke-width="1.8"/>
<rect x="82" y="596" width="378" height="174" rx="18" ry="18" fill="#ffffff" stroke="none" stroke-width="0" />
<text x="271" y="631" font-size="28" font-family="Arial" font-weight="normal" fill="#000" text-anchor="middle" font-style="italic"><tspan x="271" dy="0">Move the corn from the pot</tspan><tspan x="271" dy="31.360000000000003">into the orange bowl, wipe the</tspan><tspan x="271" dy="31.360000000000003">table with the towel in the</tspan><tspan x="271" dy="31.360000000000003">drawer and put it back to the</tspan><tspan x="271" dy="31.360000000000003">closed drawer.</tspan></text>
<path d="M460 715 H486 V864 H510" stroke="#6e3d8e" stroke-width="4" fill="none" marker-end="url(#arrowPurple)"/>
<path d="M444 900 H486 V864" stroke="#6e3d8e" stroke-width="4" fill="none"/>
<path d="M525 690 H655 L674 710 V784 H525 Z" fill="#ffffff" stroke="#111" stroke-width="2.2"/>
<text x="599" y="728" font-size="28" font-family="Arial" font-weight="normal" fill="#000" text-anchor="middle" ><tspan x="599" dy="0">Meta</tspan><tspan x="599" dy="30.800000000000004">Domain</tspan></text>
<path d="M655 690 V710 H674" stroke="#111" stroke-width="1.6" fill="none"/>
<line x1="674" y1="737" x2="709" y2="737" stroke="#111" stroke-width="2.4" fill="none" marker-end="url(#arrowBlack)"/>
<rect x="710" y="688" width="174" height="93" rx="12" ry="12" fill="#ded6ff" stroke="none" stroke-width="0" />
<text x="797" y="723" font-size="30" font-family="Arial" font-weight="normal" fill="#000" text-anchor="middle" ><tspan x="797" dy="0">Predicate</tspan><tspan x="797" dy="33.0">Grouping</tspan></text>
<line x1="797" y1="781" x2="797" y2="816" stroke="#111" stroke-width="2.4" fill="none" marker-end="url(#arrowBlack)"/>
<rect x="522" y="813" width="362" height="105" rx="12" ry="12" fill="#ded6ff" stroke="none" stroke-width="0" />
<text x="602" y="849" font-size="30" font-family="Arial" font-weight="normal" fill="#000" text-anchor="start" ><tspan x="602" dy="0">Predicate</tspan><tspan x="602" dy="32.1">&amp; Operator Filtering</tspan></text>
<line x1="705" y1="918" x2="705" y2="945" stroke="#111" stroke-width="2.4" fill="none" marker-end="url(#arrowBlack)"/>
<rect x="522" y="946" width="362" height="62" rx="12" ry="12" fill="#ded6ff" stroke="none" stroke-width="0" />
<text x="602" y="975" font-size="30" font-family="Arial" font-weight="normal" fill="#000" text-anchor="start" ><tspan x="602" dy="0">Problem</tspan><tspan x="602" dy="30.6">Generator</tspan></text>
<path d="M884 737 H940" stroke="#6e3d8e" stroke-width="4" fill="none" marker-end="url(#arrowPurple)"/>
<path d="M884 978 H917 V737" stroke="#6e3d8e" stroke-width="4" fill="none"/>
<rect x="960" y="688" width="268" height="93" rx="12" ry="12" fill="#ded6ff" stroke="none" stroke-width="0" />
<text x="1092" y="724" font-size="30" font-family="Arial" font-weight="normal" fill="#000" text-anchor="middle" ><tspan x="1092" dy="0">PDDL</tspan><tspan x="1092" dy="33.0">Solver</tspan></text>
<line x1="1092" y1="781" x2="1092" y2="815" stroke="#111" stroke-width="2.4" fill="none" marker-end="url(#arrowBlack)"/>
<path d="M957 813 H1215 L1234 833 V1005 H957 Z" fill="#fefefe" stroke="#999" stroke-width="1.6"/>
<path d="M1215 813 V833 H1234" stroke="#999" stroke-width="1.2" fill="none"/>
<text x="973" y="844" font-size="24" font-family="Arial" font-style="italic" fill="#008000">remove_id <tspan fill="#004c99">(id)</tspan></text>
<text x="973" y="874" font-size="24" font-family="Arial" font-style="italic" fill="#008000">pick_from_rack <tspan fill="#004c99">(bowl)</tspan></text>
<text x="973" y="904" font-size="24" font-family="Arial" font-style="italic" fill="#008000">place_on_table <tspan fill="#004c99">(bowl)</tspan></text>
<text x="973" y="934" font-size="24" font-family="Arial" font-style="italic" fill="#008000">...</text>
<text x="973" y="964" font-size="24" font-family="Arial" font-style="italic" fill="#008000">wipe_table <tspan fill="#004c99">(towel)</tspan></text>
<text x="973" y="994" font-size="24" font-family="Arial" font-style="italic" fill="#008000">place_in_drawer <tspan fill="#004c99">(towel)</tspan></text>
<text x="973" y="1024" font-size="24" font-family="Arial" font-style="italic" fill="#008000">close_drawer <tspan fill="#004c99">(drawer)</tspan></text>
<path d="M1234 913 H1275 V725 H1308" stroke="#6e3d8e" stroke-width="4" fill="none" marker-end="url(#arrowPurple)"/>
<image id="raster_keyframe_photo_grid" data-source-slot="slot_keyframe_photo_grid" href="assets/raster_required/keyframe_photo_grid.png" xlink:href="assets/raster_required/keyframe_photo_grid.png" x="262" y="84" width="455" height="403" preserveAspectRatio="none"/>
<image id="raster_planning_input_photo" data-source-slot="slot_planning_input_photo" href="assets/raster_required/planning_input_photo.png" xlink:href="assets/raster_required/planning_input_photo.png" x="101" y="787" width="343" height="240" preserveAspectRatio="none"/>
<image id="raster_execution_photo_grid" data-source-slot="slot_execution_photo_grid" href="assets/raster_required/execution_photo_grid.png" xlink:href="assets/raster_required/execution_photo_grid.png" x="1308" y="659" width="580" height="384" preserveAspectRatio="none"/>
<g id="svg_droid_dataset_icon" data-source-slot="slot_droid_dataset_icon" fill="none" stroke="#777" stroke-width="3">
  <path d="M 86,200 C 86,178 208,178 208,200"/>
  <ellipse cx="147.0" cy="200" rx="61.0" ry="28" fill="#f4f4f4"/>
  <path d="M 86,200 L 86,382 C 86,404 208,404 208,382 L 208,200" fill="#f7f7f7"/>
  <path d="M 86,382 C 86,404 208,404 208,382"/>
  <text x="147.0" y="290" font-size="30" fill="#111" stroke="none" font-family="Arial" text-anchor="middle">DROID</text>
  <text x="147.0" y="328" font-size="30" fill="#111" stroke="none" font-family="Arial" text-anchor="middle">Dataset</text>
</g>
<g id="svg_openai_domain_construction" data-source-slot="slot_openai_domain_construction" transform="translate(846.5 152.0)" fill="none" stroke="#111" stroke-width="4" stroke-linecap="round" stroke-linejoin="round">
  <path d="M -4,-15.8 C 14,-15.8 22,-18 16,-6 C 10,6 -7,2 -12,-6 C -18,-18 -10,-15.8 -4,-15.8 Z"/>
  <path d="M 15.8,-5 C 15.8,14 18,22 6,16 C -6,10 -2,-7 6,-12 C 18,-18 15.8,-10 15.8,-5 Z" transform="rotate(60)"/>
  <path d="M 15.8,-5 C 15.8,14 18,22 6,16 C -6,10 -2,-7 6,-12 C 18,-18 15.8,-10 15.8,-5 Z" transform="rotate(120)"/>
  <path d="M 15.8,-5 C 15.8,14 18,22 6,16 C -6,10 -2,-7 6,-12 C 18,-18 15.8,-10 15.8,-5 Z" transform="rotate(180)"/>
  <path d="M 15.8,-5 C 15.8,14 18,22 6,16 C -6,10 -2,-7 6,-12 C 18,-18 15.8,-10 15.8,-5 Z" transform="rotate(240)"/>
  <path d="M 15.8,-5 C 15.8,14 18,22 6,16 C -6,10 -2,-7 6,-12 C 18,-18 15.8,-10 15.8,-5 Z" transform="rotate(300)"/>
</g>
<g id="svg_domain_doc_top" data-source-slot="slot_domain_doc_top">
<path d="M1170,116 H1300 L1320,136 V194 H1170 Z" fill="#fff" stroke="#111" stroke-width="1.6"/>
<path d="M1300,116 V136 H1320" fill="none" stroke="#111" stroke-width="1.2"/>
<text x="1178" y="133" font-size="16" font-family="Times New Roman" font-style="italic" fill="#1847b8">:predicates <tspan fill="#111">(...)</tspan></text>
<text x="1178" y="151" font-size="16" font-family="Times New Roman" font-style="italic" fill="#047c18">:actions <tspan fill="#111">(...)</tspan></text>
<text x="1178" y="169" font-size="16" font-family="Times New Roman" font-style="italic" fill="#c03030">:precondition <tspan fill="#111">(...)</tspan></text>
<text x="1178" y="187" font-size="16" font-family="Times New Roman" font-style="italic" fill="#7a1aa0">:effect <tspan fill="#111">(...)</tspan></text>
</g>
<g id="svg_openai_solvability" data-source-slot="slot_openai_solvability" transform="translate(846.5 283.5)" fill="none" stroke="#111" stroke-width="4" stroke-linecap="round" stroke-linejoin="round">
  <path d="M -4,-16.2 C 14,-16.2 22,-18 16,-6 C 10,6 -7,2 -12,-6 C -18,-18 -10,-16.2 -4,-16.2 Z"/>
  <path d="M 16.2,-5 C 16.2,14 18,22 6,16 C -6,10 -2,-7 6,-12 C 18,-18 16.2,-10 16.2,-5 Z" transform="rotate(60)"/>
  <path d="M 16.2,-5 C 16.2,14 18,22 6,16 C -6,10 -2,-7 6,-12 C 18,-18 16.2,-10 16.2,-5 Z" transform="rotate(120)"/>
  <path d="M 16.2,-5 C 16.2,14 18,22 6,16 C -6,10 -2,-7 6,-12 C 18,-18 16.2,-10 16.2,-5 Z" transform="rotate(180)"/>
  <path d="M 16.2,-5 C 16.2,14 18,22 6,16 C -6,10 -2,-7 6,-12 C 18,-18 16.2,-10 16.2,-5 Z" transform="rotate(240)"/>
  <path d="M 16.2,-5 C 16.2,14 18,22 6,16 C -6,10 -2,-7 6,-12 C 18,-18 16.2,-10 16.2,-5 Z" transform="rotate(300)"/>
</g>
<g id="svg_solvability_tree_icon" data-source-slot="slot_solvability_tree_icon" fill="none" stroke="#111" stroke-width="4" stroke-linejoin="round" stroke-linecap="round">
  <rect x="842.0" y="325" width="18" height="18" rx="2" fill="#fff"/>
  <path d="M 851.0,343 V 341.5 M 851.0,341.5 H 838 V 335 M 851.0,341.5 H 864 V 335"/>
  <rect x="829" y="335" width="18" height="18" rx="2" fill="#fff"/>
  <rect x="855" y="335" width="18" height="18" rx="2" fill="#fff"/>
</g>
<g id="svg_openai_refinement" data-source-slot="slot_openai_refinement" transform="translate(1242.5 285.5)" fill="none" stroke="#111" stroke-width="4" stroke-linecap="round" stroke-linejoin="round">
  <path d="M -4,-16.2 C 14,-16.2 22,-18 16,-6 C 10,6 -7,2 -12,-6 C -18,-18 -10,-16.2 -4,-16.2 Z"/>
  <path d="M 16.2,-5 C 16.2,14 18,22 6,16 C -6,10 -2,-7 6,-12 C 18,-18 16.2,-10 16.2,-5 Z" transform="rotate(60)"/>
  <path d="M 16.2,-5 C 16.2,14 18,22 6,16 C -6,10 -2,-7 6,-12 C 18,-18 16.2,-10 16.2,-5 Z" transform="rotate(120)"/>
  <path d="M 16.2,-5 C 16.2,14 18,22 6,16 C -6,10 -2,-7 6,-12 C 18,-18 16.2,-10 16.2,-5 Z" transform="rotate(180)"/>
  <path d="M 16.2,-5 C 16.2,14 18,22 6,16 C -6,10 -2,-7 6,-12 C 18,-18 16.2,-10 16.2,-5 Z" transform="rotate(240)"/>
  <path d="M 16.2,-5 C 16.2,14 18,22 6,16 C -6,10 -2,-7 6,-12 C 18,-18 16.2,-10 16.2,-5 Z" transform="rotate(300)"/>
</g>
<g id="svg_openai_solution" data-source-slot="slot_openai_solution" transform="translate(846.5 445.5)" fill="none" stroke="#111" stroke-width="4" stroke-linecap="round" stroke-linejoin="round">
  <path d="M -4,-16.2 C 14,-16.2 22,-18 16,-6 C 10,6 -7,2 -12,-6 C -18,-18 -10,-16.2 -4,-16.2 Z"/>
  <path d="M 16.2,-5 C 16.2,14 18,22 6,16 C -6,10 -2,-7 6,-12 C 18,-18 16.2,-10 16.2,-5 Z" transform="rotate(60)"/>
  <path d="M 16.2,-5 C 16.2,14 18,22 6,16 C -6,10 -2,-7 6,-12 C 18,-18 16.2,-10 16.2,-5 Z" transform="rotate(120)"/>
  <path d="M 16.2,-5 C 16.2,14 18,22 6,16 C -6,10 -2,-7 6,-12 C 18,-18 16.2,-10 16.2,-5 Z" transform="rotate(180)"/>
  <path d="M 16.2,-5 C 16.2,14 18,22 6,16 C -6,10 -2,-7 6,-12 C 18,-18 16.2,-10 16.2,-5 Z" transform="rotate(240)"/>
  <path d="M 16.2,-5 C 16.2,14 18,22 6,16 C -6,10 -2,-7 6,-12 C 18,-18 16.2,-10 16.2,-5 Z" transform="rotate(300)"/>
</g>
<g id="svg_domain_doc_refinement" data-source-slot="slot_domain_doc_refinement">
<path d="M1168,405 H1298 L1318,425 V489 H1168 Z" fill="#fff" stroke="#111" stroke-width="1.6"/>
<path d="M1298,405 V425 H1318" fill="none" stroke="#111" stroke-width="1.2"/>
<text x="1176" y="422" font-size="15" font-family="Times New Roman" font-style="italic" fill="#1847b8">:predicates <tspan fill="#111">(...)</tspan></text>
<text x="1176" y="439" font-size="15" font-family="Times New Roman" font-style="italic" fill="#047c18">:actions <tspan fill="#111">(...)</tspan></text>
<text x="1176" y="456" font-size="15" font-family="Times New Roman" font-style="italic" fill="#c03030">:precondition <tspan fill="#111">(...)</tspan></text>
<text x="1176" y="473" font-size="15" font-family="Times New Roman" font-style="italic" fill="#7a1aa0">:effect <tspan fill="#111">(...)</tspan></text>
</g>
<g id="svg_openai_fusion_left" data-source-slot="slot_openai_fusion_left" transform="translate(1542.0 214.0)" fill="none" stroke="#111" stroke-width="4" stroke-linecap="round" stroke-linejoin="round">
  <path d="M -4,-16.5 C 14,-16.5 22,-18 16,-6 C 10,6 -7,2 -12,-6 C -18,-18 -10,-16.5 -4,-16.5 Z"/>
  <path d="M 16.5,-5 C 16.5,14 18,22 6,16 C -6,10 -2,-7 6,-12 C 18,-18 16.5,-10 16.5,-5 Z" transform="rotate(60)"/>
  <path d="M 16.5,-5 C 16.5,14 18,22 6,16 C -6,10 -2,-7 6,-12 C 18,-18 16.5,-10 16.5,-5 Z" transform="rotate(120)"/>
  <path d="M 16.5,-5 C 16.5,14 18,22 6,16 C -6,10 -2,-7 6,-12 C 18,-18 16.5,-10 16.5,-5 Z" transform="rotate(180)"/>
  <path d="M 16.5,-5 C 16.5,14 18,22 6,16 C -6,10 -2,-7 6,-12 C 18,-18 16.5,-10 16.5,-5 Z" transform="rotate(240)"/>
  <path d="M 16.5,-5 C 16.5,14 18,22 6,16 C -6,10 -2,-7 6,-12 C 18,-18 16.5,-10 16.5,-5 Z" transform="rotate(300)"/>
</g>
<g id="svg_openai_fusion_right" data-source-slot="slot_openai_fusion_right" transform="translate(1810.0 214.0)" fill="none" stroke="#111" stroke-width="4" stroke-linecap="round" stroke-linejoin="round">
  <path d="M -4,-16.5 C 14,-16.5 22,-18 16,-6 C 10,6 -7,2 -12,-6 C -18,-18 -10,-16.5 -4,-16.5 Z"/>
  <path d="M 16.5,-5 C 16.5,14 18,22 6,16 C -6,10 -2,-7 6,-12 C 18,-18 16.5,-10 16.5,-5 Z" transform="rotate(60)"/>
  <path d="M 16.5,-5 C 16.5,14 18,22 6,16 C -6,10 -2,-7 6,-12 C 18,-18 16.5,-10 16.5,-5 Z" transform="rotate(120)"/>
  <path d="M 16.5,-5 C 16.5,14 18,22 6,16 C -6,10 -2,-7 6,-12 C 18,-18 16.5,-10 16.5,-5 Z" transform="rotate(180)"/>
  <path d="M 16.5,-5 C 16.5,14 18,22 6,16 C -6,10 -2,-7 6,-12 C 18,-18 16.5,-10 16.5,-5 Z" transform="rotate(240)"/>
  <path d="M 16.5,-5 C 16.5,14 18,22 6,16 C -6,10 -2,-7 6,-12 C 18,-18 16.5,-10 16.5,-5 Z" transform="rotate(300)"/>
</g>
<g id="svg_openai_fusion_center" data-source-slot="slot_openai_fusion_center" transform="translate(1667.0 388.0)" fill="none" stroke="#111" stroke-width="4" stroke-linecap="round" stroke-linejoin="round">
  <path d="M -4,-16.5 C 14,-16.5 22,-18 16,-6 C 10,6 -7,2 -12,-6 C -18,-18 -10,-16.5 -4,-16.5 Z"/>
  <path d="M 16.5,-5 C 16.5,14 18,22 6,16 C -6,10 -2,-7 6,-12 C 18,-18 16.5,-10 16.5,-5 Z" transform="rotate(60)"/>
  <path d="M 16.5,-5 C 16.5,14 18,22 6,16 C -6,10 -2,-7 6,-12 C 18,-18 16.5,-10 16.5,-5 Z" transform="rotate(120)"/>
  <path d="M 16.5,-5 C 16.5,14 18,22 6,16 C -6,10 -2,-7 6,-12 C 18,-18 16.5,-10 16.5,-5 Z" transform="rotate(180)"/>
  <path d="M 16.5,-5 C 16.5,14 18,22 6,16 C -6,10 -2,-7 6,-12 C 18,-18 16.5,-10 16.5,-5 Z" transform="rotate(240)"/>
  <path d="M 16.5,-5 C 16.5,14 18,22 6,16 C -6,10 -2,-7 6,-12 C 18,-18 16.5,-10 16.5,-5 Z" transform="rotate(300)"/>
</g>
<g id="svg_openai_filter" data-source-slot="slot_openai_filter" transform="translate(574.0 853.0)" fill="none" stroke="#111" stroke-width="4" stroke-linecap="round" stroke-linejoin="round">
  <path d="M -4,-17.2 C 14,-17.2 22,-18 16,-6 C 10,6 -7,2 -12,-6 C -18,-18 -10,-17.2 -4,-17.2 Z"/>
  <path d="M 17.2,-5 C 17.2,14 18,22 6,16 C -6,10 -2,-7 6,-12 C 18,-18 17.2,-10 17.2,-5 Z" transform="rotate(60)"/>
  <path d="M 17.2,-5 C 17.2,14 18,22 6,16 C -6,10 -2,-7 6,-12 C 18,-18 17.2,-10 17.2,-5 Z" transform="rotate(120)"/>
  <path d="M 17.2,-5 C 17.2,14 18,22 6,16 C -6,10 -2,-7 6,-12 C 18,-18 17.2,-10 17.2,-5 Z" transform="rotate(180)"/>
  <path d="M 17.2,-5 C 17.2,14 18,22 6,16 C -6,10 -2,-7 6,-12 C 18,-18 17.2,-10 17.2,-5 Z" transform="rotate(240)"/>
  <path d="M 17.2,-5 C 17.2,14 18,22 6,16 C -6,10 -2,-7 6,-12 C 18,-18 17.2,-10 17.2,-5 Z" transform="rotate(300)"/>
</g>
<g id="svg_openai_problem_generator" data-source-slot="slot_openai_problem_generator" transform="translate(574.0 980.0)" fill="none" stroke="#111" stroke-width="4" stroke-linecap="round" stroke-linejoin="round">
  <path d="M -4,-17.2 C 14,-17.2 22,-18 16,-6 C 10,6 -7,2 -12,-6 C -18,-18 -10,-17.2 -4,-17.2 Z"/>
  <path d="M 17.2,-5 C 17.2,14 18,22 6,16 C -6,10 -2,-7 6,-12 C 18,-18 17.2,-10 17.2,-5 Z" transform="rotate(60)"/>
  <path d="M 17.2,-5 C 17.2,14 18,22 6,16 C -6,10 -2,-7 6,-12 C 18,-18 17.2,-10 17.2,-5 Z" transform="rotate(120)"/>
  <path d="M 17.2,-5 C 17.2,14 18,22 6,16 C -6,10 -2,-7 6,-12 C 18,-18 17.2,-10 17.2,-5 Z" transform="rotate(180)"/>
  <path d="M 17.2,-5 C 17.2,14 18,22 6,16 C -6,10 -2,-7 6,-12 C 18,-18 17.2,-10 17.2,-5 Z" transform="rotate(240)"/>
  <path d="M 17.2,-5 C 17.2,14 18,22 6,16 C -6,10 -2,-7 6,-12 C 18,-18 17.2,-10 17.2,-5 Z" transform="rotate(300)"/>
</g>
<g id="svg_problem_doc" data-source-slot="slot_problem_doc">
<path d="M763,956 H855 L875,976 V1025 H763 Z" fill="#fff" stroke="#111" stroke-width="1.6"/>
<path d="M855,956 V976 H875" fill="none" stroke="#111" stroke-width="1.2"/>
<text x="771" y="973" font-size="16" font-family="Times New Roman" font-style="italic" fill="#1847b8">objects <tspan fill="#111">(...)</tspan></text>
<text x="771" y="991" font-size="16" font-family="Times New Roman" font-style="italic" fill="#047c18">:init <tspan fill="#111">(...)</tspan></text>
<text x="771" y="1009" font-size="16" font-family="Times New Roman" font-style="italic" fill="#b36b00">:goal <tspan fill="#111">(...)</tspan></text>
</g>
<g id="svg_pddl_solver_icon" data-source-slot="slot_pddl_solver_icon" fill="none" stroke="#111" stroke-width="4" stroke-linejoin="round" stroke-linecap="round">
  <rect x="1043.0" y="709" width="18" height="18" rx="2" fill="#fff"/>
  <path d="M 1052.0,727 V 737.0 M 1052.0,737.0 H 1031 V 742 M 1052.0,737.0 H 1073 V 742"/>
  <rect x="1022" y="742" width="18" height="18" rx="2" fill="#fff"/>
  <rect x="1064" y="742" width="18" height="18" rx="2" fill="#fff"/>
</g>
</svg>