<svg xmlns="http://www.w3.org/2000/svg" xmlns:xlink="http://www.w3.org/1999/xlink" width="1920" height="1071" viewBox="0 0 1920 1071">
<defs>
  <marker id="arrowGreen" markerWidth="13" markerHeight="10" refX="11" refY="5" orient="auto" markerUnits="strokeWidth"><path d="M0,0 L12,5 L0,10 Z" fill="#2f7039"/></marker>
  <marker id="arrowBlack" markerWidth="13" markerHeight="10" refX="11" refY="5" orient="auto" markerUnits="strokeWidth"><path d="M0,0 L12,5 L0,10 Z" fill="#111"/></marker>
  <marker id="arrowPurple" markerWidth="13" markerHeight="10" refX="11" refY="5" orient="auto" markerUnits="strokeWidth"><path d="M0,0 L12,5 L0,10 Z" fill="#6e3d8e"/></marker>
  <style>
    .title { font-family: Arial, sans-serif; font-weight: 800; font-size: 32px; fill:#000; }
    .panelTitle { font-family: Arial, sans-serif; font-weight: 800; font-size: 34px; fill:#000; }
    .serif { font-family: 'Times New Roman', Times, serif; }
    .boxText { font-family: Arial, sans-serif; font-size: 30px; fill:#111; }
    .thin { stroke:#111; stroke-width:2.2; fill:none; }
  </style>
</defs>

<rect width="1920" height="1071" fill="#ffffff"/>
<rect x="0" y="14" width="1920" height="520" rx="34" ry="34" fill="#eef7f0" stroke="none" stroke-width="0" />
<rect x="0" y="545" width="1920" height="526" rx="34" ry="34" fill="#f4f0fa" stroke="none" stroke-width="0" />
<text x="62" y="303" font-family="Arial" font-weight="700" font-size="34" transform="rotate(-90 62 303)" text-anchor="middle">Learning</text>
<text x="62" y="802" font-family="Arial" font-weight="700" font-size="34" transform="rotate(-90 62 802)" text-anchor="middle">Planning</text>
<rect x="246" y="30" width="493" height="486" rx="30" ry="30" fill="#ffffff" stroke="none" stroke-width="0" />
<rect x="768" y="30" width="620" height="486" rx="30" ry="30" fill="#ffffff" stroke="none" stroke-width="0" />
<rect x="1421" y="30" width="491" height="486" rx="30" ry="30" fill="#ffffff" stroke="none" stroke-width="0" />
<rect x="510" y="595" width="386" height="448" rx="30" ry="30" fill="#ffffff" stroke="none" stroke-width="0" />
<rect x="940" y="595" width="310" height="448" rx="30" ry="30" fill="#ffffff" stroke="none" stroke-width="0" />
<rect x="1290" y="595" width="610" height="448" rx="30" ry="30" fill="#ffffff" stroke="none" stroke-width="0" />
<text x="493" y="67" class="panelTitle" text-anchor="middle">(a) Keyframe Extraction</text>
<text x="1078" y="67" class="panelTitle" text-anchor="middle">(b) Atomic Domain Generation</text>
<text x="1672" y="67" class="panelTitle" text-anchor="middle">(c) Domain Fusion</text>
<text x="705" y="637" class="panelTitle" text-anchor="middle">(d) Problem Generation</text>
<text x="1095" y="637" class="panelTitle" text-anchor="middle">(e) Planning</text>
<text x="1595" y="637" class="panelTitle" text-anchor="middle">(f) Execution</text>
<line x1="203" y1="296" x2="262" y2="296" stroke="#2f7039" stroke-width="5" fill="none" marker-end="url(#arrowGreen)"/>
<path d="M225 148 H262 M225 148 V458 M225 458 H262" stroke="#2f7039" stroke-width="5" fill="none"/>
<path d="M225 296 H262" stroke="#2f7039" stroke-width="5" fill="none" marker-end="url(#arrowGreen)"/>
<path d="M225 148 H262" stroke="#2f7039" stroke-width="5" fill="none" marker-end="url(#arrowGreen)"/>
<path d="M225 458 H262" stroke="#2f7039" stroke-width="5" fill="none" marker-end="url(#arrowGreen)"/>
<path d="M717 156 H766 V156 H809" stroke="#2f7039" stroke-width="5" fill="none" marker-end="url(#arrowGreen)"/>
<path d="M717 296 H766 V156" stroke="#2f7039" stroke-width="5" fill="none"/>
<path d="M717 458 H766 V156" stroke="#2f7039" stroke-width="5" fill="none"/>
<rect x="812" y="108" width="525" height="94" rx="10" ry="10" fill="#c7f0cc" stroke="none" stroke-width="0" />
<text x="885" y="143" font-size="30" font-family="Arial" font-weight="normal" fill="#000" text-anchor="start" ><tspan x="885" dy="0">Domain Construction</tspan><tspan x="885" dy="32.400000000000006">&amp; Revision</tspan></text>
<line x1="1074" y1="202" x2="1074" y2="232" stroke="#111" stroke-width="2.5" fill="none" marker-end="url(#arrowBlack)"/>
<rect x="812" y="233" width="227" height="137" rx="10" ry="10" fill="#c7f0cc" stroke="none" stroke-width="0" />
<text x="885" y="285" font-size="30" font-family="Arial" font-weight="normal" fill="#000" text-anchor="start" ><tspan x="885" dy="0">Solvability</tspan><tspan x="885" dy="31.5">Check</tspan></text>
<line x1="921" y1="370" x2="921" y2="391" stroke="#111" stroke-width="2.5" fill="none" marker-end="url(#arrowBlack)"/>
<rect x="812" y="394" width="227" height="106" rx="10" ry="10" fill="#c7f0cc" stroke="none" stroke-width="0" />
<text x="885" y="437" font-size="30" font-family="Arial" font-weight="normal" fill="#000" text-anchor="start" ><tspan x="885" dy="0">Solution</tspan><tspan x="885" dy="31.5">Verification</tspan></text>
<rect x="1151" y="212" width="186" height="248" rx="10" ry="10" fill="#c7f0cc" stroke="none" stroke-width="0" />
<text x="1161" y="354" font-size="30" font-family="Arial" font-weight="normal" fill="#000" text-anchor="start" ><tspan x="1161" dy="0">Closed-Loop</tspan><tspan x="1161" dy="31.5">Refinement</tspan></text>
<line x1="1038" y1="291" x2="1151" y2="291" stroke="#111" stroke-width="2.4" marker-end="url(#arrowBlack)"/>
<line x1="1151" y1="316" x2="1038" y2="316" stroke="#111" stroke-width="2.4" marker-end="url(#arrowBlack)"/>
<text x="1046" y="344" font-size="25" font-family="Arial" font-weight="normal" fill="#000" text-anchor="start"  >Feedback</text>
<line x1="1038" y1="446" x2="1151" y2="446" stroke="#111" stroke-width="2.4" marker-end="url(#arrowBlack)"/>
<text x="1046" y="429" font-size="25" font-family="Arial" font-weight="normal" fill="#000" text-anchor="start"  >Feedback</text>
<path d="M1337 447 H1396 V181 H1421" stroke="#2f7039" stroke-width="4" fill="none" marker-end="url(#arrowGreen)"/>
<rect x="1431" y="96" width="452" height="124" rx="0" ry="0" fill="none" stroke="#111" stroke-width="2.5" />
<path d="M1863 96 L1883 116 L1883 220" stroke="#111" stroke-width="2.5" fill="none"/>
<text x="1657" y="126" font-size="28" font-family="Arial" font-weight="normal" fill="#000" text-anchor="middle"  >Unified Domain</text>
<path d="M1438 137 H1526 L1544 155 V209 H1438 Z" fill="#fff" stroke="#111" stroke-width="2.2"/>
<text x="1490" y="171" font-size="22" font-family="Arial" font-weight="normal" fill="#000" text-anchor="middle" ><tspan x="1490" dy="0">Atomic</tspan><tspan x="1490" dy="24.200000000000003">Domain</tspan></text>
<path d="M1526 137 V155 H1544" stroke="#111" stroke-width="1.6" fill="none"/>
<path d="M1553 137 H1641 L1659 155 V209 H1553 Z" fill="#fff" stroke="#111" stroke-width="2.2"/>
<text x="1605" y="171" font-size="22" font-family="Arial" font-weight="normal" fill="#000" text-anchor="middle" ><tspan x="1605" dy="0">Atomic</tspan><tspan x="1605" dy="24.200000000000003">Domain</tspan></text>
<path d="M1641 137 V155 H1659" stroke="#111" stroke-width="1.6" fill="none"/>
<path d="M1716 137 H1804 L1822 155 V209 H1716 Z" fill="#fff" stroke="#111" stroke-width="2.2"/>
<text x="1768" y="171" font-size="22" font-family="Arial" font-weight="normal" fill="#000" text-anchor="middle" ><tspan x="1768" dy="0">Atomic</tspan><tspan x="1768" dy="24.200000000000003">Domain</tspan></text>
<path d="M1804 137 V155 H1822" stroke="#111" stroke-width="1.6" fill="none"/>
<path d="M1817 137 H1905 L1923 155 V209 H1817 Z" fill="#fff" stroke="#111" stroke-width="2.2"/>
<text x="1869" y="171" font-size="22" font-family="Arial" font-weight="normal" fill="#000" text-anchor="middle" ><tspan x="1869" dy="0">Atomic</tspan><tspan x="1869" dy="24.200000000000003">Domain</tspan></text>
<path d="M1905 137 V155 H1923" stroke="#111" stroke-width="1.6" fill="none"/>
<text x="1643" y="179" font-size="30" font-family="Arial" font-weight="normal" fill="#000" text-anchor="middle"  >...</text>
<path d="M1466 280 H1605 L1623 300 V374 H1466 Z" fill="#fff" stroke="#111" stroke-width="2.2"/>
<text x="1544" y="316" font-size="28" font-family="Arial" font-weight="normal" fill="#000" text-anchor="middle" ><tspan x="1544" dy="0">Meta</tspan><tspan x="1544" dy="30.800000000000004">Domain</tspan></text>
<path d="M1605 280 V300 H1623" stroke="#111" stroke-width="1.6" fill="none"/>
<path d="M1711 280 H1850 L1868 300 V374 H1711 Z" fill="#fff" stroke="#111" stroke-width="2.2"/>
<text x="1789" y="316" font-size="28" font-family="Arial" font-weight="normal" fill="#000" text-anchor="middle" ><tspan x="1789" dy="0">Meta</tspan><tspan x="1789" dy="30.800000000000004">Domain</tspan></text>
<path d="M1850 280 V300 H1868" stroke="#111" stroke-width="1.6" fill="none"/>
<text x="1665" y="333" font-size="32" font-family="Arial" font-weight="normal" fill="#000" text-anchor="middle"  >...</text>
<path d="M1569 419 H1762 L1780 439 V522 H1569 Z" fill="#fff" stroke="#111" stroke-width="2.2"/>
<text x="1667" y="456" font-size="32" font-family="Arial" font-weight="normal" fill="#000" text-anchor="middle" ><tspan x="1667" dy="0">Meta</tspan><tspan x="1667" dy="35.2">Domain</tspan></text>
<path d="M1762 419 V439 H1780" stroke="#111" stroke-width="1.6" fill="none"/>
<line x1="1483" y1="209" x2="1522" y2="280" stroke="#111" stroke-width="1.8"/>
<line x1="1606" y1="209" x2="1578" y2="280" stroke="#111" stroke-width="1.8"/>
<line x1="1754" y1="209" x2="1790" y2="280" stroke="#111" stroke-width="1.8"/>
<line x1="1855" y1="209" x2="1815" y2="280" stroke="#111" stroke-width="1.8"/>
<line x1="1545" y1="374" x2="1630" y2="419" stroke="#111" stroke-width="1.8"/>
<line x1="1790" y1="374" x2="1705" y2="419" stroke="#111" stroke-width="1.8"/>
<rect x="82" y="596" width="378" height="174" rx="18" ry="18" fill="#ffffff" stroke="none" stroke-width="0" />
<text x="271" y="631" font-size="28" font-family="Arial" font-weight="normal" fill="#000" text-anchor="middle" font-style="italic"><tspan x="271" dy="0">Move the corn from the pot</tspan><tspan x="271" dy="31.360000000000003">into the orange bowl, wipe the</tspan><tspan x="271" dy="31.360000000000003">table with the towel in the</tspan><tspan x="271" dy="31.360000000000003">drawer and put it back to the</tspan><tspan x="271" dy="31.360000000000003">closed drawer.</tspan></text>
<path d="M460 715 H486 V864 H510" stroke="#6e3d8e" stroke-width="4" fill="none" marker-end="url(#arrowPurple)"/>
<path d="M444 900 H486 V864" stroke="#6e3d8e" stroke-width="4" fill="none"/>
<path d="M525 690 H655 L674 710 V784 H525 Z" fill="#ffffff" stroke="#111" stroke-width="2.2"/>
<text x="599" y="728" font-size="28" font-family="Arial" font-weight="normal" fill="#000" text-anchor="middle" ><tspan x="599" dy="0">Meta</tspan><tspan x="599" dy="30.800000000000004">Domain</tspan></text>
<path d="M655 690 V710 H674" stroke="#111" stroke-width="1.6" fill="none"/>
<line x1="674" y1="737" x2="709" y2="737" stroke="#111" stroke-width="2.4" fill="none" marker-end="url(#arrowBlack)"/>
<rect x="710" y="688" width="174" height="93" rx="12" ry="12" fill="#ded6ff" stroke="none" stroke-width="0" />
<text x="797" y="723" font-size="30" font-family="Arial" font-weight="normal" fill="#000" text-anchor="middle" ><tspan x="797" dy="0">Predicate</tspan><tspan x="797" dy="33.0">Grouping</tspan></text>
<line x1="797" y1="781" x2="797" y2="816" stroke="#111" stroke-width="2.4" fill="none" marker-end="url(#arrowBlack)"/>
<rect x="522" y="813" width="362" height="105" rx="12" ry="12" fill="#ded6ff" stroke="none" stroke-width="0" />
<text x="602" y="849" font-size="30" font-family="Arial" font-weight="normal" fill="#000" text-anchor="start" ><tspan x="602" dy="0">Predicate</tspan><tspan x="602" dy="32.1">&amp; Operator Filtering</tspan></text>
<line x1="705" y1="918" x2="705" y2="945" stroke="#111" stroke-width="2.4" fill="none" marker-end="url(#arrowBlack)"/>
<rect x="522" y="946" width="362" height="62" rx="12" ry="12" fill="#ded6ff" stroke="none" stroke-width="0" />
<text x="602" y="975" font-size="30" font-family="Arial" font-weight="normal" fill="#000" text-anchor="start" ><tspan x="602" dy="0">Problem</tspan><tspan x="602" dy="30.6">Generator</tspan></text>
<path d="M884 737 H940" stroke="#6e3d8e" stroke-width="4" fill="none" marker-end="url(#arrowPurple)"/>
<path d="M884 978 H917 V737" stroke="#6e3d8e" stroke-width="4" fill="none"/>
<rect x="960" y="688" width="268" height="93" rx="12" ry="12" fill="#ded6ff" stroke="none" stroke-width="0" />
<text x="1092" y="724" font-size="30" font-family="Arial" font-weight="normal" fill="#000" text-anchor="middle" ><tspan x="1092" dy="0">PDDL</tspan><tspan x="1092" dy="33.0">Solver</tspan></text>
<line x1="1092" y1="781" x2="1092" y2="815" stroke="#111" stroke-width="2.4" fill="none" marker-end="url(#arrowBlack)"/>
<path d="M957 813 H1215 L1234 833 V1005 H957 Z" fill="#fefefe" stroke="#999" stroke-width="1.6"/>
<path d="M1215 813 V833 H1234" stroke="#999" stroke-width="1.2" fill="none"/>
<text x="973" y="844" font-size="24" font-family="Arial" font-style="italic" fill="#008000">remove_id <tspan fill="#004c99">(id)</tspan></text>
<text x="973" y="874" font-size="24" font-family="Arial" font-style="italic" fill="#008000">pick_from_rack <tspan fill="#004c99">(bowl)</tspan></text>
<text x="973" y="904" font-size="24" font-family="Arial" font-style="italic" fill="#008000">place_on_table <tspan fill="#004c99">(bowl)</tspan></text>
<text x="973" y="934" font-size="24" font-family="Arial" font-style="italic" fill="#008000">...</text>
<text x="973" y="964" font-size="24" font-family="Arial" font-style="italic" fill="#008000">wipe_table <tspan fill="#004c99">(towel)</tspan></text>
<text x="973" y="994" font-size="24" font-family="Arial" font-style="italic" fill="#008000">place_in_drawer <tspan fill="#004c99">(towel)</tspan></text>
<text x="973" y="1024" font-size="24" font-family="Arial" font-style="italic" fill="#008000">close_drawer <tspan fill="#004c99">(drawer)</tspan></text>
<path d="M1234 913 H1275 V725 H1308" stroke="#6e3d8e" stroke-width="4" fill="none" marker-end="url(#arrowPurple)"/>
<g id="slot_keyframe_photo_grid" data-bbox="[262,84,455,403]" data-role="asset">
  <rect x="262" y="84" width="455" height="403" fill="#f8f8f8" stroke="#666" stroke-width="2" stroke-dasharray="6 4" opacity="0.88"/>
  <line x1="262" y1="84" x2="717" y2="487" stroke="#aaa" stroke-width="1.5"/>
  <line x1="717" y1="84" x2="262" y2="487" stroke="#aaa" stroke-width="1.5"/>
  <text x="489.5" y="285.5" font-size="14" text-anchor="middle" dominant-baseline="middle" font-family="Arial">ASSET_SLOT</text>
</g>
<g id="slot_planning_input_photo" data-bbox="[101,787,343,240]" data-role="asset">
  <rect x="101" y="787" width="343" height="240" fill="#f8f8f8" stroke="#666" stroke-width="2" stroke-dasharray="6 4" opacity="0.88"/>
  <line x1="101" y1="787" x2="444" y2="1027" stroke="#aaa" stroke-width="1.5"/>
  <line x1="444" y1="787" x2="101" y2="1027" stroke="#aaa" stroke-width="1.5"/>
  <text x="272.5" y="907.0" font-size="14" text-anchor="middle" dominant-baseline="middle" font-family="Arial">ASSET_SLOT</text>
</g>
<g id="slot_execution_photo_grid" data-bbox="[1308,659,580,384]" data-role="asset">
  <rect x="1308" y="659" width="580" height="384" fill="#f8f8f8" stroke="#666" stroke-width="2" stroke-dasharray="6 4" opacity="0.88"/>
  <line x1="1308" y1="659" x2="1888" y2="1043" stroke="#aaa" stroke-width="1.5"/>
  <line x1="1888" y1="659" x2="1308" y2="1043" stroke="#aaa" stroke-width="1.5"/>
  <text x="1598.0" y="851.0" font-size="14" text-anchor="middle" dominant-baseline="middle" font-family="Arial">ASSET_SLOT</text>
</g>
<g id="slot_droid_dataset_icon" data-bbox="[82,170,130,242]" data-role="asset">
  <rect x="82" y="170" width="130" height="242" fill="#f8f8f8" stroke="#666" stroke-width="2" stroke-dasharray="6 4" opacity="0.88"/>
  <line x1="82" y1="170" x2="212" y2="412" stroke="#aaa" stroke-width="1.5"/>
  <line x1="212" y1="170" x2="82" y2="412" stroke="#aaa" stroke-width="1.5"/>
  <text x="147.0" y="291.0" font-size="14" text-anchor="middle" dominant-baseline="middle" font-family="Arial">ASSET_SLOT</text>
</g>
<g id="slot_openai_domain_construction" data-bbox="[822,128,49,48]" data-role="asset">
  <rect x="822" y="128" width="49" height="48" fill="#f8f8f8" stroke="#666" stroke-width="2" stroke-dasharray="6 4" opacity="0.88"/>
  <line x1="822" y1="128" x2="871" y2="176" stroke="#aaa" stroke-width="1.5"/>
  <line x1="871" y1="128" x2="822" y2="176" stroke="#aaa" stroke-width="1.5"/>
  <text x="846.5" y="152.0" font-size="14" text-anchor="middle" dominant-baseline="middle" font-family="Arial">ASSET_SLOT</text>
</g>
<g id="slot_domain_doc_top" data-bbox="[1170,116,150,78]" data-role="asset">
  <rect x="1170" y="116" width="150" height="78" fill="#f8f8f8" stroke="#666" stroke-width="2" stroke-dasharray="6 4" opacity="0.88"/>
  <line x1="1170" y1="116" x2="1320" y2="194" stroke="#aaa" stroke-width="1.5"/>
  <line x1="1320" y1="116" x2="1170" y2="194" stroke="#aaa" stroke-width="1.5"/>
  <text x="1245.0" y="155.0" font-size="14" text-anchor="middle" dominant-baseline="middle" font-family="Arial">ASSET_SLOT</text>
</g>
<g id="slot_openai_solvability" data-bbox="[822,259,49,49]" data-role="asset">
  <rect x="822" y="259" width="49" height="49" fill="#f8f8f8" stroke="#666" stroke-width="2" stroke-dasharray="6 4" opacity="0.88"/>
  <line x1="822" y1="259" x2="871" y2="308" stroke="#aaa" stroke-width="1.5"/>
  <line x1="871" y1="259" x2="822" y2="308" stroke="#aaa" stroke-width="1.5"/>
  <text x="846.5" y="283.5" font-size="14" text-anchor="middle" dominant-baseline="middle" font-family="Arial">ASSET_SLOT</text>
</g>
<g id="slot_solvability_tree_icon" data-bbox="[824,318,54,47]" data-role="asset">
  <rect x="824" y="318" width="54" height="47" fill="#f8f8f8" stroke="#666" stroke-width="2" stroke-dasharray="6 4" opacity="0.88"/>
  <line x1="824" y1="318" x2="878" y2="365" stroke="#aaa" stroke-width="1.5"/>
  <line x1="878" y1="318" x2="824" y2="365" stroke="#aaa" stroke-width="1.5"/>
  <text x="851.0" y="341.5" font-size="14" text-anchor="middle" dominant-baseline="middle" font-family="Arial">ASSET_SLOT</text>
</g>
<g id="slot_openai_refinement" data-bbox="[1218,261,49,49]" data-role="asset">
  <rect x="1218" y="261" width="49" height="49" fill="#f8f8f8" stroke="#666" stroke-width="2" stroke-dasharray="6 4" opacity="0.88"/>
  <line x1="1218" y1="261" x2="1267" y2="310" stroke="#aaa" stroke-width="1.5"/>
  <line x1="1267" y1="261" x2="1218" y2="310" stroke="#aaa" stroke-width="1.5"/>
  <text x="1242.5" y="285.5" font-size="14" text-anchor="middle" dominant-baseline="middle" font-family="Arial">ASSET_SLOT</text>
</g>
<g id="slot_openai_solution" data-bbox="[822,421,49,49]" data-role="asset">
  <rect x="822" y="421" width="49" height="49" fill="#f8f8f8" stroke="#666" stroke-width="2" stroke-dasharray="6 4" opacity="0.88"/>
  <line x1="822" y1="421" x2="871" y2="470" stroke="#aaa" stroke-width="1.5"/>
  <line x1="871" y1="421" x2="822" y2="470" stroke="#aaa" stroke-width="1.5"/>
  <text x="846.5" y="445.5" font-size="14" text-anchor="middle" dominant-baseline="middle" font-family="Arial">ASSET_SLOT</text>
</g>
<g id="slot_domain_doc_refinement" data-bbox="[1168,405,150,84]" data-role="asset">
  <rect x="1168" y="405" width="150" height="84" fill="#f8f8f8" stroke="#666" stroke-width="2" stroke-dasharray="6 4" opacity="0.88"/>
  <line x1="1168" y1="405" x2="1318" y2="489" stroke="#aaa" stroke-width="1.5"/>
  <line x1="1318" y1="405" x2="1168" y2="489" stroke="#aaa" stroke-width="1.5"/>
  <text x="1243.0" y="447.0" font-size="14" text-anchor="middle" dominant-baseline="middle" font-family="Arial">ASSET_SLOT</text>
</g>
<g id="slot_openai_fusion_left" data-bbox="[1517,188,50,52]" data-role="asset">
  <rect x="1517" y="188" width="50" height="52" fill="#f8f8f8" stroke="#666" stroke-width="2" stroke-dasharray="6 4" opacity="0.88"/>
  <line x1="1517" y1="188" x2="1567" y2="240" stroke="#aaa" stroke-width="1.5"/>
  <line x1="1567" y1="188" x2="1517" y2="240" stroke="#aaa" stroke-width="1.5"/>
  <text x="1542.0" y="214.0" font-size="14" text-anchor="middle" dominant-baseline="middle" font-family="Arial">ASSET_SLOT</text>
</g>
<g id="slot_openai_fusion_right" data-bbox="[1785,188,50,52]" data-role="asset">
  <rect x="1785" y="188" width="50" height="52" fill="#f8f8f8" stroke="#666" stroke-width="2" stroke-dasharray="6 4" opacity="0.88"/>
  <line x1="1785" y1="188" x2="1835" y2="240" stroke="#aaa" stroke-width="1.5"/>
  <line x1="1835" y1="188" x2="1785" y2="240" stroke="#aaa" stroke-width="1.5"/>
  <text x="1810.0" y="214.0" font-size="14" text-anchor="middle" dominant-baseline="middle" font-family="Arial">ASSET_SLOT</text>
</g>
<g id="slot_openai_fusion_center" data-bbox="[1642,362,50,52]" data-role="asset">
  <rect x="1642" y="362" width="50" height="52" fill="#f8f8f8" stroke="#666" stroke-width="2" stroke-dasharray="6 4" opacity="0.88"/>
  <line x1="1642" y1="362" x2="1692" y2="414" stroke="#aaa" stroke-width="1.5"/>
  <line x1="1692" y1="362" x2="1642" y2="414" stroke="#aaa" stroke-width="1.5"/>
  <text x="1667.0" y="388.0" font-size="14" text-anchor="middle" dominant-baseline="middle" font-family="Arial">ASSET_SLOT</text>
</g>
<g id="slot_openai_filter" data-bbox="[548,827,52,52]" data-role="asset">
  <rect x="548" y="827" width="52" height="52" fill="#f8f8f8" stroke="#666" stroke-width="2" stroke-dasharray="6 4" opacity="0.88"/>
  <line x1="548" y1="827" x2="600" y2="879" stroke="#aaa" stroke-width="1.5"/>
  <line x1="600" y1="827" x2="548" y2="879" stroke="#aaa" stroke-width="1.5"/>
  <text x="574.0" y="853.0" font-size="14" text-anchor="middle" dominant-baseline="middle" font-family="Arial">ASSET_SLOT</text>
</g>
<g id="slot_openai_problem_generator" data-bbox="[548,954,52,52]" data-role="asset">
  <rect x="548" y="954" width="52" height="52" fill="#f8f8f8" stroke="#666" stroke-width="2" stroke-dasharray="6 4" opacity="0.88"/>
  <line x1="548" y1="954" x2="600" y2="1006" stroke="#aaa" stroke-width="1.5"/>
  <line x1="600" y1="954" x2="548" y2="1006" stroke="#aaa" stroke-width="1.5"/>
  <text x="574.0" y="980.0" font-size="14" text-anchor="middle" dominant-baseline="middle" font-family="Arial">ASSET_SLOT</text>
</g>
<g id="slot_problem_doc" data-bbox="[763,956,112,69]" data-role="asset">
  <rect x="763" y="956" width="112" height="69" fill="#f8f8f8" stroke="#666" stroke-width="2" stroke-dasharray="6 4" opacity="0.88"/>
  <line x1="763" y1="956" x2="875" y2="1025" stroke="#aaa" stroke-width="1.5"/>
  <line x1="875" y1="956" x2="763" y2="1025" stroke="#aaa" stroke-width="1.5"/>
  <text x="819.0" y="990.5" font-size="14" text-anchor="middle" dominant-baseline="middle" font-family="Arial">ASSET_SLOT</text>
</g>
<g id="slot_pddl_solver_icon" data-bbox="[1017,702,70,70]" data-role="asset">
  <rect x="1017" y="702" width="70" height="70" fill="#f8f8f8" stroke="#666" stroke-width="2" stroke-dasharray="6 4" opacity="0.88"/>
  <line x1="1017" y1="702" x2="1087" y2="772" stroke="#aaa" stroke-width="1.5"/>
  <line x1="1087" y1="702" x2="1017" y2="772" stroke="#aaa" stroke-width="1.5"/>
  <text x="1052.0" y="737.0" font-size="14" text-anchor="middle" dominant-baseline="middle" font-family="Arial">ASSET_SLOT</text>
</g>
</svg>