<svg xmlns="http://www.w3.org/2000/svg" viewBox="0 0 1000 500" width="100%" height="100%">
  <defs>
    <!-- Arrow Markers -->
    <marker id="arrow" viewBox="0 0 10 10" refX="6" refY="5" markerWidth="6" markerHeight="6" orient="auto-start-reverse">
      <path d="M 0 1.5 L 8 5 L 0 8.5 z" fill="#CCCCCC" />
    </marker>
    <marker id="arrow-peach" viewBox="0 0 10 10" refX="6" refY="5" markerWidth="6" markerHeight="6" orient="auto-start-reverse">
      <path d="M 0 1.5 L 8 5 L 0 8.5 z" fill="#F8CBAD" />
    </marker>
    
    <!-- Table Icons -->
    <g id="tick">
      <path d="M2,6 L5,9 L11,2" fill="none" stroke="#70AD47" stroke-width="2.5" stroke-linecap="round" stroke-linejoin="round"/>
    </g>
    <g id="cross">
      <path d="M3,3 L9,9 M9,3 L3,9" fill="none" stroke="#C00000" stroke-width="2.5" stroke-linecap="round"/>
    </g>
  </defs>

  <!-- Background Styles -->
  <style>
    .title { font-family: system-ui, -apple-system, sans-serif; font-weight: bold; fill: #000000; }
    .text-main { font-family: system-ui, -apple-system, sans-serif; fill: #333333; }
    .text-code { font-family: 'Courier New', Courier, monospace; fill: #000000; }
    .box-title { font-family: system-ui, -apple-system, sans-serif; font-weight: bold; fill: #006699; }
  </style>

  <!-- ================= LEFT BOX: Offline Graph Construction ================= -->
  <rect x="10" y="10" width="370" height="480" rx="15" ry="15" fill="#FAFAFA" stroke="#E0E0E0" stroke-width="1.5" stroke-dasharray="5,5" />
  <text x="195" y="40" class="title" font-size="18" text-anchor="middle">Offline Graph Construction</text>

  <!-- Video Frames -->
  <!-- Frame 1: Milking Cow -->
  <g transform="translate(45, 60)">
    <rect x="0" y="0" width="65" height="48" rx="3" fill="#8FAADC" />
    <rect x="0" y="28" width="65" height="20" fill="#70AD47" rx="1" />
    <!-- Cow silhouette -->
    <ellipse cx="38" cy="30" rx="12" ry="8" fill="#FFFFFF" />
    <ellipse cx="48" cy="24" rx="5" ry="5" fill="#FFFFFF" />
    <rect x="30" y="32" width="3" height="10" fill="#FFFFFF" />
    <rect x="42" y="32" width="3" height="10" fill="#FFFFFF" />
    <circle cx="34" cy="28" r="2" fill="#000000" />
    <circle cx="40" cy="32" r="2.5" fill="#000000" />
    <!-- Person -->
    <circle cx="18" cy="28" r="3" fill="#FCD5B4" />
    <path d="M15,31 L21,31 L23,44 L13,44 Z" fill="#4472C4" />
  </g>

  <!-- Frame 2: Zumba -->
  <g transform="translate(120, 60)">
    <rect x="0" y="0" width="65" height="48" rx="3" fill="#D1C4E9" />
    <!-- Dancing figures -->
    <circle cx="25" cy="18" r="3" fill="#E91E63" />
    <path d="M25,21 L20,30 M25,21 L30,27 M25,21 L25,32 L21,42 M25,32 L29,42" stroke="#E91E63" stroke-width="2" stroke-linecap="round" />
    <circle cx="45" cy="15" r="3" fill="#9C27B0" />
    <path d="M45,18 L40,23 M45,18 L51,23 M45,18 L45,28 L41,38 M45,28 L48,38" stroke="#9C27B0" stroke-width="2" stroke-linecap="round" />
  </g>

  <!-- Ellipsis -->
  <text x="195" y="88" class="title" font-size="18" text-anchor="middle">...</text>

  <!-- Frame 3: Clean and Jerk -->
  <g transform="translate(210, 60)">
    <rect x="0" y="0" width="65" height="48" rx="3" fill="#FFF2CC" />
    <rect x="0" y="40" width="65" height="8" fill="#E2EFDA" />
    <!-- Barbell -->
    <line x1="12" y1="22" x2="53" y2="22" stroke="#000000" stroke-width="2" />
    <rect x="8" y="12" width="4" height="20" fill="#C00000" rx="1" />
    <rect x="53" y="12" width="4" height="20" fill="#C00000" rx="1" />
    <!-- Lifter -->
    <circle cx="32" cy="20" r="4" fill="#FCD5B4" />
    <path d="M32,24 L25,15 M32,24 L39,15 M32,24 L32,36 L28,44 M32,36 L36,44" stroke="#000000" stroke-width="2" stroke-linecap="round" />
  </g>

  <!-- Frame 4: Playing Trombone -->
  <g transform="translate(285, 60)">
    <rect x="0" y="0" width="65" height="48" rx="3" fill="#111111" />
    <!-- Trombone (Gold) -->
    <path d="M20,28 L45,28 L45,31 L20,31 Z" fill="#FFD700" />
    <path d="M35,28 L35,18 L50,18 L50,28 Z" fill="none" stroke="#FFD700" stroke-width="1.5" />
    <polygon points="45,26 58,20 58,39 45,33" fill="#FFD700" />
    <!-- Player -->
    <circle cx="18" cy="26" r="4" fill="#FCD5B4" />
    <path d="M18,30 L25,38 L12,38 Z" fill="#333333" />
  </g>

  <!-- Subtitles Box -->
  <rect x="80" y="120" width="230" height="28" rx="8" fill="#FCE4D6" />
  <text x="195" y="138" class="text-main" font-size="13" font-weight="bold" text-anchor="middle">Subtitles</text>

  <!-- Down Arrow 1 -->
  <path d="M 190,154 L 200,154 L 200,166 L 206,166 L 195,177 L 184,166 L 190,166 Z" fill="#E0E0E0" />

  <!-- LVLM Box -->
  <rect x="45" y="183" width="300" height="45" rx="8" fill="#D9E1F2" stroke="#8FAADC" stroke-width="1.5" />
  <text x="195" y="211" class="title" font-size="18" text-anchor="middle" letter-spacing="2">LVLM</text>

  <!-- JSON Output -->
  <text x="195" y="248" class="text-code" font-size="11" text-anchor="middle">
    <tspan x="195" dy="0">[{"entity": "", "description": ""},</tspan>
    <tspan x="195" dy="15">...</tspan>
    <tspan x="195" dy="15">{"entity": "", "description": ""}]</tspan>
  </text>

  <!-- Down Arrow 2 -->
  <path d="M 190,284 L 200,284 L 200,296 L 206,296 L 195,307 L 184,296 L 190,296 Z" fill="#E0E0E0" />

  <!-- Entity Merging Box -->
  <rect x="45" y="312" width="300" height="28" rx="5" fill="#FCE4D6" />
  <text x="195" y="330" class="text-main" font-size="12" font-weight="bold" text-anchor="middle">Entity Merging and Node Connection</text>

  <!-- Graph Visualization -->
  <g transform="translate(40, 350)">
    <!-- Connections (Dashed Lines) -->
    <line x1="15" y1="30" x2="80" y2="15" stroke="#E0E0E0" stroke-width="1.5" stroke-dasharray="3,3" />
    <line x1="15" y1="30" x2="60" y2="60" stroke="#E0E0E0" stroke-width="1.5" stroke-dasharray="3,3" />
    <line x1="80" y1="15" x2="60" y2="60" stroke="#E0E0E0" stroke-width="1.5" stroke-dasharray="3,3" />
    <line x1="80" y1="15" x2="105" y2="80" stroke="#E0E0E0" stroke-width="1.5" stroke-dasharray="3,3" />
    <line x1="60" y1="60" x2="30" y2="90" stroke="#E0E0E0" stroke-width="1.5" stroke-dasharray="3,3" />
    <line x1="60" y1="60" x2="105" y2="80" stroke="#E0E0E0" stroke-width="1.5" stroke-dasharray="3,3" />

    <line x1="130" y1="40" x2="190" y2="50" stroke="#E0E0E0" stroke-width="1.5" stroke-dasharray="3,3" />
    <line x1="130" y1="40" x2="160" y2="80" stroke="#E0E0E0" stroke-width="1.5" stroke-dasharray="3,3" />
    <line x1="190" y1="50" x2="240" y2="20" stroke="#E0E0E0" stroke-width="1.5" stroke-dasharray="3,3" />
    <line x1="190" y1="50" x2="235" y2="60" stroke="#E0E0E0" stroke-width="1.5" stroke-dasharray="3,3" />
    <line x1="240" y1="20" x2="290" y2="30" stroke="#E0E0E0" stroke-width="1.5" stroke-dasharray="3,3" />
    <line x1="235" y1="60" x2="275" y2="85" stroke="#E0E0E0" stroke-width="1.5" stroke-dasharray="3,3" />
    <line x1="290" y1="30" x2="275" y2="85" stroke="#E0E0E0" stroke-width="1.5" stroke-dasharray="3,3" />

    <!-- Nodes -->
    <!-- Left Subgraph -->
    <rect x="5" y="22" width="16" height="16" rx="4" fill="#E2F0D9" stroke="#70AD47" stroke-width="1.5" />
    <rect x="72" y="7" width="16" height="16" rx="4" fill="#E2F0D9" stroke="#70AD47" stroke-width="1.5" />
    <polygon points="60,50 52,66 68,66" fill="#E1F5FE" stroke="#0288D1" stroke-width="1.5" />
    <polygon points="30,80 22,96 38,96" fill="#E1F5FE" stroke="#0288D1" stroke-width="1.5" />
    <rect x="97" y="72" width="14" height="14" fill="#DDEBF7" stroke="#418AB3" stroke-width="1.5" />

    <!-- Right Subgraph -->
    <rect x="122" y="32" width="16" height="16" rx="4" fill="#E2F0D9" stroke="#70AD47" stroke-width="1.5" />
    <rect x="158" y="74" width="16" height="16" rx="4" fill="#E2F0D9" stroke="#70AD47" stroke-width="1.5" />
    <rect x="232" y="12" width="16" height="16" rx="4" fill="#E2F0D9" stroke="#70AD47" stroke-width="1.5" />
    <rect x="267" y="77" width="16" height="16" rx="4" fill="#E2F0D9" stroke="#70AD47" stroke-width="1.5" />
    
    <rect x="183" y="43" width="14" height="14" fill="#DDEBF7" stroke="#418AB3" stroke-width="1.5" />
    <rect x="283" y="23" width="14" height="14" fill="#DDEBF7" stroke="#418AB3" stroke-width="1.5" />
    <polygon points="235,52 227,68 243,68" fill="#E1F5FE" stroke="#0288D1" stroke-width="1.5" />
    <polygon points="205,75 197,91 213,91" fill="#FCE4F2" stroke="#D13F94" stroke-width="1.5" />
  </g>

  <!-- Legend -->
  <g transform="translate(50, 460)">
    <text x="0" y="12" class="text-main" font-size="11">Video Clip</text>
    <rect x="65" y="1" width="16" height="13" rx="4" fill="#E2F0D9" stroke="#70AD47" stroke-width="1.5" />
    
    <text x="115" y="12" class="text-main" font-size="11">Entities (</text>
    <polygon points="180,2 173,14 187,14" fill="#FCE4F2" stroke="#D13F94" stroke-width="1.5" />
    <rect x="200" y="2" width="12" height="12" fill="#DDEBF7" stroke="#418AB3" stroke-width="1.5" />
    <polygon points="230,2 223,14 237,14" fill="#E1F5FE" stroke="#0288D1" stroke-width="1.5" />
    <text x="250" y="12" class="text-main" font-size="11">)</text>
  </g>


  <!-- ================= RIGHT BOX: Retrieval-Reasoning Augmented Generation ================= -->
  <rect x="400" y="10" width="590" height="480" rx="15" ry="15" fill="#FAFAFA" stroke="#E0E0E0" stroke-width="1.5" stroke-dasharray="5,5" />
  <text x="695" y="40" class="title" font-size="18" text-anchor="middle">Retrieval-Reasoning Augmented Generation</text>

  <!-- Question Block with Custom Thinking Emoji -->
  <g transform="translate(430, 55)">
    <!-- Thinking Emoji -->
    <circle cx="15" cy="15" r="12" fill="#FFD15C" stroke="#F4A62A" stroke-width="1" />
    <circle cx="11" cy="12" r="1.5" fill="#664E27" />
    <circle cx="19" cy="12" r="1.5" fill="#664E27" />
    <path d="M 10,8 R 12,6 14,9" stroke="#664E27" stroke-width="1" fill="none" />
    <path d="M 16,9 R 18,6 20,8" stroke="#664E27" stroke-width="1" fill="none" />
    <path d="M 11,20 C 13,22 17,22 19,20" stroke="#664E27" stroke-width="1" fill="none" />
    <!-- Hand -->
    <path d="M 8,23 C 10,21 13,21 14,24 C 15,22 17,22 18,24" stroke="#664E27" stroke-width="1" fill="none" />
    
    <text x="35" y="14" class="text-main" font-size="11" font-weight="bold">Question: Please identify the option that corresponds to the order of events as they</text>
    <text x="35" y="29" class="text-main" font-size="11">occur in the video. [Zumba, clean and jerk, milking cow, playing trombone]</text>
  </g>

  <!-- Diagonal Peach Arrows -->
  <path d="M 535,95 L 545,95 L 545,103 L 549,103 L 540,113 L 531,103 L 535,103 Z" fill="#F8CBAD" />
  <path d="M 815,95 L 825,95 L 825,103 L 829,103 L 820,113 L 811,103 L 815,103 Z" fill="#F8CBAD" />

  <!-- Left Column: Query Keywords Extraction -->
  <text x="540" y="130" class="box-title" font-size="12" text-anchor="middle">Query Keywords Extraction</text>
  <text x="540" y="148" class="text-code" font-size="11" text-anchor="middle">["zumba", "clean", "milking</text>
  <text x="540" y="163" class="text-code" font-size="11" text-anchor="middle">cow", "playing trombone"]</text>

  <!-- Green Boxes (3, 4, 5, 11, 13) -->
  <g transform="translate(490, 175)">
    <rect x="0" y="0" width="18" height="18" rx="3" fill="#E2F0D9" stroke="#70AD47" stroke-width="1" />
    <text x="9" y="13" class="text-main" font-size="10" font-weight="bold" fill="#375623" text-anchor="middle">3</text>

    <rect x="22" y="0" width="18" height="18" rx="3" fill="#E2F0D9" stroke="#70AD47" stroke-width="1" />
    <text x="31" y="13" class="text-main" font-size="10" font-weight="bold" fill="#375623" text-anchor="middle">4</text>

    <rect x="44" y="0" width="18" height="18" rx="3" fill="#E2F0D9" stroke="#70AD47" stroke-width="1" />
    <text x="53" y="13" class="text-main" font-size="10" font-weight="bold" fill="#375623" text-anchor="middle">5</text>

    <rect x="66" y="0" width="18" height="18" rx="3" fill="#E2F0D9" stroke="#70AD47" stroke-width="1" />
    <text x="75" y="13" class="text-main" font-size="10" font-weight="bold" fill="#375623" text-anchor="middle">11</text>

    <rect x="88" y="0" width="18" height="18" rx="3" fill="#E2F0D9" stroke="#70AD47" stroke-width="1" />
    <text x="97" y="13" class="text-main" font-size="10" font-weight="bold" fill="#375623" text-anchor="middle">13</text>
  </g>

  <!-- Right Column: Structured Query Refinement -->
  <text x="820" y="130" class="box-title" font-size="12" text-anchor="middle">Structured Query Refinement</text>
  <text x="820" y="148" class="text-code" font-size="10" text-anchor="middle">Q1: Is 'zumba' shown in the video?</text>
  <text x="820" y="161" class="text-code" font-size="10" text-anchor="middle">...</text>
  <text x="820" y="174" class="text-code" font-size="10" text-anchor="middle">Q4: Is 'trombone' shown in the video?</text>

  <!-- Connecting Arrow from Left Graph to Keywords -->
  <path d="M 355,375 L 392,375 L 392,190 L 480,190" fill="none" stroke="#E0E0E0" stroke-width="3" marker-end="url(#arrow)" />
  <text x="440" y="210" class="text-main" font-size="9" font-weight="bold" text-anchor="middle">
    <tspan x="440" dy="0">Graph-based</tspan>
    <tspan x="440" dy="11">Clip Retrieval</tspan>
  </text>

  <!-- Connecting Arrow from Structured Query to Table -->
  <path d="M 825,183 L 825,215 L 580,215" fill="none" stroke="#E0E0E0" stroke-width="3" marker-end="url(#arrow)" />

  <!-- ================= Table (Clip vs Q1-Q4) ================= -->
  <g transform="translate(452, 235)">
    <!-- Table Backgrounds -->
    <rect x="0" y="0" width="190" height="18" fill="#5B9BD5" />
    <rect x="0" y="18" width="190" height="18" fill="#F2F2F2" />
    <rect x="0" y="36" width="190" height="18" fill="#FFFFFF" />
    <rect x="0" y="54" width="190" height="18" fill="#F2F2F2" />
    <rect x="0" y="72" width="190" height="18" fill="#FFFFFF" />
    <rect x="0" y="90" width="190" height="18" fill="#F2F2F2" />

    <!-- Grid Lines -->
    <rect x="0" y="0" width="190" height="108" fill="none" stroke="#D9D9D9" stroke-width="1" />
    <line x1="45" y1="0" x2="45" y2="108" stroke="#D9D9D9" stroke-width="1" />
    <line x1="81" y1="0" x2="81" y2="108" stroke="#D9D9D9" stroke-width="1" />
    <line x1="117" y1="0" x2="117" y2="108" stroke="#D9D9D9" stroke-width="1" />
    <line x1="153" y1="0" x2="153" y2="108" stroke="#D9D9D9" stroke-width="1" />
    
    <line x1="0" y1="18" x2="190" y2="18" stroke="#D9D9D9" stroke-width="1" />
    <line x1="0" y1="36" x2="190" y2="36" stroke="#D9D9D9" stroke-width="1" />
    <line x1="0" y1="54" x2="190" y2="54" stroke="#D9D9D9" stroke-width="1" />
    <line x1="0" y1="72" x2="190" y2="72" stroke="#D9D9D9" stroke-width="1" />
    <line x1="0" y1="90" x2="190" y2="90" stroke="#D9D9D9" stroke-width="1" />

    <!-- Header Text -->
    <text x="22.5" y="13" class="text-main" font-size="10" font-weight="bold" fill="#FFFFFF" text-anchor="middle">Clip</text>
    <text x="63" y="13" class="text-main" font-size="10" font-weight="bold" fill="#FFFFFF" text-anchor="middle">Q1</text>
    <text x="99" y="13" class="text-main" font-size="10" font-weight="bold" fill="#FFFFFF" text-anchor="middle">Q2</text>
    <text x="135" y="13" class="text-main" font-size="10" font-weight="bold" fill="#FFFFFF" text-anchor="middle">Q3</text>
    <text x="171" y="13" class="text-main" font-size="10" font-weight="bold" fill="#FFFFFF" text-anchor="middle">Q4</text>

    <!-- Row 1 (Clip 3) -->
    <text x="22.5" y="31" class="text-main" font-size="10" text-anchor="middle">3</text>
    <use href="#cross" x="57" y="21" />
    <use href="#cross" x="93" y="21" />
    <use href="#tick" x="129" y="21" />
    <use href="#cross" x="165" y="21" />

    <!-- Row 2 (Clip 4) -->
    <text x="22.5" y="49" class="text-main" font-size="10" text-anchor="middle">4</text>
    <use href="#tick" x="57" y="39" />
    <use href="#cross" x="93" y="39" />
    <use href="#tick" x="129" y="39" />
    <use href="#cross" x="165" y="39" />

    <!-- Row 3 (Clip 5) -->
    <text x="22.5" y="67" class="text-main" font-size="10" text-anchor="middle">5</text>
    <use href="#cross" x="57" y="57" />
    <use href="#cross" x="93" y="57" />
    <use href="#cross" x="129" y="57" />
    <use href="#cross" x="165" y="57" />

    <!-- Row 4 (Clip 11) -->
    <text x="22.5" y="85" class="text-main" font-size="10" text-anchor="middle">11</text>
    <use href="#cross" x="57" y="75" />
    <use href="#tick" x="93" y="75" />
    <use href="#cross" x="129" y="75" />
    <use href="#cross" x="165" y="75" />

    <!-- Row 5 (Clip 13) -->
    <text x="22.5" y="103" class="text-main" font-size="10" text-anchor="middle">13</text>
    <use href="#cross" x="57" y="93" />
    <use href="#cross" x="93" y="93" />
    <use href="#cross" x="129" y="93" />
    <use href="#tick" x="165" y="93" />
  </g>

  <!-- Refined Clips Section -->
  <text x="547" y="362" class="text-main" font-size="10" font-weight="bold" text-anchor="middle">Refined Clips</text>
  <g transform="translate(505, 372)">
    <rect x="0" y="0" width="18" height="18" rx="3" fill="#E2F0D9" stroke="#70AD47" stroke-width="1" />
    <text x="9" y="13" class="text-main" font-size="10" font-weight="bold" fill="#375623" text-anchor="middle">3</text>

    <rect x="22" y="0" width="18" height="18" rx="3" fill="#E2F0D9" stroke="#70AD47" stroke-width="1" />
    <text x="31" y="13" class="text-main" font-size="10" font-weight="bold" fill="#375623" text-anchor="middle">4</text>

    <rect x="44" y="0" width="18" height="18" rx="3" fill="#E2F0D9" stroke="#70AD47" stroke-width="1" />
    <text x="53" y="13" class="text-main" font-size="10" font-weight="bold" fill="#375623" text-anchor="middle">11</text>

    <rect x="66" y="0" width="18" height="18" rx="3" fill="#E2F0D9" stroke="#70AD47" stroke-width="1" />
    <text x="75" y="13" class="text-main" font-size="10" font-weight="bold" fill="#375623" text-anchor="middle">13</text>
  </g>

  <!-- Peach Horizontal Arrow (Table to Info Agg) -->
  <path d="M 670,285 L 670,295 L 685,295 L 685,299 L 695,290 L 685,281 L 685,285 Z" fill="#F8CBAD" />

  <!-- Information Aggregation Box -->
  <text x="835" y="253" class="box-title" font-size="12" text-anchor="middle">Information Aggregation</text>
  <rect x="725" y="265" width="220" height="80" rx="5" fill="none" stroke="#C65911" stroke-width="1.5" stroke-dasharray="4,4" />
  <text x="735" y="282" class="text-main" font-size="11">
    <tspan x="735" dy="0">Milking cow is shown first,</tspan>
    <tspan x="735" dy="15">followed by zumba, then</tspan>
    <tspan x="735" dy="15">clean, and finally playing</tspan>
    <tspan x="735" dy="15">trombone.</tspan>
  </text>

  <!-- Down Arrow to LVLM -->
  <path d="M 820,355 L 830,355 L 830,383 L 836,383 L 825,394 L 814,383 L 820,383 Z" fill="#E0E0E0" />

  <!-- Bottom LVLM Box -->
  <rect x="430" y="410" width="540" height="35" rx="8" fill="#D9E1F2" stroke="#8FAADC" stroke-width="1.5" />
  <text x="700" y="432" class="title" font-size="16" text-anchor="middle" letter-spacing="2">LVLM</text>

  <!-- Answer Block with Custom Robot Icon -->
  <g transform="translate(435, 453)">
    <!-- Robot Icon -->
    <rect x="0" y="5" width="26" height="20" rx="4" fill="#D9E1F2" stroke="#418AB3" stroke-width="1.5" />
    <!-- Eyes -->
    <circle cx="8" cy="13" r="2.5" fill="#418AB3" />
    <circle cx="18" cy="13" r="2.5" fill="#418AB3" />
    <!-- Mouth -->
    <line x1="7" y1="19" x2="19" y2="19" stroke="#418AB3" stroke-width="1.5" stroke-linecap="round" />
    <!-- Antenna -->
    <line x1="13" y1="5" x2="13" y2="1" stroke="#418AB3" stroke-width="1.5" />
    <circle cx="13" cy="1" r="1.5" fill="#C00000" />
    <!-- Ears -->
    <rect x="-3" y="11" width="3" height="8" rx="1" fill="#418AB3" />
    <rect x="26" y="11" width="3" height="8" rx="1" fill="#418AB3" />

    <!-- Answer Text -->
    <text x="40" y="19" class="text-main" font-size="12" font-weight="bold">
      Answer: milking cow --&gt; zumba --&gt; clean and jerk --&gt; playing trombone
    </text>
  </g>

</svg>