<svg xmlns="http://www.w3.org/2000/svg" xmlns:xlink="http://www.w3.org/1999/xlink" width="1908" height="1071" viewBox="0 0 1908 1071">
<defs>
  <marker id="arrow" markerUnits="userSpaceOnUse" viewBox="0 0 10 8" refX="9" refY="4" markerWidth="10" markerHeight="8" orient="auto-start-reverse">
    <path d="M 0 0 L 10 4 L 0 8 z" fill="#333"/>
  </marker>
  <filter id="softShadow" x="-20%" y="-20%" width="140%" height="140%">
    <feDropShadow dx="0" dy="4" stdDeviation="6" flood-color="#7590a0" flood-opacity="0.25"/>
  </filter>
</defs>
<style>
  .label { font-family: Arial, Helvetica, sans-serif; fill: #111; }
  .blue { fill:#3e8ac6; }
  .pink { fill:#e85e83; }
  .caption { font-family: Georgia, 'Times New Roman', serif; font-size:32px; font-weight:700; }
  .small { font-size:18px; }
</style>

<rect x="0" y="0" width="1908" height="1071" fill="#ffffff" stroke="none" stroke-width="1" />
<rect x="7" y="20" width="954" height="619" rx="12" ry="12" fill="#fbfdff" stroke="#62b7e8" stroke-width="2" />
<rect x="7" y="659" width="954" height="354" rx="12" ry="12" fill="#fffafc" stroke="#fb7b99" stroke-width="2" />
<line x1="1009" y1="46" x2="1009" y2="640" stroke="#87c4ea" stroke-width="2" fill="none" stroke-dasharray="18 18" opacity="0.9"/>
<line x1="1009" y1="659" x2="1009" y2="1015" stroke="#87c4ea" stroke-width="2" fill="none" stroke-dasharray="18 18" opacity="0.9"/>
<rect x="222" y="31" width="742" height="40" rx="7" ry="7" fill="#d6eefa" stroke="none" stroke-width="1" opacity="0.9" />
<text x="593" y="60" font-family="Arial, Helvetica, sans-serif" font-size="29" font-weight="700" fill="#4a90c8" text-anchor="middle"  style="letter-spacing:4px">In-context Editing Framework based on T2I DiT</text>
<rect x="180" y="671" width="705" height="40" rx="7" ry="7" fill="#ffe0e9" stroke="none" stroke-width="1" opacity="0.95" />
<text x="533" y="700" font-family="Arial, Helvetica, sans-serif" font-size="29" font-weight="700" fill="#e14d5f" text-anchor="middle"  style="letter-spacing:3px">In-context Editing Framework based on Inpainting DiT</text>
<line x1="210" y1="149" x2="339" y2="149" stroke="#2c9aea" stroke-width="3" fill="none" marker-end="url(#arrow)"/>
<rect x="340" y="101" width="337" height="97" rx="16" ry="16" fill="#dff1fe" stroke="#71b9e8" stroke-width="2" />
<text x="508.5" y="157.83333333333334" font-family="Arial, Helvetica, sans-serif" font-size="25" font-weight="700" fill="#5d99ca" text-anchor="middle" dominant-baseline="middle" style="">T2I Diffusion Transformer</text>
<line x1="677" y1="149" x2="761" y2="149" stroke="#2c9aea" stroke-width="3" fill="none" marker-end="url(#arrow)"/>
<line x1="318" y1="162" x2="318" y2="257" stroke="#33a3ed" stroke-width="2" fill="none" marker-end="url(#arrow)"/>
<line x1="706" y1="198" x2="706" y2="317" stroke="#2c9aea" stroke-width="2" fill="none"/>
<line x1="210" y1="426" x2="338" y2="426" stroke="#2c9aea" stroke-width="3" fill="none" marker-end="url(#arrow)"/>
<rect x="340" y="381" width="340" height="96" rx="16" ry="16" fill="#dff1fe" stroke="#71b9e8" stroke-width="2" />
<text x="510.0" y="437.3333333333333" font-family="Arial, Helvetica, sans-serif" font-size="25" font-weight="700" fill="#5d99ca" text-anchor="middle" dominant-baseline="middle" style="">T2I Diffusion Transformer</text>
<line x1="680" y1="426" x2="764" y2="426" stroke="#2c9aea" stroke-width="3" fill="none" marker-end="url(#arrow)"/>
<line x1="318" y1="426" x2="318" y2="287" stroke="#33a3ed" stroke-width="2" fill="none" marker-end="url(#arrow)"/>
<line x1="706" y1="426" x2="706" y2="504" stroke="#2c9aea" stroke-width="2" fill="none"/>
<line x1="260" y1="426" x2="260" y2="260" stroke="#33a3ed" stroke-width="2" fill="none" marker-end="url(#arrow)"/>
<line x1="85" y1="149" x2="112" y2="149" stroke="#2c9aea" stroke-width="3" fill="none"/>
<line x1="72" y1="426" x2="112" y2="426" stroke="#2c9aea" stroke-width="3" fill="none"/>
<polyline points="114,149 307,149 307,257" fill="none" stroke="#2c9aea" stroke-width="2" marker-end="url(#arrow)"/>
<polyline points="224,426 307,426 307,287" fill="none" stroke="#2c9aea" stroke-width="2" marker-end="url(#arrow)"/>
<line x1="700" y1="260" x2="383" y2="260" stroke="#2c9aea" stroke-width="2" fill="none" marker-end="url(#arrow)"/>
<line x1="700" y1="326" x2="383" y2="326" stroke="#2c9aea" stroke-width="2" fill="none" marker-end="url(#arrow)"/>
<text x="479" y="236" font-family="Georgia, 'Times New Roman', serif" font-size="28" font-weight="700" fill="#5b99c6" text-anchor="middle"  style="font-style:italic">Inversion × N</text>
<text x="480" y="355" font-family="Georgia, 'Times New Roman', serif" font-size="28" font-weight="700" fill="#5b99c6" text-anchor="middle"  style="font-style:italic">Denoising × N</text>
<text x="369" y="285" font-family="Arial, Helvetica, sans-serif" font-size="26" font-weight="700" fill="#4f93c5" text-anchor="middle"  style="">Feature</text>
<text x="369" y="312" font-family="Arial, Helvetica, sans-serif" font-size="26" font-weight="700" fill="#4f93c5" text-anchor="middle"  style="">Injection</text>
<line x1="483" y1="263" x2="483" y2="317" stroke="#8fb8cf" stroke-width="14" fill="none" marker-end="url(#arrow)" opacity="0.7"/>
<text x="367" y="151" font-family="Arial, Helvetica, sans-serif" font-size="25" font-weight="600" fill="#111" text-anchor="start"  style="">Input Prompt</text>
<text x="444" y="219" font-family="Arial, Helvetica, sans-serif" font-size="22" font-weight="400" fill="#222" text-anchor="middle" style="">
<tspan x="444" dy="0">“A ball rolls down</tspan>
<tspan x="444" dy="24.200000000000003">a rocky ramp”</tspan>
</text>
<text x="129" y="304" font-family="Arial, Helvetica, sans-serif" font-size="28" font-weight="700" fill="#4b8fc8" text-anchor="middle"  style="">Source Image</text>
<text x="73" y="467" font-family="Arial, Helvetica, sans-serif" font-size="29" font-weight="700" fill="#4b8fc8" text-anchor="middle"  style="">Inverted</text>
<text x="73" y="494" font-family="Arial, Helvetica, sans-serif" font-size="29" font-weight="700" fill="#4b8fc8" text-anchor="middle"  style="">Noise</text>
<text x="144" y="414" font-family="Arial, Helvetica, sans-serif" font-size="34" font-weight="700" fill="#70b1db" text-anchor="middle"  style="">+</text>
<text x="144" y="423" font-family="Arial, Helvetica, sans-serif" font-size="18" font-weight="700" fill="#2775b1" text-anchor="middle"  style="">concat</text>
<text x="220" y="467" font-family="Arial, Helvetica, sans-serif" font-size="29" font-weight="700" fill="#f3a03e" text-anchor="middle"  style="">Random</text>
<text x="220" y="494" font-family="Arial, Helvetica, sans-serif" font-size="29" font-weight="700" fill="#f3a03e" text-anchor="middle"  style="">Noise</text>
<text x="852" y="581" font-family="Arial, Helvetica, sans-serif" font-size="29" font-weight="700" fill="#eaa046" text-anchor="middle"  style="">Generated</text>
<text x="852" y="608" font-family="Arial, Helvetica, sans-serif" font-size="29" font-weight="700" fill="#eaa046" text-anchor="middle"  style="">Target Image</text>
<rect x="26" y="526" width="662" height="94" rx="0" ry="0" fill="none" stroke="#97c7ef" stroke-width="1.5" stroke-dasharray="13 12" />
<text x="345" y="555" font-family="Arial, Helvetica, sans-serif" font-size="22" font-weight="700" fill="#4391ce" text-anchor="middle" style="">
<tspan x="345" dy="0">“ A diptych with two side-by-side images of the same scene.</tspan>
</text>
<text x="311" y="601" font-family="Arial, Helvetica, sans-serif" font-size="22" font-weight="700" fill="#4391ce" text-anchor="middle"  style="">On the right, the scene is the same as on the left but</text>
<text x="373" y="626" font-family="Arial, Helvetica, sans-serif" font-size="22" font-weight="700" fill="#ee8f2d" text-anchor="middle"  style="">{make the man grab a basketball}.”</text>
<text x="84" y="978" font-family="Arial, Helvetica, sans-serif" font-size="29" font-weight="700" fill="#e35d7d" text-anchor="middle"  style="">Source Image</text>
<text x="320" y="944" font-family="Arial, Helvetica, sans-serif" font-size="27" font-weight="700" fill="#e35d7d" text-anchor="middle"  style="">Image with Mask</text>
<text x="483" y="866" font-family="Arial, Helvetica, sans-serif" font-size="27" font-weight="700" fill="#e35d7d" text-anchor="middle"  style="">Noise</text>
<rect x="520" y="778" width="197" height="48" rx="12" ry="12" fill="#fff2f6" stroke="#f58aa3" stroke-width="2" />
<text x="618.5" y="809.6666666666666" font-family="Arial, Helvetica, sans-serif" font-size="23" font-weight="700" fill="#e95c7c" text-anchor="middle" dominant-baseline="middle" style="">Inpainting DiT</text>
<text x="725" y="849" font-family="Arial, Helvetica, sans-serif" font-size="27" font-weight="700" fill="#e35d7d" text-anchor="middle"  style="">crop</text>
<text x="865" y="969" font-family="Arial, Helvetica, sans-serif" font-size="31" font-weight="700" fill="#e35d7d" text-anchor="middle"  style="">Target</text>
<text x="865" y="997" font-family="Arial, Helvetica, sans-serif" font-size="31" font-weight="700" fill="#e35d7d" text-anchor="middle"  style="">Image</text>
<text x="213" y="828" font-family="Arial, Helvetica, sans-serif" font-size="25" font-weight="700" fill="#f06e8f" text-anchor="middle"  style="">mask</text>
<text x="211" y="860" font-family="Arial, Helvetica, sans-serif" font-size="23" font-weight="700" fill="#f06e8f" text-anchor="middle"  style="">concat</text>
<line x1="171" y1="812" x2="248" y2="812" stroke="#f7adc0" stroke-width="8" fill="none" marker-end="url(#arrow)" opacity="0.9"/>
<line x1="476" y1="820" x2="515" y2="820" stroke="#f7adc0" stroke-width="8" fill="none" marker-end="url(#arrow)" opacity="0.9"/>
<line x1="721" y1="817" x2="792" y2="817" stroke="#f7adc0" stroke-width="8" fill="none" marker-end="url(#arrow)" opacity="0.9"/>
<line x1="615" y1="880" x2="615" y2="808" stroke="#f7adc0" stroke-width="14" fill="none" marker-end="url(#arrow)" opacity="0.9"/>
<rect x="466" y="936" width="344" height="66" rx="0" ry="0" fill="none" stroke="#ff95ad" stroke-width="1.5" stroke-dasharray="12 10" />
<text x="646" y="963" font-family="Arial, Helvetica, sans-serif" font-size="25" font-weight="700" fill="#f06e8f" text-anchor="middle"  style="">“ A diptych with … but</text>
<text x="645" y="991" font-family="Arial, Helvetica, sans-serif" font-size="25" font-weight="700" fill="#f06e8f" text-anchor="middle"  style="">{make her hold a red can}”</text>
<text x="432" y="1055" font-family="Georgia, 'Times New Roman', serif" font-size="37" font-weight="700" fill="#111" text-anchor="middle"  style="">(a) Training-free Structure of ICEdit</text>
<text x="1360" y="1060" font-family="Georgia, 'Times New Roman', serif" font-size="37" font-weight="700" fill="#111" text-anchor="middle"  style="">(b) Finetuning Strategy for ICEdit</text>
<text x="1368" y="107" font-family="Arial, Helvetica, sans-serif" font-size="26" font-weight="600" fill="#111" text-anchor="center"  style="">Edit by</text>
<text x="1370" y="136" font-family="Arial, Helvetica, sans-serif" font-size="26" font-weight="600" fill="#111" text-anchor="center"  style="">In-context</text>
<text x="1370" y="166" font-family="Arial, Helvetica, sans-serif" font-size="26" font-weight="600" fill="#111" text-anchor="center"  style="">Generation</text>
<rect x="1204" y="236" width="140" height="41" rx="7" ry="7" fill="#d4f1fb" stroke="none" stroke-width="2" />
<text x="1274.0" y="263.8333333333333" font-family="Arial, Helvetica, sans-serif" font-size="22" font-weight="700" fill="#0d2635" text-anchor="middle" dominant-baseline="middle" style="">Decoder</text>
<line x1="1273" y1="238" x2="1273" y2="203" stroke="#111" stroke-width="2" fill="none" marker-end="url(#arrow)"/>
<line x1="1273" y1="279" x2="1273" y2="236" stroke="#111" stroke-width="2" fill="none" marker-end="url(#arrow)"/>
<rect x="1094" y="281" width="420" height="430" rx="16" ry="16" fill="#ead9ec" stroke="none" stroke-width="1" opacity="0.35" />
<rect x="1084" y="291" width="420" height="430" rx="16" ry="16" fill="#ead9ec" stroke="none" stroke-width="1" opacity="0.45" />
<rect x="1074" y="301" width="420" height="430" rx="16" ry="16" fill="#ead9ec" stroke="none" stroke-width="1" opacity="0.6" />
<rect x="1060" y="315" width="420" height="430" rx="16" ry="16" fill="#ead9ec" stroke="none" stroke-width="1" opacity="1" />
<rect x="1080" y="374" width="291" height="43" rx="0" ry="0" fill="none" stroke="#111" stroke-width="2" />
<line x1="1080" y1="374" x2="1112" y2="374" stroke="#111" stroke-width="2" fill="none"/>
<line x1="1112" y1="374" x2="1112" y2="492" stroke="#111" stroke-width="2" fill="none"/>
<line x1="1112" y1="492" x2="1112" y2="615" stroke="#111" stroke-width="2" fill="none"/>
<line x1="1371" y1="374" x2="1371" y2="492" stroke="#111" stroke-width="2" fill="none"/>
<line x1="1143" y1="373" x2="1259" y2="373" stroke="#111" stroke-width="2" fill="none" marker-end="url(#arrow)"/>
<line x1="1112" y1="493" x2="1272" y2="493" stroke="#111" stroke-width="2" fill="none" marker-end="url(#arrow)"/>
<line x1="1272" y1="375" x2="1272" y2="457" stroke="#111" stroke-width="2" fill="none" marker-end="url(#arrow)"/>
<line x1="1272" y1="457" x2="1272" y2="544" stroke="#111" stroke-width="2" fill="none" marker-end="url(#arrow)"/>
<line x1="1272" y1="619" x2="1272" y2="544" stroke="#111" stroke-width="2" fill="none" marker-end="url(#arrow)"/>
<line x1="1272" y1="544" x2="1272" y2="615" stroke="#111" stroke-width="2" fill="none"/>
<line x1="1144" y1="615" x2="1414" y2="615" stroke="#111" stroke-width="2" fill="none"/>
<line x1="1144" y1="615" x2="1144" y2="674" stroke="#111" stroke-width="2" fill="none"/>
<line x1="1414" y1="615" x2="1414" y2="674" stroke="#111" stroke-width="2" fill="none"/>
<line x1="1272" y1="615" x2="1272" y2="579" stroke="#111" stroke-width="2" fill="none"/>
<line x1="1080" y1="374" x2="1080" y2="590" stroke="#111" stroke-width="2" fill="none"/>
<line x1="1080" y1="590" x2="1108" y2="590" stroke="#111" stroke-width="2" fill="none"/>
<line x1="1108" y1="590" x2="1108" y2="715" stroke="#111" stroke-width="2" fill="none"/>
<rect x="1170" y="433" width="198" height="43" rx="8" ry="8" fill="none" stroke="#ee3d45" stroke-width="5" />
<text x="1269" y="463" font-family="Arial, Helvetica, sans-serif" font-size="24" font-weight="600" fill="#111" text-anchor="middle"  style="">Out Projection</text>
<rect x="1127" y="507" width="72" height="42" rx="6" ry="6" fill="#eee6ef" stroke="#ff2b98" stroke-width="2" stroke-dasharray="10 8" />
<text x="1163" y="536" font-family="Arial, Helvetica, sans-serif" font-size="24" font-weight="600" fill="#111" text-anchor="middle"  style="">MLP</text>
<rect x="1280" y="507" width="164" height="42" rx="6" ry="6" fill="#eee6ef" stroke="#ff2b98" stroke-width="2" stroke-dasharray="10 8" />
<text x="1362" y="536" font-family="Arial, Helvetica, sans-serif" font-size="24" font-weight="600" fill="#111" text-anchor="middle"  style="">MM Attention</text>
<rect x="1170" y="578" width="199" height="42" rx="6" ry="6" fill="#eee6ef" stroke="#ff2b98" stroke-width="2" stroke-dasharray="10 8" />
<text x="1270" y="607" font-family="Arial, Helvetica, sans-serif" font-size="24" font-weight="600" fill="#111" text-anchor="middle"  style="">Norm &amp; Mod</text>
<rect x="1100" y="657" width="344" height="39" rx="8" ry="8" fill="none" stroke="#111" stroke-width="2" />
<text x="1247" y="684" font-family="Arial, Helvetica, sans-serif" font-size="24" font-weight="700" fill="#111" text-anchor="middle"  style="">+</text>
<text x="1248" y="705" font-family="Arial, Helvetica, sans-serif" font-size="18" font-weight="400" fill="#111" text-anchor="middle"  style="">concat</text>
<rect x="1075" y="753" width="150" height="52" rx="7" ry="7" fill="#d4f1fb" stroke="none" stroke-width="2" />
<text x="1150.0" y="786.3333333333334" font-family="Arial, Helvetica, sans-serif" font-size="22" font-weight="700" fill="#0d2635" text-anchor="middle" dominant-baseline="middle" style="">Text Encoder</text>
<rect x="1267" y="753" width="245" height="52" rx="7" ry="7" fill="#d4f1fb" stroke="none" stroke-width="2" />
<text x="1389.5" y="786.3333333333334" font-family="Arial, Helvetica, sans-serif" font-size="22" font-weight="700" fill="#0d2635" text-anchor="middle" dominant-baseline="middle" style="">Image Encoder</text>
<line x1="1148" y1="835" x2="1148" y2="807" stroke="#111" stroke-width="2" fill="none" marker-end="url(#arrow)"/>
<line x1="1300" y1="835" x2="1300" y2="807" stroke="#111" stroke-width="2" fill="none" marker-end="url(#arrow)"/>
<line x1="1395" y1="835" x2="1395" y2="807" stroke="#111" stroke-width="2" fill="none" marker-end="url(#arrow)"/>
<line x1="1497" y1="835" x2="1497" y2="807" stroke="#111" stroke-width="2" fill="none" marker-end="url(#arrow)"/>
<line x1="1146" y1="753" x2="1146" y2="720" stroke="#111" stroke-width="2" fill="none" marker-end="url(#arrow)"/>
<line x1="1300" y1="753" x2="1300" y2="696" stroke="#111" stroke-width="2" fill="none"/>
<line x1="1497" y1="753" x2="1497" y2="696" stroke="#111" stroke-width="2" fill="none"/>
<line x1="1108" y1="715" x2="1108" y2="753" stroke="#111" stroke-width="2" fill="none"/>
<line x1="1414" y1="715" x2="1414" y2="753" stroke="#111" stroke-width="2" fill="none"/>
<rect x="1056" y="871" width="185" height="139" rx="16" ry="16" fill="#fff" stroke="#444" stroke-width="2" />
<text x="1149" y="911" font-family="Arial, Helvetica, sans-serif" font-size="22" font-weight="700" fill="#333" text-anchor="middle" style="">
<tspan x="1149" dy="0">A diptych with …</tspan>
<tspan x="1149" dy="24.200000000000003">but {what if</tspan>
<tspan x="1149" dy="24.200000000000003">looks like water</tspan>
<tspan x="1149" dy="24.200000000000003">color painting?}</tspan>
</text>
<text x="1307" y="832" font-family="Arial, Helvetica, sans-serif" font-size="24" font-weight="400" fill="#111" text-anchor="middle"  style="">Image</text>
<text x="1428" y="835" font-family="Arial, Helvetica, sans-serif" font-size="24" font-weight="400" fill="#111" text-anchor="middle"  style="">Mask</text>
<text x="1510" y="836" font-family="Arial, Helvetica, sans-serif" font-size="24" font-weight="400" fill="#111" text-anchor="middle"  style="">Noise</text>
<line x1="1406" y1="458" x2="1511" y2="458" stroke="#cc79c4" stroke-width="20" fill="none" marker-end="url(#arrow)" opacity="0.55"/>
<rect x="1507" y="17" width="394" height="660" rx="18" ry="18" fill="#eaf4fe" stroke="none" stroke-width="1" opacity="0.85" />
<text x="1790" y="81" font-family="Arial, Helvetica, sans-serif" font-size="28" font-weight="600" fill="#111" text-anchor="middle"  style="">LoRA-MoE Module</text>
<rect x="1517" y="219" width="167" height="44" rx="6" ry="6" fill="#e7ccdc" stroke="none" stroke-width="1" />
<text x="1600" y="249" font-family="Arial, Helvetica, sans-serif" font-size="24" font-weight="600" fill="#111" text-anchor="middle"  style="">Base Layer</text>
<polyline points="1530,530 1530,300 1548,245" fill="none" stroke="#222" stroke-width="2" marker-end="url(#arrow)" stroke-dasharray="14 14"/>
<polyline points="1545,530 1545,566 1714,566" fill="none" stroke="#222" stroke-width="2" marker-end="url(#arrow)" stroke-dasharray="14 14"/>
<polyline points="1770,530 1770,405 1722,158 1706,153" fill="none" stroke="#222" stroke-width="2" marker-end="url(#arrow)" stroke-dasharray="14 14"/>
<polyline points="1720,153 1720,245" fill="none" stroke="#222" stroke-width="2" marker-end="url(#arrow)" stroke-dasharray="14 14"/>
<text x="1705" y="147" font-family="Arial, Helvetica, sans-serif" font-size="35" font-weight="400" fill="#111" text-anchor="middle"  style="">⊕</text>
<text x="1789" y="353" font-family="Arial, Helvetica, sans-serif" font-size="25" font-weight="700" fill="#111" text-anchor="middle"  style="">...</text>
<text x="1595" y="424" font-family="Arial, Helvetica, sans-serif" font-size="18" font-weight="600" fill="#111" text-anchor="middle"  style="">Expert 1</text>
<text x="1680" y="424" font-family="Arial, Helvetica, sans-serif" font-size="18" font-weight="600" fill="#111" text-anchor="middle"  style="">Expert 2</text>
<text x="1768" y="424" font-family="Arial, Helvetica, sans-serif" font-size="18" font-weight="600" fill="#111" text-anchor="middle"  style="">Expert 3</text>
<text x="1862" y="424" font-family="Arial, Helvetica, sans-serif" font-size="18" font-weight="600" fill="#111" text-anchor="middle"  style="">Expert N</text>
<text x="1639" y="492" font-family="Arial, Helvetica, sans-serif" font-size="22" font-weight="600" fill="#111" text-anchor="middle"  style="">TopK=1</text>
<rect x="1656" y="534" width="127" height="41" rx="7" ry="7" fill="#d7f1fc" stroke="none" stroke-width="2" />
<text x="1719.5" y="561.5" font-family="Arial, Helvetica, sans-serif" font-size="21" font-weight="700" fill="#111" text-anchor="middle" dominant-baseline="middle" style="">Route</text>
<rect x="1551" y="699" width="357" height="289" rx="12" ry="12" fill="none" stroke="#80c9ef" stroke-width="2" />
<text x="1650" y="733" font-family="Arial, Helvetica, sans-serif" font-size="23" font-weight="700" fill="#222" text-anchor="start"  style="">: Trainabe Parameter</text>
<text x="1650" y="797" font-family="Arial, Helvetica, sans-serif" font-size="23" font-weight="700" fill="#222" text-anchor="start"  style="">: Frozen Parameter</text>
<text x="1650" y="863" font-family="Arial, Helvetica, sans-serif" font-size="23" font-weight="700" fill="#222" text-anchor="start"  style="">: Standard LoRA Tuning</text>
<text x="1650" y="930" font-family="Arial, Helvetica, sans-serif" font-size="23" font-weight="700" fill="#222" text-anchor="start"  style="">: LoRA-MoE Tuning</text>
<text x="1650" y="986" font-family="Arial, Helvetica, sans-serif" font-size="23" font-weight="700" fill="#222" text-anchor="start"  style="">: LoRA Adapter</text>
<image id="raster_source_image_t2i" data-source-slot="slot_source_image_t2i" href="assets/raster_required/source_image_t2i.png" xlink:href="assets/raster_required/source_image_t2i.png" x="85" y="73" width="137" height="201" preserveAspectRatio="none"/>
<image id="raster_generated_target_t2i" data-source-slot="slot_generated_target_t2i" href="assets/raster_required/generated_target_t2i.png" xlink:href="assets/raster_required/generated_target_t2i.png" x="773" y="323" width="168" height="243" preserveAspectRatio="none"/>
<image id="raster_crop_preview_t2i" data-source-slot="slot_crop_preview_t2i" href="assets/raster_required/crop_preview_t2i.png" xlink:href="assets/raster_required/crop_preview_t2i.png" x="686" y="440" width="111" height="57" preserveAspectRatio="none"/>
<image id="raster_source_image_inpaint" data-source-slot="slot_source_image_inpaint" href="assets/raster_required/source_image_inpaint.png" xlink:href="assets/raster_required/source_image_inpaint.png" x="17" y="707" width="155" height="227" preserveAspectRatio="none"/>
<image id="raster_image_with_mask_inpaint" data-source-slot="slot_image_with_mask_inpaint" href="assets/raster_required/image_with_mask_inpaint.png" xlink:href="assets/raster_required/image_with_mask_inpaint.png" x="249" y="757" width="228" height="146" preserveAspectRatio="none"/>
<image id="raster_crop_preview_inpaint" data-source-slot="slot_crop_preview_inpaint" href="assets/raster_required/crop_preview_inpaint.png" xlink:href="assets/raster_required/crop_preview_inpaint.png" x="724" y="747" width="78" height="56" preserveAspectRatio="none"/>
<image id="raster_target_image_inpaint" data-source-slot="slot_target_image_inpaint" href="assets/raster_required/target_image_inpaint.png" xlink:href="assets/raster_required/target_image_inpaint.png" x="797" y="711" width="150" height="228" preserveAspectRatio="none"/>
<image id="raster_context_image_original" data-source-slot="slot_context_image_original" href="assets/raster_required/context_image_original.png" xlink:href="assets/raster_required/context_image_original.png" x="1092" y="17" width="119" height="186" preserveAspectRatio="none"/>
<image id="raster_context_image_painted" data-source-slot="slot_context_image_painted" href="assets/raster_required/context_image_painted.png" xlink:href="assets/raster_required/context_image_painted.png" x="1215" y="17" width="121" height="186" preserveAspectRatio="none"/>
<image id="raster_encoder_inputs" data-source-slot="slot_encoder_inputs" href="assets/raster_required/encoder_inputs.png" xlink:href="assets/raster_required/encoder_inputs.png" x="1258" y="868" width="278" height="147" preserveAspectRatio="none"/>
<g id="svg_inverted_noise_grid" data-source-slot="slot_inverted_noise_grid" transform="translate(31,347)">
<rect x="4.0" y="-1.0" width="21.3" height="21.3" rx="3" fill="#e0f3ff" stroke="#7ebde6" stroke-width="2"/>
<rect x="30.3" y="-1.0" width="21.3" height="21.3" rx="3" fill="#e0f3ff" stroke="#7ebde6" stroke-width="2"/>
<rect x="56.7" y="-1.0" width="21.3" height="21.3" rx="3" fill="#e0f3ff" stroke="#7ebde6" stroke-width="2"/>
<rect x="4.0" y="25.3" width="21.3" height="21.3" rx="3" fill="#e0f3ff" stroke="#7ebde6" stroke-width="2"/>
<rect x="30.3" y="25.3" width="21.3" height="21.3" rx="3" fill="#e0f3ff" stroke="#7ebde6" stroke-width="2"/>
<rect x="56.7" y="25.3" width="21.3" height="21.3" rx="3" fill="#e0f3ff" stroke="#7ebde6" stroke-width="2"/>
<rect x="4.0" y="51.7" width="21.3" height="21.3" rx="3" fill="#e0f3ff" stroke="#7ebde6" stroke-width="2"/>
<rect x="30.3" y="51.7" width="21.3" height="21.3" rx="3" fill="#e0f3ff" stroke="#7ebde6" stroke-width="2"/>
<rect x="56.7" y="51.7" width="21.3" height="21.3" rx="3" fill="#e0f3ff" stroke="#7ebde6" stroke-width="2"/>
</g>
<g id="svg_random_noise_grid" data-source-slot="slot_random_noise_grid" transform="translate(176,347)">
<rect x="4.0" y="-1.0" width="21.3" height="21.3" rx="3" fill="#fff1d4" stroke="#f0ad56" stroke-width="2"/>
<rect x="30.3" y="-1.0" width="21.3" height="21.3" rx="3" fill="#fff1d4" stroke="#f0ad56" stroke-width="2"/>
<rect x="56.7" y="-1.0" width="21.3" height="21.3" rx="3" fill="#fff1d4" stroke="#f0ad56" stroke-width="2"/>
<rect x="4.0" y="25.3" width="21.3" height="21.3" rx="3" fill="#fff1d4" stroke="#f0ad56" stroke-width="2"/>
<rect x="30.3" y="25.3" width="21.3" height="21.3" rx="3" fill="#fff1d4" stroke="#f0ad56" stroke-width="2"/>
<rect x="56.7" y="25.3" width="21.3" height="21.3" rx="3" fill="#fff1d4" stroke="#f0ad56" stroke-width="2"/>
<rect x="4.0" y="51.7" width="21.3" height="21.3" rx="3" fill="#fff1d4" stroke="#f0ad56" stroke-width="2"/>
<rect x="30.3" y="51.7" width="21.3" height="21.3" rx="3" fill="#fff1d4" stroke="#f0ad56" stroke-width="2"/>
<rect x="56.7" y="51.7" width="21.3" height="21.3" rx="3" fill="#fff1d4" stroke="#f0ad56" stroke-width="2"/>
</g>
<g id="svg_feature_injection_tokens" data-source-slot="slot_feature_injection_tokens" transform="translate(512,225)">
<rect x="0" y="4" width="18" height="18" rx="3" fill="#dff3ff" stroke="#8dc4e8" stroke-width="2"/>
<rect x="23" y="4" width="18" height="18" rx="3" fill="#dff3ff" stroke="#8dc4e8" stroke-width="2"/>
<rect x="46" y="4" width="18" height="18" rx="3" fill="#dff3ff" stroke="#8dc4e8" stroke-width="2"/>
<rect x="0" y="27" width="18" height="18" rx="3" fill="#dff3ff" stroke="#8dc4e8" stroke-width="2"/>
<rect x="23" y="27" width="18" height="18" rx="3" fill="#dff3ff" stroke="#8dc4e8" stroke-width="2"/>
<rect x="46" y="27" width="18" height="18" rx="3" fill="#dff3ff" stroke="#8dc4e8" stroke-width="2"/>
<rect x="0" y="50" width="18" height="18" rx="3" fill="#dff3ff" stroke="#8dc4e8" stroke-width="2"/>
<rect x="23" y="50" width="18" height="18" rx="3" fill="#dff3ff" stroke="#8dc4e8" stroke-width="2"/>
<rect x="46" y="50" width="18" height="18" rx="3" fill="#dff3ff" stroke="#8dc4e8" stroke-width="2"/>
<path d="M64,36 L94,36" stroke="#54a6df" stroke-width="2.5" marker-end="url(#arrow)"/>
<rect x="102" y="4" width="18" height="18" rx="3" fill="#ffdce5" stroke="#f591ad" stroke-width="2"/>
<rect x="125" y="4" width="18" height="18" rx="3" fill="#ffdce5" stroke="#f591ad" stroke-width="2"/>
<rect x="148" y="4" width="18" height="18" rx="3" fill="#ffdce5" stroke="#f591ad" stroke-width="2"/>
<rect x="102" y="27" width="18" height="18" rx="3" fill="#ffdce5" stroke="#f591ad" stroke-width="2"/>
<rect x="125" y="27" width="18" height="18" rx="3" fill="#ffdce5" stroke="#f591ad" stroke-width="2"/>
<rect x="148" y="27" width="18" height="18" rx="3" fill="#ffdce5" stroke="#f591ad" stroke-width="2"/>
<rect x="102" y="50" width="18" height="18" rx="3" fill="#ffdce5" stroke="#f591ad" stroke-width="2"/>
<rect x="125" y="50" width="18" height="18" rx="3" fill="#ffdce5" stroke="#f591ad" stroke-width="2"/>
<rect x="148" y="50" width="18" height="18" rx="3" fill="#ffdce5" stroke="#f591ad" stroke-width="2"/>
<rect x="142" y="4" width="17" height="17" rx="3" fill="#fff0ce" stroke="#f2af5a" stroke-width="2"/>
<rect x="164" y="4" width="17" height="17" rx="3" fill="#fff0ce" stroke="#f2af5a" stroke-width="2"/>
<rect x="186" y="4" width="17" height="17" rx="3" fill="#fff0ce" stroke="#f2af5a" stroke-width="2"/>
<rect x="142" y="26" width="17" height="17" rx="3" fill="#fff0ce" stroke="#f2af5a" stroke-width="2"/>
<rect x="164" y="26" width="17" height="17" rx="3" fill="#fff0ce" stroke="#f2af5a" stroke-width="2"/>
<rect x="186" y="26" width="17" height="17" rx="3" fill="#fff0ce" stroke="#f2af5a" stroke-width="2"/>
<rect x="142" y="48" width="17" height="17" rx="3" fill="#fff0ce" stroke="#f2af5a" stroke-width="2"/>
<rect x="164" y="48" width="17" height="17" rx="3" fill="#fff0ce" stroke="#f2af5a" stroke-width="2"/>
<rect x="186" y="48" width="17" height="17" rx="3" fill="#fff0ce" stroke="#f2af5a" stroke-width="2"/>
</g>
<g id="svg_decoder_tokens" data-source-slot="slot_decoder_tokens" transform="translate(1191,313)">
<rect x="0" y="2" width="22" height="22" rx="2" fill="#92c8e8" stroke="#3c85b8" stroke-width="2"/>
<rect x="26" y="2" width="22" height="22" rx="2" fill="#92c8e8" stroke="#3c85b8" stroke-width="2"/>
<rect x="52" y="2" width="22" height="22" rx="2" fill="#92c8e8" stroke="#3c85b8" stroke-width="2"/>
<rect x="78" y="2" width="22" height="22" rx="2" fill="#b789cb" stroke="#3c85b8" stroke-width="2"/>
<rect x="104" y="2" width="22" height="22" rx="2" fill="#b789cb" stroke="#3c85b8" stroke-width="2"/>
<rect x="130" y="2" width="22" height="22" rx="2" fill="#df91c9" stroke="#3c85b8" stroke-width="2"/>
<rect x="156" y="2" width="22" height="22" rx="2" fill="#d08ccb" stroke="#3c85b8" stroke-width="2"/>
<rect x="182" y="2" width="22" height="22" rx="2" fill="#d08ccb" stroke="#3c85b8" stroke-width="2"/>
</g>
<g id="svg_lora_tokens_top" data-source-slot="slot_lora_tokens_top" transform="translate(1618,118)">
<rect x="0" y="2" width="21" height="21" rx="2" fill="#91c9e8" stroke="#3c85b8" stroke-width="2"/>
<rect x="26" y="2" width="21" height="21" rx="2" fill="#91c9e8" stroke="#3c85b8" stroke-width="2"/>
<rect x="52" y="2" width="21" height="21" rx="2" fill="#91c9e8" stroke="#3c85b8" stroke-width="2"/>
<rect x="78" y="2" width="21" height="21" rx="2" fill="#b58ac6" stroke="#3c85b8" stroke-width="2"/>
<rect x="104" y="2" width="21" height="21" rx="2" fill="#ce8ac6" stroke="#3c85b8" stroke-width="2"/>
<rect x="130" y="2" width="21" height="21" rx="2" fill="#cf95c9" stroke="#3c85b8" stroke-width="2"/>
<rect x="156" y="2" width="21" height="21" rx="2" fill="#c98abd" stroke="#3c85b8" stroke-width="2"/>
<rect x="182" y="2" width="21" height="21" rx="2" fill="#c483bf" stroke="#3c85b8" stroke-width="2"/>
</g>
<g id="svg_lora_tokens_bottom" data-source-slot="slot_lora_tokens_bottom" transform="translate(1630,629)">
<rect x="0" y="2" width="22" height="22" rx="2" fill="#91c9e8" stroke="#3c85b8" stroke-width="2"/>
<rect x="26" y="2" width="22" height="22" rx="2" fill="#91c9e8" stroke="#3c85b8" stroke-width="2"/>
<rect x="52" y="2" width="22" height="22" rx="2" fill="#91c9e8" stroke="#3c85b8" stroke-width="2"/>
<rect x="78" y="2" width="22" height="22" rx="2" fill="#b58ac6" stroke="#3c85b8" stroke-width="2"/>
<rect x="104" y="2" width="22" height="22" rx="2" fill="#cf8bc9" stroke="#3c85b8" stroke-width="2"/>
<rect x="130" y="2" width="22" height="22" rx="2" fill="#cd8cc4" stroke="#3c85b8" stroke-width="2"/>
<rect x="156" y="2" width="22" height="22" rx="2" fill="#c484bd" stroke="#3c85b8" stroke-width="2"/>
</g>
<g id="svg_lora_expert_adapters" data-source-slot="slot_lora_expert_adapters" transform="translate(1552,266)">
<g transform="translate(3,0)">
  <polygon points="0,0 70,0 50.4,38.72 19.6,38.72" fill="#cbe8f7" stroke="#7eb5db" stroke-width="3" stroke-linejoin="round"/>
  <polygon points="19.6,49.28 50.4,49.28 70,88 0,88" fill="#cbe8f7" stroke="#7eb5db" stroke-width="3" stroke-linejoin="round"/>
</g>
<g transform="translate(89,0)">
  <polygon points="0,0 70,0 50.4,38.72 19.6,38.72" fill="#cbe8f7" stroke="#7eb5db" stroke-width="3" stroke-linejoin="round"/>
  <polygon points="19.6,49.28 50.4,49.28 70,88 0,88" fill="#cbe8f7" stroke="#7eb5db" stroke-width="3" stroke-linejoin="round"/>
</g>
<g transform="translate(175,0)">
  <polygon points="0,0 70,0 50.4,38.72 19.6,38.72" fill="#cbe8f7" stroke="#7eb5db" stroke-width="3" stroke-linejoin="round"/>
  <polygon points="19.6,49.28 50.4,49.28 70,88 0,88" fill="#cbe8f7" stroke="#7eb5db" stroke-width="3" stroke-linejoin="round"/>
</g>
<g transform="translate(285,0)">
  <polygon points="0,0 70,0 50.4,38.72 19.6,38.72" fill="#cbe8f7" stroke="#7eb5db" stroke-width="3" stroke-linejoin="round"/>
  <polygon points="19.6,49.28 50.4,49.28 70,88 0,88" fill="#cbe8f7" stroke="#7eb5db" stroke-width="3" stroke-linejoin="round"/>
</g>
<g transform="translate(55,84) scale(0.55)">
  <path d="M0,-24 C12,-12 8,-5 19,4 C23,18 12,31 0,31 C-15,31 -24,17 -18,1 C-13,-10 -5,-12 0,-24 Z" fill="#ff6b4a"/>
  <path d="M0,-8 C8,0 8,7 5,13 C3,18 -4,20 -8,14 C-12,8 -8,1 0,-8 Z" fill="#ffb354" opacity="0.85"/>
</g>
<g transform="translate(140,84) scale(0.55)">
  <path d="M0,-24 C12,-12 8,-5 19,4 C23,18 12,31 0,31 C-15,31 -24,17 -18,1 C-13,-10 -5,-12 0,-24 Z" fill="#ff6b4a"/>
  <path d="M0,-8 C8,0 8,7 5,13 C3,18 -4,20 -8,14 C-12,8 -8,1 0,-8 Z" fill="#ffb354" opacity="0.85"/>
</g>
<g transform="translate(228,84) scale(0.55)">
  <path d="M0,-24 C12,-12 8,-5 19,4 C23,18 12,31 0,31 C-15,31 -24,17 -18,1 C-13,-10 -5,-12 0,-24 Z" fill="#ff6b4a"/>
  <path d="M0,-8 C8,0 8,7 5,13 C3,18 -4,20 -8,14 C-12,8 -8,1 0,-8 Z" fill="#ffb354" opacity="0.85"/>
</g>
<g transform="translate(331,84) scale(0.55)">
  <path d="M0,-24 C12,-12 8,-5 19,4 C23,18 12,31 0,31 C-15,31 -24,17 -18,1 C-13,-10 -5,-12 0,-24 Z" fill="#ff6b4a"/>
  <path d="M0,-8 C8,0 8,7 5,13 C3,18 -4,20 -8,14 C-12,8 -8,1 0,-8 Z" fill="#ffb354" opacity="0.85"/>
</g>
</g>
<g id="svg_route_topk_fire" data-source-slot="slot_route_topk_fire" transform="translate(1672,466)">
<rect x="6" y="12" width="20" height="30" fill="#d7b5da" stroke="#70577f" stroke-width="1.5"/>
<rect x="34" y="2" width="20" height="40" fill="#d7b5da" stroke="#70577f" stroke-width="1.5"/>
<rect x="62" y="16" width="20" height="26" fill="#d7b5da" stroke="#70577f" stroke-width="1.5"/>
<text x="31" y="12" font-family="Arial" font-size="18" fill="#e85050" font-weight="700">×</text>
<text x="71" y="32" font-family="Arial" font-size="18" fill="#e85050" font-weight="700">×</text>
<g transform="translate(86,38) scale(0.42)">
  <path d="M0,-24 C12,-12 8,-5 19,4 C23,18 12,31 0,31 C-15,31 -24,17 -18,1 C-13,-10 -5,-12 0,-24 Z" fill="#ff6b4a"/>
  <path d="M0,-8 C8,0 8,7 5,13 C3,18 -4,20 -8,14 C-12,8 -8,1 0,-8 Z" fill="#ffb354" opacity="0.85"/>
</g>
</g>
<g id="svg_legend_icons" data-source-slot="slot_legend_icons" transform="translate(1568,704)">
<g transform="translate(27,22) scale(0.55)">
  <path d="M0,-24 C12,-12 8,-5 19,4 C23,18 12,31 0,31 C-15,31 -24,17 -18,1 C-13,-10 -5,-12 0,-24 Z" fill="#ff6b4a"/>
  <path d="M0,-8 C8,0 8,7 5,13 C3,18 -4,20 -8,14 C-12,8 -8,1 0,-8 Z" fill="#ffb354" opacity="0.85"/>
</g>
<g transform="translate(12,74) scale(0.9)">
  <polygon points="12,0 28,6 28,24 12,18" fill="#4aa3d6" stroke="#2c79a2" stroke-width="1.5"/>
  <polygon points="12,0 0,7 0,24 12,18" fill="#89c9ea" stroke="#2c79a2" stroke-width="1.5"/>
  <polygon points="0,7 12,13 28,6 12,0" fill="#b8e3f6" stroke="#2c79a2" stroke-width="1.5"/>
  <line x1="12" y1="13" x2="12" y2="18" stroke="#2c79a2" stroke-width="1.2"/>
</g>
<rect x="0" y="133" width="70" height="34" rx="5" fill="#efe6ee" stroke="#ff2b98" stroke-width="2.5" stroke-dasharray="10 7"/>
<rect x="0" y="199" width="70" height="32" rx="5" fill="#cfcbd0" stroke="#ff3030" stroke-width="3"/>
<g transform="translate(10,239)">
  <polygon points="0,0 52,0 37.44,25.52 14.560000000000002,25.52" fill="#cbe8f7" stroke="#7eb5db" stroke-width="3" stroke-linejoin="round"/>
  <polygon points="14.560000000000002,32.480000000000004 37.44,32.480000000000004 52,58 0,58" fill="#cbe8f7" stroke="#7eb5db" stroke-width="3" stroke-linejoin="round"/>
</g>
</g>
</svg>