<svg xmlns="http://www.w3.org/2000/svg" viewBox="4.0 14.0 2389.0 832.0" style="background-color: white;">
  <defs>
    <!-- Arrowhead Marker -->
    <marker id="arrow" markerWidth="10" markerHeight="10" refX="9" refY="5" orient="auto">
      <path d="M0,0 L10,5 L0,10" fill="black" />
    </marker>
    <!-- Dashed Arrowhead Marker -->
    <marker id="arrow-dashed" markerWidth="10" markerHeight="10" refX="9" refY="5" orient="auto">
      <path d="M0,0 L10,5 L0,10" fill="#C55A11" />
    </marker>
    
    <!-- Icons -->
    <g id="icon-fire">
      <path d="M15,35 Q5,25 5,15 Q5,5 15,0 Q25,5 25,15 Q25,25 15,35 Z" fill="#FF5722" />
      <path d="M15,30 Q10,25 10,18 Q10,12 15,8 Q20,12 20,18 Q20,25 15,30 Z" fill="#FFC107" />
    </g>
    <g id="icon-snowflake">
      <path d="M15,0 L15,30 M0,15 L30,15 M4,4 L26,26 M4,26 L26,4" stroke="#5B9BD5" stroke-width="3" />
      <path d="M15,5 L12,8 M15,5 L18,8 M15,25 L12,22 M15,25 L18,22" stroke="#5B9BD5" stroke-width="2" fill="none"/>
    </g>
    
    <!-- Token Styles -->
    <rect id="token-gray" width="80" height="60" fill="#D9D9D9" stroke="black" stroke-width="2" />
    <rect id="token-blue" width="80" height="60" fill="#DAE8FC" stroke="#6C8EBF" stroke-width="4" />
    <rect id="token-pink" width="80" height="60" fill="#FADDF2" stroke="#A64D79" stroke-width="4" />
    <rect id="token-orange" width="80" height="60" fill="#FBE5D6" stroke="#C55A11" stroke-width="4" />
    
    <!-- Common Styles -->
    <style>
      .header { font-family: 'Times New Roman', serif; font-weight: bold; font-style: italic; font-size: 64px; text-anchor: middle; }
      .label-serif { font-family: 'Times New Roman', serif; font-size: 32px; text-anchor: middle; }
      .label-sans { font-family: Arial, sans-serif; font-size: 36px; text-anchor: middle; }
      .label-bold { font-family: Arial, sans-serif; font-weight: bold; font-size: 32px; }
      .label-math { font-family: 'Times New Roman', serif; font-weight: bold; font-style: italic; }
      .box-stroke { stroke: black; stroke-width: 3; fill: none; }
      .dashed-box { stroke: black; stroke-width: 4; stroke-dasharray: 20,15; fill: none; rx: 10; }
      .arrow-line { stroke: black; stroke-width: 3; fill: none; marker-end: url(#arrow); }
      .arrow-dashed { stroke: #C55A11; stroke-width: 4; stroke-dasharray: 20,10; fill: none; marker-end: url(#arrow-dashed); }
      .card-stack { fill: white; stroke: black; stroke-width: 3; }
    </style>
  </defs>

  <!-- ==================== COLUMN A: ICL ==================== -->
  <g transform="translate(0,0)">
    <!-- Header -->
    <text x="250" y="60" class="header">ICL</text>
    
    <!-- LLM Box -->
    <rect x="30" y="80" width="440" height="60" fill="#E6E6E6" stroke="black" stroke-width="3" />
    <text x="250" y="115" class="label-sans" style="font-size: 40px;">LLM</text>
    
    <!-- Arrow Up -->
    <line x1="250" y1="200" x2="250" y2="140" class="arrow-line" />
    
    <!-- Token Stack N -->
    <g transform="translate(100, 210)">
      <text x="-40" y="40" class="label-bold" style="font-size: 48px;">N</text>
      <!-- Brace -->
      <path d="M10,0 Q0,0 0,10 L0,30 Q0,40 -10,40 Q0,40 0,50 L0,70 Q0,80 10,80" fill="none" stroke="black" stroke-width="3" />
      
      <!-- Cards -->
      <rect x="20" y="-10" width="300" height="70" fill="#D9D9D9" stroke="black" stroke-width="3" />
      <rect x="30" y="0" width="300" height="70" fill="#D9D9D9" stroke="black" stroke-width="3" />
      <rect x="40" y="10" width="300" height="70" fill="#D9D9D9" stroke="black" stroke-width="3" />
      <!-- Dividers -->
      <line x1="113" y1="10" x2="113" y2="80" stroke="black" stroke-width="2" />
      <line x1="186" y1="10" x2="186" y2="80" stroke="black" stroke-width="2" />
      <line x1="260" y1="10" x2="260" y2="80" stroke="black" stroke-width="2" />
    </g>

    <!-- Arrow Up -->
    <line x1="250" y1="340" x2="250" y2="280" class="arrow-line" />

    <!-- Embedding Layer -->
    <rect x="80" y="345" width="340" height="90" fill="#F2F2F2" stroke="black" stroke-width="3" />
    <text x="250" y="390" class="label-sans">Embedding Layer</text>

    <!-- Arrow Up -->
    <line x1="250" y1="470" x2="250" y2="410" class="arrow-line" />

    <!-- Input Stack -->
    <g transform="translate(80, 480)">
      <rect x="0" y="0" width="300" height="70" class="card-stack" />
      <rect x="15" y="15" width="300" height="70" class="card-stack" />
      <rect x="30" y="30" width="300" height="70" class="card-stack" />
      <text x="180" y="70" class="label-sans">Input <tspan class="label-math">x<tspan dy="5" font-size="24">i</tspan><tspan dy="-5">, Label </tspan>y<tspan dy="5" font-size="24">i</tspan></tspan></text>
    </g>

    <!-- Arrow Up -->
    <line x1="250" y1="600" x2="250" y2="540" class="arrow-line" />

    <!-- Bottom Input Stack -->
    <g transform="translate(10, 600)">
      <rect x="0" y="0" width="600" height="90" class="card-stack" />
      <rect x="10" y="10" width="600" height="90" class="card-stack" />
      <rect x="20" y="20" width="600" height="90" class="card-stack" />
      <text x="320" y="50" class="label-serif" style="font-weight:bold; font-style:italic;">Input X (SMILES sequence): CC(C)(C)CCO</text>
      <text x="320" y="85" class="label-serif" style="font-weight:bold; font-style:italic;">Label Y (Predicted Property): 1.15</text>
    </g>

    <!-- Label (a) -->
    <text x="250" y="760" class="header" style="font-size: 60px;">(a)</text>
  </g>

  <!-- Divider A|B -->
  <line x1="530" y1="40" x2="530" y2="760" stroke="black" stroke-width="5" stroke-dasharray="30,20" />

  <!-- ==================== COLUMN B: MLLM ==================== -->
  <g transform="translate(530,0)">
    <!-- Header -->
    <text x="350" y="60" class="header">MLLM</text>
    
    <!-- LLM Box with Fire -->
    <rect x="50" y="80" width="600" height="60" fill="#E6E6E6" stroke="black" stroke-width="3" />
    <text x="350" y="115" class="label-sans" style="font-size: 40px;">LLM</text>
    <use href="#icon-fire" x="60" y="80" />

    <!-- Arrow Up -->
    <line x1="350" y1="160" x2="350" y2="140" class="arrow-line" />

    <!-- Dashed Container -->
    <rect x="80" y="160" width="540" height="100" class="dashed-box" />
    
    <!-- Token Sequence -->
    <g transform="translate(100, 170)">
      <!-- 4 Gray -->
      <use href="#token-gray" x="0" />
      <use href="#token-gray" x="80" />
      <use href="#token-gray" x="160" />
      <use href="#token-gray" x="240" />
      <!-- 5 Blue -->
      <use href="#token-blue" x="280" />
      <use href="#token-blue" x="360" />
      <use href="#token-blue" x="440" />
      <use href="#token-blue" x="520" />
      <use href="#token-blue" x="600" />
    </g>

    <!-- Skip Connections -->
    <!-- Left Path -->
    <path d="M100,260 L80,260 L80,200 L120,200" fill="none" stroke="black" stroke-width="3" marker-end="url(#arrow)" />
    <!-- Right Path -->
    <path d="M660,260 L680,260 L680,200 L640,200" fill="none" stroke="black" stroke-width="3" marker-end="url(#arrow)" />

    <!-- Token Rows -->
    <g transform="translate(50, 240)">
      <!-- Gray Row -->
      <use href="#token-gray" x="0" />
      <use href="#token-gray" x="80" />
      <use href="#token-gray" x="160" />
      <use href="#token-gray" x="240" />
      <!-- Blue Row -->
      <use href="#token-blue" x="300" />
      <use href="#token-blue" x="380" />
      <use href="#token-blue" x="460" />
      <use href="#token-blue" x="540" />
    </g>

    <!-- Arrow Up -->
    <line x1="250" y1="350" x2="250" y2="310" class="arrow-line" />

    <!-- Embedding Layer -->
    <rect x="20" y="355" width="340" height="90" fill="#F2F2F2" stroke="black" stroke-width="3" />
    <text x="190" y="400" class="label-sans">Embedding Layer</text>

    <!-- Arrow Up -->
    <line x1="250" y1="480" x2="250" y2="420" class="arrow-line" />

    <!-- Text Input Box -->
    <rect x="40" y="490" width="340" height="150" fill="white" stroke="black" stroke-width="3" />
    <text x="210" y="540" class="label-sans">Text Input: <tspan class="label-math">x<tspan dy="5" font-size="24">i</tspan></tspan></text>
    <text x="210" y="570" class="label-sans">Modality Input: <tspan class="label-math">m<tspan dy="5" font-size="24">i</tspan></tspan></text>
    <text x="210" y="600" class="label-sans">Label <tspan class="label-math">y<tspan dy="5" font-size="24">i</tspan></tspan></text>

    <!-- Complex Path to Encoder -->
    <path d="M40,565 L20,565 L20,660 L280,660" fill="none" stroke="black" stroke-width="3" marker-end="url(#arrow)" />

    <!-- Dashed Container (Encoder) -->
    <rect x="300" y="330" width="380" height="360" class="dashed-box" />

    <!-- Projector -->
    <rect x="360" y="340" width="240" height="60" fill="#9CC2E5" stroke="#2F5597" stroke-width="3" />
    <text x="480" y="375" class="label-sans">Projector</text>
    <use href="#icon-fire" x="360" y="340" />
    
    <!-- Arrow Up -->
    <line x1="480" y1="410" x2="480" y2="380" class="arrow-line" />

    <!-- Blue Squares -->
    <rect x="380" y="420" width="60" height="60" fill="#9CC2E5" stroke="#2F5597" stroke-width="3" rx="5" />
    <rect x="460" y="420" width="60" height="60" fill="#9CC2E5" stroke="#2F5597" stroke-width="3" rx="5" />
    <rect x="540" y="420" width="60" height="60" fill="#9CC2E5" stroke="#2F5597" stroke-width="3" rx="5" />
    <!-- Dashed Box around squares -->
    <path d="M360,420 L360,400 Q360,410 370,410 L400,410 M620,420 L620,400 Q620,410 610,410 L580,410 M360,480 L360,490 Q360,480 370,480 L400,480 M620,480 L620,490 Q620,480 610,480 L580,480" stroke="black" stroke-width="4" fill="none" />

    <!-- Arrow Up -->
    <line x1="480" y1="490" x2="480" y2="460" class="arrow-line" />

    <!-- Encoder Trapezoid -->
    <polygon points="320,510 640,510 600,610 360,610" fill="#9CC2E5" stroke="#2F5597" stroke-width="3" />
    <text x="480" y="550" class="label-sans" style="font-size: 40px;">Pre-trained</text>
    <text x="480" y="585" class="label-sans" style="font-size: 40px;">Modality Encoder</text>
    <use href="#icon-fire" x="320" y="510" />

    <!-- Icons Bottom -->
    <!-- Image -->
    <g transform="translate(320, 650)">
      <rect x="10" y="0" width="60" height="50" rx="5" fill="none" stroke="black" stroke-width="4" />
      <path d="M10,40 L25,20 L40,40 L50,30 L70,50 L10,50" fill="black" />
      <circle cx="25" cy="15" r="5" fill="black" />
      <!-- Clapperboard -->
      <g transform="translate(0, 30) rotate(-10)">
        <rect x="0" y="10" width="70" height="40" rx="5" fill="black" />
        <rect x="0" y="0" width="70" height="15" fill="white" stroke="black" stroke-width="2" />
        <path d="M10,0 L5,15 M25,0 L20,15 M40,0 L35,15 M55,0 L50,15" stroke="black" stroke-width="3" />
        <path d="M20,30 L30,40 L40,25" fill="white" stroke="black" stroke-width="2" />
      </g>
    </g>
    <!-- Arrow from Image -->
    <line x1="355" y1="640" x2="355" y2="610" class="arrow-line" />

    <!-- Audio -->
    <g transform="translate(480, 650)">
      <path d="M10,0 L60,0 L60,50 Q35,60 10,50 Z" fill="none" stroke="black" stroke-width="4" />
      <path d="M10,0 Q35,10 60,0" fill="none" stroke="black" stroke-width="4" />
      <path d="M20,20 L40,30 L20,40" fill="none" stroke="black" stroke-width="3" />
    </g>
    <!-- Arrow from Audio -->
    <line x1="480" y1="640" x2="480" y2="610" class="arrow-line" />

    <!-- Graph -->
    <g transform="translate(560, 640)">
      <circle cx="40" cy="20" r="10" fill="none" stroke="black" stroke-width="3" />
      <circle cx="20" cy="40" r="10" fill="none" stroke="black" stroke-width="3" />
      <circle cx="60" cy="40" r="10" fill="none" stroke="black" stroke-width="3" />
      <circle cx="40" cy="60" r="10" fill="none" stroke="black" stroke-width="3" />
      <line x1="40" y1="30" x2="20" y2="40" stroke="black" stroke-width="2" />
      <line x1="40" y1="30" x2="60" y2="40" stroke="black" stroke-width="2" />
      <line x1="30" y1="40" x2="50" y2="40" stroke="black" stroke-width="2" />
      <line x1="40" y1="50" x2="40" y2="60" stroke="black" stroke-width="2" />
      <!-- Nodes around -->
      <circle cx="10" cy="10" r="4" fill="none" stroke="black" stroke-width="2" />
      <circle cx="70" cy="10" r="4" fill="none" stroke="black" stroke-width="2" />
      <circle cx="10" cy="70" r="4" fill="none" stroke="black" stroke-width="2" />
      <circle cx="70" cy="70" r="4" fill="none" stroke="black" stroke-width="2" />
      <line x1="14" y1="10" x2="26" y2="20" stroke="black" stroke-width="2" />
      <line x1="66" y1="10" x2="54" y2="20" stroke="black" stroke-width="2" />
    </g>
    <!-- Arrow from Graph -->
    <line x1="580" y1="630" x2="580" y2="610" class="arrow-line" />

    <!-- Label (b) -->
    <text x="350" y="760" class="header" style="font-size: 60px;">(b)</text>
  </g>

  <!-- Divider B|C -->
  <line x1="1200" y1="40" x2="1200" y2="760" stroke="black" stroke-width="5" stroke-dasharray="30,20" />

  <!-- ==================== COLUMN C: ICRL ==================== -->
  <g transform="translate(1200,0)">
    <!-- Header -->
    <text x="600" y="60" class="header">ICRL</text>
    
    <!-- LLM Box -->
    <rect x="50" y="80" width="1100" height="60" fill="#E6E6E6" stroke="black" stroke-width="3" />
    <text x="600" y="115" class="label-sans" style="font-size: 40px;">LLM</text>

    <!-- Headers for columns -->
    <text x="350" y="160" class="label-bold" style="font-style:italic; font-size: 36px; text-anchor: middle;">Text Level</text>
    <text x="750" y="160" class="label-bold" style="font-style:italic; font-size: 36px; text-anchor: middle;">Embedding Level</text>

    <!-- LEFT COLUMN (Text Level) -->
    <g transform="translate(50, 0)">
      <!-- Arrow Up -->
      <line x1="200" y1="200" x2="200" y2="150" class="arrow-line" />
      
      <!-- Gray Stack -->
      <g transform="translate(80, 210)">
        <rect x="0" y="0" width="300" height="70" fill="#D9D9D9" stroke="black" stroke-width="3" />
        <rect x="15" y="15" width="300" height="70" fill="#D9D9D9" stroke="black" stroke-width="3" />
        <rect x="30" y="30" width="300" height="70" fill="#D9D9D9" stroke="black" stroke-width="3" />
        <line x1="113" y1="30" x2="113" y2="100" stroke="black" stroke-width="2" />
        <line x1="186" y1="30" x2="186" y2="100" stroke="black" stroke-width="2" />
        <line x1="260" y1="30" x2="260" y2="100" stroke="black" stroke-width="2" />
      </g>

      <!-- Arrow Up -->
      <line x1="200" y1="310" x2="200" y2="270" class="arrow-line" />

      <!-- Embedding Layer -->
      <rect x="20" y="310" width="450" height="50" fill="#F2F2F2" stroke="black" stroke-width="3" />
      <text x="245" y="340" class="label-sans">Embedding Layer</text>

      <!-- Arrow Up -->
      <line x1="245" y1="400" x2="245" y2="360" class="arrow-line" />

      <!-- Dashed Box -->
      <rect x="20" y="410" width="250" height="100" class="dashed-box" />
      <rect x="40" y="430" width="60" height="60" fill="#FADDF2" stroke="#A64D79" stroke-width="3" />
      <rect x="120" y="430" width="60" height="60" fill="#FADDF2" stroke="#A64D79" stroke-width="3" />
      <rect x="200" y="430" width="60" height="60" fill="#FADDF2" stroke="#A64D79" stroke-width="3" />

      <!-- Stringify Arrow -->
      <line x1="270" y1="445" x2="420" y2="445" class="arrow-line" stroke-width="5" />
      <text x="345" y="440" class="label-bold" style="font-size: 28px; text-anchor: middle;">Stringify</text>

      <!-- Arrow Up -->
      <line x1="145" y1="500" x2="145" y2="480" class="arrow-line" />

      <!-- Pre-trained FM -->
      <rect x="20" y="510" width="250" height="110" fill="#EAD1EA" stroke="#A64D79" stroke-width="3" />
      <text x="145" y="545" class="label-sans" style="font-size: 36px;">Pre-trained</text>
      <text x="145" y="585" class="label-sans" style="font-size: 40px;">FM</text>

      <!-- Arrow Up -->
      <line x1="145" y1="640" x2="145" y2="580" class="arrow-line" />
    </g>

    <!-- RIGHT COLUMN (Embedding Level) -->
    <g transform="translate(450, 0)">
      <!-- Arrow Up -->
      <line x1="250" y1="200" x2="250" y2="150" class="arrow-line" />

      <!-- Gray Stack with Injection -->
      <g transform="translate(150, 210)">
        <rect x="0" y="0" width="300" height="70" fill="#D9D9D9" stroke="black" stroke-width="3" />
        <rect x="15" y="15" width="300" height="70" fill="#D9D9D9" stroke="black" stroke-width="3" />
        <rect x="30" y="30" width="300" height="70" fill="#D9D9D9" stroke="black" stroke-width="3" />
        <line x1="113" y1="30" x2="113" y2="100" stroke="black" stroke-width="2" />
        <line x1="186" y1="30" x2="186" y2="100" stroke="black" stroke-width="2" />
        <line x1="260" y1="30" x2="260" y2="100" stroke="black" stroke-width="2" />
        
        <!-- Orange Injection -->
        <rect x="100" y="10" width="100" height="70" fill="#FBE5D6" stroke="#C55A11" stroke-width="3" />
        <rect x="100" y="10" width="100" height="10" fill="#FBE5D6" stroke="none" /> <!-- Cap -->
        <line x1="100" y1="10" x2="200" y2="10" stroke="#C55A11" stroke-width="3" />
      </g>

      <!-- M_inj Path -->
      <path d="M300,245 L350,245 Q380,245 380,280 L380,300 Q380,320 400,320 L420,320" fill="none" stroke="#C55A11" stroke-width="4" stroke-dasharray="20,10" />
      <text x="350" y="275" class="label-bold" style="font-size: 32px;">M<tspan dy="5" font-size="24">inj</tspan></text>

      <!-- Arrow Up -->
      <line x1="250" y1="310" x2="250" y2="270" class="arrow-line" />

      <!-- Projector -->
      <rect x="100" y="320" width="250" height="60" fill="#FBE5D6" stroke="#C55A11" stroke-width="3" />
      <text x="225" y="355" class="label-sans">Projector</text>
      <use href="#icon-snowflake" x="100" y="320" />

      <!-- Arrow Up -->
      <line x1="225" y1="400" x2="225" y2="360" class="arrow-line" />

      <!-- Pink Squares -->
      <rect x="145" y="415" width="60" height="60" fill="#FADDF2" stroke="#A64D79" stroke-width="3" />
      <rect x="225" y="415" width="60" height="60" fill="#FADDF2" stroke="#A64D79" stroke-width="3" />
      <rect x="305" y="415" width="60" height="60" fill="#FADDF2" stroke="#A64D79" stroke-width="3" />
      <!-- Dashed Box -->
      <path d="M125,415 L125,400 Q125,390 135,390 L145,390 M385,415 L385,400 Q385,390 375,390 L365,390 M125,475 L125,490 Q125,480 135,480 L145,480 M385,475 L385,490 Q385,480 375,480 L365,480" stroke="black" stroke-width="4" fill="none" />

      <!-- Arrow Up -->
      <line x1="225" y1="500" x2="225" y2="470" class="arrow-line" />

      <!-- Pre-trained FM -->
      <rect x="125" y="510" width="250" height="110" fill="#EAD1EA" stroke="#A64D79" stroke-width="3" />
      <text x="250" y="545" class="label-sans" style="font-size: 36px;">Pre-trained</text>
      <text x="250" y="585" class="label-sans" style="font-size: 40px;">FM</text>

      <!-- Arrow Up -->
      <line x1="250" y1="640" x2="250" y2="580" class="arrow-line" />
    </g>

    <!-- MIDDLE STACK (Result) -->
    <g transform="translate(350, 380)">
      <rect x="0" y="0" width="180" height="150" class="card-stack" />
      <rect x="15" y="15" width="180" height="150" class="card-stack" />
      <rect x="30" y="30" width="180" height="150" class="card-stack" />
      <text x="120" y="80" class="label-sans" style="font-size: 32px;">Rep <tspan class="label-math">r<tspan dy="5" font-size="24">i</tspan></tspan></text>
      <text x="120" y="115" class="label-sans" style="font-size: 32px;">Label <tspan class="label-math">y<tspan dy="5" font-size="24">i</tspan></tspan></text>
    </g>

    <!-- Arrow from Middle Stack to Left FM -->
    <line x1="410" y1="640" x2="410" y2="480" class="arrow-line" />

    <!-- BOTTOM INPUTS -->
    <g transform="translate(200, 630)">
      <rect x="0" y="0" width="700" height="90" class="card-stack" />
      <rect x="10" y="10" width="700" height="90" class="card-stack" />
      <rect x="20" y="20" width="700" height="90" class="card-stack" />
      <text x="370" y="50" class="label-serif" style="font-weight:bold; font-style:italic;">Input X (SMILES sequence): Oc1ccccc1O</text>
      <text x="370" y="85" class="label-serif" style="font-weight:bold; font-style:italic;">Label Y (Predicted Property): -6.36</text>
    </g>

    <!-- Arrows from Bottom Inputs -->
    <!-- To Left FM -->
    <path d="M220,660 L180,660 L180,600 L145,600 L145,580" fill="none" stroke="black" stroke-width="3" marker-end="url(#arrow)" />
    <!-- To Right FM -->
    <path d="M820,660 L900,660 L900,580" fill="none" stroke="black" stroke-width="3" marker-end="url(#arrow)" />
    <!-- To Right Stack -->
    <path d="M820,660 L880,660 L880,600" fill="none" stroke="black" stroke-width="3" marker-end="url(#arrow)" />

    <!-- Label (c) -->
    <text x="600" y="760" class="header" style="font-size: 60px;">(c)</text>
  </g>

  <!-- ==================== LEGEND ==================== -->
  <g transform="translate(0, 780)">
    <!-- Item 1 -->
    <use href="#icon-fire" x="10" y="10" />
    <text x="60" y="40" class="label-bold" style="font-size: 36px;">: Train-optional</text>

    <!-- Item 2 -->
    <use href="#icon-fire" x="250" y="0" transform="scale(1.2) translate(-10,0)" />
    <text x="320" y="40" class="label-bold" style="font-size: 36px;">: Train-required</text>

    <!-- Item 3 -->
    <use href="#icon-snowflake" x="550" y="10" />
    <text x="600" y="40" class="label-bold" style="font-size: 36px;">: Train-free</text>

    <!-- Item 4 -->
    <rect x="750" y="10" width="60" height="50" fill="#D9D9D9" stroke="black" stroke-width="3" />
    <text x="820" y="40" class="label-bold" style="font-size: 36px;">: Text token</text>

    <!-- Item 5 -->
    <rect x="1000" y="10" width="60" height="50" fill="#DAE8FC" stroke="#6C8EBF" stroke-width="4" />
    <rect x="1070" y="10" width="60" height="50" fill="#FADDF2" stroke="#A64D79" stroke-width="4" />
    <text x="1140" y="40" class="label-bold" style="font-size: 36px;">: Modality token</text>

    <!-- Item 6 -->
    <rect x="1350" y="10" width="60" height="50" fill="#DAE8FC" stroke="#6C8EBF" stroke-width="4" />
    <rect x="1420" y="10" width="60" height="50" fill="#FBE5D6" stroke="#C55A11" stroke-width="4" />
    <text x="1490" y="40" class="label-bold" style="font-size: 36px;">: Aligned token</text>

    <!-- Item 7 -->
    <text x="1750" y="40" class="label-bold" style="font-size: 36px;">N<tspan dy="5" font-size="24">i</tspan><tspan dy="-5"> : Example nums</tspan></text>

    <!-- Item 8 -->
    <text x="2000" y="40" class="label-bold" style="font-size: 36px;">M<tspan dy="5" font-size="24">inj</tspan><tspan dy="-5"> : Injection strategy</tspan></text>
  </g>

</svg>