<svg xmlns="http://www.w3.org/2000/svg" viewBox="11.0 23.0 1589.0 722.0" style="background-color: white;">
  <defs>
    <!-- Arrowhead Marker -->
    <marker id="arrow" markerWidth="10" markerHeight="10" refX="9" refY="3" orient="auto" markerUnits="strokeWidth">
      <path d="M0,0 L0,6 L9,3 z" fill="black" />
    </marker>
    <!-- Double Arrowhead Marker (Up/Down) -->
    <marker id="arrow-double" markerWidth="10" markerHeight="10" refX="9" refY="3" orient="auto" markerUnits="strokeWidth">
      <path d="M0,0 L0,6 L9,3 z" fill="black" />
    </marker>
    <marker id="arrow-double-start" markerWidth="10" markerHeight="10" refX="0" refY="3" orient="auto" markerUnits="strokeWidth">
      <path d="M9,0 L9,6 L0,3 z" fill="black" />
    </marker>
  </defs>

  <!-- ================= LEGEND ================= -->
  <g transform="translate(20, 120)">
    <rect x="0" y="0" width="180" height="220" fill="none" stroke="#999" stroke-width="3" stroke-dasharray="10,5" />
    <!-- Item 1 -->
    <rect x="10" y="20" width="40" height="40" fill="#6D9EEB" stroke="black" stroke-width="1"/>
    <text x="60" y="45" font-family="Arial, sans-serif" font-size="32" fill="black">hard label</text>
    <!-- Item 2 -->
    <rect x="10" y="80" width="40" height="40" fill="#999999" stroke="black" stroke-width="1"/>
    <text x="60" y="105" font-family="Arial, sans-serif" font-size="32" fill="black">mask label</text>
    <!-- Item 3 -->
    <rect x="10" y="140" width="40" height="40" fill="#FFD966" stroke="black" stroke-width="1"/>
    <text x="60" y="165" font-family="Arial, sans-serif" font-size="32" fill="black">target</text>
    <!-- Item 4 -->
    <rect x="10" y="200" width="40" height="40" fill="#A9D18E" stroke="black" stroke-width="1"/>
    <text x="60" y="225" font-family="Arial, sans-serif" font-size="32" fill="black">non-target</text>
  </g>

  <!-- ================= INPUTS ================= -->
  <!-- Cat Image Placeholder -->
  <g transform="translate(15, 370)">
    <rect x="0" y="0" width="160" height="160" fill="#333" /> <!-- Simulate photo -->
    <rect x="0" y="0" width="160" height="160" fill="#8B4513" opacity="0.3"/> <!-- Grass -->
    <circle cx="80" cy="80" r="40" fill="#E0E0E0" /> <!-- Cat body -->
    <circle cx="60" cy="60" r="15" fill="#555" /> <!-- Head -->
    <text x="80" y="200" font-family="Arial, sans-serif" font-size="36" text-anchor="middle" fill="black">cat</text>
  </g>

  <!-- Arrows from Cat to Teacher/Student -->
  <line x1="160" y1="370" x2="210" y2="350" stroke="black" stroke-width="2" marker-end="url(#arrow)" />
  <line x1="160" y1="530" x2="210" y2="570" stroke="black" stroke-width="2" marker-end="url(#arrow)" />

  <!-- Teacher Block -->
  <rect x="220" y="270" width="240" height="160" rx="20" fill="white" stroke="black" stroke-width="2" />
  <!-- 3D Blocks -->
  <g transform="translate(240, 290)">
    <!-- Block 1 -->
    <path d="M0,0 L40,-20 L40,80 L0,100 Z" fill="#4A86C5" stroke="black" stroke-width="1"/>
    <path d="M0,0 L40,0 L40,-20 L0,-20 Z" fill="#2F6090" stroke="black" stroke-width="1"/>
    <path d="M0,0 L0,100 L40,80 L40,100 Z" fill="#5B9BD5" stroke="black" stroke-width="1"/>
    <!-- Block 2 -->
    <path d="M45,0 L85,-20 L85,80 L45,100 Z" fill="#4A86C5" stroke="black" stroke-width="1"/>
    <path d="M45,0 L85,0 L85,-20 L45,-20 Z" fill="#2F6090" stroke="black" stroke-width="1"/>
    <path d="M45,0 L45,100 L85,80 L85,100 Z" fill="#5B9BD5" stroke="black" stroke-width="1"/>
    <!-- Block 3 -->
    <path d="M90,0 L130,-20 L130,80 L90,100 Z" fill="#4A86C5" stroke="black" stroke-width="1"/>
    <path d="M90,0 L130,0 L130,-20 L90,-20 Z" fill="#2F6090" stroke="black" stroke-width="1"/>
    <path d="M90,0 L90,100 L130,80 L130,100 Z" fill="#5B9BD5" stroke="black" stroke-width="1"/>
    <!-- Block 4 -->
    <path d="M135,0 L175,-20 L175,80 L135,100 Z" fill="#4A86C5" stroke="black" stroke-width="1"/>
    <path d="M135,0 L175,0 L175,-20 L135,-20 Z" fill="#2F6090" stroke="black" stroke-width="1"/>
    <path d="M135,0 L135,100 L175,80 L175,100 Z" fill="#5B9BD5" stroke="black" stroke-width="1"/>
    <!-- Block 5 -->
    <path d="M180,0 L220,-20 L220,80 L180,100 Z" fill="#4A86C5" stroke="black" stroke-width="1"/>
    <path d="M180,0 L220,0 L220,-20 L180,-20 Z" fill="#2F6090" stroke="black" stroke-width="1"/>
    <path d="M180,0 L180,100 L220,80 L220,100 Z" fill="#5B9BD5" stroke="black" stroke-width="1"/>
    <text x="140" y="130" font-family="Arial, sans-serif" font-size="36" text-anchor="middle" fill="black">Teacher</text>
  </g>

  <!-- Student Block -->
  <rect x="220" y="500" width="240" height="160" rx="20" fill="white" stroke="black" stroke-width="2" />
  <!-- 3D Blocks -->
  <g transform="translate(240, 520)">
    <!-- Block 1 -->
    <path d="M0,0 L40,-20 L40,80 L0,100 Z" fill="#D97725" stroke="black" stroke-width="1"/>
    <path d="M0,0 L40,0 L40,-20 L0,-20 Z" fill="#A05219" stroke="black" stroke-width="1"/>
    <path d="M0,0 L0,100 L40,80 L40,100 Z" fill="#E69141" stroke="black" stroke-width="1"/>
    <!-- Block 2 -->
    <path d="M45,0 L85,-20 L85,80 L45,100 Z" fill="#D97725" stroke="black" stroke-width="1"/>
    <path d="M45,0 L85,0 L85,-20 L45,-20 Z" fill="#A05219" stroke="black" stroke-width="1"/>
    <path d="M45,0 L45,100 L85,80 L85,100 Z" fill="#E69141" stroke="black" stroke-width="1"/>
    <!-- Block 3 -->
    <path d="M90,0 L130,-20 L130,80 L90,100 Z" fill="#D97725" stroke="black" stroke-width="1"/>
    <path d="M90,0 L130,0 L130,-20 L90,-20 Z" fill="#A05219" stroke="black" stroke-width="1"/>
    <path d="M90,0 L90,100 L130,80 L130,100 Z" fill="#E69141" stroke="black" stroke-width="1"/>
    <!-- Block 4 -->
    <path d="M135,0 L175,-20 L175,80 L135,100 Z" fill="#D97725" stroke="black" stroke-width="1"/>
    <path d="M135,0 L175,0 L175,-20 L135,-20 Z" fill="#A05219" stroke="black" stroke-width="1"/>
    <path d="M135,0 L135,100 L175,80 L175,100 Z" fill="#E69141" stroke="black" stroke-width="1"/>
    <!-- Block 5 -->
    <path d="M180,0 L220,-20 L220,80 L180,100 Z" fill="#D97725" stroke="black" stroke-width="1"/>
    <path d="M180,0 L220,0 L220,-20 L180,-20 Z" fill="#A05219" stroke="black" stroke-width="1"/>
    <path d="M180,0 L180,100 L220,80 L220,100 Z" fill="#E69141" stroke="black" stroke-width="1"/>
    <text x="140" y="130" font-family="Arial, sans-serif" font-size="36" text-anchor="middle" fill="black">Student</text>
  </g>

  <!-- ================= FEATURE EXTRACTORS ================= -->
  <!-- Ground Truth -->
  <rect x="220" y="75" width="240" height="100" rx="20" fill="white" stroke="black" stroke-width="2" />
  <text x="340" y="130" font-family="Arial, sans-serif" font-size="36" text-anchor="middle" fill="black">Ground Truth</text>
  <line x1="440" y1="125" x2="470" y2="125" stroke="black" stroke-width="2" marker-end="url(#arrow)" />

  <!-- Teacher -->
  <rect x="430" y="30" width="80" height="200" fill="white" stroke="#999" stroke-width="3" stroke-dasharray="10,5" />
  <!-- Top: Hard Label -->
  <rect x="470" y="40" width="40" height="40" fill="#6D9EEB" stroke="black" stroke-width="1"/>
  <text x="515" y="65" font-family="Arial, sans-serif" font-size="36" fill="black">1</text>
  <!-- Middle: Mask Label -->
  <rect x="470" y="70" width="40" height="140" fill="#999999" stroke="black" stroke-width="1"/>
  <!-- Bottom: Target -->
  <rect x="470" y="260" width="40" height="40" fill="#FFD966" stroke="black" stroke-width="1"/>
  <text x="515" y="285" font-family="Times New Roman, serif" font-style="italic" font-size="36" fill="black">p<tspan dy="10" font-size="24">T</tspan><tspan dy="-10" font-size="36">t</tspan></text>
  <rect x="470" y="290" width="40" height="140" fill="#A9D18E" stroke="black" stroke-width="1"/>
  <line x1="470" y1="340" x2="470" y2="360" stroke="black" stroke-width="1"/>
  <line x1="470" y1="400" x2="470" y2="420" stroke="black" stroke-width="1"/>
  <line x1="470" y1="460" x2="470" y2="480" stroke="black" stroke-width="1"/>
  <line x1="470" y1="520" x2="470" y2="540" stroke="black" stroke-width="1"/>
  <line x1="470" y1="580" x2="470" y2="600" stroke="black" stroke-width="1"/>

  <!-- Student -->
  <rect x="430" y="480" width="80" height="200" fill="white" stroke="#999" stroke-width="3" stroke-dasharray="10,5" />
  <!-- Top: Hard Label -->
  <rect x="470" y="490" width="40" height="40" fill="#FFD966" stroke="black" stroke-width="1"/>
  <!-- Middle: Mask Label -->
  <rect x="470" y="520" width="40" height="140" fill="#A9D18E" stroke="black" stroke-width="1"/>
  <line x1="470" y1="570" x2="470" y2="590" stroke="black" stroke-width="1"/>
  <line x1="470" y1="630" x2="470" y2="650" stroke="black" stroke-width="1"/>
  <line x1="470" y1="690" x2="470" y2="710" stroke="black" stroke-width="1"/>
  <!-- Bottom: Target -->
  <rect x="470" y="490" width="40" height="40" fill="#FFD966" stroke="black" stroke-width="1"/>
  <text x="515" y="515" font-family="Times New Roman, serif" font-style="italic" font-size="36" fill="black">p<tspan dy="10" font-size="24">S</tspan><tspan dy="-10" font-size="36">t</tspan></text>
  <rect x="470" y="520" width="40" height="140" fill="#A9D18E" stroke="black" stroke-width="1"/>
  <line x1="470" y1="570" x2="470" y2="590" stroke="black" stroke-width="1"/>
  <line x1="470" y1="630" x2="470" y2="650" stroke="black" stroke-width="1"/>
  <line x1="470" y1="690" x2="470" y2="710" stroke="black" stroke-width="1"/>

  <!-- Arrows from Extractors to Decoupling -->
  <line x1="430" y1="340" x2="470" y2="340" stroke="black" stroke-width="2" marker-end="url(#arrow)" />
  <line x1="430" y1="580" x2="470" y2="580" stroke="black" stroke-width="2" marker-end="url(#arrow)" />
  <line x1="550" y1="340" x2="580" y2="340" stroke="black" stroke-width="2" marker-end="url(#arrow)" />
  <line x1="550" y1="580" x2="580" y2="580" stroke="black" stroke-width="2" marker-end="url(#arrow)" />

  <!-- ================= DECOUPLING ================= -->
  <text x="580" y="470" font-family="Arial, sans-serif" font-size="36" fill="black">Decoupling</text>
  
  <!-- Top Decoupling -->
  <rect x="580" y="40" width="100" height="160" fill="white" stroke="#999" stroke-width="3" stroke-dasharray="10,5" />
  <rect x="590" y="75" width="40" height="40" fill="#6D9EEB" stroke="black" stroke-width="1"/>
  <text x="600" y="140" font-family="Times New Roman, serif" font-style="italic" font-size="36" fill="black">1</text>
  <rect x="630" y="75" width="40" height="40" fill="#FFD966" stroke="black" stroke-width="1"/>
  <text x="640" y="140" font-family="Times New Roman, serif" font-style="italic" font-size="36" fill="black">p<tspan dy="10" font-size="24">S</tspan><tspan dy="-10" font-size="36">t</tspan></text>
  <line x1="670" y1="120" x2="700" y2="120" stroke="black" stroke-width="2" marker-end="url(#arrow)" />

  <!-- Middle Decoupling -->
  <rect x="580" y="260" width="100" height="160" fill="white" stroke="#999" stroke-width="3" stroke-dasharray="10,5" />
  <rect x="590" y="300" width="40" height="40" fill="#FFD966" stroke="black" stroke-width="1"/>
  <text x="600" y="365" font-family="Times New Roman, serif" font-style="italic" font-size="36" fill="black">p<tspan dy="10" font-size="24">T</tspan><tspan dy="-10" font-size="36">t</tspan></text>
  <rect x="630" y="300" width="40" height="40" fill="#FFD966" stroke="black" stroke-width="1"/>
  <text x="640" y="365" font-family="Times New Roman, serif" font-style="italic" font-size="36" fill="black">p<tspan dy="10" font-size="24">S</tspan><tspan dy="-10" font-size="36">t</tspan></text>
  <line x1="670" y1="340" x2="700" y2="340" stroke="black" stroke-width="2" marker-end="url(#arrow)" />

  <!-- Bottom Decoupling -->
  <rect x="580" y="480" width="100" height="160" fill="white" stroke="#999" stroke-width="3" stroke-dasharray="10,5" />
  <rect x="590" y="500" width="40" height="140" fill="#A9D18E" stroke="black" stroke-width="1"/>
  <line x1="590" y1="570" x2="590" y2="590" stroke="black" stroke-width="1"/>
  <line x1="590" y1="630" x2="590" y2="650" stroke="black" stroke-width="1"/>
  <rect x="630" y="500" width="40" height="140" fill="#A9D18E" stroke="black" stroke-width="1"/>
  <line x1="630" y1="570" x2="630" y2="590" stroke="black" stroke-width="1"/>
  <line x1="630" y1="630" x2="630" y2="650" stroke="black" stroke-width="1"/>
  <line x1="670" y1="570" x2="700" y2="570" stroke="black" stroke-width="2" marker-end="url(#arrow)" />

  <!-- Dynamic Top-k Mask -->
  <rect x="500" y="690" width="240" height="50" rx="10" fill="#C5B0D9" stroke="black" stroke-width="2" />
  <text x="620" y="725" font-family="Arial, sans-serif" font-size="32" text-anchor="middle" fill="black">Dynamic Top-k Mask</text>
  <line x1="620" y1="690" x2="620" y2="660" stroke="black" stroke-width="2" marker-end="url(#arrow-double)" />

  <!-- ================= LOSS & GRADIENT LAYERS ================= -->
  
  <!-- Row 1: TASK -->
  <rect x="680" y="40" width="200" height="160" fill="white" stroke="#6D9EEB" stroke-width="3" stroke-dasharray="10,5" />
  <text x="840" y="75" font-family="Arial, sans-serif" font-size="36" text-anchor="middle" fill="black">TASK</text>
  <rect x="700" y="95" width="180" height="100" rx="20" fill="white" stroke="#6D9EEB" stroke-width="2" />
  <text x="800" y="130" font-family="Arial, sans-serif" font-size="32" text-anchor="middle" fill="black">Task</text>
  <text x="800" y="165" font-family="Arial, sans-serif" font-size="32" text-anchor="middle" fill="black">CE Loss</text>
  <line x1="880" y1="120" x2="920" y2="120" stroke="black" stroke-width="2" marker-end="url(#arrow)" />

  <!-- Row 2: TOG -->
  <rect x="920" y="40" width="200" height="160" fill="white" stroke="#6D9EEB" stroke-width="3" stroke-dasharray="10,5" />
  <text x="1040" y="75" font-family="Arial, sans-serif" font-size="36" text-anchor="middle" fill="black">TOG</text>
  <rect x="940" y="95" width="180" height="100" rx="20" fill="#6D9EEB" stroke="black" stroke-width="2" />
  <text x="1030" y="130" font-family="Arial, sans-serif" font-size="32" text-anchor="middle" fill="black">Task-oriented</text>
  <text x="1030" y="165" font-family="Arial, sans-serif" font-size="32" text-anchor="middle" fill="black">Gradient</text>
  <line x1="1120" y1="120" x2="1200" y2="120" stroke="black" stroke-width="2" marker-end="url(#arrow)" />

  <!-- Row 3: TCKD -->
  <rect x="680" y="260" width="200" height="160" fill="white" stroke="#FFD966" stroke-width="3" stroke-dasharray="10,5" />
  <text x="840" y="300" font-family="Arial, sans-serif" font-size="36" text-anchor="middle" fill="black">TCKD</text>
  <rect x="700" y="315" width="180" height="100" rx="20" fill="white" stroke="#FFD966" stroke-width="2" />
  <text x="800" y="350" font-family="Arial, sans-serif" font-size="32" text-anchor="middle" fill="black">Target Class</text>
  <text x="800" y="385" font-family="Arial, sans-serif" font-size="32" text-anchor="middle" fill="black">KL Loss</text>
  <line x1="880" y1="340" x2="920" y2="340" stroke="black" stroke-width="2" marker-end="url(#arrow)" />

  <!-- Row 4: TCG -->
  <rect x="920" y="260" width="200" height="160" fill="white" stroke="#FFD966" stroke-width="3" stroke-dasharray="10,5" />
  <text x="1040" y="300" font-family="Arial, sans-serif" font-size="36" text-anchor="middle" fill="black">TCG</text>
  <rect x="940" y="315" width="180" height="100" rx="20" fill="#FFD966" stroke="black" stroke-width="2" />
  <text x="1030" y="350" font-family="Arial, sans-serif" font-size="32" text-anchor="middle" fill="black">Target class</text>
  <text x="1030" y="385" font-family="Arial, sans-serif" font-size="32" text-anchor="middle" fill="black">Gradient</text>
  <line x1="1120" y1="340" x2="1200" y2="340" stroke="black" stroke-width="2" marker-end="url(#arrow)" />

  <!-- Row 5: NCKD -->
  <rect x="680" y="480" width="200" height="160" fill="white" stroke="#A9D18E" stroke-width="3" stroke-dasharray="10,5" />
  <text x="840" y="530" font-family="Arial, sans-serif" font-size="36" text-anchor="middle" fill="black">NCKD</text>
  <rect x="700" y="550" width="180" height="100" rx="20" fill="white" stroke="#A9D18E" stroke-width="2" />
  <text x="800" y="590" font-family="Arial, sans-serif" font-size="32" text-anchor="middle" fill="black">Non-target</text>
  <text x="800" y="625" font-family="Arial, sans-serif" font-size="32" text-anchor="middle" fill="black">Class KL Loss</text>
  <line x1="880" y1="570" x2="920" y2="570" stroke="black" stroke-width="2" marker-end="url(#arrow)" />

  <!-- Row 6: NCG -->
  <rect x="920" y="480" width="200" height="160" fill="white" stroke="#A9D18E" stroke-width="3" stroke-dasharray="10,5" />
  <text x="1040" y="530" font-family="Arial, sans-serif" font-size="36" text-anchor="middle" fill="black">NCG</text>
  <rect x="940" y="550" width="180" height="100" rx="20" fill="#A9D18E" stroke="black" stroke-width="2" />
  <text x="1030" y="590" font-family="Arial, sans-serif" font-size="32" text-anchor="middle" fill="black">Non-target</text>
  <text x="1030" y="625" font-family="Arial, sans-serif" font-size="32" text-anchor="middle" fill="black">class Gradient</text>
  <line x1="1120" y1="570" x2="1200" y2="570" stroke="black" stroke-width="2" marker-end="url(#arrow)" />

  <!-- ================= MOMENTUM BUFFERS ================= -->
  
  <!-- Blue Buffer -->
  <rect x="1200" y="80" width="200" height="100" rx="20" fill="#6D9EEB" stroke="black" stroke-width="2" />
  <text x="1300" y="115" font-family="Arial, sans-serif" font-size="32" text-anchor="middle" fill="black">Task</text>
  <text x="1300" y="150" font-family="Arial, sans-serif" font-size="32" text-anchor="middle" fill="black">Momentum buffer</text>
  <line x1="1400" y1="130" x2="1450" y2="130" stroke="black" stroke-width="2" marker-end="url(#arrow)" />

  <!-- Yellow Buffer -->
  <rect x="1200" y="300" width="200" height="100" rx="20" fill="#FFD966" stroke="black" stroke-width="2" />
  <text x="1300" y="335" font-family="Arial, sans-serif" font-size="32" text-anchor="middle" fill="black">Target</text>
  <text x="1300" y="370" font-family="Arial, sans-serif" font-size="32" text-anchor="middle" fill="black">Momentum buffer</text>
  <line x1="1400" y1="340" x2="1450" y2="340" stroke="black" stroke-width="2" marker-end="url(#arrow)" />

  <!-- Green Buffer -->
  <rect x="1200" y="530" width="200" height="100" rx="20" fill="#A9D18E" stroke="black" stroke-width="2" />
  <text x="1300" y="565" font-family="Arial, sans-serif" font-size="32" text-anchor="middle" fill="black">Non-target</text>
  <text x="1300" y="600" font-family="Arial, sans-serif" font-size="32" text-anchor="middle" fill="black">Momentum buffer</text>
  <line x1="1400" y1="570" x2="1450" y2="570" stroke="black" stroke-width="2" marker-end="url(#arrow)" />

  <!-- ================= CONVERGENCE ================= -->
  
  <!-- Convergence Circle -->
  <circle cx="1420" cy="340" r="20" fill="white" stroke="black" stroke-width="2" />
  <line x1="1420" y1="320" x2="1420" y2="360" stroke="black" stroke-width="2" />
  <line x1="1400" y1="340" x2="1440" y2="340" stroke="black" stroke-width="2" />
  <line x1="1420" y1="360" x2="1400" y2="340" stroke="black" stroke-width="2" />
  <line x1="1420" y1="360" x2="1440" y2="340" stroke="black" stroke-width="2" />

  <!-- Update Loop -->
  <text x="1500" y="370" font-family="Arial, sans-serif" font-size="36" text-anchor="middle" fill="black">Update</text>
  <line x1="1420" y1="360" x2="1420" y2="600" stroke="black" stroke-width="2" marker-end="url(#arrow)" />
  <line x1="1420" y1="600" x2="1420" y2="700" stroke="black" stroke-width="2" />
  <line x1="1420" y1="700" x2="300" y2="700" stroke="black" stroke-width="2" marker-end="url(#arrow)" />

  <!-- ================= EQUATIONS ================= -->
  
  <!-- Blue Equation -->
  <text x="1120" y="50" font-family="Times New Roman, serif" font-style="italic" font-size="32" fill="black">
    ν ← g + (μ + Δ)ν
  </text>
  <line x1="1120" y1="60" x2="1120" y2="100" stroke="#6D9EEB" stroke-width="2" />
  <line x1="1120" y1="100" x2="1120" y2="120" stroke="#6D9EEB" stroke-width="2" marker-end="url(#arrow-double)" />

  <!-- Yellow Equation -->
  <text x="1120" y="270" font-family="Times New Roman, serif" font-style="italic" font-size="32" fill="black">
    ν ← g + (μ − Δ)ν
  </text>
  <line x1="1120" y1="280" x2="1120" y2="320" stroke="#FFD966" stroke-width="2" />
  <line x1="1120" y1="320" x2="1120" y2="340" stroke="#FFD966" stroke-width="2" marker-end="url(#arrow-double)" />

  <!-- Green Equation -->
  <text x="1120" y="500" font-family="Times New Roman, serif" font-style="italic" font-size="32" fill="black">
    ν ← g + (μ + Δ)ν
  </text>
  <line x1="1120" y1="510" x2="1120" y2="550" stroke="#A9D18E" stroke-width="2" />
  <line x1="1120" y1="550" x2="1120" y2="570" stroke="#A9D18E" stroke-width="2" marker-end="url(#arrow-double)" />

  <!-- Theta Equation -->
  <text x="1450" y="330" font-family="Times New Roman, serif" font-style="italic" font-size="32" fill="black">
    θ ← θ − γν
  </text>

</svg>