<svg xmlns="http://www.w3.org/2000/svg" viewBox="12.0 -8.0 2956.0 1006.0" style="background-color: white;">
  <defs>
    <!-- Arrowhead Marker -->
    <marker id="arrowhead" markerWidth="6" markerHeight="6" refX="5" refY="3" orient="auto">
      <path d="M0,0 L6,3 L0,6 L0,0" fill="black" />
    </marker>

    <!-- Filters and Patterns for Image Simulation -->
    <filter id="noiseEvent">
      <feTurbulence type="fractalNoise" baseFrequency="0.85" numOctaves="3" result="noise" />
      <feColorMatrix type="matrix" values="1 0 0 0 0  0 1 0 0 0  0 0 1 0 0  0 0 0 1 0" in="noise" result="coloredNoise" />
      <feComponentTransfer in="coloredNoise">
         <feFuncR type="linear" slope="3" intercept="-1"/>
         <feFuncG type="linear" slope="3" intercept="-1"/>
         <feFuncB type="linear" slope="3" intercept="-1"/>
      </feComponentTransfer>
    </filter>
    
    <filter id="noiseRef">
      <feTurbulence type="fractalNoise" baseFrequency="0.9" numOctaves="3" />
      <feColorMatrix values="0 0 0 0 0  0 0 0 0 0  0 0 0 0 0  0 0 0 1 0" />
    </filter>

    <filter id="noiseEnergy">
      <feTurbulence type="fractalNoise" baseFrequency="0.65" numOctaves="2" />
      <feColorMatrix values="1 0 0 0 0  0 1 0 0 0  0 0 1 0 0  0 0 0 1 0" />
    </filter>

    <filter id="heatmapFilter">
      <feTurbulence type="fractalNoise" baseFrequency="0.05" numOctaves="2" result="turb"/>
      <feColorMatrix in="turb" type="hueRotate" values="90" result="colored"/>
      <feComponentTransfer in="colored">
        <feFuncR type="table" tableValues="0.2 0.1 0 0 0"/>
        <feFuncG type="table" tableValues="0.2 0.5 0.8 1 1"/>
        <feFuncB type="table" tableValues="0.8 0.9 1 1 0.5"/>
      </feComponentTransfer>
    </filter>

    <!-- Reusable "Image" Content Placeholder (Stylized Vector to represent the scene) -->
    <g id="sceneContent">
       <!-- Background -->
       <rect width="100%" height="100%" fill="#333" />
       <!-- Monkey Statue -->
       <circle cx="60" cy="60" r="40" fill="#4a3b3b" /> <!-- Head -->
       <ellipse cx="60" cy="90" rx="35" ry="40" fill="#2a2222" /> <!-- Body -->
       <path d="M20,60 Q40,40 60,60 T100,60" fill="none" stroke="#2a2222" stroke-width="10"/> <!-- Arms -->
       <!-- Tripod -->
       <line x1="90" y1="80" x2="150" y2="120" stroke="#111" stroke-width="6"/>
       <line x1="150" y1="120" x2="120" y2="160" stroke="#111" stroke-width="5"/>
       <line x1="150" y1="120" x2="180" y2="160" stroke="#111" stroke-width="5"/>
       <!-- Bowl -->
       <circle cx="120" cy="130" r="35" fill="#ddd" />
    </g>

    <!-- Event Frame (High Contrast) -->
    <g id="imgEvent">
      <use href="#sceneContent" />
      <rect width="100%" height="100%" fill="white" opacity="0.3" filter="url(#noiseEvent)" />
    </g>

    <!-- Reference Frame (Noisy) -->
    <g id="imgRef">
      <rect width="100%" height="100%" fill="black" />
      <rect width="100%" height="100%" fill="white" opacity="0.1" filter="url(#noiseRef)" />
    </g>

    <!-- Energy Map (Grayscale Noise) -->
    <g id="imgEnergy">
      <rect width="100%" height="100%" fill="#888" />
      <rect width="100%" height="100%" fill="white" opacity="0.2" filter="url(#noiseEnergy)" />
    </g>
    
    <!-- Heatmap Frame -->
    <g id="imgHeatmap">
       <rect width="100%" height="100%" fill="#000088" /> <!-- Dark Blue Base -->
       <use href="#sceneContent" />
       <circle cx="60" cy="60" r="40" fill="#00ffff" opacity="0.5" filter="url(#heatmapFilter)"/> <!-- Head Heat -->
       <circle cx="120" cy="130" r="35" fill="#ffff00" opacity="0.6" filter="url(#heatmapFilter)"/> <!-- Bowl Heat -->
       <rect width="100%" height="100%" fill="red" opacity="0.2" filter="url(#noiseRef)" /> <!-- Noise overlay -->
    </g>

  </defs>

  <style>
    text { font-family: "Times New Roman", Times, serif; fill: black; }
    .label-main { font-size: 36px; text-anchor: middle; }
    .label-sub { font-size: 32px; text-anchor: middle; }
    .label-math { font-size: 40px; font-style: italic; }
    .arrow-line { stroke: black; stroke-width: 3; fill: none; marker-end: url(#arrowhead); }
    .block-border { stroke: #2a2222; stroke-width: 1.5; }
  </style>

  <!-- ================= COLUMN 1: INPUTS ================= -->
  
  <!-- Top: Captured Event Frames -->
  <g transform="translate(20, 50)">
    <g transform="translate(40, -20)"><use href="#imgEvent" width="280" height="160" /></g>
    <g transform="translate(20, 0)"><use href="#imgEvent" width="280" height="160" /></g>
    <g transform="translate(0, 20)"><use href="#imgEvent" width="280" height="160" /></g>
    <text x="140" y="180" class="label-main" style="font-size: 34px;">Captured Event Frames</text>
  </g>

  <!-- Arrow Down -->
  <path d="M160, 200 L160, 240" class="arrow-line" />

  <!-- Middle: Energy Map -->
  <g transform="translate(20, 260)">
    <g transform="translate(40, -20)"><use href="#imgEnergy" width="280" height="160" /></g>
    <g transform="translate(20, 0)"><use href="#imgEnergy" width="280" height="160" /></g>
    <g transform="translate(0, 20)"><use href="#imgEnergy" width="280" height="160" /></g>
    <text x="140" y="180" class="label-main">Energy Map</text>
  </g>

  <!-- Bottom: Reference Frames -->
  <g transform="translate(20, 410)">
    <g transform="translate(40, -20)"><use href="#imgRef" width="280" height="160" /></g>
    <g transform="translate(20, 0)"><use href="#imgRef" width="280" height="160" /></g>
    <g transform="translate(0, 20)"><use href="#imgRef" width="280" height="160" /></g>
    <text x="140" y="200" class="label-main">Reference Frames</text>
  </g>

  <!-- ================= COLUMN 2: FEATURE EXTRACTION ================= -->
  
  <!-- Top Net -->
  <g transform="translate(380, 60)">
    <rect x="0" y="0" width="40" height="150" fill="#B4C6E7" />
    <rect x="60" y="25" width="40" height="100" fill="#B4C6E7" />
    <rect x="120" y="0" width="40" height="150" fill="#B4C6E7" />
    <text x="80" y="170" class="label-main">Feature Extraction</text>
  </g>
  <!-- Arrow In -->
  <path d="M330, 135 L370, 135" class="arrow-line" />

  <!-- Middle Net -->
  <g transform="translate(380, 240)">
    <rect x="0" y="0" width="40" height="150" fill="#C5E0B4" />
    <rect x="60" y="25" width="40" height="100" fill="#C5E0B4" />
    <rect x="120" y="0" width="40" height="150" fill="#C5E0B4" />
    <text x="80" y="170" class="label-main">Feature Extraction</text>
  </g>
  <!-- Arrow In -->
  <path d="M330, 310 L370, 310" class="arrow-line" />

  <!-- Bottom Net -->
  <g transform="translate(380, 420)">
    <rect x="0" y="0" width="40" height="150" fill="#B4C6E7" />
    <rect x="60" y="25" width="40" height="100" fill="#B4C6E7" />
    <rect x="120" y="0" width="40" height="150" fill="#B4C6E7" />
    <text x="80" y="170" class="label-main">Feature Extraction</text>
  </g>
  <!-- Arrow In -->
  <path d="M330, 480 L370, 480" class="arrow-line" />

  <!-- ================= COLUMN 3: FEATURES & CONF EST ================= -->

  <!-- Left Features (Top Right) -->
  <g transform="translate(780, 80)">
    <!-- Back Block FL2 -->
    <g transform="translate(60, -60)">
       <polygon points="20,0 160,0 180,-20 40,-20" fill="#C59500" class="block-border"/> <!-- Top -->
       <polygon points="160,0 160,120 180,100 180,-20" fill="#C59500" class="block-border"/> <!-- Side -->
       <rect x="20" y="0" width="140" height="120" fill="#E2C362" class="block-border"/> <!-- Front -->
       <text x="0" y="-10" class="label-math" text-anchor="end"><tspan font-size="48">F</tspan><tspan dy="5" font-size="30">L2</tspan></text>
    </g>
    <!-- Middle Block FL1 -->
    <g transform="translate(30, -30)">
       <polygon points="20,0 160,0 180,-20 40,-20" fill="#D9B340" class="block-border"/>
       <polygon points="160,0 160,120 180,100 180,-20" fill="#D9B340" class="block-border"/>
       <rect x="20" y="0" width="140" height="120" fill="#FAD57A" class="block-border"/>
       <text x="0" y="-10" class="label-math" text-anchor="end"><tspan font-size="48">F</tspan><tspan dy="5" font-size="30">L1</tspan></text>
    </g>
    <!-- Front Block FL0 -->
    <g transform="translate(0, 0)">
       <polygon points="20,0 160,0 180,-20 40,-20" fill="#F0D060" class="block-border"/>
       <polygon points="160,0 160,120 180,100 180,-20" fill="#F0D060" class="block-border"/>
       <rect x="20" y="0" width="140" height="120" fill="#FCE490" class="block-border"/>
       <text x="0" y="-10" class="label-math" text-anchor="end"><tspan font-size="48">F</tspan><tspan dy="5" font-size="30">L0</tspan></text>
    </g>
    <text x="90" y="130" class="label-main">Left Features</text>
  </g>
  <!-- Arrow from Top Net to Left Features -->
  <path d="M540, 125 L730, 125" class="arrow-line" />

  <!-- Energy Guided Box (Middle) -->
  <g transform="translate(590, 240)">
    <rect x="0" y="0" width="280" height="170" rx="30" fill="#A9D18E" />
    <text x="140" y="45" class="label-main">Energy-</text>
    <text x="140" y="85" class="label-main">guided</text>
    <text x="140" y="125" class="label-main">Confidence</text>
    <text x="140" y="165" class="label-main">Estimation</text>
  </g>
  <!-- Arrow from Middle Net to Energy Box -->
  <path d="M540, 310 L585, 310" class="arrow-line" />
  <!-- Arrow from Left Features to Energy Box (Elbow) -->
  <path d="M850, 190 L850, 220 L710, 220 L710, 250" class="arrow-line" />

  <!-- Confidence Maps (Center Right) -->
  <g transform="translate(870, 260)">
    <g transform="translate(40, -40)"><use href="#imgHeatmap" width="280" height="160" /></g>
    <g transform="translate(20, -20)"><use href="#imgHeatmap" width="280" height="160" /></g>
    <g transform="translate(0, 0)"><use href="#imgHeatmap" width="280" height="160" /></g>
    <text x="140" y="180" class="label-main">Confidence Maps</text>
  </g>
  <!-- Arrow from Energy Box to Conf Maps -->
  <path d="M820, 310 L865, 310" class="arrow-line" />

  <!-- Right Features (Bottom Right) -->
  <g transform="translate(780, 460)">
    <!-- Back Block FR2 -->
    <g transform="translate(60, -60)">
       <polygon points="20,0 160,0 180,-20 40,-20" fill="#C59500" class="block-border"/> 
       <polygon points="160,0 160,120 180,100 180,-20" fill="#C59500" class="block-border"/> 
       <rect x="20" y="0" width="140" height="120" fill="#E2C362" class="block-border"/> 
       <text x="0" y="-10" class="label-math" text-anchor="end"><tspan font-size="48">F</tspan><tspan dy="5" font-size="30">R2</tspan></text>
    </g>
    <!-- Middle Block FR1 -->
    <g transform="translate(30, -30)">
       <polygon points="20,0 160,0 180,-20 40,-20" fill="#D9B340" class="block-border"/>
       <polygon points="160,0 160,120 180,100 180,-20" fill="#D9B340" class="block-border"/>
       <rect x="20" y="0" width="140" height="120" fill="#FAD57A" class="block-border"/>
       <text x="0" y="-10" class="label-math" text-anchor="end"><tspan font-size="48">F</tspan><tspan dy="5" font-size="30">R1</tspan></text>
    </g>
    <!-- Front Block FR0 -->
    <g transform="translate(0, 0)">
       <polygon points="20,0 160,0 180,-20 40,-20" fill="#F0D060" class="block-border"/>
       <polygon points="160,0 160,120 180,100 180,-20" fill="#F0D060" class="block-border"/>
       <rect x="20" y="0" width="140" height="120" fill="#FCE490" class="block-border"/>
       <text x="0" y="-10" class="label-math" text-anchor="end"><tspan font-size="48">F</tspan><tspan dy="5" font-size="30">R0</tspan></text>
    </g>
    <text x="90" y="130" class="label-main">Right Features</text>
  </g>
  <!-- Arrow from Bottom Net to Right Features -->
  <path d="M550, 480 L750, 480" class="arrow-line" />

  <!-- ================= COLUMN 4: CONSTRUCTION & OUTPUT ================= -->

  <!-- Confidence Propagation Box -->
  <g transform="translate(1150, 240)">
    <rect x="0" y="0" width="250" height="170" rx="30" fill="#F4B183" />
    <text x="125" y="45" class="label-main">Confidence</text>
    <text x="125" y="85" class="label-main">Propagation</text>
    <text x="125" y="125" class="label-main">Volume</text>
    <text x="125" y="165" class="label-main">Construction</text>
  </g>

  <!-- Arrow from Conf Maps to Conf Prop -->
  <path d="M1120, 310 L1155, 310" class="arrow-line" />

  <!-- Cost Volume (3D Box Top Right) -->
  <g transform="translate(1380, 80)">
    <!-- Top Face -->
    <polygon points="20,20 280,20 340,-20 60,-20" fill="#F4B183" />
    <!-- Side Face -->
    <polygon points="280,20 280,120 340,60 340,-20" fill="#D69A6E" />
    <!-- Front Face -->
    <rect x="20" y="20" width="260" height="100" fill="#F4B183" />
    <text x="150" y="60" class="label-main" style="font-size: 48px;">Cost</text>
    <text x="150" y="105" class="label-main" style="font-size: 48px;">Volume</text>
  </g>

  <!-- Arrow from Left Features to Cost Volume (Elbow) -->
  <path d="M1000, 125 L1240, 125 L1240, 245" class="arrow-line" />
  
  <!-- Arrow from Right Features to Cost Volume (Elbow via Conf Prop) -->
  <!-- Note: The prompt says Right Features -> Down -> Right -> Up -> Conf Prop -->
  <path d="M1000, 480 L1240, 480 L1240, 355" class="arrow-line" />

  <!-- Cost Aggregation (Blue Box) -->
  <g transform="translate(1380, 240)">
    <rect x="0" y="0" width="250" height="170" rx="30" fill="#8EAAD9" />
    <text x="125" y="85" class="label-main" style="font-size: 42px;">Cost</text>
    <text x="125" y="135" class="label-main" style="font-size: 42px;">Aggregation</text>
  </g>

  <!-- Arrow from Cost Volume to Cost Aggregation (Elbow) -->
  <path d="M1380, 125 L1350, 125 L1350, 300 L1375, 300" class="arrow-line" />

  <!-- Disparity Output -->
  <g transform="translate(1360, 420)">
    <use href="#imgHeatmap" width="250" height="140" />
    <text x="125" y="170" class="label-main">Disparity</text>
  </g>

  <!-- Arrow from Cost Aggregation to Disparity -->
  <path d="M1505, 360 L1505, 420" class="arrow-line" />

</svg>