<svg xmlns="http://www.w3.org/2000/svg" viewBox="-8.0 -8.0 1726.0 1116.0" style="font-family: 'Times New Roman', Times, serif;">
  <defs>
    <!-- Arrowhead Marker -->
    <marker id="arrow" viewBox="0 0 10 10" refX="9" refY="5" markerWidth="6" markerHeight="6" orient="auto">
      <path d="M 0 0 L 10 5 L 0 10 z" fill="black" />
    </marker>
    <!-- Green Arrowhead Marker -->
    <marker id="arrow-green" viewBox="0 0 10 10" refX="9" refY="5" markerWidth="6" markerHeight="6" orient="auto">
      <path d="M 0 0 L 10 5 L 0 10 z" fill="#84D94B" />
    </marker>
    
    <!-- Gradients for Image Placeholders -->
    <linearGradient id="skyGrad" x1="0%" y1="0%" x2="0%" y2="100%">
      <stop offset="0%" style="stop-color:#4a90e2;stop-opacity:1" />
      <stop offset="100%" style="stop-color:#87ceeb;stop-opacity:1" />
    </linearGradient>
    <linearGradient id="rainGrad" x1="0%" y1="0%" x2="100%" y2="100%">
      <stop offset="0%" style="stop-color:#a5d6a7;stop-opacity:0.2" />
      <stop offset="100%" style="stop-color:#2e7d32;stop-opacity:0.5" />
    </linearGradient>
    <linearGradient id="snowGrad" x1="0%" y1="0%" x2="0%" y2="100%">
      <stop offset="0%" style="stop-color:#e3f2fd;stop-opacity:1" />
      <stop offset="100%" style="stop-color:#bbdefb;stop-opacity:1" />
    </linearGradient>
  </defs>

  <!-- BACKGROUNDS -->
  <!-- Top Panel (a) -->
  <rect x="0" y="0" width="1600" height="400" fill="#F0F0F0" />
  <!-- Bottom Left Panel (b) -->
  <rect x="0" y="400" width="800" height="700" fill="#FCE5D6" />
  <!-- Bottom Right Panel (c) -->
  <rect x="800" y="400" width="800" height="700" fill="#DDE6F4" />

  <!-- ==================== PANEL A ==================== -->
  <text x="15" y="60" font-size="55" fill="black">(a) Overall MINI Architecture</text>

  <!-- Query Function Box -->
  <g transform="translate(450, 70)">
    <rect x="0" y="0" width="320" height="70" rx="15" fill="#E2F0D9" stroke="#2F5597" stroke-width="4" />
    <text x="160" y="45" font-size="40" text-anchor="middle" fill="black">Query function <tspan font-style="italic">q</tspan>(·)</text>
  </g>

  <!-- Input Images Stack -->
  <g transform="translate(300, 170)">
    <!-- Back Image (Clear) -->
    <g transform="translate(0, 0)">
        <rect width="160" height="160" fill="url(#skyGrad)" />
        <rect x="0" y="80" width="160" height="80" fill="#d7ccc8" /> <!-- Building -->
        <rect x="10" y="90" width="10" height="70" fill="white" /> <!-- Stripes -->
        <rect x="25" y="90" width="10" height="70" fill="white" />
        <rect x="40" y="90" width="10" height="70" fill="white" />
    </g>
    <!-- Middle Image (Rain) -->
    <g transform="translate(30, 50)">
        <rect width="160" height="160" fill="url(#skyGrad)" />
        <rect width="160" height="160" fill="url(#rainGrad)" />
        <rect x="0" y="80" width="160" height="80" fill="#d7ccc8" opacity="0.5" />
        <rect x="10" y="90" width="10" height="70" fill="white" opacity="0.5" />
    </g>
    <!-- Front Image (Heavy Rain/Snow) -->
    <g transform="translate(60, 100)">
        <rect width="160" height="160" fill="#e0f2f1" />
        <rect width="160" height="160" fill="url(#rainGrad)" />
        <path d="M0,0 L160,160 M160,0 L0,160" stroke="white" stroke-width="1" opacity="0.3"/>
        <rect x="0" y="80" width="160" height="80" fill="#d7ccc8" opacity="0.3" />
    </g>
    
    <!-- Overlay Boxes -->
    <rect x="70" y="120" width="160" height="120" fill="#808080" opacity="0.8" />
    <text x="150" y="185" font-family="Arial, sans-serif" font-weight="bold" font-size="36" fill="white" text-anchor="middle">&lt;AF&gt;01</text>
    
    <rect x="230" y="120" width="60" height="80" fill="#808080" opacity="0.8" />
    <text x="260" y="145" font-family="Arial, sans-serif" font-weight="bold" font-size="14" fill="white" text-anchor="middle">&lt;AF&gt;02</text>

    <text x="130" y="240" font-size="45" text-anchor="middle" fill="black">input <tspan font-style="italic">x</tspan></text>
  </g>

  <!-- Central Backbone -->
  <g transform="translate(600, 180)">
    <!-- Dashed Container -->
    <rect x="0" y="0" width="420" height="260" rx="50" fill="none" stroke="#3F68A6" stroke-width="8" stroke-dasharray="30,20" />
    
    <!-- Left Trapezoid -->
    <path d="M20,30 L280,90 L280,170 L20,230 Z" fill="none" stroke="#3F68A6" stroke-width="4" />
    <!-- Bars Left (Descending) -->
    <g transform="translate(30, 45)">
       <!-- Bar 1 -->
       <rect x="0" y="0" width="40" height="70" fill="#F4B16B" /> <!-- Peach -->
       <rect x="0" y="70" width="40" height="70" fill="#FFD966" /> <!-- Yellow -->
       <rect x="0" y="140" width="40" height="70" fill="#4472C4" /> <!-- Blue -->
    </g>
    <g transform="translate(80, 55)">
       <rect x="0" y="0" width="40" height="60" fill="#F4B16B" />
       <rect x="0" y="60" width="40" height="60" fill="#FFD966" />
       <rect x="0" y="120" width="40" height="60" fill="#4472C4" />
    </g>
    <g transform="translate(130, 65)">
       <rect x="0" y="0" width="40" height="50" fill="#F4B16B" />
       <rect x="0" y="50" width="40" height="50" fill="#FFD966" />
       <rect x="0" y="100" width="40" height="50" fill="#4472C4" />
    </g>
    <g transform="translate(180, 75)">
       <rect x="0" y="0" width="40" height="40" fill="#F4B16B" />
       <rect x="0" y="40" width="40" height="40" fill="#FFD966" />
       <rect x="0" y="80" width="40" height="40" fill="#4472C4" />
    </g>
    <g transform="translate(230, 85)">
       <rect x="0" y="0" width="40" height="30" fill="#F4B16B" />
       <rect x="0" y="30" width="40" height="30" fill="#FFD966" />
       <rect x="0" y="60" width="40" height="30" fill="#4472C4" />
    </g>

    <!-- Right Trapezoid -->
    <path d="M280,90 L400,30 L400,230 L280,170 Z" fill="none" stroke="#3F68A6" stroke-width="4" />
    <!-- Bars Right (Ascending) -->
    <g transform="translate(250, 85)">
       <rect x="0" y="0" width="40" height="30" fill="#F4B16B" />
       <rect x="0" y="30" width="40" height="30" fill="#FFD966" />
       <rect x="0" y="60" width="40" height="30" fill="#4472C4" />
    </g>
    <g transform="translate(290, 75)">
       <rect x="0" y="0" width="40" height="40" fill="#F4B16B" />
       <rect x="0" y="40" width="40" height="40" fill="#FFD966" />
       <rect x="0" y="80" width="40" height="40" fill="#4472C4" />
    </g>
    <g transform="translate(330, 65)">
       <rect x="0" y="0" width="40" height="50" fill="#F4B16B" />
       <rect x="0" y="50" width="40" height="50" fill="#FFD966" />
       <rect x="0" y="100" width="40" height="50" fill="#4472C4" />
    </g>
    <g transform="translate(370, 55)">
       <rect x="0" y="0" width="40" height="60" fill="#F4B16B" />
       <rect x="0" y="60" width="40" height="60" fill="#FFD966" />
       <rect x="0" y="120" width="40" height="60" fill="#4472C4" />
    </g>
    <g transform="translate(410, 45)">
       <rect x="0" y="0" width="40" height="70" fill="#F4B16B" />
       <rect x="0" y="70" width="40" height="70" fill="#FFD966" />
       <rect x="0" y="140" width="40" height="70" fill="#4472C4" />
    </g>

    <text x="210" y="290" font-size="45" text-anchor="middle" fill="black">Any backbone</text>
    <text x="210" y="340" font-size="45" text-anchor="middle" fill="black">with MINI-Conv</text>
  </g>

  <!-- Output Images Stack -->
  <g transform="translate(1150, 170)">
    <!-- Back Image (Clear) -->
    <g transform="translate(0, 0)">
        <rect width="160" height="160" fill="url(#skyGrad)" />
        <rect x="0" y="80" width="160" height="80" fill="#d7ccc8" />
        <rect x="10" y="90" width="10" height="70" fill="white" />
        <rect x="25" y="90" width="10" height="70" fill="white" />
        <rect x="40" y="90" width="10" height="70" fill="white" />
    </g>
    <!-- Middle Image (Rain) -->
    <g transform="translate(30, 50)">
        <rect width="160" height="160" fill="url(#skyGrad)" />
        <rect width="160" height="160" fill="url(#rainGrad)" />
        <rect x="0" y="80" width="160" height="80" fill="#d7ccc8" opacity="0.5" />
    </g>
    <!-- Front Image (Heavy Rain/Snow) -->
    <g transform="translate(60, 100)">
        <rect width="160" height="160" fill="#e0f2f1" />
        <rect width="160" height="160" fill="url(#rainGrad)" />
        <path d="M0,0 L160,160 M160,0 L0,160" stroke="white" stroke-width="1" opacity="0.3"/>
    </g>
    
    <!-- Overlay Box -->
    <rect x="70" y="120" width="220" height="120" fill="#808080" opacity="0.8" />
    <text x="180" y="185" font-family="Arial, sans-serif" font-weight="bold" font-size="36" fill="white" text-anchor="middle">&lt;AF&gt;03</text>

    <text x="130" y="240" font-size="45" text-anchor="middle" fill="black">output <tspan font-style="italic">y</tspan></text>
  </g>

  <!-- Arrows Panel A -->
  <!-- Input to Backbone -->
  <line x1="450" y1="260" x2="610" y2="260" stroke="black" stroke-width="6" marker-end="url(#arrow)" />
  <!-- Backbone to Output -->
  <line x1="1020" y1="260" x2="1150" y2="260" stroke="black" stroke-width="6" marker-end="url(#arrow)" />
  <!-- Input to Query Loop -->
  <path d="M 360 170 L 360 100 Q 360 100 370 100 L 440 100" stroke="black" stroke-width="6" fill="none" marker-end="url(#arrow)" />
  <!-- Query Loop to Backbone -->
  <path d="M 710 100 L 800 100 Q 810 100 810 110 L 810 180" stroke="black" stroke-width="6" fill="none" marker-end="url(#arrow)" />


  <!-- ==================== PANEL B ==================== -->
  <text x="15" y="440" font-size="55" fill="black">(b) MINI-Conv</text>

  <!-- 3D Blocks Logic -->
  <g transform="translate(250, 480)">
    <!-- Bias Embeddings (Top Stack) -->
    <g transform="translate(0, 0)">
        <rect x="0" y="0" width="120" height="120" rx="10" fill="none" stroke="#00B0F0" stroke-width="8" stroke-dasharray="20,10" />
        <text x="60" y="-15" font-size="40" text-anchor="middle" fill="black">bias embeddings</text>
        <!-- Isometric Stack -->
        <g transform="translate(20, 20)">
            <path d="M0,0 L100,0 L100,100 L0,100 Z" fill="#FFD966" stroke="white" stroke-width="1" transform="translate(40, -40)" /> <!-- Back Yellow -->
            <path d="M0,0 L100,0 L100,100 L0,100 Z" fill="#F4B16B" stroke="white" stroke-width="1" transform="translate(30, -30)" />
            <path d="M0,0 L100,0 L100,100 L0,100 Z" fill="#4472C4" stroke="white" stroke-width="1" transform="translate(20, -20)" />
            <path d="M0,0 L100,0 L100,100 L0,100 Z" fill="#84D94B" stroke="white" stroke-width="1" transform="translate(10, -10)" />
            <path d="M0,0 L100,0 L100,100 L0,100 Z" fill="#A9D18E" stroke="white" stroke-width="1" /> <!-- Front Green -->
            <!-- 3D sides -->
            <path d="M100,0 L120,-20 L120,80 L100,100 Z" fill="#2F528F" transform="translate(0, -20)" />
            <path d="M0,0 L20,-20 L120,-20 L100,0 Z" fill="#2F528F" transform="translate(0, -20)" />
        </g>
    </g>

    <!-- Weight Embeddings (Bottom Stack) -->
    <g transform="translate(0, 140)">
        <rect x="0" y="0" width="160" height="180" rx="20" fill="none" stroke="#3F68A6" stroke-width="8" stroke-dasharray="20,10" />
        <text x="80" y="220" font-size="40" text-anchor="middle" fill="black">weight embeddings</text>
        <!-- Isometric Stack -->
        <g transform="translate(10, 50)">
             <path d="M0,0 L140,0 L140,120 L0,120 Z" fill="#FFD966" stroke="white" stroke-width="1" transform="translate(40, -40)" />
            <path d="M0,0 L140,0 L140,120 L0,120 Z" fill="#F4B16B" stroke="white" stroke-width="1" transform="translate(30, -30)" />
            <path d="M0,0 L140,0 L140,120 L0,120 Z" fill="#4472C4" stroke="white" stroke-width="1" transform="translate(20, -20)" />
            <path d="M0,0 L140,0 L140,120 L0,120 Z" fill="#84D94B" stroke="white" stroke-width="1" transform="translate(10, -10)" />
            <path d="M0,0 L140,0 L140,120 L0,120 Z" fill="#A9D18E" stroke="white" stroke-width="1" />
            <!-- 3D sides -->
            <path d="M140,0 L160,-20 L160,100 L140,120 Z" fill="#2F528F" transform="translate(0, -20)" />
            <path d="M0,0 L20,-20 L160,-20 L140,0 Z" fill="#2F528F" transform="translate(0, -20)" />
        </g>
    </g>

    <!-- Vertical Slabs -->
    <g transform="translate(180, -20)">
        <!-- Top Slab -->
        <path d="M0,0 L10,-10 L10,90 L0,100 Z" fill="#4472C4" stroke="#2F528F" stroke-width="2" />
        <path d="M0,0 L10,-10 L30,-10 L20,0 Z" fill="#4472C4" stroke="#2F528F" stroke-width="2" />
        <path d="M20,0 L30,-10 L30,90 L20,100 Z" fill="#2F528F" />
        
        <!-- Bottom Slab -->
        <g transform="translate(0, 160)">
            <path d="M0,0 L10,-10 L10,130 L0,140 Z" fill="#4472C4" stroke="#2F528F" stroke-width="2" />
            <path d="M0,0 L10,-10 L50,-10 L40,0 Z" fill="#4472C4" stroke="#2F528F" stroke-width="2" />
            <path d="M40,0 L50,-10 L50,130 L40,140 Z" fill="#2F528F" />
        </g>
    </g>

    <!-- Math Operations -->
    <g transform="translate(300, 200)">
        <!-- R Circle -->
        <circle cx="0" cy="0" r="40" fill="none" stroke="black" stroke-width="6" />
        <text x="0" y="15" font-size="60" text-anchor="middle" fill="black">R</text>
        
        <!-- * Circle -->
        <circle cx="120" cy="0" r="40" fill="none" stroke="black" stroke-width="6" />
        <text x="120" y="10" font-size="60" text-anchor="middle" fill="black">*</text>
        
        <!-- + Circle -->
        <circle cx="240" cy="0" r="40" fill="none" stroke="black" stroke-width="6" />
        <line x1="240" y1="-40" x2="240" y2="40" stroke="black" stroke-width="6" />
        <line x1="200" y1="0" x2="280" y2="0" stroke="black" stroke-width="6" />
    </g>

    <!-- Arrows Panel B -->
    <!-- q(x) input -->
    <text x="-150" y="150" font-size="50" font-style="italic" fill="black">q(x)</text>
    <path d="M -80 140 L 20 140 L 20 20 L 80 20" stroke="black" stroke-width="6" fill="none" marker-end="url(#arrow)" /> <!-- To Bias -->
    <path d="M -80 140 L 100 140" stroke="black" stroke-width="6" fill="none" marker-end="url(#arrow)" /> <!-- To Weights -->

    <!-- Bias to Top Slab -->
    <line x1="140" y1="20" x2="280" y2="20" stroke="black" stroke-width="6" marker-end="url(#arrow)" />
    
    <!-- Top Slab to Add -->
    <path d="M 210 20 L 600 20 L 600 160" stroke="black" stroke-width="6" fill="none" marker-end="url(#arrow)" />

    <!-- Weights to Bot Slab -->
    <line x1="170" y1="200" x2="280" y2="200" stroke="black" stroke-width="6" marker-end="url(#arrow)" />

    <!-- Bot Slab to R -->
    <line x1="340" y1="200" x2="400" y2="200" stroke="black" stroke-width="6" marker-end="url(#arrow)" />
    <!-- R to * -->
    <line x1="520" y1="200" x2="560" y2="200" stroke="black" stroke-width="6" marker-end="url(#arrow)" />
    <!-- * to + -->
    <line x1="600" y1="200" x2="640" y2="200" stroke="black" stroke-width="6" marker-end="url(#arrow)" />
    <!-- + to h' -->
    <line x1="680" y1="200" x2="740" y2="200" stroke="black" stroke-width="6" marker-end="url(#arrow)" />
    <text x="750" y="150" font-size="50" font-style="italic" fill="black">h'</text>

    <!-- h input -->
    <text x="-100" y="300" font-size="50" font-style="italic" fill="black">h</text>
    <text x="-130" y="350" font-size="40" fill="black">hidden state</text>
    <path d="M -60 290 L 500 290 L 500 240" stroke="black" stroke-width="6" fill="none" marker-end="url(#arrow)" />

    <!-- Legend -->
    <g transform="translate(250, 300)">
        <circle cx="0" cy="0" r="30" fill="none" stroke="black" stroke-width="6" />
        <text x="0" y="15" font-size="40" text-anchor="middle" fill="black">R</text>
        <text x="40" y="15" font-size="50" fill="black">: reshape</text>

        <circle cx="200" cy="0" r="30" fill="none" stroke="black" stroke-width="6" />
        <text x="200" y="15" font-size="40" text-anchor="middle" fill="black">*</text>
        <text x="240" y="15" font-size="50" fill="black">: convolution</text>

        <circle cx="0" cy="60" r="30" fill="none" stroke="black" stroke-width="6" />
        <line x1="0" y1="30" x2="0" y2="90" stroke="black" stroke-width="6" />
        <line x1="-30" y1="60" x2="30" y2="60" stroke="black" stroke-width="6" />
        <text x="40" y="75" font-size="50" fill="black">: Element-wise addition</text>
    </g>
  </g>

  <!-- ==================== PANEL C ==================== -->
  <text x="830" y="440" font-size="55" fill="black">(c) Query function <tspan font-style="italic">q</tspan>(·)</text>

  <g transform="translate(820, 480)">
    <!-- Degradation MLP -->
    <rect x="50" y="0" width="250" height="130" rx="20" fill="none" stroke="#FFC000" stroke-width="5" stroke-dasharray="20,10" />
    <text x="175" y="35" font-size="35" text-anchor="middle" fill="black">Degradation</text>
    <text x="175" y="75" font-size="35" text-anchor="middle" fill="black">Classification</text>
    <text x="175" y="115" font-size="35" text-anchor="middle" fill="black">MLP</text>

    <!-- Patching -->
    <rect x="50" y="200" width="250" height="140" rx="20" fill="#4472C4" />
    <text x="175" y="280" font-size="40" text-anchor="middle" fill="white">patching</text>

    <!-- Switch -->
    <rect x="250" y="150" width="150" height="300" rx="10" fill="none" stroke="#00B050" stroke-width="5" stroke-dasharray="30,15" />
    <text x="325" y="380" font-size="45" text-anchor="middle" fill="black">switch</text>
    <circle cx="325" cy="200" r="18" fill="black" />
    <circle cx="325" cy="320" r="18" fill="black" />

    <!-- MLPs -->
    <rect x="420" y="120" width="250" height="140" rx="20" fill="#DDE6F4" stroke="#833C0C" stroke-width="5" />
    <text x="545" y="170" font-size="45" text-anchor="middle" fill="black">Global</text>
    <text x="545" y="220" font-size="45" text-anchor="middle" fill="black">MLP</text>

    <rect x="420" y="260" width="250" height="140" rx="20" fill="#DDE6F4" stroke="#833C0C" stroke-width="5" />
    <text x="545" y="310" font-size="45" text-anchor="middle" fill="black">Local</text>
    <text x="545" y="360" font-size="45" text-anchor="middle" fill="black">MLP</text>

    <!-- Softmax -->
    <rect x="600" y="200" width="200" height="150" rx="20" fill="#4472C4" />
    <text x="700" y="240" font-size="40" text-anchor="middle" fill="white">softmax</text>
    <text x="700" y="280" font-size="40" text-anchor="middle" fill="white">&amp;</text>
    <text x="700" y="320" font-size="40" text-anchor="middle" fill="white">argmax</text>

    <!-- Arrows Panel C -->
    <!-- x input -->
    <text x="0" y="280" font-size="50" font-style="italic" fill="black">x</text>
    <line x1="40" y1="270" x2="90" y2="270" stroke="black" stroke-width="6" marker-end="url(#arrow)" />

    <!-- Patching to Switch -->
    <line x1="300" y1="270" x2="325" y2="270" stroke="black" stroke-width="6" />
    <line x1="325" y1="270" x2="360" y2="200" stroke="black" stroke-width="6" />
    <line x1="325" y1="270" x2="360" y2="320" stroke="black" stroke-width="6" />

    <!-- Patching to Degradation -->
    <line x1="175" y1="200" x2="175" y2="140" stroke="black" stroke-width="6" marker-end="url(#arrow)" />

    <!-- Green Arrow Degradation to Switch -->
    <path d="M 300 65 L 360 65 L 360 180" stroke="#84D94B" stroke-width="6" fill="none" marker-end="url(#arrow-green)" />

    <!-- Switch to MLPs -->
    <line x1="343" y1="200" x2="410" y2="200" stroke="black" stroke-width="6" marker-end="url(#arrow)" />
    <line x1="343" y1="320" x2="410" y2="320" stroke="black" stroke-width="6" marker-end="url(#arrow)" />

    <!-- MLPs to Softmax -->
    <path d="M 670 200 L 690 200 L 690 270 L 690 270" stroke="black" stroke-width="6" fill="none" />
    <path d="M 670 320 L 690 320 L 690 270" stroke="black" stroke-width="6" fill="none" />
    <line x1="690" y1="270" x2="710" y2="270" stroke="black" stroke-width="6" marker-end="url(#arrow)" />

    <!-- Output -->
    <line x1="800" y1="270" x2="880" y2="270" stroke="black" stroke-width="6" marker-end="url(#arrow)" />
    <text x="890" y="280" font-size="50" font-style="italic" fill="black">q(x)</text>
  </g>

</svg>