<svg xmlns="http://www.w3.org/2000/svg" viewBox="0 0 1600 1100" style="background-color: white;">
  <defs>
    <!-- Arrowhead Marker -->
    <marker id="arrow" markerWidth="10" markerHeight="10" refX="9" refY="3" orient="auto" markerUnits="strokeWidth">
      <path d="M0,0 L0,6 L9,3 z" fill="#006699" />
    </marker>
    <!-- Arrowhead Marker for Grey -->
    <marker id="arrow-grey" markerWidth="10" markerHeight="10" refX="9" refY="3" orient="auto" markerUnits="strokeWidth">
      <path d="M0,0 L0,6 L9,3 z" fill="#D3D3D3" />
    </marker>
    <!-- Font Styles -->
    <style>
      .label-text { font-family: 'Times New Roman', serif; font-size: 48px; fill: black; }
      .header-text { font-family: 'Times New Roman', serif; font-size: 48px; fill: black; }
      .header-text-grey { font-family: 'Times New Roman', serif; font-size: 60px; fill: #808080; }
      .box-text { font-family: 'Times New Roman', serif; font-size: 48px; fill: black; }
      .box-text-white { font-family: 'Times New Roman', serif; font-size: 48px; fill: white; }
      .small-text { font-family: 'Times New Roman', serif; font-size: 32px; fill: white; }
      .small-text-black { font-family: 'Times New Roman', serif; font-size: 32px; fill: black; }
      .ellipsis { font-family: 'Times New Roman', serif; font-size: 40px; fill: black; font-weight: bold; }
      .prob-text { font-family: 'Times New Roman', serif; font-size: 50px; fill: black; }
      .prob-text-grey { font-family: 'Times New Roman', serif; font-size: 50px; fill: #808080; }
    </style>
  </defs>

  <!-- ==================== 1. TOP HEADER ==================== -->
  <rect x="130" y="20" width="1220" height="100" rx="20" fill="none" stroke="#FF6600" stroke-width="5" />
  
  <!-- Header Icons -->
  <g transform="translate(150, 30)">
    <rect width="100" height="100" fill="#777777" stroke="black" stroke-width="3"/>
    <text x="50" y="50" text-anchor="middle" class="small-text">&lt;AF&gt;08</text>
  </g>
  <text x="260" y="80" class="header-text">LLM</text>

  <g transform="translate(350, 40)">
    <rect width="80" height="80" fill="#777777" stroke="black" stroke-width="3"/>
    <text x="40" y="40" text-anchor="middle" class="small-text">&lt;AF&gt;11</text>
  </g>
  <text x="400" y="80" class="header-text">retriever</text>

  <g transform="translate(540, 35)">
    <rect width="80" height="80" fill="#777777" stroke="black" stroke-width="3"/>
    <text x="40" y="40" text-anchor="middle" class="small-text">&lt;AF&gt;14</text>
  </g>
  <text x="600" y="80" class="header-text">answer</text>

  <g transform="translate(750, 35)">
    <rect width="80" height="80" fill="#777777" stroke="black" stroke-width="3"/>
    <text x="40" y="40" text-anchor="middle" class="small-text">&lt;AF&gt;02</text>
  </g>
  <text x="810" y="80" class="header-text">chosen state</text>

  <g transform="translate(1030, 40)">
    <rect width="80" height="80" fill="#777777" stroke="black" stroke-width="3"/>
    <text x="40" y="40" text-anchor="middle" class="small-text">&lt;AF&gt;06</text>
  </g>
  <text x="1090" y="80" class="header-text">discarded state</text>

  <!-- ==================== 2. LEFT COLUMN (QUERY TREE) ==================== -->
  
  <!-- Root -->
  <rect x="250" y="135" width="300" height="100" rx="20" fill="#F2F2F2" stroke="#002030" stroke-width="5"/>
  <text x="400" y="190" text-anchor="middle" class="box-text">Query</text>

  <!-- Branching Arrows -->
  <line x1="400" y1="235" x2="120" y2="280" stroke="#006699" stroke-width="5" marker-end="url(#arrow)"/>
  <line x1="400" y1="235" x2="370" y2="280" stroke="#006699" stroke-width="5" marker-end="url(#arrow)"/>
  <line x1="400" y1="235" x2="600" y2="280" stroke="#006699" stroke-width="5" marker-end="url(#arrow)"/>

  <!-- Level 1 -->
  <rect x="15" y="280" width="220" height="120" rx="20" fill="#FCE4D6" stroke="#002030" stroke-width="5"/>
  <text x="110" y="330" text-anchor="middle" class="box-text">sub-query 1</text>
  <rect x="30" y="350" width="80" height="80" fill="#777777" stroke="black" stroke-width="3"/>
  <text x="70" y="400" text-anchor="middle" class="small-text">&lt;AF&gt;04</text>
  <rect x="120" y="350" width="100" height="100" fill="#777777" stroke="black" stroke-width="3"/>
  <text x="170" y="400" text-anchor="middle" class="small-text">&lt;AF&gt;21</text>
  <line x1="110" y1="350" x2="110" y2="440" stroke="#006699" stroke-width="5" marker-end="url(#arrow)"/>

  <rect x="280" y="280" width="220" height="120" rx="20" fill="#FCE4D6" stroke="#002030" stroke-width="5"/>
  <text x="380" y="330" text-anchor="middle" class="box-text">sub-query 1*</text>
  <rect x="310" y="355" width="80" height="80" fill="#777777" stroke="black" stroke-width="3"/>
  <text x="350" y="400" text-anchor="middle" class="small-text">&lt;AF&gt;09</text>
  <rect x="390" y="350" width="80" height="100" fill="#777777" stroke="black" stroke-width="3"/>
  <text x="430" y="400" text-anchor="middle" class="small-text">&lt;AF&gt;19</text>
  <line x1="380" y1="350" x2="380" y2="440" stroke="#006699" stroke-width="5" marker-end="url(#arrow)"/>

  <!-- Level 2 -->
  <rect x="15" y="440" width="220" height="120" rx="20" fill="#DAE8F6" stroke="#002030" stroke-width="5"/>
  <text x="110" y="490" text-anchor="middle" class="box-text">sub-answer 1</text>
  <rect x="30" y="580" width="80" height="100" fill="#777777" stroke="black" stroke-width="3"/>
  <text x="70" y="630" text-anchor="middle" class="small-text">&lt;AF&gt;22</text>
  <line x1="110" y1="580" x2="110" y2="670" stroke="#006699" stroke-width="5" marker-end="url(#arrow)"/>

  <rect x="280" y="440" width="220" height="120" rx="20" fill="#DAE8F6" stroke="#002030" stroke-width="5"/>
  <text x="380" y="490" text-anchor="middle" class="box-text">sub-answer 1*</text>
  <rect x="280" y="580" width="100" height="100" fill="#777777" stroke="black" stroke-width="3"/>
  <text x="330" y="630" text-anchor="middle" class="small-text">&lt;AF&gt;24</text>
  <line x1="380" y1="580" x2="380" y2="670" stroke="#006699" stroke-width="5" marker-end="url(#arrow)"/>

  <!-- Level 3 -->
  <rect x="15" y="670" width="220" height="120" rx="20" fill="#FCE4D6" stroke="#002030" stroke-width="5"/>
  <text x="110" y="720" text-anchor="middle" class="box-text">sub-query n</text>
  <rect x="45" y="760" width="70" height="80" fill="#777777" stroke="black" stroke-width="3"/>
  <text x="80" y="810" text-anchor="middle" class="small-text">&lt;AF&gt;03</text>
  <rect x="120" y="760" width="100" height="100" fill="#777777" stroke="black" stroke-width="3"/>
  <text x="170" y="810" text-anchor="middle" class="small-text">&lt;AF&gt;20</text>
  <line x1="110" y1="760" x2="110" y2="840" stroke="#006699" stroke-width="5" marker-end="url(#arrow)"/>

  <rect x="280" y="670" width="220" height="120" rx="20" fill="#FCE4D6" stroke="#002030" stroke-width="5"/>
  <text x="380" y="720" text-anchor="middle" class="box-text">sub-query n*</text>
  <rect x="300" y="760" width="80" height="80" fill="#777777" stroke="black" stroke-width="3"/>
  <text x="340" y="810" text-anchor="middle" class="small-text">&lt;AF&gt;07</text>
  <rect x="390" y="760" width="80" height="100" fill="#777777" stroke="black" stroke-width="3"/>
  <text x="430" y="810" text-anchor="middle" class="small-text">&lt;AF&gt;17</text>
  <line x1="380" y1="760" x2="380" y2="840" stroke="#006699" stroke-width="5" marker-end="url(#arrow)"/>

  <!-- Level 4 -->
  <rect x="15" y="840" width="220" height="120" rx="20" fill="#DAE8F6" stroke="#002030" stroke-width="5"/>
  <text x="110" y="890" text-anchor="middle" class="box-text">sub-answer n</text>
  <rect x="40" y="920" width="70" height="80" fill="#777777" stroke="black" stroke-width="3"/>
  <text x="85" y="970" text-anchor="middle" class="small-text">&lt;AF&gt;10</text>
  <rect x="120" y="920" width="100" height="100" fill="#777777" stroke="black" stroke-width="3"/>
  <text x="170" y="970" text-anchor="middle" class="small-text">&lt;AF&gt;18</text>
  <line x1="110" y1="920" x2="110" y2="980" stroke="#006699" stroke-width="5" marker-end="url(#arrow)"/>

  <rect x="280" y="840" width="220" height="120" rx="20" fill="#DAE8F6" stroke="#002030" stroke-width="5"/>
  <text x="380" y="890" text-anchor="middle" class="box-text">sub-answer n*</text>
  <rect x="300" y="920" width="80" height="80" fill="#777777" stroke="black" stroke-width="3"/>
  <text x="340" y="970" text-anchor="middle" class="small-text">&lt;AF&gt;05</text>
  <rect x="390" y="920" width="80" height="100" fill="#777777" stroke="black" stroke-width="3"/>
  <text x="430" y="970" text-anchor="middle" class="small-text">&lt;AF&gt;15</text>
  <line x1="380" y1="920" x2="380" y2="980" stroke="#006699" stroke-width="5" marker-end="url(#arrow)"/>

  <!-- Level 5 -->
  <rect x="530" y="900" width="100" height="100" fill="#777777" stroke="black" stroke-width="3"/>
  <text x="580" y="950" text-anchor="middle" class="small-text">&lt;AF&gt;13</text>
  <line x1="580" y1="900" x2="580" y2="980" stroke="#006699" stroke-width="5" marker-end="url(#arrow)"/>
  
  <rect x="620" y="900" width="100" height="100" fill="#777777" stroke="black" stroke-width="3"/>
  <text x="670" y="950" text-anchor="middle" class="small-text">&lt;AF&gt;23</text>

  <text x="110" y="1020" class="prob-text">P(Ans | Chain 1)</text>
  <text x="380" y="1020" class="prob-text">P(Ans | Chain 2)</text>
  <text x="580" y="1020" class="prob-text">P(Ans | Chain 3)</text>

  <!-- ==================== 3. RIGHT COLUMN (INFERENCE) ==================== -->
  
  <!-- Dashed Container -->
  <rect x="720" y="130" width="850" height="950" fill="none" stroke="#B0B0B0" stroke-width="6" stroke-dasharray="20,10"/>
  <text x="750" y="180" class="header-text-grey">Training</text>
  <text x="720" y="1080" class="header-text-grey">Inference</text>

  <!-- Top Flow -->
  <rect x="800" y="180" width="220" height="150" rx="20" fill="white" stroke="black" stroke-width="8"/>
  <text x="910" y="235" text-anchor="middle" class="box-text">Current State</text>
  
  <line x1="1020" y1="235" x2="1080" y2="235" stroke="#00B0F0" stroke-width="8" marker-end="url(#arrow)"/>
  
  <rect x="1080" y="180" width="240" height="150" rx="20" fill="#F4C7B0" stroke="#002030" stroke-width="5"/>
  <text x="1200" y="235" text-anchor="middle" class="box-text">LLM</text>
  <rect x="1090" y="215" width="50" height="50" fill="#777777" stroke="black" stroke-width="3"/>
  <text x="1115" y="240" text-anchor="middle" class="small-text">&lt;AF&gt;01</text>
  
  <line x1="1320" y1="235" x2="1380" y2="235" stroke="#00B0F0" stroke-width="8" marker-end="url(#arrow)"/>
  
  <rect x="1380" y="180" width="280" height="150" rx="20" fill="white" stroke="black" stroke-width="8"/>
  <text x="1520" y="235" text-anchor="middle" class="box-text">Next Action</text>

  <!-- ==================== 4. INFERENCE DETAIL LAYOUT ==================== -->
  
  <!-- Column 1: Greedy -->
  <g transform="translate(780, 0)">
    <ellipse cx="130" cy="380" rx="130" ry="60" fill="#F2F2F2" stroke="#002030" stroke-width="5"/>
    <text x="130" y="395" text-anchor="middle" class="box-text">query</text>
    <line x1="130" y1="440" x2="130" y2="500" stroke="#006699" stroke-width="5" marker-end="url(#arrow)"/>
    
    <rect x="100" y="500" width="100" height="100" rx="15" fill="#5B9BD5" stroke="#002030" stroke-width="5"/>
    <line x1="130" y1="600" x2="130" y2="650" stroke="#006699" stroke-width="5" marker-end="url(#arrow)"/>
    
    <text x="130" y="660" class="ellipsis">...</text>
    <line x1="130" y1="680" x2="130" y2="740" stroke="#006699" stroke-width="5" marker-end="url(#arrow)"/>
    
    <rect x="100" y="740" width="100" height="100" rx="15" fill="#5B9BD5" stroke="#002030" stroke-width="5"/>
    <line x1="130" y1="840" x2="130" y2="880" stroke="#006699" stroke-width="5" marker-end="url(#arrow)"/>
    
    <ellipse cx="130" cy="890" rx="130" ry="60" fill="#DAE8F6" stroke="#002030" stroke-width="5"/>
    <text x="130" y="905" text-anchor="middle" class="box-text">output</text>
    <text x="130" y="1000" class="header-text">Greedy</text>
  </g>

  <!-- Column 2: Best-of-N -->
  <g transform="translate(1000, 0)">
    <ellipse cx="130" cy="380" rx="130" ry="60" fill="#F2F2F2" stroke="#002030" stroke-width="5"/>
    <text x="130" y="395" text-anchor="middle" class="box-text">query</text>
    
    <!-- Tree -->
    <line x1="130" y1="440" x2="130" y2="480" stroke="#006699" stroke-width="5"/>
    <line x1="130" y1="480" x2="100" y2="520" stroke="#006699" stroke-width="5" marker-end="url(#arrow)"/>
    <line x1="130" y1="480" x2="160" y2="520" stroke="#006699" stroke-width="5" marker-end="url(#arrow)"/>
    <line x1="130" y1="480" x2="260" y2="520" stroke="#006699" stroke-width="5" marker-end="url(#arrow)"/>
    
    <rect x="80" y="520" width="100" height="100" rx="15" fill="#5B9BD5" stroke="#002030" stroke-width="5"/>
    <rect x="150" y="520" width="100" height="100" rx="15" fill="#E0E0E0" stroke="#002030" stroke-width="5" stroke-dasharray="8,4"/>
    <rect x="240" y="520" width="100" height="100" rx="15" fill="#E0E0E0" stroke="#002030" stroke-width="5" stroke-dasharray="8,4"/>
    
    <line x1="100" y1="620" x2="100" y2="660" stroke="#006699" stroke-width="5" marker-end="url(#arrow)"/>
    <line x1="160" y1="620" x2="160" y2="660" stroke="#006699" stroke-width="5" marker-end="url(#arrow)"/>
    <line x1="260" y1="620" x2="260" y2="660" stroke="#006699" stroke-width="5" marker-end="url(#arrow)"/>
    
    <text x="100" y="660" class="ellipsis">...</text>
    <text x="160" y="660" class="ellipsis">...</text>
    <text x="260" y="660" class="ellipsis">...</text>
    
    <line x1="100" y1="680" x2="100" y2="740" stroke="#006699" stroke-width="5" marker-end="url(#arrow)"/>
    <line x1="160" y1="680" x2="160" y2="740" stroke="#006699" stroke-width="5" marker-end="url(#arrow)"/>
    <line x1="260" y1="680" x2="260" y2="740" stroke="#006699" stroke-width="5" marker-end="url(#arrow)"/>
    
    <rect x="80" y="740" width="100" height="100" rx="15" fill="#5B9BD5" stroke="#002030" stroke-width="5"/>
    <rect x="150" y="740" width="100" height="100" rx="15" fill="#E0E0E0" stroke="#002030" stroke-width="5" stroke-dasharray="8,4"/>
    <rect x="240" y="740" width="100" height="100" rx="15" fill="#E0E0E0" stroke="#002030" stroke-width="5" stroke-dasharray="8,4"/>
    
    <line x1="100" y1="840" x2="100" y2="880" stroke="#006699" stroke-width="5" marker-end="url(#arrow)"/>
    <line x1="160" y1="840" x2="160" y2="880" stroke="#006699" stroke-width="5" marker-end="url(#arrow)"/>
    <line x1="260" y1="840" x2="260" y2="880" stroke="#006699" stroke-width="5" marker-end="url(#arrow)"/>
    
    <ellipse cx="130" cy="890" rx="130" ry="60" fill="#DAE8F6" stroke="#002030" stroke-width="5"/>
    <text x="130" y="905" text-anchor="middle" class="box-text">output</text>
    
    <!-- Rollouts -->
    <rect x="120" y="580" width="100" height="300" fill="none" stroke="#002030" stroke-width="5"/>
    <text x="170" y="860" class="prob-text">rollouts</text>
    
    <rect x="120" y="580" width="100" height="300" fill="none" stroke="#002030" stroke-width="5"/>
    <text x="170" y="860" class="prob-text">rollouts</text>
    
    <!-- Rollout Details -->
    <g transform="translate(120, 580)">
        <rect x="20" y="20" width="60" height="60" rx="10" fill="#E0E0E0" stroke="#002030" stroke-width="5" stroke-dasharray="8,4"/>
        <rect x="100" y="20" width="60" height="60" rx="10" fill="#E0E0E0" stroke="#002030" stroke-width="5" stroke-dasharray="8,4"/>
        <line x1="50" y1="80" x2="50" y2="140" stroke="#006699" stroke-width="5" marker-end="url(#arrow)"/>
        <line x1="140" y1="80" x2="140" y2="140" stroke="#006699" stroke-width="5" marker-end="url(#arrow)"/>
        <text x="100" y="180" class="ellipsis">...</text>
        <rect x="20" y="180" width="60" height="60" rx="10" fill="#E0E0E0" stroke="#002030" stroke-width="5" stroke-dasharray="8,4"/>
        <rect x="100" y="180" width="60" height="60" rx="10" fill="#E0E0E0" stroke="#002030" stroke-width="5" stroke-dasharray="8,4"/>
        <line x1="50" y1="240" x2="50" y2="300" stroke="#006699" stroke-width="5" marker-end="url(#arrow)"/>
        <line x1="140" y1="240" x2="140" y2="300" stroke="#006699" stroke-width="5" marker-end="url(#arrow)"/>
    </g>
    
    <g transform="translate(120, 580)">
        <rect x="20" y="20" width="60" height="60" rx="10" fill="#E0E0E0" stroke="#002030" stroke-width="5" stroke-dasharray="8,4"/>
        <rect x="100" y="20" width="60" height="60" rx="10" fill="#E0E0E0" stroke="#002030" stroke-width="5" stroke-dasharray="8,4"/>
        <line x1="50" y1="80" x2="50" y2="140" stroke="#006699" stroke-width="5" marker-end="url(#arrow)"/>
        <line x1="140" y1="80" x2="140" y2="140" stroke="#006699" stroke-width="5" marker-end="url(#arrow)"/>
        <text x="100" y="180" class="ellipsis">...</text>
        <rect x="20" y="180" width="60" height="60" rx="10" fill="#E0E0E0" stroke="#002030" stroke-width="5" stroke-dasharray="8,4"/>
        <rect x="100" y="180" width="60" height="60" rx="10" fill="#E0E0E0" stroke="#002030" stroke-width="5" stroke-dasharray="8,4"/>
        <line x1="50" y1="240" x2="50" y2="300" stroke="#006699" stroke-width="5" marker-end="url(#arrow)"/>
        <line x1="140" y1="240" x2="140" y2="300" stroke="#006699" stroke-width="5" marker-end="url(#arrow)"/>
    </g>
    
    <!-- Convergence -->
    <line x1="100" y1="800" x2="100" y2="850" stroke="#006699" stroke-width="5" marker-end="url(#arrow)"/>
    <line x1="160" y1="800" x2="160" y2="850" stroke="#006699" stroke-width="5" marker-end="url(#arrow)"/>
    <line x1="260" y1="800" x2="260" y2="850" stroke="#006699" stroke-width="5" marker-end="url(#arrow)"/>
    
    <line x1="100" y1="850" x2="130" y2="850" stroke="#D3D3D3" stroke-width="5" marker-end="url(#arrow-grey)"/>
    <line x1="160" y1="850" x2="130" y2="850" stroke="#D3D3D3" stroke-width="5" marker-end="url(#arrow-grey)"/>
    <line x1="260" y1="850" x2="130" y2="850" stroke="#D3D3D3" stroke-width="5" marker-end="url(#arrow-grey)"/>
    
    <rect x="100" y="850" width="100" height="100" rx="15" fill="#E0E0E0" stroke="#002030" stroke-width="5"/>
    <text x="130" y="905" text-anchor="middle" class="box-text">output</text>
    
    <text x="130" y="1000" class="header-text">Best-of-N</text>
  </g>

  <!-- Column 3: Tree Search -->
  <g transform="translate(1300, 0)">
    <ellipse cx="130" cy="380" rx="130" ry="60" fill="#F2F2F2" stroke="#002030" stroke-width="5"/>
    <text x="130" y="395" text-anchor="middle" class="box-text">query</text>
    
    <!-- Tree -->
    <line x1="130" y1="440" x2="130" y2="480" stroke="#006699" stroke-width="5"/>
    <line x1="130" y1="480" x2="100" y2="520" stroke="#006699" stroke-width="5" marker-end="url(#arrow)"/>
    <line x1="130" y1="480" x2="160" y2="520" stroke="#006699" stroke-width="5" marker-end="url(#arrow)"/>
    <line x1="130" y1="480" x2="260" y2="520" stroke="#006699" stroke-width="5" marker-end="url(#arrow)"/>
    
    <rect x="80" y="520" width="100" height="100" rx="15" fill="#E0E0E0" stroke="#002030" stroke-width="5" stroke-dasharray="8,4"/>
    <rect x="150" y="520" width="100" height="100" rx="15" fill="#5B9BD5" stroke="#002030" stroke-width="5"/>
    <rect x="240" y="520" width="100" height="100" rx="15" fill="#E0E0E0" stroke="#002030" stroke-width="5" stroke-dasharray="8,4"/>
    
    <line x1="100" y1="620" x2="100" y2="660" stroke="#006699" stroke-width="5" marker-end="url(#arrow)"/>
    <line x1="160" y1="620" x2="160" y2="660" stroke="#006699" stroke-width="5" marker-end="url(#arrow)"/>
    <line x1="260" y1="620" x2="260" y2="660" stroke="#006699" stroke-width="5" marker-end="url(#arrow)"/>
    
    <text x="100" y="660" class="ellipsis">...</text>
    <text x="160" y="660" class="ellipsis">...</text>
    <text x="260" y="660" class="ellipsis">...</text>
    
    <line x1="100" y1="680" x2="100" y2="740" stroke="#006699" stroke-width="5" marker-end="url(#arrow)"/>
    <line x1="160" y1="680" x2="160" y2="740" stroke="#006699" stroke-width="5" marker-end="url(#arrow)"/>
    <line x1="260" y1="680" x2="260" y2="740" stroke="#006699" stroke-width="5" marker-end="url(#arrow)"/>
    
    <rect x="80" y="740" width="100" height="100" rx="15" fill="#E0E0E0" stroke="#002030" stroke-width="5" stroke-dasharray="8,4"/>
    <rect x="150" y="740" width="100" height="100" rx="15" fill="#5B9BD5" stroke="#002030" stroke-width="5"/>
    <rect x="240" y="740" width="100" height="100" rx="15" fill="#E0E0E0" stroke="#002030" stroke-width="5" stroke-dasharray="8,4"/>
    
    <line x1="100" y1="840" x2="100" y2="880" stroke="#006699" stroke-width="5" marker-end="url(#arrow)"/>
    <line x1="160" y1="840" x2="160" y2="880" stroke="#006699" stroke-width="5" marker-end="url(#arrow)"/>
    <line x1="260" y1="840" x2="260" y2="880" stroke="#006699" stroke-width="5" marker-end="url(#arrow)"/>
    
    <ellipse cx="130" cy="890" rx="130" ry="60" fill="#DAE8F6" stroke="#002030" stroke-width="5"/>
    <text x="130" y="905" text-anchor="middle" class="box-text">output</text>
    
    <text x="130" y="1000" class="header-text">Tree Search</text>
  </g>

  <!-- ==================== 5. BOTTOM LEFT (REJECTION SAMPLING) ==================== -->
  <text x="15" y="1080" class="header-text-grey">Rejection Sampling</text>
  <path d="M 350 1020 Q 380 980 380 950" fill="none" stroke="#00B080" stroke-width="10" stroke-linecap="round"/>

</svg>