<svg xmlns="http://www.w3.org/2000/svg" viewBox="-3.0 14.0 1630.0 1074.0" style="background-color: white;">
  <defs>
    <!-- Arrowhead Marker -->
    <marker id="arrow" markerWidth="10" markerHeight="10" refX="9" refY="3" orient="auto" markerUnits="strokeWidth">
      <path d="M0,0 L0,6 L9,3 z" fill="#1F77B4" />
    </marker>
    <!-- Flame Gradient -->
    <linearGradient id="flameGrad" x1="0%" y1="100%" x2="0%" y2="0%">
      <stop offset="0%" style="stop-color:#FF4500;stop-opacity:1" />
      <stop offset="100%" style="stop-color:#FFD700;stop-opacity:1" />
    </linearGradient>
    <!-- Hatching Pattern -->
    <pattern id="hatch" patternUnits="userSpaceOnUse" width="10" height="10" patternTransform="rotate(45)">
      <line x1="0" y1="0" x2="0" y2="10" stroke="#999" stroke-width="2" />
    </pattern>
  </defs>

  <!-- ==================== LEGEND ==================== -->
  <g transform="translate(130, 20)">
    <rect x="0" y="0" width="1200" height="90" rx="15" fill="none" stroke="#ED7D31" stroke-width="4" />
    
    <!-- LLM Icon -->
    <g transform="translate(20, 20)">
      <rect x="0" y="0" width="80" height="70" rx="10" fill="white" stroke="black" stroke-width="4" />
      <circle cx="20" cy="20" r="5" fill="white" stroke="black" stroke-width="3" />
      <circle cx="60" cy="20" r="5" fill="white" stroke="black" stroke-width="3" />
      <line x1="25" y1="20" x2="35" y2="20" stroke="black" stroke-width="3" />
      <line x1="55" y1="20" x2="45" y2="20" stroke="black" stroke-width="3" />
      <line x1="20" y1="25" x2="20" y2="40" stroke="black" stroke-width="3" />
      <line x1="60" y1="25" x2="60" y2="40" stroke="black" stroke-width="3" />
      <line x1="20" y1="40" x2="60" y2="40" stroke="black" stroke-width="3" />
      <circle cx="40" cy="50" r="5" fill="white" stroke="black" stroke-width="3" />
      <path d="M35,50 Q40,55 45,50" fill="none" stroke="black" stroke-width="3" />
      <line x1="40" y1="0" x2="40" y2="-10" stroke="black" stroke-width="3" />
      <circle cx="40" cy="-10" r="5" fill="white" stroke="black" stroke-width="3" />
      <line x1="40" y1="-10" x2="30" y2="-20" stroke="black" stroke-width="3" />
      <line x1="40" y1="-10" x2="50" y2="-20" stroke="black" stroke-width="3" />
    </g>
    <text x="110" y="55" font-family="Arial, sans-serif" font-size="40" fill="black">LLM</text>

    <!-- Retriever Icon -->
    <g transform="translate(280, 20)">
      <circle cx="30" cy="30" r="25" fill="white" stroke="black" stroke-width="4" />
      <line x1="30" y1="5" x2="30" y2="10" stroke="black" stroke-width="4" />
      <line x1="15" y1="10" x2="45" y2="10" stroke="black" stroke-width="4" />
      <line x1="15" y1="15" x2="45" y2="15" stroke="black" stroke-width="4" />
      <line x1="15" y1="20" x2="45" y2="20" stroke="black" stroke-width="4" />
      <line x1="15" y1="25" x2="45" y2="25" stroke="black" stroke-width="4" />
      <line x1="15" y1="30" x2="45" y2="30" stroke="black" stroke-width="4" />
      <line x1="30" y1="30" x2="30" y2="45" stroke="black" stroke-width="4" />
      <line x1="20" y1="45" x2="40" y2="45" stroke="black" stroke-width="4" />
    </g>
    <text x="340" y="55" font-family="Arial, sans-serif" font-size="40" fill="black">retriever</text>

    <!-- Answer Icon -->
    <g transform="translate(480, 20)">
      <circle cx="30" cy="30" r="25" fill="#00FF00" stroke="black" stroke-width="4" />
      <text x="30" y="40" font-family="Arial, sans-serif" font-size="40" fill="white" text-anchor="middle">A</text>
      <path d="M10,50 Q30,65 50,50" fill="none" stroke="black" stroke-width="4" />
    </g>
    <text x="560" y="55" font-family="Arial, sans-serif" font-size="40" fill="black">answer</text>

    <!-- Chosen State -->
    <rect x="650" y="20" width="70" height="70" rx="10" fill="#4488CC" stroke="black" stroke-width="4" />
    <text x="780" y="55" font-family="Arial, sans-serif" font-size="40" fill="black">chosen state</text>

    <!-- Discarded State -->
    <rect x="950" y="20" width="70" height="70" rx="10" fill="url(#hatch)" stroke="black" stroke-width="4" />
    <text x="1080" y="55" font-family="Arial, sans-serif" font-size="40" fill="black">discarded state</text>
  </g>

  <!-- ==================== LEFT COLUMN: QUERY TREE ==================== -->
  <g transform="translate(0, 100)">
    <!-- Root -->
    <rect x="250" y="0" width="280" height="80" rx="10" fill="#F2F2F2" stroke="black" stroke-width="4" />
    <text x="390" y="55" font-family="Arial, sans-serif" font-size="50" fill="black" text-anchor="middle">Query</text>

    <!-- Branching Arrows -->
    <line x1="390" y1="80" x2="150" y2="200" stroke="#1F77B4" stroke-width="4" marker-end="url(#arrow)" />
    <line x1="390" y1="80" x2="390" y2="200" stroke="#1F77B4" stroke-width="4" marker-end="url(#arrow)" />
    <line x1="390" y1="80" x2="630" y2="200" stroke="#1F77B4" stroke-width="4" marker-end="url(#arrow)" />

    <!-- Column 1 -->
    <g transform="translate(20, 200)">
      <!-- Node 1 -->
      <rect x="0" y="0" width="220" height="100" rx="15" fill="#FCE4D6" stroke="black" stroke-width="4" />
      <text x="110" y="60" font-family="Arial, sans-serif" font-size="36" fill="black" text-anchor="middle">sub-query 1</text>
      <!-- Icon -->
      <g transform="translate(30, 110)">
        <circle cx="20" cy="20" r="25" fill="white" stroke="black" stroke-width="4" />
        <circle cx="10" cy="10" r="3" fill="black" />
        <circle cx="30" cy="10" r="3" fill="black" />
        <line x1="15" y1="10" x2="25" y2="10" stroke="black" stroke-width="3" />
        <line x1="10" y1="20" x2="10" y2="40" stroke="black" stroke-width="3" />
        <line x1="30" y1="20" x2="30" y2="40" stroke="black" stroke-width="3" />
        <line x1="10" y1="40" x2="30" y2="40" stroke="black" stroke-width="3" />
        <circle cx="20" cy="50" r="5" fill="white" stroke="black" stroke-width="3" />
        <path d="M15,50 Q20,55 25,50" fill="none" stroke="black" stroke-width="3" />
        <line x1="20" y1="0" x2="20" y2="-10" stroke="black" stroke-width="3" />
        <circle cx="20" cy="-10" r="5" fill="white" stroke="black" stroke-width="3" />
        <line x1="20" y1="-10" x2="10" y2="-20" stroke="black" stroke-width="3" />
        <line x1="20" y1="-10" x2="30" y2="-20" stroke="black" stroke-width="3" />
      </g>
      <!-- Arrow Down -->
      <line x1="110" y1="100" x2="110" y2="160" stroke="#1F77B4" stroke-width="4" marker-end="url(#arrow)" />
      <!-- Icon -->
      <g transform="translate(40, 170)">
        <circle cx="20" cy="20" r="25" fill="white" stroke="black" stroke-width="4" />
        <circle cx="10" cy="10" r="3" fill="black" />
        <circle cx="30" cy="10" r="3" fill="black" />
        <line x1="15" y1="10" x2="25" y2="10" stroke="black" stroke-width="3" />
        <line x1="10" y1="20" x2="10" y2="40" stroke="black" stroke-width="3" />
        <line x1="30" y1="20" x2="30" y2="40" stroke="black" stroke-width="3" />
        <line x1="10" y1="40" x2="30" y2="40" stroke="black" stroke-width="3" />
        <circle cx="20" cy="50" r="5" fill="white" stroke="black" stroke-width="3" />
        <path d="M15,50 Q20,55 25,50" fill="none" stroke="black" stroke-width="3" />
        <line x1="20" y1="0" x2="20" y2="-10" stroke="black" stroke-width="3" />
        <circle cx="20" cy="-10" r="5" fill="white" stroke="black" stroke-width="3" />
        <line x1="20" y1="-10" x2="10" y2="-20" stroke="black" stroke-width="3" />
        <line x1="20" y1="-10" x2="30" y2="-20" stroke="black" stroke-width="3" />
      </g>
      <!-- Node 2 -->
      <rect x="0" y="180" width="220" height="100" rx="15" fill="#DAE8FC" stroke="black" stroke-width="4" />
      <text x="110" y="240" font-family="Arial, sans-serif" font-size="36" fill="black" text-anchor="middle">sub-answer 1</text>
      <!-- Ellipsis -->
      <text x="110" y="300" font-family="Arial, sans-serif" font-size="30" fill="black" text-anchor="middle">.......</text>
    </g>

    <!-- Column 2 -->
    <g transform="translate(280, 200)">
      <!-- Node 1 -->
      <rect x="0" y="0" width="220" height="100" rx="15" fill="#FCE4D6" stroke="black" stroke-width="4" />
      <text x="110" y="60" font-family="Arial, sans-serif" font-size="36" fill="black" text-anchor="middle">sub-query 1*</text>
      <!-- Icon -->
      <g transform="translate(30, 110)">
        <circle cx="20" cy="20" r="25" fill="white" stroke="black" stroke-width="4" />
        <circle cx="10" cy="10" r="3" fill="black" />
        <circle cx="30" cy="10" r="3" fill="black" />
        <line x1="15" y1="10" x2="25" y2="10" stroke="black" stroke-width="3" />
        <line x1="10" y1="20" x2="10" y2="40" stroke="black" stroke-width="3" />
        <line x1="30" y1="20" x2="30" y2="40" stroke="black" stroke-width="3" />
        <line x1="10" y1="40" x2="30" y2="40" stroke="black" stroke-width="3" />
        <circle cx="20" cy="50" r="5" fill="white" stroke="black" stroke-width="3" />
        <path d="M15,50 Q20,55 25,50" fill="none" stroke="black" stroke-width="3" />
        <line x1="20" y1="0" x2="20" y2="-10" stroke="black" stroke-width="3" />
        <circle cx="20" cy="-10" r="5" fill="white" stroke="black" stroke-width="3" />
        <line x1="20" y1="-10" x2="10" y2="-20" stroke="black" stroke-width="3" />
        <line x1="20" y1="-10" x2="30" y2="-20" stroke="black" stroke-width="3" />
      </g>
      <!-- Arrow Down -->
      <line x1="110" y1="100" x2="110" y2="160" stroke="#1F77B4" stroke-width="4" marker-end="url(#arrow)" />
      <!-- Icon -->
      <g transform="translate(40, 170)">
        <circle cx="20" cy="20" r="25" fill="white" stroke="black" stroke-width="4" />
        <circle cx="10" cy="10" r="3" fill="black" />
        <circle cx="30" cy="10" r="3" fill="black" />
        <line x1="15" y1="10" x2="25" y2="10" stroke="black" stroke-width="3" />
        <line x1="10" y1="20" x2="10" y2="40" stroke="black" stroke-width="3" />
        <line x1="30" y1="20" x2="30" y2="40" stroke="black" stroke-width="3" />
        <line x1="10" y1="40" x2="30" y2="40" stroke="black" stroke-width="3" />
        <circle cx="20" cy="50" r="5" fill="white" stroke="black" stroke-width="3" />
        <path d="M15,50 Q20,55 25,50" fill="none" stroke="black" stroke-width="3" />
        <line x1="20" y1="0" x2="20" y2="-10" stroke="black" stroke-width="3" />
        <circle cx="20" cy="-10" r="5" fill="white" stroke="black" stroke-width="3" />
        <line x1="20" y1="-10" x2="10" y2="-20" stroke="black" stroke-width="3" />
        <line x1="20" y1="-10" x2="30" y2="-20" stroke="black" stroke-width="3" />
      </g>
      <!-- Node 2 -->
      <rect x="0" y="180" width="220" height="100" rx="15" fill="#DAE8FC" stroke="black" stroke-width="4" />
      <text x="110" y="240" font-family="Arial, sans-serif" font-size="36" fill="black" text-anchor="middle">sub-answer 1*</text>
      <!-- Ellipsis -->
      <text x="110" y="300" font-family="Arial, sans-serif" font-size="30" fill="black" text-anchor="middle">.......</text>
    </g>

    <!-- Column 3 -->
    <g transform="translate(560, 200)">
      <text x="110" y="300" font-family="Arial, sans-serif" font-size="30" fill="black" text-anchor="middle">.......</text>
    </g>

    <!-- Column 4 -->
    <g transform="translate(20, 500)">
      <!-- Node 1 -->
      <rect x="0" y="0" width="220" height="100" rx="15" fill="#FCE4D6" stroke="black" stroke-width="4" />
      <text x="110" y="60" font-family="Arial, sans-serif" font-size="36" fill="black" text-anchor="middle">sub-query n</text>
      <!-- Icon -->
      <g transform="translate(30, 110)">
        <circle cx="20" cy="20" r="25" fill="white" stroke="black" stroke-width="4" />
        <circle cx="10" cy="10" r="3" fill="black" />
        <circle cx="30" cy="10" r="3" fill="black" />
        <line x1="15" y1="10" x2="25" y2="10" stroke="black" stroke-width="3" />
        <line x1="10" y1="20" x2="10" y2="40" stroke="black" stroke-width="3" />
        <line x1="30" y1="20" x2="30" y2="40" stroke="black" stroke-width="3" />
        <line x1="10" y1="40" x2="30" y2="40" stroke="black" stroke-width="3" />
        <circle cx="20" cy="50" r="5" fill="white" stroke="black" stroke-width="3" />
        <path d="M15,50 Q20,55 25,50" fill="none" stroke="black" stroke-width="3" />
        <line x1="20" y1="0" x2="20" y2="-10" stroke="black" stroke-width="3" />
        <circle cx="20" cy="-10" r="5" fill="white" stroke="black" stroke-width="3" />
        <line x1="20" y1="-10" x2="10" y2="-20" stroke="black" stroke-width="3" />
        <line x1="20" y1="-10" x2="30" y2="-20" stroke="black" stroke-width="3" />
      </g>
      <!-- Arrow Down -->
      <line x1="110" y1="100" x2="110" y2="160" stroke="#1F77B4" stroke-width="4" marker-end="url(#arrow)" />
      <!-- Icon -->
      <g transform="translate(40, 170)">
        <circle cx="20" cy="20" r="25" fill="white" stroke="black" stroke-width="4" />
        <circle cx="10" cy="10" r="3" fill="black" />
        <circle cx="30" cy="10" r="3" fill="black" />
        <line x1="15" y1="10" x2="25" y2="10" stroke="black" stroke-width="3" />
        <line x1="10" y1="20" x2="10" y2="40" stroke="black" stroke-width="3" />
        <line x1="30" y1="20" x2="30" y2="40" stroke="black" stroke-width="3" />
        <line x1="10" y1="40" x2="30" y2="40" stroke="black" stroke-width="3" />
        <circle cx="20" cy="50" r="5" fill="white" stroke="black" stroke-width="3" />
        <path d="M15,50 Q20,55 25,50" fill="none" stroke="black" stroke-width="3" />
        <line x1="20" y1="0" x2="20" y2="-10" stroke="black" stroke-width="3" />
        <circle cx="20" cy="-10" r="5" fill="white" stroke="black" stroke-width="3" />
        <line x1="20" y1="-10" x2="10" y2="-20" stroke="black" stroke-width="3" />
        <line x1="20" y1="-10" x2="30" y2="-20" stroke="black" stroke-width="3" />
      </g>
      <!-- Node 2 -->
      <rect x="0" y="180" width="220" height="100" rx="15" fill="#DAE8FC" stroke="black" stroke-width="4" />
      <text x="110" y="240" font-family="Arial, sans-serif" font-size="36" fill="black" text-anchor="middle">sub-answer n</text>
      <!-- Answer Icon -->
      <g transform="translate(30, 290)">
        <circle cx="30" cy="30" r="25" fill="#00FF00" stroke="black" stroke-width="4" />
        <text x="30" y="40" font-family="Arial, sans-serif" font-size="40" fill="white" text-anchor="middle">A</text>
        <path d="M10,50 Q30,65 50,50" fill="none" stroke="black" stroke-width="4" />
      </g>
      <!-- Arrow Down -->
      <line x1="110" y1="280" x2="110" y2="340" stroke="#1F77B4" stroke-width="4" marker-end="url(#arrow)" />
      <!-- Icon -->
      <g transform="translate(100, 350)">
        <circle cx="20" cy="20" r="25" fill="white" stroke="black" stroke-width="4" />
        <circle cx="10" cy="10" r="3" fill="black" />
        <circle cx="30" cy="10" r="3" fill="black" />
        <line x1="15" y1="10" x2="25" y2="10" stroke="black" stroke-width="3" />
        <line x1="10" y1="20" x2="10" y2="40" stroke="black" stroke-width="3" />
        <line x1="30" y1="20" x2="30" y2="40" stroke="black" stroke-width="3" />
        <line x1="10" y1="40" x2="30" y2="40" stroke="black" stroke-width="3" />
        <circle cx="20" cy="50" r="5" fill="white" stroke="black" stroke-width="3" />
        <path d="M15,50 Q20,55 25,50" fill="none" stroke="black" stroke-width="3" />
        <line x1="20" y1="0" x2="20" y2="-10" stroke="black" stroke-width="3" />
        <circle cx="20" cy="-10" r="5" fill="white" stroke="black" stroke-width="3" />
        <line x1="20" y1="-10" x2="10" y2="-20" stroke="black" stroke-width="3" />
        <line x1="20" y1="-10" x2="30" y2="-20" stroke="black" stroke-width="3" />
      </g>
      <!-- Text -->
      <text x="110" y="410" font-family="Arial, sans-serif" font-size="36" fill="black" text-anchor="middle">P(Ans | Chain 1)</text>
    </g>

    <g transform="translate(280, 500)">
      <!-- Node 1 -->
      <rect x="0" y="0" width="220" height="100" rx="15" fill="#FCE4D6" stroke="black" stroke-width="4" />
      <text x="110" y="60" font-family="Arial, sans-serif" font-size="36" fill="black" text-anchor="middle">sub-query n*</text>
      <!-- Icon -->
      <g transform="translate(30, 110)">
        <circle cx="20" cy="20" r="25" fill="white" stroke="black" stroke-width="4" />
        <circle cx="10" cy="10" r="3" fill="black" />
        <circle cx="30" cy="10" r="3" fill="black" />
        <line x1="15" y1="10" x2="25" y2="10" stroke="black" stroke-width="3" />
        <line x1="10" y1="20" x2="10" y2="40" stroke="black" stroke-width="3" />
        <line x1="30" y1="20" x2="30" y2="40" stroke="black" stroke-width="3" />
        <line x1="10" y1="40" x2="30" y2="40" stroke="black" stroke-width="3" />
        <circle cx="20" cy="50" r="5" fill="white" stroke="black" stroke-width="3" />
        <path d="M15,50 Q20,55 25,50" fill="none" stroke="black" stroke-width="3" />
        <line x1="20" y1="0" x2="20" y2="-10" stroke="black" stroke-width="3" />
        <circle cx="20" cy="-10" r="5" fill="white" stroke="black" stroke-width="3" />
        <line x1="20" y1="-10" x2="10" y2="-20" stroke="black" stroke-width="3" />
        <line x1="20" y1="-10" x2="30" y2="-20" stroke="black" stroke-width="3" />
      </g>
      <!-- Arrow Down -->
      <line x1="110" y1="100" x2="110" y2="160" stroke="#1F77B4" stroke-width="4" marker-end="url(#arrow)" />
      <!-- Icon -->
      <g transform="translate(40, 170)">
        <circle cx="20" cy="20" r="25" fill="white" stroke="black" stroke-width="4" />
        <circle cx="10" cy="10" r="3" fill="black" />
        <circle cx="30" cy="10" r="3" fill="black" />
        <line x1="15" y1="10" x2="25" y2="10" stroke="black" stroke-width="3" />
        <line x1="10" y1="20" x2="10" y2="40" stroke="black" stroke-width="3" />
        <line x1="30" y1="20" x2="30" y2="40" stroke="black" stroke-width="3" />
        <line x1="10" y1="40" x2="30" y2="40" stroke="black" stroke-width="3" />
        <circle cx="20" cy="50" r="5" fill="white" stroke="black" stroke-width="3" />
        <path d="M15,50 Q20,55 25,50" fill="none" stroke="black" stroke-width="3" />
        <line x1="20" y1="0" x2="20" y2="-10" stroke="black" stroke-width="3" />
        <circle cx="20" cy="-10" r="5" fill="white" stroke="black" stroke-width="3" />
        <line x1="20" y1="-10" x2="10" y2="-20" stroke="black" stroke-width="3" />
        <line x1="20" y1="-10" x2="30" y2="-20" stroke="black" stroke-width="3" />
      </g>
      <!-- Node 2 -->
      <rect x="0" y="180" width="220" height="100" rx="15" fill="#DAE8FC" stroke="black" stroke-width="4" />
      <text x="110" y="240" font-family="Arial, sans-serif" font-size="36" fill="black" text-anchor="middle">sub-answer n*</text>
      <!-- Answer Icon -->
      <g transform="translate(30, 290)">
        <circle cx="30" cy="30" r="25" fill="#00FF00" stroke="black" stroke-width="4" />
        <text x="30" y="40" font-family="Arial, sans-serif" font-size="40" fill="white" text-anchor="middle">A</text>
        <path d="M10,50 Q30,65 50,50" fill="none" stroke="black" stroke-width="4" />
      </g>
      <!-- Arrow Down -->
      <line x1="110" y1="280" x2="110" y2="340" stroke="#1F77B4" stroke-width="4" marker-end="url(#arrow)" />
      <!-- Icon -->
      <g transform="translate(100, 350)">
        <circle cx="20" cy="20" r="25" fill="white" stroke="black" stroke-width="4" />
        <circle cx="10" cy="10" r="3" fill="black" />
        <circle cx="30" cy="10" r="3" fill="black" />
        <line x1="15" y1="10" x2="25" y2="10" stroke="black" stroke-width="3" />
        <line x1="10" y1="20" x2="10" y2="40" stroke="black" stroke-width="3" />
        <line x1="30" y1="20" x2="30" y2="40" stroke="black" stroke-width="3" />
        <line x1="10" y1="40" x2="30" y2="40" stroke="black" stroke-width="3" />
        <circle cx="20" cy="50" r="5" fill="white" stroke="black" stroke-width="3" />
        <path d="M15,50 Q20,55 25,50" fill="none" stroke="black" stroke-width="3" />
        <line x1="20" y1="0" x2="20" y2="-10" stroke="black" stroke-width="3" />
        <circle cx="20" cy="-10" r="5" fill="white" stroke="black" stroke-width="3" />
        <line x1="20" y1="-10" x2="10" y2="-20" stroke="black" stroke-width="3" />
        <line x1="20" y1="-10" x2="30" y2="-20" stroke="black" stroke-width="3" />
      </g>
      <!-- Text -->
      <text x="110" y="410" font-family="Arial, sans-serif" font-size="36" fill="black" text-anchor="middle">P(Ans | Chain 2)</text>
    </g>

    <g transform="translate(560, 500)">
      <text x="110" y="300" font-family="Arial, sans-serif" font-size="30" fill="black" text-anchor="middle">.......</text>
    </g>

    <g transform="translate(560, 800)">
      <!-- Answer Icon -->
      <g transform="translate(30, 0)">
        <circle cx="30" cy="30" r="25" fill="#00FF00" stroke="black" stroke-width="4" />
        <text x="30" y="40" font-family="Arial, sans-serif" font-size="40" fill="white" text-anchor="middle">A</text>
        <path d="M10,50 Q30,65 50,50" fill="none" stroke="black" stroke-width="4" />
      </g>
      <!-- Arrow Down -->
      <line x1="110" y1="30" x2="110" y2="80" stroke="#1F77B4" stroke-width="4" marker-end="url(#arrow)" />
      <!-- Icon -->
      <g transform="translate(100, 90)">
        <circle cx="20" cy="20" r="25" fill="white" stroke="black" stroke-width="4" />
        <circle cx="10" cy="10" r="3" fill="black" />
        <circle cx="30" cy="10" r="3" fill="black" />
        <line x1="15" y1="10" x2="25" y2="10" stroke="black" stroke-width="3" />
        <line x1="10" y1="20" x2="10" y2="40" stroke="black" stroke-width="3" />
        <line x1="30" y1="20" x2="30" y2="40" stroke="black" stroke-width="3" />
        <line x1="10" y1="40" x2="30" y2="40" stroke="black" stroke-width="3" />
        <circle cx="20" cy="50" r="5" fill="white" stroke="black" stroke-width="3" />
        <path d="M15,50 Q20,55 25,50" fill="none" stroke="black" stroke-width="3" />
        <line x1="20" y1="0" x2="20" y2="-10" stroke="black" stroke-width="3" />
        <circle cx="20" cy="-10" r="5" fill="white" stroke="black" stroke-width="3" />
        <line x1="20" y1="-10" x2="10" y2="-20" stroke="black" stroke-width="3" />
        <line x1="20" y1="-10" x2="30" y2="-20" stroke="black" stroke-width="3" />
      </g>
      <!-- Text -->
      <text x="110" y="130" font-family="Arial, sans-serif" font-size="36" fill="black" text-anchor="middle">P(Ans | Chain 3)</text>
    </g>
  </g>

  <!-- ==================== DIVIDER ==================== -->
  <line x1="720" y1="130" x2="720" y2="1080" stroke="#B0B0B0" stroke-width="4" stroke-dasharray="10,10" />
  <text x="750" y="170" font-family="Arial, sans-serif" font-size="40" fill="#999" font-style="italic">Training</text>
  <text x="750" y="1080" font-family="Arial, sans-serif" font-size="40" fill="#999" font-style="italic">Inference</text>

  <!-- ==================== RIGHT COLUMN: INFERENCE ==================== -->
  
  <!-- Top Flow -->
  <g transform="translate(800, 180)">
    <!-- Current State -->
    <path d="M0,0 h180 a10,10 0 0 1 10,10 v60 a10,10 0 0 1 -10,10 h-100 l-20,20 v-20 h-60 a10,10 0 0 1 -10,-10 v-60 a10,10 0 0 1 10,-10 z" fill="white" stroke="black" stroke-width="5" />
    <text x="100" y="50" font-family="Arial, sans-serif" font-size="36" fill="black" text-anchor="middle">Current State</text>
    
    <!-- Arrow -->
    <line x1="190" y1="50" x2="280" y2="50" stroke="#1F77B4" stroke-width="4" marker-end="url(#arrow)" />
    
    <!-- LLM Box -->
    <rect x="290" y="0" width="230" height="100" rx="15" fill="#F4C7B0" stroke="black" stroke-width="4" />
    <g transform="translate(310, 20)">
      <path d="M10,10 Q20,0 30,10 Q40,20 30,30 Q20,40 10,30 Q0,20 10,10" fill="url(#flameGrad)" stroke="black" stroke-width="2" />
    </g>
    <text x="405" y="55" font-family="Arial, sans-serif" font-size="36" fill="black" text-anchor="middle">LLM</text>
    
    <!-- Arrow -->
    <line x1="530" y1="50" x2="620" y2="50" stroke="#1F77B4" stroke-width="4" marker-end="url(#arrow)" />
    
    <!-- Next Action -->
    <path d="M630,0 h180 a10,10 0 0 1 10,10 v60 a10,10 0 0 1 -10,10 h-100 l-20,20 v-20 h-60 a10,10 0 0 1 -10,-10 v-60 a10,10 0 0 1 10,-10 z" fill="white" stroke="black" stroke-width="5" />
    <text x="710" y="50" font-family="Arial, sans-serif" font-size="36" fill="black" text-anchor="middle">Next Action</text>
  </g>

  <!-- Grey Divider -->
  <line x1="720" y1="320" x2="1600" y2="320" stroke="#B0B0B0" stroke-width="4" stroke-dasharray="10,10" />

  <!-- ==================== ALGORITHMS ==================== -->
  
  <!-- 1. Greedy -->
  <g transform="translate(780, 340)">
    <!-- Query -->
    <ellipse cx="100" cy="30" rx="100" ry="40" fill="#F2F2F2" stroke="black" stroke-width="4" />
    <text x="100" y="45" font-family="Arial, sans-serif" font-size="36" fill="black" text-anchor="middle">query</text>
    <line x1="100" y1="70" x2="100" y2="130" stroke="#1F77B4" stroke-width="4" marker-end="url(#arrow)" />
    
    <!-- Node -->
    <rect x="50" y="130" width="70" height="70" rx="10" fill="#4488CC" stroke="black" stroke-width="4" />
    <line x1="100" y1="200" x2="100" y2="260" stroke="#1F77B4" stroke-width="4" marker-end="url(#arrow)" />
    
    <!-- Ellipsis -->
    <text x="100" y="290" font-family="Arial, sans-serif" font-size="30" fill="black" text-anchor="middle">.......</text>
    <line x1="100" y1="310" x2="100" y2="350" stroke="#1F77B4" stroke-width="4" marker-end="url(#arrow)" />
    
    <!-- Node -->
    <rect x="50" y="350" width="70" height="70" rx="10" fill="#4488CC" stroke="black" stroke-width="4" />
    <line x1="100" y1="420" x2="100" y2="480" stroke="#1F77B4" stroke-width="4" marker-end="url(#arrow)" />
    
    <!-- Output -->
    <ellipse cx="100" cy="490" rx="100" ry="40" fill="#DAE8FC" stroke="black" stroke-width="4" />
    <text x="100" y="505" font-family="Arial, sans-serif" font-size="36" fill="black" text-anchor="middle">output</text>
    
    <text x="100" y="620" font-family="Arial, sans-serif" font-size="48" fill="black" text-anchor="middle" font-weight="bold">Greedy</text>
  </g>

  <!-- 2. Best-of-N -->
  <g transform="translate(980, 340)">
    <!-- Query -->
    <ellipse cx="100" cy="30" rx="100" ry="40" fill="#F2F2F2" stroke="black" stroke-width="4" />
    <text x="100" y="45" font-family="Arial, sans-serif" font-size="36" fill="black" text-anchor="middle">query</text>
    
    <!-- Branching -->
    <line x1="100" y1="70" x2="100" y2="130" stroke="#1F77B4" stroke-width="4" marker-end="url(#arrow)" />
    <line x1="100" y1="70" x2="30" y2="130" stroke="#1F77B4" stroke-width="4" marker-end="url(#arrow)" />
    <line x1="100" y1="70" x2="170" y2="130" stroke="#1F77B4" stroke-width="4" marker-end="url(#arrow)" />
    
    <!-- Nodes -->
    <rect x="0" y="130" width="70" height="70" rx="10" fill="#4488CC" stroke="black" stroke-width="4" />
    <rect x="80" y="130" width="70" height="70" rx="10" fill="url(#hatch)" stroke="black" stroke-width="4" />
    <rect x="160" y="130" width="70" height="70" rx="10" fill="url(#hatch)" stroke="black" stroke-width="4" />
    
    <!-- Arrows Down -->
    <line x1="35" y1="200" x2="35" y2="260" stroke="#1F77B4" stroke-width="4" marker-end="url(#arrow)" />
    <line x1="115" y1="200" x2="115" y2="260" stroke="#1F77B4" stroke-width="4" marker-end="url(#arrow)" />
    <line x1="195" y1="200" x2="195" y2="260" stroke="#1F77B4" stroke-width="4" marker-end="url(#arrow)" />
    
    <!-- Ellipsis -->
    <text x="35" y="290" font-family="Arial, sans-serif" font-size="30" fill="black" text-anchor="middle">.......</text>
    <text x="115" y="290" font-family="Arial, sans-serif" font-size="30" fill="black" text-anchor="middle">.......</text>
    <text x="195" y="290" font-family="Arial, sans-serif" font-size="30" fill="black" text-anchor="middle">.......</text>
    
    <!-- Nodes -->
    <rect x="0" y="300" width="70" height="70" rx="10" fill="#4488CC" stroke="black" stroke-width="4" />
    <rect x="80" y="300" width="70" height="70" rx="10" fill="url(#hatch)" stroke="black" stroke-width="4" />
    <rect x="160" y="300" width="70" height="70" rx="10" fill="url(#hatch)" stroke="black" stroke-width="4" />
    
    <!-- Arrows Down -->
    <line x1="35" y1="370" x2="35" y2="430" stroke="#1F77B4" stroke-width="4" marker-end="url(#arrow)" />
    <line x1="115" y1="370" x2="115" y2="430" stroke="#1F77B4" stroke-width="4" marker-end="url(#arrow)" />
    <line x1="195" y1="370" x2="195" y2="430" stroke="#1F77B4" stroke-width="4" marker-end="url(#arrow)" />
    
    <!-- Output -->
    <ellipse cx="100" cy="440" rx="100" ry="40" fill="#DAE8FC" stroke="black" stroke-width="4" />
    <text x="100" y="455" font-family="Arial, sans-serif" font-size="36" fill="black" text-anchor="middle">output</text>
    
    <!-- Gold Medal -->
    <g transform="translate(30, 400)">
      <path d="M20,0 Q40,0 50,10 Q60,0 80,10 Q90,20 80,30 Q70,40 50,40 Q30,40 20,30 Q10,20 20,10 Z" fill="#FFD700" stroke="black" stroke-width="2" />
      <circle cx="50" cy="20" r="10" fill="white" stroke="black" stroke-width="2" />
      <text x="50" y="25" font-family="Arial, sans-serif" font-size="12" fill="black" text-anchor="middle">1</text>
      <path d="M10,40 Q50,10 90,40" fill="none" stroke="black" stroke-width="2" />
      <path d="M10,40 Q50,10 90,40" fill="none" stroke="black" stroke-width="2" />
    </g>
    
    <!-- Grey Arrow -->
    <line x1="100" y1="400" x2="100" y2="380" stroke="#B0B0B0" stroke-width="4" />
    <line x1="100" y1="380" x2="100" y2="360" stroke="#B0B0B0" stroke-width="4" />
    
    <text x="100" y="620" font-family="Arial, sans-serif" font-size="48" fill="black" text-anchor="middle" font-weight="bold">Best-of-N</text>
  </g>

  <!-- 3. Tree Search -->
  <g transform="translate(1280, 340)">
    <!-- Query -->
    <ellipse cx="100" cy="30" rx="100" ry="40" fill="#F2F2F2" stroke="black" stroke-width="4" />
    <text x="100" y="45" font-family="Arial, sans-serif" font-size="36" fill="black" text-anchor="middle">query</text>
    
    <!-- Branching -->
    <line x1="100" y1="70" x2="100" y2="130" stroke="#1F77B4" stroke-width="4" marker-end="url(#arrow)" />
    <line x1="100" y1="70" x2="30" y2="130" stroke="#1F77B4" stroke-width="4" marker-end="url(#arrow)" />
    <line x1="100" y1="70" x2="170" y2="130" stroke="#1F77B4" stroke-width="4" marker-end="url(#arrow)" />
    
    <!-- Nodes -->
    <rect x="0" y="130" width="70" height="70" rx="10" fill="url(#hatch)" stroke="black" stroke-width="4" />
    <rect x="80" y="130" width="70" height="70" rx="10" fill="#4488CC" stroke="black" stroke-width="4" />
    <rect x="160" y="130" width="70" height="70" rx="10" fill="url(#hatch)" stroke="black" stroke-width="4" />
    
    <!-- Arrows Down -->
    <line x1="35" y1="200" x2="35" y2="260" stroke="#1F77B4" stroke-width="4" marker-end="url(#arrow)" />
    <line x1="115" y1="200" x2="115" y2="260" stroke="#1F77B4" stroke-width="4" marker-end="url(#arrow)" />
    <line x1="195" y1="200" x2="195" y2="260" stroke="#1F77B4" stroke-width="4" marker-end="url(#arrow)" />
    
    <!-- Rollouts 1 -->
    <rect x="0" y="260" width="130" height="200" fill="none" stroke="black" stroke-width="4" />
    <rect x="10" y="270" width="40" height="40" rx="5" fill="url(#hatch)" stroke="black" stroke-width="3" />
    <rect x="60" y="270" width="40" height="40" rx="5" fill="url(#hatch)" stroke="black" stroke-width="3" />
    <text x="65" y="310" font-family="Arial, sans-serif" font-size="20" fill="black" text-anchor="middle">.......</text>
    <rect x="10" y="320" width="40" height="40" rx="5" fill="url(#hatch)" stroke="black" stroke-width="3" />
    <rect x="60" y="320" width="40" height="40" rx="5" fill="url(#hatch)" stroke="black" stroke-width="3" />
    <text x="100" y="360" font-family="Arial, sans-serif" font-size="36" fill="black" text-anchor="middle">rollouts</text>
    
    <!-- Rollouts 2 -->
    <rect x="170" y="260" width="130" height="200" fill="none" stroke="black" stroke-width="4" />
    <rect x="180" y="270" width="40" height="40" rx="5" fill="url(#hatch)" stroke="black" stroke-width="3" />
    <rect x="230" y="270" width="40" height="40" rx="5" fill="url(#hatch)" stroke="black" stroke-width="3" />
    <text x="235" y="310" font-family="Arial, sans-serif" font-size="20" fill="black" text-anchor="middle">.......</text>
    <rect x="180" y="320" width="40" height="40" rx="5" fill="url(#hatch)" stroke="black" stroke-width="3" />
    <rect x="230" y="320" width="40" height="40" rx="5" fill="url(#hatch)" stroke="black" stroke-width="3" />
    <text x="235" y="360" font-family="Arial, sans-serif" font-size="36" fill="black" text-anchor="middle">rollouts</text>
    
    <!-- Output -->
    <ellipse cx="100" cy="440" rx="100" ry="40" fill="#DAE8FC" stroke="black" stroke-width="4" />
    <text x="100" y="455" font-family="Arial, sans-serif" font-size="36" fill="black" text-anchor="middle">output</text>
    
    <text x="100" y="620" font-family="Arial, sans-serif" font-size="48" fill="black" text-anchor="middle" font-weight="bold">Tree Search</text>
  </g>

  <!-- ==================== BOTTOM LEFT: REJECTION SAMPLING ==================== -->
  <g transform="translate(350, 1000)">
    <path d="M20,0 L60,40 L10,80" fill="none" stroke="#00B050" stroke-width="8" stroke-linecap="round" stroke-linejoin="round" />
    <text x="0" y="50" font-family="Arial, sans-serif" font-size="40" fill="#999" font-style="italic">Rejection Sampling</text>
  </g>

</svg>