<svg xmlns="http://www.w3.org/2000/svg" width="1819" height="1014" viewBox="0 0 1819 1014">
<defs>
  <marker id="s-arrow-blue" markerWidth="8" markerHeight="7" refX="7" refY="3.5" orient="auto">
    <path d="M0,0 L7,3.5 L0,7 Z" fill="#4f73b0"/>
  </marker>
  <marker id="s-arrow-orange" markerWidth="8" markerHeight="7" refX="7" refY="3.5" orient="auto">
    <path d="M0,0 L7,3.5 L0,7 Z" fill="#d58d4d"/>
  </marker>
  <pattern id="stripe-blue" width="6" height="6" patternUnits="userSpaceOnUse" patternTransform="rotate(45)">
    <rect width="6" height="6" fill="#f8f6ed"/>
    <line x1="0" y1="0" x2="0" y2="6" stroke="#4f73b0" stroke-width="2"/>
  </pattern>
  <pattern id="stripe-orange" width="6" height="6" patternUnits="userSpaceOnUse" patternTransform="rotate(45)">
    <rect width="6" height="6" fill="#fff4e8"/>
    <line x1="0" y1="0" x2="0" y2="6" stroke="#d58d4d" stroke-width="2"/>
  </pattern>
</defs>
  <g id="svg_ref_pose_skeleton" data-source-slot="slot_ref_pose_skeleton" transform="translate(10,29)">
    <rect x="0" y="0" width="203" height="200" fill="#000000"/>
    <g fill="none" stroke-linecap="round" stroke-linejoin="round" stroke-width="2">
      <path d="M70 51 L70 68 M63 70 L76 70 M63 70 L58 110 M76 70 L84 113 M70 68 L70 109 M70 109 L65 162 M70 109 L78 162 M58 110 L57 157 M84 113 L88 158" stroke="#00e332"/>
      <path d="M67 50 C69 46 72 46 74 50" stroke="#00e332" stroke-width="1.3"/>
      <path d="M138 55 L143 72 M135 73 L151 73 M135 73 L128 108 M151 73 L160 111 M143 72 L145 112 M145 112 L138 162 M145 112 L153 163 M128 108 L128 158 M160 111 L159 158" stroke="#ff2600"/>
      <path d="M139 53 C142 49 145 49 148 53" stroke="#ff2600" stroke-width="1.3"/>
    </g>
  </g>
  <g id="svg_img_module_c1_graph" data-source-slot="slot_img_module_c1_graph" transform="translate(936,817)">
    <rect x="0" y="0" width="124" height="141" fill="#eef1f5" opacity="0.2"/>
    <g stroke="#555" stroke-width="2" fill="none">
      <line x1="47" y1="59" x2="47" y2="96" stroke="#4f73b0" marker-end="url(#s-arrow-blue)"/>
      <line x1="97" y1="59" x2="97" y2="96" stroke="#d58d4d" marker-end="url(#s-arrow-orange)"/>
      <line x1="47" y1="59" x2="97" y2="96" stroke="#bbb" stroke-dasharray="4 4"/>
      <line x1="97" y1="59" x2="47" y2="96" stroke="#bbb" stroke-dasharray="4 4"/>
    </g>
    <circle cx="47" cy="42" r="19" fill="#4f73b0" stroke="#555" stroke-width="2"/>
    <circle cx="97" cy="42" r="19" fill="#efbd8e" stroke="#555" stroke-width="2"/>
    <circle cx="47" cy="103" r="19" fill="url(#stripe-blue)" stroke="#555" stroke-width="2"/>
    <circle cx="97" cy="103" r="19" fill="url(#stripe-orange)" stroke="#555" stroke-width="2"/>
  </g>
  <g id="svg_img_module_cN_graph" data-source-slot="slot_img_module_cN_graph" transform="translate(1138,850)">
    <rect x="0" y="0" width="124" height="141" fill="#eef1f5" opacity="0.2"/>
    <g stroke="#555" stroke-width="2" fill="none">
      <line x1="47" y1="59" x2="47" y2="96" stroke="#4f73b0" marker-end="url(#s-arrow-blue)"/>
      <line x1="97" y1="59" x2="97" y2="96" stroke="#d58d4d" marker-end="url(#s-arrow-orange)"/>
      <line x1="47" y1="59" x2="97" y2="96" stroke="#bbb" stroke-dasharray="4 4"/>
      <line x1="97" y1="59" x2="47" y2="96" stroke="#bbb" stroke-dasharray="4 4"/>
    </g>
    <circle cx="47" cy="42" r="19" fill="#4f73b0" stroke="#555" stroke-width="2"/>
    <circle cx="97" cy="42" r="19" fill="#efbd8e" stroke="#555" stroke-width="2"/>
    <circle cx="47" cy="103" r="19" fill="url(#stripe-blue)" stroke="#555" stroke-width="2"/>
    <circle cx="97" cy="103" r="19" fill="url(#stripe-orange)" stroke="#555" stroke-width="2"/>
  </g>
</svg>
