<svg xmlns="http://www.w3.org/2000/svg" viewBox="-13.0 12.0 1631.0 996.0" style="font-family: Arial, sans-serif; background-color: white;">
  <defs>
    <!-- Arrowhead Marker -->
    <marker id="arrowhead" markerWidth="10" markerHeight="7" refX="9" refY="3.5" orient="auto">
      <polygon points="0 0, 10 3.5, 0 7" fill="#666666" />
    </marker>
    <marker id="arrowhead-black" markerWidth="10" markerHeight="7" refX="9" refY="3.5" orient="auto">
      <polygon points="0 0, 10 3.5, 0 7" fill="#000000" />
    </marker>

    <!-- Gradients -->
    <linearGradient id="grad-green-red" x1="0%" y1="0%" x2="100%" y2="0%">
      <stop offset="0%" style="stop-color:#32CD32;stop-opacity:1" />
      <stop offset="100%" style="stop-color:#FF0000;stop-opacity:1" />
    </linearGradient>
    <linearGradient id="grad-red-green" x1="0%" y1="0%" x2="100%" y2="0%">
      <stop offset="0%" style="stop-color:#FF0000;stop-opacity:1" />
      <stop offset="100%" style="stop-color:#32CD32;stop-opacity:1" />
    </linearGradient>
    <linearGradient id="grad-arrow-red" x1="0%" y1="0%" x2="0%" y2="100%">
      <stop offset="0%" style="stop-color:#FFCCCC;stop-opacity:1" />
      <stop offset="100%" style="stop-color:#FF0000;stop-opacity:1" />
    </linearGradient>
    <linearGradient id="grad-arrow-green" x1="0%" y1="0%" x2="0%" y2="100%">
      <stop offset="0%" style="stop-color:#32CD32;stop-opacity:1" />
      <stop offset="100%" style="stop-color:#90EE90;stop-opacity:1" />
    </linearGradient>
    <linearGradient id="grad-arrow-perturb" x1="0%" y1="0%" x2="0%" y2="100%">
      <stop offset="0%" style="stop-color:#FFCCCC;stop-opacity:1" />
      <stop offset="100%" style="stop-color:#FF0000;stop-opacity:1" />
    </linearGradient>

    <!-- Noise Filter for Perturbations -->
    <filter id="noiseRGB">
      <feTurbulence type="fractalNoise" baseFrequency="0.8" numOctaves="3" stitchTiles="stitch" />
      <feColorMatrix type="saturate" values="0" />
    </filter>
    <filter id="noiseOverlay">
       <feTurbulence type="fractalNoise" baseFrequency="0.6" numOctaves="3" result="noise"/>
       <feColorMatrix type="matrix" values="1 0 0 0 0  0 1 0 0 0  0 0 1 0 0  0 0 0 0.5 0" in="noise" result="coloredNoise"/>
       <feComposite operator="over" in="coloredNoise" in2="SourceGraphic"/>
    </filter>

    <!-- Reusable Video Frame Group -->
    <g id="video-frames">
      <!-- Frame 1 -->
      <g transform="translate(0,0) skewY(15)">
        <rect x="0" y="0" width="80" height="100" fill="#E0C0A0" stroke="white" stroke-width="2"/>
        <!-- Abstract content: hands and celery -->
        <rect x="0" y="0" width="80" height="40" fill="#202020"/> 
        <path d="M10,60 L60,80" stroke="#C0C0C0" stroke-width="10"/> <!-- Cutting board -->
        <path d="M20,50 L50,50" stroke="#AACC00" stroke-width="8" stroke-linecap="round"/> <!-- Celery -->
        <circle cx="20" cy="30" r="10" fill="#DDBB99"/> <!-- Hand -->
        <circle cx="50" cy="30" r="10" fill="#DDBB99"/> <!-- Hand -->
      </g>
      <!-- Frame 2 -->
      <g transform="translate(40,0) skewY(15)">
        <rect x="0" y="0" width="80" height="100" fill="#E0C0A0" stroke="white" stroke-width="2"/>
        <rect x="0" y="0" width="80" height="40" fill="#202020"/>
        <path d="M10,60 L60,80" stroke="#C0C0C0" stroke-width="10"/>
        <path d="M25,50 L45,50" stroke="#AACC00" stroke-width="8" stroke-linecap="round"/>
        <circle cx="20" cy="30" r="10" fill="#DDBB99"/>
        <circle cx="50" cy="30" r="10" fill="#DDBB99"/>
      </g>
      <!-- Frame 3 -->
      <g transform="translate(80,0) skewY(15)">
        <rect x="0" y="0" width="80" height="100" fill="#E0C0A0" stroke="white" stroke-width="2"/>
        <rect x="0" y="0" width="80" height="40" fill="#202020"/>
        <path d="M10,60 L60,80" stroke="#C0C0C0" stroke-width="10"/>
        <path d="M30,50 L40,50" stroke="#AACC00" stroke-width="8" stroke-linecap="round"/>
        <circle cx="20" cy="30" r="10" fill="#DDBB99"/>
        <circle cx="50" cy="30" r="10" fill="#DDBB99"/>
      </g>
    </g>
  </defs>

  <!-- ================= TOP PANEL ================= -->
  <rect x="5" y="20" width="1590" height="250" rx="20" fill="none" stroke="black" stroke-width="3"/>
  <text x="20" y="55" font-family="Times New Roman, serif" font-weight="bold" font-size="42">Measure Difficulty based on Relative Reward Statistics</text>

  <!-- Input Block -->
  <rect x="10" y="100" width="250" height="170" rx="15" fill="none" stroke="#F0E0D0" stroke-width="2"/>
  <use href="#video-frames" x="25" y="110" />
  <text x="20" y="180" font-family="Arial, sans-serif" font-size="32" fill="#B87333">Question: <tspan x="110" fill="#B87333">What action</tspan></text>
  <text x="20" y="205" font-family="Arial, sans-serif" font-size="32" fill="#B87333">should I take next in</text>
  <text x="20" y="230" font-family="Arial, sans-serif" font-size="32" fill="#B87333">order to eat the celery?</text>

  <!-- Arrow to LLM -->
  <line x1="260" y1="160" x2="290" y2="160" stroke="#666666" stroke-width="3" marker-end="url(#arrowhead)"/>

  <!-- Video LLM Box -->
  <rect x="290" y="125" width="200" height="130" rx="15" fill="#FFF5E0" stroke="#FFE0B0" stroke-width="4"/>
  <text x="390" y="170" text-anchor="middle" font-family="Arial, sans-serif" font-size="40" fill="black">Video</text>
  <text x="390" y="200" text-anchor="middle" font-family="Arial, sans-serif" font-size="40" fill="black" dy="5">LLM</text>

  <!-- Branching Arrows -->
  <path d="M400,160 C430,160 430,110 450,110 L450,110" stroke="#666666" stroke-width="3" fill="none" marker-end="url(#arrowhead)"/>
  <path d="M400,160 C430,160 430,150 450,150 L450,150" stroke="#666666" stroke-width="3" fill="none" marker-end="url(#arrowhead)"/>
  <path d="M400,160 C430,160 430,210 450,210 L450,210" stroke="#666666" stroke-width="3" fill="none" marker-end="url(#arrowhead)"/>

  <!-- Response Boxes -->
  <g transform="translate(450, 95)">
    <rect x="0" y="0" width="250" height="60" fill="white" stroke="#336699" stroke-width="4"/>
    <text x="20" y="42" font-family="Arial, sans-serif" font-size="38">Response <tspan font-family="Times New Roman, serif" font-style="italic">y</tspan><tspan dy="-15" font-size="28">1</tspan></text>
  </g>
  <g transform="translate(450, 130)">
    <rect x="0" y="0" width="250" height="60" fill="white" stroke="#336699" stroke-width="4"/>
    <text x="20" y="42" font-family="Arial, sans-serif" font-size="38">Response <tspan font-family="Times New Roman, serif" font-style="italic">y</tspan><tspan dy="-15" font-size="28">2</tspan></text>
  </g>
  <text x="550" y="185" font-size="40" font-weight="bold">. . .</text>
  <g transform="translate(450, 185)">
    <rect x="0" y="0" width="250" height="60" fill="white" stroke="#336699" stroke-width="4"/>
    <text x="20" y="42" font-family="Arial, sans-serif" font-size="38">Response <tspan font-family="Times New Roman, serif" font-style="italic">y</tspan><tspan dy="-15" font-size="28" font-style="italic">G</tspan></text>
  </g>

  <!-- Arrows to Green Box -->
  <line x1="630" y1="110" x2="680" y2="110" stroke="#666666" stroke-width="3" marker-end="url(#arrowhead)"/>
  <line x1="630" y1="150" x2="680" y2="150" stroke="#666666" stroke-width="3" marker-end="url(#arrowhead)"/>
  <line x1="630" y1="210" x2="680" y2="210" stroke="#666666" stroke-width="3" marker-end="url(#arrowhead)"/>

  <!-- Green Group Box -->
  <rect x="680" y="90" width="220" height="170" rx="15" fill="#E0F0E0" stroke="#90EE90" stroke-width="5" stroke-dasharray="20,10"/>
  <text x="700" y="85" font-family="Times New Roman, serif" font-size="50" font-style="italic">R<tspan dy="10" font-size="35" font-style="normal">group</tspan></text>
  <text x="700" y="130" font-family="Times New Roman, serif" font-size="55" font-style="italic">R(x, y<tspan dy="-20" font-size="35">1</tspan><tspan dy="20">)</tspan></text>
  <text x="700" y="170" font-family="Times New Roman, serif" font-size="55" font-style="italic">R(x, y<tspan dy="-20" font-size="35">2</tspan><tspan dy="20">)</tspan></text>
  <text x="730" y="200" font-size="40" font-weight="bold">. . .</text>
  <text x="700" y="230" font-family="Times New Roman, serif" font-size="55" font-style="italic">R(x, y<tspan dy="-20" font-size="35" font-style="italic">G</tspan><tspan dy="20">)</tspan></text>

  <!-- Equation Bubble -->
  <path d="M820,40 Q850,40 880,40 L1150,40 Q1180,40 1180,70 L1180,100 Q1180,130 1150,130 L880,130 Q850,130 820,130 Q790,130 760,130 L760,100 Q760,70 790,40 Z" fill="white" opacity="0.8"/>
  <g transform="translate(850, 80)">
    <text x="0" y="0" font-family="Times New Roman, serif" font-size="50" font-style="italic">Â<tspan dy="-20" font-size="30">(i)</tspan><tspan dy="20"> = </tspan></text>
    <line x1="120" y1="-15" x2="350" y2="-15" stroke="black" stroke-width="2"/>
    <text x="130" y="-25" font-family="Times New Roman, serif" font-size="50" font-style="italic">R(x, y<tspan dy="-20" font-size="30">(i)</tspan><tspan dy="20">)</tspan> − μ<tspan dy="10" font-size="30">r</tspan></text>
    <text x="230" y="35" font-family="Times New Roman, serif" font-size="50" font-style="italic">σ<tspan dy="10" font-size="30">r</tspan></text>
  </g>

  <!-- Data Vectors -->
  <g transform="translate(840, 120)">
    <!-- Red Box -->
    <rect x="0" y="0" width="370" height="60" rx="10" fill="white" stroke="#FF6666" stroke-width="5"/>
    <text x="10" y="45" font-family="Times New Roman, serif" font-size="45"><tspan font-style="italic">R</tspan><tspan dy="10" font-size="30">group</tspan><tspan dy="-10"> = {0.0, 0.0, ..., 0.0, 0.0}</tspan></text>
    
    <!-- Grey Box -->
    <rect x="0" y="80" width="370" height="60" rx="10" fill="white" stroke="#666666" stroke-width="5"/>
    <text x="10" y="125" font-family="Times New Roman, serif" font-size="45"><tspan font-style="italic">R</tspan><tspan dy="10" font-size="30">group</tspan><tspan dy="-10"> = {1.1, 0.3, ..., 1.9, 0.8}</tspan></text>

    <!-- Green Box -->
    <rect x="0" y="160" width="370" height="60" rx="10" fill="white" stroke="#00B050" stroke-width="5"/>
    <text x="10" y="205" font-family="Times New Roman, serif" font-size="45"><tspan font-style="italic">R</tspan><tspan dy="10" font-size="30">group</tspan><tspan dy="-10"> = {2.0, 2.0, ..., 2.0, 2.0}</tspan></text>
  </g>

  <!-- Right Panel: Dynamic Global Reward -->
  <rect x="1180" y="20" width="410" height="250" rx="20" fill="none" stroke="#A0A0A0" stroke-width="5" stroke-dasharray="20,10"/>
  <text x="1200" y="55" font-family="Times New Roman, serif" font-weight="bold" font-size="42">Dynamic Global Reward</text>
  
  <text x="1200" y="100" font-family="Arial, sans-serif" font-size="28">Reward</text>
  
  <!-- Graph -->
  <g transform="translate(1240, 110)">
    <!-- Grid -->
    <rect x="0" y="0" width="260" height="180" fill="none" stroke="#F0F0F0"/>
    <line x1="0" y1="45" x2="260" y2="45" stroke="#E0E0E0"/>
    <line x1="0" y1="90" x2="260" y2="90" stroke="#E0E0E0"/>
    <line x1="0" y1="135" x2="260" y2="135" stroke="#E0E0E0"/>
    
    <!-- Highlight Window -->
    <rect x="150" y="20" width="160" height="160" fill="#FFFFAA" opacity="0.6"/>
    <text x="160" y="120" font-family="Times New Roman, serif" font-size="50">B<tspan font-style="italic" font-size="40">W</tspan></text>
    <!-- Window Arrow -->
    <path d="M155,140 L155,130 L145,130 M155,130 L165,130 M155,130 L155,140" stroke="#FF0000" stroke-width="2" fill="none" opacity="0"/> <!-- Placeholder structure -->
    <path d="M155,130 L165,120 M155,130 L165,140 M155,130 L145,140 M155,130 L145,120" stroke="#FF0000" stroke-width="2" fill="none"/>
    <path d="M155,130 L165,120 L175,130 L165,140 Z" fill="#FF0000" opacity="0.5"/>
    <path d="M155,130 L145,140 L135,130 L145,120 Z" fill="#FF0000" opacity="0.5"/>
    <rect x="155" y="125" width="100" height="10" fill="#FF0000" opacity="0.5"/>

    <!-- Axes -->
    <line x1="0" y1="180" x2="0" y2="0" stroke="black" stroke-width="3" marker-end="url(#arrowhead-black)"/>
    <line x1="0" y1="180" x2="300" y2="180" stroke="black" stroke-width="3" marker-end="url(#arrowhead-black)"/>
    <text x="310" y="190" font-family="Arial, sans-serif" font-size="30">Iteration</text>

    <!-- Data Line -->
    <polyline points="0,150 40,140 100,100 160,80 200,90 260,60" fill="none" stroke="#006680" stroke-width="3"/>
    <circle cx="40" cy="140" r="3" fill="#006680"/>
    <circle cx="100" cy="100" r="3" fill="#006680"/>
    <circle cx="160" cy="80" r="3" fill="#006680"/>
    <circle cx="200" cy="90" r="3" fill="#006680"/>
    <circle cx="260" cy="60" r="3" fill="#006680"/>
  </g>

  <!-- Database Icon -->
  <g transform="translate(1530, 130)">
    <ellipse cx="30" cy="10" rx="30" ry="8" fill="black"/>
    <path d="M0,10 v15 a30,8 0 0,0 60,0 v-15" fill="black"/>
    <path d="M0,30 v15 a30,8 0 0,0 60,0 v-15" fill="black"/>
    <path d="M0,50 v15 a30,8 0 0,0 60,0 v-15" fill="black"/>
    <ellipse cx="30" cy="30" rx="30" ry="8" fill="none" stroke="white" stroke-width="2"/>
    <ellipse cx="30" cy="50" rx="30" ry="8" fill="none" stroke="white" stroke-width="2"/>
    <circle cx="50" cy="20" r="2" fill="white"/>
    <circle cx="50" cy="40" r="2" fill="white"/>
    <text x="30" y="90" text-anchor="middle" font-family="Arial, sans-serif" font-size="32">Replay</text>
    <text x="30" y="120" text-anchor="middle" font-family="Arial, sans-serif" font-size="32">Buffer</text>
  </g>

  <!-- ================= MIDDLE ARROWS ================= -->
  <!-- Red Arrow -->
  <path d="M980,240 L980,280 C980,320 500,320 500,360 L500,380" fill="none" stroke="#FF0000" stroke-width="20" stroke-opacity="0.5"/>
  <path d="M980,240 L980,280 C980,320 450,320 450,360 L450,380" fill="none" stroke="#FF6666" stroke-width="20"/>
  <polygon points="420,380 480,380 450,410" fill="#FF6666"/>

  <!-- Green Arrow -->
  <path d="M1050,240 L1050,280 C1050,320 1200,320 1200,360 L1200,380" fill="none" stroke="#32CD32" stroke-width="20" stroke-opacity="0.5"/>
  <path d="M1050,240 L1050,280 C1050,320 1150,320 1150,360 L1150,380" fill="none" stroke="#90EE90" stroke-width="20"/>
  <polygon points="1180,380 1220,380 1200,410" fill="#32CD32"/>


  <!-- ================= BOTTOM PANEL ================= -->
  <rect x="5" y="310" width="1590" height="550" rx="20" fill="none" stroke="black" stroke-width="3"/>
  
  <!-- Divider -->
  <line x1="860" y1="310" x2="860" y2="1000" stroke="#888" stroke-width="4" stroke-dasharray="4,4"/>

  <!-- LEFT SIDE: Difficulty Decreasement -->
  <text x="15" y="340" font-family="Times New Roman, serif" font-weight="bold" font-size="44">Difficulty Decreasement Augmentation</text>
  
  <!-- Input Block Left -->
  <rect x="10" y="340" width="250" height="150" rx="15" fill="none" stroke="#F0E0D0" stroke-width="2"/>
  <use href="#video-frames" x="25" y="350" />
  <text x="20" y="440" font-family="Arial, sans-serif" font-size="32" fill="#B87333">Question: <tspan x="110" fill="#B87333">What action</tspan></text>
  <text x="20" y="465" font-family="Arial, sans-serif" font-size="32" fill="#B87333">should I take next in</text>
  <text x="20" y="490" font-family="Arial, sans-serif" font-size="32" fill="#B87333">order to eat the celery?</text>
  <text x="20" y="500" font-family="Arial, sans-serif" font-size="32" fill="#00B050">GT: B. pick up celery</text>

  <!-- Arrow to LLM -->
  <line x1="260" y1="430" x2="290" y2="430" stroke="#666666" stroke-width="3" marker-end="url(#arrowhead)"/>

  <!-- Video LLM Box Left -->
  <rect x="290" y="390" width="200" height="150" rx="15" fill="#FFF5E0" stroke="#FFE0B0" stroke-width="4"/>
  <text x="360" y="430" text-anchor="middle" font-family="Arial, sans-serif" font-size="40" fill="black">Video</text>
  <text x="360" y="460" text-anchor="middle" font-family="Arial, sans-serif" font-size="40" fill="black" dy="5">LLM</text>

  <!-- Branching Arrows Left -->
  <path d="M400,430 C430,430 430,370 450,370 L450,370" stroke="#666666" stroke-width="3" fill="none" marker-end="url(#arrowhead)"/>
  <path d="M400,430 C430,430 430,420 450,420 L450,420" stroke="#666666" stroke-width="3" fill="none" marker-end="url(#arrowhead)"/>
  <path d="M400,430 C430,430 430,490 450,490 L450,490" stroke="#666666" stroke-width="3" fill="none" marker-end="url(#arrowhead)"/>

  <!-- Response Boxes Left -->
  <g transform="translate(450, 345)">
    <rect x="0" y="0" width="250" height="60" fill="white" stroke="#336699" stroke-width="4"/>
    <text x="20" y="42" font-family="Arial, sans-serif" font-size="38">Response <tspan font-family="Times New Roman, serif" font-style="italic">y</tspan><tspan dy="-15" font-size="28">1</tspan><tspan dy="25" font-size="28">gt</tspan></text>
  </g>
  <g transform="translate(450, 400)">
    <rect x="0" y="0" width="250" height="60" fill="white" stroke="#336699" stroke-width="4"/>
    <text x="20" y="42" font-family="Arial, sans-serif" font-size="38">Response <tspan font-family="Times New Roman, serif" font-style="italic">y</tspan><tspan dy="-15" font-size="28">2</tspan><tspan dy="25" font-size="28">gt</tspan></text>
  </g>
  <text x="530" y="460" font-size="40" font-weight="bold">. . .</text>
  <g transform="translate(450, 465)">
    <rect x="0" y="0" width="250" height="60" fill="white" stroke="#336699" stroke-width="4"/>
    <text x="20" y="42" font-family="Arial, sans-serif" font-size="38">Response <tspan font-family="Times New Roman, serif" font-style="italic">y</tspan><tspan dy="-15" font-size="28" font-style="italic">G</tspan><tspan dy="25" font-size="28">gt</tspan></text>
  </g>

  <!-- Arrows to Green Box Left -->
  <line x1="630" y1="370" x2="680" y2="370" stroke="#666666" stroke-width="3" marker-end="url(#arrowhead)"/>
  <line x1="630" y1="420" x2="680" y2="420" stroke="#666666" stroke-width="3" marker-end="url(#arrowhead)"/>
  <line x1="630" y1="490" x2="680" y2="490" stroke="#666666" stroke-width="3" marker-end="url(#arrowhead)"/>

  <!-- Green Group Box Left -->
  <rect x="680" y="340" width="220" height="160" rx="15" fill="#E0F0E0" stroke="#90EE90" stroke-width="5" stroke-dasharray="20,10"/>
  <text x="700" y="335" font-family="Times New Roman, serif" font-size="50" font-style="italic">R<tspan dy="10" font-size="35" font-style="normal">group</tspan></text>
  <text x="690" y="380" font-family="Times New Roman, serif" font-size="55" font-style="italic">R(x, y<tspan dy="-20" font-size="35">1</tspan><tspan dy="25" font-size="30">gt</tspan><tspan dy="-10">)</tspan></text>
  <text x="690" y="430" font-family="Times New Roman, serif" font-size="55" font-style="italic">R(x, y<tspan dy="-20" font-size="35">2</tspan><tspan dy="25" font-size="30">gt</tspan><tspan dy="-10">)</tspan></text>
  <text x="730" y="460" font-size="40" font-weight="bold">. . .</text>
  <text x="690" y="500" font-family="Times New Roman, serif" font-size="55" font-style="italic">R(x, y<tspan dy="-20" font-size="35" font-style="italic">G</tspan><tspan dy="25" font-size="30">gt</tspan><tspan dy="-10">)</tspan></text>

  <!-- Tag Overlay -->
  <rect x="810" y="400" width="80" height="60" fill="grey" stroke="black"/>
  <text x="850" y="425" text-anchor="middle" fill="white" font-family="Arial, sans-serif" font-weight="bold" font-size="20">&lt;AF&gt;01</text>

  <!-- Footer Text Left -->
  <circle cx="40" cy="560" r="45" fill="#F0F0F0" opacity="0.5"/>
  <text x="20" y="560" font-family="Times New Roman, serif" font-size="45" font-style="italic">y<tspan dy="-20" font-size="30">2</tspan><tspan dy="25" font-size="30">gt</tspan></text>
  
  <text x="70" y="550" font-family="Arial, sans-serif" font-size="36">
    <tspan font-family="Times New Roman, serif">&lt;think&gt;</tspan> The video shows a person preparing ... . 
  </text>
  <text x="540" y="550" font-family="Arial, sans-serif" font-size="36" fill="#00B050" text-decoration="underline">To make a slice of celery you</text>
  <text x="70" y="585" font-family="Arial, sans-serif" font-size="36" fill="#00B050" text-decoration="underline">should bring it from the bag.</text>
  <text x="360" y="585" font-family="Arial, sans-serif" font-size="36">&lt;/think&gt;&lt;answer&gt;B. pick up celery&lt;/answer&gt;</text>

  <!-- Guidance Level Arrow Left -->
  <g transform="translate(120, 590)">
    <polygon points="0,20 20,0 20,10 320,10 320,30 20,30 20,40" fill="url(#grad-green-red)"/>
    <text x="250" y="55" font-family="Arial, sans-serif" font-size="36">Guidance Level</text>
  </g>

  <!-- RIGHT SIDE: Difficulty Increasement -->
  <text x="870" y="340" font-family="Times New Roman, serif" font-weight="bold" font-size="44">Difficulty Increasement Augmentation</text>
  
  <!-- Input Frames Right -->
  <use href="#video-frames" x="900" y="350" />
  <text x="990" y="400" font-size="40" font-weight="bold">. . .</text>
  <use href="#video-frames" x="1020" y="350" />

  <!-- Branching Arrows Right -->
  <path d="M1120,400 C1180,400 1200,380 1300,380 L1300,370" stroke="#666666" stroke-width="3" fill="none" marker-end="url(#arrowhead)"/>
  <path d="M1120,400 C1180,400 1200,450 1300,450 L1300,450" stroke="#666666" stroke-width="3" fill="none" marker-end="url(#arrowhead)"/>
  <path d="M1120,400 C1180,400 1200,520 1300,520 L1300,520" stroke="#666666" stroke-width="3" fill="none" marker-end="url(#arrowhead)"/>

  <!-- Result Clusters Right -->
  <!-- Cluster 1 (Clean) -->
  <use href="#video-frames" x="1300" y="350" />
  <!-- Cluster 2 (Noise 1) -->
  <g transform="translate(1420, 420)">
     <use href="#video-frames" x="0" y="0" filter="url(#noiseOverlay)" opacity="0.7"/>
  </g>
  <text x="1420" y="420" font-size="40" font-weight="bold">. . .</text>
  <!-- Cluster 3 (Noise 2) -->
  <g transform="translate(1450, 520)">
     <use href="#video-frames" x="0" y="0" filter="url(#noiseOverlay)" opacity="0.9"/>
  </g>
  <text x="1420" y="520" font-size="40" font-weight="bold">. . .</text>

  <!-- Math Equations -->
  <g transform="translate(950, 480)">
    <text x="0" y="0" font-family="Times New Roman, serif" font-size="60">Δ<tspan font-style="italic">R</tspan> &lt; 0</text>
    <text x="0" y="60" font-family="Times New Roman, serif" font-size="60">Δ<tspan font-style="italic">R</tspan> ≈ 0</text>
    <text x="0" y="120" font-family="Times New Roman, serif" font-size="60">Δ<tspan font-style="italic">R</tspan> &gt; 0</text>
  </g>

  <!-- Perturbation Arrows -->
  <g transform="translate(1120, 450)">
    <!-- Red Down -->
    <polygon points="0,0 20,0 20,200 30,200 10,220 -10,200 0,200" fill="url(#grad-arrow-red)"/>
    <!-- Green Up -->
    <polygon points="50,220 70,220 70,20 90,20 70,0 50,20" fill="url(#grad-arrow-green)"/>
  </g>

  <!-- Perturbation Level Bar -->
  <g transform="translate(1540, 350)">
    <rect x="0" y="0" width="25" height="350" fill="url(#grad-arrow-perturb)"/>
    <polygon points="0,350 25,350 12.5,380" fill="#FF0000"/>
    <text x="40" y="100" transform="rotate(90, 40, 100)" font-family="Arial, sans-serif" font-size="36">Perturbation Level</text>
  </g>

</svg>