<svg xmlns="http://www.w3.org/2000/svg" xmlns:xlink="http://www.w3.org/1999/xlink" width="1932" height="921" viewBox="0 0 1932 921" font-family="Times New Roman, Times, serif">
  <defs>
    <marker id="arrow" markerWidth="14" markerHeight="10" refX="13" refY="5" orient="auto" markerUnits="strokeWidth">
      <path d="M0,0 L14,5 L0,10 Z" fill="#000"/>
    </marker>
  </defs>
  <rect x="0" y="0" width="1932" height="921" fill="#fff"/>
  <g id="layout_connectors" fill="none" stroke="#000" stroke-width="3">
    <line x1="382" y1="175" x2="440" y2="175" stroke="#000" stroke-width="3" marker-end="url(#arrow)"/>
    <line x1="630" y1="175" x2="845" y2="175" stroke="#000" stroke-width="3" marker-end="url(#arrow)"/>
    <line x1="194" y1="286" x2="194" y2="336" stroke="#000" stroke-width="3" marker-end="url(#arrow)"/>
    <line x1="382" y1="462" x2="440" y2="462" stroke="#000" stroke-width="3" marker-end="url(#arrow)"/>
    <line x1="630" y1="462" x2="680" y2="462" stroke="#000" stroke-width="3" marker-end="url(#arrow)"/>
    <line x1="630" y1="747" x2="835" y2="747" stroke="#000" stroke-width="3" marker-end="url(#arrow)"/>
    <path d="M980 250 V318 H815 V363" fill="none" stroke="#000" stroke-width="3" stroke-linecap="square" stroke-linejoin="miter" marker-end="url(#arrow)"/>
    <line x1="950" y1="462" x2="1005" y2="462" stroke="#000" stroke-width="3" marker-end="url(#arrow)"/>
    <line x1="1326" y1="462" x2="1358" y2="462" stroke="#000" stroke-width="3" marker-end="url(#arrow)"/>
    <path d="M1115 166 H1486 V351" fill="none" stroke="#000" stroke-width="3" stroke-linecap="square" stroke-linejoin="miter" marker-end="url(#arrow)"/>
    <path d="M1115 747 H1486 V558" fill="none" stroke="#000" stroke-width="3" stroke-linecap="square" stroke-linejoin="miter" marker-end="url(#arrow)"/>
    <path d="M1605 462 H1624 V154 H1655" fill="none" stroke="#000" stroke-width="3" stroke-linecap="square" stroke-linejoin="miter" marker-end="url(#arrow)"/>
    <line x1="1786" y1="236" x2="1786" y2="321" stroke="#000" stroke-width="3" marker-end="url(#arrow)"/>
    <line x1="1786" y1="559" x2="1786" y2="655" stroke="#000" stroke-width="3" marker-end="url(#arrow)"/>
    <line x1="382" y1="747" x2="440" y2="747" stroke="#000" stroke-width="3" marker-end="url(#arrow)"/>
    <path d="M1786 830 V887 H383 V681" fill="none" stroke="#000" stroke-width="3" stroke-linecap="square" stroke-linejoin="miter" marker-end="url(#arrow)"/>
  </g>
  <g id="layout_blocks">
    <rect x="685" y="366" width="266" height="190" rx="26" ry="26" fill="#b8d99e" stroke="none" stroke-width="0"/>
    <text x="818" y="395" font-size="34" text-anchor="middle" fill="#000" >Energy-</text>
    <text x="818" y="439" font-size="34" text-anchor="middle" fill="#000" >guided</text>
    <text x="818" y="490" font-size="34" text-anchor="middle" fill="#000" >Confidence</text>
    <text x="818" y="535" font-size="34" text-anchor="middle" fill="#000" >Estimation</text>
    <rect x="1363" y="358" width="248" height="200" rx="24" ry="24" fill="#f3a870" stroke="none" stroke-width="0"/>
    <text x="1487" y="395" font-size="34" text-anchor="middle" fill="#000" >Confidence</text>
    <text x="1487" y="440" font-size="34" text-anchor="middle" fill="#000" >Propagation</text>
    <text x="1487" y="486" font-size="34" text-anchor="middle" fill="#000" >Volume</text>
    <text x="1487" y="531" font-size="34" text-anchor="middle" fill="#000" >Construction</text>
    <rect x="1668" y="357" width="262" height="202" rx="26" ry="26" fill="#8fa6cb" stroke="none" stroke-width="0"/>
    <text x="1799" y="449" font-size="36" text-anchor="middle" fill="#000" >Cost</text>
    <text x="1799" y="498" font-size="36" text-anchor="middle" fill="#000" >Aggregation</text>
  </g>
  <g id="layout_text" fill="#000">
    <text x="125" y="268" font-size="35" text-anchor="middle" fill="#000" >Captured Event Frames</text>
    <text x="550" y="313" font-size="35" text-anchor="middle" fill="#000" >Feature Extraction</text>
    <text x="160" y="612" font-size="35" text-anchor="middle" fill="#000" >Energy Map</text>
    <text x="550" y="596" font-size="35" text-anchor="middle" fill="#000" >Feature Extraction</text>
    <text x="160" y="905" font-size="35" text-anchor="middle" fill="#000" >Reference Frames</text>
    <text x="550" y="888" font-size="35" text-anchor="middle" fill="#000" >Feature Extraction</text>
    <text x="977" y="273" font-size="35" text-anchor="middle" fill="#000" >Left Features</text>
    <text x="990" y="881" font-size="35" text-anchor="middle" fill="#000" >Right Features</text>
    <text x="1166" y="586" font-size="35" text-anchor="middle" fill="#000" >Confidence Maps</text>
    <text x="1785" y="905" font-size="35" text-anchor="middle" fill="#000" >Disparity</text>
  </g>
  <g id="asset_placeholders">
  <g id="slot_captured_event_frames" data-bbox="[30,38,350,190]" data-role="asset">
    <rect x="30" y="38" width="350" height="190" fill="#f8f8f8" stroke="#666" stroke-width="2" stroke-dasharray="8 5"/>
    <line x1="30" y1="38" x2="380" y2="228" stroke="#aaa" stroke-width="1.5"/>
    <line x1="380" y1="38" x2="30" y2="228" stroke="#aaa" stroke-width="1.5"/>
    <text x="205.0" y="133.0" font-size="22" text-anchor="middle" dominant-baseline="middle" fill="#555">ASSET_SLOT</text>
  </g>
  <g id="slot_feature_bars_top" data-bbox="[450,74,180,170]" data-role="asset">
    <rect x="450" y="74" width="180" height="170" fill="#f8f8f8" stroke="#666" stroke-width="2" stroke-dasharray="8 5"/>
    <line x1="450" y1="74" x2="630" y2="244" stroke="#aaa" stroke-width="1.5"/>
    <line x1="630" y1="74" x2="450" y2="244" stroke="#aaa" stroke-width="1.5"/>
    <text x="540.0" y="159.0" font-size="22" text-anchor="middle" dominant-baseline="middle" fill="#555">ASSET_SLOT</text>
  </g>
  <g id="slot_left_features_stack" data-bbox="[838,45,276,210]" data-role="asset">
    <rect x="838" y="45" width="276" height="210" fill="#f8f8f8" stroke="#666" stroke-width="2" stroke-dasharray="8 5"/>
    <line x1="838" y1="45" x2="1114" y2="255" stroke="#aaa" stroke-width="1.5"/>
    <line x1="1114" y1="45" x2="838" y2="255" stroke="#aaa" stroke-width="1.5"/>
    <text x="976.0" y="150.0" font-size="22" text-anchor="middle" dominant-baseline="middle" fill="#555">ASSET_SLOT</text>
  </g>
  <g id="slot_energy_map" data-bbox="[30,345,350,220]" data-role="asset">
    <rect x="30" y="345" width="350" height="220" fill="#f8f8f8" stroke="#666" stroke-width="2" stroke-dasharray="8 5"/>
    <line x1="30" y1="345" x2="380" y2="565" stroke="#aaa" stroke-width="1.5"/>
    <line x1="380" y1="345" x2="30" y2="565" stroke="#aaa" stroke-width="1.5"/>
    <text x="205.0" y="455.0" font-size="22" text-anchor="middle" dominant-baseline="middle" fill="#555">ASSET_SLOT</text>
  </g>
  <g id="slot_feature_bars_middle" data-bbox="[450,360,180,175]" data-role="asset">
    <rect x="450" y="360" width="180" height="175" fill="#f8f8f8" stroke="#666" stroke-width="2" stroke-dasharray="8 5"/>
    <line x1="450" y1="360" x2="630" y2="535" stroke="#aaa" stroke-width="1.5"/>
    <line x1="630" y1="360" x2="450" y2="535" stroke="#aaa" stroke-width="1.5"/>
    <text x="540.0" y="447.5" font-size="22" text-anchor="middle" dominant-baseline="middle" fill="#555">ASSET_SLOT</text>
  </g>
  <g id="slot_confidence_maps" data-bbox="[1012,336,314,210]" data-role="asset">
    <rect x="1012" y="336" width="314" height="210" fill="#f8f8f8" stroke="#666" stroke-width="2" stroke-dasharray="8 5"/>
    <line x1="1012" y1="336" x2="1326" y2="546" stroke="#aaa" stroke-width="1.5"/>
    <line x1="1326" y1="336" x2="1012" y2="546" stroke="#aaa" stroke-width="1.5"/>
    <text x="1169.0" y="441.0" font-size="22" text-anchor="middle" dominant-baseline="middle" fill="#555">ASSET_SLOT</text>
  </g>
  <g id="slot_reference_frames" data-bbox="[30,638,350,230]" data-role="asset">
    <rect x="30" y="638" width="350" height="230" fill="#f8f8f8" stroke="#666" stroke-width="2" stroke-dasharray="8 5"/>
    <line x1="30" y1="638" x2="380" y2="868" stroke="#aaa" stroke-width="1.5"/>
    <line x1="380" y1="638" x2="30" y2="868" stroke="#aaa" stroke-width="1.5"/>
    <text x="205.0" y="753.0" font-size="22" text-anchor="middle" dominant-baseline="middle" fill="#555">ASSET_SLOT</text>
  </g>
  <g id="slot_feature_bars_bottom" data-bbox="[450,646,180,175]" data-role="asset">
    <rect x="450" y="646" width="180" height="175" fill="#f8f8f8" stroke="#666" stroke-width="2" stroke-dasharray="8 5"/>
    <line x1="450" y1="646" x2="630" y2="821" stroke="#aaa" stroke-width="1.5"/>
    <line x1="630" y1="646" x2="450" y2="821" stroke="#aaa" stroke-width="1.5"/>
    <text x="540.0" y="733.5" font-size="22" text-anchor="middle" dominant-baseline="middle" fill="#555">ASSET_SLOT</text>
  </g>
  <g id="slot_right_features_stack" data-bbox="[835,625,278,200]" data-role="asset">
    <rect x="835" y="625" width="278" height="200" fill="#f8f8f8" stroke="#666" stroke-width="2" stroke-dasharray="8 5"/>
    <line x1="835" y1="625" x2="1113" y2="825" stroke="#aaa" stroke-width="1.5"/>
    <line x1="1113" y1="625" x2="835" y2="825" stroke="#aaa" stroke-width="1.5"/>
    <text x="974.0" y="725.0" font-size="22" text-anchor="middle" dominant-baseline="middle" fill="#555">ASSET_SLOT</text>
  </g>
  <g id="slot_cost_volume" data-bbox="[1660,64,255,170]" data-role="asset">
    <rect x="1660" y="64" width="255" height="170" fill="#f8f8f8" stroke="#666" stroke-width="2" stroke-dasharray="8 5"/>
    <line x1="1660" y1="64" x2="1915" y2="234" stroke="#aaa" stroke-width="1.5"/>
    <line x1="1915" y1="64" x2="1660" y2="234" stroke="#aaa" stroke-width="1.5"/>
    <text x="1787.5" y="149.0" font-size="22" text-anchor="middle" dominant-baseline="middle" fill="#555">ASSET_SLOT</text>
  </g>
  <g id="slot_disparity" data-bbox="[1645,660,293,170]" data-role="asset">
    <rect x="1645" y="660" width="293" height="170" fill="#f8f8f8" stroke="#666" stroke-width="2" stroke-dasharray="8 5"/>
    <line x1="1645" y1="660" x2="1938" y2="830" stroke="#aaa" stroke-width="1.5"/>
    <line x1="1938" y1="660" x2="1645" y2="830" stroke="#aaa" stroke-width="1.5"/>
    <text x="1791.5" y="745.0" font-size="22" text-anchor="middle" dominant-baseline="middle" fill="#555">ASSET_SLOT</text>
  </g>
  </g>
</svg>