<svg xmlns="http://www.w3.org/2000/svg" viewBox="-3.0 12.0 1741.0 721.0" style="font-family: 'Times New Roman', serif;">
  <defs>
    <!-- Arrowheads -->
    <marker id="arrow-grey" markerWidth="6" markerHeight="6" refX="5" refY="3" orient="auto" fill="#666666">
      <path d="M0,0 L6,3 L0,6 L1,3 Z" />
    </marker>
    <marker id="arrow-green" markerWidth="6" markerHeight="6" refX="5" refY="3" orient="auto" fill="#9ACD9A">
      <path d="M0,0 L6,3 L0,6 L1,3 Z" />
    </marker>
    <marker id="arrow-blue" markerWidth="6" markerHeight="6" refX="5" refY="3" orient="auto" fill="#8DA6D6">
      <path d="M0,0 L6,3 L0,6 L1,3 Z" />
    </marker>
    <marker id="arrow-grey-lg" markerWidth="4" markerHeight="4" refX="3" refY="2" orient="auto" fill="#888">
      <path d="M0,0 L4,2 L0,4 L1,2 Z" />
    </marker>
  </defs>

  <!-- Backgrounds -->
  <!-- Left Panel -->
  <rect x="5" y="20" width="1050" height="530" rx="15" fill="#F0F5F0" stroke="#666" stroke-width="4" />
  <!-- Right Panel -->
  <rect x="1070" y="20" width="525" height="530" rx="15" fill="#FAF8F8" stroke="#666" stroke-width="4" />

  <!-- ================= LEFT PANEL: DyFlow Framework ================= -->
  
  <!-- Header -->
  <rect x="320" y="20" width="420" height="70" fill="#FFF0C5" stroke="#666" stroke-width="4" />
  <text x="530" y="70" font-size="60" font-weight="bold" text-anchor="middle" fill="black">DyFlow Framework</text>

  <!-- Task p (Parallelogram) -->
  <path d="M100,70 L260,70 L220,150 L60,150 Z" fill="#BDE0FF" stroke="black" stroke-width="5" />
  <text x="160" y="130" font-size="70" text-anchor="middle" fill="black">Task <tspan font-style="italic">p</tspan></text>

  <!-- Arrow Task -> Designer -->
  <path d="M240,110 L500,110" stroke="#666" stroke-width="8" fill="none" marker-end="url(#arrow-grey)" />

  <!-- Designer -->
  <rect x="510" y="85" width="360" height="100" rx="15" fill="#FDD0C0" stroke="black" stroke-width="5" />
  <text x="690" y="140" font-size="70" text-anchor="middle" fill="black">Designer</text>
  <!-- Designer Inner Squares -->
  <rect x="520" y="95" width="80" height="80" fill="#888" stroke="black" stroke-width="2" />
  <text x="560" y="120" font-size="18" fill="white" text-anchor="middle" font-family="Arial"><tspan font-weight="bold">&lt;AF&gt;</tspan>09</text>
  <rect x="780" y="95" width="80" height="80" fill="#888" stroke="black" stroke-width="2" />
  <text x="820" y="120" font-size="18" fill="white" text-anchor="middle" font-family="Arial"><tspan font-weight="bold">&lt;AF&gt;</tspan>14</text>

  <!-- Arrow Designer -> Subgraph -->
  <path d="M680,135 L680,180" stroke="#666" stroke-width="8" fill="none" marker-end="url(#arrow-grey)" />

  <!-- Subgraph Gt -->
  <rect x="285" y="175" width="720" height="550" rx="30" fill="#E3EED6" stroke="black" stroke-width="4" />
  <text x="645" y="225" font-size="70" text-anchor="middle" fill="black">Subgraph <tspan font-style="italic">G<tspan dy="10" font-size="40">t</tspan></tspan></text>
  <line x1="295" y1="235" x2="1000" y2="235" stroke="black" stroke-width="4" />

  <!-- Replan Arrow -->
  <path d="M120,200 Q120,150 560,150 Q560,150 560,145" stroke="#9ACD9A" stroke-width="8" fill="none" marker-end="url(#arrow-green)" />
  <text x="280" y="150" font-size="50" font-weight="bold" fill="black">Replan</text>

  <!-- Op Sequence -->
  <rect x="325" y="245" width="640" height="170" rx="10" fill="#FBEFE5" stroke="black" stroke-width="4" />
  <rect x="555" y="240" width="240" height="70" fill="#FBEFE5" stroke="black" stroke-width="4" />
  <text x="675" y="275" font-size="50" text-anchor="middle" fill="black">Op Sequence</text>
  
  <!-- Sequence Content -->
  <!-- Left Loop -->
  <circle cx="360" cy="330" r="35" fill="#DDEEFF" stroke="#6688CC" stroke-width="5" />
  <rect x="450" y="310" width="120" height="70" fill="#D0E8D0" stroke="#9ACD9A" stroke-width="5" rx="10" />
  <line x1="360" y1="330" x2="450" y2="330" stroke="black" stroke-width="4" marker-end="url(#arrow-grey)" />
  <path d="M490,330 L560,330" stroke="black" stroke-width="4" marker-end="url(#arrow-grey)" />
  <rect x="570" y="310" width="80" height="80" fill="#888" stroke="black" stroke-width="2" />
  <text x="610" y="335" font-size="18" fill="white" text-anchor="middle" font-family="Arial"><tspan font-weight="bold">&lt;AF&gt;</tspan>17</text>
  <!-- Feedback Loop Left -->
  <path d="M490,310 L490,275 L360,275 L360,310" fill="none" stroke="black" stroke-width="4" marker-end="url(#arrow-grey)" />

  <!-- Right Loop -->
  <circle cx="790" cy="340" r="35" fill="#DDEEFF" stroke="#6688CC" stroke-width="5" />
  <rect x="860" y="300" width="70" height="70" fill="#D0D0E0" stroke="#666699" stroke-width="5" rx="10" />
  <path d="M790,305 L790,280 Q790,280 730,280 Q690,280 690,310" fill="none" stroke="black" stroke-width="4" marker-end="url(#arrow-grey)" />
  <path d="M790,340 L790,365 L860,365 L860,330" fill="none" stroke="black" stroke-width="4" marker-end="url(#arrow-grey)" />
  <!-- Top Right Square -->
  <rect x="760" y="260" width="80" height="70" fill="#888" stroke="black" stroke-width="2" />
  <text x="800" y="285" font-size="18" fill="white" text-anchor="middle" font-family="Arial"><tspan font-weight="bold">&lt;AF&gt;</tspan>04</text>
  <path d="M760,280 L860,280 L860,300" fill="none" stroke="black" stroke-width="4" marker-end="url(#arrow-grey)" />
  
  <!-- Dots -->
  <rect x="940" y="245" width="40" height="170" fill="#FBEFE5" stroke="black" stroke-width="3" />
  <rect x="950" y="270" width="6" height="6" fill="black" />
  <rect x="950" y="285" width="6" height="6" fill="black" />
  <rect x="950" y="300" width="6" height="6" fill="black" />
  <rect x="950" y="315" width="6" height="6" fill="black" />
  <rect x="950" y="330" width="6" height="6" fill="black" />
  <rect x="950" y="345" width="6" height="6" fill="black" />
  <rect x="950" y="360" width="6" height="6" fill="black" />
  <rect x="950" y="375" width="6" height="6" fill="black" />

  <!-- Op Template vs Op Instance -->
  <rect x="325" y="410" width="240" height="70" fill="#E3EED6" stroke="black" stroke-width="4" />
  <text x="460" y="445" font-size="50" text-anchor="middle" fill="black">Op Template</text>
  <rect x="730" y="410" width="240" height="70" fill="#E3EED6" stroke="black" stroke-width="4" />
  <text x="850" y="445" font-size="50" text-anchor="middle" fill="black">Op Instance</text>

  <!-- Template Box -->
  <rect x="330" y="450" width="310" height="150" rx="10" fill="#DDE6F0" stroke="black" stroke-width="4" />
  <circle cx="360" cy="500" r="40" fill="white" stroke="black" stroke-width="5" />
  <rect x="390" y="480" width="120" height="70" fill="white" stroke="black" stroke-width="5" rx="10" />
  <rect x="480" y="480" width="80" height="80" fill="#888" stroke="black" stroke-width="2" />
  <text x="520" y="505" font-size="18" fill="white" text-anchor="middle" font-family="Arial"><tspan font-weight="bold">&lt;AF&gt;</tspan>28</text>
  <rect x="540" y="480" width="80" height="80" fill="#888" stroke="black" stroke-width="2" />
  <text x="580" y="505" font-size="18" fill="white" text-anchor="middle" font-family="Arial"><tspan font-weight="bold">&lt;AF&gt;</tspan>29</text>
  <text x="460" y="540" font-size="40" font-weight="bold">. . . .</text>

  <!-- Instance Box -->
  <rect x="700" y="450" width="310" height="150" rx="10" fill="#E0EFEF" stroke="black" stroke-width="4" />
  <rect x="710" y="480" width="80" height="80" fill="#888" stroke="black" stroke-width="2" />
  <text x="750" y="505" font-size="18" fill="white" text-anchor="middle" font-family="Arial"><tspan font-weight="bold">&lt;AF&gt;</tspan>19</text>
  <rect x="780" y="480" width="120" height="70" fill="#D0E8D0" stroke="#9ACD9A" stroke-width="5" rx="10" />
  <rect x="860" y="480" width="80" height="80" fill="#888" stroke="black" stroke-width="2" />
  <text x="900" y="505" font-size="18" fill="white" text-anchor="middle" font-family="Arial"><tspan font-weight="bold">&lt;AF&gt;</tspan>10</text>
  <rect x="920" y="480" width="80" height="80" fill="#888" stroke="black" stroke-width="2" />
  <text x="960" y="505" font-size="18" fill="white" text-anchor="middle" font-family="Arial"><tspan font-weight="bold">&lt;AF&gt;</tspan>07</text>
  <text x="830" y="540" font-size="40" font-weight="bold">. . . .</text>

  <!-- Connectors Template/Instance -->
  <path d="M640,500 L710,500" stroke="#888" stroke-width="8" stroke-dasharray="20,10" marker-end="url(#arrow-grey-lg)" />
  <!-- Floating squares -->
  <rect x="640" y="460" width="40" height="60" fill="#888" stroke="black" stroke-width="2" />
  <text x="660" y="490" font-size="12" fill="white" text-anchor="middle" font-family="Arial"><tspan font-weight="bold">&lt;AF&gt;</tspan>13</text>
  <rect x="640" y="520" width="40" height="60" fill="#888" stroke="black" stroke-width="2" />
  <text x="660" y="550" font-size="12" fill="white" text-anchor="middle" font-family="Arial"><tspan font-weight="bold">&lt;AF&gt;</tspan>03</text>

  <!-- Iterate Loop -->
  <path d="M200,400 A 100 100 0 1 1 200 300" fill="none" stroke="#C0DCC0" stroke-width="12" />
  <path d="M200,400 A 100 100 0 1 1 200 300" fill="none" stroke="#9ACD9A" stroke-width="4" marker-end="url(#arrow-green)" />
  <text x="220" y="360" font-size="45" font-weight="bold" fill="black">Iterate</text>

  <!-- Blue Dotted Arrow -->
  <path d="M590,350 Q620,400 660,420" fill="none" stroke="#8DA6D6" stroke-width="8" stroke-dasharray="10,10" marker-end="url(#arrow-blue)" />
  <rect x="530" y="360" width="100" height="90" fill="#888" stroke="black" stroke-width="2" />
  <text x="580" y="395" font-size="24" fill="white" text-anchor="middle" font-family="Arial"><tspan font-weight="bold">&lt;AF&gt;</tspan>15</text>

  <!-- Summarize f -->
  <rect x="70" y="190" width="100" height="180" rx="10" fill="#FDF5C5" stroke="black" stroke-width="5" />
  <text x="120" y="280" font-size="60" text-anchor="middle" transform="rotate(-90, 120, 280)" fill="black">Summarize <tspan font-style="italic">f</tspan></text>
  
  <rect x="70" y="410" width="100" height="180" rx="10" fill="#F1F0A8" stroke="black" stroke-width="5" />
  <text x="120" y="500" font-size="60" text-anchor="middle" transform="rotate(-90, 120, 500)" fill="black">State <tspan font-style="italic">s<tspan dy="10" font-size="35">t</tspan></tspan></text>

  <!-- Arrow State -> Summarize -->
  <path d="M120,410 L120,320" stroke="#888" stroke-width="6" marker-end="url(#arrow-grey)" />

  <!-- Save Arrow -->
  <path d="M285,480 L150,480" stroke="#666" stroke-width="6" marker-end="url(#arrow-grey)" />
  <text x="180" y="510" font-size="55" font-weight="bold" fill="black">Save</text>

  <!-- ================= RIGHT PANEL: Training Framework ================= -->

  <!-- Tasks P -->
  <path d="M1400,50 L1550,50 C1570,50 1570,110 1550,110 L1400,110 C1380,110 1380,50 1400,50 Z" fill="#FDDCA8" stroke="black" stroke-width="5" />
  <rect x="1380" y="50" width="20" height="60" fill="#FDDCA8" stroke="black" stroke-width="5" />
  <text x="1470" y="100" font-size="60" text-anchor="middle" fill="black">Tasks <tspan font-family="cursive" font-weight="bold">P</tspan></text>

  <!-- Sample Arrow -->
  <path d="M1400,85 L1150,85" stroke="#888" stroke-width="6" fill="none" marker-end="url(#arrow-grey)" />
  <text x="1280" y="75" font-size="50" font-weight="bold" text-anchor="middle" fill="black">Sample</text>

  <!-- Expert -->
  <rect x="1090" y="50" width="130" height="180" rx="15" fill="#BDE0FF" stroke="black" stroke-width="5" />
  <text x="1120" y="140" font-size="60" text-anchor="middle" transform="rotate(-90, 1120, 140)" fill="black">Expert</text>
  <rect x="1095" y="170" width="90" height="80" fill="#888" stroke="black" stroke-width="2" />
  <text x="1140" y="195" font-size="18" fill="white" text-anchor="middle" font-family="Arial"><tspan font-weight="bold">&lt;AF&gt;</tspan>24</text>

  <!-- Expert Trajectories -->
  <text x="1420" y="140" font-size="45" text-anchor="middle" fill="black">Expert Trajectories</text>
  <rect x="1220" y="140" width="350" height="120" rx="10" fill="#FDD0C0" stroke="black" stroke-width="4" />
  <rect x="1240" y="145" width="80" height="80" fill="#888" stroke="black" stroke-width="2" />
  <text x="1280" y="170" font-size="18" fill="white" text-anchor="middle" font-family="Arial"><tspan font-weight="bold">&lt;AF&gt;</tspan>02</text>
  <rect x="1290" y="145" width="80" height="80" fill="#888" stroke="black" stroke-width="2" />
  <text x="1330" y="170" font-size="18" fill="white" text-anchor="middle" font-family="Arial"><tspan font-weight="bold">&lt;AF&gt;</tspan>26</text>
  <rect x="1390" y="145" width="80" height="80" fill="#888" stroke="black" stroke-width="2" />
  <text x="1430" y="170" font-size="18" fill="white" text-anchor="middle" font-family="Arial"><tspan font-weight="bold">&lt;AF&gt;</tspan>01</text>
  <rect x="1450" y="145" width="80" height="80" fill="#888" stroke="black" stroke-width="2" />
  <text x="1490" y="170" font-size="18" fill="white" text-anchor="middle" font-family="Arial"><tspan font-weight="bold">&lt;AF&gt;</tspan>05</text>
  <text x="1530" y="180" font-size="40" font-weight="bold">. . . . . .</text>
  <!-- Braces -->
  <path d="M1250,190 Q1250,200 1260,200 L1290,200 Q1300,200 1300,210 Q1300,200 1310,200 L1350,200 Q1360,200 1360,190" fill="none" stroke="black" stroke-width="3" />
  <text x="1305" y="200" font-size="30" font-style="italic" text-anchor="middle">t − 1</text>
  <path d="M1400,190 Q1400,200 1410,200 L1440,200 Q1450,200 1450,210 Q1450,200 1460,200 L1490,200 Q1500,200 1500,190" fill="none" stroke="black" stroke-width="3" />
  <text x="1450" y="200" font-size="30" font-style="italic" text-anchor="middle">t</text>

  <!-- Distillation -->
  <text x="1250" y="250" font-size="55" font-weight="bold" fill="black">Distillation</text>
  <text x="1480" y="250" font-size="60" font-family="cursive" font-weight="bold" fill="black">L<tspan dy="10" font-size="40" font-family="serif" font-style="normal">SFT</tspan></text>
  <path d="M1420,210 L1420,270" stroke="#888" stroke-width="6" stroke-dasharray="8,4" marker-end="url(#arrow-grey)" />
  <path d="M1090,180 L1220,180" stroke="#888" stroke-width="6" stroke-dasharray="20,10" marker-end="url(#arrow-grey)" />

  <!-- DyPlanner -->
  <rect x="1090" y="270" width="460" height="90" rx="15" fill="#FDD0C0" stroke="black" stroke-width="5" />
  <text x="1320" y="320" font-size="70" text-anchor="middle" fill="black">DyPlanner</text>
  <rect x="1140" y="275" width="80" height="80" fill="#888" stroke="black" stroke-width="2" />
  <text x="1180" y="300" font-size="18" fill="white" text-anchor="middle" font-family="Arial"><tspan font-weight="bold">&lt;AF&gt;</tspan>16</text>

  <!-- Self-play Loop -->
  <path d="M1250,450 A 120 120 0 1 1 1350 450" fill="none" stroke="#C0DCC0" stroke-width="12" />
  <path d="M1250,450 A 120 120 0 1 1 1350 450" fill="none" stroke="#9ACD9A" stroke-width="4" marker-end="url(#arrow-green)" />
  <text x="1250" y="400" font-size="35" font-weight="bold" fill="black">Self-play Preference</text>
  <text x="1240" y="420" font-size="35" font-weight="bold" fill="black">Optimization</text>

  <!-- Generate Arrow -->
  <path d="M1160,310 L1160,460" stroke="#888" stroke-width="8" marker-end="url(#arrow-grey)" />
  <text x="1140" y="400" font-size="55" font-weight="bold" text-anchor="middle" transform="rotate(-90, 1140, 400)" fill="black">Generate</text>

  <!-- Self-generate Trajectories -->
  <rect x="1075" y="450" width="240" height="180" rx="15" fill="#FDD0C0" stroke="black" stroke-width="5" />
  <text x="1195" y="500" font-size="55" text-anchor="middle" fill="black">Self-generate</text>
  <text x="1195" y="550" font-size="55" text-anchor="middle" fill="black">Trajectories</text>

  <!-- Execution Arrow -->
  <path d="M1280,500 L1400,500" stroke="#888" stroke-width="8" marker-end="url(#arrow-grey)" />
  <text x="1340" y="525" font-size="45" font-weight="bold" text-anchor="middle" fill="black">Execution</text>

  <!-- Output Box -->
  <rect x="1390" y="450" width="200" height="180" rx="10" fill="#FDD0C0" stroke="black" stroke-width="4" />
  <!-- Row 1 -->
  <rect x="1410" y="470" width="70" height="60" fill="#888" stroke="black" stroke-width="2" />
  <text x="1445" y="495" font-size="14" fill="white" text-anchor="middle" font-family="Arial"><tspan font-weight="bold">&lt;AF&gt;</tspan>25</text>
  <rect x="1480" y="470" width="70" height="60" fill="#888" stroke="black" stroke-width="2" />
  <text x="1515" y="495" font-size="14" fill="white" text-anchor="middle" font-family="Arial"><tspan font-weight="bold">&lt;AF&gt;</tspan>21</text>
  <rect x="1540" y="470" width="70" height="60" fill="#888" stroke="black" stroke-width="2" />
  <text x="1575" y="495" font-size="14" fill="white" text-anchor="middle" font-family="Arial"><tspan font-weight="bold">&lt;AF&gt;</tspan>08</text>
  <rect x="1600" y="470" width="70" height="60" fill="#888" stroke="black" stroke-width="2" />
  <text x="1635" y="495" font-size="14" fill="white" text-anchor="middle" font-family="Arial"><tspan font-weight="bold">&lt;AF&gt;</tspan>11</text>
  <rect x="1660" y="470" width="70" height="60" fill="#888" stroke="black" stroke-width="2" />
  <text x="1695" y="495" font-size="14" fill="white" text-anchor="middle" font-family="Arial"><tspan font-weight="bold">&lt;AF&gt;</tspan>22</text>
  <!-- Row 2 -->
  <rect x="1410" y="520" width="70" height="60" fill="#888" stroke="black" stroke-width="2" />
  <text x="1445" y="545" font-size="14" fill="white" text-anchor="middle" font-family="Arial"><tspan font-weight="bold">&lt;AF&gt;</tspan>23</text>
  <rect x="1480" y="520" width="70" height="60" fill="#888" stroke="black" stroke-width="2" />
  <text x="1515" y="545" font-size="14" fill="white" text-anchor="middle" font-family="Arial"><tspan font-weight="bold">&lt;AF&gt;</tspan>27</text>
  <rect x="1540" y="520" width="70" height="60" fill="#888" stroke="black" stroke-width="2" />
  <text x="1575" y="545" font-size="14" fill="white" text-anchor="middle" font-family="Arial"><tspan font-weight="bold">&lt;AF&gt;</tspan>06</text>
  <rect x="1600" y="520" width="70" height="60" fill="#888" stroke="black" stroke-width="2" />
  <text x="1635" y="545" font-size="14" fill="white" text-anchor="middle" font-family="Arial"><tspan font-weight="bold">&lt;AF&gt;</tspan>18</text>
  <rect x="1660" y="520" width="70" height="60" fill="#888" stroke="black" stroke-width="2" />
  <text x="1695" y="545" font-size="14" fill="white" text-anchor="middle" font-family="Arial"><tspan font-weight="bold">&lt;AF&gt;</tspan>20</text>

  <!-- Dashed Highlights -->
  <rect x="1405" y="465" width="200" height="70" fill="none" stroke="#888" stroke-width="3" stroke-dasharray="5,5" rx="5" />
  <rect x="1405" y="515" width="200" height="70" fill="none" stroke="#FDDCA8" stroke-width="3" stroke-dasharray="5,5" rx="5" />

  <!-- KTO Loss -->
  <text x="1500" y="420" font-size="70" font-family="cursive" font-weight="bold" fill="black">L<tspan dy="10" font-size="50" font-family="serif" font-style="normal">KTO</tspan></text>
  <path d="M1480,460 L1480,320" stroke="#888" stroke-width="6" marker-end="url(#arrow-grey)" />

</svg>